<svg width="387" height="63" viewBox="0 0 387 63" fill="none" xmlns="http://www.w3.org/2000/svg">
<path d="M51.0583 19.9251C48.3918 23.4764 45.7253 27.0276 42.32 31.4638C49.1306 40.2701 52.7694 45.3766 59.5799 54.1829C61.797 57.0497 60.0484 59.5581 57.4134 59.5581L47.7363 59.5581C44.3421 59.5581 42.8617 59.1998 41.309 57.0497L18.4066 26.2785L29.4461 22.2352L39.9369 7.8847C43.5588 3.01836 44.1709 2.7962 50.4084 2.7962L56.6191 2.7962C59.7966 2.7962 61.8187 4.91059 59.7966 8.38639L51.0583 19.9251Z" fill="url(#paint0_linear_110_22805)"/>
<g filter="url(#filter0_f_110_22805)">
<path d="M50.0755 20.4358C50.0753 20.4361 50.0751 20.4363 50.0749 20.4366C47.7065 23.8414 45.338 27.2463 42.3645 31.4881C48.3115 39.9084 51.6489 44.7541 57.5959 53.1744C59.5319 55.9155 58.005 58.314 55.7041 58.314L47.254 58.314C44.2901 58.314 42.9974 58.2704 41.6416 56.2145L33.204 46.0285C33.204 46.0285 25.2179 35.7647 25.4528 35.6869C25.6877 35.6091 29.5241 22.2352 29.5241 22.2352L31.3249 19.7469L39.4676 8.70558C43.046 4.27348 44.1406 4.04025 49.5873 4.04025L55.0105 4.04025C59.1978 4.04025 60.6601 5.28431 57.7852 9.38539L50.0755 20.4358Z" fill="url(#paint1_radial_110_22805)"/>
</g>
<path d="M21.1062 5.3048C19.5534 3.15473 18.073 2.79639 14.6788 2.79639H5.00174C2.36681 2.79639 0.61819 5.3048 2.83526 8.17157C9.64579 16.9779 13.2846 22.0844 20.0951 30.8907L32.969 40.1193L44.0086 36.076L21.1062 5.3048Z" fill="url(#paint2_linear_110_22805)"/>
<g filter="url(#filter1_f_110_22805)">
<path d="M18.9546 5.28453C17.7801 3.65165 16.2142 4.04045 13.9437 4.04045H6.7893C4.48845 4.04045 2.96153 6.43891 4.8975 9.18001C10.8445 17.6003 15.1998 22.8348 21.1468 31.255L31.6383 41.2078L45.0267 37.5533L18.9546 5.28453Z" fill="url(#paint3_radial_110_22805)"/>
</g>
<path d="M11.3567 42.4293C14.0232 38.8781 16.6897 35.3268 20.095 30.8906L32.9689 40.1192L22.4782 54.4697C18.8562 59.3361 18.2441 59.5583 12.0067 59.5583H5.79599C2.61845 59.5583 0.596367 57.4439 2.61845 53.9681L11.3567 42.4293Z" fill="url(#paint4_linear_110_22805)"/>
<g filter="url(#filter2_f_110_22805)">
<path d="M4.70803 52.9689C7.68155 48.7272 10.461 45.0891 13.2405 41.451L21.7729 29.9331L32.9691 40.1191L30.6985 42.7629L21.7729 53.5709C17.8582 57.9253 18.3526 58.3141 12.9059 58.3141H7.4827C4.70803 58.3141 2.94232 56.2924 4.70803 52.9689Z" fill="url(#paint5_radial_110_22805)"/>
</g>
<path d="M71.3252 22.7056L65.2461 40.7964H60.9834L68.9521 19.4683H71.6768L71.3252 22.7056ZM76.4082 40.7964L70.2998 22.7056L69.9336 19.4683H72.6729L80.6855 40.7964H76.4082ZM76.1299 32.8716V36.0503H64.6895V32.8716H76.1299ZM87.1748 19.4683V40.7964H83.1465V19.4683H87.1748ZM110.158 35.2593C110.158 34.8491 110.095 34.4829 109.968 34.1606C109.851 33.8286 109.631 33.5308 109.309 33.2671C108.996 32.9937 108.552 32.73 107.976 32.4761C107.409 32.2124 106.677 31.939 105.778 31.6558C104.782 31.3433 103.854 30.9917 102.995 30.6011C102.136 30.2104 101.379 29.7563 100.725 29.2388C100.08 28.7212 99.5771 28.1255 99.2158 27.4517C98.8545 26.7681 98.6738 25.9771 98.6738 25.0786C98.6738 24.1997 98.8594 23.3989 99.2305 22.6763C99.6113 21.9536 100.148 21.3335 100.842 20.8159C101.535 20.2886 102.351 19.8833 103.288 19.6001C104.235 19.3169 105.28 19.1753 106.423 19.1753C108.005 19.1753 109.372 19.4634 110.524 20.0396C111.687 20.6157 112.585 21.397 113.22 22.3833C113.854 23.3696 114.172 24.478 114.172 25.7085H110.158C110.158 25.0444 110.017 24.4585 109.733 23.9507C109.46 23.4429 109.04 23.0425 108.474 22.7495C107.917 22.4565 107.214 22.3101 106.364 22.3101C105.544 22.3101 104.86 22.4321 104.313 22.6763C103.776 22.9204 103.371 23.2524 103.098 23.6724C102.834 24.0923 102.702 24.561 102.702 25.0786C102.702 25.4692 102.795 25.8208 102.98 26.1333C103.166 26.436 103.444 26.7241 103.815 26.9976C104.187 27.2612 104.646 27.5103 105.192 27.7446C105.749 27.9692 106.394 28.1938 107.126 28.4185C108.298 28.77 109.323 29.1606 110.202 29.5903C111.091 30.02 111.828 30.5083 112.414 31.0552C113.01 31.6021 113.454 32.2173 113.747 32.9009C114.05 33.5845 114.201 34.3608 114.201 35.23C114.201 36.1479 114.021 36.9683 113.659 37.6909C113.298 38.4136 112.78 39.0288 112.106 39.5366C111.433 40.0444 110.622 40.4302 109.675 40.6938C108.737 40.9575 107.688 41.0894 106.525 41.0894C105.49 41.0894 104.465 40.9526 103.449 40.6792C102.443 40.396 101.53 39.9761 100.71 39.4194C99.8896 38.853 99.2354 38.1401 98.7471 37.2808C98.2588 36.4116 98.0146 35.396 98.0146 34.2339H102.058C102.058 34.9077 102.165 35.4839 102.38 35.9624C102.604 36.4312 102.917 36.8169 103.317 37.1196C103.728 37.4126 104.206 37.6274 104.753 37.7642C105.3 37.9009 105.891 37.9692 106.525 37.9692C107.346 37.9692 108.02 37.8569 108.547 37.6323C109.084 37.3979 109.484 37.0757 109.748 36.6655C110.021 36.2554 110.158 35.7866 110.158 35.2593ZM129.172 19.4683H133.2V33.6333C133.2 35.2642 132.849 36.6362 132.146 37.7495C131.442 38.853 130.485 39.688 129.274 40.2544C128.063 40.811 126.687 41.0894 125.144 41.0894C123.581 41.0894 122.189 40.811 120.969 40.2544C119.748 39.688 118.791 38.853 118.098 37.7495C117.404 36.6362 117.058 35.2642 117.058 33.6333V19.4683H121.086V33.6333C121.086 34.6294 121.252 35.4448 121.584 36.0796C121.916 36.7046 122.385 37.1685 122.99 37.4712C123.596 37.7739 124.313 37.9253 125.144 37.9253C125.983 37.9253 126.701 37.7739 127.297 37.4712C127.902 37.1685 128.366 36.7046 128.688 36.0796C129.011 35.4448 129.172 34.6294 129.172 33.6333V19.4683ZM145.227 33.0181H139.733V29.854H145.227C146.125 29.854 146.853 29.7075 147.409 29.4146C147.976 29.1118 148.391 28.7017 148.654 28.1841C148.918 27.6567 149.05 27.0562 149.05 26.3823C149.05 25.728 148.918 25.1177 148.654 24.5513C148.391 23.9849 147.976 23.5259 147.409 23.1743C146.853 22.8228 146.125 22.647 145.227 22.647H141.052V40.7964H137.023V19.4683H145.227C146.887 19.4683 148.303 19.7661 149.475 20.3618C150.656 20.9478 151.555 21.7632 152.17 22.8081C152.795 23.8433 153.107 25.0249 153.107 26.353C153.107 27.73 152.795 28.9165 152.17 29.9126C151.555 30.9087 150.656 31.6753 149.475 32.2124C148.303 32.7495 146.887 33.0181 145.227 33.0181ZM170.407 37.6323V40.7964H159.069V37.6323H170.407ZM160.3 19.4683V40.7964H156.271V19.4683H160.3ZM168.928 28.272V31.3628H159.069V28.272H168.928ZM170.363 19.4683V22.647H159.069V19.4683H170.363ZM173.205 19.4683H180.954C182.575 19.4683 183.967 19.7124 185.129 20.2007C186.291 20.689 187.185 21.4116 187.81 22.3687C188.435 23.3257 188.747 24.5024 188.747 25.8989C188.747 27.0024 188.552 27.9595 188.161 28.77C187.771 29.5806 187.219 30.2593 186.506 30.8062C185.803 31.353 184.973 31.7827 184.016 32.0952L182.756 32.7397H175.915L175.886 29.561H180.998C181.828 29.561 182.517 29.4146 183.063 29.1216C183.61 28.8286 184.021 28.4233 184.294 27.9058C184.577 27.3882 184.719 26.7974 184.719 26.1333C184.719 25.4204 184.582 24.8052 184.309 24.2876C184.035 23.7603 183.62 23.355 183.063 23.0718C182.507 22.7886 181.804 22.647 180.954 22.647H177.233V40.7964H173.205V19.4683ZM185.246 40.7964L180.31 31.2456L184.572 31.231L189.567 40.5913V40.7964H185.246ZM199.484 36.6216L204.802 19.4683H209.27L201.74 40.7964H198.767L199.484 36.6216ZM194.577 19.4683L199.865 36.6216L200.627 40.7964H197.624L190.124 19.4683H194.577ZM215.759 19.4683V40.7964H211.73V19.4683H215.759ZM231.271 35.2593C231.271 34.8491 231.208 34.4829 231.081 34.1606C230.964 33.8286 230.744 33.5308 230.422 33.2671C230.109 32.9937 229.665 32.73 229.089 32.4761C228.522 32.2124 227.79 31.939 226.892 31.6558C225.896 31.3433 224.968 30.9917 224.108 30.6011C223.249 30.2104 222.492 29.7563 221.838 29.2388C221.193 28.7212 220.69 28.1255 220.329 27.4517C219.968 26.7681 219.787 25.9771 219.787 25.0786C219.787 24.1997 219.973 23.3989 220.344 22.6763C220.725 21.9536 221.262 21.3335 221.955 20.8159C222.648 20.2886 223.464 19.8833 224.401 19.6001C225.349 19.3169 226.394 19.1753 227.536 19.1753C229.118 19.1753 230.485 19.4634 231.638 20.0396C232.8 20.6157 233.698 21.397 234.333 22.3833C234.968 23.3696 235.285 24.478 235.285 25.7085H231.271C231.271 25.0444 231.13 24.4585 230.847 23.9507C230.573 23.4429 230.153 23.0425 229.587 22.7495C229.03 22.4565 228.327 22.3101 227.478 22.3101C226.657 22.3101 225.974 22.4321 225.427 22.6763C224.89 22.9204 224.484 23.2524 224.211 23.6724C223.947 24.0923 223.815 24.561 223.815 25.0786C223.815 25.4692 223.908 25.8208 224.094 26.1333C224.279 26.436 224.558 26.7241 224.929 26.9976C225.3 27.2612 225.759 27.5103 226.306 27.7446C226.862 27.9692 227.507 28.1938 228.239 28.4185C229.411 28.77 230.437 29.1606 231.315 29.5903C232.204 30.02 232.941 30.5083 233.527 31.0552C234.123 31.6021 234.567 32.2173 234.86 32.9009C235.163 33.5845 235.314 34.3608 235.314 35.23C235.314 36.1479 235.134 36.9683 234.772 37.6909C234.411 38.4136 233.894 39.0288 233.22 39.5366C232.546 40.0444 231.735 40.4302 230.788 40.6938C229.851 40.9575 228.801 41.0894 227.639 41.0894C226.604 41.0894 225.578 40.9526 224.562 40.6792C223.557 40.396 222.644 39.9761 221.823 39.4194C221.003 38.853 220.349 38.1401 219.86 37.2808C219.372 36.4116 219.128 35.396 219.128 34.2339H223.171C223.171 34.9077 223.278 35.4839 223.493 35.9624C223.718 36.4312 224.03 36.8169 224.431 37.1196C224.841 37.4126 225.319 37.6274 225.866 37.7642C226.413 37.9009 227.004 37.9692 227.639 37.9692C228.459 37.9692 229.133 37.8569 229.66 37.6323C230.197 37.3979 230.598 37.0757 230.861 36.6655C231.135 36.2554 231.271 35.7866 231.271 35.2593ZM255.69 29.5903V30.689C255.69 32.3003 255.476 33.7505 255.046 35.0396C254.616 36.3188 254.006 37.4077 253.215 38.3062C252.424 39.2046 251.481 39.8931 250.388 40.3716C249.294 40.8501 248.078 41.0894 246.74 41.0894C245.422 41.0894 244.211 40.8501 243.107 40.3716C242.014 39.8931 241.066 39.2046 240.266 38.3062C239.465 37.4077 238.845 36.3188 238.405 35.0396C237.966 33.7505 237.746 32.3003 237.746 30.689V29.5903C237.746 27.9692 237.966 26.519 238.405 25.2397C238.845 23.9604 239.46 22.8716 240.251 21.9731C241.042 21.0649 241.984 20.3716 243.078 19.8931C244.182 19.4146 245.393 19.1753 246.711 19.1753C248.049 19.1753 249.265 19.4146 250.358 19.8931C251.452 20.3716 252.395 21.0649 253.186 21.9731C253.986 22.8716 254.602 23.9604 255.031 25.2397C255.471 26.519 255.69 27.9692 255.69 29.5903ZM251.618 30.689V29.561C251.618 28.3989 251.511 27.3784 251.296 26.4995C251.081 25.6108 250.764 24.8638 250.344 24.2583C249.924 23.6528 249.406 23.1987 248.791 22.896C248.176 22.5835 247.482 22.4272 246.711 22.4272C245.93 22.4272 245.236 22.5835 244.631 22.896C244.035 23.1987 243.527 23.6528 243.107 24.2583C242.688 24.8638 242.365 25.6108 242.141 26.4995C241.926 27.3784 241.818 28.3989 241.818 29.561V30.689C241.818 31.8413 241.926 32.8618 242.141 33.7505C242.365 34.6392 242.688 35.3911 243.107 36.0063C243.537 36.6118 244.055 37.0708 244.66 37.3833C245.266 37.6958 245.959 37.8521 246.74 37.8521C247.521 37.8521 248.215 37.6958 248.82 37.3833C249.426 37.0708 249.934 36.6118 250.344 36.0063C250.764 35.3911 251.081 34.6392 251.296 33.7505C251.511 32.8618 251.618 31.8413 251.618 30.689ZM259.104 19.4683H266.853C268.474 19.4683 269.865 19.7124 271.027 20.2007C272.189 20.689 273.083 21.4116 273.708 22.3687C274.333 23.3257 274.646 24.5024 274.646 25.8989C274.646 27.0024 274.45 27.9595 274.06 28.77C273.669 29.5806 273.117 30.2593 272.404 30.8062C271.701 31.353 270.871 31.7827 269.914 32.0952L268.654 32.7397H261.813L261.784 29.561H266.896C267.727 29.561 268.415 29.4146 268.962 29.1216C269.509 28.8286 269.919 28.4233 270.192 27.9058C270.476 27.3882 270.617 26.7974 270.617 26.1333C270.617 25.4204 270.48 24.8052 270.207 24.2876C269.934 23.7603 269.519 23.355 268.962 23.0718C268.405 22.7886 267.702 22.647 266.853 22.647H263.132V40.7964H259.104V19.4683ZM271.145 40.7964L266.208 31.2456L270.471 31.231L275.466 40.5913V40.7964H271.145ZM285.471 32.4028V32.1245C285.471 30.0542 285.69 28.1743 286.13 26.4849C286.579 24.7856 287.165 23.2964 287.888 22.0171C288.61 20.7378 289.392 19.6782 290.231 18.8384C291.081 17.9888 291.906 17.3784 292.707 17.0073L293.469 19.1313C292.912 19.5513 292.355 20.1274 291.799 20.8599C291.252 21.5825 290.754 22.4761 290.305 23.5405C289.855 24.605 289.494 25.8452 289.221 27.2612C288.957 28.6772 288.825 30.2886 288.825 32.0952V32.4321C288.825 34.2388 288.957 35.855 289.221 37.2808C289.494 38.6968 289.855 39.937 290.305 41.0015C290.754 42.0659 291.252 42.9692 291.799 43.7114C292.355 44.4536 292.912 45.0396 293.469 45.4692L292.707 47.5347C291.906 47.1538 291.081 46.5435 290.231 45.7036C289.392 44.8638 288.61 43.8042 287.888 42.5249C287.165 41.2456 286.579 39.7612 286.13 38.0718C285.69 36.3726 285.471 34.4829 285.471 32.4028ZM307.517 37.7935L313.2 42.3052L310.622 44.5464L305.026 40.064L307.517 37.7935ZM313.303 29.5903V30.689C313.303 32.3003 313.088 33.7505 312.658 35.0396C312.229 36.3188 311.613 37.4077 310.812 38.3062C310.021 39.2046 309.079 39.8931 307.985 40.3716C306.892 40.8501 305.681 41.0894 304.353 41.0894C303.034 41.0894 301.823 40.8501 300.72 40.3716C299.626 39.8931 298.679 39.2046 297.878 38.3062C297.077 37.4077 296.457 36.3188 296.018 35.0396C295.578 33.7505 295.358 32.3003 295.358 30.689V29.5903C295.358 27.9692 295.573 26.519 296.003 25.2397C296.442 23.9604 297.058 22.8716 297.849 21.9731C298.649 21.0649 299.597 20.3716 300.69 19.8931C301.794 19.4146 303.005 19.1753 304.323 19.1753C305.651 19.1753 306.862 19.4146 307.956 19.8931C309.06 20.3716 310.007 21.0649 310.798 21.9731C311.599 22.8716 312.214 23.9604 312.644 25.2397C313.083 26.519 313.303 27.9692 313.303 29.5903ZM309.23 30.689V29.561C309.23 28.3989 309.123 27.3784 308.908 26.4995C308.693 25.6108 308.371 24.8638 307.941 24.2583C307.521 23.6528 307.009 23.1987 306.403 22.896C305.798 22.5835 305.104 22.4272 304.323 22.4272C303.552 22.4272 302.863 22.5835 302.258 22.896C301.652 23.1987 301.14 23.6528 300.72 24.2583C300.3 24.8638 299.978 25.6108 299.753 26.4995C299.538 27.3784 299.431 28.3989 299.431 29.561V30.689C299.431 31.8413 299.538 32.8618 299.753 33.7505C299.978 34.6392 300.3 35.3911 300.72 36.0063C301.149 36.6118 301.667 37.0708 302.272 37.3833C302.888 37.6958 303.581 37.8521 304.353 37.8521C305.134 37.8521 305.827 37.6958 306.433 37.3833C307.038 37.0708 307.546 36.6118 307.956 36.0063C308.376 35.3911 308.693 34.6392 308.908 33.7505C309.123 32.8618 309.23 31.8413 309.23 30.689ZM329.24 33.7798H333.269C333.161 35.2056 332.766 36.4702 332.082 37.5737C331.398 38.6675 330.446 39.5269 329.226 40.1519C328.005 40.7769 326.525 41.0894 324.787 41.0894C323.449 41.0894 322.243 40.855 321.169 40.3862C320.104 39.9077 319.191 39.229 318.43 38.3501C317.678 37.4614 317.102 36.397 316.701 35.1567C316.301 33.9067 316.101 32.5054 316.101 30.9526V29.3267C316.101 27.7739 316.306 26.3726 316.716 25.1226C317.126 23.8726 317.712 22.8081 318.474 21.9292C319.245 21.0405 320.168 20.3569 321.242 19.8784C322.326 19.3999 323.537 19.1606 324.875 19.1606C326.613 19.1606 328.083 19.4829 329.284 20.1274C330.485 20.7622 331.418 21.6362 332.082 22.7495C332.746 23.8628 333.146 25.1421 333.283 26.5874H329.255C329.177 25.689 328.981 24.9272 328.669 24.3022C328.366 23.6772 327.907 23.2036 327.292 22.8813C326.687 22.5493 325.881 22.3833 324.875 22.3833C324.094 22.3833 323.405 22.5298 322.81 22.8228C322.224 23.1157 321.735 23.5552 321.345 24.1411C320.954 24.7173 320.661 25.4399 320.466 26.3091C320.271 27.1685 320.173 28.1646 320.173 29.2974V30.9526C320.173 32.0366 320.261 33.0083 320.437 33.8677C320.612 34.7271 320.886 35.4546 321.257 36.0503C321.628 36.646 322.106 37.1001 322.692 37.4126C323.278 37.7251 323.977 37.8813 324.787 37.8813C325.773 37.8813 326.574 37.7251 327.189 37.4126C327.814 37.1001 328.288 36.6411 328.61 36.0356C328.942 35.4302 329.152 34.6782 329.24 33.7798ZM352.341 22.7056L346.262 40.7964H341.999L349.968 19.4683H352.692L352.341 22.7056ZM357.424 40.7964L351.315 22.7056L350.949 19.4683H353.688L361.701 40.7964H357.424ZM357.146 32.8716V36.0503H345.705V32.8716H357.146ZM368.19 19.4683V40.7964H364.162V19.4683H368.19ZM379.265 32.1245V32.4028C379.265 34.4341 379.035 36.2944 378.576 37.9839C378.127 39.6733 377.531 41.1626 376.789 42.4517C376.057 43.7407 375.256 44.8149 374.387 45.6743C373.527 46.5337 372.683 47.1538 371.853 47.5347L371.091 45.4692C371.647 45.0493 372.199 44.4731 372.746 43.7407C373.293 43.0083 373.791 42.105 374.24 41.0308C374.699 39.9565 375.061 38.7065 375.324 37.2808C375.598 35.855 375.734 34.2388 375.734 32.4321V32.0952C375.734 30.2886 375.593 28.6724 375.31 27.2466C375.036 25.8208 374.67 24.5757 374.211 23.5112C373.752 22.437 373.249 21.5337 372.702 20.8013C372.155 20.0591 371.618 19.4829 371.091 19.0728L371.853 17.0073C372.683 17.3784 373.527 17.9985 374.387 18.8677C375.256 19.7271 376.057 20.8062 376.789 22.105C377.531 23.394 378.127 24.8833 378.576 26.5728C379.035 28.2524 379.265 30.103 379.265 32.1245Z" fill="url(#paint6_linear_110_22805)"/>
<defs>
<filter id="filter0_f_110_22805" x="21.4473" y="0.0400391" width="41.832" height="62.2739" filterUnits="userSpaceOnUse" color-interpolation-filters="sRGB">
<feFlood flood-opacity="0" result="BackgroundImageFix"/>
<feBlend mode="normal" in="SourceGraphic" in2="BackgroundImageFix" result="shape"/>
<feGaussianBlur stdDeviation="2" result="effect1_foregroundBlur_110_22805"/>
</filter>
<filter id="filter1_f_110_22805" x="0.0146484" y="0" width="49.0117" height="45.208" filterUnits="userSpaceOnUse" color-interpolation-filters="sRGB">
<feFlood flood-opacity="0" result="BackgroundImageFix"/>
<feBlend mode="normal" in="SourceGraphic" in2="BackgroundImageFix" result="shape"/>
<feGaussianBlur stdDeviation="2" result="effect1_foregroundBlur_110_22805"/>
</filter>
<filter id="filter2_f_110_22805" x="0" y="25.9331" width="36.9688" height="36.3809" filterUnits="userSpaceOnUse" color-interpolation-filters="sRGB">
<feFlood flood-opacity="0" result="BackgroundImageFix"/>
<feBlend mode="normal" in="SourceGraphic" in2="BackgroundImageFix" result="shape"/>
<feGaussianBlur stdDeviation="2" result="effect1_foregroundBlur_110_22805"/>
</filter>
<linearGradient id="paint0_linear_110_22805" x1="-5.08186" y1="18.6584" x2="60.5754" y2="31.2662" gradientUnits="userSpaceOnUse">
<stop offset="0.266971" stop-color="#0B1A8F"/>
<stop offset="0.653846" stop-color="#88D1FF"/>
<stop offset="0.81833" stop-color="#CB5BFF"/>
</linearGradient>
<radialGradient id="paint1_radial_110_22805" cx="0" cy="0" r="1" gradientTransform="matrix(22.3923 -26.5926 26.7768 22.2382 32.1861 32.1879)" gradientUnits="userSpaceOnUse">
<stop stop-color="#0C157D"/>
<stop offset="0.227655" stop-color="#0B1E97"/>
<stop offset="0.337477" stop-color="#0B1E97"/>
<stop offset="0.647798" stop-color="#3221CC"/>
<stop offset="1" stop-color="#4B28FF"/>
</radialGradient>
<linearGradient id="paint2_linear_110_22805" x1="62.5645" y1="38.3309" x2="1.8192" y2="31.1581" gradientUnits="userSpaceOnUse">
<stop offset="0.266971" stop-color="#0B1A8F"/>
<stop offset="0.440178" stop-color="#2A42FF"/>
<stop offset="0.711315" stop-color="#02D3EE"/>
<stop offset="1" stop-color="#00F3FF"/>
</linearGradient>
<radialGradient id="paint3_radial_110_22805" cx="0" cy="0" r="1" gradientTransform="matrix(-24.976 -31.1024 22.1648 -17.5548 37.5887 38.7196)" gradientUnits="userSpaceOnUse">
<stop stop-color="#0B1F97"/>
<stop offset="0.474898" stop-color="#0B1F97"/>
<stop offset="0.629828" stop-color="#0937AB"/>
<stop offset="0.985449" stop-color="#065DCB"/>
</radialGradient>
<linearGradient id="paint4_linear_110_22805" x1="62.5643" y1="38.3309" x2="1.81907" y2="31.158" gradientUnits="userSpaceOnUse">
<stop offset="0.266971" stop-color="#0B1A8F"/>
<stop offset="0.518269" stop-color="#0A309A"/>
<stop offset="0.711315" stop-color="#02D3EE"/>
<stop offset="1" stop-color="#00F3FF"/>
</linearGradient>
<radialGradient id="paint5_radial_110_22805" cx="0" cy="0" r="1" gradientTransform="matrix(-23.4101 27.0591 -19.2834 -16.4542 27.4101 35.4538)" gradientUnits="userSpaceOnUse">
<stop stop-color="#0B1F97"/>
<stop offset="0.252934" stop-color="#0B1F97"/>
<stop offset="1" stop-color="#0286ED"/>
</radialGradient>
<linearGradient id="paint6_linear_110_22805" x1="60.8076" y1="30.7964" x2="386.808" y2="30.7964" gradientUnits="userSpaceOnUse">
<stop stop-color="#02ABFF"/>
<stop offset="1" stop-color="#BB45FF"/>
</linearGradient>
</defs>
</svg>
