<svg width="120" height="120" viewBox="0 0 120 120" fill="none" xmlns="http://www.w3.org/2000/svg">
<path d="M43.2031 88.125C43.1319 87.5025 43.0156 86.8913 43.0156 86.25C43.0156 76.9313 50.5719 69.375 59.8906 69.375C69.2094 69.375 76.7656 76.9313 76.7656 86.25C76.7656 86.8913 76.6456 87.5025 76.5781 88.125H102.922C102.948 87.4987 103.016 86.8838 103.016 86.25C103.016 62.43 83.7069 43.125 59.8906 43.125C36.0744 43.125 16.7656 62.43 16.7656 86.25C16.7656 86.8838 16.8331 87.4987 16.8594 88.125H43.2031Z" fill="#F27670"/>
<path d="M59.8906 69.375V43.125C71.8006 43.125 82.5819 47.9512 90.3856 55.755L71.8231 74.3175C68.7706 71.265 64.5519 69.375 59.8906 69.375Z" fill="#FF8A80"/>
<path d="M59.8915 69.375V43.125C47.9815 43.125 37.2002 47.9512 29.3965 55.755L47.959 74.3175C51.0115 71.265 55.2302 69.375 59.8915 69.375Z" fill="#EAD960"/>
<path d="M16.8594 88.1249H43.2031C43.1319 87.5024 43.0156 86.8911 43.0156 86.2499C43.0156 81.5886 44.9056 77.3699 47.9581 74.3174L29.3956 55.7549C21.5919 63.5586 16.7656 74.3399 16.7656 86.2499C16.7656 86.8836 16.8331 87.4986 16.8594 88.1249Z" fill="#A9DBC6"/>
<path d="M59.8906 91.875C56.7894 91.875 54.2656 89.3512 54.2656 86.25C54.2656 83.1487 56.7894 80.625 59.8906 80.625C62.9919 80.625 65.5156 83.1487 65.5156 86.25C65.5156 89.3512 62.9919 91.875 59.8906 91.875ZM59.8906 84.375C58.8556 84.375 58.0156 85.2188 58.0156 86.25C58.0156 87.2812 58.8556 88.125 59.8906 88.125C60.9256 88.125 61.7656 87.2812 61.7656 86.25C61.7656 85.2188 60.9256 84.375 59.8906 84.375Z" fill="#0D365B"/>
<path d="M95.4813 52.1549C95.0125 52.1549 94.54 51.9786 94.1763 51.6261L94.0263 51.4799C93.2913 50.7599 93.1675 49.4736 93.8838 48.7349C94.6 47.9924 95.6725 47.8686 96.4188 48.5811L96.7825 48.9336C97.5288 49.6536 97.5475 50.8424 96.8238 51.5849C96.46 51.9636 95.9725 52.1549 95.4813 52.1549Z" fill="#0D365B"/>
<path d="M110.516 88.1254C109.481 88.1254 108.641 87.2854 108.641 86.2504C108.641 75.5592 105.232 65.4042 98.7818 56.8879C98.1556 56.0629 98.3168 54.8892 99.1456 54.2629C99.9706 53.6329 101.148 53.7979 101.771 54.6267C108.719 63.7992 112.391 74.7379 112.391 86.2504C112.391 87.2854 111.551 88.1254 110.516 88.1254Z" fill="#0D365B"/>
<path d="M9.26562 88.1251C8.23063 88.1251 7.39062 87.2851 7.39062 86.2501C7.39062 74.2914 11.3244 63.0114 18.7719 53.6439C19.4169 52.8301 20.5981 52.6951 21.4081 53.3401C22.2181 53.9851 22.3531 55.1626 21.7119 55.9726C14.7931 64.6726 11.1406 75.1426 11.1406 86.2501C11.1406 87.2851 10.3006 88.1251 9.26562 88.1251Z" fill="#0D365B"/>
<path d="M25.1014 51.3786C24.6027 51.3786 24.1039 51.1798 23.7364 50.7898C23.0277 50.0361 23.0614 48.8473 23.8152 48.1386L24.2052 47.7786C24.9627 47.0698 26.1514 47.1111 26.8564 47.8761C27.5614 48.6336 27.5164 49.8223 26.7552 50.5236L26.3877 50.8686C26.0239 51.2098 25.5627 51.3786 25.1014 51.3786Z" fill="#0D365B"/>
<path d="M102.922 90H76.7656C75.7306 90 74.8906 89.16 74.8906 88.125C74.8906 87.09 75.7306 86.25 76.7656 86.25H101.141C101.141 63.5063 82.6344 45 59.8906 45C37.1469 45 18.6406 63.5063 18.6406 86.25H41.1406C41.1406 75.9113 49.5519 67.5 59.8906 67.5C65.8081 67.5 71.2569 70.2075 74.8381 74.9288C75.4644 75.7538 75.3031 76.9275 74.4781 77.5537C73.6494 78.1763 72.4719 78.015 71.8494 77.19C68.9844 73.4175 64.6269 71.25 59.8906 71.25C51.6181 71.25 44.8906 77.9775 44.8906 86.25C44.8906 86.6175 44.9431 86.97 44.9919 87.3263L45.0669 87.915C45.1269 88.4475 44.9544 88.9762 44.5981 89.3737C44.2456 89.7713 43.7356 90 43.2031 90H16.8594C15.8544 90 15.0294 89.2087 14.9844 88.2038L14.9431 87.5513C14.9169 87.12 14.8906 86.6888 14.8906 86.25C14.8906 61.4362 35.0769 41.25 59.8906 41.25C84.7044 41.25 104.891 61.4362 104.891 86.25C104.891 86.6888 104.864 87.12 104.834 87.555L104.793 88.2075C104.748 89.2087 103.923 90 102.922 90Z" fill="#0D365B"/>
<path d="M25.4811 78.9037C25.3199 78.9037 25.1586 78.8812 24.9936 78.8399L17.7486 76.8974C16.7474 76.6274 16.1549 75.5999 16.4211 74.6024C16.6874 73.6049 17.7299 73.0274 18.7161 73.2749L25.9611 75.2174C26.9624 75.4874 27.5549 76.5149 27.2886 77.5124C27.0674 78.3524 26.3099 78.9037 25.4811 78.9037Z" fill="#0D365B"/>
<path d="M29.0361 70.3129C28.7173 70.3129 28.3948 70.2342 28.0986 70.0617L21.6036 66.3117C20.7073 65.7942 20.3998 64.6467 20.9173 63.7504C21.4348 62.8542 22.5786 62.5392 23.4786 63.0642L29.9736 66.8142C30.8698 67.3317 31.1773 68.4754 30.6598 69.3754C30.3148 69.9754 29.6848 70.3129 29.0361 70.3129Z" fill="#0D365B"/>
<path d="M34.7017 62.9325C34.2217 62.9325 33.7417 62.7487 33.3742 62.385L28.068 57.0825C27.3367 56.3512 27.3367 55.1625 28.068 54.4312C28.7992 53.7 29.988 53.7 30.7192 54.4312L36.0255 59.7337C36.7567 60.465 36.7567 61.6537 36.0255 62.385C35.6617 62.7487 35.1817 62.9325 34.7017 62.9325Z" fill="#0D365B"/>
<path d="M42.0793 57.2699C41.4305 57.2699 40.8005 56.9324 40.4518 56.3324L36.7018 49.8411C36.188 48.9449 36.4955 47.7974 37.3918 47.2799C38.2843 46.7549 39.4318 47.0661 39.953 47.9661L43.703 54.4574C44.2205 55.3536 43.913 56.5011 43.0168 57.0186C42.7205 57.1911 42.398 57.2699 42.0793 57.2699Z" fill="#0D365B"/>
<path d="M50.6692 53.7117C49.8404 53.7117 49.0829 53.1605 48.8617 52.3242L46.9192 45.0792C46.6529 44.0742 47.2454 43.0505 48.2467 42.7805C49.2479 42.5367 50.2792 43.1105 50.5417 44.108L52.4842 51.353C52.7504 52.358 52.1579 53.3817 51.1567 53.6517C50.9917 53.6892 50.8267 53.7117 50.6692 53.7117Z" fill="#0D365B"/>
<path d="M59.8906 52.5C58.8556 52.5 58.0156 51.66 58.0156 50.625V43.125C58.0156 42.09 58.8556 41.25 59.8906 41.25C60.9256 41.25 61.7656 42.09 61.7656 43.125V50.625C61.7656 51.66 60.9256 52.5 59.8906 52.5Z" fill="#0D365B"/>
<path d="M69.1131 53.7116C68.9518 53.7116 68.7906 53.6891 68.6256 53.6478C67.6243 53.3778 67.0318 52.3503 67.2981 51.3491L69.2406 44.1041C69.5106 43.1066 70.5381 42.5328 71.5356 42.7766C72.5368 43.0466 73.1293 44.0741 72.8631 45.0753L70.9206 52.3203C70.6993 53.1603 69.9418 53.7116 69.1131 53.7116Z" fill="#0D365B"/>
<path d="M77.7032 57.2703C77.3844 57.2703 77.0619 57.1915 76.7657 57.019C75.8694 56.5015 75.5619 55.3578 76.0794 54.4578L79.8294 47.9666C80.3469 47.0703 81.4944 46.759 82.3907 47.2803C83.2869 47.7978 83.5944 48.9416 83.0769 49.8416L79.3269 56.3328C78.9782 56.9366 78.3482 57.2703 77.7032 57.2703Z" fill="#0D365B"/>
<path d="M85.0791 62.9325C84.5991 62.9325 84.1191 62.7487 83.7516 62.385C83.0203 61.6537 83.0203 60.465 83.7516 59.7337L89.0578 54.4312C89.7891 53.7 90.9778 53.7 91.7091 54.4312C92.4403 55.1625 92.4403 56.3512 91.7091 57.0825L86.4028 62.385C86.0391 62.7487 85.5591 62.9325 85.0791 62.9325Z" fill="#0D365B"/>
<path d="M90.746 70.3125C90.0972 70.3125 89.4672 69.975 89.1185 69.375C88.601 68.4788 88.9085 67.3312 89.8047 66.8137L96.2997 63.0637C97.1885 62.535 98.3397 62.85 98.861 63.75C99.3785 64.6463 99.071 65.7938 98.1747 66.3113L91.6797 70.0613C91.3835 70.2338 91.0647 70.3125 90.746 70.3125Z" fill="#0D365B"/>
<path d="M94.3009 78.9034C93.4721 78.9034 92.7146 78.3521 92.4934 77.5159C92.2271 76.5109 92.8196 75.4871 93.8209 75.2171L101.066 73.2746C102.071 73.0309 103.098 73.6046 103.361 74.6021C103.627 75.6071 103.035 76.6309 102.033 76.9009L94.7884 78.8434C94.6234 78.8809 94.4621 78.9034 94.3009 78.9034Z" fill="#0D365B"/>
<path d="M63.4802 87.1014C62.6664 87.1014 61.9164 86.5651 61.6802 85.7439C61.3952 84.7464 61.9727 83.7076 62.9702 83.4264L85.6277 76.9501C86.6214 76.6539 87.6602 77.2389 87.9452 78.2364C88.2302 79.2339 87.6527 80.2726 86.6552 80.5539L63.9977 87.0301C63.8252 87.0789 63.6527 87.1014 63.4802 87.1014Z" fill="#0D365B"/>
</svg>
