<svg width="120" height="120" viewBox="0 0 120 120" fill="none" xmlns="http://www.w3.org/2000/svg">
<g clip-path="url(#clip0_110_24357)">
<g clip-path="url(#clip1_110_24357)">
<path d="M88.964 104.776L84.7946 108.945L69.8585 101.811L62.3799 86.5305L66.5493 82.3611C67.4656 81.4447 68.9492 81.4447 69.8632 82.3611L88.964 101.46C89.8804 102.376 89.8804 103.859 88.964 104.776Z" fill="#66B7E0"/>
<path d="M37.6411 53.4518L33.4718 57.6235L19.1192 49.5215L11.0547 35.2088L15.2241 31.0371C16.1404 30.1231 17.624 30.1231 18.538 31.0371L37.6388 50.1379C38.5552 51.0543 38.5552 52.5378 37.6411 53.4518Z" fill="#66B7E0"/>
<path d="M62.3766 86.5298L57.1151 91.7913C55.0058 93.9006 51.713 94.2569 49.2006 92.6468L49.1865 92.6374C40.4166 87.0196 32.9661 79.5692 27.3507 70.7968C25.7429 68.2844 26.0991 64.994 28.2061 62.8847L33.4676 57.6208L11.0529 35.2061L8.19126 38.363C1.54933 45.0049 2.42351 56.1677 6.90927 64.4198C18.9229 86.5158 33.3973 101.133 55.491 113.144C63.743 117.63 74.7019 118.331 81.3439 111.689L84.789 108.945L62.3766 86.5298Z" fill="#66B7E0"/>
<path d="M118.243 35.7409C118.243 16.9728 103.028 1.75781 84.2603 1.75781C76.9598 1.75781 70.1936 4.06163 64.6556 7.98023C64.6556 7.98023 62.9517 10.3426 61.8338 11.3856C55.1778 17.5892 52.3818 25.4545 52.3818 35.2721C52.3818 54.0401 65.4923 67.4013 84.2603 67.4013C94.7903 67.4013 104.029 64.4882 110.261 56.9674C111.008 56.0651 112.537 54.5956 112.537 54.5956C116.141 49.2005 118.243 42.7156 118.243 35.7409Z" fill="#BB45FF"/>
<path d="M111.212 35.7411C111.212 20.8566 99.1445 8.78906 84.2599 8.78906C72.5112 8.78906 62.5178 16.3052 58.8289 26.793C58.8289 26.793 58.4258 32.6147 58.4258 35.7529C58.4258 50.6374 69.3754 61.7557 84.2599 61.7557C87.7754 61.7557 94.2111 60.7972 94.2111 60.7972C104.169 56.8364 111.212 47.1102 111.212 35.7411Z" fill="#F8FEFF"/>
<path d="M94.2109 60.7942C91.1313 62.0199 87.7752 62.6925 84.2597 62.6925C69.3751 62.6925 57.3076 50.625 57.3076 35.7405C57.3076 32.4757 57.8888 29.347 58.9529 26.4502C58.9482 26.5768 58.9482 26.7057 58.9482 26.8346C58.9482 45.6026 74.1632 60.8176 92.9312 60.8176C93.3601 60.8176 93.7867 60.8106 94.2109 60.7942Z" fill="#DFF8FF"/>
<path d="M84.2584 71.4816C64.5505 71.4816 48.5176 55.4486 48.5176 35.7408C48.5176 29.2817 50.2589 22.9514 53.5564 17.4345C54.0533 16.6001 55.1337 16.3306 55.9681 16.8275C56.8024 17.3243 57.0743 18.4047 56.5751 19.2391C53.6057 24.21 52.0354 29.9191 52.0354 35.7431C52.0354 53.5128 66.4911 67.9684 84.2607 67.9684C102.03 67.9684 116.486 53.5128 116.486 35.7431C116.486 17.9735 102.026 3.51549 84.2584 3.51549C75.5704 3.51549 67.4239 6.92082 61.321 13.1057C60.639 13.7971 59.5257 13.8041 58.8344 13.1221C58.143 12.4401 58.136 11.3269 58.818 10.6355C65.5864 3.77798 74.6212 0 84.2584 0C103.966 0 119.999 16.033 119.999 35.7408C119.999 55.4486 103.964 71.4816 84.2584 71.4816Z" fill="#083863"/>
<path d="M84.2586 64.4509C68.4272 64.4509 55.5488 51.5725 55.5488 35.7411C55.5488 19.9097 68.4272 7.03125 84.2586 7.03125C100.09 7.03125 112.968 19.9097 112.968 35.7411C112.968 36.9152 112.898 38.0964 112.755 39.2519C112.638 40.2151 111.759 40.9018 110.798 40.7846C109.835 40.6674 109.148 39.7909 109.265 38.8277C109.39 37.8129 109.453 36.7746 109.453 35.7434C109.453 21.8502 98.1518 10.5491 84.2586 10.5491C70.3654 10.5491 59.0643 21.8502 59.0643 35.7434C59.0643 49.6366 70.3654 60.9354 84.2586 60.9354C94.1208 60.9354 103.132 55.1301 107.21 46.1469C107.611 45.2633 108.654 44.872 109.537 45.2727C110.421 45.6735 110.812 46.7164 110.412 47.6C105.762 57.8371 95.4965 64.4509 84.2586 64.4509Z" fill="#083863"/>
<path d="M84.2597 50.3885C83.2894 50.3885 82.502 49.601 82.502 48.6308V22.8505C82.502 21.8802 83.2894 21.0928 84.2597 21.0928C85.23 21.0928 86.0174 21.8802 86.0174 22.8505V48.6308C86.0174 49.601 85.23 50.3885 84.2597 50.3885Z" fill="#083863"/>
<path d="M90.704 41.0142C89.7338 41.0142 88.9463 40.2268 88.9463 39.2565V32.2255C88.9463 31.2552 89.7338 30.4678 90.704 30.4678C91.6743 30.4678 92.4618 31.2552 92.4618 32.2255V39.2565C92.4618 40.2268 91.6743 41.0142 90.704 41.0142Z" fill="#083863"/>
<path d="M97.1503 44.5296C96.18 44.5296 95.3926 43.7421 95.3926 42.7718V28.7099C95.3926 27.7396 96.18 26.9521 97.1503 26.9521C98.1206 26.9521 98.9081 27.7396 98.9081 28.7099V42.7718C98.9081 43.7421 98.1206 44.5296 97.1503 44.5296Z" fill="#083863"/>
<path d="M103.595 39.8425C102.624 39.8425 101.837 39.055 101.837 38.0847V33.3974C101.837 32.4271 102.624 31.6396 103.595 31.6396C104.565 31.6396 105.352 32.4271 105.352 33.3974V38.0847C105.352 39.055 104.565 39.8425 103.595 39.8425Z" fill="#083863"/>
<path d="M77.8154 41.0142C76.8451 41.0142 76.0576 40.2268 76.0576 39.2565V32.2255C76.0576 31.2552 76.8451 30.4678 77.8154 30.4678C78.7856 30.4678 79.5731 31.2552 79.5731 32.2255V39.2565C79.5731 40.2268 78.7856 41.0142 77.8154 41.0142Z" fill="#083863"/>
<path d="M71.3691 44.5296C70.3988 44.5296 69.6113 43.7421 69.6113 42.7718V28.7099C69.6113 27.7396 70.3988 26.9521 71.3691 26.9521C72.3393 26.9521 73.1268 27.7396 73.1268 28.7099V42.7718C73.1268 43.7421 72.3393 44.5296 71.3691 44.5296Z" fill="#083863"/>
<path d="M64.9247 39.8425C63.9545 39.8425 63.167 39.055 63.167 38.0847V33.3974C63.167 32.4271 63.9545 31.6396 64.9247 31.6396C65.895 31.6396 66.6825 32.4271 66.6825 33.3974V38.0847C66.6825 39.055 65.895 39.8425 64.9247 39.8425Z" fill="#083863"/>
<path d="M84.7899 110.701C84.3399 110.701 83.8899 110.529 83.5477 110.185L72.5888 99.226C71.9021 98.5393 71.9021 97.4261 72.5888 96.7394C73.2755 96.0527 74.3887 96.0527 75.0754 96.7394L84.7899 106.454L87.7171 103.527C87.9444 103.299 87.9444 102.927 87.7171 102.699L68.6163 83.5985C68.4663 83.4485 68.2929 83.4274 68.2015 83.4274C68.1101 83.4274 67.9366 83.4485 67.7866 83.5985L64.8594 86.5257L69.3077 90.974C69.9944 91.6607 69.9944 92.7739 69.3077 93.4606C68.621 94.1473 67.5077 94.1473 66.821 93.4606L61.1283 87.7679C60.4416 87.0812 60.4416 85.9679 61.1283 85.2812L65.2977 81.1119C66.896 79.5135 69.4998 79.5135 71.0982 81.1119L90.199 100.213C91.7974 101.811 91.7974 104.413 90.199 106.013L86.0297 110.183C85.6898 110.529 85.2399 110.701 84.7899 110.701Z" fill="#083863"/>
<path d="M33.4698 59.3789C33.0198 59.3789 32.5698 59.2078 32.2276 58.8633L9.81287 36.4485C9.12618 35.7618 9.12618 34.6486 9.81287 33.9619L13.9822 29.7925C15.583 28.1942 18.1844 28.1942 19.7828 29.7925L38.8836 48.8933C39.6594 49.6691 40.0859 50.698 40.0859 51.7925C40.0859 52.8869 39.6594 53.9181 38.8836 54.6916L34.7142 58.8609C34.3697 59.2078 33.9197 59.3789 33.4698 59.3789ZM13.5416 35.2064L33.4698 55.1345L36.397 52.2073C36.547 52.0573 36.5681 51.8839 36.5681 51.7925C36.5681 51.701 36.5446 51.5276 36.397 51.3776L17.2962 32.2768C17.0665 32.0471 16.6962 32.0495 16.4665 32.2768L13.5416 35.2064Z" fill="#083863"/>
<path d="M66.6753 120C62.8738 120 59.1498 119.055 55.7538 117.209C37.5202 107.295 21.6747 93.0103 9.93061 75.8969C9.38219 75.0954 9.58375 74.0033 10.3853 73.4525C11.1868 72.9017 12.279 73.108 12.8297 73.9072C24.2597 90.5635 39.6833 104.468 57.4342 114.12C61.1466 116.138 65.3206 116.885 69.5041 116.28C73.6875 115.676 77.4772 113.775 80.4653 110.787L83.3691 107.883C84.0558 107.196 85.1691 107.196 85.8558 107.883C86.5424 108.57 86.5424 109.683 85.8558 110.37L82.952 113.274C79.4224 116.803 74.946 119.046 70.0079 119.761C68.8947 119.918 67.7815 120 66.6753 120Z" fill="#083863"/>
<path d="M6.97685 69.7919C6.37921 69.7919 5.79564 69.4873 5.46753 68.9365C4.54647 67.3967 3.64651 65.8171 2.79107 64.2468C0.407572 59.8595 -0.473644 54.9331 0.241172 49.9927C0.955988 45.0546 3.19887 40.5782 6.72842 37.0487L9.63221 34.1449C10.3189 33.4582 11.4321 33.4582 12.1188 34.1449C12.8055 34.8316 12.8055 35.9448 12.1188 36.6315L9.21504 39.5353C6.22688 42.5235 4.32617 46.3132 3.7215 50.4966C3.11684 54.68 3.86212 58.8517 5.88236 62.5664C6.71436 64.0969 7.59088 65.6319 8.48616 67.1319C8.98536 67.9662 8.7135 69.0443 7.87915 69.5435C7.59557 69.7099 7.28387 69.7919 6.97685 69.7919Z" fill="#083863"/>
<path d="M52.61 95.3944C51.103 95.3944 49.5914 94.9795 48.2625 94.1311C48.2531 94.1264 48.2438 94.1194 48.2391 94.1171C39.3191 88.4032 31.5827 80.6668 25.8689 71.7445C23.8322 68.5618 24.2916 64.3128 26.9634 61.641L32.0444 56.5599C32.7311 55.8732 33.8443 55.8732 34.531 56.5599C35.2177 57.2466 35.2177 58.3599 34.531 59.0466L29.45 64.1276C27.936 65.6416 27.6758 68.0486 28.8312 69.8508C34.2709 78.3466 41.6347 85.7104 50.1281 91.1547C50.1374 91.1594 50.1468 91.1664 50.1492 91.1687C51.9514 92.3242 54.3584 92.064 55.8724 90.55L60.9534 85.469C61.6401 84.7823 62.7534 84.7823 63.4401 85.469C64.1267 86.1557 64.1267 87.2689 63.4401 87.9556L58.359 93.0366C56.8028 94.5881 54.7123 95.3944 52.61 95.3944Z" fill="#083863"/>
</g>
</g>
<defs>
<clipPath id="clip0_110_24357">
<rect width="120" height="120" fill="white"/>
</clipPath>
<clipPath id="clip1_110_24357">
<rect width="120" height="120" fill="white"/>
</clipPath>
</defs>
</svg>
