<svg width="111" height="110" viewBox="0 0 111 110" fill="none" xmlns="http://www.w3.org/2000/svg">
<path d="M84.0059 23.62L96.2797 11.3461L98.7854 13.8518L86.5115 26.1256L84.0059 23.62Z" fill="#CCCCCC"/>
<path d="M11.4912 13.8433L13.9968 11.3377L26.2707 23.6116L23.7651 26.1172L11.4912 13.8433Z" fill="#CCCCCC"/>
<path d="M11.291 75.0751L25.612 62.5252L27.9476 65.1903L13.6265 77.7403L11.291 75.0751Z" fill="#E5E5E5"/>
<path d="M82.3496 65.248L84.6804 62.5807L98.6028 74.7466L96.272 77.4139L82.3496 65.248Z" fill="#E5E5E5"/>
<path d="M70.7283 81.4525L81.2382 84.6138C83.4283 85.2708 85.3483 86.6164 86.7132 88.4509C88.0782 90.2854 88.8153 92.511 88.8153 94.7976V108.152H21.4785V94.7976C21.4785 92.511 22.2157 90.2854 23.5806 88.4509C24.9455 86.6164 26.8655 85.2708 29.0557 84.6138L39.5655 81.4525L42.7428 95.7474L55.1469 85.1153L67.5511 95.7474L70.7283 81.4525Z" fill="white"/>
<path d="M53.375 85.1153H56.919V99.2915H53.375V85.1153Z" fill="#5E87CA"/>
<path d="M62.2355 78.0272L71.0957 79.7992L67.5516 95.7474L55.1475 85.1153C57.0273 85.1153 58.8302 84.3685 60.1595 83.0393C61.4888 81.71 62.2355 79.9071 62.2355 78.0272Z" fill="white"/>
<path d="M48.0593 78.0272L39.1992 79.7992L42.7433 95.7474L55.1474 85.1153C53.2675 85.1153 51.4647 84.3685 50.1354 83.0393C48.8061 81.71 48.0593 79.9071 48.0593 78.0272Z" fill="white"/>
<path d="M62.2357 72.5874C60.0813 73.8328 57.6361 74.4869 55.1477 74.4835C52.6592 74.4869 50.214 73.8328 48.0596 72.5874V78.0275C48.0596 79.9074 48.8063 81.7103 50.1356 83.0395C51.4649 84.3688 53.2678 85.1156 55.1477 85.1156C57.0275 85.1156 58.8304 84.3688 60.1597 83.0395C61.489 81.7103 62.2357 79.9074 62.2357 78.0275V72.5874Z" fill="#F2B9A1"/>
<path d="M69.3237 53.2188H71.0957L74.1329 45.6257C74.4677 44.7887 74.6397 43.8956 74.6397 42.9942C74.6397 39.5966 73.2902 36.3382 70.8879 33.9356C68.4856 31.533 65.2274 30.183 61.8298 30.1825H48.4652C45.068 30.183 41.81 31.5327 39.4077 33.935C37.0055 36.3372 35.6557 39.5952 35.6553 42.9924C35.6551 43.8944 35.8271 44.7882 36.1621 45.6257L39.1993 53.2188H40.9713V46.1307L42.389 47.1939C46.0697 49.9545 50.5466 51.4468 55.1475 51.4468C59.7485 51.4468 64.2253 49.9545 67.9061 47.1939L69.3237 46.1307V53.2188Z" fill="#66B7E0"/>
<path d="M69.323 46.1307V60.3069C69.323 64.0667 67.8295 67.6724 65.1709 70.331C62.5124 72.9895 58.9066 74.4831 55.1469 74.4831C51.3871 74.4831 47.7814 72.9895 45.1228 70.331C42.4643 67.6724 40.9707 64.0667 40.9707 60.3069V46.1307L42.3883 47.194C46.0691 49.9545 50.5459 51.4468 55.1469 51.4468C59.7478 51.4468 64.2247 49.9545 67.9054 47.194L69.323 46.1307Z" fill="#FBE1CA"/>
<path d="M69.3232 53.2188H72.8673C73.8072 53.2188 74.7087 53.5922 75.3733 54.2568C76.0379 54.9215 76.4113 55.8229 76.4113 56.7629C76.4113 57.7028 76.0379 58.6042 75.3733 59.2689C74.7087 59.9335 73.8072 60.3069 72.8673 60.3069H69.3232" fill="#F2B9A1"/>
<path d="M40.9699 53.2188H37.4259C36.4859 53.2188 35.5845 53.5922 34.9199 54.2568C34.2552 54.9215 33.8818 55.8229 33.8818 56.7629C33.8818 57.7028 34.2552 58.6042 34.9199 59.2689C35.5845 59.9335 36.4859 60.3069 37.4259 60.3069H40.9699" fill="#F2B9A1"/>
<path d="M33.8818 101.064H37.4259V108.152H33.8818V101.064Z" fill="#5E87CA"/>
<path d="M72.8672 101.064H76.4112V108.152H72.8672V101.064Z" fill="#5E87CA"/>
<path d="M75.7025 76.3385L73.5407 73.5352C78.5187 69.6962 82.1711 64.396 83.986 58.3772C85.8008 52.3584 85.6873 45.9227 83.6612 39.9716C81.6352 34.0206 77.7981 28.8526 72.6877 25.1915C67.5773 21.5305 61.4496 19.56 55.1631 19.5561C48.8767 19.5521 42.7465 21.515 37.6315 25.1696C32.5165 28.8242 28.673 33.9875 26.6395 39.936C24.606 45.8844 24.4844 52.3201 26.2917 58.3411C28.099 64.3621 31.7448 69.6669 36.718 73.5122L34.5562 76.3155C28.9971 72.0185 24.9217 66.0899 22.901 59.3606C20.8803 52.6312 21.0154 45.4383 23.2876 38.7896C25.5598 32.141 29.8551 26.3698 35.5716 22.2846C41.2882 18.1995 48.1396 16.0052 55.1658 16.0091C62.192 16.013 69.0409 18.215 74.7529 22.3066C80.4649 26.3981 84.7537 32.1741 87.0184 38.8253C89.2831 45.4765 89.4103 52.6696 87.382 59.3967C85.3537 66.1237 81.2717 72.0477 75.7078 76.3385H75.7025Z" fill="#CCCCCC"/>
<path d="M95.9046 49.6748H92.3605C92.3605 39.8055 88.44 30.3403 81.4613 23.3617C74.4826 16.383 65.0174 12.4624 55.1481 12.4624C45.2787 12.4624 35.8136 16.383 28.8349 23.3617C21.8562 30.3403 17.9356 39.8055 17.9356 49.6748H14.3916C14.3916 38.8655 18.6856 28.499 26.3289 20.8556C33.9722 13.2123 44.3388 8.91833 55.1481 8.91833C65.9574 8.91833 76.324 13.2123 83.9673 20.8556C91.6106 28.499 95.9046 38.8655 95.9046 49.6748Z" fill="#E5E5E5"/>
<path d="M101.221 16.0066C105.136 16.0066 108.309 12.8332 108.309 8.91853C108.309 5.00389 105.136 1.83044 101.221 1.83044C97.3063 1.83044 94.1328 5.00389 94.1328 8.91853C94.1328 12.8332 97.3063 16.0066 101.221 16.0066Z" fill="#BB45FF"/>
<path d="M9.07539 16.0066C12.99 16.0066 16.1635 12.8332 16.1635 8.91853C16.1635 5.00389 12.99 1.83044 9.07539 1.83044C5.16075 1.83044 1.9873 5.00389 1.9873 8.91853C1.9873 12.8332 5.16075 16.0066 9.07539 16.0066Z" fill="#BB45FF"/>
<path d="M9.07539 86.8875C12.99 86.8875 16.1635 83.714 16.1635 79.7994C16.1635 75.8847 12.99 72.7113 9.07539 72.7113C5.16075 72.7113 1.9873 75.8847 1.9873 79.7994C1.9873 83.714 5.16075 86.8875 9.07539 86.8875Z" fill="#BB45FF"/>
<path d="M101.221 86.8875C105.136 86.8875 108.309 83.714 108.309 79.7994C108.309 75.8847 105.136 72.7113 101.221 72.7113C97.3063 72.7113 94.1328 75.8847 94.1328 79.7994C94.1328 83.714 97.3063 86.8875 101.221 86.8875Z" fill="#BB45FF"/>
<path d="M81.7474 82.9163L72.8147 80.237L72.8271 80.1839C72.8771 79.9534 72.8811 79.7153 72.8389 79.4832C72.7966 79.2512 72.7089 79.0298 72.5808 78.8318C72.4518 78.6344 72.2848 78.4647 72.0895 78.3326C71.8941 78.2005 71.6744 78.1088 71.4431 78.0627L64.0077 76.5742V73.5618C65.9368 72.2709 67.561 70.5746 68.7672 68.5914C69.9733 66.6082 70.7323 64.3858 70.9913 62.0791H72.8678C74.207 62.0828 75.4979 61.5799 76.4817 60.6713C77.4655 59.7628 78.0694 58.5158 78.1721 57.1806C78.2748 55.8454 77.8688 54.5208 77.0355 53.4725C76.2022 52.4241 75.0034 51.7297 73.6794 51.5285L75.7775 46.2869C76.1985 45.2397 76.4139 44.1213 76.4119 42.9927C76.4077 39.1266 74.87 35.4201 72.1363 32.6863C69.4025 29.9526 65.696 28.4149 61.8299 28.4107H48.4653C44.5992 28.4149 40.8927 29.9526 38.159 32.6863C35.4252 35.4201 33.8876 39.1266 33.8834 42.9927C33.8817 44.1205 34.0965 45.2382 34.516 46.2851L36.6158 51.5285C35.2919 51.7297 34.093 52.4241 33.2597 53.4725C32.4265 54.5208 32.0205 55.8454 32.1232 57.1806C32.2259 58.5158 32.8297 59.7628 33.8135 60.6713C34.7973 61.5799 36.0883 62.0828 37.4274 62.0791H39.304C39.5634 64.3852 40.3226 66.6069 41.5288 68.5895C42.7349 70.572 44.3589 72.2677 46.2875 73.5583V76.5707L38.845 78.0592C38.6138 78.1053 38.394 78.197 38.1987 78.3291C38.0033 78.4611 37.8363 78.6308 37.7074 78.8283C37.5793 79.0263 37.4915 79.2477 37.4493 79.4797C37.407 79.7117 37.411 79.9498 37.4611 80.1803L37.4735 80.2335L28.5407 82.9128C25.9797 83.6697 23.7337 85.2378 22.1407 87.3812C20.5476 89.5245 19.6936 92.1272 19.7072 94.7977V108.152C19.7072 108.622 19.8939 109.072 20.2262 109.405C20.5585 109.737 21.0092 109.924 21.4792 109.924H88.816C89.286 109.924 89.7367 109.737 90.069 109.405C90.4014 109.072 90.5881 108.622 90.5881 108.152V94.7977C90.6004 92.1269 89.745 89.5243 88.1507 87.3816C86.5563 85.2388 84.3092 83.6718 81.7474 82.9163ZM63.7277 80.1325L68.9729 81.1815L66.4637 92.4799L58.9167 86.0138C60.1046 85.4517 61.1526 84.6323 61.9847 83.6151C62.8168 82.5978 63.4122 81.4082 63.7277 80.1325ZM74.6399 56.763C74.6399 57.233 74.4532 57.6837 74.1208 58.0161C73.7885 58.3484 73.3378 58.5351 72.8678 58.5351H71.0958V54.991H72.8678C73.3378 54.991 73.7885 55.1777 74.1208 55.51C74.4532 55.8424 74.6399 56.2931 74.6399 56.763ZM35.6554 56.763C35.6554 56.2931 35.8421 55.8424 36.1744 55.51C36.5067 55.1777 36.9574 54.991 37.4274 54.991H39.1994V58.5351H37.4274C36.9574 58.5351 36.5067 58.3484 36.1744 58.0161C35.8421 57.6837 35.6554 57.233 35.6554 56.763ZM40.1794 44.545C39.8848 44.6922 39.6371 44.9185 39.464 45.1987C39.2909 45.4788 39.1993 45.8016 39.1994 46.1309V48.4487L37.8066 44.9685C37.5551 44.3402 37.4264 43.6695 37.4274 42.9927C37.4312 40.0664 38.5953 37.261 40.6645 35.1918C42.7337 33.1226 45.539 31.9585 48.4653 31.9547H61.8299C64.7562 31.9585 67.5616 33.1226 69.6308 35.1918C71.7 37.261 72.8641 40.0664 72.8678 42.9927C72.869 43.6696 72.7396 44.3405 72.4868 44.9685L71.0958 48.447V46.1309C71.0958 45.8018 71.0042 45.4792 70.8312 45.1993C70.6581 44.9194 70.4106 44.6931 70.1163 44.546C69.8219 44.3988 69.4924 44.3365 69.1647 44.3661C68.8369 44.3956 68.5238 44.5159 68.2606 44.7133L66.843 45.7765C63.4689 48.307 59.3652 49.675 55.1476 49.675C50.9301 49.675 46.8263 48.307 43.4523 45.7765L42.0347 44.7133C41.7715 44.5158 41.4586 44.3954 41.1309 44.3657C40.8032 44.3359 40.4737 44.398 40.1794 44.545ZM42.7435 60.3071V49.5917C46.447 51.9603 50.7514 53.2191 55.1476 53.2191C59.5439 53.2191 63.8482 51.9603 67.5518 49.5917V60.3071C67.5518 63.5969 66.2449 66.7519 63.9187 69.0782C61.5924 71.4044 58.4374 72.7112 55.1476 72.7112C51.8578 72.7112 48.7028 71.4044 46.3766 69.0782C44.0503 66.7519 42.7435 63.5969 42.7435 60.3071ZM55.1476 76.2553C56.9598 76.2517 58.7579 75.937 60.4637 75.325V78.0273C60.4637 79.4372 59.9036 80.7894 58.9066 81.7863C57.9097 82.7833 56.5575 83.3434 55.1476 83.3434C53.7377 83.3434 52.3855 82.7833 51.3886 81.7863C50.3916 80.7894 49.8316 79.4372 49.8316 78.0273V75.325C51.5373 75.937 53.3354 76.2517 55.1476 76.2553ZM46.5675 80.1325C46.883 81.4082 47.4784 82.5978 48.3105 83.6151C49.1426 84.6323 50.1906 85.4517 51.3785 86.0138L43.8315 92.4799L41.3259 81.1815L46.5675 80.1325ZM87.044 106.38H76.4119V101.064H72.8678V106.38H37.4274V101.064H33.8834V106.38H23.2512V94.7977C23.2427 92.8903 23.8536 91.0316 24.9922 89.5012C26.1308 87.9708 27.7355 86.8515 29.5649 86.3115L38.2478 83.7066L41.0087 96.132C41.0754 96.4307 41.2184 96.707 41.4237 96.934C41.6289 97.161 41.8895 97.331 42.18 97.4274C42.3615 97.4889 42.5518 97.52 42.7435 97.5195C43.166 97.5191 43.5745 97.3676 43.8953 97.0925L53.3756 88.966V99.2916H56.9196V88.966L66.4 97.0925C66.7207 97.3676 67.1292 97.5191 67.5518 97.5195C67.7422 97.5196 67.9314 97.4885 68.1117 97.4274C68.4022 97.331 68.6628 97.161 68.868 96.934C69.0733 96.707 69.2163 96.4307 69.283 96.132L72.0438 83.7066L80.7268 86.3115C82.5569 86.8508 84.1623 87.9699 85.3016 89.5004C86.4409 91.0308 87.0523 92.8898 87.044 94.7977V106.38Z" fill="#0D365B"/>
<path d="M9.0741 17.7786C10.8102 17.7783 12.5074 17.2647 13.9525 16.3025L22.6992 25.0439C17.3004 32.1193 14.3805 40.7751 14.3902 49.675H17.9342C17.9342 39.8056 21.8548 30.3405 28.8335 23.3618C35.8122 16.3831 45.2773 12.4625 55.1467 12.4625C65.016 12.4625 74.4811 16.3831 81.4598 23.3618C88.4385 30.3405 92.3591 39.8056 92.3591 49.675H95.9032C95.9129 40.7751 92.993 32.1193 87.5941 25.0439L96.3408 16.2972C98.1777 17.513 100.401 18.0032 102.578 17.6729C104.756 17.3425 106.734 16.2151 108.127 14.5093C109.521 12.8035 110.232 10.6409 110.121 8.44096C110.011 6.24098 109.087 4.16044 107.53 2.60286C105.972 1.04528 103.891 0.12168 101.691 0.0111939C99.4915 -0.0992918 97.3289 0.611212 95.6231 2.0049C93.9173 3.39859 92.7899 5.37613 92.4595 7.55396C92.1292 9.7318 92.6194 11.9547 93.8352 13.7916L85.3295 22.2973C81.5138 18.0812 76.857 14.7114 71.6593 12.4052C66.4616 10.099 60.8383 8.90749 55.152 8.90749C49.4656 8.90749 43.8423 10.099 38.6446 12.4052C33.4469 14.7114 28.7901 18.0812 24.9744 22.2973L16.4687 13.7916C17.5539 12.1438 18.058 10.1811 17.9012 8.21442C17.7444 6.24774 16.9357 4.38965 15.6032 2.93466C14.2708 1.47967 12.4908 0.511029 10.5455 0.182271C8.60017 -0.146487 6.60075 0.183446 4.86418 1.11977C3.1276 2.0561 1.75321 3.54526 0.958866 5.3512C0.164518 7.15714 -0.00434391 9.17655 0.479044 11.0893C0.962432 13.0021 2.07041 14.6988 3.62737 15.9106C5.18433 17.1223 7.10118 17.7797 9.0741 17.7786ZM101.219 3.60244C102.271 3.60244 103.298 3.91422 104.173 4.49835C105.047 5.08249 105.728 5.91275 106.131 6.88413C106.533 7.85551 106.638 8.9244 106.433 9.95561C106.228 10.9868 105.722 11.9341 104.978 12.6775C104.235 13.421 103.288 13.9273 102.256 14.1324C101.225 14.3375 100.156 14.2323 99.1848 13.8299C98.2135 13.4275 97.3832 12.7462 96.7991 11.8719C96.2149 10.9977 95.9032 9.96992 95.9032 8.9185C95.9032 7.50859 96.4632 6.15643 97.4602 5.15948C98.4571 4.16252 99.8093 3.60244 101.219 3.60244ZM9.0741 3.60244C10.1255 3.60244 11.1533 3.91422 12.0275 4.49835C12.9018 5.08249 13.5831 5.91275 13.9855 6.88413C14.3879 7.85551 14.4931 8.9244 14.288 9.95561C14.0829 10.9868 13.5766 11.9341 12.8331 12.6775C12.0897 13.421 11.1424 13.9273 10.1112 14.1324C9.08 14.3375 8.01111 14.2323 7.03973 13.8299C6.06835 13.4275 5.23809 12.7462 4.65395 11.8719C4.06982 10.9977 3.75804 9.96992 3.75804 8.9185C3.75804 7.50859 4.31812 6.15643 5.31508 5.15948C6.31203 4.16252 7.66419 3.60244 9.0741 3.60244Z" fill="#0D365B"/>
<path d="M101.221 70.9392C99.4518 70.9366 97.7229 71.4664 96.2591 72.4596L85.8414 63.5286C88.1507 58.401 89.139 52.7767 88.7158 47.169C88.2927 41.5613 86.4716 36.1489 83.4189 31.426C80.3662 26.703 76.1791 22.82 71.2398 20.1313C66.3006 17.4426 60.7665 16.034 55.1429 16.034C49.5192 16.034 43.9852 17.4426 39.0459 20.1313C34.1067 22.82 29.9195 26.703 26.8668 31.426C23.8141 36.1489 21.9931 41.5613 21.5699 47.169C21.1467 52.7767 22.135 58.401 24.4444 63.5286L14.0373 72.4596C12.1984 71.2047 9.95879 70.6778 7.7533 70.9813C5.5478 71.2848 3.53375 72.397 2.10216 74.1019C0.670564 75.8069 -0.0764323 77.983 0.00618923 80.2077C0.0888108 82.4325 0.995155 84.5472 2.54927 86.1412C4.10338 87.7353 6.19437 88.695 8.4163 88.8341C10.6382 88.9732 12.8326 88.2817 14.5733 86.8938C16.3141 85.506 17.477 83.5208 17.8364 81.3237C18.1958 79.1266 17.7259 76.8744 16.5181 75.0042L26.1366 66.759C28.3156 70.4509 31.1776 73.6942 34.5697 76.3155L36.7192 73.5122C31.745 69.6674 28.0984 64.3628 26.2902 58.3416C24.4821 52.3204 24.6031 45.8843 26.6363 39.9354C28.6695 33.9864 32.513 28.8226 37.6281 25.1675C42.7433 21.5125 48.8738 19.5494 55.1607 19.5533C61.4475 19.5573 67.5756 21.528 72.6862 25.1895C77.7968 28.8509 81.6338 34.0195 83.6595 39.971C85.6853 45.9226 85.7982 52.3587 83.9826 58.3777C82.1669 64.3966 78.5136 69.6967 73.5347 73.5352L75.7036 76.3386C79.1085 73.713 81.981 70.4616 84.1668 66.759L93.7853 75.0042C92.7226 76.6582 92.241 78.6191 92.4166 80.5773C92.5923 82.5355 93.4151 84.3794 94.7552 85.8179C96.0954 87.2564 97.8765 88.2076 99.8173 88.5213C101.758 88.8349 103.748 88.4933 105.473 87.5502C107.198 86.607 108.56 85.1162 109.344 83.3131C110.127 81.51 110.288 79.4972 109.8 77.5926C109.313 75.688 108.205 74 106.651 72.7952C105.097 71.5904 103.187 70.9374 101.221 70.9392ZM9.07561 85.1154C8.0242 85.1154 6.99639 84.8036 6.12217 84.2195C5.24794 83.6353 4.56657 82.8051 4.16421 81.8337C3.76185 80.8623 3.65657 79.7934 3.8617 78.7622C4.06682 77.731 4.57312 76.7837 5.31659 76.0403C6.06005 75.2968 7.00729 74.7905 8.0385 74.5854C9.06972 74.3803 10.1386 74.4855 11.11 74.8879C12.0814 75.2903 12.9116 75.9716 13.4958 76.8459C14.0799 77.7201 14.3917 78.7479 14.3917 79.7993C14.3917 81.2092 13.8316 82.5614 12.8346 83.5583C11.8377 84.5553 10.4855 85.1154 9.07561 85.1154ZM101.221 85.1154C100.169 85.1154 99.1415 84.8036 98.2673 84.2195C97.3931 83.6353 96.7117 82.8051 96.3093 81.8337C95.907 80.8623 95.8017 79.7934 96.0068 78.7622C96.2119 77.731 96.7182 76.7837 97.4617 76.0403C98.2052 75.2968 99.1524 74.7905 100.184 74.5854C101.215 74.3803 102.284 74.4855 103.255 74.8879C104.226 75.2903 105.057 75.9716 105.641 76.8459C106.225 77.7201 106.537 78.7479 106.537 79.7993C106.537 81.2092 105.977 82.5614 104.98 83.5583C103.983 84.5553 102.631 85.1154 101.221 85.1154Z" fill="#0D365B"/>
</svg>
