<svg width="120" height="120" viewBox="0 0 120 120" fill="none" xmlns="http://www.w3.org/2000/svg">
<mask id="mask0_110_22949" style="mask-type:luminance" maskUnits="userSpaceOnUse" x="0" y="0" width="120" height="120">
<path d="M120 120H0V0H120V120Z" fill="white"/>
</mask>
<g mask="url(#mask0_110_22949)">
<path d="M16.3164 30.2895C16.3164 22.506 22.6832 16.2095 30.4913 16.322C38.0569 16.431 44.2075 22.6343 44.2549 30.1999C44.2813 34.4362 42.4216 38.2401 39.4667 40.8188C39.1556 41.0912 39.1995 41.5887 39.5563 41.7979L42.1895 43.3553C42.6149 43.6066 42.4356 44.2588 41.9417 44.2588L30.022 44.2553C22.4283 44.1146 16.3164 37.9166 16.3164 30.2895Z" fill="#A9DBC6"/>
<path d="M84.3842 67.0264H52.6927C44.7773 67.0264 40.4461 57.8014 45.5016 51.7106L45.7828 51.3714C48.0099 48.689 49.2281 45.3105 49.2281 41.8247V35.7129C49.2281 25.0008 57.9117 16.319 68.622 16.319C79.334 16.319 88.0158 25.0026 88.0158 35.7129V42.0304C88.0158 45.553 89.2603 48.9649 91.5297 51.6596C96.6519 57.7381 92.3312 67.0264 84.3842 67.0264Z" fill="#66B7E0"/>
<path d="M101.044 103.682V82.7304C101.044 78.1021 98.3159 73.9097 94.0849 72.0359L79.8906 65.9521C77.1906 64.7955 75.4398 62.1412 75.4398 59.2039V57.9172H61.6376V59.2725C61.6376 62.1957 59.9044 64.8412 57.222 66.0066L43.1947 72.1062C38.8564 73.9326 36.0352 78.1812 36.0352 82.8886V103.682" fill="white"/>
<path d="M53.6885 72.54C57.2709 73.6105 62.5425 74.7513 68.9673 74.6388C74.9966 74.5333 79.9465 73.3609 83.3901 72.2605L85.1022 68.1859L79.8903 65.9517C77.1903 64.7951 75.4395 62.1408 75.4395 59.2035V57.9186H61.639V59.2738C61.639 62.1971 59.9041 64.8425 57.2234 66.008L53.0029 67.8431L53.6885 72.54Z" fill="#FFCEBF"/>
<path d="M94.0841 72.0369L83.3914 67.4543H83.3896V103.683H101.043V82.7314C101.043 78.1048 98.3152 73.9107 94.0841 72.0369Z" fill="#F9F6F9"/>
<path d="M42.9943 72.0369L53.687 67.4543H53.6888V103.683H36.0352V82.7314C36.0352 78.1048 38.7633 73.9107 42.9943 72.0369Z" fill="#F9F6F9"/>
<path d="M72.4605 55.1064H69.3703C67.9641 55.1064 66.8232 53.9656 66.8232 52.5594C66.8232 51.1531 67.9641 50.0123 69.3703 50.0123H72.4605C73.8668 50.0123 75.0076 51.1531 75.0076 52.5594C75.0076 53.9656 73.8668 55.1064 72.4605 55.1064Z" fill="white"/>
<path d="M72.4605 56.4248H69.3703C67.2398 56.4248 65.5049 54.6916 65.5049 52.5594C65.5049 50.4289 67.2381 48.694 69.3703 48.694H72.4605C74.591 48.694 76.3259 50.4272 76.3259 52.5594C76.3259 54.6916 74.591 56.4248 72.4605 56.4248ZM69.3703 51.3324C68.6935 51.3324 68.1416 51.8826 68.1416 52.5612C68.1416 53.2379 68.6918 53.7899 69.3703 53.7899H72.4605C73.1373 53.7899 73.6892 53.2397 73.6892 52.5612C73.6892 51.8844 73.139 51.3324 72.4605 51.3324H69.3703Z" fill="#083863"/>
<path d="M69.8129 81.9275C69.8129 82.6307 69.2433 83.2002 68.5402 83.2002C67.8371 83.2002 67.2676 82.6307 67.2676 81.9275C67.2676 81.2244 67.8371 80.6549 68.5402 80.6549C69.2433 80.6549 69.8129 81.2244 69.8129 81.9275Z" fill="#083863"/>
<path d="M82.3346 37.1548V48.5735C82.3346 55.0071 77.1192 60.2207 70.6874 60.2207H66.3914C59.9578 60.2207 54.7441 55.0053 54.7441 48.5735V37.1548C54.7441 32.9695 58.1367 29.5769 62.322 29.5769H74.7585C78.9421 29.5769 82.3346 32.9695 82.3346 37.1548Z" fill="#FFCEBF"/>
<path d="M72.4605 55.1064H69.3703C67.9641 55.1064 66.8232 53.9656 66.8232 52.5594C66.8232 51.1531 67.9641 50.0123 69.3703 50.0123H72.4605C73.8668 50.0123 75.0076 51.1531 75.0076 52.5594C75.0076 53.9656 73.8668 55.1064 72.4605 55.1064Z" fill="#685E68"/>
<path d="M71.2912 26.5552C71.5865 22.8234 75.1584 20.3484 78.5773 19.0652C84.2322 22.4543 88.0185 28.6417 88.0185 35.7134V37.0475C87.7056 37.1126 87.3945 37.1706 87.0868 37.2163C85.2042 37.4975 83.5994 37.3763 82.5043 37.2163C75.4449 36.2759 70.9344 31.0605 71.2912 26.5552Z" fill="#66B7E0"/>
<path d="M68.6251 16.319C73.0055 16.319 77.045 17.771 80.2916 20.2214C78.6727 23.0391 74.9532 28.6114 67.98 32.7352C62.8033 35.7973 57.9218 36.8273 54.9142 37.2158H49.2295V35.7129C49.2312 25.0026 57.913 16.319 68.6251 16.319Z" fill="#66B7E0"/>
<path d="M90.3052 103.682H48.1021L45.7748 81.7232C45.6095 80.1657 46.8312 78.8087 48.3974 78.8087H90.0116C91.5778 78.8087 92.7995 80.1657 92.6343 81.7232L90.3052 103.682Z" fill="#A9DBC6"/>
<path d="M103.68 105H16.3174C15.5896 105 14.999 104.409 14.999 103.682C14.999 102.954 15.5896 102.363 16.3174 102.363H103.68C104.408 102.363 104.999 102.954 104.999 103.682C104.999 104.409 104.408 105 103.68 105Z" fill="#C9BFC8"/>
<path d="M72.8955 91.2461C72.8955 93.2852 71.2431 94.9375 69.2041 94.9375C67.165 94.9375 65.5127 93.2852 65.5127 91.2461C65.5127 89.2071 67.165 87.5547 69.2041 87.5547C71.2431 87.5547 72.8955 89.2071 72.8955 91.2461Z" fill="#F9F6F9"/>
<path d="M41.9426 45.5771L30.023 45.5736C30.0142 45.5736 30.0072 45.5736 29.9984 45.5736C25.9748 45.498 22.206 43.8756 19.383 41.0033C16.5564 38.1276 14.999 34.3219 14.999 30.2895C14.999 26.164 16.618 22.2968 19.5553 19.4017C22.4925 16.5066 26.3843 14.9457 30.5116 15.0037C34.5177 15.0617 38.2882 16.6718 41.1288 19.537C43.9694 22.4023 45.5479 26.1868 45.5743 30.1928C45.6006 34.3219 43.9624 38.2612 41.0479 41.1492L42.8602 42.2215C43.5686 42.6416 43.8991 43.4572 43.6811 44.25C43.4649 45.0428 42.7653 45.5771 41.9426 45.5771ZM30.0353 42.9369L38.8999 42.9387L38.8858 42.9299C38.3567 42.617 38.0052 42.0633 37.9489 41.4498C37.8927 40.8364 38.1352 40.2282 38.6011 39.8221C41.3801 37.3963 42.9604 33.8913 42.9376 30.2052C42.8936 23.3726 37.3038 17.7353 30.473 17.6369C27.0523 17.5876 23.8355 18.8796 21.4062 21.2755C18.9752 23.6749 17.6357 26.8759 17.6357 30.2895C17.6357 33.6276 18.9242 36.7758 21.2621 39.1559C23.5964 41.5289 26.7113 42.8719 30.0353 42.9369Z" fill="#083863"/>
<path d="M84.3854 68.3447H82.3973C81.6696 68.3447 81.0789 67.7541 81.0789 67.0264C81.0789 66.2986 81.6696 65.708 82.3973 65.708H84.3854C86.6318 65.708 88.6955 64.8291 90.1984 63.2348C91.617 61.7284 92.4308 59.6858 92.4308 57.6309C92.4308 55.7606 91.7717 53.9905 90.5254 52.5087C88.0592 49.5819 86.7022 45.8607 86.7022 42.0304V35.7129C86.7022 30.8842 84.8213 26.3455 81.4077 22.9319C77.9922 19.5164 73.4536 17.6374 68.6249 17.6374C58.6582 17.6374 50.5494 25.7461 50.5494 35.7129V41.8247C50.5494 45.6093 49.217 49.3007 46.7983 52.2151L46.5152 52.5544C44.5078 54.9731 44.0912 58.2444 45.4272 61.092C46.7649 63.9397 49.5475 65.708 52.6939 65.708H54.8789C55.6066 65.708 56.1972 66.2986 56.1972 67.0264C56.1972 67.7541 55.6066 68.3447 54.8789 68.3447H52.6939C48.5156 68.3447 44.8172 65.9945 43.0418 62.2135C41.2664 58.4307 41.8202 54.0837 44.4885 50.8686L44.7715 50.5294C46.7965 48.0878 47.9127 44.9958 47.9127 41.8247V35.7129C47.9127 24.2924 57.2045 15.0007 68.6249 15.0007C74.1567 15.0007 79.3598 17.1557 83.2709 21.0686C87.1838 24.9797 89.3389 30.1793 89.3389 35.7129V42.0304C89.3389 45.2384 90.4762 48.3567 92.5433 50.8106C94.1957 52.7741 95.0675 55.1331 95.0675 57.6309C95.0675 60.3502 93.9918 63.052 92.118 65.0418C90.1123 67.1723 87.3649 68.3447 84.3854 68.3447Z" fill="#083863"/>
<path d="M36.0342 99.7266C35.3064 99.7266 34.7158 99.1359 34.7158 98.4082V82.8886C34.7158 77.6398 37.8412 72.9324 42.6769 70.8951L56.6972 64.799C58.8979 63.8428 60.32 61.6736 60.32 59.276V59.2092C60.32 58.4815 60.9106 57.8908 61.6383 57.8908C62.3661 57.8908 62.9567 58.4815 62.9567 59.2092V59.2742C62.9567 62.723 60.9124 65.8396 57.7483 67.216L43.721 73.3156C43.7158 73.3173 43.7123 73.3191 43.707 73.3208C39.8469 74.945 37.3525 78.7015 37.3525 82.8886V98.4082C37.3525 99.1359 36.7619 99.7266 36.0342 99.7266Z" fill="#083863"/>
<path d="M101.044 105C100.316 105 99.7255 104.409 99.7255 103.682V82.7304C99.7255 78.6312 97.305 74.9082 93.5573 73.2435L79.3718 67.1633C76.185 65.7975 74.1248 62.6756 74.123 59.2092C74.123 58.4815 74.7119 57.8909 75.4396 57.8909C75.4396 57.8909 75.4396 57.8909 75.4414 57.8909C76.1691 57.8909 76.7598 58.4797 76.7598 59.2092C76.7615 61.6192 78.1941 63.79 80.4107 64.741L94.605 70.8248C94.6103 70.8265 94.6155 70.8283 94.619 70.8318C99.3229 72.9166 102.362 77.587 102.362 82.7321V103.682C102.362 104.409 101.772 105 101.044 105Z" fill="#083863"/>
<path d="M83.3896 80.127C82.6619 80.127 82.0713 79.5363 82.0713 78.8086V67.4532C82.0713 66.7255 82.6619 66.1348 83.3896 66.1348C84.1174 66.1348 84.708 66.7255 84.708 67.4532V78.8086C84.708 79.5363 84.1174 80.127 83.3896 80.127Z" fill="#083863"/>
<path d="M53.6875 80.127C52.9598 80.127 52.3691 79.5363 52.3691 78.8086V67.5446C52.3691 66.8169 52.9598 66.2262 53.6875 66.2262C54.4152 66.2262 55.0058 66.8169 55.0058 67.5446V78.8086C55.0058 79.5363 54.4152 80.127 53.6875 80.127Z" fill="#083863"/>
<path d="M68.0863 75.9658C63.0819 75.9658 58.1161 75.2398 53.3102 73.8037C52.6124 73.5945 52.2169 72.8598 52.4243 72.1619C52.6317 71.4641 53.3665 71.0668 54.0643 71.276C58.9 72.7209 63.9063 73.4065 68.9441 73.3203C73.7131 73.2377 78.438 72.4572 82.989 71.0053C83.6833 70.7838 84.4251 71.167 84.6466 71.8596C84.8681 72.5539 84.4849 73.2957 83.7923 73.5172C78.997 75.0482 74.0172 75.8691 68.9916 75.957C68.6893 75.9623 68.3887 75.9658 68.0863 75.9658Z" fill="#083863"/>
<path d="M70.6884 61.5391H66.3923C59.2433 61.5391 53.4268 55.7225 53.4268 48.5735V37.2163C53.4268 36.4886 54.0174 35.898 54.7451 35.898C55.4728 35.898 56.0635 36.4886 56.0635 37.2163V48.5735C56.0635 54.2688 60.697 58.9024 66.3923 58.9024H70.6884C76.3837 58.9024 81.0172 54.2688 81.0172 48.5735V37.1917C81.0172 36.464 81.6079 35.8734 82.3356 35.8734C83.0633 35.8734 83.654 36.464 83.654 37.1917V48.5735C83.654 55.7225 77.8374 61.5391 70.6884 61.5391Z" fill="#083863"/>
<path d="M75.0069 53.8799C74.4444 53.8799 73.9241 53.5178 73.7483 52.9535C73.5321 52.2574 73.9206 51.5192 74.6149 51.3029C75.8963 50.9039 77.0653 50.2746 78.0883 49.4309C79.7705 48.0422 80.66 46.3916 81.1082 45.2508C81.3754 44.5723 82.14 44.2383 82.8186 44.5055C83.4953 44.7727 83.8293 45.5373 83.5621 46.2159C82.9996 47.6467 81.8834 49.7174 79.767 51.4647C78.4785 52.5264 77.009 53.3191 75.3989 53.8201C75.2688 53.8605 75.137 53.8799 75.0069 53.8799Z" fill="#083863"/>
<path d="M72.4605 56.4248H69.3703C67.2398 56.4248 65.5049 54.6916 65.5049 52.5594C65.5049 50.4289 67.2381 48.694 69.3703 48.694H72.4605C74.591 48.694 76.3259 50.4272 76.3259 52.5594C76.3259 54.6916 74.591 56.4248 72.4605 56.4248ZM69.3703 51.3324C68.6935 51.3324 68.1416 51.8826 68.1416 52.5612C68.1416 53.2379 68.6918 53.7899 69.3703 53.7899H72.4605C73.1373 53.7899 73.6892 53.2397 73.6892 52.5612C73.6892 51.8844 73.139 51.3324 72.4605 51.3324H69.3703Z" fill="#083863"/>
<path d="M84.8096 38.7031C83.9852 38.7031 83.1555 38.6434 82.3276 38.5221C82.2643 38.5133 82.201 38.5045 82.1395 38.4957C79.2919 38.0861 76.6657 36.9998 74.5423 35.3545C73.9657 34.908 73.8603 34.0801 74.3068 33.5053C74.7532 32.9305 75.5812 32.825 76.156 33.2698C77.9208 34.6373 80.1233 35.5426 82.5227 35.8871C82.528 35.8871 82.5333 35.8889 82.5385 35.8889C82.5807 35.8959 82.6247 35.9029 82.6686 35.9082C82.6774 35.91 82.688 35.91 82.6967 35.9117C84.1048 36.1174 85.518 36.1174 86.8944 35.9117C87.1528 35.8731 87.434 35.8221 87.7522 35.7553C88.4659 35.6076 89.1637 36.0647 89.3114 36.7783C89.459 37.492 89.002 38.1898 88.2901 38.3375C87.9209 38.4148 87.5922 38.4729 87.2829 38.5203C86.4655 38.6416 85.6393 38.7031 84.8096 38.7031Z" fill="#083863"/>
<path d="M54.9152 38.5352H49.2305C48.5027 38.5352 47.9121 37.9445 47.9121 37.2168C47.9121 36.4891 48.5027 35.8985 49.2305 35.8985H54.8291C59.2833 35.3113 63.481 33.8664 67.3077 31.6024C73.4723 27.9549 77.1497 23.0419 79.15 19.5632C79.5122 18.9321 80.3172 18.7142 80.95 19.078C81.5811 19.4401 81.7991 20.247 81.4352 20.878C79.2784 24.6309 75.3092 29.9325 68.6507 33.8699C64.49 36.3309 59.9249 37.8971 55.084 38.5229C55.0277 38.5316 54.9715 38.5352 54.9152 38.5352Z" fill="#083863"/>
<path d="M90.305 105C90.2593 105 90.2119 104.999 90.1644 104.993C89.4402 104.916 88.9164 104.267 88.9919 103.543L91.3193 81.5848C91.3597 81.2086 91.2419 80.8447 90.9888 80.5635C90.7357 80.2822 90.3876 80.1275 90.008 80.1275H48.3955C48.0175 80.1275 47.6695 80.2822 47.4146 80.5635C47.1615 80.8447 47.0437 81.2068 47.0841 81.5848L49.4132 103.543C49.4906 104.267 48.965 104.916 48.2408 104.993C47.5166 105.071 46.8679 104.545 46.7906 103.821L44.4633 81.8625C44.3455 80.7498 44.7076 79.6336 45.4564 78.8004C46.2052 77.9689 47.2757 77.4908 48.3955 77.4908H90.0097C91.1294 77.4908 92.2017 77.9689 92.9505 78.8004C93.6993 79.6336 94.0615 80.7498 93.9437 81.8625L91.6146 103.821C91.5443 104.498 90.9712 105 90.305 105Z" fill="#083863"/>
<path d="M103.68 105H16.3174C15.5896 105 14.999 104.409 14.999 103.682C14.999 102.954 15.5896 102.363 16.3174 102.363H103.68C104.408 102.363 104.999 102.954 104.999 103.682C104.999 104.409 104.408 105 103.68 105Z" fill="#083863"/>
<path d="M69.2031 96.2559C66.4416 96.2559 64.1934 94.0076 64.1934 91.2461C64.1934 88.4846 66.4416 86.2364 69.2031 86.2364C71.9646 86.2364 74.2128 88.4829 74.2128 91.2461C74.2128 94.0094 71.9646 96.2559 69.2031 96.2559ZM69.2031 88.8731C67.8953 88.8731 66.8301 89.9383 66.8301 91.2461C66.8301 92.5539 67.8953 93.6192 69.2031 93.6192C70.5109 93.6192 71.5761 92.5539 71.5761 91.2461C71.5761 89.9383 70.5109 88.8731 69.2031 88.8731Z" fill="#083863"/>
<path d="M26.332 30.2881C26.332 31.0158 25.7414 31.6064 25.0137 31.6064C24.2859 31.6064 23.6953 31.0158 23.6953 30.2881C23.6953 29.5604 24.2859 28.9697 25.0137 28.9697C25.7414 28.9697 26.332 29.5604 26.332 30.2881Z" fill="#083863"/>
<path d="M31.6055 30.2881C31.6055 31.0158 31.0148 31.6064 30.2871 31.6064C29.5594 31.6064 28.9688 31.0158 28.9688 30.2881C28.9688 29.5604 29.5594 28.9697 30.2871 28.9697C31.0148 28.9697 31.6055 29.5604 31.6055 30.2881Z" fill="#083863"/>
<path d="M36.8789 30.2881C36.8789 31.0158 36.2883 31.6064 35.5605 31.6064C34.8328 31.6064 34.2422 31.0158 34.2422 30.2881C34.2422 29.5604 34.8328 28.9697 35.5605 28.9697C36.2883 28.9697 36.8789 29.5604 36.8789 30.2881Z" fill="#083863"/>
</g>
</svg>
