<svg width="445" height="523" viewBox="0 0 445 523" fill="none" xmlns="http://www.w3.org/2000/svg">
<g opacity="0.57">
<path d="M417.653 155.945C425.606 160.535 432.02 171.667 431.993 180.806L431.471 363.015C431.443 372.154 424.988 375.837 417.035 371.247L150.504 217.281C142.551 212.691 136.137 201.559 136.164 192.42L136.672 10.2113C136.7 1.07202 143.156 -2.61118 151.109 1.97907L417.653 155.945Z" fill="#2D9389"/>
</g>
<g opacity="0.57">
<path d="M430.661 155.945C438.615 160.535 445.029 171.667 445.002 180.806L444.48 363.015C444.452 372.154 437.996 375.837 430.043 371.247L163.513 217.281C155.56 212.691 149.145 201.559 149.173 192.42L149.695 10.2113C149.722 1.07202 156.178 -2.61118 164.131 1.97907L430.661 155.945Z" fill="#BB45FF"/>
</g>
<path opacity="0.57" d="M26.716 417.878C26.6885 417.864 26.6747 417.85 26.6473 417.837C23.3919 415.954 18.1173 415.94 14.8482 417.809C12.8153 418.963 12.0323 420.571 12.4719 422.083C12.4719 422.083 12.4719 422.083 12.4719 422.097C12.4719 422.097 12.4719 422.097 12.4719 422.111C12.4856 422.152 12.4994 422.193 12.5131 422.234C12.5406 422.331 12.5818 422.413 12.623 422.509C12.6367 422.537 12.6505 422.578 12.6642 422.605C12.7054 422.702 12.7603 422.798 12.8153 422.894C12.829 422.922 12.8428 422.935 12.8565 422.963C12.9252 423.073 12.9938 423.169 13.0763 423.279C13.09 423.293 13.09 423.306 13.1037 423.32C13.1861 423.43 13.2823 423.54 13.3922 423.65L13.4059 423.664C13.4197 423.677 13.4197 423.677 13.4334 423.691C13.7768 424.035 14.1889 424.365 14.6834 424.667C14.7108 424.681 14.7383 424.694 14.752 424.708C14.7795 424.722 14.7932 424.736 14.8207 424.749C15.2191 424.983 15.6586 425.189 16.1256 425.368C16.1394 425.368 16.1394 425.382 16.1531 425.382C16.1668 425.382 16.1806 425.395 16.208 425.395C16.2218 425.395 16.2355 425.409 16.2492 425.409C16.263 425.409 16.263 425.423 16.2767 425.423C16.2904 425.437 16.3179 425.437 16.3454 425.45C16.5926 425.533 16.8399 425.615 17.0871 425.684C17.1421 425.698 17.197 425.711 17.2382 425.725C17.3756 425.766 17.4992 425.794 17.6366 425.835C17.5129 425.808 17.3893 425.766 17.2657 425.739C17.458 425.794 17.6366 425.835 17.8289 425.876C17.8151 425.876 17.8014 425.876 17.7877 425.863C17.8014 425.863 17.8151 425.863 17.8289 425.876C17.8975 425.89 17.9662 425.904 18.0349 425.918C18.1173 425.931 18.1997 425.945 18.2684 425.959C18.1997 425.945 18.1448 425.931 18.0761 425.918C18.2547 425.959 18.4332 425.986 18.6255 426.014C18.5706 426 18.5157 426 18.4744 425.986C18.5569 426 18.653 426.014 18.7354 426.027C18.7629 426.027 18.7766 426.041 18.8041 426.041C18.8453 426.041 18.8865 426.055 18.9277 426.055C18.914 426.055 18.8865 426.055 18.8728 426.041C19.1063 426.069 19.3535 426.096 19.5871 426.124H19.5733C19.6008 426.124 19.6283 426.124 19.6557 426.137C22.1282 426.33 24.7105 425.876 26.6198 424.791C29.9439 422.88 29.9713 419.802 26.716 417.878Z" fill="white"/>
<path opacity="0.57" d="M149.816 523C112.07 523 76.5767 515.537 49.8056 501.945C22.7185 488.188 7.76017 469.8 7.70523 450.174C7.65029 430.535 22.485 412.051 49.4897 398.142C76.3844 384.275 112.166 376.579 150.256 376.469C150.544 376.469 150.846 376.469 151.135 376.469C188.881 376.469 224.374 383.932 251.145 397.538C278.233 411.295 293.191 429.683 293.246 449.309C293.301 468.948 278.466 487.432 251.461 501.341C224.567 515.208 188.785 522.904 150.695 523.014C150.407 523 150.118 523 149.816 523ZM151.135 377.445C150.846 377.445 150.558 377.445 150.256 377.445C112.331 377.555 76.7141 385.224 49.9567 399.008C23.3091 412.738 8.66674 430.906 8.72168 450.147C8.77663 469.387 23.5427 487.46 50.2726 501.024C77.1124 514.644 112.826 522.079 150.709 521.969C188.634 521.859 224.251 514.191 251.008 500.406C277.656 486.676 292.312 468.508 292.243 449.267C292.188 430.027 277.422 411.954 250.692 398.39C224.058 384.88 188.73 377.445 151.135 377.445Z" fill="url(#paint0_linear_110_9230)"/>
<path opacity="0.57" d="M149.897 515.139C79.9958 515.139 23.1706 486.044 23.0607 450.106C23.0058 432.569 36.2609 416.064 60.3673 403.64C84.3638 391.271 116.3 384.399 150.282 384.289C150.543 384.289 150.804 384.289 151.065 384.289C184.745 384.289 216.42 390.955 240.307 403.076C264.496 415.349 277.847 431.772 277.888 449.309C277.943 466.845 264.688 483.351 240.581 495.775C216.585 508.144 184.649 515.015 150.667 515.125C150.419 515.139 150.158 515.139 149.897 515.139ZM151.065 385.306C150.804 385.306 150.543 385.306 150.282 385.306C116.464 385.416 84.6934 392.247 60.8343 404.533C37.0713 416.778 24.0222 432.954 24.0772 450.106C24.1871 485.495 80.5589 514.136 149.911 514.136C150.172 514.136 150.419 514.136 150.68 514.136C184.498 514.026 216.269 507.195 240.128 494.909C263.891 482.663 276.94 466.488 276.885 449.336C276.83 432.198 263.685 416.091 239.853 403.997C216.09 391.93 184.58 385.306 151.065 385.306Z" fill="url(#paint1_linear_110_9230)"/>
<path opacity="0.57" d="M295.718 455.933C295.704 455.919 295.69 455.919 295.676 455.905C293.396 454.586 289.715 454.572 287.421 455.878C286.006 456.689 285.443 457.802 285.759 458.86C285.773 458.888 285.773 458.915 285.787 458.943C285.814 459.011 285.828 459.066 285.855 459.135C285.869 459.163 285.883 459.176 285.883 459.204C285.91 459.272 285.951 459.341 285.993 459.41C286.006 459.424 286.006 459.437 286.02 459.451C286.061 459.52 286.116 459.602 286.171 459.671C286.171 459.685 286.185 459.685 286.185 459.699C286.24 459.781 286.309 459.85 286.391 459.932L286.405 459.946L286.418 459.96C286.652 460.207 286.954 460.427 287.298 460.647C287.311 460.661 287.339 460.674 287.353 460.674C287.366 460.688 287.38 460.688 287.394 460.702C287.682 460.867 287.984 461.004 288.3 461.128C288.314 461.128 288.314 461.128 288.328 461.142C288.341 461.142 288.355 461.155 288.355 461.155C288.369 461.155 288.369 461.169 288.383 461.169C288.396 461.169 288.396 461.169 288.41 461.183C288.424 461.183 288.438 461.197 288.465 461.197C288.63 461.252 288.809 461.307 288.987 461.361C288.973 461.361 288.96 461.361 288.946 461.348C288.96 461.348 288.973 461.361 288.987 461.361C289.028 461.375 289.056 461.375 289.097 461.389C289.193 461.416 289.289 461.444 289.385 461.458C289.303 461.444 289.207 461.416 289.124 461.389C289.248 461.416 289.385 461.458 289.523 461.485C289.564 461.499 289.619 461.499 289.66 461.513C289.715 461.526 289.77 461.54 289.825 461.54C289.784 461.526 289.729 461.526 289.688 461.513C289.811 461.54 289.935 461.554 290.072 461.581C290.031 461.581 290.004 461.568 289.962 461.568C290.017 461.581 290.086 461.581 290.141 461.595C290.155 461.595 290.168 461.595 290.182 461.609C290.21 461.609 290.237 461.623 290.265 461.623C290.251 461.623 290.237 461.623 290.223 461.623C290.388 461.65 290.553 461.664 290.718 461.678C290.718 461.678 290.718 461.678 290.704 461.678C290.718 461.678 290.745 461.678 290.759 461.678C292.49 461.815 294.289 461.499 295.621 460.743C297.957 459.424 297.984 457.266 295.718 455.933Z" fill="white"/>
<g opacity="0.35">
<path d="M294.304 429.147L258.564 449.927C257.314 450.655 255.762 450.655 254.498 449.927L218.524 429.147C217.713 428.68 217.713 427.498 218.524 427.031L254.141 406.32C255.473 405.55 257.108 405.55 258.44 406.32L294.304 427.031C295.115 427.512 295.115 428.68 294.304 429.147Z" fill="#BB45FF"/>
</g>
<g opacity="0.35">
<path d="M339.083 438.712L318.685 450.573C317.971 450.985 317.078 450.985 316.364 450.573L295.829 438.712C295.362 438.438 295.362 437.778 295.829 437.503L316.158 425.684C316.913 425.244 317.847 425.244 318.617 425.684L339.083 437.517C339.55 437.778 339.55 438.451 339.083 438.712Z" fill="#BB45FF"/>
</g>
<path d="M346.886 366.822V369.941C346.886 371.783 344.894 372.924 343.314 372.003L328.603 363.523C327.861 363.097 327.408 362.314 327.408 361.462V358.342C327.408 356.5 329.386 355.36 330.98 356.28L345.691 364.76C346.419 365.172 346.886 365.969 346.886 366.822Z" fill="url(#paint2_linear_110_9230)"/>
<path d="M393.464 408.986V412.106C393.464 413.933 391.486 415.088 389.893 414.181L328.603 379.026C327.861 378.6 327.408 377.816 327.408 376.95V373.831C327.408 372.003 329.386 370.848 330.98 371.755L392.269 406.911C392.997 407.35 393.464 408.134 393.464 408.986Z" fill="url(#paint3_linear_110_9230)"/>
<g opacity="0.53">
<path d="M368.204 425.505V428.625C368.204 430.453 366.226 431.607 364.632 430.7L328.617 410.044C327.875 409.618 327.422 408.835 327.422 407.969V404.849C327.422 403.021 329.4 401.867 330.993 402.774L367.009 423.43C367.737 423.87 368.204 424.653 368.204 425.505Z" fill="url(#paint4_linear_110_9230)"/>
</g>
<path d="M383.959 419.046V422.166C383.959 423.993 381.981 425.148 380.387 424.241L328.603 394.542C327.861 394.116 327.408 393.332 327.408 392.466V389.347C327.408 387.519 329.386 386.364 330.98 387.271L382.764 416.971C383.505 417.397 383.959 418.194 383.959 419.046Z" fill="url(#paint5_linear_110_9230)"/>
<path d="M140.146 10.225C139.995 10.1425 139.844 10.0463 139.693 9.96388C139.501 9.85393 139.295 9.75773 139.103 9.66153C138.91 9.56533 138.718 9.46912 138.526 9.38666C138.333 9.3042 138.141 9.22174 137.949 9.13928C137.756 9.05682 137.564 8.98811 137.372 8.91939C137.331 8.90565 137.303 8.89191 137.262 8.87816C137.248 8.87816 137.234 8.86442 137.221 8.86442C137.083 8.82319 136.946 8.76822 136.795 8.72699C136.603 8.67201 136.397 8.61704 136.204 8.56207C136.012 8.50709 135.806 8.46586 135.614 8.42463C135.408 8.3834 135.188 8.34217 134.982 8.31469C134.844 8.30095 134.707 8.2872 134.556 8.27346C134.529 8.27346 134.515 8.27346 134.487 8.27346C134.432 8.27346 134.377 8.25972 134.336 8.25972C134.116 8.25972 133.897 8.24597 133.663 8.24597C133.416 8.24597 133.169 8.25972 132.921 8.2872C132.647 8.31469 132.358 8.35592 132.097 8.41089H132.084C132.07 8.41089 132.07 8.41089 132.056 8.41089C131.726 8.47961 131.41 8.56207 131.095 8.67201C130.696 8.80945 130.298 8.98811 129.941 9.208L120.436 14.7328C121.081 14.3617 121.795 14.0869 122.551 13.9357C122.565 13.9357 122.565 13.9357 122.578 13.9219C123.334 13.7708 124.144 13.7295 124.996 13.7983C125.023 13.7983 125.037 13.7983 125.065 13.7983C125.916 13.8807 126.795 14.0594 127.716 14.3755C127.729 14.3755 127.743 14.3892 127.757 14.3892C128.691 14.7053 129.652 15.1451 130.641 15.7223L396.086 169.07L405.592 163.545L140.146 10.225Z" fill="#BB45FF"/>
<path d="M419.864 187.678C419.85 187.444 419.85 187.211 419.836 186.977C419.822 186.743 419.809 186.51 419.781 186.276C419.754 186.043 419.726 185.809 419.699 185.575C419.671 185.342 419.63 185.094 419.603 184.861V184.847V184.833C419.562 184.6 419.52 184.38 419.479 184.146C419.438 183.899 419.383 183.651 419.328 183.404C419.273 183.156 419.218 182.909 419.149 182.648C419.081 182.401 419.026 182.139 418.943 181.892C418.888 181.7 418.833 181.494 418.765 181.301C418.765 181.287 418.751 181.274 418.751 181.26C418.737 181.219 418.724 181.177 418.71 181.136C418.627 180.889 418.559 180.641 418.476 180.394C418.394 180.147 418.312 179.913 418.215 179.666C418.133 179.432 418.037 179.198 417.954 178.965C417.858 178.731 417.776 178.498 417.68 178.264C417.611 178.085 417.529 177.907 417.446 177.728C417.446 177.714 417.432 177.7 417.432 177.7C417.419 177.659 417.405 177.618 417.377 177.577C417.281 177.343 417.171 177.109 417.062 176.876C416.938 176.628 416.828 176.367 416.691 176.12C416.553 175.831 416.402 175.543 416.251 175.268C416.086 174.965 415.908 174.663 415.743 174.361C415.715 174.306 415.688 174.251 415.647 174.196C415.606 174.127 415.578 174.072 415.537 174.003C415.193 173.426 414.85 172.863 414.479 172.313C414.191 171.873 413.889 171.447 413.573 171.021C413.367 170.733 413.147 170.458 412.941 170.183C412.762 169.949 412.57 169.729 412.391 169.496C412.213 169.276 412.02 169.056 411.842 168.85C411.663 168.644 411.471 168.437 411.279 168.231C411.238 168.19 411.196 168.149 411.169 168.108C411.155 168.094 411.141 168.08 411.128 168.066C410.99 167.915 410.839 167.764 410.702 167.613C410.496 167.407 410.304 167.214 410.097 167.022C409.891 166.816 409.685 166.623 409.466 166.431C409.26 166.239 409.04 166.06 408.834 165.867C408.724 165.771 408.614 165.689 408.504 165.606C408.477 165.593 408.449 165.565 408.435 165.551C408.353 165.483 408.271 165.414 408.188 165.359C407.982 165.194 407.776 165.029 407.556 164.878C407.35 164.727 407.144 164.576 406.938 164.438C406.732 164.301 406.54 164.163 406.334 164.04C406.128 163.916 405.936 163.792 405.73 163.669C405.688 163.641 405.633 163.614 405.592 163.586L396.087 169.111C397.062 169.674 398.024 170.348 398.944 171.09C398.971 171.104 398.985 171.131 399.013 171.145C399.919 171.887 400.798 172.712 401.636 173.605C401.65 173.619 401.664 173.632 401.677 173.646C403.367 175.446 404.892 177.522 406.169 179.734C406.197 179.789 406.224 179.844 406.265 179.899C406.883 180.985 407.446 182.098 407.955 183.225C407.955 183.239 407.968 183.253 407.968 183.266C408.477 184.421 408.916 185.603 409.26 186.785C409.26 186.798 409.273 186.812 409.273 186.826C409.63 188.008 409.905 189.19 410.097 190.372V190.385C410.29 191.567 410.386 192.736 410.372 193.876L409.864 375.342C409.864 376.455 409.754 377.486 409.576 378.435C409.576 378.462 409.562 378.49 409.562 378.517C409.37 379.452 409.095 380.29 408.751 381.046C408.738 381.06 408.738 381.073 408.738 381.101C408.435 381.733 408.065 382.269 407.666 382.764C407.529 382.929 407.405 383.107 407.268 383.258C406.801 383.767 406.279 384.207 405.702 384.55L415.207 379.026C415.784 378.682 416.306 378.242 416.773 377.734C416.91 377.582 417.034 377.404 417.171 377.239C417.336 377.019 417.542 376.84 417.693 376.593C417.886 376.291 418.064 375.961 418.229 375.617C418.243 375.603 418.243 375.59 418.243 375.576C418.243 375.562 418.257 375.548 418.257 375.535C418.366 375.301 418.463 375.067 418.559 374.806C418.655 374.559 418.737 374.312 418.806 374.05C418.875 373.817 418.943 373.569 418.998 373.322C419.026 373.226 419.04 373.116 419.067 373.006C419.067 372.978 419.081 372.951 419.081 372.923C419.094 372.827 419.122 372.731 419.136 372.621C419.177 372.401 419.204 372.168 419.232 371.934C419.259 371.714 419.287 371.48 419.301 371.247C419.314 371.027 419.328 370.793 419.342 370.573C419.355 370.34 419.355 370.12 419.355 369.872C419.355 369.859 419.355 369.845 419.355 369.831L419.864 188.365C419.877 188.104 419.877 187.884 419.864 187.678Z" fill="url(#paint6_linear_110_9230)"/>
<path d="M396.087 169.083C404.012 173.66 410.4 184.737 410.372 193.849L409.864 375.315C409.836 384.427 403.408 388.096 395.482 383.52L130.037 230.172C122.112 225.596 115.725 214.519 115.752 205.407L116.26 23.9407C116.288 14.8289 122.716 11.1732 130.642 15.736L396.087 169.083Z" fill="url(#paint7_linear_110_9230)"/>
<path d="M385.358 171.557C392.638 175.763 398.517 185.946 398.49 194.316L398.023 361.146C397.995 369.515 392.089 372.896 384.809 368.677L140.764 227.712C133.484 223.507 127.605 213.323 127.633 204.953L128.1 38.1239C128.127 29.7542 134.034 26.3871 141.314 30.5926L385.358 171.557Z" fill="url(#paint8_linear_110_9230)"/>
<path d="M356.72 253.068C356.679 253.096 356.638 253.123 356.597 253.15C356.624 253.123 356.679 253.096 356.72 253.068Z" fill="#BB45FF"/>
<path d="M370.044 299.892C370.511 300.167 370.882 300.799 370.868 301.335L370.84 310.185C370.84 310.721 370.47 310.941 370.003 310.667L347.929 297.913C347.462 297.638 347.091 297.006 347.105 296.47L347.132 287.619C347.132 287.083 347.503 286.877 347.97 287.138L370.044 299.892Z" fill="#EBEEEE"/>
<path d="M323.163 275.291C323.699 275.608 324.138 276.35 324.138 276.968L324.124 282.081C324.124 282.699 323.685 282.946 323.149 282.63L318.713 280.06C318.177 279.744 317.737 279.002 317.737 278.384L317.751 273.271C317.751 272.653 318.191 272.405 318.726 272.721L323.163 275.291Z" fill="#EBEEEE"/>
<path d="M327.339 273.463V274.906L317.971 269.492V268.049L327.339 273.463Z" fill="#EBEEEE"/>
<path d="M339.646 276.487V277.916L317.971 265.41L317.984 263.981L339.646 276.487Z" fill="#EBEEEE"/>
<path d="M345.925 252.876C345.897 252.862 345.883 252.862 345.856 252.849L345.746 252.794C345.815 252.821 345.87 252.849 345.925 252.876Z" fill="#BB45FF"/>
<path d="M339.672 268.337L339.658 269.78L317.997 257.274V255.831L339.672 268.337Z" fill="#EBEEEE"/>
<path d="M351.432 261.548V263.939L337.339 255.803V253.412L351.432 261.548Z" fill="#EBEEEE"/>
<path d="M340.87 249.633C340.76 249.537 340.65 249.454 340.54 249.358C340.65 249.454 340.774 249.55 340.883 249.647C340.883 249.647 340.883 249.633 340.87 249.633Z" fill="#BB45FF"/>
<path d="M339.22 248.19C339.124 248.107 339.028 248.011 338.945 247.928C339.041 248.011 339.138 248.093 339.22 248.19Z" fill="#BB45FF"/>
<path d="M359.687 271.594L359.673 273.986L329.056 256.298L329.069 253.907L359.687 271.594Z" fill="#EBEEEE"/>
<path d="M370.07 285.75C370.537 286.025 370.908 286.657 370.894 287.193L370.867 296.057C370.867 296.58 370.496 296.8 370.029 296.538L347.955 283.785C347.488 283.51 347.117 282.878 347.131 282.342L347.159 273.477C347.159 272.941 347.53 272.735 347.997 272.996L370.07 285.75Z" fill="#EBEEEE"/>
<path d="M343.121 251.282C343.217 251.351 343.313 251.406 343.41 251.474C343.341 251.433 343.286 251.392 343.217 251.351C343.19 251.337 343.149 251.309 343.121 251.282Z" fill="#BB45FF"/>
<path d="M345.746 252.794L345.855 252.848C345.842 252.848 345.842 252.848 345.828 252.835L345.746 252.794Z" fill="#BB45FF"/>
<path d="M345.746 252.794L345.842 252.835C345.814 252.821 345.773 252.807 345.746 252.794Z" fill="#BB45FF"/>
<path d="M336.967 222.902V222.875C336.953 222.613 336.939 222.325 336.939 222.05C336.939 222.023 336.939 221.995 336.939 221.968C337.049 222.902 337.173 223.905 337.283 224.785L337.242 224.73C337.242 224.744 337.269 225.115 337.338 225.747C337.338 225.733 337.324 225.733 337.324 225.719C337.242 225.115 337.173 224.565 337.118 224.111C337.063 223.713 336.994 223.301 336.967 222.902Z" fill="#89543C"/>
<path d="M350.305 234.309C350.14 235.051 349.92 235.931 349.673 236.494C349.728 235.752 350.099 234.79 350.305 234.309Z" fill="#89543C"/>
<path d="M332.27 239.257C332.229 239.174 332.174 239.092 332.133 239.009C332.188 239.092 332.229 239.174 332.27 239.257Z" fill="#BB45FF"/>
<path d="M331.98 238.734L332.008 238.789C332.008 238.775 331.994 238.762 331.98 238.734Z" fill="#BB45FF"/>
<path d="M332.021 238.803L331.98 238.734C331.994 238.762 332.008 238.789 332.021 238.803Z" fill="#BB45FF"/>
<path d="M339.152 238.405C338.603 238.446 337.779 238.501 336.859 238.569C335.334 238.542 333.177 238.542 331.982 238.734C329.139 233.594 327.395 227.863 327.408 222.696C327.436 211.908 335.073 207.551 344.454 212.98C353.836 218.394 361.418 231.547 361.391 242.335C361.377 247.516 359.605 251.213 356.734 253.055C354.743 250.43 350.361 245.565 350.127 245.304C350.031 245.207 349.935 245.098 349.853 244.988L350.004 244.836L349.015 243.064L348.534 243.132L348.232 241.662C348.932 241.497 349.482 241.249 349.674 240.933C349.935 240.439 350.182 239.312 350.402 238.047C350.608 238.088 350.828 237.924 351.116 237.484C351.748 236.494 352.119 234.062 351.432 233.663C351.473 233.429 352.325 229.004 352.243 227.877C352.147 226.75 349.276 220.277 346.858 217.927C346.529 217.597 346.144 217.322 345.718 217.075C343.04 215.522 338.837 215.467 337.559 216.305C337.504 216.374 336.433 217.68 336.529 218.491C336.57 218.807 336.749 220.318 336.955 222.009C336.955 222.366 336.968 222.641 336.982 222.902C337.01 223.328 337.065 223.754 337.133 224.153C337.188 224.606 337.257 225.156 337.339 225.761C337.188 225.541 337.01 225.335 336.79 225.211C336.117 224.826 336.474 227.671 337.092 229.389C337.422 230.296 337.669 230.722 337.902 230.846C338.15 232.371 338.397 233.787 338.644 234.57C338.836 235.12 339.441 236.082 340.196 237.126L339.963 237.951L339.152 238.405Z" fill="#EBEEEE"/>
<path d="M311.996 180.724L311.708 283.551L376.706 321.098L376.994 218.271L311.996 180.724ZM344.454 212.979C353.836 218.394 361.418 231.547 361.391 242.335C361.363 252.972 353.946 257.343 344.756 252.285C344.619 252.216 344.482 252.134 344.344 252.052C344.028 251.873 343.713 251.68 343.397 251.474C343.328 251.433 343.273 251.392 343.204 251.351C343.177 251.337 343.149 251.309 343.122 251.296C334.303 245.482 327.367 233.017 327.394 222.696C327.436 211.907 335.073 207.551 344.454 212.979ZM359.687 271.594L359.674 273.986L329.056 256.298L329.07 253.907L359.687 271.594ZM337.339 255.803V253.412L351.432 261.548V263.939L337.339 255.803ZM317.999 259.899L331.955 267.966V269.409L317.999 261.342V259.899ZM324.125 282.067C324.125 282.685 323.686 282.933 323.15 282.617L318.713 280.047C318.178 279.73 317.738 278.988 317.738 278.37L317.752 273.257C317.752 272.639 318.191 272.392 318.727 272.708L323.164 275.278C323.699 275.594 324.139 276.336 324.139 276.954L324.125 282.067ZM327.339 274.907L317.972 269.492V268.049L327.339 273.464V274.907ZM339.647 277.916L317.985 265.396V263.967L339.647 276.487V277.916ZM339.66 269.78L317.999 257.26V255.817L339.66 268.337V269.78ZM370.841 310.172C370.841 310.708 370.47 310.928 370.003 310.653L347.929 297.899C347.462 297.624 347.092 296.992 347.105 296.456L347.133 287.605C347.133 287.069 347.504 286.863 347.971 287.124L370.044 299.878C370.511 300.153 370.882 300.785 370.868 301.321L370.841 310.172ZM370.882 296.057C370.882 296.58 370.511 296.8 370.044 296.539L347.971 283.785C347.504 283.51 347.133 282.878 347.146 282.342L347.174 273.477C347.174 272.941 347.545 272.735 348.012 272.996L370.085 285.75C370.552 286.025 370.923 286.657 370.909 287.193L370.882 296.057Z" fill="white"/>
<path d="M317.984 261.342L331.94 269.396L331.954 267.966L317.998 259.899L317.984 261.342Z" fill="#EBEEEE"/>
<path d="M333.177 240.755C333.136 240.672 333.081 240.603 333.04 240.521C333.081 240.603 333.136 240.686 333.177 240.755Z" fill="#BB45FF"/>
<path d="M333.314 240.974C333.273 240.906 333.218 240.823 333.177 240.755C333.218 240.837 333.273 240.906 333.314 240.974Z" fill="#BB45FF"/>
<path d="M335.648 244.259C335.593 244.19 335.538 244.108 335.483 244.039C335.538 244.122 335.593 244.19 335.648 244.259Z" fill="#BB45FF"/>
<path d="M335.787 244.438C335.746 244.383 335.691 244.314 335.649 244.259C335.704 244.328 335.746 244.383 335.787 244.438Z" fill="#BB45FF"/>
<path d="M336.378 245.166C336.282 245.056 336.2 244.946 336.117 244.85C336.2 244.946 336.296 245.056 336.378 245.166Z" fill="#BB45FF"/>
<path d="M341.748 250.32C341.638 250.237 341.514 250.141 341.404 250.059C341.514 250.141 341.624 250.224 341.748 250.32Z" fill="#BB45FF"/>
<path d="M348.163 253.756C348.053 253.714 347.943 253.687 347.833 253.646H347.819C347.929 253.687 348.039 253.714 348.163 253.756Z" fill="#BB45FF"/>
<path d="M344.522 244.039L344.536 244.08L344.413 244.148L344.522 244.039Z" fill="#7D7D7E"/>
<path d="M350.909 254.333C350.813 254.319 350.731 254.319 350.635 254.305C350.717 254.305 350.813 254.319 350.909 254.333Z" fill="#BB45FF"/>
<path d="M351.293 254.36C351.211 254.36 351.128 254.347 351.06 254.347C351.142 254.347 351.211 254.36 351.293 254.36Z" fill="#BB45FF"/>
<path d="M352.434 254.374C352.338 254.374 352.228 254.388 352.132 254.388C352.228 254.374 352.324 254.374 352.434 254.374Z" fill="#BB45FF"/>
<path d="M353.217 254.305C353.162 254.305 353.12 254.319 353.065 254.319C353.12 254.319 353.175 254.305 353.217 254.305Z" fill="#BB45FF"/>
<path d="M353.959 254.182C353.918 254.195 353.877 254.195 353.822 254.209C353.863 254.195 353.904 254.195 353.959 254.182Z" fill="#BB45FF"/>
<path d="M354.274 254.113C354.233 254.127 354.179 254.14 354.138 254.14C354.179 254.127 354.22 254.127 354.274 254.113Z" fill="#BB45FF"/>
<path d="M354.947 253.907C354.892 253.921 354.823 253.948 354.769 253.962C354.823 253.948 354.878 253.934 354.947 253.907Z" fill="#BB45FF"/>
<path d="M355.262 253.797C355.221 253.811 355.167 253.838 355.126 253.852C355.167 253.838 355.208 253.811 355.262 253.797Z" fill="#BB45FF"/>
<path d="M355.4 253.742C355.345 253.756 355.304 253.783 355.249 253.797C355.304 253.783 355.359 253.756 355.4 253.742Z" fill="#BB45FF"/>
<path d="M355.538 253.687C355.497 253.701 355.442 253.728 355.401 253.742C355.456 253.714 355.497 253.701 355.538 253.687Z" fill="#BB45FF"/>
<path d="M355.689 253.618C355.634 253.646 355.593 253.66 355.538 253.687C355.593 253.66 355.648 253.646 355.689 253.618Z" fill="#BB45FF"/>
<path d="M356.183 253.371C356.142 253.384 356.102 253.412 356.074 253.425C356.102 253.412 356.142 253.398 356.183 253.371Z" fill="#BB45FF"/>
<path d="M356.747 253.041C356.734 253.041 356.721 253.054 356.721 253.054C356.721 253.054 356.734 253.054 356.747 253.041Z" fill="#BB45FF"/>
<path d="M349.866 244.974L350.017 244.823L349.028 243.05L348.548 243.118L348.246 241.648C348.946 241.483 349.495 241.236 349.688 240.919C349.949 240.425 350.196 239.298 350.416 238.033C350.622 238.075 350.842 237.91 351.13 237.47C351.762 236.48 352.133 234.048 351.446 233.649C351.487 233.416 352.339 228.99 352.256 227.863C352.16 226.736 349.289 220.263 346.872 217.913C346.542 217.583 346.158 217.309 345.732 217.061C343.053 215.508 338.85 215.453 337.573 216.292C337.518 216.36 336.446 217.666 336.543 218.477C336.584 218.793 336.762 220.305 336.968 221.995C337.078 222.93 337.202 223.933 337.312 224.812L337.271 224.757C337.271 224.771 337.298 225.142 337.367 225.774C337.367 225.761 337.353 225.761 337.353 225.747C337.202 225.527 337.023 225.321 336.804 225.197C336.131 224.812 336.488 227.657 337.106 229.375C337.435 230.282 337.683 230.708 337.916 230.832C337.93 230.846 337.944 230.846 337.957 230.859C338.163 232.371 338.411 233.773 338.658 234.556C338.85 235.106 339.455 236.068 340.21 237.113L339.977 237.937L339.18 238.446C338.63 238.487 337.806 238.542 336.886 238.611C335.361 238.583 333.205 238.583 332.01 238.776C332.024 238.803 332.037 238.817 332.037 238.844C332.078 238.913 332.12 238.982 332.161 239.05C332.202 239.133 332.257 239.215 332.298 239.298C332.339 239.366 332.381 239.435 332.422 239.504C332.477 239.586 332.518 239.669 332.573 239.765C332.614 239.834 332.655 239.902 332.697 239.971C332.779 240.095 332.848 240.232 332.93 240.356C332.971 240.425 333.012 240.493 333.054 240.562C333.095 240.645 333.15 240.713 333.191 240.796C333.232 240.865 333.287 240.947 333.328 241.016C333.37 241.084 333.425 241.167 333.466 241.236C333.507 241.304 333.562 241.373 333.603 241.455C333.658 241.538 333.713 241.607 333.754 241.689C333.837 241.813 333.919 241.923 333.988 242.046C334.043 242.115 334.084 242.198 334.139 242.266C334.194 242.335 334.235 242.418 334.29 242.486C334.331 242.555 334.386 242.624 334.427 242.679C334.482 242.747 334.537 242.83 334.592 242.899C334.633 242.967 334.688 243.022 334.729 243.091C334.784 243.16 334.839 243.242 334.894 243.311C334.949 243.393 335.018 243.476 335.073 243.558C335.155 243.668 335.238 243.778 335.32 243.888C335.375 243.957 335.416 244.012 335.471 244.08C335.526 244.149 335.581 244.232 335.636 244.3C335.677 244.355 335.732 244.424 335.773 244.479C335.828 244.548 335.883 244.63 335.952 244.699C336.007 244.754 336.048 244.823 336.103 244.878C336.185 244.987 336.282 245.097 336.364 245.194C336.433 245.276 336.488 245.345 336.556 245.427C336.611 245.496 336.666 245.565 336.735 245.633C336.79 245.688 336.845 245.757 336.886 245.812C336.941 245.881 337.01 245.95 337.065 246.018C337.119 246.073 337.174 246.142 337.216 246.197C337.271 246.266 337.339 246.334 337.394 246.389C337.449 246.458 337.518 246.513 337.573 246.582C337.669 246.678 337.765 246.788 337.847 246.884C337.916 246.953 337.971 247.021 338.04 247.076C338.095 247.131 338.163 247.2 338.218 247.255C338.273 247.31 338.328 247.365 338.383 247.434C338.438 247.489 338.507 247.557 338.562 247.612C338.617 247.667 338.685 247.722 338.74 247.791C338.795 247.846 338.85 247.901 338.919 247.956C339.015 248.038 339.097 248.135 339.194 248.217C339.262 248.272 339.317 248.341 339.386 248.396C339.455 248.465 339.523 248.533 339.606 248.588C339.661 248.643 339.716 248.684 339.771 248.739C339.839 248.794 339.908 248.863 339.977 248.918C340.031 248.973 340.086 249.014 340.141 249.069C340.21 249.124 340.279 249.193 340.361 249.248C340.416 249.289 340.471 249.33 340.512 249.385C340.622 249.482 340.732 249.564 340.842 249.66L338.575 238.652L340.856 249.674C340.897 249.701 340.938 249.743 340.979 249.77C341.062 249.839 341.144 249.908 341.227 249.963C341.268 250.004 341.323 250.031 341.364 250.073C341.474 250.155 341.597 250.251 341.707 250.334C341.735 250.361 341.776 250.375 341.803 250.402C341.9 250.471 341.996 250.54 342.078 250.608C342.119 250.636 342.161 250.677 342.215 250.705C342.312 250.773 342.408 250.842 342.504 250.911C342.545 250.938 342.573 250.966 342.614 250.993C342.724 251.076 342.834 251.144 342.943 251.213C342.985 251.241 343.04 251.268 343.081 251.309C343.108 251.337 343.15 251.351 343.177 251.378C343.246 251.419 343.301 251.461 343.369 251.502C343.397 251.516 343.424 251.543 343.452 251.557C343.575 251.639 343.699 251.708 343.823 251.79C343.864 251.818 343.891 251.832 343.932 251.859C344.056 251.942 344.193 252.01 344.317 252.093C344.454 252.175 344.592 252.244 344.729 252.326C344.784 252.354 344.825 252.381 344.88 252.409C344.963 252.45 345.059 252.505 345.141 252.546C345.196 252.574 345.251 252.601 345.32 252.629C345.402 252.67 345.471 252.711 345.553 252.739C345.608 252.766 345.677 252.794 345.732 252.835C345.759 252.849 345.787 252.862 345.828 252.876C345.855 252.89 345.883 252.904 345.91 252.917C346.02 252.972 346.13 253.014 346.24 253.069C346.295 253.096 346.336 253.11 346.391 253.137C346.515 253.192 346.625 253.233 346.748 253.288C346.79 253.302 346.831 253.316 346.858 253.33C347.009 253.385 347.16 253.453 347.325 253.508C347.49 253.563 347.641 253.618 347.806 253.687L350.127 245.345C350.045 245.194 349.963 245.084 349.866 244.974ZM343.067 240.59C343.356 240.892 343.617 241.139 343.836 241.318C343.919 241.414 343.974 241.497 344.015 241.552C343.974 241.497 343.919 241.428 343.836 241.318C343.617 241.153 343.356 240.892 343.067 240.59ZM344.413 244.149L344.523 244.039L344.537 244.08L344.413 244.149ZM349.509 236.81C349.564 236.728 349.633 236.618 349.688 236.48C349.729 235.738 350.1 234.776 350.32 234.295C350.155 235.037 349.935 235.917 349.688 236.48C349.619 236.618 349.564 236.728 349.509 236.81C349.413 236.948 349.303 237.044 349.18 237.126C349.303 237.058 349.413 236.948 349.509 236.81Z" fill="#B8B8B8"/>
<path d="M350.141 245.304L347.819 253.646C347.929 253.687 348.039 253.714 348.163 253.756C348.204 253.769 348.259 253.783 348.3 253.797C348.383 253.824 348.451 253.838 348.534 253.866C348.589 253.879 348.643 253.893 348.698 253.907C348.767 253.921 348.836 253.948 348.918 253.962C348.973 253.976 349.028 253.989 349.069 254.003C349.152 254.017 349.234 254.044 349.317 254.058C349.358 254.072 349.399 254.072 349.426 254.086C349.536 254.113 349.646 254.127 349.77 254.154C349.825 254.168 349.866 254.168 349.921 254.182C349.99 254.195 350.058 254.209 350.127 254.223C350.182 254.237 350.237 254.237 350.278 254.25C350.347 254.264 350.415 254.264 350.484 254.278C350.539 254.278 350.58 254.292 350.635 254.292C350.731 254.305 350.814 254.319 350.91 254.319C350.965 254.319 351.006 254.333 351.061 254.333C351.143 254.333 351.226 254.347 351.295 254.347C351.349 254.347 351.391 254.347 351.446 254.36C351.514 254.36 351.569 254.36 351.638 254.374C351.693 254.374 351.734 254.374 351.789 254.374C351.858 254.374 351.926 254.374 351.981 254.374C352.023 254.374 352.077 254.374 352.119 254.374C352.229 254.374 352.325 254.374 352.421 254.36C352.462 254.36 352.503 254.36 352.544 254.347C352.613 254.347 352.668 254.333 352.737 254.333C352.792 254.333 352.833 254.319 352.888 254.319C352.943 254.319 353.011 254.305 353.066 254.305C353.121 254.305 353.163 254.292 353.218 254.292C353.286 254.278 353.341 254.278 353.41 254.264C353.451 254.264 353.492 254.25 353.533 254.25C353.63 254.237 353.726 254.223 353.822 254.195C353.863 254.182 353.904 254.182 353.959 254.168C354.014 254.154 354.069 254.141 354.138 254.127C354.179 254.113 354.234 254.099 354.275 254.099C354.33 254.086 354.385 254.072 354.44 254.058C354.481 254.044 354.536 254.031 354.577 254.017C354.646 254.003 354.701 253.976 354.77 253.962C354.825 253.948 354.893 253.921 354.948 253.907C355.003 253.893 355.072 253.866 355.127 253.838C355.168 253.824 355.223 253.811 355.264 253.783C355.319 253.769 355.36 253.742 355.415 253.728C355.456 253.714 355.511 253.687 355.553 253.673C355.608 253.646 355.649 253.632 355.704 253.605C355.745 253.591 355.786 253.563 355.827 253.55C355.91 253.508 355.992 253.467 356.075 253.426C356.116 253.412 356.157 253.385 356.184 253.371C356.239 253.343 356.281 253.316 356.336 253.288C356.377 253.261 356.418 253.233 356.459 253.22C356.5 253.192 356.542 253.165 356.597 253.137C356.638 253.11 356.679 253.082 356.72 253.055C356.734 253.055 356.748 253.041 356.748 253.041C354.756 250.416 350.374 245.551 350.141 245.304Z" fill="#B8B8B8"/>
<path d="M200.927 211.784C201.395 212.059 201.765 212.691 201.752 213.227L201.724 222.077C201.724 222.613 201.353 222.833 200.886 222.558L178.813 209.805C178.346 209.53 177.975 208.898 177.989 208.362L178.016 199.511C178.016 198.975 178.387 198.769 178.854 199.03L200.927 211.784Z" fill="#EBEEEE"/>
<path d="M154.047 187.183C154.582 187.499 155.022 188.242 155.022 188.86L155.008 193.972C155.008 194.591 154.569 194.838 154.033 194.522L149.596 191.952C149.061 191.636 148.621 190.894 148.621 190.276L148.635 185.163C148.635 184.545 149.074 184.297 149.61 184.613L154.047 187.183Z" fill="#EBEEEE"/>
<path d="M158.236 185.356L158.222 186.799L148.854 181.384V179.941L158.236 185.356Z" fill="#EBEEEE"/>
<path d="M170.532 188.393V189.822L148.87 177.302V175.873L170.532 188.393Z" fill="#EBEEEE"/>
<path d="M176.821 164.768C176.794 164.754 176.78 164.754 176.752 164.741L176.643 164.686C176.698 164.713 176.752 164.741 176.821 164.768Z" fill="#BB45FF"/>
<path d="M170.559 180.243V181.672L148.884 169.166L148.898 167.723L170.559 180.243Z" fill="#EBEEEE"/>
<path d="M182.329 173.44L182.316 175.845L168.223 167.695L168.236 165.304L182.329 173.44Z" fill="#EBEEEE"/>
<path d="M171.767 161.525C171.657 161.428 171.547 161.346 171.438 161.25C171.547 161.346 171.671 161.442 171.781 161.538C171.781 161.538 171.767 161.538 171.767 161.525Z" fill="#BB45FF"/>
<path d="M170.118 160.082C170.022 159.999 169.926 159.903 169.844 159.82C169.926 159.903 170.022 159.985 170.118 160.082Z" fill="#BB45FF"/>
<path d="M190.57 183.486V185.878L159.953 168.19V165.799L190.57 183.486Z" fill="#EBEEEE"/>
<path d="M200.969 197.656C201.436 197.931 201.807 198.563 201.793 199.099L201.766 207.963C201.766 208.485 201.395 208.705 200.928 208.444L178.854 195.69C178.387 195.416 178.03 194.783 178.03 194.247L178.058 185.383C178.058 184.847 178.429 184.641 178.896 184.902L200.969 197.656Z" fill="#EBEEEE"/>
<path d="M174.005 163.188C174.101 163.256 174.197 163.311 174.293 163.38C174.225 163.339 174.17 163.297 174.101 163.256C174.074 163.229 174.046 163.201 174.005 163.188Z" fill="#BB45FF"/>
<path d="M176.643 164.686L176.752 164.74C176.738 164.74 176.738 164.74 176.724 164.726L176.643 164.686Z" fill="#BB45FF"/>
<path d="M176.643 164.686L176.738 164.726C176.697 164.713 176.67 164.699 176.643 164.686Z" fill="#BB45FF"/>
<path d="M167.866 134.794V134.766C167.853 134.505 167.839 134.217 167.839 133.942C167.839 133.914 167.839 133.887 167.839 133.859C167.949 134.794 168.072 135.797 168.182 136.677L168.141 136.622C168.141 136.636 168.169 137.007 168.237 137.639C168.237 137.625 168.223 137.625 168.223 137.611C168.141 137.007 168.072 136.457 168.017 136.003C167.949 135.619 167.894 135.206 167.866 134.794Z" fill="#89543C"/>
<path d="M181.203 146.201C181.038 146.943 180.819 147.823 180.571 148.386C180.612 147.644 180.983 146.682 181.203 146.201Z" fill="#89543C"/>
<path d="M163.168 151.148C163.126 151.066 163.071 150.983 163.03 150.901C163.071 150.983 163.113 151.066 163.168 151.148Z" fill="#BB45FF"/>
<path d="M162.867 150.64C162.881 150.64 162.881 150.64 162.867 150.64L162.894 150.695C162.894 150.667 162.881 150.654 162.867 150.64Z" fill="#BB45FF"/>
<path d="M162.907 150.694L162.88 150.626C162.88 150.653 162.894 150.681 162.907 150.694Z" fill="#BB45FF"/>
<path d="M170.036 150.31C169.487 150.351 168.663 150.406 167.742 150.475C166.218 150.448 164.061 150.448 162.866 150.64C160.023 145.5 158.278 139.769 158.292 134.602C158.32 123.813 165.957 119.456 175.338 124.885C184.72 130.3 192.302 143.452 192.275 154.241C192.261 159.422 190.489 163.119 187.618 164.96C185.626 162.335 181.245 157.47 181.011 157.209C180.915 157.113 180.819 157.003 180.736 156.893L180.888 156.742L179.899 154.969L179.418 155.038L179.116 153.567C179.816 153.402 180.366 153.155 180.558 152.839C180.819 152.344 181.066 151.217 181.286 149.953C181.492 149.994 181.712 149.829 182 149.389C182.632 148.4 183.003 145.967 182.316 145.569C182.357 145.335 183.209 140.91 183.126 139.783C183.03 138.656 180.16 132.183 177.742 129.833C177.412 129.503 177.028 129.228 176.602 128.981C173.923 127.428 169.72 127.373 168.443 128.211C168.388 128.28 167.317 129.585 167.413 130.396C167.454 130.712 167.632 132.224 167.838 133.914C167.838 134.272 167.852 134.547 167.866 134.808C167.893 135.234 167.948 135.646 168.017 136.058C168.072 136.512 168.141 137.062 168.223 137.666C168.072 137.446 167.893 137.24 167.674 137.117C167.001 136.732 167.358 139.577 167.976 141.294C168.306 142.202 168.553 142.628 168.786 142.751C169.033 144.277 169.281 145.692 169.528 146.476C169.72 147.025 170.325 147.987 171.08 149.032L170.847 149.857L170.036 150.31Z" fill="#EBEEEE"/>
<path d="M142.88 92.6158L142.592 195.443L207.59 232.99L207.878 130.162L142.88 92.6158ZM175.352 124.871C184.733 130.286 192.316 143.438 192.288 154.227C192.261 164.864 184.843 169.235 175.654 164.177C175.517 164.108 175.379 164.026 175.242 163.943C174.926 163.765 174.61 163.572 174.294 163.366C174.225 163.325 174.17 163.284 174.102 163.242C174.074 163.229 174.047 163.201 174.019 163.188C165.201 157.374 158.264 144.909 158.292 134.588C158.333 123.799 165.956 119.443 175.352 124.871ZM190.571 183.486V185.878L159.954 168.19L159.968 165.799L190.571 183.486ZM168.223 167.695V165.304L182.316 173.44L182.302 175.831L168.223 167.695ZM148.883 171.791L162.838 179.858V181.301L148.883 173.234V171.791ZM155.009 193.972C155.009 194.591 154.569 194.838 154.034 194.522L149.597 191.952C149.061 191.636 148.622 190.894 148.622 190.275L148.636 185.163C148.636 184.545 149.075 184.297 149.611 184.613L154.047 187.183C154.583 187.499 155.023 188.241 155.023 188.86L155.009 193.972ZM158.223 186.798L148.855 181.384V179.941L158.223 185.355V186.798ZM170.531 189.822L148.869 177.302V175.873L170.531 188.393V189.822ZM170.558 181.672L148.897 169.152V167.709L170.558 180.229V181.672ZM201.725 222.077C201.725 222.613 201.354 222.833 200.887 222.558L178.813 209.805C178.346 209.53 177.989 208.898 177.989 208.362L178.017 199.511C178.017 198.975 178.387 198.769 178.854 199.03L200.928 211.784C201.395 212.059 201.766 212.691 201.752 213.227L201.725 222.077ZM201.766 207.949C201.766 208.472 201.395 208.691 200.928 208.43L178.854 195.677C178.387 195.402 178.017 194.77 178.03 194.234L178.058 185.369C178.058 184.833 178.429 184.627 178.896 184.888L200.969 197.642C201.436 197.917 201.793 198.549 201.793 199.085L201.766 207.949Z" fill="#FAFAFA"/>
<path d="M148.884 173.234L162.839 181.301V179.858L148.884 171.791V173.234Z" fill="#EBEEEE"/>
<path d="M164.198 152.88C164.157 152.811 164.102 152.729 164.061 152.66C164.115 152.729 164.157 152.798 164.198 152.88Z" fill="#BB45FF"/>
<path d="M166.532 156.165C166.477 156.096 166.422 156.014 166.367 155.945C166.422 156.014 166.477 156.082 166.532 156.165Z" fill="#BB45FF"/>
<path d="M166.683 156.343C166.642 156.288 166.587 156.22 166.546 156.165C166.587 156.22 166.628 156.275 166.683 156.343Z" fill="#BB45FF"/>
<path d="M167.275 157.058C167.192 156.948 167.096 156.838 167.014 156.742C167.096 156.838 167.179 156.948 167.275 157.058Z" fill="#BB45FF"/>
<path d="M179.047 165.648C178.937 165.606 178.827 165.579 178.717 165.538H178.703C178.813 165.579 178.937 165.62 179.047 165.648Z" fill="#BB45FF"/>
<path d="M175.42 155.931L175.433 155.972L175.297 156.054L175.42 155.931Z" fill="#7D7D7E"/>
<path d="M181.369 166.17C181.3 166.156 181.232 166.156 181.163 166.142C181.232 166.156 181.3 166.17 181.369 166.17Z" fill="#BB45FF"/>
<path d="M181.792 166.225C181.696 166.211 181.614 166.211 181.518 166.197C181.6 166.197 181.696 166.211 181.792 166.225Z" fill="#BB45FF"/>
<path d="M182.18 166.252C182.097 166.252 182.015 166.239 181.946 166.239C182.029 166.239 182.111 166.252 182.18 166.252Z" fill="#BB45FF"/>
<path d="M182.673 166.28C182.618 166.28 182.576 166.28 182.521 166.28C182.576 166.266 182.631 166.266 182.673 166.28Z" fill="#BB45FF"/>
<path d="M185.021 166.032C184.966 166.046 184.911 166.06 184.843 166.074C184.898 166.06 184.953 166.046 185.021 166.032Z" fill="#BB45FF"/>
<path d="M185.833 165.799C185.778 165.812 185.709 165.84 185.654 165.854C185.709 165.84 185.778 165.826 185.833 165.799Z" fill="#BB45FF"/>
<path d="M186.148 165.689C186.107 165.702 186.053 165.73 186.012 165.743C186.066 165.73 186.107 165.702 186.148 165.689Z" fill="#BB45FF"/>
<path d="M186.434 165.579C186.393 165.592 186.339 165.62 186.298 165.633C186.339 165.62 186.38 165.592 186.434 165.579Z" fill="#BB45FF"/>
<path d="M186.573 165.51C186.518 165.538 186.477 165.551 186.422 165.579C186.477 165.551 186.532 165.538 186.573 165.51Z" fill="#BB45FF"/>
<path d="M187.067 165.276C187.026 165.29 186.985 165.317 186.958 165.331C186.999 165.317 187.026 165.29 187.067 165.276Z" fill="#BB45FF"/>
<path d="M187.631 164.947C187.618 164.947 187.604 164.96 187.604 164.96C187.618 164.96 187.618 164.947 187.631 164.947Z" fill="#BB45FF"/>
<path d="M180.763 156.866L180.914 156.714L179.925 154.942L179.444 155.01L179.142 153.54C179.843 153.375 180.392 153.127 180.584 152.811C180.845 152.317 181.093 151.19 181.312 149.925C181.518 149.966 181.738 149.802 182.027 149.362C182.658 148.372 183.029 145.94 182.342 145.541C182.384 145.308 183.235 140.882 183.153 139.755C183.057 138.628 180.186 132.155 177.768 129.805C177.439 129.475 177.054 129.2 176.628 128.953C173.95 127.4 169.747 127.345 168.469 128.183C168.414 128.252 167.343 129.558 167.439 130.369C167.48 130.685 167.659 132.196 167.865 133.887C167.975 134.821 168.098 135.825 168.208 136.704L168.167 136.649C168.167 136.663 168.195 137.034 168.263 137.666C168.263 137.653 168.249 137.653 168.249 137.639C168.098 137.419 167.92 137.213 167.7 137.089C167.027 136.704 167.384 139.549 168.002 141.267C168.332 142.174 168.579 142.6 168.813 142.724C168.826 142.738 168.84 142.738 168.854 142.751C169.06 144.263 169.307 145.665 169.554 146.448C169.747 146.998 170.351 147.96 171.107 149.004L170.873 149.829L170.076 150.338C169.527 150.379 168.703 150.434 167.782 150.502C166.258 150.475 164.101 150.475 162.906 150.667C162.92 150.695 162.934 150.709 162.947 150.736C162.989 150.805 163.03 150.874 163.071 150.942C163.112 151.025 163.167 151.107 163.208 151.19C163.25 151.258 163.291 151.327 163.332 151.396C163.387 151.478 163.428 151.561 163.483 151.657C163.524 151.726 163.566 151.794 163.607 151.863C163.689 151.987 163.758 152.124 163.84 152.248C163.881 152.317 163.923 152.385 163.964 152.454C164.005 152.536 164.06 152.605 164.101 152.688C164.142 152.756 164.197 152.839 164.239 152.908C164.28 152.976 164.335 153.059 164.376 153.127C164.417 153.196 164.472 153.265 164.513 153.347C164.568 153.43 164.623 153.499 164.664 153.581C164.747 153.705 164.829 153.815 164.898 153.938C164.953 154.007 164.994 154.089 165.049 154.158C165.104 154.227 165.145 154.309 165.2 154.378C165.241 154.447 165.296 154.516 165.337 154.57C165.392 154.639 165.447 154.722 165.502 154.79C165.544 154.859 165.598 154.914 165.64 154.983C165.695 155.051 165.75 155.134 165.805 155.203C165.859 155.285 165.928 155.368 165.983 155.45C166.065 155.56 166.148 155.67 166.23 155.78C166.285 155.849 166.326 155.904 166.381 155.972C166.436 156.041 166.491 156.123 166.546 156.192C166.587 156.247 166.642 156.316 166.684 156.371C166.739 156.44 166.793 156.522 166.862 156.591C166.917 156.646 166.958 156.714 167.013 156.769C167.096 156.879 167.192 156.989 167.274 157.086C167.343 157.168 167.398 157.237 167.467 157.319C167.521 157.388 167.576 157.457 167.645 157.525C167.7 157.58 167.755 157.649 167.796 157.704C167.851 157.773 167.92 157.841 167.975 157.91C168.03 157.965 168.085 158.034 168.126 158.089C168.181 158.157 168.249 158.226 168.304 158.281C168.359 158.35 168.428 158.405 168.483 158.474C168.579 158.57 168.675 158.68 168.758 158.776C168.826 158.845 168.881 158.913 168.95 158.968C169.005 159.023 169.074 159.092 169.129 159.147C169.184 159.202 169.238 159.257 169.293 159.326C169.348 159.381 169.417 159.449 169.472 159.504C169.527 159.559 169.596 159.614 169.651 159.683C169.705 159.738 169.76 159.793 169.829 159.848C169.925 159.93 170.008 160.027 170.104 160.109C170.173 160.164 170.227 160.233 170.296 160.288C170.365 160.356 170.433 160.425 170.516 160.48C170.571 160.535 170.626 160.576 170.681 160.631C170.749 160.686 170.818 160.755 170.887 160.81C170.942 160.865 170.997 160.906 171.052 160.961C171.12 161.016 171.189 161.085 171.271 161.14C171.326 161.181 171.381 161.222 171.422 161.277C171.532 161.373 171.642 161.456 171.752 161.552L169.486 150.544L171.766 161.566C171.807 161.593 171.848 161.635 171.889 161.662C171.972 161.731 172.054 161.799 172.137 161.854C172.178 161.896 172.233 161.923 172.274 161.964C172.384 162.047 172.508 162.143 172.617 162.225C172.645 162.253 172.686 162.267 172.714 162.294C172.81 162.363 172.906 162.432 172.988 162.5C173.03 162.528 173.071 162.569 173.126 162.597C173.222 162.665 173.318 162.734 173.414 162.803C173.455 162.83 173.483 162.858 173.524 162.885C173.634 162.968 173.744 163.036 173.854 163.105C173.895 163.133 173.95 163.16 173.991 163.201C174.019 163.229 174.06 163.242 174.087 163.27C174.156 163.311 174.211 163.352 174.28 163.394C174.307 163.407 174.334 163.435 174.362 163.449C174.486 163.531 174.609 163.6 174.733 163.682C174.774 163.71 174.801 163.723 174.843 163.751C174.966 163.833 175.104 163.902 175.227 163.985C175.365 164.067 175.502 164.136 175.639 164.218C175.694 164.246 175.736 164.273 175.79 164.301C175.873 164.342 175.969 164.397 176.051 164.438C176.106 164.466 176.161 164.493 176.23 164.521C176.312 164.562 176.381 164.603 176.464 164.631C176.518 164.658 176.587 164.686 176.642 164.727C176.67 164.74 176.697 164.754 176.738 164.768C176.766 164.782 176.793 164.795 176.821 164.809C176.931 164.864 177.04 164.905 177.15 164.96C177.205 164.988 177.246 165.002 177.301 165.029C177.425 165.084 177.535 165.125 177.659 165.18C177.7 165.194 177.741 165.208 177.768 165.222C177.92 165.276 178.071 165.345 178.235 165.4C178.4 165.455 178.551 165.51 178.716 165.579L181.038 157.237C180.928 157.086 180.845 156.976 180.763 156.866ZM174.733 153.224C174.815 153.32 174.87 153.402 174.911 153.457C174.87 153.402 174.815 153.334 174.733 153.224ZM175.296 156.055L175.406 155.945L175.42 155.986L175.296 156.055ZM180.392 148.716C180.447 148.633 180.516 148.523 180.571 148.386C180.612 147.644 180.983 146.682 181.202 146.201C181.038 146.943 180.818 147.823 180.571 148.386C180.516 148.51 180.461 148.62 180.392 148.716C180.296 148.853 180.186 148.949 180.062 149.032C180.2 148.949 180.31 148.84 180.392 148.716Z" fill="#B8B8B8"/>
<path d="M181.024 157.209L178.703 165.551C178.813 165.592 178.923 165.62 179.047 165.661C179.088 165.675 179.143 165.689 179.184 165.702C179.266 165.73 179.335 165.744 179.417 165.771C179.472 165.785 179.527 165.799 179.582 165.812C179.651 165.826 179.72 165.854 179.802 165.867C179.857 165.881 179.912 165.895 179.953 165.909C180.035 165.922 180.118 165.95 180.2 165.964C180.242 165.977 180.283 165.977 180.31 165.991C180.42 166.019 180.544 166.032 180.654 166.06C180.709 166.074 180.75 166.074 180.805 166.087C180.873 166.101 180.942 166.115 181.011 166.128C181.066 166.142 181.121 166.142 181.162 166.156C181.231 166.17 181.299 166.17 181.368 166.183C181.423 166.183 181.464 166.197 181.519 166.197C181.615 166.211 181.698 166.225 181.794 166.225C181.849 166.225 181.89 166.238 181.945 166.238C182.027 166.238 182.11 166.252 182.178 166.252C182.233 166.252 182.274 166.252 182.329 166.266C182.398 166.266 182.453 166.266 182.522 166.28C182.577 166.28 182.618 166.28 182.673 166.28C182.741 166.28 182.81 166.28 182.865 166.28C182.906 166.28 182.961 166.28 183.002 166.28C183.112 166.28 183.208 166.28 183.305 166.266C183.346 166.266 183.387 166.266 183.428 166.252C183.497 166.252 183.552 166.238 183.621 166.238C183.675 166.238 183.717 166.225 183.772 166.225C183.827 166.225 183.895 166.211 183.95 166.211C184.005 166.211 184.046 166.197 184.101 166.197C184.17 166.183 184.225 166.183 184.294 166.17C184.335 166.17 184.376 166.156 184.417 166.156C184.513 166.142 184.61 166.128 184.706 166.101C184.747 166.087 184.788 166.087 184.843 166.074C184.898 166.06 184.953 166.046 185.022 166.032C185.063 166.019 185.118 166.005 185.159 166.005C185.214 165.991 185.269 165.977 185.324 165.964C185.365 165.95 185.42 165.936 185.461 165.922C185.53 165.909 185.585 165.881 185.653 165.867C185.708 165.854 185.777 165.826 185.832 165.812C185.887 165.799 185.956 165.771 186.011 165.744C186.052 165.73 186.107 165.716 186.148 165.689C186.203 165.675 186.244 165.647 186.299 165.634C186.34 165.62 186.395 165.593 186.436 165.579C186.491 165.551 186.533 165.538 186.587 165.51C186.629 165.496 186.67 165.469 186.711 165.455C186.794 165.414 186.876 165.373 186.958 165.331C187 165.318 187.041 165.29 187.068 165.276C187.123 165.249 187.164 165.221 187.219 165.194C187.261 165.166 187.302 165.139 187.343 165.125C187.384 165.098 187.425 165.07 187.48 165.043C187.522 165.015 187.563 164.988 187.604 164.96C187.618 164.96 187.618 164.947 187.631 164.947C185.653 162.308 181.258 157.443 181.024 157.209Z" fill="#B8B8B8"/>
<path d="M215.417 99.8448L215.032 231.244L298.093 279.222L298.464 147.823L215.417 99.8448Z" fill="url(#paint9_linear_110_9230)"/>
<path d="M204.91 104.353L204.525 235.752L287.586 283.73L287.957 152.33L204.91 104.353Z" fill="url(#paint10_linear_110_9230)"/>
<path d="M254.552 207.317C254.497 207.345 254.442 207.386 254.387 207.413C254.442 207.386 254.497 207.358 254.552 207.317Z" fill="#BB45FF"/>
<path d="M271.57 267.155C272.161 267.499 272.628 268.31 272.628 268.997L272.6 280.308C272.6 280.995 272.133 281.27 271.529 280.926L243.315 264.627C242.725 264.283 242.258 263.458 242.258 262.771L242.285 251.461C242.285 250.773 242.752 250.512 243.357 250.856L271.57 267.155Z" fill="#C5C5C5"/>
<path d="M211.667 235.711C212.354 236.109 212.917 237.071 212.904 237.855L212.89 244.383C212.89 245.166 212.327 245.482 211.64 245.084L205.967 241.813C205.28 241.414 204.717 240.452 204.731 239.669L204.744 233.141C204.744 232.357 205.308 232.041 205.994 232.44L211.667 235.711Z" fill="#BB45FF"/>
<path d="M217.011 233.388V235.23L205.02 228.303L205.033 226.462L217.011 233.388Z" fill="#EBEEEE"/>
<path d="M232.737 237.264L232.724 239.092L205.046 223.094V221.267L232.737 237.264Z" fill="#EBEEEE"/>
<path d="M240.76 207.084C240.732 207.07 240.705 207.056 240.677 207.042L240.526 206.974C240.609 207.001 240.677 207.042 240.76 207.084Z" fill="#BB45FF"/>
<path d="M232.766 226.846L232.752 228.688L205.074 212.691V210.849L232.766 226.846Z" fill="#EBEEEE"/>
<path d="M247.794 218.16V221.225L229.786 210.822V207.757L247.794 218.16Z" fill="#EBEEEE"/>
<path d="M234.304 202.933C234.166 202.823 234.015 202.699 233.878 202.576C234.029 202.699 234.18 202.823 234.317 202.947C234.317 202.947 234.304 202.947 234.304 202.933Z" fill="#BB45FF"/>
<path d="M231.407 188.874L234.305 202.933C234.168 202.823 234.016 202.699 233.879 202.576C233.81 202.521 233.742 202.466 233.687 202.411C233.591 202.328 233.508 202.26 233.412 202.177C233.343 202.108 233.261 202.053 233.192 201.985C233.11 201.916 233.027 201.834 232.931 201.765C232.863 201.696 232.794 201.641 232.712 201.572C232.615 201.49 232.533 201.408 232.437 201.325C232.354 201.243 232.272 201.174 232.19 201.091C232.066 200.981 231.956 200.872 231.832 200.748C231.764 200.679 231.681 200.597 231.613 200.528C231.544 200.459 231.462 200.377 231.393 200.308C231.311 200.226 231.242 200.157 231.159 200.074C231.091 200.006 231.008 199.923 230.94 199.855C230.857 199.772 230.789 199.703 230.706 199.621C230.624 199.538 230.541 199.456 230.459 199.36C230.335 199.236 230.225 199.112 230.102 198.975C230.019 198.892 229.951 198.81 229.868 198.728C229.786 198.645 229.717 198.563 229.635 198.48C229.566 198.411 229.497 198.329 229.429 198.26C229.36 198.178 229.278 198.095 229.209 197.999C229.14 197.917 229.072 197.848 229.003 197.766C228.934 197.683 228.852 197.587 228.783 197.504C228.701 197.408 228.618 197.312 228.536 197.216C228.426 197.078 228.302 196.941 228.192 196.804C228.124 196.721 228.069 196.652 228 196.57C227.931 196.474 227.849 196.391 227.78 196.295C227.725 196.213 227.657 196.144 227.602 196.061C227.533 195.965 227.451 195.869 227.382 195.787C227.313 195.704 227.258 195.622 227.19 195.539C227.08 195.402 226.97 195.264 226.874 195.113C226.791 195.003 226.723 194.907 226.64 194.797C226.572 194.701 226.503 194.605 226.434 194.522C226.379 194.44 226.311 194.357 226.256 194.275C226.187 194.179 226.118 194.082 226.05 193.986C225.995 193.904 225.926 193.821 225.871 193.739C225.802 193.643 225.734 193.546 225.679 193.45C225.61 193.354 225.555 193.258 225.487 193.162C225.39 193.01 225.28 192.859 225.184 192.708C225.116 192.612 225.047 192.516 224.992 192.406C224.937 192.309 224.868 192.227 224.813 192.131C224.759 192.035 224.69 191.938 224.635 191.856C224.58 191.76 224.511 191.664 224.456 191.581C224.401 191.485 224.333 191.389 224.278 191.292C224.223 191.196 224.168 191.114 224.113 191.018C224.017 190.853 223.907 190.688 223.811 190.523C223.756 190.44 223.701 190.344 223.646 190.262C223.577 190.152 223.522 190.042 223.454 189.932C223.399 189.849 223.357 189.753 223.303 189.657C223.248 189.547 223.179 189.451 223.124 189.341C223.069 189.258 223.028 189.162 222.973 189.08C222.959 189.052 222.945 189.025 222.932 188.997C224.47 188.75 227.217 188.75 229.168 188.791C230.473 188.832 231.365 188.874 231.407 188.874Z" fill="#001030"/>
<path d="M232.19 201.078C232.067 200.968 231.957 200.858 231.833 200.734C231.957 200.858 232.08 200.968 232.19 201.078Z" fill="#BB45FF"/>
<path d="M236.379 198.357L237.19 197.559L238.646 200.075L237.3 205.132C237.258 205.105 237.217 205.077 237.176 205.05C237.121 205.008 237.066 204.967 236.997 204.94C236.86 204.843 236.709 204.747 236.572 204.651C236.53 204.624 236.475 204.582 236.434 204.555C236.311 204.472 236.187 204.376 236.063 204.294C236.008 204.252 235.953 204.211 235.898 204.17C235.775 204.088 235.665 203.991 235.541 203.909C235.5 203.881 235.459 203.854 235.418 203.813C235.267 203.703 235.129 203.593 234.978 203.469C234.923 203.428 234.868 203.373 234.8 203.332C234.69 203.249 234.594 203.167 234.484 203.071C234.429 203.029 234.374 202.988 234.333 202.947L231.421 188.874C231.379 188.874 230.473 188.833 229.182 188.805C230.363 188.723 231.421 188.64 232.107 188.599L231.956 188.695L236.379 198.357Z" fill="#C5C5C5"/>
<path d="M258.341 230.997L258.328 234.062L219.208 211.454V208.389L258.341 230.997Z" fill="#EBEEEE"/>
<path d="M238.824 195.938L238.989 195.842L240.761 199.662L239.332 200.473L238.989 198.769L238.645 200.074L237.189 197.559L238.824 195.938Z" fill="#001030"/>
<path d="M271.626 249.097C272.216 249.44 272.683 250.251 272.683 250.938L272.656 262.263C272.656 262.936 272.189 263.211 271.585 262.867L243.371 246.568C242.78 246.224 242.313 245.4 242.313 244.726L242.341 233.402C242.341 232.715 242.808 232.454 243.412 232.797L271.626 249.097Z" fill="#C5C5C5"/>
<path d="M229.771 172.396C229.771 172.409 229.785 172.409 229.785 172.423C229.936 173.935 230.197 176.519 230.526 178.91C230.513 178.896 230.485 178.896 230.471 178.882C230.183 178.717 229.853 178.168 229.441 177.013C228.645 174.828 228.191 171.186 229.057 171.681C229.359 171.846 229.592 172.121 229.771 172.396Z" fill="#FF9D6F"/>
<path d="M237.547 205.283V205.297L237.533 205.283H237.547Z" fill="#BB45FF"/>
<path d="M237.176 205.05C237.299 205.132 237.423 205.214 237.547 205.297C237.464 205.242 237.382 205.201 237.313 205.146C237.258 205.105 237.217 205.077 237.176 205.05Z" fill="#BB45FF"/>
<path d="M239.456 206.41C239.388 206.383 239.333 206.341 239.264 206.314C239.086 206.218 238.921 206.121 238.742 206.025C238.577 205.929 238.412 205.833 238.248 205.737C238.206 205.709 238.165 205.682 238.11 205.654C237.959 205.558 237.794 205.462 237.643 205.366C237.602 205.338 237.575 205.324 237.533 205.297C237.451 205.242 237.369 205.187 237.286 205.132L238.632 200.074L238.976 198.769L239.319 200.473L240.638 207.028C240.596 207.015 240.555 206.987 240.528 206.974C240.445 206.932 240.377 206.891 240.294 206.864C240.198 206.809 240.102 206.767 240.006 206.712C239.937 206.671 239.855 206.644 239.786 206.602C239.676 206.534 239.566 206.479 239.456 206.41Z" fill="#001030"/>
<path d="M240.526 206.974L240.677 207.042C240.664 207.042 240.664 207.029 240.65 207.029L240.526 206.974Z" fill="#BB45FF"/>
<path d="M240.526 206.974L240.649 207.028C240.608 207.015 240.567 206.987 240.526 206.974Z" fill="#BB45FF"/>
<path d="M241.529 201.325L245.801 196.982C245.911 197.12 246.034 197.257 246.144 197.408L243.177 208.059C242.957 207.991 242.751 207.908 242.559 207.839C242.353 207.757 242.161 207.688 241.968 207.606C241.913 207.592 241.872 207.564 241.817 207.551C241.666 207.482 241.515 207.427 241.364 207.358C241.295 207.331 241.24 207.303 241.172 207.276C241.034 207.207 240.897 207.152 240.746 207.083C240.705 207.07 240.677 207.042 240.636 207.029L239.317 200.473L240.746 199.662L241.529 201.325Z" fill="#C5C5C5"/>
<path d="M244.112 194.605L238.961 195.347L233.233 187.884L233.123 187.953L233.425 186.908C234.964 189.025 236.983 191.416 238.095 192.337C238.494 192.846 238.494 192.846 238.494 192.846C238.494 192.846 238.494 192.846 238.892 192.791C240.032 193.162 242.175 193.107 243.741 192.736L244.112 194.605Z" fill="#FF9D6F"/>
<path d="M229.318 168.767V168.74C229.304 168.396 229.276 168.039 229.276 167.695C229.276 167.654 229.276 167.627 229.276 167.599C229.427 168.809 229.579 170.073 229.716 171.2L229.675 171.117C229.675 171.145 229.716 171.612 229.798 172.423C229.798 172.409 229.785 172.409 229.785 172.396C229.688 171.626 229.592 170.925 229.524 170.348C229.427 169.826 229.359 169.29 229.318 168.767Z" fill="#89543C"/>
<path d="M246.364 183.349C246.158 184.297 245.87 185.424 245.567 186.139C245.609 185.191 246.089 183.967 246.364 183.349Z" fill="#89543C"/>
<path d="M237.175 169.345C239.305 171.942 245.527 177.742 245.843 178.058L246.667 179.089L246.557 182.401C246.502 182.676 246.433 183.005 246.365 183.363C246.104 183.981 245.623 185.191 245.568 186.153C245.499 186.317 245.417 186.455 245.348 186.565C244.895 187.238 244.016 187.417 242.931 186.785C242.326 186.441 241.653 185.836 240.953 184.943C239.675 183.308 239.071 182.813 238.796 182.648C238.659 182.566 238.604 182.579 238.604 182.579L238.439 182.483C238.439 182.483 238.398 182.414 238.247 182.332C237.972 182.181 237.368 181.975 236.077 182.126C235.376 182.208 234.703 182.03 234.099 181.686C233.014 181.054 232.148 179.886 231.695 178.676C231.2 177.357 230.747 174.691 230.527 173.248L230.747 172.478C230.884 172.217 233.384 167.146 233.742 163.806C233.796 163.943 235.046 166.733 237.175 169.345Z" fill="#FF9D6F"/>
<path d="M241.955 162.39C245.045 165.4 248.713 173.674 248.836 175.117C248.946 176.56 247.861 182.208 247.806 182.511L247.243 182.717L246.529 182.978L246.542 182.401L246.652 179.088L245.828 178.058C245.498 177.755 239.29 171.956 237.161 169.345C235.032 166.747 233.782 163.957 233.727 163.806C233.356 167.146 230.856 172.217 230.732 172.478L230.513 173.248L230.128 174.594C230.114 174.526 229.95 173.11 229.716 171.2C229.579 170.073 229.428 168.795 229.276 167.599C229.015 165.441 228.782 163.517 228.727 163.105C228.617 162.074 229.977 160.398 230.046 160.315C231.694 159.257 237.051 159.326 240.485 161.305C241.034 161.607 241.529 161.978 241.955 162.39Z" fill="#1E1526"/>
<path d="M223.316 189.671C223.261 189.561 223.193 189.465 223.138 189.355C223.193 189.465 223.248 189.575 223.316 189.671Z" fill="#BB45FF"/>
<path d="M222.945 189.011L222.986 189.079C222.973 189.066 222.959 189.038 222.945 189.011Z" fill="#BB45FF"/>
<path d="M222.986 189.093L222.945 189.011C222.959 189.038 222.973 189.066 222.986 189.093Z" fill="#BB45FF"/>
<path d="M232.106 188.585C231.406 188.64 230.348 188.709 229.181 188.791C227.23 188.75 224.483 188.75 222.944 188.997C219.304 182.414 217.079 175.117 217.107 168.492C217.148 154.708 226.9 149.142 238.892 156.069C250.883 162.995 260.581 179.789 260.539 193.574C260.526 200.198 258.259 204.912 254.592 207.276C252.051 203.923 246.446 197.697 246.158 197.367C246.034 197.243 245.911 197.092 245.801 196.955L245.993 196.762L244.729 194.495L244.125 194.577L243.727 192.694C244.62 192.488 245.334 192.172 245.567 191.76C245.897 191.128 246.213 189.685 246.488 188.063C246.749 188.118 247.037 187.912 247.394 187.335C248.191 186.07 248.672 182.964 247.806 182.456C247.861 182.153 248.946 176.505 248.836 175.062C248.713 173.619 245.059 165.345 241.955 162.336C241.529 161.923 241.035 161.552 240.485 161.25C237.065 159.271 231.694 159.202 230.046 160.26C229.977 160.343 228.617 162.019 228.727 163.05C228.782 163.462 229.016 165.387 229.277 167.544C229.277 167.998 229.29 168.355 229.304 168.699C229.345 169.248 229.414 169.784 229.496 170.307C229.565 170.884 229.661 171.585 229.757 172.354C229.565 172.079 229.332 171.818 229.043 171.653C228.178 171.159 228.645 174.801 229.428 176.986C229.84 178.14 230.169 178.69 230.458 178.855C230.788 180.806 231.09 182.607 231.419 183.61C231.653 184.311 232.436 185.534 233.397 186.867L233.095 187.912L232.106 188.585Z" fill="url(#paint11_linear_110_9230)"/>
<path d="M197.396 114.866L197.025 246.266L280.086 294.243L280.457 162.844L197.396 114.866ZM238.878 156.096C250.87 163.023 260.567 179.817 260.526 193.601C260.485 207.193 251.007 212.787 239.263 206.314C239.085 206.218 238.92 206.122 238.741 206.025C238.329 205.792 237.931 205.544 237.532 205.283C237.45 205.228 237.368 205.187 237.299 205.132C237.271 205.104 237.23 205.091 237.203 205.063C225.926 197.642 217.066 181.7 217.107 168.506C217.135 154.735 226.887 149.156 238.878 156.096ZM258.342 230.997L258.328 234.062L219.195 211.454L219.209 208.389L258.342 230.997ZM229.785 210.822L229.799 207.757L247.807 218.161L247.793 221.225L229.785 210.822ZM205.061 216.058L222.89 226.365V228.207L205.061 217.899V216.058ZM212.89 244.397C212.89 245.18 212.327 245.496 211.64 245.097L205.967 241.827C205.281 241.428 204.717 240.466 204.731 239.683L204.745 233.155C204.745 232.371 205.308 232.055 205.995 232.454L211.668 235.725C212.355 236.123 212.918 237.085 212.904 237.868L212.89 244.397ZM217.011 235.23L205.033 228.303V226.462L217.011 233.388V235.23ZM232.725 239.092L205.033 223.094V221.267L232.725 237.264V239.092ZM232.752 228.688L205.061 212.691V210.849L232.752 226.846V228.688ZM272.6 280.308C272.6 280.995 272.133 281.27 271.529 280.926L243.315 264.627C242.725 264.283 242.258 263.458 242.258 262.771L242.285 251.461C242.285 250.773 242.752 250.512 243.356 250.856L271.57 267.155C272.16 267.499 272.627 268.31 272.627 268.997L272.6 280.308ZM272.655 262.263C272.655 262.936 272.188 263.211 271.584 262.867L243.37 246.568C242.779 246.224 242.312 245.4 242.312 244.726L242.34 233.402C242.34 232.715 242.807 232.454 243.411 232.797L271.625 249.097C272.215 249.44 272.682 250.251 272.682 250.938L272.655 262.263Z" fill="white"/>
<path d="M205.062 217.899L222.891 228.193V226.352L205.062 216.058V217.899Z" fill="#BB45FF"/>
<path d="M224.47 191.595C224.415 191.499 224.346 191.402 224.291 191.306C224.346 191.402 224.401 191.499 224.47 191.595Z" fill="#BB45FF"/>
<path d="M224.648 191.87C224.593 191.774 224.525 191.677 224.47 191.595C224.525 191.691 224.58 191.787 224.648 191.87Z" fill="#BB45FF"/>
<path d="M228.563 197.216C228.453 197.078 228.33 196.941 228.22 196.804C228.33 196.955 228.453 197.092 228.563 197.216Z" fill="#BB45FF"/>
<path d="M235.418 203.813C235.267 203.703 235.116 203.593 234.979 203.469C235.116 203.579 235.267 203.689 235.418 203.813Z" fill="#BB45FF"/>
<path d="M243.617 208.211C243.48 208.169 243.329 208.114 243.191 208.073H243.178C243.315 208.114 243.466 208.156 243.617 208.211Z" fill="#BB45FF"/>
<path d="M238.974 195.787L238.988 195.842L238.823 195.938L238.974 195.787Z" fill="#7D7D7E"/>
<path d="M246.572 208.87C246.489 208.856 246.393 208.843 246.311 208.829C246.407 208.843 246.489 208.856 246.572 208.87Z" fill="#BB45FF"/>
<path d="M246.556 182.387L246.542 182.964L247.257 182.703C247.092 184.05 246.831 186.194 246.501 188.09C246.226 189.712 245.897 191.155 245.581 191.787C245.347 192.186 244.633 192.502 243.74 192.722C242.174 193.093 240.045 193.148 238.891 192.777C238.493 192.832 238.493 192.832 238.493 192.832C238.493 192.832 238.493 192.832 238.095 192.323C236.982 191.402 234.963 189.025 233.425 186.895C232.463 185.561 231.68 184.338 231.447 183.637C231.131 182.634 230.815 180.834 230.554 178.91C230.224 176.518 229.949 173.921 229.812 172.423C229.73 171.626 229.688 171.145 229.688 171.117L229.73 171.2C229.963 173.11 230.128 174.512 230.142 174.594L230.526 173.248C230.746 174.691 231.199 177.357 231.694 178.676C232.147 179.886 233.013 181.054 234.098 181.686C234.702 182.029 235.375 182.208 236.076 182.126C237.367 181.974 237.971 182.181 238.246 182.332C238.383 182.414 238.438 182.483 238.438 182.483L238.603 182.579C238.603 182.579 238.644 182.565 238.795 182.648C239.07 182.799 239.674 183.308 240.952 184.943C241.652 185.836 242.325 186.441 242.93 186.785C244.015 187.417 244.88 187.238 245.347 186.565C245.416 186.455 245.498 186.317 245.567 186.152C245.883 185.452 246.158 184.311 246.364 183.363C246.432 182.991 246.501 182.662 246.556 182.387Z" fill="#1E1526"/>
<path d="M233.233 187.87L238.975 195.347L238.769 195.374L238.975 195.787L238.824 195.938L237.189 197.559L236.379 198.357L231.956 188.681L232.107 188.585L233.124 187.953L233.233 187.87Z" fill="#898989"/>
<path d="M247.615 208.98C247.519 208.98 247.409 208.966 247.312 208.953C247.422 208.966 247.519 208.966 247.615 208.98Z" fill="#BB45FF"/>
<path d="M249.071 208.994C248.948 208.994 248.81 209.008 248.673 209.008C248.81 208.994 248.934 208.994 249.071 208.994Z" fill="#BB45FF"/>
<path d="M251.24 208.692C251.172 208.705 251.089 208.719 251.021 208.746C251.089 208.733 251.172 208.719 251.24 208.692Z" fill="#BB45FF"/>
<path d="M251.625 208.595C251.556 208.609 251.488 208.637 251.419 208.65C251.488 208.637 251.556 208.623 251.625 208.595Z" fill="#BB45FF"/>
<path d="M252.683 208.252C252.629 208.279 252.574 208.293 252.505 208.32C252.574 208.307 252.629 208.279 252.683 208.252Z" fill="#BB45FF"/>
<path d="M244.112 194.605L244.73 194.508L245.994 196.79L245.801 196.982L241.529 201.325L240.76 199.662L238.988 195.842L238.975 195.787L238.769 195.374L238.975 195.347L244.112 194.605Z" fill="#898989"/>
<path d="M252.876 208.183C252.821 208.21 252.752 208.238 252.684 208.252C252.752 208.238 252.807 208.21 252.876 208.183Z" fill="#BB45FF"/>
<path d="M253.054 208.114C252.999 208.142 252.944 208.169 252.875 208.183C252.93 208.155 252.985 208.128 253.054 208.114Z" fill="#BB45FF"/>
<path d="M253.233 208.032C253.165 208.059 253.11 208.087 253.041 208.114C253.11 208.087 253.178 208.059 253.233 208.032Z" fill="#BB45FF"/>
<path d="M253.714 207.798C253.604 207.853 253.508 207.908 253.398 207.949C253.508 207.908 253.618 207.853 253.714 207.798Z" fill="#BB45FF"/>
<path d="M246.144 197.408C246.446 197.711 252.05 203.936 254.591 207.29C254.578 207.303 254.564 207.303 254.55 207.317C254.495 207.345 254.44 207.386 254.385 207.413C254.33 207.441 254.276 207.482 254.221 207.51C254.166 207.537 254.111 207.578 254.056 207.606C254.001 207.647 253.932 207.675 253.863 207.702C253.809 207.73 253.767 207.757 253.712 207.784C253.602 207.839 253.506 207.894 253.396 207.936C253.341 207.963 253.287 207.991 253.232 208.004C253.163 208.032 253.108 208.059 253.039 208.087C252.984 208.114 252.929 208.142 252.861 208.156C252.806 208.183 252.737 208.211 252.668 208.224C252.613 208.252 252.559 208.266 252.49 208.293C252.407 208.32 252.339 208.348 252.256 208.375C252.174 208.403 252.105 208.43 252.023 208.458C251.94 208.485 251.858 208.513 251.776 208.527C251.721 208.54 251.652 208.554 251.597 208.582C251.528 208.595 251.46 208.623 251.391 208.637C251.336 208.65 251.267 208.664 251.212 208.678C251.144 208.692 251.061 208.705 250.993 208.733C250.938 208.747 250.883 208.76 250.828 208.774C250.704 208.801 250.581 208.815 250.457 208.843C250.402 208.856 250.347 208.856 250.306 208.87C250.223 208.884 250.141 208.898 250.059 208.898C249.99 208.911 249.935 208.911 249.866 208.925C249.798 208.939 249.715 208.939 249.647 208.953C249.578 208.953 249.523 208.966 249.454 208.966C249.372 208.966 249.289 208.98 249.207 208.98C249.152 208.98 249.097 208.994 249.042 208.994C248.919 208.994 248.781 209.008 248.644 209.008C248.589 209.008 248.52 209.008 248.465 209.008C248.383 209.008 248.3 209.008 248.218 209.008C248.149 209.008 248.094 209.008 248.026 209.008C247.943 209.008 247.861 209.008 247.778 208.994C247.71 208.994 247.655 208.994 247.586 208.98C247.49 208.98 247.38 208.966 247.284 208.953C247.215 208.953 247.147 208.939 247.092 208.939C246.968 208.925 246.858 208.911 246.735 208.898C246.666 208.884 246.611 208.884 246.542 208.87C246.46 208.856 246.364 208.843 246.281 208.829C246.213 208.815 246.144 208.815 246.089 208.801C245.993 208.788 245.91 208.774 245.814 208.76C245.746 208.747 245.691 208.733 245.622 208.733C245.485 208.705 245.333 208.678 245.182 208.65C245.127 208.637 245.086 208.623 245.031 208.623C244.921 208.595 244.825 208.568 244.715 208.554C244.647 208.54 244.578 208.527 244.523 208.499C244.427 208.472 244.345 208.458 244.248 208.43C244.18 208.417 244.111 208.389 244.042 208.375C243.946 208.348 243.85 208.32 243.74 208.293C243.685 208.279 243.617 208.252 243.562 208.238C243.424 208.197 243.273 208.142 243.136 208.101L246.144 197.408Z" fill="#001030"/>
<path d="M254.577 207.303C254.564 207.317 254.55 207.317 254.536 207.331C254.55 207.317 254.564 207.303 254.577 207.303Z" fill="#BB45FF"/>
<path d="M247.808 182.511C248.673 183.019 248.206 186.111 247.396 187.389C247.039 187.967 246.737 188.173 246.489 188.118C246.819 186.221 247.094 184.077 247.245 182.731L247.808 182.511Z" fill="#FF9D6F"/>
<path d="M288.234 309.897C289.058 310.378 289.717 311.519 289.717 312.467C289.717 313.415 289.044 313.786 288.234 313.319C287.41 312.838 286.75 311.697 286.75 310.749C286.736 309.801 287.41 309.416 288.234 309.897Z" fill="url(#paint12_linear_110_9230)"/>
<path d="M208.401 259.748L299.91 312.604L299.882 324.561L280.24 313.209C278.715 312.329 277.245 310.804 276.133 308.949L273.413 304.413C272.383 302.709 271.037 301.307 269.622 300.483L208.401 265.121V259.748ZM295.5 317.524C296.324 317.992 296.984 317.621 296.984 316.672C296.984 315.724 296.324 314.583 295.5 314.102C294.676 313.621 294.003 314.006 294.003 314.954C294.017 315.903 294.676 317.043 295.5 317.524ZM280.94 309.1C281.764 309.581 282.438 309.196 282.438 308.248C282.438 307.299 281.778 306.159 280.954 305.678C280.13 305.197 279.471 305.581 279.471 306.53C279.457 307.492 280.116 308.632 280.94 309.1ZM288.22 313.305C289.044 313.786 289.704 313.401 289.704 312.453C289.704 311.505 289.044 310.364 288.22 309.883C287.396 309.402 286.723 309.787 286.723 310.735C286.723 311.683 287.396 312.838 288.22 313.305Z" fill="#167B68"/>
<path d="M295.513 314.102C296.337 314.57 296.996 315.724 296.996 316.672C296.996 317.621 296.323 317.992 295.513 317.524C294.689 317.043 294.03 315.903 294.03 314.954C294.016 314.006 294.689 313.621 295.513 314.102Z" fill="url(#paint13_linear_110_9230)"/>
<path d="M280.939 305.691C281.763 306.172 282.422 307.313 282.422 308.261C282.422 309.21 281.749 309.581 280.925 309.113C280.101 308.632 279.441 307.492 279.441 306.543C279.455 305.595 280.114 305.21 280.939 305.691Z" fill="url(#paint14_linear_110_9230)"/>
<path d="M208.401 259.748L208.387 265.121L269.608 300.483C271.023 301.294 272.369 302.709 273.399 304.413L276.119 308.949C277.231 310.804 278.701 312.329 280.226 313.209L299.868 324.561L299.731 372.649L208.236 319.806L208.401 259.748Z" fill="url(#paint15_linear_110_9230)"/>
<path d="M230.873 296.841L236.271 299.905C236.298 306.365 231.752 309.017 226.106 305.815C225.886 305.691 225.667 305.554 225.447 305.417C220.351 302.173 216.175 295.068 215.832 289.048C215.42 282.025 220.117 279.057 225.983 282.383L226.01 288.567C223.277 287.014 221.093 288.361 221.203 291.577C221.312 294.491 223.387 297.995 225.873 299.534C225.928 299.576 225.996 299.603 226.051 299.644C228.73 301.142 230.886 299.892 230.873 296.841Z" fill="white"/>
<path d="M225.97 282.369C231.629 285.571 236.23 293.419 236.258 299.892L230.86 296.827C230.846 293.762 228.662 290.065 225.983 288.554L225.97 282.369Z" fill="url(#paint16_linear_110_9230)"/>
<path d="M267.835 317.593L255.185 310.419L255.336 341.534L267.986 348.708L267.835 317.593Z" fill="white"/>
<path d="M230.008 318.747L230.049 327.186L217.399 320.012L217.357 311.573L230.008 318.747Z" fill="white"/>
<path d="M249.143 322.17L249.225 338.057L236.575 330.883L236.492 314.996L249.143 322.17Z" fill="white"/>
<path d="M285.735 322.293L285.927 358.878L273.29 351.704L273.084 315.119L285.735 322.293Z" fill="white"/>
<path d="M52.5803 452.689C81.2178 452.689 104.433 438.187 104.433 420.297C104.433 402.406 81.2178 387.904 52.5803 387.904C23.9428 387.904 0.727539 402.406 0.727539 420.297C0.727539 438.187 23.9428 452.689 52.5803 452.689Z" fill="#BB45FF"/>
<path d="M78.4462 386.667C66.6334 379.836 51.0157 379.19 38.0903 382.846C31.7856 384.633 25.0687 387.862 21.2364 393.415C18.764 396.988 18.7365 400.699 18.7228 404.808C18.709 408.409 18.709 412.009 18.6953 415.596C18.709 409.645 23.0908 405.11 27.7472 402.059C32.5822 398.884 38.365 397.098 44.0379 396.177C55.8508 394.267 69.5042 395.559 79.7511 402.183C84.4213 405.193 88.7344 409.907 88.7206 415.802C88.7344 411.432 88.7481 407.048 88.7618 402.678C88.7618 400.424 88.6382 398.28 87.7316 396.163C85.9597 391.985 82.2922 388.879 78.4462 386.667Z" fill="url(#paint17_linear_110_9230)"/>
<path d="M96.7694 401.894C96.4123 408.354 91.852 413.562 86.756 417.081C80.5749 421.341 73.1712 423.76 65.8226 424.969C51.2351 427.374 34.2713 425.78 21.6344 417.534C15.9477 413.823 10.7281 408.065 10.7418 400.891C10.7281 405.907 10.577 410.924 10.7006 415.94C11.0028 427.539 23.3788 434.411 33.0489 437.531C44.9441 441.351 58.3228 441.681 70.4378 438.712C80.5336 436.252 93.5415 430.521 96.3161 419.321C97.0579 416.325 96.7694 413.013 96.7831 409.948C96.7969 407.007 96.7969 404.066 96.8106 401.125C96.7969 401.386 96.7831 401.633 96.7694 401.894Z" fill="url(#paint18_linear_110_9230)"/>
<path d="M84.0914 383.382C100.945 393.126 101.041 408.903 84.2837 418.647C67.5397 428.391 40.2878 428.391 23.4339 418.647C6.58004 408.903 6.48389 393.112 23.2279 383.382C39.9856 373.638 67.2375 373.638 84.0914 383.382ZM29.0793 415.363C42.8015 423.293 64.9711 423.279 78.5971 415.363C92.2367 407.433 92.1681 394.583 78.446 386.653C64.7239 378.723 42.5405 378.723 28.9145 386.653C15.2886 394.583 15.3572 407.433 29.0793 415.363Z" fill="#DCDCDC"/>
<path d="M84.0914 383.382C100.945 393.126 101.041 408.903 84.2837 418.647C67.5397 428.391 40.2878 428.391 23.4339 418.647C6.58004 408.903 6.48389 393.112 23.2279 383.382C39.9856 373.638 67.2375 373.638 84.0914 383.382ZM29.0793 415.363C42.8015 423.293 64.9711 423.279 78.5971 415.363C92.2367 407.433 92.1681 394.583 78.446 386.653C64.7239 378.723 42.5405 378.723 28.9145 386.653C15.2886 394.583 15.3572 407.433 29.0793 415.363Z" fill="#F2F8FD"/>
<path d="M28.9154 391.161C23.1189 394.528 19.8223 398.802 18.9844 403.2C19.836 407.639 23.2013 411.954 29.094 415.349C42.8161 423.279 64.9857 423.265 78.6117 415.349C84.4219 411.968 87.7185 407.694 88.5564 403.296C87.7048 398.857 84.3395 394.555 78.4606 391.147C64.7247 383.245 42.5551 383.245 28.9154 391.161Z" fill="url(#paint19_linear_110_9230)"/>
<path d="M55.5049 174.374V177.494C55.5049 179.336 57.4966 180.476 59.0762 179.556L73.7873 171.076C74.529 170.65 74.9823 169.867 74.9823 169.015V165.895C74.9823 164.053 73.0043 162.913 71.411 163.833L56.6999 172.313C55.9582 172.739 55.5049 173.522 55.5049 174.374Z" fill="url(#paint20_linear_110_9230)"/>
<path d="M8.92676 216.539V219.659C8.92676 221.486 10.9047 222.641 12.4981 221.734L73.7874 186.579C74.5291 186.152 74.9824 185.369 74.9824 184.503V181.384C74.9824 179.556 73.0044 178.401 71.4111 179.308L10.1218 214.477C9.38004 214.903 8.92676 215.687 8.92676 216.539Z" fill="url(#paint21_linear_110_9230)"/>
<g opacity="0.53">
<path d="M34.1865 233.072V236.192C34.1865 238.02 36.1645 239.174 37.7578 238.267L73.7732 217.611C74.5149 217.185 74.9682 216.401 74.9682 215.536V212.416C74.9682 210.588 72.9903 209.434 71.3969 210.341L35.3815 230.997C34.6398 231.423 34.1865 232.206 34.1865 233.072Z" fill="url(#paint22_linear_110_9230)"/>
</g>
<path d="M18.4316 226.599V229.719C18.4316 231.546 20.4096 232.701 22.003 231.794L73.7871 202.095C74.5288 201.669 74.9821 200.885 74.9821 200.019V196.9C74.9821 195.072 73.0041 193.917 71.4108 194.824L19.6267 224.524C18.8849 224.963 18.4316 225.747 18.4316 226.599Z" fill="url(#paint23_linear_110_9230)"/>
<path d="M57.374 281.723C57.9509 281.228 58.5416 280.679 59.1185 280.088C58.5416 280.679 57.9647 281.228 57.374 281.723Z" fill="#757777"/>
<path d="M60.2725 278.823L62.2504 283.427C61.8796 283.853 61.495 284.279 61.0966 284.678C59.9428 285.874 58.7615 286.932 57.594 287.853C56.5638 288.663 55.5199 289.364 54.4897 289.955C53.5419 290.505 52.6079 290.959 51.6738 291.33L52.5117 284.76C53.1573 284.499 53.8029 284.183 54.4622 283.798C55.4375 283.235 56.4127 282.548 57.3879 281.723C57.9648 281.228 58.5555 280.679 59.1324 280.088C59.517 279.675 59.9016 279.263 60.2725 278.823Z" fill="#BB45FF"/>
<g opacity="0.56">
<path d="M71.26 251.722C74.8039 259.954 70.7655 273.848 62.2493 283.441L60.2714 278.837C66.0542 272.089 68.7464 262.565 66.2877 256.862C64.296 252.216 59.4609 251.474 54.3512 254.415C53.115 255.13 51.865 256.064 50.6288 257.205C50.3129 257.507 49.997 257.81 49.681 258.14C43.1153 264.901 39.9011 275.319 42.5109 281.38C44.2554 285.434 48.1564 286.52 52.5106 284.774L51.6727 291.343C52.593 290.972 53.5408 290.519 54.4886 289.969C55.5188 289.378 56.5627 288.677 57.5929 287.866C56.549 288.677 55.505 289.392 54.4611 289.983C47.2223 294.161 40.3681 293.103 37.5385 286.506C33.8436 277.902 38.3902 263.142 47.7031 253.536C48.019 253.22 48.3212 252.917 48.6371 252.615C48.7058 252.532 48.7882 252.464 48.8706 252.395C50.6975 250.677 52.5381 249.303 54.3375 248.258C61.5763 244.067 68.4305 245.125 71.26 251.722Z" fill="url(#paint24_linear_110_9230)"/>
</g>
<g opacity="0.72">
<path d="M54.8733 299.864C62.1121 295.686 68.9663 296.745 71.7958 303.341C75.3397 311.587 71.3151 325.468 62.7851 335.061L60.8072 330.457C66.59 323.709 69.2822 314.185 66.8235 308.481C64.8318 303.836 59.9968 303.08 54.887 306.035C53.6371 306.75 52.3871 307.698 51.1371 308.852L49.1592 304.248C51.0547 302.407 52.9777 300.95 54.8733 299.864Z" fill="url(#paint25_linear_110_9230)"/>
</g>
<path d="M49.1732 304.221L51.1512 308.825C50.8353 309.113 50.5331 309.416 50.2172 309.746C43.6514 316.521 40.4372 326.911 43.0471 332.985C43.1432 333.205 43.2394 333.412 43.3492 333.618C43.3905 333.686 43.4317 333.769 43.4729 333.838C45.3684 337.177 49.0084 338.002 53.0467 336.38C53.6786 336.133 54.3242 335.817 54.9698 335.446C55.1483 335.349 55.3132 335.239 55.4917 335.129C55.8077 334.937 56.0412 334.772 56.2884 334.607L56.3983 334.525C56.9203 334.154 57.4285 333.755 57.9504 333.315C58.0191 333.26 58.0741 333.205 58.1427 333.15C58.335 332.985 58.5273 332.807 58.7196 332.628C58.7883 332.559 58.857 332.504 58.9257 332.436C59.1729 332.202 59.4202 331.955 59.6674 331.707C60.0658 331.295 60.4504 330.869 60.8212 330.443L62.7992 335.047C62.4283 335.473 62.0437 335.885 61.6454 336.298C61.2882 336.655 60.9449 336.999 60.5877 337.342C60.4916 337.438 60.3954 337.535 60.2855 337.631C60.0108 337.878 59.7361 338.125 59.4751 338.359C59.379 338.442 59.2966 338.524 59.2004 338.593C58.4724 339.211 57.7307 339.788 56.9889 340.311C56.934 340.352 56.879 340.393 56.8104 340.434C56.4807 340.668 56.1373 340.888 55.8077 341.094L55.684 341.163C55.4505 341.3 55.2307 341.438 54.9972 341.575C54.4478 341.891 53.9121 342.18 53.3764 342.427C52.9643 342.62 52.5935 342.784 52.2089 342.936C46.0552 345.382 40.5471 343.843 38.0747 338.098C34.3797 329.495 38.9263 314.734 48.2392 305.128C48.5551 304.826 48.8573 304.523 49.1732 304.221Z" fill="url(#paint26_linear_110_9230)"/>
<path opacity="0.57" d="M53.514 410.608C26.6742 410.608 4.86164 399.393 4.8067 385.54C4.76549 371.632 26.6742 360.252 53.6513 360.17C53.7475 360.17 53.8436 360.17 53.9535 360.17C80.7934 360.17 102.606 371.384 102.661 385.238C102.702 399.146 80.7934 410.525 53.8162 410.608C53.7063 410.608 53.6101 410.608 53.514 410.608ZM53.9535 360.967C53.8574 360.967 53.7612 360.967 53.6513 360.967C27.1137 361.049 5.57591 372.071 5.60338 385.526C5.64458 398.995 27.2785 409.879 53.7887 409.797C80.3263 409.714 101.864 398.692 101.837 385.238C101.809 371.824 80.3401 360.967 53.9535 360.967Z" fill="#F9FBFC"/>
<path opacity="0.57" d="M98.1826 400.067C98.3337 399.297 98.4162 398.514 98.4024 397.73C98.4024 396.974 98.32 396.218 98.1826 395.476V237.387H9.05078V400.067H9.24308C11.3309 411.707 30.4787 420.791 53.7884 420.709C76.9333 420.64 95.93 411.597 98.1826 400.067Z" fill="url(#paint27_linear_110_9230)"/>
<path opacity="0.57" d="M98.4035 393.566C98.4447 406.182 78.4728 416.476 53.7895 416.558C29.1199 416.641 9.07936 406.471 9.03815 393.841C8.99694 381.224 28.9689 370.931 53.6522 370.848C78.3355 370.78 98.376 380.95 98.4035 393.566Z" fill="url(#paint28_linear_110_9230)"/>
<path d="M236.27 8.5896L238.893 17.6189L245.912 22.2504L240.514 24.3531L242.19 33.19L236.229 25.4663L230.24 26.2772L231.957 19.4056L226.572 11.0771L233.591 14.5679L236.27 8.5896Z" fill="url(#paint29_linear_110_9230)"/>
<path d="M260.705 22.704L263.343 31.747L270.362 36.3785L264.95 38.4675L266.625 47.3044L260.664 39.5807L254.675 40.4053L256.392 33.5199L251.008 25.2053L258.041 28.6823L260.705 22.704Z" fill="url(#paint30_linear_110_9230)"/>
<path d="M285.156 36.832L287.779 45.8614L294.812 50.4928L289.4 52.5956L291.076 61.4325L285.114 53.7088L279.112 54.5196L280.829 47.6342L275.458 39.3196L282.491 42.7966L285.156 36.832Z" fill="url(#paint31_linear_110_9230)"/>
<path d="M309.593 50.9463L312.23 59.9894L319.249 64.6071L313.837 66.7098L315.513 75.5467L309.552 67.823L303.563 68.6476L305.28 61.7622L299.909 53.4338L306.928 56.9246L309.593 50.9463Z" fill="url(#paint32_linear_110_9230)"/>
<path d="M334.041 65.0607L336.665 74.1037L343.684 78.7352L338.272 80.8242L339.948 89.6611L333.986 81.9374L327.997 82.762L329.714 75.8766L324.344 67.5619L331.376 71.039L334.041 65.0607Z" fill="url(#paint33_linear_110_9230)"/>
<path d="M198.346 460.743L146.974 490.607C145.161 491.652 142.936 491.665 141.122 490.621L89.3932 460.743C88.2257 460.07 88.2257 458.379 89.3932 457.706L140.6 427.924C142.51 426.811 144.872 426.811 146.782 427.91L198.346 457.692C199.513 458.379 199.513 460.07 198.346 460.743Z" fill="url(#paint34_linear_110_9230)"/>
<path d="M207.851 442.726L156.479 472.603C154.666 473.648 152.44 473.662 150.627 472.617L98.8981 442.726C97.7306 442.052 97.7306 440.362 98.8981 439.688L150.105 409.907C152.015 408.793 154.377 408.793 156.286 409.893L207.851 439.675C209.018 440.348 209.018 442.038 207.851 442.726Z" fill="url(#paint35_linear_110_9230)"/>
<path d="M222.356 410.539L222.342 417.136L165.421 450.229L165.435 443.633L222.356 410.539Z" fill="url(#paint36_linear_110_9230)"/>
<path d="M165.434 443.633L165.42 450.229L108.142 417.149L108.155 410.553L165.434 443.633Z" fill="url(#paint37_linear_110_9230)"/>
<path d="M222.354 410.539L165.433 443.633L108.154 410.553L165.076 377.459L222.354 410.539Z" fill="#F2F8FD"/>
<path d="M148.345 405.495C148.345 405.495 147.726 410.03 148.551 411.886C149.375 413.535 152.671 414.772 154.938 413.123C157.204 411.473 161.119 407.35 161.119 407.35C161.119 407.35 167.712 403.846 168.33 401.991C168.948 400.135 166.682 398.486 164.828 398.898C162.973 399.311 157.616 402.609 155.144 402.609C152.671 402.609 149.169 403.227 148.345 405.495Z" fill="#001D59"/>
<path d="M141.547 308.949C141.547 308.949 147.316 404.162 148.03 406.924C148.744 409.687 156.23 411.267 157.618 406.883C158.497 404.107 160.667 315.985 160.667 315.985L141.547 308.949Z" fill="url(#paint38_linear_110_9230)"/>
<path d="M166.505 413.26C166.175 413.535 165.997 413.947 165.997 414.373C165.983 415.679 166.038 418.606 166.78 419.733C167.741 421.217 170.777 422.798 173.936 421.066C176.601 419.609 184.815 413.466 186.491 412.119C187.507 411.295 187.947 410.278 188.153 409.494C188.331 408.793 187.974 408.065 187.315 407.763C186.147 407.241 184.156 406.595 182.384 407.199C179.664 408.12 176.244 411.061 172.535 410.91C169.747 410.786 167.467 412.435 166.505 413.26Z" fill="#001D59"/>
<path d="M179.237 312.082C178.825 308.124 174.086 306.846 169.732 308.193C161.408 307.739 148.537 308.097 148.084 314.556C147.411 324.121 151.889 330.938 156.216 335.583C159.416 339.019 161.532 345.574 162.424 348.777C163.18 374.037 164.856 409.646 165.9 413.054C167.575 418.551 175.858 418.304 176.229 412.944C177.918 394.872 179.237 312.082 179.237 312.082Z" fill="url(#paint39_linear_110_9230)"/>
<path d="M179.869 255.075C174.498 246.444 162.823 243.902 162.823 243.902C148.496 240.974 143.936 246.183 143.936 246.183C143.936 246.183 139.266 251.68 139.266 259.102C139.266 264.187 139.843 283.524 140.213 295.178C140.062 303.259 139.856 312.027 139.65 314.089C139.252 318.102 152.864 329.715 177.712 323.31C180.514 321.702 181.723 319.71 181.723 319.71L181.998 289.667C182.108 287.99 182.218 286.245 182.341 284.362C183.577 264.558 179.869 255.075 179.869 255.075Z" fill="url(#paint40_linear_110_9230)"/>
<path d="M225.595 262.18L226.295 258.676L226.501 254.072C226.501 254.072 227.298 253.165 228.205 253.769C229.111 254.374 229.111 255.776 229.111 255.776L230.21 257.178L225.595 262.18Z" fill="#FF7C40"/>
<path d="M233.701 254.512C233.701 254.512 235.981 257.769 236.38 259.968C236.778 262.167 233.783 266.564 232.176 267.774C230.583 268.969 226.778 269.368 226.778 269.368C226.778 269.368 207.383 282.369 204.183 282.575C200.982 282.781 196.381 280.981 196.779 275.772C196.779 275.772 220.583 265.163 223.784 263.362C226.984 261.562 229.388 254.951 230.583 253.563C230.583 253.563 233.028 250.306 233.481 249.921C233.935 249.55 236.489 248.726 236.489 248.726C236.489 248.726 238.44 248.052 238.673 248.121C238.893 248.19 239.127 249.468 238 250.306C236.874 251.131 234.841 251.804 234.841 251.804L233.701 254.512Z" fill="#FF9D6F"/>
<path d="M151.643 233.443C151.643 233.443 152.879 240.658 151.643 243.957C151.437 245.606 158.648 251.172 165.035 249.729C168.744 248.904 168.538 247.049 168.538 247.049C168.538 247.049 165.448 241.895 165.86 236.948C166.272 232 155.97 232.412 151.643 233.443Z" fill="#FF7C40"/>
<path d="M175.312 222.696C177.396 213.541 171.669 204.43 162.519 202.344C153.37 200.259 144.263 205.99 142.179 215.144C140.095 224.298 145.822 233.41 154.972 235.495C164.121 237.58 173.228 231.85 175.312 222.696Z" fill="#FF9D6F"/>
<path d="M175.749 220.043C175.749 220.043 176.285 236.095 172.576 239.531C168.868 242.967 162.851 237.291 153.744 235.161C144.638 232.825 161.121 215.109 161.121 215.109L175.749 220.043Z" fill="#FF9D6F"/>
<path d="M168.921 204.541C168.921 204.541 175.033 205.874 176.901 215.178C176.105 219.164 170.514 215.975 168.385 221.294C166.256 226.613 164.924 228.207 164.924 228.207L163.591 227.671C163.591 227.671 163.591 223.41 161.723 223.41C159.855 223.41 159.333 228.468 160.391 230.598C161.449 232.728 163.852 233.787 163.852 233.787C163.852 233.787 161.188 238.308 159.869 238.844C158.537 239.38 153.756 238.308 151.888 237.511C150.02 236.714 146.573 232.989 143.908 228.729C141.243 224.469 138.853 217.02 140.446 211.962C142.04 206.905 145.762 205.572 145.762 205.572C145.762 205.572 147.891 202.644 151.614 201.311C155.364 200.019 162.273 199.497 168.921 204.541Z" fill="#1A1A1A"/>
<path d="M171.848 247.475L167.411 244.987C167.411 244.987 156.065 243.929 151.986 241.263L149.856 244.273C149.856 244.273 152.7 249.77 159.966 250.485C167.232 251.199 170.598 248.355 170.598 248.355L171.848 247.475Z" fill="white"/>
<path d="M219.579 264.489L223.178 262.991C223.178 262.991 227.889 264.791 226.681 270.206L223.576 272.213L219.579 264.489Z" fill="white"/>
<path d="M171.849 247.475C171.849 247.475 179.72 252.368 182.728 254.566C185.736 256.765 193.346 275.003 193.346 275.003L220.392 263.582C220.392 263.582 225.996 267.389 224.197 272.598C224.197 272.598 198.758 289.227 192.343 290.436C185.928 291.632 170.709 266.386 170.709 266.386C170.709 266.386 162.165 259.816 171.849 247.475Z" fill="url(#paint41_linear_110_9230)"/>
<path d="M164.197 159.93C169.197 149.403 181.766 144.923 192.287 149.912C202.809 154.914 207.287 167.489 202.301 178.017C197.782 187.554 187.026 192.131 177.219 189.19L171.422 193.189L170.846 186.029C162.796 180.202 159.774 169.262 164.197 159.93Z" fill="url(#paint42_linear_110_9230)"/>
<path d="M182.151 178.374L173.965 172.368L176.794 168.506L181.245 171.763L190.104 160.453L193.882 163.421L182.151 178.374Z" fill="white"/>
<defs>
<linearGradient id="paint0_linear_110_9230" x1="7.97157" y1="456.544" x2="292.981" y2="442.904" gradientUnits="userSpaceOnUse">
<stop stop-color="#E0E0E6" stop-opacity="0.96"/>
<stop offset="0.5751" stop-color="#282A57" stop-opacity="0"/>
<stop offset="0.7679" stop-color="#8788A1" stop-opacity="0.4537"/>
<stop offset="1" stop-color="white"/>
</linearGradient>
<linearGradient id="paint1_linear_110_9230" x1="23.2972" y1="455.81" x2="277.653" y2="443.637" gradientUnits="userSpaceOnUse">
<stop stop-color="#E0E0E6" stop-opacity="0.96"/>
<stop offset="0.5751" stop-color="#282A57" stop-opacity="0"/>
<stop offset="0.7679" stop-color="#8788A1" stop-opacity="0.4537"/>
<stop offset="1" stop-color="white"/>
</linearGradient>
<linearGradient id="paint2_linear_110_9230" x1="339.117" y1="359.83" x2="335.917" y2="371.504" gradientUnits="userSpaceOnUse">
<stop stop-color="#BB45FF"/>
<stop offset="1" stop-color="#1450BD"/>
</linearGradient>
<linearGradient id="paint3_linear_110_9230" x1="367.117" y1="381.63" x2="360.405" y2="413.209" gradientUnits="userSpaceOnUse">
<stop stop-color="#BB45FF"/>
<stop offset="1" stop-color="#1450BD"/>
</linearGradient>
<linearGradient id="paint4_linear_110_9230" x1="351.938" y1="409.217" x2="347.186" y2="430.023" gradientUnits="userSpaceOnUse">
<stop stop-color="#BB45FF"/>
<stop offset="1" stop-color="#1450BD"/>
</linearGradient>
<linearGradient id="paint5_linear_110_9230" x1="361.403" y1="395.855" x2="355.434" y2="423.384" gradientUnits="userSpaceOnUse">
<stop stop-color="#BB45FF"/>
<stop offset="1" stop-color="#1450BD"/>
</linearGradient>
<linearGradient id="paint6_linear_110_9230" x1="410.386" y1="215.882" x2="359.967" y2="232.526" gradientUnits="userSpaceOnUse">
<stop stop-color="#BB45FF"/>
<stop offset="1" stop-color="#1450BD"/>
</linearGradient>
<linearGradient id="paint7_linear_110_9230" x1="292.862" y1="101.748" x2="192.598" y2="345.435" gradientUnits="userSpaceOnUse">
<stop stop-color="#A200FF"/>
<stop offset="1" stop-color="#0C3C95"/>
</linearGradient>
<linearGradient id="paint8_linear_110_9230" x1="290.458" y1="109.656" x2="198.291" y2="333.677" gradientUnits="userSpaceOnUse">
<stop stop-color="#BB45FF"/>
<stop offset="1" stop-color="#1450BD"/>
</linearGradient>
<linearGradient id="paint9_linear_110_9230" x1="256.753" y1="291.468" x2="256.753" y2="78.0904" gradientUnits="userSpaceOnUse">
<stop stop-color="#49CFEC" stop-opacity="0"/>
<stop offset="1" stop-color="white"/>
</linearGradient>
<linearGradient id="paint10_linear_110_9230" x1="246.247" y1="295.973" x2="246.247" y2="82.5956" gradientUnits="userSpaceOnUse">
<stop stop-color="#49B5D8" stop-opacity="0"/>
<stop offset="1" stop-color="white"/>
</linearGradient>
<linearGradient id="paint11_linear_110_9230" x1="243.216" y1="165.914" x2="228.717" y2="201.552" gradientUnits="userSpaceOnUse">
<stop stop-color="#BB45FF"/>
<stop offset="1" stop-color="#1450BD"/>
</linearGradient>
<linearGradient id="paint12_linear_110_9230" x1="286.731" y1="311.604" x2="289.707" y2="311.604" gradientUnits="userSpaceOnUse">
<stop stop-color="#05CCFF"/>
<stop offset="0.2008" stop-color="#05C7FF"/>
<stop offset="0.4439" stop-color="#05B8FF"/>
<stop offset="0.7087" stop-color="#04A0FF"/>
<stop offset="0.9875" stop-color="#047EFF"/>
<stop offset="1" stop-color="#047CFF"/>
</linearGradient>
<linearGradient id="paint13_linear_110_9230" x1="294.012" y1="315.81" x2="296.988" y2="315.81" gradientUnits="userSpaceOnUse">
<stop stop-color="#BDF7A3"/>
<stop offset="1" stop-color="#009EE0"/>
</linearGradient>
<linearGradient id="paint14_linear_110_9230" x1="279.455" y1="307.399" x2="282.431" y2="307.399" gradientUnits="userSpaceOnUse">
<stop stop-color="#FFE900"/>
<stop offset="1" stop-color="#FF13BD"/>
</linearGradient>
<linearGradient id="paint15_linear_110_9230" x1="254.051" y1="225.89" x2="254.051" y2="368.204" gradientUnits="userSpaceOnUse">
<stop stop-color="#207DB1" stop-opacity="0"/>
<stop offset="1" stop-color="white"/>
</linearGradient>
<linearGradient id="paint16_linear_110_9230" x1="225.976" y1="291.133" x2="236.271" y2="291.133" gradientUnits="userSpaceOnUse">
<stop stop-color="#FFE900"/>
<stop offset="1" stop-color="#FF13BD"/>
</linearGradient>
<linearGradient id="paint17_linear_110_9230" x1="18.7026" y1="398.218" x2="88.7823" y2="398.218" gradientUnits="userSpaceOnUse">
<stop stop-color="#F38273"/>
<stop offset="1" stop-color="#FF2FCC"/>
</linearGradient>
<linearGradient id="paint18_linear_110_9230" x1="62.4562" y1="410.312" x2="57.9612" y2="440.15" gradientUnits="userSpaceOnUse">
<stop stop-color="#BB45FF"/>
<stop offset="1" stop-color="#1450BD"/>
</linearGradient>
<linearGradient id="paint19_linear_110_9230" x1="105.744" y1="351.254" x2="44.8801" y2="412.085" gradientUnits="userSpaceOnUse">
<stop stop-color="#6C20B1" stop-opacity="0"/>
<stop offset="0.0556" stop-color="#7933B8" stop-opacity="0.0556"/>
<stop offset="0.2483" stop-color="#A170CD" stop-opacity="0.2483"/>
<stop offset="0.4333" stop-color="#C3A3DF" stop-opacity="0.4333"/>
<stop offset="0.6058" stop-color="#DDCBED" stop-opacity="0.6058"/>
<stop offset="0.7629" stop-color="#F0E8F7" stop-opacity="0.7629"/>
<stop offset="0.8994" stop-color="#FBF9FD" stop-opacity="0.8994"/>
<stop offset="1" stop-color="white"/>
</linearGradient>
<linearGradient id="paint20_linear_110_9230" x1="67.2137" y1="167.383" x2="64.0134" y2="179.057" gradientUnits="userSpaceOnUse">
<stop stop-color="#BB45FF"/>
<stop offset="1" stop-color="#1450BD"/>
</linearGradient>
<linearGradient id="paint21_linear_110_9230" x1="48.636" y1="189.183" x2="41.9232" y2="220.762" gradientUnits="userSpaceOnUse">
<stop stop-color="#BB45FF"/>
<stop offset="1" stop-color="#1450BD"/>
</linearGradient>
<linearGradient id="paint22_linear_110_9230" x1="58.7024" y1="216.784" x2="53.9509" y2="237.59" gradientUnits="userSpaceOnUse">
<stop stop-color="#BB45FF"/>
<stop offset="1" stop-color="#1450BD"/>
</linearGradient>
<linearGradient id="paint23_linear_110_9230" x1="52.4268" y1="203.408" x2="46.4575" y2="230.937" gradientUnits="userSpaceOnUse">
<stop stop-color="#BB45FF"/>
<stop offset="1" stop-color="#1450BD"/>
</linearGradient>
<linearGradient id="paint24_linear_110_9230" x1="54.3961" y1="210.908" x2="54.3961" y2="278.518" gradientUnits="userSpaceOnUse">
<stop stop-color="#6C20B1" stop-opacity="0"/>
<stop offset="1" stop-color="white"/>
</linearGradient>
<linearGradient id="paint25_linear_110_9230" x1="61.1309" y1="263.471" x2="61.1309" y2="336" gradientUnits="userSpaceOnUse">
<stop stop-color="#6C20B1" stop-opacity="0"/>
<stop offset="1" stop-color="white"/>
</linearGradient>
<linearGradient id="paint26_linear_110_9230" x1="49.7883" y1="309.025" x2="49.7883" y2="367.546" gradientUnits="userSpaceOnUse">
<stop stop-color="#F38273"/>
<stop offset="1" stop-color="#FF2FCC"/>
</linearGradient>
<linearGradient id="paint27_linear_110_9230" x1="53.7277" y1="271.281" x2="53.7302" y2="353.569" gradientUnits="userSpaceOnUse">
<stop stop-color="#282A57" stop-opacity="0"/>
<stop offset="1" stop-color="#277A72"/>
</linearGradient>
<linearGradient id="paint28_linear_110_9230" x1="-21.2606" y1="397.296" x2="45.9972" y2="394.077" gradientUnits="userSpaceOnUse">
<stop stop-color="#282A57" stop-opacity="0"/>
<stop offset="0.4537" stop-color="#8788A1" stop-opacity="0.4537"/>
<stop offset="1" stop-color="white"/>
</linearGradient>
<linearGradient id="paint29_linear_110_9230" x1="236.248" y1="-15.148" x2="236.248" y2="165.295" gradientUnits="userSpaceOnUse">
<stop stop-color="#FFE900"/>
<stop offset="1" stop-color="#FF2FCC"/>
</linearGradient>
<linearGradient id="paint30_linear_110_9230" x1="260.686" y1="-15.1483" x2="260.686" y2="165.295" gradientUnits="userSpaceOnUse">
<stop stop-color="#FFE900"/>
<stop offset="1" stop-color="#FF2FCC"/>
</linearGradient>
<linearGradient id="paint31_linear_110_9230" x1="285.13" y1="-15.148" x2="285.13" y2="165.295" gradientUnits="userSpaceOnUse">
<stop stop-color="#FFE900"/>
<stop offset="1" stop-color="#FF2FCC"/>
</linearGradient>
<linearGradient id="paint32_linear_110_9230" x1="309.575" y1="-15.1481" x2="309.575" y2="165.295" gradientUnits="userSpaceOnUse">
<stop stop-color="#FFE900"/>
<stop offset="1" stop-color="#FF2FCC"/>
</linearGradient>
<linearGradient id="paint33_linear_110_9230" x1="334.012" y1="-15.1483" x2="334.012" y2="165.295" gradientUnits="userSpaceOnUse">
<stop stop-color="#FFE900"/>
<stop offset="1" stop-color="#FF2FCC"/>
</linearGradient>
<linearGradient id="paint34_linear_110_9230" x1="155.067" y1="442.308" x2="146.052" y2="489.897" gradientUnits="userSpaceOnUse">
<stop stop-color="#BB45FF"/>
<stop offset="1" stop-color="#1450BD"/>
</linearGradient>
<linearGradient id="paint35_linear_110_9230" x1="164.572" y1="424.294" x2="155.553" y2="471.892" gradientUnits="userSpaceOnUse">
<stop stop-color="#BB45FF"/>
<stop offset="1" stop-color="#1450BD"/>
</linearGradient>
<linearGradient id="paint36_linear_110_9230" x1="199.647" y1="419.933" x2="193.07" y2="448.862" gradientUnits="userSpaceOnUse">
<stop stop-color="#BB45FF"/>
<stop offset="1" stop-color="#1450BD"/>
</linearGradient>
<linearGradient id="paint37_linear_110_9230" x1="142.583" y1="419.943" x2="136.047" y2="448.881" gradientUnits="userSpaceOnUse">
<stop stop-color="#BB45FF"/>
<stop offset="1" stop-color="#1450BD"/>
</linearGradient>
<linearGradient id="paint38_linear_110_9230" x1="153.041" y1="332.773" x2="119.482" y2="352.32" gradientUnits="userSpaceOnUse">
<stop stop-color="#BB45FF"/>
<stop offset="1" stop-color="#1450BD"/>
</linearGradient>
<linearGradient id="paint39_linear_110_9230" x1="166.785" y1="333.567" x2="125.226" y2="369.936" gradientUnits="userSpaceOnUse">
<stop stop-color="#BB45FF"/>
<stop offset="1" stop-color="#1450BD"/>
</linearGradient>
<linearGradient id="paint40_linear_110_9230" x1="165.312" y1="262.461" x2="137.125" y2="308.027" gradientUnits="userSpaceOnUse">
<stop stop-color="#BB45FF"/>
<stop offset="1" stop-color="#1450BD"/>
</linearGradient>
<linearGradient id="paint41_linear_110_9230" x1="201.689" y1="257.653" x2="194.08" y2="288.755" gradientUnits="userSpaceOnUse">
<stop stop-color="#BB45FF"/>
<stop offset="1" stop-color="#1450BD"/>
</linearGradient>
<linearGradient id="paint42_linear_110_9230" x1="187.515" y1="158.598" x2="176.675" y2="189.538" gradientUnits="userSpaceOnUse">
<stop stop-color="#BB45FF"/>
<stop offset="1" stop-color="#1450BD"/>
</linearGradient>
</defs>
</svg>
