<svg width="120" height="120" viewBox="0 0 120 120" fill="none" xmlns="http://www.w3.org/2000/svg">
<g clip-path="url(#clip0_110_9878)">
<g clip-path="url(#clip1_110_9878)">
<mask id="mask0_110_9878" style="mask-type:luminance" maskUnits="userSpaceOnUse" x="-20" y="-21" width="161" height="161">
<path d="M140.001 139.999H-19.999V-20.0015H140.001V139.999Z" fill="white"/>
</mask>
<g mask="url(#mask0_110_9878)">
<path d="M91.8071 12.961V104.58H20.3558C18.2957 104.58 16.627 102.909 16.627 100.849V32.2922L40.2846 9.22976H88.0758C90.136 9.22976 91.8071 10.9008 91.8071 12.961Z" fill="#EAF6FF"/>
<path d="M84.0887 5.48907V97.1082H12.6375C10.5773 97.1082 8.90625 95.4371 8.90625 93.3769V21.4382L28.6194 1.75784H80.3575C82.4176 1.75784 84.0887 3.42892 84.0887 5.48907Z" fill="white"/>
<path d="M101.318 118.242H71.6156C66.2179 118.242 61.8398 113.866 61.8398 108.466V78.7638C61.8398 73.3638 66.2156 68.988 71.6156 68.988H101.318C106.715 68.988 111.094 73.3638 111.094 78.7638V108.466C111.094 113.866 106.715 118.242 101.318 118.242Z" fill="#BB45FF"/>
<path d="M98.7758 89.997L89.9563 79.0048C88.1657 76.7736 84.7696 76.7736 82.979 79.0048L74.1572 89.997C71.9681 92.5798 73.9954 96.8477 77.3962 96.7469H80.8181V107.669C80.8181 108.902 81.8165 109.902 83.0493 109.902H89.8836C91.1164 109.902 92.1149 108.904 92.1149 107.669V96.7493H95.5367C98.9375 96.8477 100.965 92.5798 98.7758 89.997Z" fill="#C8EFFE"/>
<path d="M98.7758 89.997L89.9563 79.0048C88.1657 76.7736 84.7696 76.7736 82.979 79.0048L74.1572 89.997C71.9681 92.5798 73.9954 96.8477 77.3962 96.7469H80.8181V107.669C80.8181 108.902 81.8165 109.902 83.0493 109.902H89.8836C91.1164 109.902 92.1149 108.904 92.1149 107.669V96.7493H95.5367C98.9375 96.8477 100.965 92.5798 98.7758 89.997Z" fill="#C8EFFE"/>
<path d="M98.7758 89.997L89.9563 79.0048C88.1657 76.7736 84.7696 76.7736 82.979 79.0048L74.1572 89.997C71.9681 92.5798 73.9954 96.8477 77.3962 96.7469H80.8181V107.669C80.8181 108.902 81.8165 109.902 83.0493 109.902H89.8836C91.1164 109.902 92.1149 108.904 92.1149 107.669V96.7493H95.5367C98.9375 96.8477 100.965 92.5798 98.7758 89.997Z" fill="white"/>
<path d="M8.90625 21.4377L28.6194 1.75737V17.7065C28.6194 19.7667 26.9484 21.4377 24.8882 21.4377H8.90625Z" fill="#66B7E0"/>
<path d="M57.656 19.8213H41.149C39.0279 19.8213 37.3076 18.101 37.3076 15.9799V15.9729C37.3076 13.8518 39.0279 12.1315 41.149 12.1315H57.656C59.777 12.1315 61.4973 13.8518 61.4973 15.9729V15.9799C61.4973 18.101 59.777 19.8213 57.656 19.8213Z" fill="#66B7E0"/>
<path d="M61.8423 106.338H20.3558C17.3301 106.338 14.8691 103.875 14.8691 100.849V97.1082C14.8691 96.1379 15.6566 95.3504 16.6269 95.3504C17.5973 95.3504 18.3847 96.1379 18.3847 97.1082V100.849C18.3847 101.936 19.2683 102.822 20.3558 102.822H61.8423C62.8127 102.822 63.6002 103.61 63.6002 104.58C63.6002 105.55 62.8127 106.338 61.8423 106.338Z" fill="#083863"/>
<path d="M91.8068 62.5474C90.8365 62.5474 90.049 61.7599 90.049 60.7896V12.9609C90.049 11.8734 89.1631 10.9875 88.0756 10.9875H84.0889C83.1186 10.9875 82.3311 10.2 82.3311 9.22965C82.3311 8.25934 83.1186 7.47185 84.0889 7.47185H88.0756C91.1013 7.47185 93.5646 9.93512 93.5646 12.9609V60.7896C93.5646 61.7622 92.7771 62.5474 91.8068 62.5474Z" fill="#083863"/>
<path d="M84.0896 70.7483C83.1193 70.7483 82.3318 69.9608 82.3318 68.9905V5.48924C82.3318 4.40175 81.4459 3.51582 80.3584 3.51582H36.8398C35.8695 3.51582 35.082 2.72832 35.082 1.75801C35.082 0.787704 35.8695 0.000205994 36.8398 0.000205994H80.3584C83.3841 0.000205994 85.8474 2.46348 85.8474 5.48924V68.9905C85.8474 69.9608 85.0599 70.7483 84.0896 70.7483Z" fill="#083863"/>
<path d="M61.8419 98.866H12.6375C9.61171 98.866 7.14844 96.4027 7.14844 93.3769V21.4382C7.14844 20.4679 7.93593 19.6804 8.90624 19.6804C9.87655 19.6804 10.664 20.4679 10.664 21.4382V93.3769C10.664 94.4644 11.55 95.3504 12.6375 95.3504H61.8419C62.8122 95.3504 63.5997 96.1379 63.5997 97.1082C63.5997 98.0785 62.8122 98.866 61.8419 98.866Z" fill="#083863"/>
<path d="M101.318 120H71.6156C65.257 120 60.082 114.827 60.082 108.466V78.7638C60.082 72.4052 65.2547 67.2302 71.6156 67.2302H101.318C107.676 67.2302 112.851 72.4052 112.851 78.7638V108.466C112.851 114.827 107.676 120 101.318 120ZM71.6156 70.7482C67.1953 70.7482 63.5976 74.3458 63.5976 78.7661V108.466C63.5976 112.886 67.1953 116.484 71.6156 116.484H101.318C105.738 116.484 109.336 112.889 109.336 108.466V78.7638C109.336 74.3435 105.74 70.7458 101.318 70.7458H71.6156V70.7482Z" fill="#083863"/>
<path d="M89.8838 111.658H83.0495C80.8487 111.658 79.0604 109.867 79.0604 107.666V98.5047H77.4198C75.1628 98.5632 73.1261 97.2765 72.1019 95.1508C71.0753 93.0156 71.3425 90.6156 72.8003 88.8789L81.6081 77.9032C82.7964 76.422 84.5682 75.5712 86.4667 75.5712C88.3651 75.5712 90.137 76.4196 91.3252 77.9032L100.133 88.8813C101.591 90.618 101.858 93.018 100.831 95.1531C99.8307 97.2343 97.8572 98.507 95.6541 98.507C95.6072 98.507 95.5627 98.507 95.5158 98.5047H93.8752V107.669C93.8752 109.867 92.0846 111.658 89.8838 111.658ZM77.3964 94.989H80.8182C81.7886 94.989 82.5761 95.7765 82.5761 96.7469V107.669C82.5761 107.931 82.7893 108.144 83.0495 108.144H89.8838C90.1463 108.144 90.3573 107.931 90.3573 107.669V96.7492C90.3573 95.7789 91.1448 94.9914 92.1151 94.9914H95.5369C95.5533 94.9914 95.5721 94.9914 95.5885 94.9914C96.8916 95.0265 97.5057 93.9578 97.6627 93.6273C97.9932 92.9406 98.1057 91.9258 97.433 91.1336C97.4236 91.1219 97.4143 91.1102 97.4025 91.0984L88.5831 80.1063C88.0651 79.4618 87.294 79.0915 86.4643 79.0915C85.6346 79.0915 84.8635 79.4618 84.3456 80.1063L75.5261 91.0984C75.5167 91.1102 75.5073 91.1219 75.4956 91.1336C74.823 91.9258 74.9378 92.943 75.2659 93.6273C75.4253 93.9578 76.0394 95.0336 77.3401 94.9914C77.3612 94.989 77.38 94.989 77.3964 94.989Z" fill="#083863"/>
<path d="M24.8884 23.1956H8.90642C8.19627 23.1956 7.55408 22.7667 7.28221 22.1104C7.01034 21.4542 7.16034 20.6971 7.66424 20.1956L27.3774 0.5152C27.8813 0.0136395 28.636 -0.13636 29.2923 0.135513C29.9485 0.407387 30.3774 1.04957 30.3774 1.75972V17.7065C30.3774 20.7346 27.9141 23.1956 24.8884 23.1956ZM13.1556 19.6799H24.8884C25.9759 19.6799 26.8618 18.794 26.8618 17.7065V5.99486L13.1556 19.6799Z" fill="#083863"/>
<path d="M57.6559 21.5791H41.149C38.0623 21.5791 35.5498 19.0666 35.5498 15.9799C35.5498 12.8838 38.0623 10.3737 41.149 10.3737H57.6559C60.7427 10.3737 63.2551 12.8862 63.2551 15.9729C63.2551 19.0666 60.7427 21.5791 57.6559 21.5791ZM41.149 13.8893C40.0006 13.8893 39.0654 14.8244 39.0654 15.9729C39.0654 17.1283 40.0006 18.0635 41.149 18.0635H57.6559C58.8044 18.0635 59.7395 17.1283 59.7395 15.9799C59.7395 14.8221 58.8044 13.8893 57.6559 13.8893H41.149Z" fill="#083863"/>
<path d="M70.8906 36.4631H22.1807C21.2103 36.4631 20.4229 35.6756 20.4229 34.7053C20.4229 33.735 21.2103 32.9475 22.1807 32.9475H70.8906C71.8609 32.9475 72.6484 33.735 72.6484 34.7053C72.6484 35.6756 71.8632 36.4631 70.8906 36.4631Z" fill="#083863"/>
<path d="M70.8906 46.8862H22.1807C21.2103 46.8862 20.4229 46.0987 20.4229 45.1284C20.4229 44.1581 21.2103 43.3706 22.1807 43.3706H70.8906C71.8609 43.3706 72.6484 44.1581 72.6484 45.1284C72.6484 46.0987 71.8632 46.8862 70.8906 46.8862Z" fill="#083863"/>
<path d="M70.891 57.3093H61.7949C60.8246 57.3093 60.0371 56.5218 60.0371 55.5515C60.0371 54.5812 60.8246 53.7937 61.7949 53.7937H70.891C71.8613 53.7937 72.6488 54.5812 72.6488 55.5515C72.6488 56.5218 71.8613 57.3093 70.891 57.3093Z" fill="#083863"/>
<path d="M53.5446 57.3093H22.1807C21.2103 57.3093 20.4229 56.5218 20.4229 55.5515C20.4229 54.5812 21.2103 53.7937 22.1807 53.7937H53.5446C54.5149 53.7937 55.3024 54.5812 55.3024 55.5515C55.3024 56.5218 54.5149 57.3093 53.5446 57.3093Z" fill="#083863"/>
<path d="M43.422 67.7327H22.1807C21.2103 67.7327 20.4229 66.9452 20.4229 65.9749C20.4229 65.0046 21.2103 64.2171 22.1807 64.2171H43.422C44.3923 64.2171 45.1798 65.0046 45.1798 65.9749C45.1798 66.9452 44.3923 67.7327 43.422 67.7327Z" fill="#083863"/>
<path d="M43.422 78.1558H22.1807C21.2103 78.1558 20.4229 77.3683 20.4229 76.398C20.4229 75.4276 21.2103 74.6402 22.1807 74.6402H43.422C44.3923 74.6402 45.1798 75.4276 45.1798 76.398C45.1798 77.3683 44.3923 78.1558 43.422 78.1558Z" fill="#083863"/>
</g>
</g>
</g>
<defs>
<clipPath id="clip0_110_9878">
<rect width="120" height="120" fill="white"/>
</clipPath>
<clipPath id="clip1_110_9878">
<rect width="120" height="120" fill="white"/>
</clipPath>
</defs>
</svg>
