<svg width="120" height="120" viewBox="0 0 120 120" fill="none" xmlns="http://www.w3.org/2000/svg">
<g clip-path="url(#clip0_110_8780)">
<g clip-path="url(#clip1_110_8780)">
<path d="M85.2568 96.7035H40.2686C37.292 96.7035 34.8779 96.6332 34.8779 93.6567V28.2449C34.8779 25.2684 37.292 22.8543 40.2686 22.8543H79.8662C82.8428 22.8543 85.2568 25.2684 85.2568 28.2449V96.7059V96.7035Z" fill="#F5F8F9"/>
<path d="M85.2549 28.2449V96.7059H76.9229V28.2449C76.9229 25.2684 74.5088 22.8543 71.5322 22.8543H79.8643C82.8408 22.8543 85.2549 25.2684 85.2549 28.2449Z" fill="#E6EDF4"/>
<path d="M94.7771 97.4857C94.7771 96.0911 94.4584 95.1935 93.542 94.2771C92.6279 93.363 91.3646 92.7982 89.9701 92.7982C89.0748 92.7982 88.5732 92.6646 87.8443 93.0724C86.2975 93.9372 85.2521 95.5896 85.2521 97.488L84.7318 96.2599C84.7318 94.8654 84.2654 91.3872 83.3514 90.4732C82.4373 89.5568 81.5443 89.0927 80.1498 89.0927C79.3318 89.0927 78.6076 88.8044 77.9232 89.1513C76.2756 89.9833 75.1482 91.6896 75.1482 93.663L74.3631 91.9099C74.3631 90.5154 74.1311 89.0083 73.2146 88.0966C72.3006 87.1825 71.4896 86.6435 70.0928 86.6435C69.2232 86.6435 68.4029 86.381 67.6881 86.7677C66.1107 87.6208 65.0396 89.2919 65.0396 91.2115L64.6084 90.3466L64.5756 72.2271C64.5756 70.8325 64.2076 69.7427 63.2912 68.831C62.3772 67.9169 61.3717 67.4505 59.9748 67.4505C59.1568 67.4505 58.3951 67.3122 57.7131 67.6568C56.0631 68.4865 54.9311 70.195 54.9311 72.1708V101.365L53.635 103.849C53.5412 103.915 52.0693 103.073 51.9779 103.141C48.2842 105.126 46.1865 108.347 46.1865 112.071V118.204C46.1865 118.837 46.6998 119.348 47.3303 119.348H90.4365L94.7725 117.058V97.4833L94.7771 97.4857Z" fill="#FFDCD0"/>
<path d="M95.3592 97.4861C95.3592 94.697 93.0951 92.4353 90.3037 92.4353C89.4107 92.4353 88.5717 92.6673 87.8428 93.0751C89.3896 93.9376 90.435 95.59 90.4373 97.4861V119.349H94.2154C94.8482 119.349 95.3592 118.835 95.3592 118.205V97.4861Z" fill="#FFC7B6"/>
<path d="M85.2502 93.663V102.229C85.2502 102.447 85.0744 102.623 84.8564 102.623H83.3822C81.6947 102.623 80.326 101.254 80.326 99.5669V93.452C80.326 91.6333 79.3627 90.0395 77.9189 89.1489C78.601 88.802 79.3768 88.6075 80.1971 88.6075C81.5916 88.6075 82.8572 89.1723 83.769 90.0887C84.6854 91.0028 85.2502 92.2661 85.2502 93.6606V93.663Z" fill="#FFC7B6"/>
<path d="M75.1467 91.2139V100.851C75.1467 101.069 74.9709 101.245 74.7529 101.245H73.2811C71.5936 101.245 70.2248 99.8764 70.2248 98.1889V91.146C70.2248 89.271 69.2006 87.6374 67.6865 86.7678C68.4014 86.3811 69.2217 86.1584 70.0912 86.1584C71.4857 86.1584 72.7514 86.7233 73.6631 87.6397C74.5795 88.5538 75.1443 89.817 75.1443 91.2116L75.1467 91.2139Z" fill="#FFC7B6"/>
<path d="M65.0375 72.1708V100.851C65.0375 101.069 64.8617 101.245 64.6438 101.245H63.1719C61.4844 101.245 60.1156 99.8763 60.1156 98.1888V71.9576C60.1156 70.1388 59.1523 68.5474 57.7109 67.6591C58.393 67.3122 59.1664 67.1201 59.982 67.1201C61.3789 67.1201 62.6422 67.6849 63.5539 68.6013C64.4703 69.5154 65.0352 70.7786 65.0352 72.1732L65.0375 72.1708Z" fill="#FFC7B6"/>
<path d="M93.6953 18.7949C96.2841 18.7949 98.3828 16.6962 98.3828 14.1074C98.3828 11.5185 96.2841 9.41986 93.6953 9.41986C91.1065 9.41986 89.0078 11.5185 89.0078 14.1074C89.0078 16.6962 91.1065 18.7949 93.6953 18.7949Z" fill="#BB45FF"/>
<path d="M114.249 58.4344C116.454 58.4344 118.242 56.6463 118.242 54.4406C118.242 52.235 116.454 50.4469 114.249 50.4469C112.043 50.4469 110.255 52.235 110.255 54.4406C110.255 56.6463 112.043 58.4344 114.249 58.4344Z" fill="#BB45FF"/>
<path d="M114.249 74.2406C116.454 74.2406 118.242 72.4526 118.242 70.2469C118.242 68.0412 116.454 66.2531 114.249 66.2531C112.043 66.2531 110.255 68.0412 110.255 70.2469C110.255 72.4526 112.043 74.2406 114.249 74.2406Z" fill="#BB45FF"/>
<path d="M106.018 38.1354C108.606 38.1354 110.705 36.0367 110.705 33.4479C110.705 30.859 108.606 28.7604 106.018 28.7604C103.429 28.7604 101.33 30.859 101.33 33.4479C101.33 36.0367 103.429 38.1354 106.018 38.1354Z" fill="#BB45FF"/>
<path d="M106.018 95.9271C108.606 95.9271 110.705 93.8285 110.705 91.2396C110.705 88.6508 108.606 86.5521 106.018 86.5521C103.429 86.5521 101.33 88.6508 101.33 91.2396C101.33 93.8285 103.429 95.9271 106.018 95.9271Z" fill="#BB45FF"/>
<path d="M30.9922 14.1074C30.9922 16.6972 28.8945 18.7949 26.3047 18.7949C23.7148 18.7949 21.6172 16.6972 21.6172 14.1074C21.6172 11.5175 23.7148 9.41986 26.3047 9.41986C28.8945 9.41986 30.9922 11.5175 30.9922 14.1074Z" fill="#BB45FF"/>
<path d="M5.75156 58.4344C7.95725 58.4344 9.74531 56.6463 9.74531 54.4406C9.74531 52.235 7.95725 50.4469 5.75156 50.4469C3.54588 50.4469 1.75781 52.235 1.75781 54.4406C1.75781 56.6463 3.54588 58.4344 5.75156 58.4344Z" fill="#BB45FF"/>
<path d="M5.75156 74.2406C7.95725 74.2406 9.74531 72.4526 9.74531 70.2469C9.74531 68.0412 7.95725 66.2531 5.75156 66.2531C3.54588 66.2531 1.75781 68.0412 1.75781 70.2469C1.75781 72.4526 3.54588 74.2406 5.75156 74.2406Z" fill="#BB45FF"/>
<path d="M13.9824 38.1354C16.5713 38.1354 18.6699 36.0367 18.6699 33.4479C18.6699 30.859 16.5713 28.7604 13.9824 28.7604C11.3936 28.7604 9.29492 30.859 9.29492 33.4479C9.29492 36.0367 11.3936 38.1354 13.9824 38.1354Z" fill="#BB45FF"/>
<path d="M13.9824 95.9271C16.5713 95.9271 18.6699 93.8285 18.6699 91.2396C18.6699 88.6508 16.5713 86.5521 13.9824 86.5521C11.3936 86.5521 9.29492 88.6508 9.29492 91.2396C9.29492 93.8285 11.3936 95.9271 13.9824 95.9271Z" fill="#BB45FF"/>
<path d="M52.1031 9.74531C54.3088 9.74531 56.0969 7.95725 56.0969 5.75156C56.0969 3.54588 54.3088 1.75781 52.1031 1.75781C49.8974 1.75781 48.1094 3.54588 48.1094 5.75156C48.1094 7.95725 49.8974 9.74531 52.1031 9.74531Z" fill="#BB45FF"/>
<path d="M67.901 9.74531C70.1067 9.74531 71.8947 7.95725 71.8947 5.75156C71.8947 3.54588 70.1067 1.75781 67.901 1.75781C65.6953 1.75781 63.9072 3.54588 63.9072 5.75156C63.9072 7.95725 65.6953 9.74531 67.901 9.74531Z" fill="#BB45FF"/>
<path d="M93.6953 20.5527C90.1422 20.5527 87.25 17.6605 87.25 14.1074C87.25 10.5542 90.1422 7.66205 93.6953 7.66205C97.2484 7.66205 100.141 10.5542 100.141 14.1074C100.141 17.6605 97.2484 20.5527 93.6953 20.5527ZM93.6953 11.1777C92.0805 11.1777 90.7656 12.4925 90.7656 14.1074C90.7656 15.7222 92.0805 17.037 93.6953 17.037C95.3102 17.037 96.625 15.7222 96.625 14.1074C96.625 12.4925 95.3102 11.1777 93.6953 11.1777Z" fill="#083863"/>
<path d="M83.851 25.7111C83.401 25.7111 82.951 25.54 82.6088 25.1955C81.9221 24.5088 81.9221 23.3955 82.6088 22.7088L88.6627 16.6549C89.3494 15.9682 90.4627 15.9682 91.1494 16.6549C91.8361 17.3416 91.8361 18.4549 91.1494 19.1416L85.0955 25.1955C84.7533 25.5377 84.3033 25.7111 83.8533 25.7111H83.851Z" fill="#083863"/>
<path d="M110.032 56.1987H85.4668C84.4965 56.1987 83.709 55.4112 83.709 54.4409C83.709 53.4706 84.4965 52.6831 85.4668 52.6831H110.032C111.002 52.6831 111.789 53.4706 111.789 54.4409C111.789 55.4112 111.002 56.1987 110.032 56.1987Z" fill="#083863"/>
<path d="M114.249 60.1898C111.078 60.1898 108.497 57.6094 108.497 54.4383C108.497 51.2672 111.078 48.6867 114.249 48.6867C117.42 48.6867 120 51.2672 120 54.4383C120 57.6094 117.42 60.1898 114.249 60.1898ZM114.249 52.2047C113.016 52.2047 112.013 53.2078 112.013 54.4406C112.013 55.6734 113.016 56.6766 114.249 56.6766C115.481 56.6766 116.485 55.6734 116.485 54.4406C116.485 53.2078 115.481 52.2047 114.249 52.2047Z" fill="#083863"/>
<path d="M110.032 72.0044H85.4668C84.4965 72.0044 83.709 71.2169 83.709 70.2466C83.709 69.2763 84.4965 68.4888 85.4668 68.4888H110.032C111.002 68.4888 111.789 69.2763 111.789 70.2466C111.789 71.2169 111.002 72.0044 110.032 72.0044Z" fill="#083863"/>
<path d="M114.249 75.9984C111.078 75.9984 108.497 73.418 108.497 70.2469C108.497 67.0758 111.078 64.4953 114.249 64.4953C117.42 64.4953 120 67.0758 120 70.2469C120 73.418 117.42 75.9984 114.249 75.9984ZM114.249 68.0133C113.016 68.0133 112.013 69.0164 112.013 70.2492C112.013 71.482 113.016 72.4851 114.249 72.4851C115.481 72.4851 116.485 71.482 116.485 70.2492C116.485 69.0164 115.481 68.0133 114.249 68.0133Z" fill="#083863"/>
<path d="M106.018 39.8932C102.464 39.8932 99.5723 37.001 99.5723 33.4479C99.5723 29.8948 102.464 27.0026 106.018 27.0026C109.571 27.0026 112.463 29.8948 112.463 33.4479C112.463 37.001 109.571 39.8932 106.018 39.8932ZM106.018 30.5182C104.403 30.5182 103.088 31.833 103.088 33.4479C103.088 35.0627 104.403 36.3776 106.018 36.3776C107.632 36.3776 108.947 35.0627 108.947 33.4479C108.947 31.833 107.632 30.5182 106.018 30.5182Z" fill="#083863"/>
<path d="M95.3434 44.3833H85.4668C84.4965 44.3833 83.709 43.5958 83.709 42.6254C83.709 41.6551 84.4965 40.8676 85.4668 40.8676H95.3434C95.8379 40.8676 96.3043 40.6755 96.6535 40.3239L101.102 35.8755C101.789 35.1887 102.902 35.1887 103.589 35.8755C104.275 36.5622 104.275 37.6754 103.589 38.3622L99.1402 42.8106C98.1254 43.8255 96.7777 44.3833 95.3434 44.3833Z" fill="#083863"/>
<path d="M106.018 97.6849C102.464 97.6849 99.5723 94.7927 99.5723 91.2396C99.5723 87.6865 102.464 84.7943 106.018 84.7943C109.571 84.7943 112.463 87.6865 112.463 91.2396C112.463 94.7927 109.571 97.6849 106.018 97.6849ZM106.018 88.3099C104.403 88.3099 103.088 89.6248 103.088 91.2396C103.088 92.8545 104.403 94.1693 106.018 94.1693C107.632 94.1693 108.947 92.8545 108.947 91.2396C108.947 89.6248 107.632 88.3099 106.018 88.3099Z" fill="#083863"/>
<path d="M102.344 89.3275C101.894 89.3275 101.444 89.1564 101.102 88.8119L96.6535 84.3634C96.3043 84.0142 95.8379 83.822 95.3434 83.822H85.4668C84.4965 83.822 83.709 83.0345 83.709 82.0642C83.709 81.0939 84.4965 80.3064 85.4668 80.3064H95.3434C96.7777 80.3064 98.1254 80.8642 99.1402 81.8791L103.589 86.3298C104.275 87.0165 104.275 88.1298 103.589 88.8166C103.246 89.1587 102.796 89.3322 102.346 89.3322L102.344 89.3275Z" fill="#083863"/>
<path d="M26.3047 20.5527C22.7516 20.5527 19.8594 17.6605 19.8594 14.1074C19.8594 10.5542 22.7516 7.66205 26.3047 7.66205C29.8578 7.66205 32.75 10.5542 32.75 14.1074C32.75 17.6605 29.8578 20.5527 26.3047 20.5527ZM26.3047 11.1777C24.6898 11.1777 23.375 12.4925 23.375 14.1074C23.375 15.7222 24.6898 17.037 26.3047 17.037C27.9195 17.037 29.2344 15.7222 29.2344 14.1074C29.2344 12.4925 27.9195 11.1777 26.3047 11.1777Z" fill="#083863"/>
<path d="M36.2709 25.833C35.8209 25.833 35.3709 25.6619 35.0287 25.3174L28.8529 19.1416C28.1662 18.4549 28.1662 17.3416 28.8529 16.6549C29.5396 15.9682 30.6529 15.9682 31.3396 16.6549L37.5154 22.8307C38.2022 23.5174 38.2022 24.6307 37.5154 25.3174C37.1732 25.6596 36.7232 25.833 36.2732 25.833H36.2709Z" fill="#083863"/>
<path d="M15.1725 56.1987H9.97168C9.00137 56.1987 8.21387 55.4112 8.21387 54.4409C8.21387 53.4706 9.00137 52.6831 9.97168 52.6831H15.1725C16.1428 52.6831 16.9303 53.4706 16.9303 54.4409C16.9303 55.4112 16.1428 56.1987 15.1725 56.1987Z" fill="#083863"/>
<path d="M34.7703 56.1987H23.375C22.4047 56.1987 21.6172 55.4112 21.6172 54.4409C21.6172 53.4706 22.4047 52.6831 23.375 52.6831H34.7703C35.7406 52.6831 36.5281 53.4706 36.5281 54.4409C36.5281 55.4112 35.7406 56.1987 34.7703 56.1987Z" fill="#083863"/>
<path d="M5.75156 60.1898C2.58047 60.1898 0 57.6094 0 54.4383C0 51.2672 2.58047 48.6867 5.75156 48.6867C8.92266 48.6867 11.5031 51.2672 11.5031 54.4383C11.5031 57.6094 8.92266 60.1898 5.75156 60.1898ZM5.75156 52.2047C4.51875 52.2047 3.51562 53.2078 3.51562 54.4406C3.51562 55.6734 4.51875 56.6766 5.75156 56.6766C6.98438 56.6766 7.9875 55.6734 7.9875 54.4406C7.9875 53.2078 6.98438 52.2047 5.75156 52.2047Z" fill="#083863"/>
<path d="M34.7709 72.0044H9.97168C9.00137 72.0044 8.21387 71.2169 8.21387 70.2466C8.21387 69.2763 9.00137 68.4888 9.97168 68.4888H34.7709C35.7412 68.4888 36.5287 69.2763 36.5287 70.2466C36.5287 71.2169 35.7412 72.0044 34.7709 72.0044Z" fill="#083863"/>
<path d="M5.75156 75.9984C2.58047 75.9984 0 73.418 0 70.2469C0 67.0758 2.58047 64.4953 5.75156 64.4953C8.92266 64.4953 11.5031 67.0758 11.5031 70.2469C11.5031 73.418 8.92266 75.9984 5.75156 75.9984ZM5.75156 68.0133C4.51875 68.0133 3.51562 69.0164 3.51562 70.2492C3.51562 71.482 4.51875 72.4851 5.75156 72.4851C6.98438 72.4851 7.9875 71.482 7.9875 70.2492C7.9875 69.0164 6.98438 68.0133 5.75156 68.0133Z" fill="#083863"/>
<path d="M13.9824 39.8932C10.4293 39.8932 7.53711 37.001 7.53711 33.4479C7.53711 29.8948 10.4293 27.0026 13.9824 27.0026C17.5355 27.0026 20.4277 29.8948 20.4277 33.4479C20.4277 37.001 17.5355 39.8932 13.9824 39.8932ZM13.9824 30.5182C12.3676 30.5182 11.0527 31.833 11.0527 33.4479C11.0527 35.0627 12.3676 36.3776 13.9824 36.3776C15.5973 36.3776 16.9121 35.0627 16.9121 33.4479C16.9121 31.833 15.5973 30.5182 13.9824 30.5182Z" fill="#083863"/>
<path d="M34.7688 44.3833H24.6578C23.2234 44.3833 21.8758 43.8255 20.8609 42.8106L16.4125 38.3622C15.7258 37.6754 15.7258 36.5622 16.4125 35.8755C17.0992 35.1887 18.2125 35.1887 18.8992 35.8755L23.3477 40.3239C23.6969 40.6731 24.1633 40.8676 24.6578 40.8676H34.7688C35.7391 40.8676 36.5266 41.6551 36.5266 42.6254C36.5266 43.5958 35.7391 44.3833 34.7688 44.3833Z" fill="#083863"/>
<path d="M13.9824 97.6849C10.4293 97.6849 7.53711 94.7927 7.53711 91.2396C7.53711 87.6865 10.4293 84.7943 13.9824 84.7943C17.5355 84.7943 20.4277 87.6865 20.4277 91.2396C20.4277 94.7927 17.5355 97.6849 13.9824 97.6849ZM13.9824 88.3099C12.3676 88.3099 11.0527 89.6248 11.0527 91.2396C11.0527 92.8545 12.3676 94.1693 13.9824 94.1693C15.5973 94.1693 16.9121 92.8545 16.9121 91.2396C16.9121 89.6248 15.5973 88.3099 13.9824 88.3099Z" fill="#083863"/>
<path d="M17.6547 89.3271C17.2047 89.3271 16.7547 89.156 16.4125 88.8115C15.7258 88.1247 15.7258 87.0115 16.4125 86.3247L20.8609 81.8763C21.8758 80.8615 23.2234 80.3036 24.6578 80.3036H34.7688C35.7391 80.3036 36.5266 81.0911 36.5266 82.0615C36.5266 83.0318 35.7391 83.8193 34.7688 83.8193H24.6578C24.1633 83.8193 23.6969 84.0115 23.3477 84.363L18.8992 88.8115C18.557 89.1536 18.107 89.3271 17.657 89.3271H17.6547Z" fill="#083863"/>
<path d="M85.2578 94.4391C84.2875 94.4391 83.5 93.6516 83.5 92.6813V66.893C83.5 65.9227 84.2875 65.1352 85.2578 65.1352C86.2281 65.1352 87.0156 65.9227 87.0156 66.893V92.6813C87.0156 93.6516 86.2281 94.4391 85.2578 94.4391Z" fill="#083863"/>
<path d="M85.2555 60.4481C84.2852 60.4481 83.4977 59.6606 83.4977 58.6902V28.2449C83.4977 26.241 81.8688 24.6121 79.8648 24.6121H48.1094C47.1391 24.6121 46.3516 23.8246 46.3516 22.8543C46.3516 21.884 47.1391 21.0965 48.1094 21.0965H79.8648C83.807 21.0965 87.0133 24.3027 87.0133 28.2449V58.6902C87.0133 59.6606 86.2258 60.4481 85.2555 60.4481Z" fill="#083863"/>
<path d="M54.8303 98.4634H40.2686C38.4943 98.4634 37.0412 98.4235 35.8061 97.9314C34.5803 97.4415 33.1201 96.3048 33.1201 93.6587V28.2446C33.1201 24.4923 36.0498 21.361 39.7928 21.1149C40.7631 21.0517 41.5975 21.7853 41.6631 22.7532C41.7264 23.7212 40.9928 24.5603 40.0248 24.6235C38.1264 24.7478 36.6381 26.3392 36.6381 28.247V93.661C36.6381 94.6243 36.6381 94.9501 40.2709 94.9501H54.8326C55.8029 94.9501 56.5904 95.7376 56.5904 96.7079C56.5904 97.6782 55.8029 98.4657 54.8326 98.4657L54.8303 98.4634Z" fill="#083863"/>
<path d="M61.2795 32.4398H52.3896C51.4193 32.4398 50.6318 31.6523 50.6318 30.682C50.6318 29.7117 51.4193 28.9242 52.3896 28.9242H61.2795C62.2498 28.9242 63.0373 29.7117 63.0373 30.682C63.0373 31.6523 62.2498 32.4398 61.2795 32.4398Z" fill="#083863"/>
<path d="M67.6133 32.4399C67.5008 32.4399 67.3836 32.4282 67.2711 32.4047C67.1586 32.3836 67.0484 32.3485 66.9406 32.3063C66.8352 32.2618 66.7344 32.2078 66.6383 32.1446C66.5422 32.0789 66.4531 32.0063 66.3711 31.9243C66.2891 31.8446 66.2164 31.7555 66.1531 31.6571C66.0898 31.5633 66.0359 31.4602 65.9914 31.3547C65.9469 31.2493 65.9141 31.1368 65.8906 31.0266C65.8672 30.9118 65.8555 30.7969 65.8555 30.6821C65.8555 30.2204 66.043 29.7657 66.3711 29.4399C66.4531 29.3578 66.5422 29.2852 66.6383 29.2196C66.7344 29.1563 66.8352 29.1024 66.9406 29.0602C67.0484 29.0157 67.1586 28.9805 67.2711 28.9594C67.4984 28.9125 67.7305 28.9125 67.9578 28.9594C68.0703 28.9805 68.1805 29.0157 68.2859 29.0602C68.3937 29.1024 68.4945 29.1563 68.5906 29.2196C68.6867 29.2852 68.7758 29.3578 68.8578 29.4399C68.9375 29.5196 69.0125 29.611 69.0758 29.7071C69.1391 29.8008 69.193 29.9039 69.2375 30.0094C69.282 30.1149 69.3148 30.2274 69.3383 30.3375C69.3594 30.4524 69.3711 30.5672 69.3711 30.6821C69.3711 30.7969 69.3594 30.9118 69.3383 31.0266C69.3148 31.1368 69.282 31.2493 69.2375 31.3547C69.193 31.4602 69.1391 31.5633 69.0758 31.6571C69.0125 31.7555 68.9375 31.8446 68.8578 31.9243C68.5297 32.2524 68.0773 32.4399 67.6133 32.4399Z" fill="#083863"/>
<path d="M95.3602 120C94.3898 120 93.6023 119.212 93.6023 118.242V96.5039C93.6023 95.625 93.2578 94.7977 92.6344 94.1742C92.0133 93.5531 91.1883 93.2109 90.307 93.2109C88.4906 93.2109 87.0117 94.6898 87.0117 96.5062C87.0117 97.4766 86.2242 98.2641 85.2539 98.2641C84.2836 98.2641 83.4961 97.4766 83.4961 96.5062C83.4961 92.7516 86.5523 89.6953 90.307 89.6953C92.1258 89.6953 93.8344 90.4031 95.1187 91.6875C96.4031 92.9719 97.1133 94.6828 97.1156 96.4992V118.24C97.1156 119.21 96.3281 119.998 95.3578 119.998L95.3602 120Z" fill="#083863"/>
<path d="M46.1133 120C45.143 120 44.3555 119.213 44.3555 118.242V113.227C44.3555 109.448 46.2023 105.9 49.2961 103.732L53.8219 100.561C54.6164 100.003 55.7133 100.195 56.2711 100.992C56.8289 101.787 56.6344 102.884 55.8398 103.441L51.3141 106.613C49.1578 108.122 47.8711 110.597 47.8711 113.229V118.245C47.8711 119.215 47.0836 120.002 46.1133 120.002V120Z" fill="#083863"/>
<path d="M85.2559 103.397C84.2855 103.397 83.498 102.61 83.498 101.639V92.6814C83.498 90.865 82.0215 89.3884 80.2051 89.3884C78.3887 89.3884 76.9121 90.865 76.9121 92.6814C76.9121 93.6517 76.1246 94.4392 75.1543 94.4392C74.184 94.4392 73.3965 93.6517 73.3965 92.6814C73.3965 88.9267 76.4504 85.8728 80.2051 85.8728C83.9598 85.8728 87.0137 88.9267 87.0137 92.6814V101.639C87.0137 102.61 86.2262 103.397 85.2559 103.397Z" fill="#083863"/>
<path d="M75.1553 102.019C74.185 102.019 73.3975 101.231 73.3975 100.261V90.2342C73.3975 88.4178 71.9209 86.9412 70.1045 86.9412C68.2881 86.9412 66.8115 88.4178 66.8115 90.2342C66.8115 91.2045 66.024 91.992 65.0537 91.992C64.0834 91.992 63.2959 91.2045 63.2959 90.2342C63.2959 86.4795 66.3498 83.4256 70.1045 83.4256C73.8592 83.4256 76.9131 86.4795 76.9131 90.2342V100.261C76.9131 101.231 76.1256 102.019 75.1553 102.019Z" fill="#083863"/>
<path d="M65.0498 102.021C64.0795 102.021 63.292 101.234 63.292 100.264V82.4442C63.292 81.4738 64.0795 80.6863 65.0498 80.6863C66.0201 80.6863 66.8076 81.4738 66.8076 82.4442V100.264C66.8076 101.234 66.0201 102.021 65.0498 102.021Z" fill="#083863"/>
<path d="M54.9502 113.574C53.9799 113.574 53.1924 112.786 53.1924 111.816V72.1713C53.1924 68.4167 56.2463 65.3604 60.001 65.3604C61.8221 65.3604 63.533 66.0706 64.8174 67.3573C66.1018 68.637 66.8096 70.3479 66.8096 72.1713V74.2409C66.8096 75.2112 66.0221 75.9987 65.0518 75.9987C64.0814 75.9987 63.2939 75.2112 63.2939 74.2409V72.1713C63.2939 71.2901 62.9518 70.4628 62.3307 69.844C61.7072 69.2182 60.8799 68.876 60.001 68.876C58.1846 68.876 56.708 70.3549 56.708 72.1713V111.816C56.708 112.786 55.9205 113.574 54.9502 113.574Z" fill="#083863"/>
<path d="M67.8994 23.9534C66.9291 23.9534 66.1416 23.1659 66.1416 22.1956V9.96826C66.1416 8.99795 66.9291 8.21045 67.8994 8.21045C68.8697 8.21045 69.6572 8.99795 69.6572 9.96826V22.1956C69.6572 23.1659 68.8697 23.9534 67.8994 23.9534Z" fill="#083863"/>
<path d="M52.1045 23.9534C51.1342 23.9534 50.3467 23.1659 50.3467 22.1956V9.96826C50.3467 8.99795 51.1342 8.21045 52.1045 8.21045C53.0748 8.21045 53.8623 8.99795 53.8623 9.96826V22.1956C53.8623 23.1659 53.0748 23.9534 52.1045 23.9534Z" fill="#083863"/>
<path d="M52.1031 11.5008C48.932 11.5008 46.3516 8.92031 46.3516 5.74922C46.3516 2.57813 48.932 0 52.1031 0C55.2742 0 57.8547 2.58047 57.8547 5.75156C57.8547 8.92266 55.2742 11.5031 52.1031 11.5031V11.5008ZM52.1031 3.51562C50.8703 3.51562 49.8672 4.51875 49.8672 5.75156C49.8672 6.98438 50.8703 7.9875 52.1031 7.9875C53.3359 7.9875 54.3391 6.98438 54.3391 5.75156C54.3391 4.51875 53.3359 3.51562 52.1031 3.51562Z" fill="#083863"/>
<path d="M67.901 11.5008C64.7299 11.5008 62.1494 8.92031 62.1494 5.74922C62.1494 2.57813 64.7299 0 67.901 0C71.0721 0 73.6525 2.58047 73.6525 5.75156C73.6525 8.92266 71.0721 11.5031 67.901 11.5031V11.5008ZM67.901 3.51562C66.6682 3.51562 65.665 4.51875 65.665 5.75156C65.665 6.98438 66.6682 7.9875 67.901 7.9875C69.1338 7.9875 70.1369 6.98438 70.1369 5.75156C70.1369 4.51875 69.1338 3.51562 67.901 3.51562Z" fill="#083863"/>
<path d="M75.1648 58.7628C74.7148 58.7628 74.2648 58.5917 73.9227 58.2471C70.1961 54.5229 65.2531 52.4698 60.0008 52.4698C54.7484 52.4698 49.8031 54.5206 46.0789 58.2471C45.3922 58.9339 44.2789 58.9339 43.5922 58.2471C42.9055 57.5604 42.9055 56.4471 43.5922 55.7604C47.982 51.3706 53.8086 48.9542 60.0008 48.9542C66.193 48.9542 72.0195 51.3706 76.4094 55.7604C77.0961 56.4471 77.0961 57.5604 76.4094 58.2471C76.0672 58.5893 75.6172 58.7628 75.1672 58.7628H75.1648Z" fill="#083863"/>
<path d="M69.3666 64.5612C68.9166 64.5612 68.4666 64.3901 68.1244 64.0456C65.9494 61.8706 63.0643 60.6729 59.9986 60.6729C56.933 60.6729 54.0479 61.8706 51.8729 64.0456C51.1861 64.7323 50.0729 64.7323 49.3861 64.0456C48.6994 63.3589 48.6994 62.2456 49.3861 61.5588C52.2244 58.7206 55.9932 57.1573 59.9963 57.1573C63.9994 57.1573 67.7682 58.7206 70.6064 61.5588C71.2932 62.2456 71.2932 63.3589 70.6064 64.0456C70.2643 64.3878 69.8143 64.5612 69.3643 64.5612H69.3666Z" fill="#083863"/>
</g>
</g>
<defs>
<clipPath id="clip0_110_8780">
<rect width="120" height="120" fill="white"/>
</clipPath>
<clipPath id="clip1_110_8780">
<rect width="120" height="120" fill="white"/>
</clipPath>
</defs>
</svg>
