<svg width="120" height="120" viewBox="0 0 120 120" fill="none" xmlns="http://www.w3.org/2000/svg">
<g clip-path="url(#clip0_110_8757)">
<path d="M59.9986 96.1461C79.9616 96.1461 96.1447 79.963 96.1447 60C96.1447 40.0371 79.9616 23.8539 59.9986 23.8539C40.0357 23.8539 23.8525 40.0371 23.8525 60C23.8525 79.963 40.0357 96.1461 59.9986 96.1461Z" fill="white"/>
<path d="M104.279 27.0167C110.517 27.0167 115.575 21.9594 115.575 15.721C115.575 9.48264 110.517 4.42542 104.279 4.42542C98.0406 4.42542 92.9834 9.48264 92.9834 15.721C92.9834 21.9594 98.0406 27.0167 104.279 27.0167Z" fill="#BB45FF"/>
<path d="M15.7204 27.0167C21.9588 27.0167 27.0161 21.9594 27.0161 15.721C27.0161 9.48264 21.9588 4.42542 15.7204 4.42542C9.48203 4.42542 4.4248 9.48264 4.4248 15.721C4.4248 21.9594 9.48203 27.0167 15.7204 27.0167Z" fill="#BB45FF"/>
<path d="M59.9994 15.721C63.1186 15.721 65.6472 13.1924 65.6472 10.0732C65.6472 6.95403 63.1186 4.42542 59.9994 4.42542C56.8802 4.42542 54.3516 6.95403 54.3516 10.0732C54.3516 13.1924 56.8802 15.721 59.9994 15.721Z" fill="#66B7E0"/>
<path d="M109.925 65.6479C113.044 65.6479 115.573 63.1192 115.573 60C115.573 56.8808 113.044 54.3522 109.925 54.3522C106.806 54.3522 104.277 56.8808 104.277 60C104.277 63.1192 106.806 65.6479 109.925 65.6479Z" fill="#66B7E0"/>
<path d="M10.0726 65.6479C13.1918 65.6479 15.7204 63.1192 15.7204 60C15.7204 56.8808 13.1918 54.3522 10.0726 54.3522C6.95342 54.3522 4.4248 56.8808 4.4248 60C4.4248 63.1192 6.95342 65.6479 10.0726 65.6479Z" fill="#66B7E0"/>
<path d="M59.9994 115.575C63.1186 115.575 65.6472 113.046 65.6472 109.927C65.6472 106.808 63.1186 104.279 59.9994 104.279C56.8802 104.279 54.3516 106.808 54.3516 109.927C54.3516 113.046 56.8802 115.575 59.9994 115.575Z" fill="#66B7E0"/>
<path d="M104.279 115.575C110.517 115.575 115.575 110.518 115.575 104.279C115.575 98.0407 110.517 92.9835 104.279 92.9835C98.0406 92.9835 92.9834 98.0407 92.9834 104.279C92.9834 110.518 98.0406 115.575 104.279 115.575Z" fill="#BB45FF"/>
<path d="M15.7204 115.575C21.9588 115.575 27.0161 110.518 27.0161 104.279C27.0161 98.0407 21.9588 92.9835 15.7204 92.9835C9.48203 92.9835 4.4248 98.0407 4.4248 104.279C4.4248 110.518 9.48203 115.575 15.7204 115.575Z" fill="#BB45FF"/>
<path d="M45.4658 54.0496L50.3711 69.0836L78.9466 69.2649L68.435 37.0496L45.4658 54.0496Z" fill="#66B7E0"/>
<path d="M36.876 56.8771L45.4698 54.0758L50.3721 69.1147L41.7783 71.9161L36.876 56.8771Z" fill="#66B7E0"/>
<path d="M46.0752 70.4854L52.5183 68.3829L58.8708 80.5684L52.4277 82.6706L46.0752 70.4854Z" fill="#66B7E0"/>
<path d="M97.7842 61.6773H102.798C103.558 64.9103 106.465 67.3251 109.927 67.3251C113.966 67.3251 117.252 64.0392 117.252 60C117.252 55.9608 113.966 52.6749 109.927 52.6749C106.465 52.6749 103.558 55.0895 102.798 58.3227H97.7842C97.3821 49.1564 93.7034 40.8271 87.8917 34.4804L96.3746 25.9975C98.5649 27.6862 101.306 28.694 104.279 28.694C111.432 28.694 117.252 22.8744 117.252 15.721C117.252 8.56767 111.432 2.74811 104.279 2.74811C97.1256 2.74811 91.3058 8.56767 91.3058 15.721C91.3058 18.6943 92.3135 21.435 94.0022 23.6254L85.5193 32.1083C79.1726 26.2965 70.8436 22.6179 61.6773 22.2158V17.2024C64.9102 16.4418 67.3251 13.5352 67.3251 10.0732C67.3251 6.03405 64.0391 2.74811 60 2.74811C55.9608 2.74811 52.6748 6.03405 52.6748 10.0732C52.6748 13.5352 55.0895 16.4418 58.3227 17.2024V22.2144C54.7938 22.3685 51.3267 23.0077 47.9936 24.1225C47.1149 24.4164 46.641 25.3669 46.9351 26.2453C47.2292 27.1238 48.1795 27.5972 49.0577 27.3038C52.574 26.1275 56.2553 25.5312 60 25.5312C79.006 25.5312 94.4687 40.9939 94.4687 60C94.4687 79.0061 79.006 94.4688 60 94.4688C40.9939 94.4688 25.5312 79.0061 25.5312 60C25.5312 47.8016 31.7772 36.7557 42.2393 30.4529C43.0328 29.9747 43.2884 28.944 42.8105 28.1507C42.3326 27.3573 41.3016 27.1014 40.5084 27.5796C38.3462 28.8823 36.3254 30.401 34.4712 32.0989L25.9977 23.6254C27.6864 21.435 28.6941 18.6943 28.6941 15.721C28.6941 8.56767 22.8743 2.74811 15.721 2.74811C8.56761 2.74811 2.74805 8.56767 2.74805 15.721C2.74805 22.8744 8.56761 28.694 15.721 28.694C18.6943 28.694 21.4352 27.6862 23.6253 25.9975L32.0975 34.4695C30.2422 36.4956 28.6038 38.7218 27.2244 41.1098C24.2005 46.3454 22.4868 52.2641 22.2182 58.3225H17.2021C16.4415 55.0895 13.5349 52.6747 10.0732 52.6747C6.03399 52.6749 2.74805 55.9608 2.74805 60C2.74805 64.0392 6.03399 67.3251 10.0732 67.3251C13.5349 67.3251 16.4415 64.9105 17.2021 61.6773H22.2157C22.6178 70.8437 26.2965 79.1729 32.1082 85.5196L23.6253 94.0025C21.435 92.3138 18.694 91.3061 15.721 91.3061C8.56761 91.3061 2.74805 97.1256 2.74805 104.279C2.74805 111.432 8.56761 117.252 15.721 117.252C22.8743 117.252 28.6941 111.432 28.6941 104.279C28.6941 101.306 27.6864 98.565 25.9977 96.3747L34.4806 87.8918C40.8273 93.7035 49.1565 97.3822 58.3227 97.7843V102.798C55.0897 103.558 52.6748 106.465 52.6748 109.927C52.6748 113.966 55.9608 117.252 60 117.252C64.0391 117.252 67.3251 113.966 67.3251 109.927C67.3251 106.465 64.9104 103.558 61.6773 102.798V97.7843C70.8436 97.3822 79.1726 93.7035 85.5193 87.8918L94.0022 96.3747C92.3135 98.565 91.3058 101.306 91.3058 104.279C91.3058 111.432 97.1254 117.252 104.279 117.252C111.432 117.252 117.252 111.432 117.252 104.279C117.252 97.1256 111.432 91.3061 104.279 91.3061C101.306 91.3061 98.5647 92.3138 96.3746 94.0025L87.8917 85.5196C93.7034 79.1729 97.3821 70.8437 97.7842 61.6773ZM104.279 6.10271C109.583 6.10271 113.897 10.4174 113.897 15.721C113.897 21.0244 109.583 25.3394 104.279 25.3394C98.9753 25.3394 94.6604 21.0247 94.6604 15.721C94.6604 10.4174 98.9753 6.10271 104.279 6.10271ZM56.0294 10.0732C56.0294 7.88378 57.8107 6.10271 60 6.10271C62.1892 6.10271 63.9705 7.88378 63.9705 10.0732C63.9705 12.2627 62.1892 14.0437 60 14.0437C57.8107 14.0437 56.0294 12.2627 56.0294 10.0732ZM109.927 56.0295C112.116 56.0295 113.897 57.8106 113.897 60C113.897 62.1895 112.116 63.9705 109.927 63.9705C107.738 63.9705 105.956 62.1895 105.956 60C105.956 57.8106 107.738 56.0295 109.927 56.0295ZM6.10265 15.721C6.10265 10.4174 10.4173 6.10271 15.721 6.10271C21.0246 6.10271 25.3395 10.4174 25.3395 15.721C25.3395 21.0244 21.0246 25.3394 15.721 25.3394C10.4173 25.3394 6.10265 21.0247 6.10265 15.721ZM10.0732 63.9705C7.88395 63.9705 6.10265 62.1895 6.10265 60C6.10265 57.8106 7.88395 56.0295 10.0732 56.0295C12.2624 56.0295 14.0437 57.8106 14.0437 60C14.0437 62.1895 12.2624 63.9705 10.0732 63.9705ZM15.721 113.897C10.4173 113.897 6.10265 109.583 6.10265 104.279C6.10265 98.9756 10.4173 94.6607 15.721 94.6607C21.0246 94.6607 25.3395 98.9754 25.3395 104.279C25.3395 109.583 21.0246 113.897 15.721 113.897ZM63.9705 109.927C63.9705 112.116 62.1892 113.897 60 113.897C57.8107 113.897 56.0294 112.116 56.0294 109.927C56.0294 107.737 57.8107 105.956 60 105.956C62.1892 105.956 63.9705 107.737 63.9705 109.927ZM113.897 104.279C113.897 109.583 109.583 113.897 104.279 113.897C98.9753 113.897 94.6604 109.583 94.6604 104.279C94.6604 98.9756 98.9753 94.6607 104.279 94.6607C109.583 94.6607 113.897 98.9754 113.897 104.279Z" fill="#083863"/>
<path d="M82.3862 59.1882C82.8626 58.2507 82.9453 57.1839 82.619 56.1842L79.115 45.4459C78.4419 43.3824 76.2155 42.2505 74.152 42.9246L72.3101 43.5255L70.0272 36.5294C69.8599 36.0168 69.4565 35.616 68.9427 35.4519C68.4297 35.2877 67.8679 35.3808 67.4347 35.7015L44.6843 52.5396L36.3523 55.2581C35.9292 55.3961 35.5785 55.6965 35.3772 56.093C35.1757 56.4895 35.14 56.95 35.2782 57.3729L40.1837 72.4069C40.3217 72.8298 40.6221 73.1804 41.0186 73.3819C41.2563 73.5027 41.5166 73.5638 41.7781 73.5638C41.9532 73.5638 42.1287 73.5362 42.2982 73.481L45.2429 72.52L50.9384 83.4455C51.2338 84.0122 51.8148 84.3479 52.4256 84.3477C52.5984 84.3477 52.774 84.3209 52.9458 84.2647L59.3888 82.1625C59.8578 82.0095 60.2353 81.6582 60.4216 81.2017C60.6079 80.7453 60.584 80.2298 60.3559 79.7928L55.665 70.7946L65.4287 70.8566H65.4396C66.3608 70.8566 67.1109 70.1125 67.1167 69.19C67.1225 68.2637 66.3763 67.508 65.4502 67.502L51.5883 67.4139L47.433 54.6787L67.56 39.7822L69.6407 46.1589C69.6409 46.1593 69.641 46.16 69.6412 46.1604C69.6414 46.1609 69.6416 46.1613 69.6418 46.162L74.5461 61.1922C74.5463 61.1931 74.5465 61.1938 74.5467 61.1947C74.5469 61.1951 74.5472 61.1956 74.5474 61.196L76.6281 67.5729L73.2972 67.5516C72.3758 67.5369 71.6152 68.2919 71.6092 69.2184C71.6034 70.1447 72.3497 70.9004 73.2758 70.9062L78.9337 70.9422H78.9444C79.4796 70.9422 79.983 70.6869 80.299 70.2543C80.617 69.8189 80.7062 69.2573 80.5389 68.7448L78.256 61.7486L80.0977 61.1477C81.0971 60.8214 81.9099 60.1257 82.3862 59.1882ZM56.4661 79.5877L53.2562 80.635L48.4759 71.4653L50.6297 70.7624L51.8694 70.7703L56.4661 79.5877ZM48.2538 68.0092L42.8522 69.7717L38.9875 57.9271L44.3891 56.1645L48.2538 68.0092ZM79.3955 57.6687C79.3545 57.749 79.2566 57.8935 79.0571 57.9586L77.2154 58.5595L73.3507 46.7146L75.1924 46.1137C75.3921 46.0486 75.5562 46.1074 75.6363 46.1481C75.7164 46.1891 75.8608 46.2873 75.9259 46.4865L79.4299 57.2248C79.495 57.4241 79.4362 57.5885 79.3955 57.6687Z" fill="#083863"/>
</g>
<defs>
<clipPath id="clip0_110_8757">
<rect width="120" height="120" fill="white"/>
</clipPath>
</defs>
</svg>
