<svg width="120" height="120" viewBox="0 0 120 120" fill="none" xmlns="http://www.w3.org/2000/svg">
<path fill-rule="evenodd" clip-rule="evenodd" d="M33.5485 24.3608H86.4468C91.5084 24.3608 95.6368 28.4892 95.6368 33.5508V86.4491C95.6368 91.5108 91.5084 95.6392 86.4468 95.6392H33.5485C28.4868 95.6392 24.3584 91.5108 24.3584 86.4491V33.5508C24.3584 28.4892 28.4868 24.3608 33.5485 24.3608Z" fill="white"/>
<path fill-rule="evenodd" clip-rule="evenodd" d="M10.3639 56.216C12.4537 56.216 14.1478 57.9101 14.1478 59.9998C14.1478 62.0896 12.4537 63.7837 10.3639 63.7837C8.27413 63.7837 6.58008 62.0896 6.58008 59.9998C6.58008 57.9101 8.27413 56.216 10.3639 56.216ZM6.58008 21.4263C6.58008 19.3365 8.27413 17.6424 10.3639 17.6424C12.4537 17.6424 14.1478 19.3365 14.1478 21.4263C14.1478 23.5161 12.4537 25.2101 10.3639 25.2101C8.27413 25.2101 6.58008 23.5161 6.58008 21.4263ZM17.6416 10.3648C17.6416 8.27498 19.3356 6.58093 21.4254 6.58093C23.5152 6.58093 25.2093 8.27498 25.2093 10.3648C25.2093 12.4546 23.5152 14.1486 21.4254 14.1486C19.3356 14.1486 17.6416 12.4546 17.6416 10.3648ZM59.999 7.42829C62.0888 7.42829 63.7828 9.12234 63.7828 11.2121C63.7828 13.3019 62.0888 14.996 59.999 14.996C57.9092 14.996 56.2152 13.3019 56.2152 11.2121C56.2152 9.12234 57.9092 7.42829 59.999 7.42829ZM98.5723 6.58093C100.662 6.58093 102.356 8.27498 102.356 10.3648C102.356 12.4546 100.662 14.1486 98.5723 14.1486C96.4826 14.1486 94.7885 12.4546 94.7885 10.3648C94.7885 8.27498 96.4828 6.58093 98.5723 6.58093ZM109.634 17.6424C111.724 17.6424 113.418 19.3365 113.418 21.4263C113.418 23.5161 111.724 25.2101 109.634 25.2101C107.544 25.2101 105.85 23.5161 105.85 21.4263C105.85 19.3365 107.544 17.6424 109.634 17.6424ZM109.634 56.216C111.724 56.216 113.418 57.9101 113.418 59.9998C113.418 62.0896 111.724 63.7837 109.634 63.7837C107.544 63.7837 105.85 62.0896 105.85 59.9998C105.85 57.9101 107.544 56.216 109.634 56.216ZM113.418 98.5732C113.418 100.663 111.724 102.357 109.634 102.357C107.544 102.357 105.85 100.663 105.85 98.5732C105.85 96.4834 107.544 94.7894 109.634 94.7894C111.724 94.7894 113.418 96.4836 113.418 98.5732ZM102.356 109.635C102.356 111.725 100.662 113.419 98.5723 113.419C96.4826 113.419 94.7885 111.725 94.7885 109.635C94.7885 107.545 96.4826 105.851 98.5723 105.851C100.662 105.851 102.356 107.545 102.356 109.635ZM59.999 105.851C62.0888 105.851 63.7828 107.545 63.7828 109.635C63.7828 111.725 62.0888 113.419 59.999 113.419C57.9092 113.419 56.2152 111.725 56.2152 109.635C56.2152 107.545 57.9092 105.851 59.999 105.851ZM21.4254 113.419C19.3356 113.419 17.6416 111.725 17.6416 109.635C17.6416 107.545 19.3356 105.851 21.4254 105.851C23.5152 105.851 25.2093 107.545 25.2093 109.635C25.2093 111.725 23.5152 113.419 21.4254 113.419ZM10.3639 102.357C8.27413 102.357 6.58008 100.663 6.58008 98.5732C6.58008 96.4834 8.27413 94.7894 10.3639 94.7894C12.4537 94.7894 14.1478 96.4834 14.1478 98.5732C14.1478 100.663 12.4537 102.357 10.3639 102.357Z" fill="#66B7E0"/>
<path fill-rule="evenodd" clip-rule="evenodd" d="M83.9169 64.2411C78.876 64.2411 76.3466 70.3482 79.9109 73.9126C80.5676 74.5692 80.5676 75.634 79.9109 76.2906L76.2907 79.9109C75.6341 80.5675 74.5693 80.5675 73.9127 79.9109C70.3483 76.3465 64.2412 78.8759 64.2412 83.9169C64.2412 84.8459 63.4882 85.5982 62.5596 85.5982H57.4403C56.5117 85.5982 55.7587 84.8457 55.7587 83.9169C55.7587 78.8694 49.656 76.3418 46.0872 79.9109C45.4306 80.5675 44.3656 80.5675 43.7092 79.9109L40.0889 76.2906C39.4323 75.634 39.4323 74.569 40.0889 73.9126C43.6533 70.3482 41.1239 64.2411 36.083 64.2411C35.1539 64.2411 34.4014 63.4881 34.4014 62.5598V57.4402C34.4014 56.5118 35.1539 55.7586 36.083 55.7586C41.1239 55.7586 43.6533 49.6515 40.0889 46.0871C39.4323 45.4305 39.4323 44.3655 40.0889 43.7091L43.7092 40.0889C44.3658 39.4323 45.4308 39.4323 46.0872 40.0889C49.6516 43.6532 55.7587 41.1239 55.7587 36.0829C55.7587 35.1538 56.5117 34.4013 57.4403 34.4013H62.5596C63.488 34.4013 64.2412 35.1538 64.2412 36.0829C64.2412 41.1241 70.3483 43.6532 73.9127 40.0889C74.5693 39.4323 75.6343 39.4323 76.2907 40.0889L79.9109 43.7091C80.5676 44.3657 80.5676 45.4308 79.9109 46.0871C76.3466 49.6515 78.876 55.7586 83.9169 55.7586C84.846 55.7586 85.5985 56.5116 85.5985 57.4402V62.5595C85.5985 63.4881 84.846 64.2411 83.9169 64.2411ZM59.9999 47.4903C53.0911 47.4903 47.4903 53.091 47.4903 59.9999C47.4903 66.9087 53.0911 72.5095 59.9999 72.5095C66.9088 72.5095 72.5095 66.9087 72.5095 59.9999C72.5095 53.091 66.9088 47.4903 59.9999 47.4903Z" fill="#BB45FF"/>
<path fill-rule="evenodd" clip-rule="evenodd" d="M59.9988 70.9364C53.9661 70.9364 49.054 66.0232 49.054 59.9842C49.054 53.9452 53.9661 49.0331 59.9988 49.0331C66.0421 49.0331 70.9542 53.9452 70.9542 59.9842C70.9542 66.0232 66.0421 70.9364 59.9988 70.9364ZM99.1431 5.03815H98.0037C95.8558 5.2674 94.0781 6.77916 93.4616 8.79083H83.7318C82.873 8.79083 82.1712 9.4895 82.1712 10.3493V22.7866H61.5593V16.3066C63.7484 15.6374 65.3403 13.6003 65.3403 11.1967C65.3403 8.25152 62.9418 5.85523 59.9988 5.85523C57.0559 5.85523 54.6574 8.25152 54.6574 11.1967C54.6574 13.6003 56.2597 15.6374 58.4488 16.3066V22.7866H37.8264V10.3493C37.8264 9.4895 37.1351 8.79083 36.2764 8.79083H26.5361C25.9196 6.77916 24.1507 5.2674 21.9962 5.03815H20.8561C18.1792 5.32327 16.0834 7.59647 16.0834 10.3493C16.0834 13.2945 18.4819 15.6908 21.4248 15.6908C23.8338 15.6908 25.8655 14.0955 26.5359 11.9078H34.7157V22.7866H33.5531C27.6252 22.7866 22.8073 27.6085 22.8073 33.5356V34.6981H11.9254V26.5203C14.1144 25.8522 15.7063 23.814 15.7063 21.4104C15.7063 18.4652 13.3078 16.0689 10.3649 16.0689C7.42195 16.0689 5.02344 18.4652 5.02344 21.4104C5.02344 23.814 6.626 25.8522 8.80438 26.5203V36.2566C8.80438 37.1175 9.50617 37.8151 10.3649 37.8151H22.8075V58.4268H15.476C14.8056 56.2388 12.7739 54.6427 10.3649 54.6427C7.42195 54.6427 5.02344 57.039 5.02344 59.9842C5.02344 62.9305 7.42195 65.3256 10.3649 65.3256C12.7739 65.3256 14.8056 63.7304 15.476 61.5427H22.8075V82.1544H10.3649C9.50617 82.1544 8.80438 82.8519 8.80438 83.7118V93.448C6.626 94.1173 5.02344 96.1544 5.02344 98.558C5.02344 101.503 7.42195 103.899 10.3649 103.899C13.3078 103.899 15.7063 101.503 15.7063 98.558C15.7063 96.1544 14.1144 94.1173 11.9254 93.448V85.2702H22.8073V86.4339C22.8073 92.3598 27.625 97.1818 33.5531 97.1818H34.7157V108.062H26.5359C25.8657 105.874 23.8338 104.278 21.4248 104.278C18.4819 104.278 16.0834 106.674 16.0834 109.619C16.0834 112.565 18.4819 114.962 21.4248 114.962C23.8338 114.962 25.8655 113.365 26.5359 111.178H36.2762C37.1349 111.178 37.8367 110.48 37.8367 109.619V97.1818H58.4486V104.51C56.2595 105.178 54.6572 107.217 54.6572 109.619C54.6572 112.566 57.0557 114.962 59.9986 114.962C62.9416 114.962 65.3401 112.566 65.3401 109.619C65.3401 107.217 63.7482 105.179 61.5591 104.51V97.1818H82.171V109.619C82.171 110.48 82.8728 111.178 83.7315 111.178H93.4613C94.1317 113.365 96.1739 114.962 98.5724 114.962C101.526 114.962 103.914 112.565 103.914 109.619C103.914 106.674 101.526 104.278 98.5724 104.278C96.1739 104.278 94.1317 105.874 93.4613 108.062H85.2816V97.1818H86.4546C92.3825 97.1818 97.2004 92.3598 97.2004 86.4339V85.2702H108.082V93.448C105.893 94.1173 104.291 96.1544 104.291 98.558C104.291 101.503 106.689 103.899 109.632 103.899C112.586 103.899 114.974 101.503 114.974 98.558C114.974 96.1544 113.382 94.1173 111.193 93.448V83.7118C111.193 82.8519 110.502 82.1544 109.632 82.1544H97.2007V61.5427H104.522C105.192 63.7306 107.234 65.3256 109.633 65.3256C112.586 65.3256 114.974 62.9302 114.974 59.9842C114.974 57.039 112.586 54.6427 109.633 54.6427C107.234 54.6427 105.192 56.2388 104.522 58.4268H97.2007V37.8151H109.633C110.502 37.8151 111.193 37.1175 111.193 36.2566V26.5203C113.382 25.8522 114.974 23.814 114.974 21.4104C114.974 18.4652 112.586 16.0689 109.633 16.0689C106.69 16.0689 104.291 18.4652 104.291 21.4104C104.291 23.814 105.894 25.8522 108.083 26.5203V34.6981H97.2009V33.5356C97.2009 27.6088 92.3832 22.7866 86.455 22.7866H85.282V11.9078H93.4618C94.1322 14.0958 96.1744 15.6908 98.5729 15.6908C101.526 15.6908 103.914 13.2945 103.914 10.3493C103.914 7.59647 101.828 5.32327 99.1431 5.03815ZM59.9988 45.9163C52.2484 45.9163 45.933 52.2275 45.933 59.9844C45.933 67.7411 52.2484 74.0523 59.9988 74.0523C67.7597 74.0523 74.0647 67.7411 74.0647 59.9844C74.0647 52.2275 67.7597 45.9163 59.9988 45.9163ZM84.046 62.5441V57.4245C84.046 57.3564 83.9833 57.301 83.9203 57.301C80.9457 57.301 78.3903 55.5918 77.2487 52.8403C76.1071 50.089 76.704 47.0735 78.8092 44.9706C78.8197 44.9612 78.851 44.9338 78.851 44.8826C78.851 44.8312 78.8197 44.8041 78.8092 44.7956L75.1959 41.1749C75.1854 41.1665 75.154 41.1393 75.1015 41.1393C75.0492 41.1393 75.0283 41.1665 75.0178 41.1749C72.9126 43.2781 69.8963 43.8759 67.1416 42.7377C64.3977 41.5972 62.6798 39.0415 62.6798 36.067C62.6798 35.9989 62.6275 35.9443 62.5645 35.9443H57.443C57.3697 35.9443 57.3172 35.9989 57.3172 36.067C57.3172 39.0415 55.61 41.5969 52.8554 42.7377C50.1008 43.8761 47.0846 43.2781 44.9899 41.1749C44.9794 41.1665 44.9481 41.1393 44.8955 41.1393C44.8432 41.1393 44.8223 41.1665 44.8118 41.1749L41.188 44.7956C41.1776 44.8041 41.1567 44.8312 41.1567 44.8826C41.1567 44.9338 41.1776 44.9612 41.188 44.9697C43.2932 47.0737 43.8901 50.0892 42.759 52.8405C41.6174 55.5918 39.0617 57.3012 36.0874 57.3012C36.0142 57.3012 35.9617 57.3569 35.9617 57.4247V62.5443C35.9617 62.6124 36.014 62.6678 36.0874 62.6678C39.062 62.6678 41.6174 64.377 42.759 67.1285C43.8901 69.88 43.2932 72.8964 41.188 74.9994C41.1776 75.0087 41.1567 75.035 41.1567 75.0864C41.1567 75.1376 41.1776 75.1649 41.188 75.1732L44.8118 78.7939C44.8642 78.8419 44.9376 78.8419 44.9899 78.7939C46.3828 77.3945 48.1844 76.6605 50.0487 76.6605C50.9913 76.6605 51.9339 76.847 52.8556 77.2283C55.6103 78.3676 57.3174 80.9244 57.3174 83.9018C57.3174 83.9699 57.3697 84.0254 57.4432 84.0254H62.5647C62.6275 84.0254 62.68 83.9699 62.68 83.9018C62.68 80.9273 64.3977 78.3719 67.1418 77.2323C69.8963 76.0927 72.9126 76.6907 75.018 78.7939C75.0599 78.8419 75.1438 78.8419 75.1961 78.7939L78.8094 75.1732C78.8199 75.1649 78.8513 75.1376 78.8513 75.0864C78.8513 75.035 78.8199 75.0089 78.8094 74.9994C76.7043 72.8962 76.1073 69.8798 77.2489 67.1285C78.3905 64.3772 80.946 62.6678 83.9205 62.6678C83.983 62.6676 84.046 62.6122 84.046 62.5441ZM83.9203 54.1851C81.8988 54.1851 80.6421 52.8739 80.1289 51.6475C79.6156 50.4222 79.5842 48.6019 81.0192 47.1732C81.6266 46.5616 81.9618 45.7487 81.9618 44.8826C81.9618 44.0175 81.6266 43.2037 81.0192 42.5921L77.3954 38.9725C76.128 37.7094 74.0752 37.7083 72.8185 38.9725C71.3835 40.4001 69.5613 40.3654 68.3358 39.8575C67.1105 39.3496 65.8013 38.0875 65.8013 36.0672C65.8013 34.2814 64.3454 32.8278 62.565 32.8278H57.4434C55.6525 32.8278 54.2071 34.2814 54.2071 36.0672C54.2071 38.0875 52.8979 39.3496 51.6622 39.8575C50.4369 40.3665 48.6144 40.4001 47.1901 38.9725C45.9332 37.7083 43.8699 37.7094 42.6132 38.9725L38.9894 42.5921C38.382 43.2037 38.0363 44.0175 38.0363 44.8826C38.0363 45.7487 38.382 46.5616 38.9894 47.1732C40.4137 48.6017 40.3823 50.422 39.8797 51.6475C39.3665 52.8739 38.1098 54.1851 36.0883 54.1851C34.2974 54.1851 32.8416 55.6379 32.8416 57.4245V62.5441C32.8416 64.3309 34.2974 65.7835 36.0883 65.7835C38.1098 65.7835 39.3667 67.0938 39.8797 68.3202C40.3825 69.5477 40.4139 71.3669 38.9894 72.7956C38.382 73.4072 38.0363 74.221 38.0363 75.0862C38.0363 75.9513 38.382 76.7651 38.9894 77.3767L42.6132 80.9974C43.8701 82.2605 45.9334 82.2594 47.1901 80.9974C48.6251 79.5667 50.4473 79.5992 51.6622 80.1071C52.8981 80.615 54.2071 81.8782 54.2071 83.9016C54.2071 85.6885 55.6525 87.141 57.4434 87.141H62.565C64.3454 87.141 65.8013 85.6885 65.8013 83.9016C65.8013 81.8824 67.1105 80.6192 68.3358 80.1111C69.5611 79.6032 71.3835 79.5687 72.8185 80.9972C74.0754 82.2603 76.1282 82.2592 77.3954 80.9972L81.0192 77.3765C81.6266 76.7648 81.9618 75.9511 81.9618 75.0859C81.9618 74.2208 81.6266 73.407 81.0192 72.7954C79.5842 71.3669 79.6158 69.5475 80.1289 68.32C80.6421 67.0936 81.8988 65.7832 83.9203 65.7832C85.7007 65.7832 87.1566 64.3307 87.1566 62.5438V57.4243C87.1566 55.6379 85.7007 54.1851 83.9203 54.1851ZM94.0797 86.4341V33.5356C94.0797 29.3273 90.6548 25.9036 86.455 25.9036H33.5531C29.3428 25.9036 25.918 29.3273 25.918 33.5356V86.4341C25.918 90.6424 29.3428 94.0652 33.5531 94.0652H86.4548C90.6546 94.065 94.0797 90.6422 94.0797 86.4341ZM111.863 98.5582C111.863 99.7857 110.858 100.784 109.633 100.784C108.407 100.784 107.412 99.7857 107.412 98.5582C107.412 97.3307 108.407 96.3315 109.633 96.3315C110.858 96.3315 111.863 97.3307 111.863 98.5582ZM98.5726 107.394C99.8086 107.394 100.804 108.393 100.804 109.619C100.804 110.847 99.8086 111.846 98.5726 111.846C97.3473 111.846 96.3522 110.847 96.3522 109.619C96.3522 108.393 97.3473 107.394 98.5726 107.394ZM62.2298 109.619C62.2298 110.847 61.2244 111.846 59.9988 111.846C58.7735 111.846 57.7784 110.847 57.7784 109.619C57.7784 108.392 58.7733 107.394 59.9988 107.394C61.2241 107.394 62.2298 108.392 62.2298 109.619ZM21.425 111.846C20.1997 111.846 19.2046 110.847 19.2046 109.619C19.2046 108.392 20.1995 107.394 21.425 107.394C22.6506 107.394 23.656 108.392 23.656 109.619C23.6557 110.847 22.6503 111.846 21.425 111.846ZM12.5958 98.5582C12.5958 99.7857 11.5904 100.784 10.3649 100.784C9.13959 100.784 8.14444 99.7857 8.14444 98.5582C8.14444 97.3307 9.13936 96.3315 10.3649 96.3315C11.5904 96.3315 12.5958 97.3307 12.5958 98.5582ZM10.3649 62.21C9.13959 62.21 8.14444 61.2119 8.14444 59.9844C8.14444 58.758 9.13936 57.7588 10.3649 57.7588C11.5904 57.7588 12.5958 58.758 12.5958 59.9844C12.5958 61.2117 11.5904 62.21 10.3649 62.21ZM8.14466 21.4104C8.14466 20.184 9.13959 19.1848 10.3651 19.1848C11.5906 19.1848 12.596 20.184 12.596 21.4104C12.596 22.6379 11.5906 23.6371 10.3651 23.6371C9.13959 23.6371 8.14466 22.6379 8.14466 21.4104ZM21.425 12.5751C20.1997 12.5751 19.2046 11.5771 19.2046 10.3495C19.2046 9.12202 20.1995 8.12398 21.425 8.12398C22.6506 8.12398 23.656 9.12202 23.656 10.3495C23.6557 11.5768 22.6503 12.5751 21.425 12.5751ZM57.7784 11.1967C57.7784 9.96916 58.7733 8.97112 59.9988 8.97112C61.2241 8.97112 62.2298 9.96916 62.2298 11.1967C62.2298 12.4242 61.2244 13.4222 59.9988 13.4222C58.7733 13.4222 57.7784 12.4242 57.7784 11.1967ZM98.5726 8.12376C99.8086 8.12376 100.804 9.1218 100.804 10.3493C100.804 11.5768 99.8086 12.5749 98.5726 12.5749C97.3473 12.5749 96.3522 11.5768 96.3522 10.3493C96.3522 9.1218 97.3473 8.12376 98.5726 8.12376ZM107.412 21.4104C107.412 20.184 108.407 19.1848 109.633 19.1848C110.858 19.1848 111.864 20.184 111.864 21.4104C111.864 22.6379 110.858 23.6371 109.633 23.6371C108.407 23.6371 107.412 22.6379 107.412 21.4104ZM109.633 57.7586C110.858 57.7586 111.863 58.7578 111.863 59.9842C111.863 61.2117 110.858 62.2097 109.633 62.2097C108.407 62.2097 107.412 61.2117 107.412 59.9842C107.412 58.7578 108.407 57.7586 109.633 57.7586Z" fill="#083863"/>
</svg>
