<svg width="120" height="120" viewBox="0 0 120 120" fill="none" xmlns="http://www.w3.org/2000/svg">
<g clip-path="url(#clip0_110_8729)">
<g clip-path="url(#clip1_110_8729)">
<g clip-path="url(#clip2_110_8729)">
<path d="M91.8457 117.656H6.5332C3.9443 117.656 1.8457 115.558 1.8457 112.969V7.03125C1.8457 4.44234 3.9443 2.34375 6.5332 2.34375H91.8457C94.4346 2.34375 96.5332 4.44234 96.5332 7.03125V112.969C96.5332 115.558 94.4346 117.656 91.8457 117.656Z" fill="#F9F6F9"/>
<path d="M49.1895 53.4375C59.8037 53.4375 68.4082 44.833 68.4082 34.2188C68.4082 23.6045 59.8037 15 49.1895 15C38.5752 15 29.9707 23.6045 29.9707 34.2188C29.9707 44.833 38.5752 53.4375 49.1895 53.4375Z" fill="#BB45FF"/>
<path d="M55.2832 31.7578V33.2812C55.2832 36.6466 52.5548 39.375 49.1895 39.375C45.8241 39.375 43.0957 36.6466 43.0957 33.2812V31.7578C43.0957 28.3924 45.8241 25.6641 49.1895 25.6641C52.5548 25.6641 55.2832 28.3924 55.2832 31.7578Z" fill="#FFCDAC"/>
<path d="M49.1891 39.375C43.2407 39.375 38.1585 43.0704 36.1035 48.289C39.5348 51.4816 44.1325 53.4375 49.1891 53.4375C54.2458 53.4375 58.8435 51.4816 62.2748 48.289C60.2198 43.0704 55.1376 39.375 49.1891 39.375Z" fill="#66B7E0"/>
<path d="M101.822 37.6383L103.161 35.3187C105.232 31.7315 109.819 30.5025 113.406 32.5734C116.993 34.6446 118.222 39.2313 116.151 42.8187L86.6575 93.9037L73.667 86.4037L86.3893 64.3678L101.822 37.6383Z" fill="#66B7E0"/>
<path d="M113.407 32.5735C109.82 30.5023 105.233 31.7313 103.162 35.3187L99.6797 41.3499L112.67 48.8499L116.152 42.8187C118.223 39.2316 116.994 34.6446 113.407 32.5735Z" fill="#BB45FF"/>
<path d="M86.6574 93.9037L71.5908 105L73.6669 86.4037L86.6574 93.9037Z" fill="#BB45FF"/>
<path d="M96.5332 93.3581C95.239 93.3581 94.1895 94.4074 94.1895 95.7019V112.969C94.1895 114.261 93.138 115.312 91.8457 115.312H6.5332C5.24086 115.312 4.18945 114.261 4.18945 112.969V7.03125C4.18945 5.73891 5.24086 4.6875 6.5332 4.6875H91.8457C93.138 4.6875 94.1895 5.73891 94.1895 7.03125V32.5195C94.1895 33.814 95.239 34.8633 96.5332 34.8633C97.8274 34.8633 98.877 33.814 98.877 32.5195V7.03125C98.877 3.15422 95.7227 0 91.8457 0H6.5332C2.65617 0 -0.498047 3.15422 -0.498047 7.03125V112.969C-0.498047 116.846 2.65617 120 6.5332 120H91.8457C95.7227 120 98.877 116.846 98.877 112.969V95.7019C98.877 94.4074 97.8274 93.3581 96.5332 93.3581Z" fill="#0D365B"/>
<path d="M70.7519 34.2188C70.7519 22.3291 61.0791 12.6562 49.1895 12.6562C37.2998 12.6562 27.627 22.3291 27.627 34.2188C27.627 40.3868 30.2309 45.9574 34.3962 49.8912C34.4742 49.9746 34.5572 50.0536 34.6479 50.1255C38.4848 53.6362 43.5912 55.781 49.1892 55.781C54.7873 55.781 59.8936 53.636 63.7305 50.1255C63.8213 50.0536 63.9042 49.9744 63.9823 49.8912C68.148 45.9574 70.7519 40.3868 70.7519 34.2188ZM49.1895 17.3438C58.4944 17.3438 66.0644 24.9138 66.0644 34.2188C66.0644 37.961 64.8384 41.4211 62.7691 44.2226C61.0406 41.659 58.6451 39.6652 55.8637 38.4342C56.9677 37.0076 57.627 35.2205 57.627 33.2812V31.7578C57.627 27.1052 53.842 23.3203 49.1895 23.3203C44.5369 23.3203 40.752 27.1052 40.752 31.7578V33.2812C40.752 35.2205 41.4112 37.0076 42.5152 38.4342C39.7338 39.6652 37.3383 41.659 35.6098 44.2226C33.5405 41.4211 32.3145 37.961 32.3145 34.2188C32.3145 24.9138 39.8845 17.3438 49.1895 17.3438ZM45.4395 33.2812V31.7578C45.4395 29.6902 47.1218 28.0078 49.1895 28.0078C51.2571 28.0078 52.9395 29.6902 52.9395 31.7578V33.2812C52.9395 35.3489 51.2571 37.0312 49.1895 37.0312C47.1218 37.0312 45.4395 35.3489 45.4395 33.2812ZM38.9963 47.6559C41.0562 44.0032 44.9002 41.7188 49.1895 41.7188C53.4788 41.7188 57.3227 44.0032 59.3827 47.6559C56.5484 49.8112 53.0166 51.0938 49.1895 51.0938C45.3623 51.0938 41.8303 49.8112 38.9963 47.6559Z" fill="#0D365B"/>
<path d="M61.8457 102.656H49.1895C47.8952 102.656 46.8457 103.706 46.8457 105C46.8457 106.294 47.8952 107.344 49.1895 107.344H61.8457C63.1399 107.344 64.1894 106.294 64.1894 105C64.1894 103.706 63.1399 102.656 61.8457 102.656Z" fill="#0D365B"/>
<path d="M61.8457 89.5312H28.5645C27.2702 89.5312 26.2207 90.5805 26.2207 91.875C26.2207 93.1695 27.2702 94.2188 28.5645 94.2188H61.8457C63.1399 94.2188 64.1894 93.1695 64.1894 91.875C64.1894 90.5805 63.1399 89.5312 61.8457 89.5312Z" fill="#0D365B"/>
<path d="M61.8457 76.4062H28.5645C27.2702 76.4062 26.2207 77.4555 26.2207 78.75C26.2207 80.0445 27.2702 81.0938 28.5645 81.0938H61.8457C63.1399 81.0938 64.1894 80.0445 64.1894 78.75C64.1894 77.4555 63.1399 76.4062 61.8457 76.4062Z" fill="#0D365B"/>
<path d="M20.2109 63.968C19.7752 63.532 19.1705 63.2812 18.5518 63.2812C17.9351 63.2812 17.3304 63.532 16.8947 63.968C16.4588 64.4039 16.208 65.0086 16.208 65.625C16.208 66.2414 16.4586 66.8461 16.8947 67.282C17.333 67.718 17.9351 67.9688 18.5518 67.9688C19.1705 67.9688 19.7729 67.718 20.2109 67.282C20.6468 66.8461 20.8979 66.2414 20.8979 65.625C20.8979 65.0086 20.6471 64.4039 20.2109 63.968Z" fill="#0D365B"/>
<path d="M20.2109 77.093C19.7729 76.657 19.1705 76.4062 18.5518 76.4062C17.9351 76.4062 17.333 76.657 16.8947 77.093C16.4588 77.5289 16.208 78.1336 16.208 78.75C16.208 79.3664 16.4586 79.9711 16.8947 80.407C17.333 80.843 17.9351 81.0938 18.5518 81.0938C19.1705 81.0938 19.7729 80.843 20.2109 80.407C20.6468 79.9711 20.8979 79.3664 20.8979 78.75C20.8979 78.1336 20.6471 77.5289 20.2109 77.093Z" fill="#0D365B"/>
<path d="M18.5518 89.5312C17.9351 89.5312 17.333 89.782 16.8947 90.218C16.4588 90.6539 16.208 91.2586 16.208 91.875C16.208 92.4914 16.4586 93.0961 16.8947 93.532C17.3304 93.968 17.9351 94.2188 18.5518 94.2188C19.1705 94.2188 19.7752 93.968 20.2109 93.532C20.6468 93.0961 20.8979 92.4914 20.8979 91.875C20.8979 91.2586 20.6471 90.6539 20.2109 90.218C19.7729 89.782 19.1705 89.5312 18.5518 89.5312Z" fill="#0D365B"/>
<path d="M61.8457 63.2812H28.5645C27.2702 63.2812 26.2207 64.3305 26.2207 65.625C26.2207 66.9195 27.2702 67.9688 28.5645 67.9688H61.8457C63.1399 67.9688 64.1894 66.9195 64.1894 65.625C64.1894 64.3305 63.1399 63.2812 61.8457 63.2812Z" fill="#0D365B"/>
<path d="M114.578 30.5438C112.301 29.2292 109.649 28.8799 107.108 29.5603C104.569 30.241 102.446 31.8699 101.131 34.1468L71.6372 85.2319C71.4757 85.512 71.3735 85.8225 71.3376 86.1438L69.2615 104.74C69.1584 105.665 69.6126 106.564 70.4189 107.03C70.7829 107.24 71.1872 107.344 71.5905 107.344C72.0808 107.344 72.5693 107.19 72.9806 106.887L88.0472 95.7912C88.3076 95.5995 88.5255 95.356 88.687 95.0759L118.181 43.9908C120.895 39.2902 119.279 33.2578 114.578 30.5438ZM75.5986 90.2255L82.3819 94.1419L74.5144 99.9361L75.5986 90.2255ZM85.7995 90.7022L76.8687 85.546L100.537 44.5514L109.468 49.7077L85.7995 90.7022ZM114.122 41.6468L111.811 45.6483L102.881 40.4921L105.191 36.4906C105.879 35.2978 106.991 34.4447 108.322 34.0882C109.652 33.7315 111.042 33.9148 112.234 34.6034C113.427 35.292 114.28 36.4038 114.637 37.7342C114.993 39.0645 114.81 40.4541 114.122 41.6468Z" fill="#0D365B"/>
</g>
</g>
</g>
<defs>
<clipPath id="clip0_110_8729">
<rect width="120" height="120" fill="white"/>
</clipPath>
<clipPath id="clip1_110_8729">
<rect width="120" height="120" fill="white"/>
</clipPath>
<clipPath id="clip2_110_8729">
<rect width="120" height="120" fill="white" transform="translate(-0.5)"/>
</clipPath>
</defs>
</svg>
