<svg width="160" height="160" viewBox="0 0 160 160" fill="none" xmlns="http://www.w3.org/2000/svg">
<path fill-rule="evenodd" clip-rule="evenodd" d="M44.7319 32.4814H115.263C122.012 32.4814 127.516 37.986 127.516 44.7349V115.266C127.516 122.015 122.012 127.519 115.263 127.519H44.7319C37.983 127.519 32.4785 122.015 32.4785 115.266V44.7349C32.4785 37.986 37.983 32.4814 44.7319 32.4814Z" fill="white"/>
<path fill-rule="evenodd" clip-rule="evenodd" d="M13.8186 74.955C16.6049 74.955 18.8637 77.2137 18.8637 80.0001C18.8637 82.7865 16.6049 85.0452 13.8186 85.0452C11.0322 85.0452 8.77344 82.7865 8.77344 80.0001C8.77344 77.2137 11.0322 74.955 13.8186 74.955ZM8.77344 28.5687C8.77344 25.7823 11.0322 23.5236 13.8186 23.5236C16.6049 23.5236 18.8637 25.7823 18.8637 28.5687C18.8637 31.3551 16.6049 33.6138 13.8186 33.6138C11.0322 33.6138 8.77344 31.3551 8.77344 28.5687ZM23.5221 13.82C23.5221 11.0336 25.7808 8.7749 28.5672 8.7749C31.3536 8.7749 33.6123 11.0336 33.6123 13.82C33.6123 16.6064 31.3536 18.8651 28.5672 18.8651C25.7808 18.8651 23.5221 16.6064 23.5221 13.82ZM79.9987 9.90471C82.785 9.90471 85.0438 12.1634 85.0438 14.9498C85.0438 17.7362 82.785 19.995 79.9987 19.995C77.2123 19.995 74.9535 17.7362 74.9535 14.9498C74.9535 12.1634 77.2123 9.90471 79.9987 9.90471ZM131.43 8.7749C134.216 8.7749 136.475 11.0336 136.475 13.82C136.475 16.6064 134.216 18.8651 131.43 18.8651C128.643 18.8651 126.385 16.6064 126.385 13.82C126.385 11.0336 128.644 8.7749 131.43 8.7749ZM146.179 23.5236C148.965 23.5236 151.224 25.7823 151.224 28.5687C151.224 31.3551 148.965 33.6138 146.179 33.6138C143.392 33.6138 141.134 31.3551 141.134 28.5687C141.134 25.7823 143.392 23.5236 146.179 23.5236ZM146.179 74.955C148.965 74.955 151.224 77.2137 151.224 80.0001C151.224 82.7865 148.965 85.0452 146.179 85.0452C143.392 85.0452 141.134 82.7865 141.134 80.0001C141.134 77.2137 143.392 74.955 146.179 74.955ZM151.224 131.431C151.224 134.218 148.965 136.476 146.179 136.476C143.392 136.476 141.134 134.218 141.134 131.431C141.134 128.645 143.392 126.386 146.179 126.386C148.965 126.386 151.224 128.645 151.224 131.431ZM136.475 146.18C136.475 148.967 134.216 151.225 131.43 151.225C128.643 151.225 126.385 148.967 126.385 146.18C126.385 143.394 128.643 141.135 131.43 141.135C134.216 141.135 136.475 143.394 136.475 146.18ZM79.9987 141.135C82.785 141.135 85.0438 143.394 85.0438 146.18C85.0438 148.967 82.785 151.225 79.9987 151.225C77.2123 151.225 74.9535 148.967 74.9535 146.18C74.9535 143.394 77.2123 141.135 79.9987 141.135ZM28.5672 151.225C25.7808 151.225 23.5221 148.967 23.5221 146.18C23.5221 143.394 25.7808 141.135 28.5672 141.135C31.3536 141.135 33.6123 143.394 33.6123 146.18C33.6123 148.967 31.3536 151.225 28.5672 151.225ZM13.8186 136.476C11.0322 136.476 8.77344 134.218 8.77344 131.431C8.77344 128.645 11.0322 126.386 13.8186 126.386C16.6049 126.386 18.8637 128.645 18.8637 131.431C18.8637 134.218 16.6049 136.476 13.8186 136.476Z" fill="#66B7E0"/>
<path fill-rule="evenodd" clip-rule="evenodd" d="M111.889 85.6551C105.168 85.6551 101.795 93.7979 106.548 98.5504C107.423 99.4259 107.423 100.846 106.548 101.721L101.721 106.548C100.845 107.424 99.4254 107.424 98.5499 106.548C93.7974 101.796 85.6546 105.168 85.6546 111.889C85.6546 113.128 84.6506 114.131 83.4125 114.131H76.5867C75.3486 114.131 74.3446 113.128 74.3446 111.889C74.3446 105.159 66.2077 101.789 61.4493 106.548C60.5738 107.424 59.1537 107.424 58.2786 106.548L53.4516 101.721C52.5761 100.846 52.5761 99.4256 53.4516 98.5504C58.2041 93.7979 54.8316 85.6551 48.1103 85.6551C46.8716 85.6551 45.8682 84.6511 45.8682 83.4132V76.5872C45.8682 75.3494 46.8716 74.3451 48.1103 74.3451C54.8316 74.3451 58.2041 66.2023 53.4516 61.4498C52.5761 60.5743 52.5761 59.1542 53.4516 58.2791L58.2786 53.4521C59.154 52.5766 60.5741 52.5766 61.4493 53.4521C66.2018 58.2046 74.3446 54.8321 74.3446 48.1108C74.3446 46.872 75.3486 45.8687 76.5867 45.8687H83.4125C84.6503 45.8687 85.6546 46.872 85.6546 48.1108C85.6546 54.8323 93.7974 58.2046 98.5499 53.4521C99.4254 52.5766 100.845 52.5766 101.721 53.4521L106.548 58.2791C107.423 59.1545 107.423 60.5746 106.548 61.4498C101.795 66.2023 105.168 74.3451 111.889 74.3451C113.128 74.3451 114.131 75.3491 114.131 76.5872V83.4129C114.131 84.6511 113.128 85.6551 111.889 85.6551ZM79.9996 63.3206C70.7878 63.3206 63.3201 70.7883 63.3201 80.0001C63.3201 89.2119 70.7878 96.6795 79.9996 96.6795C89.2114 96.6795 96.6791 89.2119 96.6791 80.0001C96.6791 70.7883 89.2114 63.3206 79.9996 63.3206Z" fill="#BB45FF"/>
<path fill-rule="evenodd" clip-rule="evenodd" d="M79.9988 94.5821C71.9551 94.5821 65.4056 88.0312 65.4056 79.9791C65.4056 71.9271 71.9551 65.3777 79.9988 65.3777C88.0564 65.3777 94.6059 71.9271 94.6059 79.9791C94.6059 88.0312 88.0564 94.5821 79.9988 94.5821ZM132.191 6.71777H130.672C127.808 7.02345 125.438 9.03912 124.616 11.7213H111.643C110.498 11.7213 109.562 12.6529 109.562 13.7993V30.3824H82.0794V21.7424C84.9982 20.85 87.1207 18.134 87.1207 14.9292C87.1207 11.0023 83.9227 7.80722 79.9988 7.80722C76.0749 7.80722 72.8769 11.0023 72.8769 14.9292C72.8769 18.134 75.0133 20.85 77.9321 21.7424V30.3824H50.4356V13.7993C50.4356 12.6529 49.5138 11.7213 48.3689 11.7213H35.3818C34.5598 9.03912 32.2013 7.02345 29.3286 6.71777H27.8085C24.2392 7.09794 21.4448 10.1289 21.4448 13.7993C21.4448 17.7262 24.6428 20.9213 28.5668 20.9213C31.7787 20.9213 34.4877 18.7943 35.3815 15.8773H46.2879V30.3824H44.7378C36.8339 30.3824 30.41 36.8116 30.41 44.7144V46.2644H15.9008V35.3607C18.8196 34.4698 20.9421 31.7522 20.9421 28.5474C20.9421 24.6205 17.7441 21.4255 13.8202 21.4255C9.89625 21.4255 6.69824 24.6205 6.69824 28.5474C6.69824 31.7522 8.835 34.4698 11.7395 35.3607V48.3424C11.7395 49.4903 12.6752 50.4204 13.8202 50.4204H30.4103V77.9026H20.6349C19.7411 74.9854 17.0321 72.8572 13.8202 72.8572C9.89625 72.8572 6.69824 76.0523 6.69824 79.9791C6.69824 83.9075 9.89625 87.1011 13.8202 87.1011C17.0321 87.1011 19.7411 84.9741 20.6349 82.0571H30.4103V109.539H13.8202C12.6752 109.539 11.7395 110.469 11.7395 111.616V124.598C8.835 125.49 6.69824 128.206 6.69824 131.411C6.69824 135.338 9.89625 138.533 13.8202 138.533C17.7441 138.533 20.9421 135.338 20.9421 131.411C20.9421 128.206 18.8196 125.49 15.9008 124.598V113.694H30.41V115.245C30.41 123.147 36.8336 129.576 44.7378 129.576H46.2879V144.082H35.3815C34.4879 141.165 31.7787 139.037 28.5668 139.037C24.6428 139.037 21.4448 142.232 21.4448 146.159C21.4448 150.087 24.6428 153.282 28.5668 153.282C31.7787 153.282 34.4877 151.154 35.3815 148.237H48.3686C49.5135 148.237 50.4492 147.307 50.4492 146.159V129.576H77.9318V139.347C75.013 140.238 72.8766 142.956 72.8766 146.159C72.8766 150.088 76.0746 153.283 79.9985 153.283C83.9224 153.283 87.1204 150.088 87.1204 146.159C87.1204 142.956 84.9979 140.238 82.0792 139.347V129.576H109.562V146.159C109.562 147.307 110.497 148.237 111.642 148.237H124.615C125.509 151.154 128.232 153.282 131.43 153.282C135.368 153.282 138.552 150.087 138.552 146.159C138.552 142.232 135.368 139.037 131.43 139.037C128.232 139.037 125.509 141.165 124.615 144.082H113.709V129.576H115.273C123.177 129.576 129.601 123.147 129.601 115.245V113.694H144.11V124.598C141.191 125.49 139.055 128.206 139.055 131.411C139.055 135.338 142.253 138.533 146.177 138.533C150.115 138.533 153.299 135.338 153.299 131.411C153.299 128.206 151.176 125.49 148.257 124.598V111.616C148.257 110.469 147.336 109.539 146.177 109.539H129.601V82.0571H139.363C140.256 84.9744 142.979 87.1011 146.177 87.1011C150.116 87.1011 153.299 83.9072 153.299 79.9791C153.299 76.0523 150.115 72.8572 146.177 72.8572C142.979 72.8572 140.257 74.9854 139.363 77.9026H129.601V50.4204H146.177C147.336 50.4204 148.258 49.4903 148.258 48.3424V35.3607C151.177 34.4698 153.299 31.7522 153.299 28.5474C153.299 24.6205 150.115 21.4255 146.177 21.4255C142.253 21.4255 139.055 24.6205 139.055 28.5474C139.055 31.7522 141.192 34.4698 144.111 35.3607V46.2644H129.602V44.7144C129.602 36.8119 123.178 30.3824 115.274 30.3824H113.71V15.8773H124.616C125.51 18.7946 128.233 20.9213 131.431 20.9213C135.369 20.9213 138.553 17.7262 138.553 13.7993C138.552 10.1289 135.771 7.09794 132.191 6.71777ZM79.9988 61.222C69.6649 61.222 61.2443 69.6369 61.2443 79.9794C61.2443 90.3216 69.6649 98.7366 79.9988 98.7366C90.3466 98.7366 98.7533 90.3216 98.7533 79.9794C98.7533 69.6369 90.3466 61.222 79.9988 61.222ZM112.062 83.3923V76.5663C112.062 76.4755 111.978 76.4016 111.894 76.4016C107.928 76.4016 104.521 74.1227 102.999 70.454C101.476 66.7856 102.272 62.7649 105.079 59.961C105.093 59.9485 105.135 59.912 105.135 59.8438C105.135 59.7752 105.093 59.739 105.079 59.7277L100.261 54.9002C100.248 54.8889 100.206 54.8527 100.136 54.8527C100.066 54.8527 100.038 54.8889 100.024 54.9002C97.2172 57.7043 93.1953 58.5015 89.5225 56.9838C85.8639 55.4631 83.5734 52.0556 83.5734 48.0895C83.5734 47.9987 83.5037 47.926 83.4197 47.926H76.591C76.4933 47.926 76.4233 47.9987 76.4233 48.0895C76.4233 52.0556 74.147 55.4628 70.4742 56.9838C66.8013 58.5018 62.7798 57.7043 59.9869 54.9002C59.9729 54.8889 59.9311 54.8527 59.861 54.8527C59.7913 54.8527 59.7634 54.8889 59.7495 54.9002L54.9177 59.7277C54.9038 59.739 54.8759 59.7752 54.8759 59.8438C54.8759 59.912 54.9038 59.9485 54.9177 59.9598C57.7246 62.7652 58.5205 66.7859 57.0123 70.4543C55.4902 74.1227 52.0827 76.4019 48.1169 76.4019C48.0193 76.4019 47.9492 76.476 47.9492 76.5666V83.3926C47.9492 83.4834 48.019 83.5573 48.1169 83.5573C52.083 83.5573 55.4902 85.8362 57.0123 89.5049C58.5205 93.1736 57.7246 97.1955 54.9177 99.9994C54.9038 100.012 54.8759 100.047 54.8759 100.115C54.8759 100.184 54.9038 100.22 54.9177 100.231L59.7495 105.059C59.8192 105.123 59.9171 105.123 59.9869 105.059C61.8441 103.193 64.2461 102.214 66.7319 102.214C67.9887 102.214 69.2456 102.463 70.4745 102.971C74.1473 104.49 76.4236 107.899 76.4236 111.869C76.4236 111.96 76.4933 112.034 76.5912 112.034H83.42C83.5037 112.034 83.5737 111.96 83.5737 111.869C83.5737 107.903 85.8639 104.496 89.5228 102.977C93.1953 101.457 97.2172 102.255 100.024 105.059C100.08 105.123 100.192 105.123 100.262 105.059L105.08 100.231C105.094 100.22 105.135 100.184 105.135 100.115C105.135 100.047 105.094 100.012 105.08 99.9994C102.273 97.1952 101.477 93.1733 102.999 89.5049C104.521 85.8365 107.928 83.5573 111.894 83.5573C111.978 83.557 112.062 83.4831 112.062 83.3923ZM111.894 72.2471C109.199 72.2471 107.523 70.4988 106.839 68.8636C106.154 67.2298 106.113 64.8028 108.026 62.8979C108.836 62.0823 109.283 60.9985 109.283 59.8438C109.283 58.6902 108.836 57.6052 108.026 56.7897L103.194 51.9636C101.504 50.2794 98.7672 50.2779 97.0917 51.9636C95.1784 53.8671 92.7487 53.8208 91.1147 53.1436C89.4809 52.4663 87.7353 50.7836 87.7353 48.0898C87.7353 45.7088 85.7941 43.7706 83.4203 43.7706H76.5915C74.2037 43.7706 72.2765 45.7088 72.2765 48.0898C72.2765 50.7836 70.5309 52.4663 68.8832 53.1436C67.2495 53.8223 64.8195 53.8671 62.9205 51.9636C61.2446 50.2779 58.4935 50.2794 56.8179 51.9636L51.9862 56.7897C51.1763 57.6052 50.7154 58.6902 50.7154 59.8438C50.7154 60.9985 51.1763 62.0823 51.9862 62.8979C53.8852 64.8025 53.8434 67.2295 53.1733 68.8636C52.4889 70.4988 50.8134 72.2471 48.1181 72.2471C45.7303 72.2471 43.7891 74.1841 43.7891 76.5663V83.3923C43.7891 85.7748 45.7303 87.7115 48.1181 87.7115C50.8134 87.7115 52.4892 89.4586 53.1733 91.0938C53.8437 92.7305 53.8855 95.1561 51.9862 97.061C51.1763 97.8766 50.7154 98.9615 50.7154 100.115C50.7154 101.269 51.1763 102.354 51.9862 103.169L56.8179 107.997C58.4938 109.681 61.2449 109.679 62.9205 107.997C64.8337 106.089 67.2634 106.132 68.8832 106.81C70.5312 107.487 72.2765 109.171 72.2765 111.869C72.2765 114.252 74.2037 116.188 76.5915 116.188H83.4203C85.7941 116.188 87.7353 114.252 87.7353 111.869C87.7353 109.177 89.4809 107.493 91.1147 106.815C92.7484 106.138 95.1784 106.092 97.0917 107.996C98.7675 109.681 101.505 109.679 103.194 107.996L108.026 103.169C108.836 102.353 109.283 101.268 109.283 100.115C109.283 98.9613 108.836 97.8763 108.026 97.0607C106.113 95.1561 106.155 92.7302 106.839 91.0935C107.523 89.4583 109.199 87.7112 111.894 87.7112C114.268 87.7112 116.209 85.7745 116.209 83.392V76.566C116.209 74.1841 114.268 72.2471 111.894 72.2471ZM125.44 115.246V44.7144C125.44 39.1033 120.873 34.5383 115.274 34.5383H44.7378C39.1241 34.5383 34.5577 39.1033 34.5577 44.7144V115.246C34.5577 120.857 39.1241 125.421 44.7378 125.421H115.273C120.873 125.42 125.44 120.856 125.44 115.246ZM149.152 131.411C149.152 133.048 147.811 134.379 146.177 134.379C144.543 134.379 143.217 133.048 143.217 131.411C143.217 129.774 144.543 128.442 146.177 128.442C147.811 128.442 149.152 129.774 149.152 131.411ZM131.431 143.192C133.078 143.192 134.405 144.524 134.405 146.159C134.405 147.796 133.078 149.128 131.431 149.128C129.797 149.128 128.47 147.796 128.47 146.159C128.47 144.524 129.797 143.192 131.431 143.192ZM82.9733 146.159C82.9733 147.796 81.6328 149.128 79.9988 149.128C78.3651 149.128 77.0382 147.796 77.0382 146.159C77.0382 144.523 78.3648 143.192 79.9988 143.192C81.6325 143.192 82.9733 144.523 82.9733 146.159ZM28.5671 149.128C26.9333 149.128 25.6065 147.796 25.6065 146.159C25.6065 144.523 26.933 143.192 28.5671 143.192C30.2011 143.192 31.5416 144.523 31.5416 146.159C31.5413 147.796 30.2008 149.128 28.5671 149.128ZM16.7947 131.411C16.7947 133.048 15.4542 134.379 13.8202 134.379C12.1864 134.379 10.8596 133.048 10.8596 131.411C10.8596 129.774 12.1861 128.442 13.8202 128.442C15.4542 128.442 16.7947 129.774 16.7947 131.411ZM13.8202 82.9469C12.1864 82.9469 10.8596 81.6161 10.8596 79.9794C10.8596 78.3442 12.1861 77.012 13.8202 77.012C15.4542 77.012 16.7947 78.3442 16.7947 79.9794C16.7947 81.6158 15.4542 82.9469 13.8202 82.9469ZM10.8599 28.5474C10.8599 26.9122 12.1864 25.58 13.8205 25.58C15.4545 25.58 16.795 26.9122 16.795 28.5474C16.795 30.1841 15.4545 31.5163 13.8205 31.5163C12.1864 31.5163 10.8599 30.1841 10.8599 28.5474ZM28.5671 16.7671C26.9333 16.7671 25.6065 15.4363 25.6065 13.7996C25.6065 12.1629 26.933 10.8322 28.5671 10.8322C30.2011 10.8322 31.5416 12.1629 31.5416 13.7996C31.5413 15.436 30.2008 16.7671 28.5671 16.7671ZM77.0382 14.9292C77.0382 13.2925 78.3648 11.9617 79.9988 11.9617C81.6325 11.9617 82.9733 13.2925 82.9733 14.9292C82.9733 16.5658 81.6328 17.8966 79.9988 17.8966C78.3648 17.8966 77.0382 16.5658 77.0382 14.9292ZM131.431 10.8319C133.078 10.8319 134.405 12.1626 134.405 13.7993C134.405 15.436 133.078 16.7668 131.431 16.7668C129.797 16.7668 128.47 15.436 128.47 13.7993C128.47 12.1626 129.797 10.8319 131.431 10.8319ZM143.217 28.5474C143.217 26.9122 144.543 25.58 146.177 25.58C147.811 25.58 149.152 26.9122 149.152 28.5474C149.152 30.1841 147.811 31.5163 146.177 31.5163C144.543 31.5163 143.217 30.1841 143.217 28.5474ZM146.177 77.0117C147.811 77.0117 149.152 78.3439 149.152 79.9791C149.152 81.6158 147.811 82.9466 146.177 82.9466C144.543 82.9466 143.217 81.6158 143.217 79.9791C143.217 78.3439 144.543 77.0117 146.177 77.0117Z" fill="#083863"/>
</svg>
