<svg width="160" height="160" viewBox="0 0 160 160" fill="none" xmlns="http://www.w3.org/2000/svg">
<g clip-path="url(#clip0_110_19111)">
<g clip-path="url(#clip1_110_19111)">
<path d="M127.5 35V157.5H37.5C34.8478 157.5 32.3043 156.446 30.4289 154.571C28.5536 152.696 27.5 150.152 27.5 147.5V35C27.5 32.3478 26.4464 29.8043 24.5711 27.9289C22.6957 26.0536 20.1522 25 17.5 25H117.5C120.152 25 122.696 26.0536 124.571 27.9289C126.446 29.8043 127.5 32.3478 127.5 35Z" fill="white"/>
<path d="M7.5 67.5H27.5V35C27.5 32.3478 26.4464 29.8043 24.5711 27.9289C22.6957 26.0536 20.1522 25 17.5 25C14.8478 25 12.3043 26.0536 10.4289 27.9289C8.55357 29.8043 7.5 32.3478 7.5 35V67.5Z" fill="#66B7E0"/>
<path d="M154.025 25C153.336 25.0001 152.662 24.7967 152.088 24.4152C151.513 24.0337 151.065 23.4913 150.798 22.8558C150.531 22.2203 150.457 21.5201 150.587 20.8431C150.716 20.166 151.042 19.5423 151.525 19.05C151.864 18.7277 152.134 18.3399 152.318 17.9102C152.502 17.4804 152.598 17.0176 152.598 16.55C152.598 16.0824 152.502 15.6196 152.318 15.1898C152.134 14.7601 151.864 14.3723 151.525 14.05L145.875 8.45C145.553 8.11113 145.165 7.84131 144.735 7.65694C144.305 7.47257 143.843 7.3775 143.375 7.3775C142.907 7.3775 142.445 7.47257 142.015 7.65694C141.585 7.84131 141.197 8.11113 140.875 8.45C140.383 8.93251 139.759 9.25892 139.082 9.3883C138.405 9.51767 137.705 9.44425 137.069 9.17724C136.434 8.91023 135.891 8.46153 135.51 7.8874C135.128 7.31328 134.925 6.6393 134.925 5.95C134.919 5.04556 134.56 4.1792 133.925 3.535C133.29 2.89079 132.429 2.5195 131.525 2.5H123.475C122.553 2.5 121.669 2.86611 121.018 3.5178C120.366 4.16949 120 5.05337 120 5.975C120 6.6643 119.797 7.33828 119.415 7.9124C119.034 8.48653 118.491 8.93524 117.856 9.20224C117.22 9.46925 116.52 9.54267 115.843 9.4133C115.166 9.28392 114.542 8.95751 114.05 8.475C113.728 8.13613 113.34 7.86631 112.91 7.68194C112.48 7.49757 112.018 7.4025 111.55 7.4025C111.082 7.4025 110.62 7.49757 110.19 7.68194C109.76 7.86631 109.372 8.13613 109.05 8.475L103.45 14.125C103.111 14.4473 102.841 14.8351 102.657 15.2648C102.473 15.6946 102.378 16.1574 102.378 16.625C102.378 17.0926 102.473 17.5554 102.657 17.9852C102.841 18.4149 103.111 18.8027 103.45 19.125C103.933 19.6173 104.259 20.241 104.388 20.9181C104.518 21.5951 104.444 22.2953 104.177 22.9308C103.91 23.5663 103.462 24.1087 102.887 24.4902C102.313 24.8717 101.639 25.0751 100.95 25.075C100.046 25.0813 99.1792 25.44 98.535 26.0749C97.8908 26.7097 97.5195 27.5707 97.5 28.475V36.525C97.5 37.4466 97.8661 38.3305 98.5178 38.9822C99.1695 39.6339 100.053 40 100.975 40C101.664 39.9999 102.338 40.2033 102.912 40.5848C103.487 40.9663 103.935 41.5087 104.202 42.1442C104.469 42.7797 104.543 43.4799 104.413 44.1569C104.284 44.834 103.958 45.4577 103.475 45.95C103.136 46.2723 102.866 46.6601 102.682 47.0898C102.498 47.5196 102.402 47.9824 102.402 48.45C102.402 48.9176 102.498 49.3804 102.682 49.8102C102.866 50.2399 103.136 50.6277 103.475 50.95L109.15 56.625C109.472 56.9639 109.86 57.2337 110.29 57.4181C110.72 57.6024 111.182 57.6975 111.65 57.6975C112.118 57.6975 112.58 57.6024 113.01 57.4181C113.44 57.2337 113.828 56.9639 114.15 56.625C114.642 56.1425 115.266 55.8161 115.943 55.6867C116.62 55.5573 117.32 55.6307 117.956 55.8978C118.591 56.1648 119.134 56.6135 119.515 57.1876C119.897 57.7617 120.1 58.4357 120.1 59.125C120.125 60.0121 120.489 60.856 121.116 61.4836C121.744 62.1112 122.588 62.4748 123.475 62.5H131.525C132.447 62.5 133.331 62.1339 133.982 61.4822C134.634 60.8305 135 59.9466 135 59.025C135 58.3357 135.203 57.6617 135.585 57.0876C135.966 56.5135 136.509 56.0648 137.144 55.7978C137.78 55.5308 138.48 55.4573 139.157 55.5867C139.834 55.7161 140.458 56.0425 140.95 56.525C141.272 56.8639 141.66 57.1337 142.09 57.3181C142.52 57.5024 142.982 57.5975 143.45 57.5975C143.918 57.5975 144.38 57.5024 144.81 57.3181C145.24 57.1337 145.628 56.8639 145.95 56.525L151.625 50.85C151.964 50.5277 152.234 50.1399 152.418 49.7102C152.602 49.2804 152.698 48.8176 152.698 48.35C152.698 47.8824 152.602 47.4196 152.418 46.9898C152.234 46.5601 151.964 46.1723 151.625 45.85C151.142 45.3577 150.816 44.734 150.687 44.0569C150.557 43.3799 150.631 42.6797 150.898 42.0442C151.165 41.4087 151.613 40.8663 152.188 40.4848C152.762 40.1033 153.436 39.8999 154.125 39.9C155.012 39.8748 155.856 39.5112 156.484 38.8836C157.111 38.256 157.475 37.4121 157.5 36.525V28.475C157.5 27.5534 157.134 26.6695 156.482 26.0178C155.831 25.3661 154.947 25 154.025 25Z" fill="#66B7E0"/>
<path d="M127.5 47.5C135.784 47.5 142.5 40.7843 142.5 32.5C142.5 24.2157 135.784 17.5 127.5 17.5C119.216 17.5 112.5 24.2157 112.5 32.5C112.5 40.7843 119.216 47.5 127.5 47.5Z" fill="white"/>
<path d="M127.5 42.5C133.023 42.5 137.5 38.0228 137.5 32.5C137.5 26.9772 133.023 22.5 127.5 22.5C121.977 22.5 117.5 26.9772 117.5 32.5C117.5 38.0228 121.977 42.5 127.5 42.5Z" fill="#083863"/>
<path d="M47.5 82.5H7.5C4.73858 82.5 2.5 84.7386 2.5 87.5V117.5C2.5 120.261 4.73858 122.5 7.5 122.5H47.5C50.2614 122.5 52.5 120.261 52.5 117.5V87.5C52.5 84.7386 50.2614 82.5 47.5 82.5Z" fill="#BB45FF"/>
<path d="M19.2748 95.7248C19.0424 95.4905 18.7659 95.3045 18.4613 95.1776C18.1566 95.0507 17.8299 94.9854 17.4998 94.9854C17.1698 94.9854 16.8431 95.0507 16.5384 95.1776C16.2338 95.3045 15.9573 95.4905 15.7248 95.7248L10.7248 100.725C10.4905 100.957 10.3045 101.234 10.1776 101.538C10.0507 101.843 9.98535 102.17 9.98535 102.5C9.98535 102.83 10.0507 103.157 10.1776 103.461C10.3045 103.766 10.4905 104.042 10.7248 104.275L15.7248 109.275C15.9579 109.508 16.2347 109.693 16.5392 109.819C16.8438 109.945 17.1702 110.01 17.4998 110.01C17.8295 110.01 18.1559 109.945 18.4605 109.819C18.765 109.693 19.0418 109.508 19.2748 109.275C19.5079 109.042 19.6928 108.765 19.819 108.46C19.9451 108.156 20.0101 107.829 20.0101 107.5C20.0101 107.17 19.9451 106.844 19.819 106.539C19.6928 106.235 19.5079 105.958 19.2748 105.725L16.0248 102.5L19.2748 99.2748C19.5092 99.0424 19.6952 98.7659 19.8221 98.4613C19.949 98.1566 20.0143 97.8299 20.0143 97.4998C20.0143 97.1698 19.949 96.8431 19.8221 96.5384C19.6952 96.2338 19.5092 95.9573 19.2748 95.7248Z" fill="#083863"/>
<path d="M44.2755 100.725L39.2755 95.725C38.8047 95.2542 38.1662 94.9897 37.5005 94.9897C36.8347 94.9897 36.1962 95.2542 35.7255 95.725C35.2547 96.1957 34.9902 96.8342 34.9902 97.5C34.9902 98.1657 35.2547 98.8042 35.7255 99.275L38.9755 102.5L35.7255 105.725C35.2547 106.196 34.9902 106.834 34.9902 107.5C34.9902 108.166 35.2547 108.804 35.7255 109.275C36.1962 109.746 36.8347 110.01 37.5005 110.01C38.1662 110.01 38.8047 109.746 39.2755 109.275L44.2755 104.275C44.5098 104.043 44.6958 103.766 44.8227 103.461C44.9496 103.157 45.015 102.83 45.015 102.5C45.015 102.17 44.9496 101.843 44.8227 101.539C44.6958 101.234 44.5098 100.957 44.2755 100.725Z" fill="#083863"/>
<path d="M30.5998 90C29.9567 89.8414 29.2769 89.9445 28.7097 90.2866C28.1426 90.6288 27.7344 91.1821 27.5748 91.825L22.5748 111.825C22.4814 112.148 22.4542 112.487 22.4949 112.821C22.5355 113.155 22.6432 113.477 22.8113 113.769C22.9795 114.06 23.2048 114.315 23.4737 114.517C23.7426 114.719 24.0495 114.865 24.3761 114.946C24.7027 115.027 25.0423 115.041 25.3744 114.987C25.7066 114.934 26.0246 114.814 26.3092 114.634C26.5939 114.455 26.8394 114.22 27.0311 113.943C27.2228 113.667 27.3567 113.354 27.4248 113.025L32.4248 93.025C32.5834 92.3819 32.4803 91.7021 32.1382 91.1349C31.796 90.5677 31.2427 90.1596 30.5998 90Z" fill="#083863"/>
<path d="M42.5 55H57.5C58.163 55 58.7989 54.7366 59.2678 54.2678C59.7366 53.7989 60 53.163 60 52.5C60 51.837 59.7366 51.2011 59.2678 50.7322C58.7989 50.2634 58.163 50 57.5 50H42.5C41.837 50 41.2011 50.2634 40.7322 50.7322C40.2634 51.2011 40 51.837 40 52.5C40 53.163 40.2634 53.7989 40.7322 54.2678C41.2011 54.7366 41.837 55 42.5 55Z" fill="#083863"/>
<path d="M42.5 45H57.5C58.163 45 58.7989 44.7366 59.2678 44.2678C59.7366 43.7989 60 43.163 60 42.5C60 41.837 59.7366 41.2011 59.2678 40.7322C58.7989 40.2634 58.163 40 57.5 40H42.5C41.837 40 41.2011 40.2634 40.7322 40.7322C40.2634 41.2011 40 41.837 40 42.5C40 43.163 40.2634 43.7989 40.7322 44.2678C41.2011 44.7366 41.837 45 42.5 45Z" fill="#083863"/>
<path d="M67.5 55H87.5C88.163 55 88.7989 54.7366 89.2678 54.2678C89.7366 53.7989 90 53.163 90 52.5C90 51.837 89.7366 51.2011 89.2678 50.7322C88.7989 50.2634 88.163 50 87.5 50H67.5C66.837 50 66.2011 50.2634 65.7322 50.7322C65.2634 51.2011 65 51.837 65 52.5C65 53.163 65.2634 53.7989 65.7322 54.2678C66.2011 54.7366 66.837 55 67.5 55Z" fill="#083863"/>
<path d="M42.5 65H47.5C48.163 65 48.7989 64.7366 49.2678 64.2678C49.7366 63.7989 50 63.163 50 62.5C50 61.837 49.7366 61.2011 49.2678 60.7322C48.7989 60.2634 48.163 60 47.5 60H42.5C41.837 60 41.2011 60.2634 40.7322 60.7322C40.2634 61.2011 40 61.837 40 62.5C40 63.163 40.2634 63.7989 40.7322 64.2678C41.2011 64.7366 41.837 65 42.5 65Z" fill="#083863"/>
<path d="M55 62.5C55 63.163 55.2634 63.7989 55.7322 64.2678C56.2011 64.7366 56.837 65 57.5 65H102.5C103.163 65 103.799 64.7366 104.268 64.2678C104.737 63.7989 105 63.163 105 62.5C105 61.837 104.737 61.2011 104.268 60.7322C103.799 60.2634 103.163 60 102.5 60H57.5C56.837 60 56.2011 60.2634 55.7322 60.7322C55.2634 61.2011 55 61.837 55 62.5Z" fill="#083863"/>
<path d="M57.5 70H42.5C41.837 70 41.2011 70.2634 40.7322 70.7322C40.2634 71.2011 40 71.837 40 72.5C40 73.163 40.2634 73.7989 40.7322 74.2678C41.2011 74.7366 41.837 75 42.5 75H57.5C58.163 75 58.7989 74.7366 59.2678 74.2678C59.7366 73.7989 60 73.163 60 72.5C60 71.837 59.7366 71.2011 59.2678 70.7322C58.7989 70.2634 58.163 70 57.5 70Z" fill="#083863"/>
<path d="M65 72.5C65 73.163 65.2634 73.7989 65.7322 74.2678C66.2011 74.7366 66.837 75 67.5 75H112.5C113.163 75 113.799 74.7366 114.268 74.2678C114.737 73.7989 115 73.163 115 72.5C115 71.837 114.737 71.2011 114.268 70.7322C113.799 70.2634 113.163 70 112.5 70H67.5C66.837 70 66.2011 70.2634 65.7322 70.7322C65.2634 71.2011 65 71.837 65 72.5Z" fill="#083863"/>
<path d="M62.5 80C61.837 80 61.2011 80.2634 60.7322 80.7322C60.2634 81.2011 60 81.837 60 82.5C60 83.163 60.2634 83.7989 60.7322 84.2678C61.2011 84.7366 61.837 85 62.5 85H87.5C88.163 85 88.7989 84.7366 89.2678 84.2678C89.7366 83.7989 90 83.163 90 82.5C90 81.837 89.7366 81.2011 89.2678 80.7322C88.7989 80.2634 88.163 80 87.5 80H62.5Z" fill="#083863"/>
<path d="M112.5 90H62.5C61.837 90 61.2011 90.2634 60.7322 90.7322C60.2634 91.2011 60 91.837 60 92.5C60 93.163 60.2634 93.7989 60.7322 94.2678C61.2011 94.7366 61.837 95 62.5 95H112.5C113.163 95 113.799 94.7366 114.268 94.2678C114.737 93.7989 115 93.163 115 92.5C115 91.837 114.737 91.2011 114.268 90.7322C113.799 90.2634 113.163 90 112.5 90Z" fill="#083863"/>
<path d="M62.5 105H72.5C73.163 105 73.7989 104.737 74.2678 104.268C74.7366 103.799 75 103.163 75 102.5C75 101.837 74.7366 101.201 74.2678 100.732C73.7989 100.263 73.163 100 72.5 100H62.5C61.837 100 61.2011 100.263 60.7322 100.732C60.2634 101.201 60 101.837 60 102.5C60 103.163 60.2634 103.799 60.7322 104.268C61.2011 104.737 61.837 105 62.5 105Z" fill="#083863"/>
<path d="M85 110H62.5C61.837 110 61.2011 110.263 60.7322 110.732C60.2634 111.201 60 111.837 60 112.5C60 113.163 60.2634 113.799 60.7322 114.268C61.2011 114.737 61.837 115 62.5 115H85C85.663 115 86.2989 114.737 86.7678 114.268C87.2366 113.799 87.5 113.163 87.5 112.5C87.5 111.837 87.2366 111.201 86.7678 110.732C86.2989 110.263 85.663 110 85 110Z" fill="#083863"/>
<path d="M85 120H62.5C61.837 120 61.2011 120.263 60.7322 120.732C60.2634 121.201 60 121.837 60 122.5C60 123.163 60.2634 123.799 60.7322 124.268C61.2011 124.737 61.837 125 62.5 125H85C85.663 125 86.2989 124.737 86.7678 124.268C87.2366 123.799 87.5 123.163 87.5 122.5C87.5 121.837 87.2366 121.201 86.7678 120.732C86.2989 120.263 85.663 120 85 120Z" fill="#083863"/>
<path d="M112.5 80H97.5C96.837 80 96.2011 80.2634 95.7322 80.7322C95.2634 81.2011 95 81.837 95 82.5C95 83.163 95.2634 83.7989 95.7322 84.2678C96.2011 84.7366 96.837 85 97.5 85H112.5C113.163 85 113.799 84.7366 114.268 84.2678C114.737 83.7989 115 83.163 115 82.5C115 81.837 114.737 81.2011 114.268 80.7322C113.799 80.2634 113.163 80 112.5 80Z" fill="#083863"/>
<path d="M112.5 100H82.5C81.837 100 81.2011 100.263 80.7322 100.732C80.2634 101.201 80 101.837 80 102.5C80 103.163 80.2634 103.799 80.7322 104.268C81.2011 104.737 81.837 105 82.5 105H112.5C113.163 105 113.799 104.737 114.268 104.268C114.737 103.799 115 103.163 115 102.5C115 101.837 114.737 101.201 114.268 100.732C113.799 100.263 113.163 100 112.5 100Z" fill="#083863"/>
<path d="M100 110H95C94.337 110 93.7011 110.263 93.2322 110.732C92.7634 111.201 92.5 111.837 92.5 112.5C92.5 113.163 92.7634 113.799 93.2322 114.268C93.7011 114.737 94.337 115 95 115H100C100.663 115 101.299 114.737 101.768 114.268C102.237 113.799 102.5 113.163 102.5 112.5C102.5 111.837 102.237 111.201 101.768 110.732C101.299 110.263 100.663 110 100 110Z" fill="#083863"/>
<path d="M147.5 132.5V147.5C147.5 150.152 146.446 152.696 144.571 154.571C142.696 156.446 140.152 157.5 137.5 157.5H37.5C40.1522 157.5 42.6957 156.446 44.5711 154.571C46.4464 152.696 47.5 150.152 47.5 147.5V132.5H147.5Z" fill="#66B7E0"/>
<path d="M127.5 115C128.163 115 128.799 114.737 129.268 114.268C129.737 113.799 130 113.163 130 112.5V107.5C130 106.837 129.737 106.201 129.268 105.732C128.799 105.263 128.163 105 127.5 105C126.837 105 126.201 105.263 125.732 105.732C125.263 106.201 125 106.837 125 107.5V112.5C125 113.163 125.263 113.799 125.732 114.268C126.201 114.737 126.837 115 127.5 115Z" fill="#083863"/>
<path d="M154.025 22.5C153.829 22.5043 153.636 22.4495 153.472 22.3427C153.308 22.2359 153.179 22.082 153.104 21.9012C153.028 21.7204 153.009 21.521 153.048 21.329C153.088 21.137 153.184 20.9614 153.325 20.825C154.441 19.697 155.067 18.1743 155.067 16.5875C155.067 15.0007 154.441 13.478 153.325 12.35L147.65 6.675C146.522 5.55899 144.999 4.93302 143.413 4.93301C141.826 4.93302 140.303 5.55899 139.175 6.675C139.039 6.81576 138.863 6.91215 138.671 6.9516C138.479 6.99105 138.28 6.97172 138.099 6.89615C137.918 6.82058 137.764 6.69227 137.657 6.52795C137.55 6.36363 137.496 6.17094 137.5 5.975C137.5 4.39033 136.87 2.87057 135.75 1.75004C134.629 0.629507 133.11 0 131.525 0L123.475 0C121.89 0 120.371 0.629507 119.25 1.75004C118.13 2.87057 117.5 4.39033 117.5 5.975C117.504 6.17094 117.45 6.36363 117.343 6.52795C117.236 6.69227 117.082 6.82058 116.901 6.89615C116.72 6.97172 116.521 6.99105 116.329 6.9516C116.137 6.91215 115.961 6.81576 115.825 6.675C114.697 5.55899 113.174 4.93301 111.587 4.93301C110.001 4.93302 108.478 5.55899 107.35 6.675L101.675 12.35C100.559 13.478 99.933 15.0007 99.933 16.5875C99.933 18.1743 100.559 19.697 101.675 20.825C101.816 20.9614 101.912 21.137 101.952 21.329C101.991 21.521 101.972 21.7204 101.896 21.9012C101.821 22.082 101.692 22.2359 101.528 22.3427C101.364 22.4495 101.171 22.5043 100.975 22.5H17.5C14.1848 22.5 11.0054 23.817 8.66117 26.1612C6.31696 28.5054 5 31.6848 5 35V67.5C5 68.163 5.26339 68.7989 5.73223 69.2678C6.20107 69.7366 6.83696 70 7.5 70H25V72.5C25 73.163 25.2634 73.7989 25.7322 74.2678C26.2011 74.7366 26.837 75 27.5 75C28.163 75 28.7989 74.7366 29.2678 74.2678C29.7366 73.7989 30 73.163 30 72.5V35C30.0147 32.293 29.1359 29.6568 27.5 27.5H95C94.7947 30.5048 94.7947 33.5202 95 36.525C95 38.1097 95.6295 39.6294 96.75 40.75C97.8706 41.8705 99.3903 42.5 100.975 42.5C101.171 42.4957 101.364 42.5505 101.528 42.6573C101.692 42.7641 101.821 42.918 101.896 43.0988C101.972 43.2796 101.991 43.479 101.952 43.671C101.912 43.863 101.816 44.0386 101.675 44.175C100.559 45.303 99.933 46.8257 99.933 48.4125C99.933 49.9993 100.559 51.522 101.675 52.65L107.35 58.325C108.478 59.441 110.001 60.067 111.587 60.067C113.174 60.067 114.697 59.441 115.825 58.325C115.961 58.1842 116.137 58.0879 116.329 58.0484C116.521 58.009 116.72 58.0283 116.901 58.1038C117.082 58.1794 117.236 58.3077 117.343 58.472C117.45 58.6364 117.504 58.8291 117.5 59.025C117.5 60.6097 118.13 62.1294 119.25 63.25C120.371 64.3705 121.89 65 123.475 65H125V97.5C125 98.163 125.263 98.7989 125.732 99.2678C126.201 99.7366 126.837 100 127.5 100C128.163 100 128.799 99.7366 129.268 99.2678C129.737 98.7989 130 98.163 130 97.5V65H131.525C133.11 65 134.629 64.3705 135.75 63.25C136.87 62.1294 137.5 60.6097 137.5 59.025C137.496 58.8291 137.55 58.6364 137.657 58.472C137.764 58.3077 137.918 58.1794 138.099 58.1038C138.28 58.0283 138.479 58.009 138.671 58.0484C138.863 58.0879 139.039 58.1842 139.175 58.325C140.303 59.441 141.826 60.067 143.413 60.067C144.999 60.067 146.522 59.441 147.65 58.325L153.325 52.65C154.441 51.522 155.067 49.9993 155.067 48.4125C155.067 46.8257 154.441 45.303 153.325 44.175C153.184 44.0386 153.088 43.863 153.048 43.671C153.009 43.479 153.028 43.2796 153.104 43.0988C153.179 42.918 153.308 42.7641 153.472 42.6573C153.636 42.5505 153.829 42.4957 154.025 42.5C155.61 42.5 157.129 41.8705 158.25 40.75C159.37 39.6294 160 38.1097 160 36.525V28.475C160 26.8903 159.37 25.3706 158.25 24.25C157.129 23.1295 155.61 22.5 154.025 22.5ZM25 35V65H10V35C10 33.0109 10.7902 31.1032 12.1967 29.6967C13.6032 28.2902 15.5109 27.5 17.5 27.5C19.4891 27.5 21.3968 28.2902 22.8033 29.6967C24.2098 31.1032 25 33.0109 25 35ZM155 36.525C154.994 36.7816 154.889 37.0259 154.707 37.2074C154.526 37.3889 154.282 37.4937 154.025 37.5C152.841 37.502 151.685 37.8541 150.701 38.512C149.717 39.1698 148.949 40.1041 148.495 41.1971C148.04 42.2901 147.92 43.4932 148.147 44.6547C148.375 45.8163 148.941 46.8845 149.775 47.725C149.868 47.8137 149.942 47.9204 149.993 48.0386C150.043 48.1567 150.069 48.284 150.069 48.4125C150.069 48.541 150.043 48.6683 149.993 48.7864C149.942 48.9046 149.868 49.0113 149.775 49.1L144.1 54.775C144.011 54.868 143.905 54.9421 143.786 54.9927C143.668 55.0433 143.541 55.0694 143.413 55.0694C143.284 55.0694 143.157 55.0433 143.039 54.9927C142.92 54.9421 142.814 54.868 142.725 54.775C141.885 53.9415 140.816 53.3752 139.655 53.1474C138.493 52.9196 137.29 53.0404 136.197 53.4947C135.104 53.9491 134.17 54.7165 133.512 55.7006C132.854 56.6846 132.502 57.8413 132.5 59.025C132.494 59.2816 132.389 59.5259 132.207 59.7074C132.026 59.8889 131.782 59.9937 131.525 60H123.475C123.218 59.9937 122.974 59.8889 122.793 59.7074C122.611 59.5259 122.506 59.2816 122.5 59.025C122.498 57.8413 122.146 56.6846 121.488 55.7006C120.83 54.7165 119.896 53.9491 118.803 53.4947C117.71 53.0404 116.507 52.9196 115.345 53.1474C114.184 53.3752 113.115 53.9415 112.275 54.775C112.186 54.868 112.08 54.9421 111.961 54.9927C111.843 55.0433 111.716 55.0694 111.587 55.0694C111.459 55.0694 111.332 55.0433 111.214 54.9927C111.095 54.9421 110.989 54.868 110.9 54.775L105.225 49.1C105.132 49.0113 105.058 48.9046 105.007 48.7864C104.957 48.6683 104.931 48.541 104.931 48.4125C104.931 48.284 104.957 48.1567 105.007 48.0386C105.058 47.9204 105.132 47.8137 105.225 47.725C106.059 46.8845 106.625 45.8163 106.853 44.6547C107.08 43.4932 106.96 42.2901 106.505 41.1971C106.051 40.1041 105.283 39.1698 104.299 38.512C103.315 37.8541 102.159 37.502 100.975 37.5C100.718 37.4937 100.474 37.3889 100.293 37.2074C100.111 37.0259 100.006 36.7816 100 36.525V28.475C100.006 28.2184 100.111 27.9741 100.293 27.7926C100.474 27.6111 100.718 27.5063 100.975 27.5C102.159 27.498 103.315 27.1459 104.299 26.488C105.283 25.8302 106.051 24.8959 106.505 23.8029C106.96 22.7099 107.08 21.5068 106.853 20.3453C106.625 19.1837 106.059 18.1155 105.225 17.275C105.132 17.1863 105.058 17.0796 105.007 16.9614C104.957 16.8433 104.931 16.7161 104.931 16.5875C104.931 16.459 104.957 16.3317 105.007 16.2136C105.058 16.0954 105.132 15.9887 105.225 15.9L110.9 10.225C110.989 10.132 111.095 10.0579 111.214 10.0073C111.332 9.95671 111.459 9.93062 111.587 9.93062C111.716 9.93062 111.843 9.95671 111.961 10.0073C112.08 10.0579 112.186 10.132 112.275 10.225C113.115 11.0585 114.184 11.6248 115.345 11.8526C116.507 12.0804 117.71 11.9596 118.803 11.5053C119.896 11.0509 120.83 10.2835 121.488 9.29941C122.146 8.31536 122.498 7.1587 122.5 5.975C122.506 5.71841 122.611 5.47408 122.793 5.29259C122.974 5.1111 123.218 5.00634 123.475 5H131.525C131.782 5.00634 132.026 5.1111 132.207 5.29259C132.389 5.47408 132.494 5.71841 132.5 5.975C132.502 7.1587 132.854 8.31536 133.512 9.29941C134.17 10.2835 135.104 11.0509 136.197 11.5053C137.29 11.9596 138.493 12.0804 139.655 11.8526C140.816 11.6248 141.885 11.0585 142.725 10.225C142.814 10.132 142.92 10.0579 143.039 10.0073C143.157 9.95671 143.284 9.93062 143.413 9.93062C143.541 9.93062 143.668 9.95671 143.786 10.0073C143.905 10.0579 144.011 10.132 144.1 10.225L149.775 15.9C149.868 15.9887 149.942 16.0954 149.993 16.2136C150.043 16.3317 150.069 16.459 150.069 16.5875C150.069 16.7161 150.043 16.8433 149.993 16.9614C149.942 17.0796 149.868 17.1863 149.775 17.275C148.941 18.1155 148.375 19.1837 148.147 20.3453C147.92 21.5068 148.04 22.7099 148.495 23.8029C148.949 24.8959 149.717 25.8302 150.701 26.488C151.685 27.1459 152.841 27.498 154.025 27.5C154.282 27.5063 154.526 27.6111 154.707 27.7926C154.889 27.9741 154.994 28.2184 155 28.475V36.525Z" fill="#083863"/>
<path d="M147.5 130H130V122.5C130 121.837 129.737 121.201 129.268 120.732C128.799 120.263 128.163 120 127.5 120C126.837 120 126.201 120.263 125.732 120.732C125.263 121.201 125 121.837 125 122.5V130H47.5C46.837 130 46.2011 130.263 45.7322 130.732C45.2634 131.201 45 131.837 45 132.5V147.5C45 149.489 44.2098 151.397 42.8033 152.803C41.3968 154.21 39.4891 155 37.5 155C35.5109 155 33.6032 154.21 32.1967 152.803C30.7902 151.397 30 149.489 30 147.5V125H47.5C49.4891 125 51.3968 124.21 52.8033 122.803C54.2098 121.397 55 119.489 55 117.5V87.5C55 85.5109 54.2098 83.6032 52.8033 82.1967C51.3968 80.7902 49.4891 80 47.5 80H7.5C5.51088 80 3.60322 80.7902 2.1967 82.1967C0.790176 83.6032 0 85.5109 0 87.5L0 117.5C0 119.489 0.790176 121.397 2.1967 122.803C3.60322 124.21 5.51088 125 7.5 125H25V147.5C25 150.815 26.317 153.995 28.6612 156.339C31.0054 158.683 34.1848 160 37.5 160H137.5C140.815 160 143.995 158.683 146.339 156.339C148.683 153.995 150 150.815 150 147.5V132.5C150 131.837 149.737 131.201 149.268 130.732C148.799 130.263 148.163 130 147.5 130ZM5 117.5V87.5C5 86.837 5.26339 86.2011 5.73223 85.7322C6.20107 85.2634 6.83696 85 7.5 85H47.5C48.163 85 48.7989 85.2634 49.2678 85.7322C49.7366 86.2011 50 86.837 50 87.5V117.5C50 118.163 49.7366 118.799 49.2678 119.268C48.7989 119.737 48.163 120 47.5 120H7.5C6.83696 120 6.20107 119.737 5.73223 119.268C5.26339 118.799 5 118.163 5 117.5ZM145 147.5C145 149.489 144.21 151.397 142.803 152.803C141.397 154.21 139.489 155 137.5 155H47.5C49.1228 152.836 50 150.205 50 147.5V135H145V147.5Z" fill="#083863"/>
<path d="M92.5 12.5C92.0055 12.5 91.5222 12.6466 91.1111 12.9213C90.7 13.196 90.3795 13.5865 90.1903 14.0433C90.0011 14.5001 89.9516 15.0028 90.048 15.4877C90.1445 15.9727 90.3826 16.4181 90.7322 16.7678C91.0819 17.1174 91.5273 17.3555 92.0123 17.452C92.4972 17.5484 92.9999 17.4989 93.4567 17.3097C93.9135 17.1205 94.304 16.8 94.5787 16.3889C94.8534 15.9778 95 15.4945 95 15C95 14.337 94.7366 13.7011 94.2678 13.2322C93.7989 12.7634 93.163 12.5 92.5 12.5Z" fill="#96A1C3"/>
<path d="M82.5 12.5C82.0055 12.5 81.5222 12.6466 81.1111 12.9213C80.7 13.196 80.3795 13.5865 80.1903 14.0433C80.0011 14.5001 79.9516 15.0028 80.048 15.4877C80.1445 15.9727 80.3826 16.4181 80.7322 16.7678C81.0819 17.1174 81.5273 17.3555 82.0123 17.452C82.4972 17.5484 82.9999 17.4989 83.4567 17.3097C83.9135 17.1205 84.304 16.8 84.5787 16.3889C84.8534 15.9778 85 15.4945 85 15C85 14.337 84.7366 13.7011 84.2678 13.2322C83.7989 12.7634 83.163 12.5 82.5 12.5Z" fill="#96A1C3"/>
</g>
</g>
<defs>
<clipPath id="clip0_110_19111">
<rect width="160" height="160" fill="white"/>
</clipPath>
<clipPath id="clip1_110_19111">
<rect width="160" height="160" fill="white"/>
</clipPath>
</defs>
</svg>
