<svg width="160" height="160" viewBox="0 0 160 160" fill="none" xmlns="http://www.w3.org/2000/svg">
<g clip-path="url(#clip0_110_19062)">
<path fill-rule="evenodd" clip-rule="evenodd" d="M92.1741 148.704H67.8285V136.488C59.7678 134.881 52.2725 131.71 45.67 127.304L37.0282 135.946L19.8135 118.731L28.4554 110.089C24.0491 103.488 20.8791 95.9909 19.2716 87.9309H7.05566V63.5853H19.2713C20.8782 55.5247 24.0494 48.0291 28.455 41.4266L19.8135 32.785L37.0288 15.5703L45.6697 24.2113C52.2716 19.8047 59.7682 16.6347 67.8285 15.0272V2.8125H92.1741V15.0272C100.235 16.6341 107.731 19.8053 114.333 24.2109L122.974 15.5697L140.189 32.785L131.548 41.4259C135.955 48.0278 139.125 55.5247 140.733 63.5853H152.947V87.9309H140.733C139.126 95.9916 135.954 103.487 131.548 110.09L140.19 118.731L122.975 135.946L114.333 127.305C107.731 131.711 100.235 134.881 92.1744 136.488V148.704H92.1741Z" fill="#8D9CA8"/>
<path d="M80.0016 122.703C105.929 122.703 126.947 101.685 126.947 75.758C126.947 49.831 105.929 28.813 80.0016 28.813C54.0746 28.813 33.0566 49.831 33.0566 75.758C33.0566 101.685 54.0746 122.703 80.0016 122.703Z" fill="#EFF4F7"/>
<path fill-rule="evenodd" clip-rule="evenodd" d="M96.6469 74.9567C96.6469 65.8027 89.1572 58.313 80.0031 58.313C70.8491 58.313 63.3594 65.8027 63.3594 74.9567H96.6469Z" fill="#BB45FF"/>
<path d="M86.3496 55.681C89.8619 52.1686 89.8619 46.474 86.3496 42.9616C82.8372 39.4492 77.1425 39.4492 73.6302 42.9616C70.1178 46.474 70.1178 52.1686 73.6302 55.681C77.1426 59.1933 82.8372 59.1933 86.3496 55.681Z" fill="#FFD6BD"/>
<path fill-rule="evenodd" clip-rule="evenodd" d="M73.7172 84.6032C73.7172 75.4492 66.2275 67.9595 57.0734 67.9595C47.9194 67.9595 40.4297 75.4492 40.4297 84.6032H73.7172Z" fill="#64B5F6"/>
<path d="M58.4952 67.8478C63.3985 67.0529 66.7292 62.4335 65.9343 57.5301C65.1394 52.6268 60.52 49.2961 55.6167 50.091C50.7133 50.8859 47.3827 55.5053 48.1775 60.4086C48.9724 65.312 53.5918 68.6426 58.4952 67.8478Z" fill="#FFD6BD"/>
<path fill-rule="evenodd" clip-rule="evenodd" d="M119.572 84.6032C119.572 75.4492 112.082 67.9595 102.928 67.9595C93.7739 67.9595 86.2842 75.4492 86.2842 84.6032H119.572Z" fill="#64B5F6"/>
<path d="M111.279 62.4152C113.182 57.8248 111.003 52.561 106.413 50.6583C101.823 48.7556 96.5589 50.9344 94.6561 55.5248C92.7534 60.1152 94.9322 65.3789 99.5226 67.2816C104.113 69.1844 109.377 67.0056 111.279 62.4152Z" fill="#FFD6BD"/>
<path fill-rule="evenodd" clip-rule="evenodd" d="M77.663 79.4492C104.834 113.192 118.42 130.064 118.42 130.064C121.184 132.829 121.184 137.351 118.419 140.116C115.654 142.881 111.132 142.881 108.367 140.116C111.131 142.881 111.131 147.404 108.367 150.168C105.603 152.933 101.079 152.933 98.3152 150.169L92.8321 144.685C95.5968 147.45 95.5961 151.973 92.8321 154.737C90.0677 157.502 85.5443 157.502 82.7799 154.738L73.1043 145.062C75.8686 147.826 75.8686 152.349 73.1039 155.114C70.3396 157.878 65.8161 157.878 63.0521 155.114L23.4033 115.466C23.4033 115.466 26.0833 103.46 31.4433 79.4492H77.663Z" fill="#F9F6F9"/>
<path fill-rule="evenodd" clip-rule="evenodd" d="M138.835 112.612C138.492 112.743 125.251 79.2925 124.912 79.4191C112.194 84.1716 102.443 85.9044 89.3393 75.0934C85.1937 71.6731 79.6046 71.2934 75.4796 74.7378L58.799 88.665C56.8055 90.3294 55.7127 92.6434 56.2665 95.1806L61.3265 118.367C74.1912 115.197 74.1309 106.043 75.0374 96.4175C75.4737 92.7309 81.4305 93.7403 88.9077 100.552L119.676 131.769L138.835 112.612Z" fill="#F9F6F9"/>
<path fill-rule="evenodd" clip-rule="evenodd" d="M122.495 75.5839L134.935 73.1058C136.271 72.8396 137.581 73.7149 137.847 75.0502L147.514 123.576C147.78 124.912 146.906 126.222 145.57 126.488L133.13 128.967C131.794 129.233 130.484 128.358 130.218 127.022L120.551 78.4958C120.284 77.1605 121.159 75.8502 122.495 75.5839Z" fill="#BB45FF"/>
<path fill-rule="evenodd" clip-rule="evenodd" d="M37.5133 75.5839L25.0733 73.1058C23.7377 72.8396 22.4274 73.7149 22.1614 75.0502L12.4939 123.576C12.228 124.912 13.1027 126.222 14.4386 126.488L26.8786 128.967C28.2146 129.233 29.5246 128.358 29.7908 127.022L39.458 78.4958C39.7239 77.1605 38.8489 75.8502 37.5133 75.5839Z" fill="#66B7E0"/>
<path fill-rule="evenodd" clip-rule="evenodd" d="M150.436 85.4277H142.447L140.281 74.5589C139.75 71.868 137.127 70.1148 134.43 70.6523L129.271 71.6808C128.298 59.8273 123.154 48.8211 114.591 40.4277C105.291 31.3242 92.9986 26.3114 79.9989 26.3114C66.9845 26.3114 54.6923 31.3242 45.392 40.4273C36.8289 48.8208 31.6848 59.8273 30.7123 71.6805L25.5536 70.652C22.8564 70.1142 20.233 71.8677 19.7023 74.5586L17.5358 85.4273H9.54734V66.083H19.2602C20.4539 66.083 21.4858 65.2395 21.7214 64.0708C23.2395 56.4486 26.202 49.2955 30.5205 42.8111C31.1836 41.8208 31.0511 40.4989 30.2111 39.6552L23.3427 32.7833L37.0205 19.102L43.8889 25.9773C44.7439 26.818 46.0555 26.9492 47.043 26.2895C53.528 21.9617 60.6764 18.9961 68.3111 17.4773C69.4755 17.243 70.3158 16.2177 70.3158 15.0242V5.30797H89.668V15.0242C89.668 16.2177 90.508 17.243 91.6723 17.4773C99.2923 18.9961 106.455 21.9617 112.94 26.2867C113.928 26.9495 115.255 26.818 116.095 25.9773L122.963 19.102L136.64 32.7833L129.772 39.6555C128.932 40.4995 128.799 41.818 129.463 42.8114C133.781 49.293 136.758 56.4461 138.276 64.0711C138.512 65.2398 139.529 66.0833 140.723 66.0833H150.436V85.4277ZM132.646 126.509L145.041 124.037L135.387 75.5589L122.992 78.0308L132.646 126.509ZM119.676 128.218L126.529 121.365L119.13 84.2433C110.95 86.7805 100.353 87.4305 87.7367 77.018C84.3911 74.2655 80.102 74.1152 77.0658 76.6558L60.3961 90.5805C59.3939 91.412 58.2883 92.793 58.7011 94.6464L63.1817 115.19C71.1114 112.265 71.6567 106.187 72.3639 98.0461C72.423 97.4277 72.4817 96.8061 72.5408 96.1808C72.5408 96.1617 72.5408 96.1398 72.5408 96.1214C72.762 94.237 73.8673 92.793 75.5623 92.1586C79.0995 90.8402 84.5677 93.2277 90.5811 98.7023C90.6105 98.7342 90.6402 98.7652 90.6842 98.7964L119.676 128.218ZM116.64 138.346C117.981 137.012 118.349 134.949 117.598 133.227L87.162 102.352C82.033 97.6958 78.5252 96.6864 77.4933 96.8023C77.4492 97.3648 77.4048 97.9274 77.3461 98.487C76.5648 107.353 75.6805 117.399 61.9145 120.793C61.2661 120.952 60.5586 120.843 59.9986 120.487C59.4236 120.131 59.0111 119.555 58.8783 118.899L53.808 95.712C53.0858 92.4055 54.3239 89.137 57.1833 86.743L62.9314 81.9458H41.3095L33.3505 121.886L64.8033 153.343C66.6014 155.14 69.5345 155.14 71.318 153.343C72.1877 152.477 72.6592 151.321 72.6592 150.087C72.6592 148.85 72.1877 147.693 71.318 146.827L62.9167 138.424C61.9439 137.446 61.9439 135.865 62.9167 134.887C63.8895 133.912 65.4814 133.912 66.4542 134.887L84.5389 152.968C86.337 154.765 89.2551 154.765 91.0536 152.968C92.8517 151.171 92.8517 148.246 91.0536 146.449L74.1777 129.571C73.1902 128.594 73.1902 127.012 74.1777 126.034C75.1505 125.059 76.7273 125.059 77.7148 126.034L100.074 148.399C100.943 149.262 102.093 149.74 103.331 149.74C104.569 149.74 105.719 149.262 106.588 148.399C107.458 147.534 107.93 146.377 107.93 145.14C107.93 143.905 107.458 142.752 106.588 141.89C106.588 141.887 106.588 141.884 106.588 141.88L85.4233 120.718C84.4505 119.74 84.4505 118.159 85.4233 117.18C86.3961 116.205 87.988 116.205 88.9605 117.18L110.125 138.346V138.349V138.352C111.923 140.143 114.841 140.14 116.64 138.346ZM102.918 70.4583C99.1302 70.4583 95.5189 72.0089 92.8661 74.6836C102.078 81.4989 109.757 81.5895 116.242 79.8708C114.267 74.3086 108.976 70.458 102.933 70.458C102.918 70.4583 102.918 70.4583 102.918 70.4583ZM102.918 65.4586C106.5 65.4552 109.418 62.543 109.418 58.9614C109.418 55.3805 106.499 52.4648 102.918 52.4648C99.3364 52.4648 96.418 55.3805 96.418 58.9614C96.418 62.543 99.3361 65.4552 102.918 65.4586ZM73.4992 49.3152C73.4992 52.8961 76.4027 55.8089 79.9842 55.8117H79.9989C83.5805 55.8089 86.4839 52.8961 86.4839 49.3152C86.4839 45.7333 83.5805 42.8214 79.9989 42.8214C76.4173 42.8211 73.4992 45.7333 73.4992 49.3152ZM73.8677 72.8148C78.1714 69.2211 83.9195 68.8617 88.8127 71.6961C89.9327 70.4711 91.2005 69.4023 92.5711 68.5148C90.1686 63.8398 85.3492 60.8148 79.9989 60.812C79.9842 60.812 79.9842 60.812 79.9842 60.812C74.6342 60.8148 69.7998 63.8433 67.412 68.5245C69.5048 69.8777 71.3327 71.6336 72.7917 73.7148L73.8677 72.8148ZM57.0652 70.4583C52.172 70.4583 47.7502 72.9652 45.1858 76.9464H68.9152L68.9298 76.9339C66.3361 72.9489 61.8702 70.4583 57.0652 70.4583ZM50.5655 58.9614C50.5655 62.543 53.4839 65.4552 57.0652 65.4586C60.6467 65.4552 63.5648 62.543 63.5648 58.9614C63.5648 55.3805 60.6464 52.4648 57.0652 52.4648C53.4836 52.4648 50.5655 55.3805 50.5655 58.9614ZM121.99 73.1302L124.333 72.6652C122.727 49.677 103.271 31.3117 79.9989 31.3117C56.7264 31.3117 37.2564 49.6773 35.6645 72.6652L37.9933 73.1302C39.0545 73.3398 39.983 73.8833 40.7052 74.6773C42.6948 71.3808 45.628 68.7898 49.062 67.2055C46.9102 65.1148 45.5689 62.193 45.5689 58.9614C45.5689 52.6208 50.7277 47.4645 57.0652 47.4645C63.403 47.4645 68.5614 52.6208 68.5614 58.9614C68.5614 59.1864 68.5467 59.4089 68.5467 59.6305C69.608 58.8245 70.7723 58.1308 71.9955 57.5648C69.8436 55.4742 68.5023 52.5495 68.5023 49.3152C68.5023 42.9773 73.6608 37.8211 79.9986 37.8211C86.3361 37.8211 91.4948 42.9773 91.4948 49.3152C91.4948 52.5495 90.1389 55.4742 87.987 57.5648C89.2105 58.1308 90.3748 58.8245 91.4505 59.6305C91.4358 59.4089 91.4211 59.1867 91.4211 58.9614C91.4211 52.6208 96.5798 47.4645 102.917 47.4645C109.255 47.4645 114.414 52.6208 114.414 58.9614C114.414 62.1958 113.072 65.118 110.92 67.2089C114.369 68.8027 117.302 71.4027 119.277 74.6745C120 73.8833 120.929 73.3398 121.99 73.1302ZM27.337 126.509L36.9908 78.0273L24.5955 75.5586L14.9414 124.037L27.337 126.509ZM152.941 61.0836H142.742C141.15 54.2305 138.468 47.7461 134.739 41.7648L141.946 34.5492C142.919 33.5745 142.919 31.993 141.946 31.0148L124.731 13.7992C124.26 13.3305 123.626 13.068 122.963 13.068C122.299 13.068 121.665 13.3305 121.194 13.7992L113.987 21.0148C108.003 17.2867 101.518 14.5992 94.6639 13.0086V2.80828C94.6639 1.43016 93.5439 0.308594 92.1583 0.308594H67.8245C66.4392 0.308594 65.3189 1.43016 65.3189 2.80828V13.0086C58.4655 14.602 51.9802 17.2867 45.9964 21.0148L38.7892 13.7992C37.8164 12.8245 36.2245 12.8245 35.252 13.7992L18.037 31.0148C17.0642 31.9902 17.0642 33.5745 18.037 34.5492L25.2589 41.7648C21.5298 47.7527 18.8327 54.2336 17.2411 61.0836H7.04172C5.67109 61.0836 4.55078 62.202 4.55078 63.5833V87.927C4.55078 89.3083 5.67078 90.427 7.04172 90.427H16.5333L10.0336 123.083C9.76828 124.387 10.0336 125.711 10.7705 126.818C11.522 127.924 12.6423 128.677 13.9392 128.937L26.3789 131.415C26.703 131.48 27.0273 131.511 27.3517 131.511C28.3245 131.511 29.2827 131.224 30.108 130.67C31.1395 129.983 31.862 128.958 32.1714 127.774L61.2658 156.88C63.1523 158.752 65.5992 159.69 68.0605 159.69C70.5217 159.69 72.9833 158.752 74.8552 156.88C76.0195 155.724 76.8448 154.321 77.287 152.786L81.0011 156.502C82.8139 158.311 85.2164 159.309 87.7958 159.309C90.3605 159.309 92.7773 158.311 94.5905 156.502C95.7695 155.315 96.5802 153.893 97.0223 152.386C98.7614 153.908 100.987 154.74 103.33 154.74C105.895 154.74 108.312 153.743 110.125 151.933C111.938 150.124 112.925 147.711 112.925 145.14C112.925 144.986 112.925 144.833 112.925 144.68C115.534 144.805 118.187 143.871 120.177 141.88C122.668 139.392 123.552 135.693 122.594 132.377L127.708 127.261L127.752 127.508C128.224 129.871 130.302 131.511 132.631 131.511C132.955 131.511 133.279 131.48 133.604 131.415L146.043 128.937C147.34 128.677 148.475 127.924 149.212 126.818C149.949 125.712 150.214 124.387 149.949 123.084L143.449 90.4273H152.941C154.312 90.4273 155.447 89.3089 155.447 87.9273V63.5836C155.447 62.2023 154.312 61.0836 152.941 61.0836Z" fill="#083863"/>
</g>
<defs>
<clipPath id="clip0_110_19062">
<rect width="160" height="160" fill="white"/>
</clipPath>
</defs>
</svg>
