<svg width="160" height="160" viewBox="0 0 160 160" fill="none" xmlns="http://www.w3.org/2000/svg">
<g clip-path="url(#clip0_110_19085)">
<path d="M141.069 101.985C137.649 101.985 134.62 100.226 132.885 97.5395C131.885 95.9996 131.298 94.1676 131.298 92.2139C131.298 86.8155 135.67 82.4429 141.069 82.4429C146.467 82.4429 150.84 86.8155 150.84 92.2139C150.84 97.6122 146.467 101.985 141.069 101.985Z" fill="white"/>
<path d="M141.02 56.8179C136.379 60.6048 130.442 62.9009 123.969 62.9009C120.745 62.9009 117.667 62.3391 114.833 61.3133V61.2883C111.926 60.2625 109.264 58.7239 106.919 56.8179C107.53 49.2952 113.856 43.3589 121.527 43.3589H126.412C134.083 43.3589 140.409 49.2952 141.02 56.8179Z" fill="#64AC7D"/>
<path d="M133.74 33.5884C133.74 38.9844 129.365 43.3594 123.969 43.3594C118.573 43.3594 114.198 38.9844 114.198 33.5884C114.198 28.1924 118.573 23.8174 123.969 23.8174C129.365 23.8174 133.74 28.1924 133.74 33.5884Z" fill="#64AC7D"/>
<path d="M123.97 9.16064C138.822 9.16064 150.84 21.1788 150.84 36.0309C150.84 44.4099 147.029 51.8849 141.02 56.8181C140.409 49.2954 134.083 43.3591 126.413 43.3591H123.97C129.368 43.3591 133.741 38.9865 133.741 33.5881C133.741 28.1897 129.368 23.8171 123.97 23.8171C118.571 23.8171 114.199 28.1897 114.199 33.5881C114.199 38.9865 118.571 43.3591 123.97 43.3591H121.527C113.857 43.3591 107.53 49.2954 106.92 56.8181C103.598 54.0831 100.934 50.5657 99.2251 46.5342C97.857 43.3102 97.0996 39.7678 97.0996 36.0309C97.0996 32.758 97.6864 29.6306 98.7611 26.7489C102.523 16.465 112.391 9.16064 123.97 9.16064Z" fill="white"/>
<path d="M92.2135 150.84C85.7154 150.84 79.7552 148.544 75.1143 144.709C75.7488 137.209 82.0763 131.298 89.7218 131.298H94.6073C102.278 131.298 108.604 137.234 109.215 144.757L109.24 144.782C104.598 148.568 98.6865 150.84 92.2135 150.84Z" fill="#BB45FF"/>
<path d="M89.7223 131.298C82.0768 131.298 75.7493 137.209 75.1147 144.709C70.6694 141.045 67.4442 135.988 66.0761 130.198C65.5883 128.196 65.3438 126.119 65.3438 123.97C65.3438 116.08 68.7395 108.996 74.1379 104.086C78.9005 99.738 85.2519 97.0996 92.214 97.0996C95.438 97.0996 98.5165 97.6614 101.35 98.6872V98.7122C106.894 100.691 111.585 104.477 114.737 109.337C117.497 113.539 119.084 118.571 119.084 123.97C119.084 132.349 115.25 139.848 109.24 144.782L109.215 144.757C108.605 137.234 102.278 131.298 94.6078 131.298H92.1651C97.5635 131.298 101.936 126.925 101.936 121.527C101.936 116.129 97.5635 111.756 92.1651 111.756C86.7667 111.756 82.3941 116.129 82.3941 121.527C82.3941 126.925 86.7667 131.298 92.1651 131.298H89.7223Z" fill="white"/>
<path d="M101.936 121.527C101.936 126.923 97.5605 131.298 92.1645 131.298C86.7686 131.298 82.3936 126.923 82.3936 121.527C82.3936 116.131 86.7686 111.756 92.1645 111.756C97.5605 111.756 101.936 116.131 101.936 121.527Z" fill="#BB45FF"/>
<path d="M77.5571 9.16064C82.9555 9.16064 87.3281 13.5333 87.3281 18.9316C87.3281 20.1292 87.1087 21.2527 86.7174 22.3023C85.3493 26.0404 81.7592 28.7026 77.5571 28.7026C72.1587 28.7026 67.7861 24.33 67.7861 18.9316C67.7861 13.5333 72.1587 9.16064 77.5571 9.16064Z" fill="white"/>
<path d="M43.359 97.0996C38.6202 97.0996 34.1748 95.8782 30.3151 93.7289C28.8731 92.9465 27.53 92.0185 26.2598 90.9689C26.8943 83.4689 33.2218 77.5576 40.8674 77.5576H45.7528C53.4234 77.5576 59.7497 83.4939 60.3604 91.0166L60.3855 91.0416C55.7433 94.8274 49.832 97.0996 43.359 97.0996Z" fill="#66B7E0"/>
<path d="M53.081 67.7866C53.081 73.1826 48.706 77.5576 43.3101 77.5576C37.9141 77.5576 33.5391 73.1826 33.5391 67.7866C33.5391 62.3906 37.9141 58.0156 43.3101 58.0156C48.706 58.0156 53.081 62.3906 53.081 67.7866Z" fill="#66B7E0"/>
<path d="M40.9165 145.955C35.5181 145.955 31.1455 141.582 31.1455 136.184C31.1455 130.785 35.5181 126.413 40.9165 126.413C45.5336 126.413 49.3934 129.613 50.4191 133.911C50.5897 134.645 50.6875 135.402 50.6875 136.184C50.6875 141.582 46.3149 145.955 40.9165 145.955Z" fill="white"/>
<path d="M40.8669 77.5574C33.2213 77.5574 26.8938 83.4686 26.2593 90.9686C20.2991 86.0342 16.4883 78.5831 16.4883 70.2291C16.4883 59.5051 22.7419 50.2721 31.8044 45.9483C35.2979 44.2868 39.2304 43.3589 43.3585 43.3589C54.4725 43.3589 64.0002 50.1003 68.1033 59.7258C69.4713 62.9498 70.2287 66.4922 70.2287 70.2291C70.2287 78.1191 66.833 85.2029 61.4346 90.1134C61.0923 90.4307 60.7512 90.7241 60.385 91.0414L60.3599 91.0163C59.7493 83.4937 53.4229 77.5574 45.7524 77.5574H43.3096C48.708 77.5574 53.0806 73.1847 53.0806 67.7864C53.0806 62.388 48.708 58.0154 43.3096 58.0154C37.9112 58.0154 33.5386 62.388 33.5386 67.7864C33.5386 73.1847 37.9112 77.5574 43.3096 77.5574H40.8669Z" fill="white"/>
<path d="M18.9311 104.428C20.6415 104.428 22.278 104.868 23.6699 105.673C26.6745 107.334 28.7021 110.535 28.7021 114.199C28.7021 119.597 24.3295 123.97 18.9311 123.97C13.5328 123.97 9.16016 119.597 9.16016 114.199C9.16016 108.8 13.5328 104.428 18.9311 104.428Z" fill="white"/>
<path d="M18.9311 9.16064C24.3295 9.16064 28.7021 13.5333 28.7021 18.9316C28.7021 22.8152 26.43 26.1871 23.1332 27.7258C21.8629 28.3603 20.4209 28.7026 18.9311 28.7026C13.5328 28.7026 9.16016 24.33 9.16016 18.9316C9.16016 13.5333 13.5328 9.16064 18.9311 9.16064Z" fill="white"/>
<path d="M123.97 65.3437C140.134 65.3437 153.283 52.1949 153.283 36.0308C153.283 19.8666 140.134 6.71777 123.97 6.71777C112.232 6.71777 102.111 13.6679 97.4346 23.656L89.5851 20.7588C89.6782 20.1577 89.7712 19.5565 89.7712 18.9315C89.7712 12.1973 84.2917 6.71777 77.5575 6.71777C70.8232 6.71777 65.3437 12.1973 65.3437 18.9315C65.3437 25.6658 70.8232 31.1453 77.5575 31.1453C81.9325 31.1453 85.7481 28.8122 87.9046 25.3461L95.7409 28.2385C95.0527 30.7254 94.6567 33.3292 94.6567 36.0308C94.6567 39.2309 95.1887 42.3034 96.1417 45.1887L69.2762 56.5746C64.3573 47.2748 54.5935 40.9162 43.359 40.9162C39.7187 40.9162 36.2454 41.6152 33.0262 42.8318L26.2693 28.6321C29.213 26.3993 31.1453 22.901 31.1453 18.9315C31.1453 12.1973 25.6658 6.71777 18.9315 6.71777C12.1973 6.71777 6.71777 12.1973 6.71777 18.9315C6.71777 25.6658 12.1973 31.1453 18.9315 31.1453C19.9477 31.1453 20.9222 30.9842 21.8681 30.7469L28.6166 44.9322C19.9179 50.0229 14.046 59.442 14.046 70.2292C14.046 80.3616 19.2154 89.3048 27.0517 94.5708L22.5837 102.603C21.4208 102.237 20.2113 101.985 18.9315 101.985C12.1973 101.985 6.71777 107.464 6.71777 114.199C6.71777 120.933 12.1973 126.412 18.9315 126.412C25.6658 126.412 31.1453 120.933 31.1453 114.199C31.1453 110.5 29.4575 107.22 26.8537 104.98L31.3313 96.9313C35.005 98.594 39.0699 99.5422 43.359 99.5422C50.0622 99.5422 56.2276 97.2557 61.1715 93.4544L70.7862 104.032C65.9103 109.269 62.901 116.266 62.901 123.97C62.901 125.464 63.0501 126.921 63.2648 128.354L51.9527 131.039C50.0062 126.876 45.8065 123.97 40.9162 123.97C34.182 123.97 28.7025 129.449 28.7025 136.183C28.7025 142.918 34.182 148.397 40.9162 148.397C47.6505 148.397 53.13 142.918 53.13 136.183C53.13 136.049 53.093 135.922 53.0906 135.787L64.3812 133.111C68.2314 144.808 79.2428 153.283 92.214 153.283C108.378 153.283 121.527 140.134 121.527 123.97C121.527 118.958 120.259 114.238 118.031 110.11L132.38 100.78C134.598 103.027 137.671 104.428 141.069 104.428C147.803 104.428 153.283 98.9482 153.283 92.214C153.283 85.4797 147.803 80.0002 141.069 80.0002C134.335 80.0002 128.855 85.4797 128.855 92.214C128.855 93.792 129.18 95.2912 129.727 96.6772L115.345 106.027C112.467 102.327 108.73 99.3394 104.428 97.3559L116.35 64.3036C118.784 64.9597 121.331 65.3437 123.97 65.3437ZM77.5575 26.2598C73.5176 26.2598 70.2292 22.9714 70.2292 18.9315C70.2292 14.8917 73.5176 11.6033 77.5575 11.6033C81.5973 11.6033 84.8857 14.8917 84.8857 18.9315C84.8857 22.9714 81.5973 26.2598 77.5575 26.2598ZM11.6033 18.9315C11.6033 14.8917 14.8917 11.6033 18.9315 11.6033C22.9714 11.6033 26.2598 14.8917 26.2598 18.9315C26.2598 22.9714 22.9714 26.2598 18.9315 26.2598C14.8917 26.2598 11.6033 22.9714 11.6033 18.9315ZM18.9315 121.527C14.8917 121.527 11.6033 118.239 11.6033 114.199C11.6033 110.159 14.8917 106.87 18.9315 106.87C22.9714 106.87 26.2598 110.159 26.2598 114.199C26.2598 118.239 22.9714 121.527 18.9315 121.527ZM40.9162 143.512C36.8764 143.512 33.588 140.223 33.588 136.183C33.588 132.144 36.8764 128.855 40.9162 128.855C44.9561 128.855 48.2445 132.144 48.2445 136.183C48.2445 140.223 44.9561 143.512 40.9162 143.512ZM141.069 84.8857C145.109 84.8857 148.397 88.1741 148.397 92.214C148.397 96.2538 145.109 99.5422 141.069 99.5422C137.029 99.5422 133.741 96.2538 133.741 92.214C133.741 88.1741 137.029 84.8857 141.069 84.8857ZM109.584 55.729C110.674 50.0789 115.655 45.8017 121.527 45.8017H126.412C132.284 45.8017 137.265 50.0789 138.355 55.729C134.314 58.687 129.351 60.4582 123.97 60.4582C118.588 60.4582 113.625 58.687 109.584 55.729ZM123.97 40.9162C119.93 40.9162 116.641 37.6278 116.641 33.588C116.641 29.5482 119.93 26.2598 123.97 26.2598C128.01 26.2598 131.298 29.5482 131.298 33.588C131.298 37.6278 128.01 40.9162 123.97 40.9162ZM123.97 11.6033C137.439 11.6033 148.397 22.561 148.397 36.0308C148.397 42.1376 146.127 47.7173 142.407 52.004C140.696 47.4966 137.127 43.8993 132.68 42.1233C134.843 39.9191 136.183 36.9098 136.183 33.588C136.183 26.8537 130.704 21.3743 123.97 21.3743C117.235 21.3743 111.756 26.8537 111.756 33.588C111.756 36.9098 113.097 39.9191 115.259 42.1233C110.812 43.8993 107.244 47.4966 105.532 52.004C101.812 47.7173 99.5422 42.1376 99.5422 36.0308C99.5422 22.561 110.5 11.6033 123.97 11.6033ZM18.9315 70.2292C18.9315 56.7595 29.8893 45.8017 43.359 45.8017C56.8287 45.8017 67.7865 56.7595 67.7865 70.2292C67.7865 76.3552 65.5024 81.9492 61.7631 86.2419C60.0575 81.7178 56.4816 78.1026 52.0231 76.3218C54.1832 74.1176 55.5238 71.1083 55.5238 67.7865C55.5238 61.0522 50.0443 55.5727 43.3101 55.5727C36.5758 55.5727 31.0964 61.0522 31.0964 67.7865C31.0964 71.1083 32.437 74.1176 34.5995 76.3218C30.166 78.0894 26.6021 81.6736 24.8845 86.1631C21.1858 81.8812 18.9315 76.3194 18.9315 70.2292ZM35.9818 67.7865C35.9818 63.7466 39.2703 60.4582 43.3101 60.4582C47.3499 60.4582 50.6383 63.7466 50.6383 67.7865C50.6383 71.8263 47.3499 75.1147 43.3101 75.1147C39.2703 75.1147 35.9818 71.8263 35.9818 67.7865ZM28.9327 89.8953C30.0336 84.2607 35.0074 80.0002 40.8673 80.0002H45.7528C51.6355 80.0002 56.6259 84.2917 57.7006 89.9597C53.6679 92.8998 48.7204 94.6567 43.359 94.6567C37.9582 94.6567 32.9797 92.8735 28.9327 89.8953ZM77.7877 143.636C78.8886 138.001 83.8623 133.741 89.7223 133.741H94.6078C100.49 133.741 105.481 138.032 106.556 143.7C102.523 146.64 97.5754 148.397 92.214 148.397C86.8132 148.397 81.8347 146.614 77.7877 143.636ZM92.1651 128.855C88.1252 128.855 84.8368 125.567 84.8368 121.527C84.8368 117.487 88.1252 114.199 92.1651 114.199C96.2049 114.199 99.4933 117.487 99.4933 121.527C99.4933 125.567 96.2049 128.855 92.1651 128.855ZM116.641 123.97C116.641 130.096 114.357 135.69 110.618 139.982C108.912 135.458 105.337 131.843 100.878 130.062C103.038 127.858 104.379 124.849 104.379 121.527C104.379 114.793 98.8993 109.313 92.1651 109.313C85.4308 109.313 79.9513 114.793 79.9513 121.527C79.9513 124.849 81.292 127.858 83.4544 130.062C79.021 131.83 75.457 135.414 73.7395 139.904C70.0408 135.622 67.7865 130.06 67.7865 123.97C67.7865 110.5 78.7443 99.5422 92.214 99.5422C105.684 99.5422 116.641 110.5 116.641 123.97ZM99.8332 95.6968C97.4 95.0408 94.8523 94.6567 92.214 94.6567C85.5107 94.6567 79.3454 96.9432 74.4015 100.744L64.7867 90.1672C69.6627 84.9298 72.672 77.9332 72.672 70.2292C72.672 67.0291 72.14 63.9566 71.187 61.0713L98.0525 49.6853C101.062 55.3747 105.891 59.9406 111.758 62.6445L99.8332 95.6968Z" fill="#0D365B"/>
</g>
<defs>
<clipPath id="clip0_110_19085">
<rect width="160" height="160" fill="white"/>
</clipPath>
</defs>
</svg>
