<svg width="93" height="48" viewBox="0 0 93 48" fill="none" xmlns="http://www.w3.org/2000/svg">
<rect x="0.25" y="21.3135" width="19.5" height="0.5" stroke="#0088CC" stroke-width="0.5" stroke-dasharray="2 2"/>
<rect x="72.3359" y="21.3135" width="19.5" height="0.5" stroke="#0088CC" stroke-width="0.5" stroke-dasharray="2 2"/>
<g filter="url(#filter0_d_110_7777)">
<circle cx="46" cy="22" r="16" fill="url(#paint0_linear_110_7777)"/>
</g>
<g clip-path="url(#clip0_110_7777)">
<path d="M42.2929 16.7071C41.9024 16.3166 41.9024 15.6834 42.2929 15.2929C42.6834 14.9024 43.3166 14.9024 43.7071 15.2929L49.7071 21.2929C50.0857 21.6715 50.0989 22.2811 49.7372 22.6757L44.2372 28.6757C43.864 29.0828 43.2314 29.1103 42.8243 28.7372C42.4172 28.364 42.3897 27.7314 42.7628 27.3243L47.6159 22.0301L42.2929 16.7071Z" fill="white"/>
</g>
<defs>
<filter id="filter0_d_110_7777" x="24" y="0" width="48" height="48" filterUnits="userSpaceOnUse" color-interpolation-filters="sRGB">
<feFlood flood-opacity="0" result="BackgroundImageFix"/>
<feColorMatrix in="SourceAlpha" type="matrix" values="0 0 0 0 0 0 0 0 0 0 0 0 0 0 0 0 0 0 127 0" result="hardAlpha"/>
<feOffset dx="2" dy="2"/>
<feGaussianBlur stdDeviation="4"/>
<feColorMatrix type="matrix" values="0 0 0 0 0 0 0 0 0 0 0 0 0 0 0 0 0 0 0.05 0"/>
<feBlend mode="normal" in2="BackgroundImageFix" result="effect1_dropShadow_110_7777"/>
<feBlend mode="normal" in="SourceGraphic" in2="effect1_dropShadow_110_7777" result="shape"/>
</filter>
<linearGradient id="paint0_linear_110_7777" x1="30" y1="22" x2="62" y2="22" gradientUnits="userSpaceOnUse">
<stop stop-color="#0088CC"/>
<stop offset="1" stop-color="#BB45FF"/>
</linearGradient>
<clipPath id="clip0_110_7777">
<rect width="24" height="24" fill="white" transform="translate(34 10)"/>
</clipPath>
</defs>
</svg>
