<svg width="120" height="120" viewBox="0 0 120 120" fill="none" xmlns="http://www.w3.org/2000/svg">
<path d="M3.75 37.5H116.25V82.5H3.75V37.5Z" fill="#66B7E0"/>
<path d="M11.25 45H108.75V75H11.25V45Z" fill="#E2E7F6"/>
<path d="M101.25 69.375V45H11.25V69.375H101.25Z" fill="#F2F2F2"/>
<path d="M106.875 93.75V101.25H88.125V93.75H93.75V26.25H88.125V18.75H106.875V26.25H101.25V93.75H106.875Z" fill="#DFA8FF"/>
<path d="M26.25 60.9619L20.34 51.5063C20.1242 51.161 19.8019 50.8954 19.4218 50.7495C19.0417 50.6036 18.6245 50.5854 18.2331 50.6977C17.8417 50.8099 17.4975 51.0465 17.2525 51.3716C17.0075 51.6968 16.875 52.0929 16.875 52.5V69.375H20.625V59.0381L26.535 68.4938C26.7508 68.839 27.0731 69.1046 27.4532 69.2505C27.8333 69.3964 28.2505 69.4146 28.6419 69.3024C29.0333 69.1901 29.3775 68.9535 29.6225 68.6284C29.8675 68.3032 30 67.9071 30 67.5V50.625H26.25V60.9619Z" fill="#78A0D4"/>
<path d="M43.0875 52.125C43.0011 51.7015 42.7709 51.3209 42.4361 51.0475C42.1012 50.7742 41.6822 50.6249 41.25 50.625H35.625C35.1928 50.6249 34.7738 50.7742 34.4389 51.0475C34.1041 51.3209 33.874 51.7015 33.7875 52.125L31.9125 61.5C31.8874 61.6234 31.8749 61.7491 31.875 61.875V69.375H35.625V63.75H41.25V69.375H45V61.875C45.0001 61.7491 44.9876 61.6234 44.9625 61.5L43.0875 52.125ZM39.7125 54.375L40.8375 60H36.0375L37.1625 54.375H39.7125Z" fill="#78A0D4"/>
<path d="M60.4295 50.6756C60.0185 50.5786 59.5867 50.6233 59.2043 50.8022C58.8218 50.9812 58.5109 51.2841 58.322 51.6618L54.3751 59.5575L50.4376 51.6618C50.2519 51.2782 49.941 50.9693 49.5561 50.786C49.1713 50.6028 48.7355 50.5561 48.3206 50.6537C47.9057 50.7513 47.5364 50.9874 47.2737 51.323C47.0109 51.6586 46.8703 52.0737 46.8751 52.5V69.375H50.6251V60.4425L52.697 64.5881C52.8702 64.8787 53.116 65.1193 53.4101 65.2864C53.7043 65.4535 54.0368 65.5413 54.3751 65.5413C54.7134 65.5413 55.0459 65.4535 55.3401 65.2864C55.6343 65.1193 55.88 64.8787 56.0532 64.5881L58.1251 60.4425V69.375H61.8751V52.5C61.8749 52.0775 61.7321 51.6674 61.4697 51.3363C61.2073 51.0052 60.8408 50.7723 60.4295 50.6756Z" fill="#78A0D4"/>
<path d="M63.75 52.5V67.5C63.75 67.9973 63.9475 68.4742 64.2992 68.8258C64.6508 69.1775 65.1277 69.375 65.625 69.375H75V65.625H67.5V61.875H75V58.125H67.5V54.375H75V50.625H65.625C65.1277 50.625 64.6508 50.8225 64.2992 51.1742C63.9475 51.5258 63.75 52.0027 63.75 52.5Z" fill="#78A0D4"/>
<path d="M78.75 65.625H88.125V69.375H78.75V65.625Z" fill="#78A0D4"/>
<path d="M116.25 35.625H103.125V28.125H106.875C107.372 28.125 107.849 27.9275 108.201 27.5758C108.552 27.2242 108.75 26.7473 108.75 26.25V18.75C108.75 18.2527 108.552 17.7758 108.201 17.4242C107.849 17.0725 107.372 16.875 106.875 16.875H88.125C87.6277 16.875 87.1508 17.0725 86.7992 17.4242C86.4475 17.7758 86.25 18.2527 86.25 18.75V26.25C86.25 26.7473 86.4475 27.2242 86.7992 27.5758C87.1508 27.9275 87.6277 28.125 88.125 28.125H91.875V35.625H3.75C3.25272 35.625 2.77581 35.8225 2.42417 36.1742C2.07254 36.5258 1.875 37.0027 1.875 37.5V82.5C1.875 82.9973 2.07254 83.4742 2.42417 83.8258C2.77581 84.1775 3.25272 84.375 3.75 84.375H91.875V91.875H88.125C87.6277 91.875 87.1508 92.0725 86.7992 92.4242C86.4475 92.7758 86.25 93.2527 86.25 93.75V101.25C86.25 101.747 86.4475 102.224 86.7992 102.576C87.1508 102.927 87.6277 103.125 88.125 103.125H106.875C107.372 103.125 107.849 102.927 108.201 102.576C108.552 102.224 108.75 101.747 108.75 101.25V93.75C108.75 93.2527 108.552 92.7758 108.201 92.4242C107.849 92.0725 107.372 91.875 106.875 91.875H103.125V84.375H116.25C116.747 84.375 117.224 84.1775 117.576 83.8258C117.927 83.4742 118.125 82.9973 118.125 82.5V37.5C118.125 37.0027 117.927 36.5258 117.576 36.1742C117.224 35.8225 116.747 35.625 116.25 35.625ZM103.125 46.875H106.875V73.125H103.125V46.875ZM91.875 73.125H13.125V46.875H91.875V73.125ZM5.625 80.625V39.375H91.875V43.125H11.25C10.7527 43.125 10.2758 43.3225 9.92418 43.6742C9.57254 44.0258 9.375 44.5027 9.375 45V75C9.375 75.4973 9.57254 75.9742 9.92418 76.3258C10.2758 76.6775 10.7527 76.875 11.25 76.875H91.875V80.625H5.625ZM105 95.625V99.375H90V95.625H93.75C94.2473 95.625 94.7242 95.4275 95.0758 95.0758C95.4275 94.7242 95.625 94.2473 95.625 93.75V26.25C95.625 25.7527 95.4275 25.2758 95.0758 24.9242C94.7242 24.5725 94.2473 24.375 93.75 24.375H90V20.625H105V24.375H101.25C100.753 24.375 100.276 24.5725 99.9242 24.9242C99.5725 25.2758 99.375 25.7527 99.375 26.25V93.75C99.375 94.2473 99.5725 94.7242 99.9242 95.0758C100.276 95.4275 100.753 95.625 101.25 95.625H105ZM114.375 80.625H103.125V76.875H108.75C109.247 76.875 109.724 76.6775 110.076 76.3258C110.427 75.9742 110.625 75.4973 110.625 75V45C110.625 44.5027 110.427 44.0258 110.076 43.6742C109.724 43.3225 109.247 43.125 108.75 43.125H103.125V39.375H114.375V80.625Z" fill="#083863"/>
<path d="M20.625 59.0381L26.535 68.4938C26.7508 68.839 27.0731 69.1046 27.4532 69.2505C27.8333 69.3964 28.2505 69.4146 28.6419 69.3024C29.0333 69.1901 29.3775 68.9535 29.6225 68.6284C29.8675 68.3032 30 67.9071 30 67.5V50.625H26.25V60.9619L20.34 51.5063C20.1242 51.161 19.8019 50.8954 19.4218 50.7495C19.0417 50.6036 18.6245 50.5854 18.2331 50.6977C17.8417 50.8099 17.4975 51.0465 17.2525 51.3716C17.0075 51.6968 16.875 52.0929 16.875 52.5V69.375H20.625V59.0381Z" fill="#083863"/>
<path d="M35.625 63.75H41.25V69.375H45V61.875C45.0001 61.7491 44.9876 61.6234 44.9625 61.5L43.0875 52.125C43.0011 51.7015 42.7709 51.3209 42.4361 51.0475C42.1012 50.7742 41.6822 50.6249 41.25 50.625H35.625C35.1928 50.6249 34.7738 50.7742 34.4389 51.0475C34.1041 51.3209 33.874 51.7015 33.7875 52.125L31.9125 61.5C31.8874 61.6234 31.8749 61.7491 31.875 61.875V69.375H35.625V63.75ZM39.7144 54.375L40.8394 60H36.0375L37.1625 54.375H39.7144Z" fill="#083863"/>
<path d="M50.6251 60.4425L52.697 64.5881C52.8702 64.8787 53.116 65.1193 53.4101 65.2864C53.7043 65.4535 54.0368 65.5413 54.3751 65.5413C54.7134 65.5413 55.0459 65.4535 55.3401 65.2864C55.6343 65.1193 55.88 64.8787 56.0532 64.5881L58.1251 60.4425V69.375H61.8751V52.5C61.8755 52.0772 61.733 51.6668 61.4708 51.3352C61.2086 51.0036 60.842 50.7703 60.4306 50.6733C60.0191 50.5762 59.587 50.6211 59.2042 50.8005C58.8215 50.98 58.5106 51.2835 58.322 51.6618L54.3751 59.5575L50.4376 51.6618C50.2519 51.2782 49.941 50.9693 49.5561 50.786C49.1713 50.6028 48.7355 50.5561 48.3206 50.6537C47.9057 50.7513 47.5364 50.9874 47.2737 51.323C47.0109 51.6586 46.8703 52.0737 46.8751 52.5V69.375H50.6251V60.4425Z" fill="#083863"/>
<path d="M65.625 69.375H75V65.625H67.5V61.875H75V58.125H67.5V54.375H75V50.625H65.625C65.1277 50.625 64.6508 50.8225 64.2992 51.1742C63.9475 51.5258 63.75 52.0027 63.75 52.5V67.5C63.75 67.9973 63.9475 68.4742 64.2992 68.8258C64.6508 69.1775 65.1277 69.375 65.625 69.375Z" fill="#083863"/>
<path d="M78.75 65.625H88.125V69.375H78.75V65.625Z" fill="#083863"/>
</svg>
