<svg width="120" height="120" viewBox="0 0 120 120" fill="none" xmlns="http://www.w3.org/2000/svg">
<path d="M68.2796 16.1071C68.2796 12.2288 65.1351 9.08423 61.2567 9.08423H15.6079C11.7295 9.08423 8.58496 12.2288 8.58496 16.1071V19.6186H68.2796V16.1071Z" fill="#66B7E0"/>
<path d="M75.3018 100.381V110.916H106.905V100.381H75.3018Z" fill="#66B7E0"/>
<path d="M110.414 31.9081H26.1396V88.0913H74.1409C73.7457 85.9729 73.5451 83.822 73.5442 81.6668V72.2898C73.5502 70.3531 75.1191 68.7843 77.0557 68.7783H80.5671V46.1502C80.5311 44.283 81.9131 42.6902 83.7682 42.4639C84.7464 42.3833 85.7143 42.7133 86.4396 43.3752C87.1648 44.0378 87.5815 44.9723 87.59 45.9539V63.5111C87.596 61.5745 89.1649 60.0057 91.1015 59.9997C93.0347 60.0143 94.5984 61.578 94.6129 63.5111V65.2669C94.6189 63.3302 96.1878 61.7614 98.1244 61.7554C100.058 61.77 101.621 63.3337 101.636 65.2669V68.7783C101.642 66.8417 103.211 65.2729 105.147 65.2669C107.08 65.2814 108.644 66.8451 108.659 68.7783V81.6128C108.656 83.7868 108.452 85.9549 108.047 88.0913H108.659L110.414 81.0684V31.9081Z" fill="#DFA8FF"/>
<path d="M15.6079 110.916H61.2567C65.1351 110.916 68.2796 107.771 68.2796 103.893V100.381H8.58496V103.893C8.58496 107.771 11.7295 110.916 15.6079 110.916Z" fill="#66B7E0"/>
<path d="M68.2785 98.626H10.3396V21.374H66.5228V24.7449C66.5228 25.7145 67.3089 26.5006 68.2785 26.5006C69.2481 26.5006 70.0342 25.7145 70.0342 24.7449V16.1069C70.0282 11.2606 66.1019 7.33425 61.2556 7.32825H15.6068C10.7605 7.33425 6.83413 11.2606 6.82812 16.1069V103.893C6.83413 108.739 10.7605 112.666 15.6068 112.672H61.2556C66.1019 112.666 70.0282 108.739 70.0342 103.893V100.382C70.0342 99.4121 69.2481 98.626 68.2785 98.626ZM10.3396 16.1069C10.3396 13.1981 12.698 10.8397 15.6068 10.8397H61.2556C64.1644 10.8397 66.5228 13.1981 66.5228 16.1069V17.8626H10.3396V16.1069ZM66.5228 103.893C66.5228 106.802 64.1644 109.16 61.2556 109.16H15.6068C12.698 109.16 10.3396 106.802 10.3396 103.893V102.137H66.5228V103.893Z" fill="#0D365B"/>
<path d="M43.6988 12.5955H40.1874C39.2178 12.5955 38.4316 13.3816 38.4316 14.3512C38.4316 15.3208 39.2178 16.1069 40.1874 16.1069H43.6988C44.6684 16.1069 45.4545 15.3208 45.4545 14.3512C45.4545 13.3816 44.6684 12.5955 43.6988 12.5955Z" fill="#0D365B"/>
<path d="M34.9198 107.405H41.9427C42.9123 107.405 43.6984 106.619 43.6984 105.649C43.6984 104.679 42.9123 103.893 41.9427 103.893H34.9198C33.9502 103.893 33.1641 104.679 33.1641 105.649C33.1641 106.619 33.9502 107.405 34.9198 107.405Z" fill="#0D365B"/>
<path d="M34.9187 12.5955H33.163C32.1934 12.5955 31.4072 13.3816 31.4072 14.3512C31.4072 15.3208 32.1934 16.1069 33.163 16.1069H34.9187C35.8883 16.1069 36.6744 15.3208 36.6744 14.3512C36.6744 13.3816 35.8883 12.5955 34.9187 12.5955Z" fill="#0D365B"/>
<path d="M22.6312 24.8857H13.8525V33.6644H17.364V28.3972H22.6312V24.8857Z" fill="#0D365B"/>
<path d="M13.8525 86.3359V95.1146H22.6312V91.6031H17.364V86.3359H13.8525Z" fill="#0D365B"/>
<path d="M103.218 63.88C102.985 63.0013 102.519 62.2014 101.868 61.5662C100.179 59.9262 97.6237 59.567 95.5473 60.6754C95.3467 60.3625 95.111 60.0719 94.8452 59.8104C93.4007 58.3822 91.2729 57.8918 89.3483 58.5442V45.9541C89.3594 44.5636 88.8065 43.2288 87.8154 42.2532C86.7207 41.1336 85.1801 40.566 83.6207 40.7066C80.856 41.0127 78.7753 43.3685 78.8139 46.1504V67.0228H77.0582C74.1494 67.0228 71.791 69.3812 71.791 72.29V81.667C71.797 87.5686 73.2141 93.3835 75.924 98.6259H75.3025C74.3329 98.6259 73.5467 99.412 73.5467 100.382V110.916C73.5467 111.886 74.3329 112.672 75.3025 112.672H106.906C107.875 112.672 108.661 111.886 108.661 110.916V100.382C108.661 99.412 107.875 98.6259 106.906 98.6259H106.257L106.401 98.3412C109.035 93.1581 110.41 87.4271 110.417 81.613V68.7785C110.428 67.388 109.875 66.0532 108.884 65.0776C107.39 63.6091 105.179 63.1419 103.218 63.88ZM105.15 109.16H77.0582V102.137H105.15V109.16ZM106.906 81.613C106.899 86.8733 105.655 92.0582 103.273 96.7493L102.318 98.6259H79.8795L79.0634 97.0459C76.5987 92.2939 75.3085 87.0207 75.3025 81.667V72.29C75.3025 71.3204 76.0886 70.5343 77.0582 70.5343H78.8139V79.3129C78.8139 80.2825 79.6 81.0686 80.5696 81.0686C81.5392 81.0686 82.3254 80.2825 82.3254 79.3129V46.1504C82.2859 45.1911 82.97 44.3527 83.9182 44.1984C84.4094 44.1581 84.8964 44.3252 85.2599 44.6579C85.6242 44.9914 85.8334 45.4603 85.8368 45.9541V68.7785C85.8368 69.7481 86.6229 70.5343 87.5925 70.5343C88.5621 70.5343 89.3483 69.7481 89.3483 68.7785V63.5113C89.3483 62.5418 90.1344 61.7556 91.104 61.7556C91.5772 61.7539 92.0307 61.9485 92.3556 62.2931C92.6814 62.6146 92.8631 63.0536 92.8597 63.5113V72.29C92.8597 73.2596 93.6458 74.0457 94.6154 74.0457C95.585 74.0457 96.3712 73.2596 96.3712 72.29V65.2671C96.3712 64.2975 97.1573 63.5113 98.1269 63.5113C98.6001 63.5096 99.0536 63.7042 99.3785 64.0489C99.7043 64.3703 99.886 64.8093 99.8826 65.2671V75.8014C99.8826 76.771 100.669 77.5572 101.638 77.5572C102.608 77.5572 103.394 76.771 103.394 75.8014V68.7785C103.394 67.8089 104.18 67.0228 105.15 67.0228C105.623 67.0211 106.077 67.2157 106.401 67.5603C106.727 67.8818 106.909 68.3207 106.906 68.7785V81.613Z" fill="#0D365B"/>
<path d="M101.637 103.893H98.1258C97.1562 103.893 96.3701 104.679 96.3701 105.649C96.3701 106.619 97.1562 107.405 98.1258 107.405H101.637C102.607 107.405 103.393 106.619 103.393 105.649C103.393 104.679 102.607 103.893 101.637 103.893Z" fill="#0D365B"/>
<path d="M43.6978 47.7103C46.6066 47.7103 48.965 50.0687 48.965 52.9775C48.965 53.947 49.7511 54.7332 50.7207 54.7332C51.6903 54.7332 52.4764 53.947 52.4764 52.9775C52.4713 48.8076 49.5385 45.2147 45.4535 44.3746V42.4431C45.4535 41.4735 44.6674 40.6874 43.6978 40.6874C42.7282 40.6874 41.9421 41.4735 41.9421 42.4431V44.3746C37.5219 45.2722 34.5017 49.3726 34.9552 53.8596C35.4078 58.3466 39.1876 61.7604 43.6978 61.7561C46.6066 61.7561 48.965 64.1145 48.965 67.0233C48.965 69.932 46.6066 72.2904 43.6978 72.2904C40.789 72.2904 38.4306 69.932 38.4306 67.0233C38.4306 66.0537 37.6445 65.2675 36.6749 65.2675C35.7053 65.2675 34.9191 66.0537 34.9191 67.0233C34.9243 71.1931 37.8571 74.786 41.9421 75.6261V77.5576C41.9421 78.5272 42.7282 79.3133 43.6978 79.3133C44.6674 79.3133 45.4535 78.5272 45.4535 77.5576V75.6261C49.8737 74.7286 52.8939 70.6281 52.4404 66.1411C51.9877 61.6541 48.208 58.2403 43.6978 58.2446C40.789 58.2446 38.4306 55.8862 38.4306 52.9775C38.4306 50.0687 40.789 47.7103 43.6978 47.7103Z" fill="#0D365B"/>
<path d="M61.2557 49.4658H73.5458C74.5154 49.4658 75.3015 48.6797 75.3015 47.7101C75.3015 46.7405 74.5154 45.9543 73.5458 45.9543H61.2557C60.2861 45.9543 59.5 46.7405 59.5 47.7101C59.5 48.6797 60.2861 49.4658 61.2557 49.4658Z" fill="#0D365B"/>
<path d="M61.2557 56.4884H73.5458C74.5154 56.4884 75.3015 55.7022 75.3015 54.7327C75.3015 53.7631 74.5154 52.9769 73.5458 52.9769H61.2557C60.2861 52.9769 59.5 53.7631 59.5 54.7327C59.5 55.7022 60.2861 56.4884 61.2557 56.4884Z" fill="#0D365B"/>
<path d="M94.6151 56.4883H106.905C107.875 56.4883 108.661 55.7021 108.661 54.7325C108.661 53.7629 107.875 52.9768 106.905 52.9768H94.6151C93.6455 52.9768 92.8594 53.7629 92.8594 54.7325C92.8594 55.7021 93.6455 56.4883 94.6151 56.4883Z" fill="#0D365B"/>
<path d="M94.6151 49.4659H106.905C107.875 49.4659 108.661 48.6798 108.661 47.7102C108.661 46.7406 107.875 45.9545 106.905 45.9545H94.6151C93.6455 45.9545 92.8594 46.7406 92.8594 47.7102C92.8594 48.6798 93.6455 49.4659 94.6151 49.4659Z" fill="#0D365B"/>
<path d="M110.417 30.153H26.1424C25.1729 30.153 24.3867 30.9391 24.3867 31.9087V88.0919C24.3867 89.0615 25.1729 89.8476 26.1424 89.8476H68.2799C69.2494 89.8476 70.0356 89.0615 70.0356 88.0919C70.0356 87.1223 69.2494 86.3362 68.2799 86.3362H27.8982V33.6644H108.662V42.443C108.662 43.4126 109.448 44.1988 110.417 44.1988C111.387 44.1988 112.173 43.4126 112.173 42.443V31.9087C112.173 30.9391 111.387 30.153 110.417 30.153Z" fill="#0D365B"/>
</svg>
