<svg width="120" height="120" viewBox="0 0 120 120" fill="none" xmlns="http://www.w3.org/2000/svg">
<path fill-rule="evenodd" clip-rule="evenodd" d="M66.8839 64.4298C67.219 65.0103 67.3046 65.6968 67.1321 66.3444C66.9582 66.9962 66.5424 67.5453 65.9576 67.8821C64.7518 68.5764 63.2025 68.1613 62.5065 66.9561L48.2916 42.3371C47.956 41.7559 47.8686 41.068 48.0429 40.42C48.2175 39.7705 48.6352 39.2209 49.2179 38.885C49.7998 38.5494 50.4854 38.4639 51.1339 38.6373C51.7845 38.8114 52.3346 39.227 52.6716 39.8108L66.8839 64.4298ZM24.9966 26.7864H90.6966C93.7979 26.7864 96.3216 29.3101 96.3216 32.4114V73.5064H111.284C113.352 73.5064 115.034 71.8255 115.034 69.7574V11.8243C115.034 9.7555 113.352 8.0741 111.284 8.0741H28.7471C26.6794 8.0741 24.9968 9.75667 24.9968 11.8243L24.9966 26.7864ZM38.7518 71.7582L33.7362 74.6551C30.6389 76.4441 26.6501 75.3744 24.8635 72.2755C24.0005 70.7785 23.7767 69.0193 24.2234 67.3508C24.6718 65.6762 25.7403 64.2709 27.2419 63.4035L32.258 60.5064L38.7518 71.7582ZM41.8899 71.5459C42.0129 71.4967 42.1355 71.446 42.2586 71.3966L42.7615 71.1946L46.2762 75.9233L44.8259 76.982L41.0407 71.8843L41.8899 71.5459Z" fill="#DFA8FF"/>
<path fill-rule="evenodd" clip-rule="evenodd" d="M24.998 26.7864H90.6981C93.7993 26.7864 96.3231 29.3101 96.3231 32.4114V73.5064H111.285C113.353 73.5064 115.035 71.8255 115.035 69.7574V11.8243C115.035 9.7555 113.354 8.0741 111.285 8.0741H28.7485C26.6809 8.0741 24.9983 9.75667 24.9983 11.8243L24.998 26.7864Z" fill="#66B7E0"/>
<path fill-rule="evenodd" clip-rule="evenodd" d="M66.453 66.1632C66.3271 66.6374 66.0271 67.0311 65.6071 67.2728C64.7359 67.7746 63.6175 67.4767 63.1157 66.6043L48.9009 41.9854C48.6595 41.5684 48.5964 41.0765 48.7223 40.6023C48.8514 40.1291 49.1523 39.7356 49.5693 39.4939C49.9884 39.2535 50.478 39.1897 50.9523 39.3165C51.4256 39.4433 51.8193 39.7433 52.063 40.1624L66.2756 64.7814C66.517 65.1983 66.5798 65.69 66.453 66.1632ZM45.2891 75.7736L44.9748 76.003L42.1504 72.1993C42.2748 72.1497 42.3974 72.099 42.5209 72.0493L45.2891 75.7736ZM45.5582 85.7113L47.0746 84.3327L39.5894 74.2548L37.7774 75.2992L45.5582 85.7113ZM25.473 71.9247C24.7042 70.5913 24.5003 69.0329 24.9027 67.5329C25.3042 66.0299 26.2602 64.7814 27.5938 64.0126L32.0008 61.4673L37.792 71.5011L33.385 74.0464C30.6201 75.6423 27.0688 74.6926 25.473 71.9247ZM47.9029 46.8179C44.9683 51.5172 40.5358 56.2 35.1154 60.2992L40.3607 69.3889C46.626 66.7421 52.897 65.2499 58.4331 65.0582L47.9029 46.8179ZM63.3991 50.0272C62.8818 49.1275 61.855 48.6983 60.8889 48.8879L63.1321 52.7711C63.7785 52.029 63.9196 50.9272 63.3991 50.0272ZM64.8086 55.6761C65.7803 54.9261 66.4839 53.885 66.8069 52.6775C67.1962 51.2174 66.9967 49.6944 66.2423 48.3864C64.813 45.9137 61.7845 44.93 59.2082 45.9822L54.9027 38.5213C54.2233 37.3436 53.1227 36.5019 51.8027 36.148C50.4836 35.7939 49.1071 35.9715 47.9282 36.6543C46.7514 37.3337 45.9079 38.4353 45.5538 39.7543C45.2097 41.0436 45.3763 42.3847 46.0181 43.5449C43.368 48.4051 38.8506 53.3603 33.141 57.6791C32.7053 57.5279 32.2113 57.5577 31.78 57.8059L25.9525 61.1697C23.8605 62.3783 22.3628 64.3361 21.7319 66.6817C21.1042 69.0308 21.423 71.4747 22.6319 73.5657C23.8394 75.659 25.7959 77.1566 28.143 77.7843C28.9305 77.9959 29.7288 78.1007 30.5184 78.1007C32.047 78.1007 33.5512 77.709 34.9131 76.9482L43.0511 87.8368C43.5805 88.5449 44.3601 88.9804 45.2535 89.0598C45.3494 89.0699 45.4455 89.0741 45.5413 89.0741C46.3134 89.0741 47.0444 88.7929 47.6256 88.2657L49.3923 86.66C50.5855 85.5803 50.7566 83.785 49.7915 82.4858L46.9316 78.6379L47.4876 78.2319C48.104 77.7819 48.5066 77.1093 48.6236 76.3384C48.7504 75.5047 48.5298 74.6345 48.0191 73.9473L45.7218 70.8559C50.9064 69.0957 55.9342 68.2201 60.3236 68.327C61.2775 69.9095 62.9671 70.7973 64.702 70.7973C65.5687 70.7973 66.4455 70.5768 67.2473 70.1136C68.4241 69.4332 69.2678 68.3314 69.6206 67.0124C69.9756 65.6922 69.7947 64.3171 69.1143 63.1403L64.8086 55.6761ZM77.4362 54.5931C77.4362 55.4975 76.7029 56.233 75.7952 56.233H70.5543C69.6501 56.233 68.9144 55.4973 68.9144 54.5931C68.9144 53.6854 69.6498 52.952 70.5543 52.952H75.7952C76.7029 52.952 77.4362 53.6856 77.4362 54.5931ZM61.6047 40.7291C61.1514 41.5145 61.4193 42.5181 62.2035 42.9702C62.4616 43.1202 62.7449 43.1907 63.0217 43.1907C63.5896 43.1907 64.1423 42.8952 64.4444 42.3702L67.0647 37.8297C67.5191 37.0478 67.2501 36.0418 66.4647 35.5897C65.6795 35.1376 64.6759 35.4043 64.2238 36.1897L61.6047 40.7291ZM68.2176 47.2471C67.7631 46.4619 68.0334 45.4593 68.8188 45.005L73.1221 42.5202C73.9063 42.0681 74.9099 42.3372 75.362 43.1223C75.8141 43.9054 75.5451 44.9113 74.762 45.3634L70.4587 47.848C70.2006 47.9947 69.9173 48.0676 69.6414 48.0676C69.0733 48.0676 68.5209 47.7721 68.2176 47.2471ZM114.331 69.7574V11.8243C114.331 10.1436 112.965 8.77723 111.284 8.77723H28.7474C27.0688 8.77723 25.7003 10.1436 25.7003 11.8243V26.0832H90.6972C94.1866 26.0832 97.0253 28.922 97.0253 32.4114V72.8036H111.284C112.965 72.8036 114.331 71.4372 114.331 69.7574ZM93.7443 92.0317V32.4114C93.7443 30.7307 92.3779 29.3643 90.6972 29.3643H8.15922C6.47945 29.3643 5.11305 30.7307 5.11305 32.4114V92.0317C5.11305 93.7124 6.47945 95.0788 8.15922 95.0788H24.0602C24.9667 95.0788 25.7001 95.8145 25.7001 96.7187V109.061L41.1566 95.4868C41.4578 95.2232 41.8415 95.0788 42.2397 95.0788H90.697C92.3777 95.079 93.7443 93.7126 93.7443 92.0317ZM111.284 5.49622H28.7474C25.259 5.49622 22.4193 8.33497 22.4193 11.8243V26.0832H8.15922C4.67195 26.0832 1.83203 28.922 1.83203 32.4114V92.0317C1.83203 95.5211 4.67195 98.3598 8.15922 98.3598H22.4191V112.687C22.4191 113.332 22.7964 113.914 23.384 114.18C23.6001 114.278 23.8316 114.328 24.0599 114.328C24.4504 114.328 24.8373 114.187 25.1418 113.92L42.858 98.3596H90.6965C94.1859 98.3596 97.0246 95.5208 97.0246 92.0314V76.0853H111.284C114.774 76.0853 117.612 73.2465 117.612 69.7571V11.8243C117.612 8.33497 114.775 5.49622 111.284 5.49622Z" fill="#083863"/>
<path d="M95 36C104.389 36 112 29.732 112 22C112 14.268 104.389 8 95 8C85.6112 8 78 14.268 78 22C78 29.732 85.6112 36 95 36Z" fill="#F7E79B"/>
<path fill-rule="evenodd" clip-rule="evenodd" d="M112.394 21.9041C112.394 31.5164 104.602 39.3087 94.9895 39.3087C85.3773 39.3087 77.585 31.5164 77.585 21.9041C77.585 12.2918 85.3773 4.49951 94.9895 4.49951C104.602 4.49951 112.394 12.2918 112.394 21.9041ZM94.9895 35.6446C102.578 35.6446 108.73 29.4927 108.73 21.9041C108.73 14.3154 102.578 8.16363 94.9895 8.16363C87.4009 8.16363 81.2491 14.3154 81.2491 21.9041C81.2491 29.4927 87.4009 35.6446 94.9895 35.6446Z" fill="#0D365B"/>
<path d="M96.5878 20.5878H93.1527C92.6971 20.5878 92.2603 20.4068 91.9382 20.0847C91.6161 19.7626 91.4351 19.3258 91.4351 18.8702C91.4351 18.4147 91.6161 17.9778 91.9382 17.6557C92.2603 17.3336 92.6971 17.1527 93.1527 17.1527H98.3053C98.7609 17.1527 99.1977 16.9717 99.5198 16.6496C99.8419 16.3275 100.023 15.8906 100.023 15.4351C100.023 14.9796 99.8419 14.5427 99.5198 14.2206C99.1977 13.8985 98.7609 13.7176 98.3053 13.7176H96.5878C96.5878 13.262 96.4068 12.8252 96.0847 12.5031C95.7626 12.181 95.3258 12 94.8702 12C94.4147 12 93.9778 12.181 93.6557 12.5031C93.3336 12.8252 93.1527 13.262 93.1527 13.7176C91.7861 13.7176 90.4755 14.2604 89.5092 15.2267C88.5429 16.1931 88 17.5037 88 18.8702C88 20.2368 88.5429 21.5474 89.5092 22.5137C90.4755 23.48 91.7861 24.0229 93.1527 24.0229H96.5878C97.0433 24.0229 97.4802 24.2039 97.8023 24.526C98.1244 24.8481 98.3053 25.2849 98.3053 25.7405C98.3053 26.196 98.1244 26.6328 97.8023 26.955C97.4802 27.2771 97.0433 27.458 96.5878 27.458H91.4351C90.9796 27.458 90.5427 27.639 90.2206 27.9611C89.8985 28.2832 89.7176 28.72 89.7176 29.1756C89.7176 29.6311 89.8985 30.068 90.2206 30.3901C90.5427 30.7122 90.9796 30.8931 91.4351 30.8931H93.1527C93.1527 31.3487 93.3336 31.7855 93.6557 32.1076C93.9778 32.4297 94.4147 32.6107 94.8702 32.6107C95.3258 32.6107 95.7626 32.4297 96.0847 32.1076C96.4068 31.7855 96.5878 31.3487 96.5878 30.8931C97.9544 30.8931 99.265 30.3503 100.231 29.3839C101.198 28.4176 101.74 27.107 101.74 25.7405C101.74 24.3739 101.198 23.0633 100.231 22.097C99.265 21.1307 97.9544 20.5878 96.5878 20.5878Z" fill="#0D365B"/>
</svg>
