<svg width="120" height="120" viewBox="0 0 120 120" fill="none" xmlns="http://www.w3.org/2000/svg">
<g clip-path="url(#clip0_110_7884)">
<path d="M79.0977 107.625V108.75C79.0977 112.894 75.7414 116.25 71.5977 116.25H30.3477C26.2039 116.25 22.8477 112.894 22.8477 108.75V101.25H76.0977L77.4477 102.938C78.5164 104.269 79.0977 105.919 79.0977 107.625Z" fill="#66B7E0"/>
<path d="M60.3477 22.5V30H22.8477V22.5C22.8477 18.3562 26.2039 15 30.3477 15H60.3477V22.5Z" fill="#66B7E0"/>
<path d="M71.2789 93.6938C71.2789 93.7125 71.2789 93.7313 71.2977 93.75H71.2789H30.3477V52.5H34.0977C36.1602 52.5 37.8477 50.8125 37.8477 48.75C37.8477 47.7188 37.4352 46.7812 36.7414 46.1063C36.0664 45.4125 35.1289 45 34.0977 45H30.3477V37.5H60.3477V48.75H71.5977V48.9375V67.5187C69.4977 67.6875 67.8477 69.45 67.8477 71.5875V72.7875C67.8477 73.0125 67.8664 73.2375 67.9039 73.4625L71.2789 93.6938Z" fill="#DFA8FF"/>
<path d="M60.3477 48.75V15V3.75H116.598V48.75H60.3477Z" fill="white"/>
<path d="M105.348 41.2499H89.8414C89.6727 40.9687 89.4852 40.7062 89.2414 40.4812C88.5664 39.7874 87.6289 39.3749 86.5977 39.3749C85.2102 39.3749 84.0102 40.1249 83.3539 41.2499H71.5977C71.5977 37.9124 73.8102 34.9874 76.9977 34.0874L84.7227 31.8749V28.9687C82.4914 27.6562 80.9727 25.2749 80.9727 22.4999V18.7499C80.9727 14.3812 84.7039 10.8937 89.1477 11.2874C93.0852 11.6249 95.9727 15.1874 95.9727 19.1437V22.4999C95.9727 25.2749 94.4539 27.6562 92.2227 28.9687V31.8749L99.9477 34.0874C101.541 34.5374 102.891 35.4937 103.848 36.7499C104.785 38.0249 105.348 39.5812 105.348 41.2499Z" fill="#DFA8FF"/>
<path d="M22.8477 56.2875V86.25H19.0977C16.6602 86.25 14.2977 85.4625 12.3477 84L7.84766 80.625H4.09766V50.625H7.84766L12.3477 47.25C14.2977 45.7875 16.6602 45 19.0977 45H22.8477H30.3477H34.0977C35.1289 45 36.0664 45.4125 36.7414 46.1063C37.4352 46.7813 37.8477 47.7188 37.8477 48.75C37.8477 50.8125 36.1602 52.5 34.0977 52.5H30.3477H24.7227C24.3664 53.925 23.7102 55.2188 22.8477 56.2875Z" fill="#F0D0B4"/>
<path d="M90.3477 60C90.3477 57.9375 92.0352 56.25 94.0977 56.25C95.1289 56.25 96.0664 56.6625 96.7414 57.3563C97.4352 58.0312 97.8477 58.9688 97.8477 60V63.75C97.8477 61.6875 99.5352 60 101.598 60C102.629 60 103.566 60.4125 104.241 61.1063C104.935 61.7812 105.348 62.7188 105.348 63.75V67.5C105.348 65.4375 107.035 63.75 109.098 63.75C110.129 63.75 111.066 64.1625 111.741 64.8563C112.435 65.5312 112.848 66.4688 112.848 67.5V93C112.848 94.7062 112.266 96.3562 111.198 97.6875L106.998 102.938C105.929 104.269 105.348 105.919 105.348 107.625V112.5H79.0977V108.75V107.625C79.0977 105.919 78.5164 104.269 77.4477 102.938L76.0977 101.25L72.8164 97.1438C72.0289 96.1688 71.5039 95.0062 71.2977 93.75C71.2789 93.7313 71.2789 93.7125 71.2789 93.6938L67.9039 73.4625C67.8664 73.2375 67.8477 73.0125 67.8477 72.7875V71.5875C67.8477 69.45 69.4977 67.6875 71.5977 67.5187C71.7102 67.5 71.8227 67.5 71.9352 67.5H75.3477L78.4227 84.4312C78.8164 86.5687 80.6727 88.125 82.8477 88.125V48.75V43.125C82.8477 42.45 83.0352 41.7938 83.3539 41.25C84.0102 40.125 85.2102 39.375 86.5977 39.375C87.6289 39.375 88.5664 39.7875 89.2414 40.4813C89.4852 40.7063 89.6727 40.9688 89.8414 41.25C90.1602 41.7938 90.3477 42.45 90.3477 43.125V48.75V60Z" fill="#F0D0B4"/>
<path d="M39.7227 20.625H35.9727V24.375H39.7227V20.625Z" fill="#083863"/>
<path d="M56.5977 106.875H45.3477V110.625H56.5977V106.875Z" fill="#083863"/>
<path d="M118.473 50.625V1.875H58.4727V13.125H62.2227V5.625H114.723V46.875H92.2227V43.125H107.223V41.25C107.223 37.1063 104.44 33.4163 100.454 32.2763L94.0977 30.4613V29.9606C96.4339 28.2 97.8477 25.4306 97.8477 22.5V19.1381C97.8477 14.0981 94.0958 9.82687 89.307 9.41062C86.6745 9.18375 84.0683 10.0669 82.1389 11.8369C80.2058 13.6106 79.0977 16.1306 79.0977 18.75V22.5C79.0977 25.4306 80.5114 28.2 82.8477 29.9606V30.4613L76.4914 32.2763C72.5052 33.4163 69.7227 37.1063 69.7227 41.25V43.125H80.9727V46.875H62.2227V13.125H30.3477C25.1783 13.125 20.9727 17.3306 20.9727 22.5V43.125H19.0977C16.2739 43.125 13.4783 44.0569 11.2245 45.75L7.22328 48.75H2.22266V82.5H7.22328L11.2227 85.5C13.4783 87.1931 16.2739 88.125 19.0977 88.125H20.9727V108.75C20.9727 113.919 25.1783 118.125 30.3477 118.125H71.5977C74.6483 118.125 77.337 116.638 79.0489 114.375H107.223V107.631C107.223 106.357 107.66 105.111 108.456 104.117L112.668 98.85C113.991 97.1944 114.723 95.115 114.723 92.9944V67.5C114.723 64.3988 112.199 61.875 109.098 61.875C108.357 61.875 107.654 62.0269 107.005 62.2875C106.358 59.8969 104.191 58.125 101.598 58.125C100.857 58.125 100.154 58.2769 99.5052 58.5375C98.8583 56.1469 96.6908 54.375 94.0977 54.375C93.4377 54.375 92.8114 54.51 92.2227 54.72V50.625H118.473ZM73.8008 39.375C74.397 37.7156 75.7639 36.3844 77.5208 35.8838L86.5977 33.2887V27.8813L85.6658 27.3394C83.9014 26.3119 82.8477 24.5025 82.8477 22.5V18.75C82.8477 17.1769 83.5114 15.6656 84.6739 14.6025C85.8477 13.5262 87.3852 13.0106 88.9827 13.1475C91.8514 13.3969 94.0977 16.0275 94.0977 19.1381V22.5C94.0977 24.5025 93.0439 26.3119 91.2795 27.3394L90.3477 27.8813V33.2887L99.4245 35.8838C101.181 36.3862 102.548 37.7175 103.145 39.375H90.7602C89.7308 38.2331 88.2533 37.5 86.5977 37.5C84.942 37.5 83.4664 38.2331 82.4352 39.375H73.8008ZM73.4727 50.625H80.9727V85.4587C80.6202 85.0969 80.3689 84.63 80.2714 84.0994L76.9133 65.625H73.4727V50.625ZM69.7227 50.625V66.0619C67.5289 66.9431 65.9727 69.0844 65.9727 71.5894V72.7875C65.9727 73.1156 66.0008 73.4437 66.0533 73.7663L69.072 91.875H32.2227V54.375H34.0977C37.1989 54.375 39.7227 51.8512 39.7227 48.75C39.7227 45.6488 37.1989 43.125 34.0977 43.125H32.2227V39.375H58.4727V50.625H69.7227ZM24.7227 56.8631C25.2627 56.0944 25.7408 55.275 26.0895 54.375H28.4727V95.625H69.8689C70.2177 96.5963 70.707 97.515 71.352 98.3213L72.1939 99.375H24.7227V56.8631ZM30.3477 16.875H58.4727V20.625H43.4727V24.375H58.4727V28.125H24.7227V22.5C24.7227 19.3988 27.2464 16.875 30.3477 16.875ZM24.7227 31.875H58.4727V35.625H28.4727V43.125H24.7227V31.875ZM19.0977 84.375C17.082 84.375 15.0833 83.7094 13.4727 82.5L8.47203 78.75H5.97266V52.5H8.47203L13.4745 48.75C15.0833 47.5406 17.082 46.875 19.0977 46.875H34.0977C35.1327 46.875 35.9727 47.715 35.9727 48.75C35.9727 49.785 35.1327 50.625 34.0977 50.625H23.2602L22.9058 52.0462C22.0095 55.6256 18.807 58.125 15.117 58.125H13.4727V61.875H15.117C17.2377 61.875 19.2327 61.2844 20.9727 60.2831V84.375H19.0977ZM71.5977 114.375H30.3477C27.2464 114.375 24.7227 111.851 24.7227 108.75V103.125H75.1939L75.987 104.117C76.7858 105.113 77.2227 106.359 77.2227 107.631V108.75C77.2227 111.851 74.6989 114.375 71.5977 114.375ZM94.0977 58.125C95.1327 58.125 95.9727 58.965 95.9727 60V63.75V86.25H99.7227V63.75C99.7227 62.715 100.563 61.875 101.598 61.875C102.633 61.875 103.473 62.715 103.473 63.75V67.5V86.25H107.223V67.5C107.223 66.465 108.063 65.625 109.098 65.625C110.133 65.625 110.973 66.465 110.973 67.5V92.9944C110.973 94.2675 110.536 95.5144 109.739 96.5081L105.528 101.775C104.204 103.431 103.473 105.51 103.473 107.631V110.625H80.9727V107.631C80.9727 105.51 80.2414 103.431 78.9177 101.773L74.2789 95.9775C73.6827 95.2331 73.2833 94.3369 73.1258 93.39L69.7508 73.1513C69.732 73.0312 69.7227 72.9094 69.7227 72.7856V71.5875C69.7227 70.3669 70.7145 69.375 71.937 69.375H73.782L76.5814 84.7706C77.1327 87.8006 79.767 90 82.8477 90H84.7227V43.125C84.7227 42.09 85.5627 41.25 86.5977 41.25C87.6327 41.25 88.4727 42.09 88.4727 43.125V60V78.75V86.25H92.2227V78.75V60C92.2227 58.965 93.0627 58.125 94.0977 58.125Z" fill="#083863"/>
<path d="M64.0977 84.375H35.9727V88.125H64.0977V84.375Z" fill="#083863"/>
<path d="M62.2227 76.875H35.9727V80.625H62.2227V76.875Z" fill="#083863"/>
<path d="M54.7227 43.125H43.4727V46.875H54.7227V43.125Z" fill="#083863"/>
<path d="M54.7227 50.625H43.4727V54.375H54.7227V50.625Z" fill="#083863"/>
<path d="M47.2227 58.125H35.9727V61.875H47.2227V58.125Z" fill="#083863"/>
<path d="M62.2227 69.375H50.9727V73.125H62.2227V69.375Z" fill="#083863"/>
</g>
<defs>
<clipPath id="clip0_110_7884">
<rect width="120" height="120" fill="white"/>
</clipPath>
</defs>
</svg>
