<svg width="160" height="160" viewBox="0 0 160 160" fill="none" xmlns="http://www.w3.org/2000/svg">
<g clip-path="url(#clip0_110_7715)">
<path d="M17.6983 22.7104C19.916 22.7099 22.084 22.0539 23.9299 20.8248L35.1029 31.991C28.2065 41.0292 24.4766 52.086 24.489 63.4547H29.0162C29.0162 50.8477 34.0243 38.7569 42.9389 29.8423C51.8535 20.9278 63.9442 15.9196 76.5513 15.9196C89.1584 15.9196 101.249 20.9278 110.164 29.8423C119.078 38.7569 124.086 50.8477 124.086 63.4547H128.614C128.626 52.086 124.896 41.0292 118 31.991L129.173 20.818C131.519 22.371 134.359 22.9973 137.141 22.5753C139.923 22.1533 142.449 20.7132 144.229 18.5342C146.009 16.3552 146.917 13.5927 146.776 10.7825C146.635 7.97222 145.455 5.31454 143.465 3.32489C141.475 1.33524 138.818 0.155433 136.008 0.0142991C133.197 -0.126835 130.435 0.78076 128.256 2.56105C126.077 4.34135 124.637 6.86745 124.215 9.64942C123.793 12.4314 124.419 15.2709 125.972 17.6173L115.107 28.4825C110.233 23.0969 104.284 18.7924 97.6445 15.8464C91.005 12.9005 83.8218 11.3784 76.5581 11.3784C69.2943 11.3784 62.1112 12.9005 55.4716 15.8464C48.8321 18.7924 42.8835 23.0969 38.0094 28.4825L27.1442 17.6173C28.5303 15.5125 29.1743 13.0053 28.974 10.4931C28.7737 7.98085 27.7407 5.60732 26.0386 3.74872C24.3366 1.89013 22.0628 0.652787 19.5779 0.232832C17.0929 -0.187122 14.5389 0.234334 12.3206 1.4304C10.1023 2.62646 8.34662 4.5287 7.33192 6.83561C6.31722 9.14252 6.10152 11.7221 6.719 14.1655C7.33648 16.6089 8.75181 18.7763 10.7407 20.3241C12.7295 21.872 15.1781 22.7118 17.6983 22.7104ZM135.404 4.60174C136.747 4.60174 138.06 5.00001 139.177 5.74619C140.294 6.49236 141.164 7.55293 141.678 8.79378C142.192 10.0346 142.327 11.4 142.065 12.7173C141.803 14.0346 141.156 15.2445 140.206 16.1942C139.256 17.1439 138.046 17.7907 136.729 18.0527C135.412 18.3147 134.046 18.1803 132.806 17.6663C131.565 17.1523 130.504 16.2819 129.758 15.1652C129.012 14.0485 128.614 12.7356 128.614 11.3925C128.614 9.59146 129.329 7.86421 130.603 6.5907C131.876 5.31719 133.603 4.60174 135.404 4.60174ZM17.6983 4.60174C19.0414 4.60174 20.3543 5.00001 21.471 5.74619C22.5878 6.49236 23.4581 7.55293 23.9721 8.79378C24.4861 10.0346 24.6206 11.4 24.3586 12.7173C24.0965 14.0346 23.4498 15.2445 22.5001 16.1942C21.5504 17.1439 20.3404 17.7907 19.0231 18.0527C17.7058 18.3147 16.3404 18.1803 15.0996 17.6663C13.8588 17.1523 12.7982 16.2819 12.052 15.1652C11.3058 14.0485 10.9076 12.7356 10.9076 11.3925C10.9076 9.59146 11.623 7.86421 12.8965 6.5907C14.17 5.31719 15.8973 4.60174 17.6983 4.60174Z" fill="#0D365B"/>
<path d="M135.406 20.4469C140.406 20.4469 144.46 16.3931 144.46 11.3926C144.46 6.39201 140.406 2.33826 135.406 2.33826C130.405 2.33826 126.352 6.39201 126.352 11.3926C126.352 16.3931 130.405 20.4469 135.406 20.4469Z" fill="#DFA8FF"/>
<path d="M17.6998 20.4469C22.7004 20.4469 26.7541 16.3931 26.7541 11.3926C26.7541 6.39201 22.7004 2.33826 17.6998 2.33826C12.6993 2.33826 8.64551 6.39201 8.64551 11.3926C8.64551 16.3931 12.6993 20.4469 17.6998 20.4469Z" fill="#DFA8FF"/>
<path d="M17.6998 110.99C22.7004 110.99 26.7541 106.936 26.7541 101.936C26.7541 96.9351 22.7004 92.8813 17.6998 92.8813C12.6993 92.8813 8.64551 96.9351 8.64551 101.936C8.64551 106.936 12.6993 110.99 17.6998 110.99Z" fill="#DFA8FF"/>
<path d="M135.406 110.99C140.406 110.99 144.46 106.936 144.46 101.936C144.46 96.9351 140.406 92.8813 135.406 92.8813C130.405 92.8813 126.352 96.9351 126.352 101.936C126.352 106.936 130.405 110.99 135.406 110.99Z" fill="#DFA8FF"/>
<path d="M135.406 90.6176C133.146 90.6143 130.938 91.291 129.068 92.5598L115.76 81.1513C118.71 74.6014 119.972 67.4168 119.432 60.2536C118.891 53.0903 116.565 46.1766 112.666 40.1435C108.766 34.1104 103.417 29.1502 97.1081 25.7157C90.7987 22.2812 83.7295 20.4818 76.5458 20.4818C69.3622 20.4818 62.293 22.2812 55.9836 25.7157C49.6742 29.1502 44.3256 34.1104 40.4261 40.1435C36.5266 46.1766 34.2003 53.0903 33.6598 60.2536C33.1193 67.4168 34.3816 74.6014 37.3316 81.1513L24.0376 92.5598C21.6886 90.9567 18.8278 90.2837 16.0105 90.6714C13.1932 91.0591 10.6205 92.4798 8.79174 94.6577C6.96302 96.8356 6.00881 99.6153 6.11435 102.457C6.21989 105.299 7.37765 108 9.36287 110.037C11.3481 112.073 14.0191 113.299 16.8574 113.477C19.6957 113.654 22.4988 112.771 24.7224 110.998C26.946 109.225 28.4316 106.689 28.8906 103.883C29.3497 101.076 28.7495 98.1992 27.2066 95.8103L39.4933 85.2778C42.2767 89.9939 45.9326 94.1368 50.2657 97.4853L53.0114 93.9043C46.6574 88.9931 41.9992 82.2169 39.6895 74.5254C37.3799 66.834 37.5344 58.6126 40.1316 51.0134C42.7288 43.4141 47.6385 36.8179 54.1726 32.149C60.7067 27.48 68.5378 24.9724 76.5686 24.9774C84.5994 24.9824 92.4274 27.4999 98.9556 32.177C105.484 36.8541 110.385 43.4565 112.973 51.0589C115.561 58.6614 115.705 66.883 113.386 74.5716C111.066 82.2602 106.4 89.0304 100.04 93.9338L102.81 97.5147C107.16 94.1608 110.829 90.0076 113.621 85.2778L125.908 95.8103C124.55 97.9231 123.935 100.428 124.159 102.929C124.384 105.431 125.435 107.786 127.147 109.624C128.859 111.461 131.134 112.676 133.613 113.077C136.092 113.478 138.634 113.041 140.838 111.836C143.041 110.632 144.781 108.727 145.782 106.424C146.783 104.121 146.988 101.55 146.365 99.1167C145.742 96.6837 144.327 94.5275 142.342 92.9885C140.358 91.4495 137.917 90.6153 135.406 90.6176ZM17.6996 108.726C16.3565 108.726 15.0436 108.328 13.9269 107.582C12.8102 106.836 11.9398 105.775 11.4258 104.534C10.9118 103.293 10.7773 101.928 11.0394 100.611C11.3014 99.2934 11.9481 98.0834 12.8978 97.1337C13.8475 96.184 15.0575 95.5373 16.3748 95.2753C17.6921 95.0132 19.0575 95.1477 20.2983 95.6617C21.5392 96.1757 22.5997 97.046 23.3459 98.1628C24.0921 99.2795 24.4903 100.592 24.4903 101.936C24.4903 103.737 23.7749 105.464 22.5014 106.737C21.2279 108.011 19.5006 108.726 17.6996 108.726ZM135.406 108.726C134.063 108.726 132.75 108.328 131.633 107.582C130.516 106.836 129.646 105.775 129.132 104.534C128.618 103.293 128.483 101.928 128.745 100.611C129.007 99.2934 129.654 98.0834 130.604 97.1337C131.554 96.184 132.764 95.5373 134.081 95.2753C135.398 95.0132 136.763 95.1477 138.004 95.6617C139.245 96.1757 140.306 97.046 141.052 98.1628C141.798 99.2795 142.196 100.592 142.196 101.936C142.196 103.737 141.481 105.464 140.207 106.737C138.934 108.011 137.207 108.726 135.406 108.726Z" fill="#0D365B"/>
<path d="M131.233 104.563C126.489 104.563 122.627 108.422 122.627 113.166C122.627 117.911 126.489 121.772 131.233 121.772C135.978 121.772 139.836 117.911 139.836 113.166C139.836 108.422 135.978 104.563 131.233 104.563ZM131.233 119.03C128 119.03 125.37 116.4 125.37 113.166C125.37 109.933 128 107.306 131.233 107.306C134.467 107.306 137.094 109.936 137.094 113.166C137.094 116.397 134.464 119.03 131.233 119.03ZM131.233 104.563C126.489 104.563 122.627 108.422 122.627 113.166C122.627 117.911 126.489 121.772 131.233 121.772C135.978 121.772 139.836 117.911 139.836 113.166C139.836 108.422 135.978 104.563 131.233 104.563ZM131.233 119.03C128 119.03 125.37 116.4 125.37 113.166C125.37 109.933 128 107.306 131.233 107.306C134.467 107.306 137.094 109.936 137.094 113.166C137.094 116.397 134.464 119.03 131.233 119.03ZM131.233 104.563C126.489 104.563 122.627 108.422 122.627 113.166C122.627 117.911 126.489 121.772 131.233 121.772C135.978 121.772 139.836 117.911 139.836 113.166C139.836 108.422 135.978 104.563 131.233 104.563ZM131.233 119.03C128 119.03 125.37 116.4 125.37 113.166C125.37 109.933 128 107.306 131.233 107.306C134.467 107.306 137.094 109.936 137.094 113.166C137.094 116.397 134.464 119.03 131.233 119.03ZM131.233 104.563C126.489 104.563 122.627 108.422 122.627 113.166C122.627 117.911 126.489 121.772 131.233 121.772C135.978 121.772 139.836 117.911 139.836 113.166C139.836 108.422 135.978 104.563 131.233 104.563ZM131.233 119.03C128 119.03 125.37 116.4 125.37 113.166C125.37 109.933 128 107.306 131.233 107.306C134.467 107.306 137.094 109.936 137.094 113.166C137.094 116.397 134.464 119.03 131.233 119.03ZM131.233 104.563C126.489 104.563 122.627 108.422 122.627 113.166C122.627 117.911 126.489 121.772 131.233 121.772C135.978 121.772 139.836 117.911 139.836 113.166C139.836 108.422 135.978 104.563 131.233 104.563ZM131.233 119.03C128 119.03 125.37 116.4 125.37 113.166C125.37 109.933 128 107.306 131.233 107.306C134.467 107.306 137.094 109.936 137.094 113.166C137.094 116.397 134.464 119.03 131.233 119.03ZM131.233 104.563C126.489 104.563 122.627 108.422 122.627 113.166C122.627 117.911 126.489 121.772 131.233 121.772C135.978 121.772 139.836 117.911 139.836 113.166C139.836 108.422 135.978 104.563 131.233 104.563ZM131.233 119.03C128 119.03 125.37 116.4 125.37 113.166C125.37 109.933 128 107.306 131.233 107.306C134.467 107.306 137.094 109.936 137.094 113.166C137.094 116.397 134.464 119.03 131.233 119.03ZM151.607 107.221C150.198 106.219 149.556 104.667 149.844 102.964C150.288 100.337 149.66 98.2169 147.921 96.4781C146.183 94.7394 144.06 94.1113 141.435 94.5556C139.732 94.8463 138.18 94.2018 137.179 92.7922C135.635 90.6201 133.69 89.5642 131.233 89.5642C128.776 89.5642 126.829 90.6201 125.287 92.7922C124.286 94.2018 122.734 94.8436 121.028 94.5556C118.401 94.1113 116.281 94.7394 114.542 96.4781C112.803 98.2169 112.175 100.34 112.62 102.964C112.91 104.667 112.266 106.219 110.856 107.221C109.205 108.394 108.202 109.801 107.815 111.491C107.332 111.301 106.85 111.109 106.356 110.917C103.973 109.982 101.51 109.017 98.9209 107.947L91.3653 101.955C90.9073 101.593 90.2821 101.563 89.7994 101.859C89.3935 99.8432 89.0891 97.2789 88.8861 94.2018C89.8268 93.2227 90.7373 92.2409 91.5793 91.3112C94.4616 88.1272 96.3951 83.1605 97.6896 78.1911C98.6138 78.9041 99.6477 79.4499 100.695 79.4499C100.978 79.4499 101.263 79.4115 101.546 79.3237C103.932 78.586 104.461 75.2621 105.078 71.4171L105.086 71.365C105.157 70.9234 105.327 70.2789 105.508 69.5988C106.12 67.2924 106.882 64.4237 105.753 62.5999C105.204 61.7168 104.409 61.1491 103.454 60.9627C102.815 60.8365 102.113 60.8831 101.348 61.1025C105.585 50.0667 106.054 42.6674 102.791 38.5399C99.3296 34.1574 92.8052 35.0953 89.7171 35.6164C87.7343 32.4845 83.5931 30.2932 78.1519 29.539C72.4448 28.7464 66.1178 29.6213 60.7946 31.9415C55.0381 34.4509 50.8558 38.4275 48.7002 43.4463C46.5144 48.5364 46.4541 54.4794 48.5082 61.1464C47.6855 60.8914 46.9367 60.8283 46.2511 60.9627C45.2967 61.1491 44.5041 61.7168 43.9556 62.5999C42.823 64.4237 43.5854 67.2924 44.1997 69.5988C44.3807 70.2789 44.5508 70.9234 44.6221 71.3622L44.6303 71.4143C45.2446 75.2621 45.7767 78.586 48.1626 79.3237C48.4451 79.4115 48.7303 79.4499 49.0128 79.4499C50.0605 79.4499 51.0916 78.9041 52.0159 78.1911C53.3131 83.1605 55.2465 88.1272 58.1289 91.3112C58.9709 92.2409 59.8814 93.2227 60.8221 94.2018C60.6191 97.2789 60.3119 99.8432 59.9088 101.859C59.4261 101.565 58.8008 101.593 58.3428 101.955L50.7872 107.947C48.1983 109.014 45.7383 109.979 43.3578 110.915C28.5263 116.737 17.8086 120.944 17.8086 135.084V144.99C17.8086 145.747 18.4229 146.362 19.1798 146.362H120.869L120.271 158.563C120.244 159.106 120.543 159.613 121.028 159.855C121.516 160.099 122.101 160.03 122.52 159.682L131.233 152.417L139.946 159.682C140.198 159.893 140.508 160 140.824 160C141.032 160 141.241 159.953 141.435 159.855C141.923 159.613 142.22 159.106 142.192 158.563L140.879 131.719C141.062 131.728 141.249 131.747 141.435 131.78C144.063 132.224 146.183 131.596 147.921 129.857C149.66 128.118 150.288 125.996 149.844 123.371C149.556 121.665 150.198 120.113 151.607 119.112C153.779 117.571 154.835 115.626 154.835 113.166C154.835 110.706 153.779 108.765 151.607 107.221ZM90.5645 104.821L96.3951 109.445L85.6911 126.158L76.8355 117.061L90.5645 104.821ZM80.5407 124.8L78.2123 128.332H71.4931L69.1648 124.8L74.8527 118.956L80.5407 124.8ZM62.2509 103.919C62.7308 102.059 63.1066 99.6567 63.3726 96.7496C65.7065 98.9793 67.9964 100.852 69.6584 101.505C70.536 101.851 71.2436 101.958 71.8689 101.958C72.3872 101.958 72.8507 101.884 73.3059 101.812C73.7694 101.735 74.2466 101.661 74.8527 101.653C75.4588 101.661 75.9387 101.735 76.4022 101.812C77.406 101.971 78.4427 102.139 80.0498 101.505C81.7117 100.852 84.0017 98.9793 86.3328 96.7496C86.6016 99.6594 86.9773 102.059 87.4573 103.919L74.8527 115.155L62.2509 103.919ZM102.925 63.6531C103.068 63.6805 103.238 63.749 103.421 64.0452C103.929 64.8625 103.232 67.4843 102.856 68.894C102.659 69.6427 102.47 70.353 102.377 70.9317L102.368 70.9838C102.113 72.5881 101.869 74.102 101.515 75.2429C101.101 76.5757 100.739 76.7019 100.736 76.7019C100.728 76.7046 100.103 76.8253 98.4053 75.1688C99.2638 71.1456 99.7327 67.3664 99.9795 64.8186C101.776 63.6119 102.629 63.5927 102.925 63.6531ZM48.9717 76.7019C48.9689 76.7019 48.6069 76.5757 48.1928 75.2429C47.8363 74.102 47.5949 72.5881 47.3372 70.9838L47.3289 70.9317C47.2384 70.353 47.0492 69.6427 46.849 68.894C46.476 67.4843 45.7794 64.8625 46.2868 64.0452C46.4678 63.7518 46.6323 63.6832 46.7804 63.6531C47.0766 63.5955 47.9295 63.6119 49.7286 64.8186C49.9754 67.3664 50.4444 71.1456 51.3028 75.1688C49.6025 76.8253 48.9772 76.7046 48.9717 76.7019ZM51.3056 60.8996C45.7191 43.7013 56.7056 36.7162 61.8916 34.4563C65.7229 32.7862 70.0012 31.9991 73.9833 31.9991C80.3843 31.9991 86.012 34.0367 87.748 37.7144C88.0085 38.2657 88.5982 38.5783 89.2015 38.4851C89.3935 38.4522 89.6156 38.4165 89.8624 38.3726C92.5227 37.9201 98.0625 36.9767 100.64 40.2403C102.412 42.4809 103.435 47.5902 99.1266 59.2157C98.5315 57.3919 97.6402 55.527 96.439 54.0104C96.0907 53.5689 95.512 53.3851 94.9772 53.5442C94.4397 53.7032 94.053 54.1722 93.9981 54.7289C93.9899 54.8222 93.9186 55.3734 93.4167 56.2126C92.3746 53.0204 90.4411 49.946 87.5395 49.3673C86.8896 49.2384 86.2396 49.5922 85.9955 50.2065C84.7888 53.2535 81.2236 53.1849 75.0255 52.7955C67.6207 52.3347 57.6874 51.7122 51.3056 60.8996ZM60.1611 89.471C54.6569 83.3909 52.8825 69.075 52.4327 64.2811C57.8601 54.4711 66.883 55.0361 74.8555 55.5325C80.324 55.8753 85.5156 56.2017 87.9153 52.4609C89.4264 53.4866 90.8306 56.2072 91.3873 59.3885C91.475 59.8849 91.8261 60.2935 92.306 60.4525C92.7832 60.6116 93.3098 60.4964 93.6773 60.1536C94.5521 59.3309 95.1802 58.552 95.6272 57.8527C96.7434 60.1043 97.237 62.5752 97.2974 64.0288C96.8887 68.5484 95.15 83.2812 89.5443 89.471C84.8354 94.6763 80.9109 98.2196 79.046 98.9546C78.1355 99.3111 77.7022 99.2426 76.8355 99.1027C76.3227 99.0204 75.6837 98.9189 74.8692 98.9107H74.839C74.0217 98.9189 73.3855 99.0204 72.8726 99.1027C72.006 99.2426 71.5727 99.3111 70.6622 98.9546C68.8 98.2223 64.8755 94.6763 60.1611 89.471ZM59.1436 104.821L72.8726 117.061L64.0171 126.158L53.3131 109.445L59.1436 104.821ZM20.5511 143.619V135.084C20.5511 123.253 28.8856 119.559 42.7901 114.085L55.0902 143.619H20.5511ZM67.7057 143.619H58.0631L45.3433 113.081C47.1534 112.371 49.0156 111.633 50.949 110.841L62.6403 129.089C62.8652 129.443 63.2409 129.673 63.6551 129.715C64.0747 129.756 64.486 129.608 64.7767 129.306L67.2066 126.81L69.3348 130.041L67.7057 143.619ZM70.4674 143.619L71.9731 131.075H77.7351L79.238 143.619H70.4674ZM82.0024 143.619L80.3734 130.041L82.5016 126.81L84.9314 129.306C85.1892 129.575 85.5457 129.723 85.9132 129.723C85.9599 129.723 86.0037 129.72 86.0504 129.715C86.4672 129.673 86.8429 129.443 87.0678 129.089L98.7564 110.841C100.693 111.633 102.552 112.368 104.365 113.081L91.6451 143.619H82.0024ZM121.004 143.619H94.6152L106.915 114.085C107.19 114.192 107.458 114.299 107.727 114.406C108.034 116.29 109.063 117.839 110.856 119.112C112.266 120.113 112.91 121.665 112.62 123.371C112.175 125.998 112.806 128.118 114.542 129.857C116.281 131.596 118.401 132.224 121.028 131.78C121.218 131.747 121.404 131.728 121.588 131.719L121.004 143.619ZM132.111 149.579C131.601 149.153 130.863 149.153 130.353 149.579L123.165 155.574L124.295 132.523C124.662 132.797 124.999 133.137 125.287 133.543C126.829 135.715 128.773 136.771 131.233 136.771C133.693 136.771 135.635 135.715 137.179 133.543C137.467 133.137 137.801 132.797 138.172 132.523L139.302 155.574L132.111 149.579ZM150.019 116.877C147.751 118.487 146.676 121.087 147.14 123.829C147.439 125.584 147.09 126.807 145.982 127.918C144.874 129.026 143.651 129.372 141.893 129.076C139.153 128.612 136.554 129.687 134.941 131.955C133.91 133.409 132.802 134.028 131.233 134.028C129.664 134.028 128.554 133.409 127.523 131.955C126.16 130.035 124.089 128.969 121.818 128.969C121.409 128.969 120.993 129.004 120.57 129.076C118.815 129.372 117.592 129.026 116.481 127.918C115.373 126.807 115.028 125.587 115.324 123.829C115.79 121.087 114.712 118.487 112.444 116.877C110.993 115.846 110.374 114.735 110.374 113.166C110.374 111.598 110.993 110.49 112.444 109.458C114.712 107.846 115.79 105.249 115.324 102.506C115.028 100.748 115.373 99.5278 116.481 98.4171C117.592 97.3091 118.815 96.9635 120.57 97.2597C123.313 97.7232 125.913 96.6481 127.523 94.3801C128.554 92.9266 129.664 92.3068 131.233 92.3068C132.802 92.3068 133.91 92.9266 134.941 94.3801C136.554 96.6481 139.151 97.7232 141.893 97.2597C143.651 96.9608 144.874 97.3091 145.982 98.4171C147.09 99.525 147.439 100.748 147.14 102.506C146.676 105.249 147.751 107.846 150.019 109.458C151.473 110.49 152.093 111.598 152.093 113.166C152.093 114.735 151.473 115.846 150.019 116.877ZM131.233 104.563C126.489 104.563 122.627 108.422 122.627 113.166C122.627 117.911 126.489 121.772 131.233 121.772C135.978 121.772 139.836 117.911 139.836 113.166C139.836 108.422 135.978 104.563 131.233 104.563ZM131.233 119.03C128 119.03 125.37 116.4 125.37 113.166C125.37 109.933 128 107.306 131.233 107.306C134.467 107.306 137.094 109.936 137.094 113.166C137.094 116.397 134.464 119.03 131.233 119.03ZM131.233 104.563C126.489 104.563 122.627 108.422 122.627 113.166C122.627 117.911 126.489 121.772 131.233 121.772C135.978 121.772 139.836 117.911 139.836 113.166C139.836 108.422 135.978 104.563 131.233 104.563ZM131.233 119.03C128 119.03 125.37 116.4 125.37 113.166C125.37 109.933 128 107.306 131.233 107.306C134.467 107.306 137.094 109.936 137.094 113.166C137.094 116.397 134.464 119.03 131.233 119.03ZM131.233 104.563C126.489 104.563 122.627 108.422 122.627 113.166C122.627 117.911 126.489 121.772 131.233 121.772C135.978 121.772 139.836 117.911 139.836 113.166C139.836 108.422 135.978 104.563 131.233 104.563ZM131.233 119.03C128 119.03 125.37 116.4 125.37 113.166C125.37 109.933 128 107.306 131.233 107.306C134.467 107.306 137.094 109.936 137.094 113.166C137.094 116.397 134.464 119.03 131.233 119.03ZM131.233 104.563C126.489 104.563 122.627 108.422 122.627 113.166C122.627 117.911 126.489 121.772 131.233 121.772C135.978 121.772 139.836 117.911 139.836 113.166C139.836 108.422 135.978 104.563 131.233 104.563ZM131.233 119.03C128 119.03 125.37 116.4 125.37 113.166C125.37 109.933 128 107.306 131.233 107.306C134.467 107.306 137.094 109.936 137.094 113.166C137.094 116.397 134.464 119.03 131.233 119.03ZM131.233 104.563C126.489 104.563 122.627 108.422 122.627 113.166C122.627 117.911 126.489 121.772 131.233 121.772C135.978 121.772 139.836 117.911 139.836 113.166C139.836 108.422 135.978 104.563 131.233 104.563ZM131.233 119.03C128 119.03 125.37 116.4 125.37 113.166C125.37 109.933 128 107.306 131.233 107.306C134.467 107.306 137.094 109.936 137.094 113.166C137.094 116.397 134.464 119.03 131.233 119.03ZM131.233 104.563C126.489 104.563 122.627 108.422 122.627 113.166C122.627 117.911 126.489 121.772 131.233 121.772C135.978 121.772 139.836 117.911 139.836 113.166C139.836 108.422 135.978 104.563 131.233 104.563ZM131.233 119.03C128 119.03 125.37 116.4 125.37 113.166C125.37 109.933 128 107.306 131.233 107.306C134.467 107.306 137.094 109.936 137.094 113.166C137.094 116.397 134.464 119.03 131.233 119.03ZM131.233 104.563C126.489 104.563 122.627 108.422 122.627 113.166C122.627 117.911 126.489 121.772 131.233 121.772C135.978 121.772 139.836 117.911 139.836 113.166C139.836 108.422 135.978 104.563 131.233 104.563ZM131.233 119.03C128 119.03 125.37 116.4 125.37 113.166C125.37 109.933 128 107.306 131.233 107.306C134.467 107.306 137.094 109.936 137.094 113.166C137.094 116.397 134.464 119.03 131.233 119.03Z" fill="#0D365B"/>
<path fill-rule="evenodd" clip-rule="evenodd" d="M150.019 116.877C147.751 118.487 146.676 121.087 147.139 123.829C147.438 125.584 147.09 126.807 145.982 127.918C144.874 129.026 143.651 129.372 141.893 129.076C139.153 128.612 136.553 129.687 134.94 131.955C133.909 133.409 132.801 134.029 131.233 134.029C129.664 134.029 128.553 133.409 127.522 131.955C126.159 130.035 124.088 128.969 121.818 128.969C121.409 128.969 120.992 129.004 120.57 129.076C118.814 129.372 117.591 129.026 116.481 127.918C115.373 126.807 115.027 125.587 115.323 123.829C115.789 121.087 114.712 118.487 112.444 116.877C110.993 115.846 110.373 114.735 110.373 113.166C110.373 111.598 110.993 110.49 112.444 109.458C114.712 107.846 115.789 105.249 115.323 102.506C115.027 100.748 115.373 99.5278 116.481 98.4171C117.591 97.3091 118.814 96.9635 120.57 97.2597C123.312 97.7232 125.912 96.6482 127.522 94.3801C128.553 92.9266 129.664 92.3068 131.233 92.3068C132.801 92.3068 133.909 92.9266 134.94 94.3801C136.553 96.6482 139.15 97.7232 141.893 97.2597C143.651 96.9608 144.874 97.3091 145.982 98.4171C147.09 99.525 147.438 100.748 147.139 102.506C146.676 105.249 147.751 107.846 150.019 109.458C151.472 110.49 152.092 111.598 152.092 113.166C152.092 114.735 151.472 115.846 150.019 116.877ZM122.627 113.166C122.627 108.422 126.488 104.563 131.233 104.563C135.977 104.563 139.836 108.422 139.836 113.166C139.836 117.911 135.977 121.772 131.233 121.772C126.488 121.772 122.627 117.911 122.627 113.166ZM131.233 119.03C127.999 119.03 125.369 116.4 125.369 113.166C125.369 109.933 127.999 107.306 131.233 107.306C134.466 107.306 137.093 109.936 137.093 113.166C137.093 116.397 134.463 119.03 131.233 119.03Z" fill="white"/>
<path d="M139.301 155.574L132.11 149.578C131.6 149.153 130.862 149.153 130.352 149.578L123.164 155.574L124.294 132.523C124.661 132.797 124.999 133.137 125.287 133.543C126.828 135.715 128.772 136.771 131.233 136.771C133.693 136.771 135.634 135.715 137.178 133.543C137.466 133.137 137.801 132.797 138.171 132.523L139.301 155.574Z" fill="#66B7E0"/>
<path d="M121.587 131.719L121.003 143.619H94.6143L106.914 114.085C107.189 114.192 107.457 114.299 107.726 114.406C108.033 116.29 109.062 117.839 110.855 119.112C112.265 120.113 112.91 121.665 112.619 123.371C112.175 125.998 112.805 128.118 114.541 129.857C116.28 131.596 118.4 132.224 121.027 131.78C121.217 131.747 121.403 131.727 121.587 131.719Z" fill="#66B7E0"/>
<path d="M55.0899 143.619H20.5508V135.084C20.5508 123.253 28.8853 119.559 42.7898 114.085L55.0899 143.619Z" fill="#66B7E0"/>
<path d="M99.1263 59.2156C98.5311 57.3919 97.6398 55.527 96.4386 54.0104C96.0903 53.5688 95.5116 53.3851 94.9768 53.5441C94.4393 53.7032 94.0526 54.1722 93.9978 54.7289C93.9895 54.8222 93.9182 55.3734 93.4164 56.2126C92.3742 53.0203 90.4407 49.946 87.5392 49.3673C86.8892 49.2384 86.2392 49.5922 85.9951 50.2065C84.7884 53.2534 81.2232 53.1849 75.0251 52.7954C67.6204 52.3347 57.687 51.7122 51.3052 60.8995C45.7187 43.7013 56.7052 36.7161 61.8913 34.4563C65.7225 32.7861 70.0008 31.999 73.983 31.999C80.384 31.999 86.0116 34.0367 87.7476 37.7144C88.0081 38.2656 88.5978 38.5783 89.2011 38.485C89.3931 38.4521 89.6152 38.4165 89.8621 38.3726C92.5223 37.9201 98.0622 36.9767 100.64 40.2403C102.412 42.4809 103.435 47.5902 99.1263 59.2156Z" fill="#64AC7D"/>
<path d="M79.2373 143.619H70.4668L71.9724 131.075H77.7344L79.2373 143.619Z" fill="#66B7E0"/>
<path d="M80.54 124.8L78.2116 128.332H71.4924L69.1641 124.8L74.852 118.956L80.54 124.8Z" fill="#66B7E0"/>
</g>
<defs>
<clipPath id="clip0_110_7715">
<rect width="160" height="160" fill="white"/>
</clipPath>
</defs>
</svg>
