<svg width="160" height="160" viewBox="0 0 160 160" fill="none" xmlns="http://www.w3.org/2000/svg">
<path fill-rule="evenodd" clip-rule="evenodd" d="M44.7319 32.481H115.263C122.012 32.481 127.516 37.9855 127.516 44.7344V115.265C127.516 122.014 122.012 127.519 115.263 127.519H44.7319C37.983 127.519 32.4785 122.014 32.4785 115.265V44.7344C32.4785 37.9855 37.983 32.481 44.7319 32.481Z" fill="white"/>
<path fill-rule="evenodd" clip-rule="evenodd" d="M13.8186 74.9546C16.6049 74.9546 18.8637 77.2134 18.8637 79.9998C18.8637 82.7861 16.6049 85.0449 13.8186 85.0449C11.0322 85.0449 8.77344 82.7861 8.77344 79.9998C8.77344 77.2134 11.0322 74.9546 13.8186 74.9546ZM8.77344 28.5683C8.77344 25.7819 11.0322 23.5232 13.8186 23.5232C16.6049 23.5232 18.8637 25.7819 18.8637 28.5683C18.8637 31.3547 16.6049 33.6134 13.8186 33.6134C11.0322 33.6134 8.77344 31.3547 8.77344 28.5683ZM23.5221 13.8197C23.5221 11.0333 25.7808 8.77454 28.5672 8.77454C31.3536 8.77454 33.6123 11.0333 33.6123 13.8197C33.6123 16.606 31.3536 18.8648 28.5672 18.8648C25.7808 18.8648 23.5221 16.606 23.5221 13.8197ZM79.9987 9.90435C82.785 9.90435 85.0438 12.1631 85.0438 14.9495C85.0438 17.7359 82.785 19.9946 79.9987 19.9946C77.2123 19.9946 74.9535 17.7359 74.9535 14.9495C74.9535 12.1631 77.2123 9.90435 79.9987 9.90435ZM131.43 8.77454C134.216 8.77454 136.475 11.0333 136.475 13.8197C136.475 16.606 134.216 18.8648 131.43 18.8648C128.643 18.8648 126.385 16.606 126.385 13.8197C126.385 11.0333 128.644 8.77454 131.43 8.77454ZM146.179 23.5232C148.965 23.5232 151.224 25.7819 151.224 28.5683C151.224 31.3547 148.965 33.6134 146.179 33.6134C143.392 33.6134 141.134 31.3547 141.134 28.5683C141.134 25.7819 143.392 23.5232 146.179 23.5232ZM146.179 74.9546C148.965 74.9546 151.224 77.2134 151.224 79.9998C151.224 82.7861 148.965 85.0449 146.179 85.0449C143.392 85.0449 141.134 82.7861 141.134 79.9998C141.134 77.2134 143.392 74.9546 146.179 74.9546ZM151.224 131.431C151.224 134.217 148.965 136.476 146.179 136.476C143.392 136.476 141.134 134.217 141.134 131.431C141.134 128.645 143.392 126.386 146.179 126.386C148.965 126.386 151.224 128.645 151.224 131.431ZM136.475 146.18C136.475 148.966 134.216 151.225 131.43 151.225C128.643 151.225 126.385 148.966 126.385 146.18C126.385 143.393 128.643 141.135 131.43 141.135C134.216 141.135 136.475 143.393 136.475 146.18ZM79.9987 141.135C82.785 141.135 85.0438 143.393 85.0438 146.18C85.0438 148.966 82.785 151.225 79.9987 151.225C77.2123 151.225 74.9535 148.966 74.9535 146.18C74.9535 143.393 77.2123 141.135 79.9987 141.135ZM28.5672 151.225C25.7808 151.225 23.5221 148.966 23.5221 146.18C23.5221 143.393 25.7808 141.135 28.5672 141.135C31.3536 141.135 33.6123 143.393 33.6123 146.18C33.6123 148.966 31.3536 151.225 28.5672 151.225ZM13.8186 136.476C11.0322 136.476 8.77344 134.217 8.77344 131.431C8.77344 128.645 11.0322 126.386 13.8186 126.386C16.6049 126.386 18.8637 128.645 18.8637 131.431C18.8637 134.217 16.6049 136.476 13.8186 136.476Z" fill="#66B7E0"/>
<path fill-rule="evenodd" clip-rule="evenodd" d="M111.889 85.6548C105.168 85.6548 101.795 93.7976 106.548 98.5501C107.423 99.4256 107.423 100.845 106.548 101.721L101.721 106.548C100.845 107.423 99.4254 107.423 98.5499 106.548C93.7974 101.795 85.6546 105.168 85.6546 111.889C85.6546 113.128 84.6506 114.131 83.4125 114.131H76.5867C75.3486 114.131 74.3446 113.128 74.3446 111.889C74.3446 105.159 66.2077 101.789 61.4493 106.548C60.5738 107.423 59.1537 107.423 58.2786 106.548L53.4516 101.721C52.5761 100.845 52.5761 99.4253 53.4516 98.5501C58.2041 93.7976 54.8316 85.6548 48.1103 85.6548C46.8716 85.6548 45.8682 84.6508 45.8682 83.413V76.587C45.8682 75.3491 46.8716 74.3448 48.1103 74.3448C54.8316 74.3448 58.2041 66.202 53.4516 61.4495C52.5761 60.574 52.5761 59.154 53.4516 58.2788L58.2786 53.4518C59.154 52.5763 60.5741 52.5763 61.4493 53.4518C66.2018 58.2043 74.3446 54.8318 74.3446 48.1105C74.3446 46.8718 75.3486 45.8684 76.5867 45.8684H83.4125C84.6503 45.8684 85.6546 46.8718 85.6546 48.1105C85.6546 54.8321 93.7974 58.2043 98.5499 53.4518C99.4254 52.5763 100.845 52.5763 101.721 53.4518L106.548 58.2788C107.423 59.1543 107.423 60.5743 106.548 61.4495C101.795 66.202 105.168 74.3448 111.889 74.3448C113.128 74.3448 114.131 75.3488 114.131 76.587V83.4127C114.131 84.6508 113.128 85.6548 111.889 85.6548ZM79.9996 63.3204C70.7878 63.3204 63.3201 70.788 63.3201 79.9998C63.3201 89.2116 70.7878 96.6793 79.9996 96.6793C89.2114 96.6793 96.6791 89.2116 96.6791 79.9998C96.6791 70.788 89.2114 63.3204 79.9996 63.3204Z" fill="#DFA8FF"/>
<path fill-rule="evenodd" clip-rule="evenodd" d="M79.9988 94.5818C71.9551 94.5818 65.4056 88.0309 65.4056 79.9789C65.4056 71.9269 71.9551 65.3774 79.9988 65.3774C88.0564 65.3774 94.6059 71.9269 94.6059 79.9789C94.6059 88.0309 88.0564 94.5818 79.9988 94.5818ZM132.191 6.71753H130.672C127.808 7.0232 125.438 9.03888 124.616 11.7211H111.643C110.498 11.7211 109.562 12.6527 109.562 13.7991V30.3821H82.0794V21.7422C84.9982 20.8498 87.1207 18.1337 87.1207 14.9289C87.1207 11.002 83.9227 7.80698 79.9988 7.80698C76.0749 7.80698 72.8769 11.002 72.8769 14.9289C72.8769 18.1337 75.0133 20.8498 77.9321 21.7422V30.3821H50.4356V13.7991C50.4356 12.6527 49.5138 11.7211 48.3689 11.7211H35.3818C34.5598 9.03888 32.2013 7.0232 29.3286 6.71753H27.8085C24.2392 7.09769 21.4448 10.1286 21.4448 13.7991C21.4448 17.726 24.6428 20.921 28.5668 20.921C31.7787 20.921 34.4877 18.7941 35.3815 15.8771H46.2879V30.3821H44.7378C36.8339 30.3821 30.41 36.8114 30.41 44.7141V46.2641H15.9008V35.3605C18.8196 34.4695 20.9421 31.752 20.9421 28.5472C20.9421 24.6203 17.7441 21.4252 13.8202 21.4252C9.89625 21.4252 6.69824 24.6203 6.69824 28.5472C6.69824 31.752 8.835 34.4695 11.7395 35.3605V48.3421C11.7395 49.4901 12.6752 50.4201 13.8202 50.4201H30.4103V77.9024H20.6349C19.7411 74.9851 17.0321 72.857 13.8202 72.857C9.89625 72.857 6.69824 76.052 6.69824 79.9789C6.69824 83.9073 9.89625 87.1008 13.8202 87.1008C17.0321 87.1008 19.7411 84.9739 20.6349 82.0569H30.4103V109.539H13.8202C12.6752 109.539 11.7395 110.469 11.7395 111.616V124.597C8.835 125.49 6.69824 128.206 6.69824 131.411C6.69824 135.338 9.89625 138.533 13.8202 138.533C17.7441 138.533 20.9421 135.338 20.9421 131.411C20.9421 128.206 18.8196 125.49 15.9008 124.597V113.694H30.41V115.245C30.41 123.146 36.8336 129.576 44.7378 129.576H46.2879V144.082H35.3815C34.4879 141.165 31.7787 139.037 28.5668 139.037C24.6428 139.037 21.4448 142.232 21.4448 146.159C21.4448 150.087 24.6428 153.282 28.5668 153.282C31.7787 153.282 34.4877 151.154 35.3815 148.237H48.3686C49.5135 148.237 50.4492 147.307 50.4492 146.159V129.576H77.9318V139.347C75.013 140.238 72.8766 142.955 72.8766 146.159C72.8766 150.087 76.0746 153.282 79.9985 153.282C83.9224 153.282 87.1204 150.087 87.1204 146.159C87.1204 142.955 84.9979 140.238 82.0792 139.347V129.576H109.562V146.159C109.562 147.307 110.497 148.237 111.642 148.237H124.615C125.509 151.154 128.232 153.282 131.43 153.282C135.368 153.282 138.552 150.087 138.552 146.159C138.552 142.232 135.368 139.037 131.43 139.037C128.232 139.037 125.509 141.165 124.615 144.082H113.709V129.576H115.273C123.177 129.576 129.601 123.146 129.601 115.245V113.694H144.11V124.597C141.191 125.49 139.055 128.206 139.055 131.411C139.055 135.338 142.253 138.533 146.177 138.533C150.115 138.533 153.299 135.338 153.299 131.411C153.299 128.206 151.176 125.49 148.257 124.597V111.616C148.257 110.469 147.336 109.539 146.177 109.539H129.601V82.0569H139.363C140.256 84.9742 142.979 87.1008 146.177 87.1008C150.116 87.1008 153.299 83.907 153.299 79.9789C153.299 76.052 150.115 72.857 146.177 72.857C142.979 72.857 140.257 74.9851 139.363 77.9024H129.601V50.4201H146.177C147.336 50.4201 148.258 49.4901 148.258 48.3421V35.3605C151.177 34.4695 153.299 31.752 153.299 28.5472C153.299 24.6203 150.115 21.4252 146.177 21.4252C142.253 21.4252 139.055 24.6203 139.055 28.5472C139.055 31.752 141.192 34.4695 144.111 35.3605V46.2641H129.602V44.7141C129.602 36.8117 123.178 30.3821 115.274 30.3821H113.71V15.8771H124.616C125.51 18.7944 128.233 20.921 131.431 20.921C135.369 20.921 138.553 17.726 138.553 13.7991C138.552 10.1286 135.771 7.09769 132.191 6.71753ZM79.9988 61.2217C69.6649 61.2217 61.2443 69.6367 61.2443 79.9792C61.2443 90.3214 69.6649 98.7364 79.9988 98.7364C90.3466 98.7364 98.7533 90.3214 98.7533 79.9792C98.7533 69.6367 90.3466 61.2217 79.9988 61.2217ZM112.062 83.3921V76.566C112.062 76.4752 111.978 76.4013 111.894 76.4013C107.928 76.4013 104.521 74.1224 102.999 70.4537C101.476 66.7853 102.272 62.7647 105.079 59.9608C105.093 59.9483 105.135 59.9118 105.135 59.8435C105.135 59.775 105.093 59.7388 105.079 59.7275L100.261 54.8999C100.248 54.8886 100.206 54.8524 100.136 54.8524C100.066 54.8524 100.038 54.8886 100.024 54.8999C97.2172 57.7041 93.1953 58.5012 89.5225 56.9835C85.8639 55.4629 83.5734 52.0553 83.5734 48.0893C83.5734 47.9985 83.5037 47.9258 83.4197 47.9258H76.591C76.4933 47.9258 76.4233 47.9985 76.4233 48.0893C76.4233 52.0553 74.147 55.4626 70.4742 56.9835C66.8013 58.5015 62.7798 57.7041 59.9869 54.8999C59.9729 54.8886 59.9311 54.8524 59.861 54.8524C59.7913 54.8524 59.7634 54.8886 59.7495 54.8999L54.9177 59.7275C54.9038 59.7388 54.8759 59.775 54.8759 59.8435C54.8759 59.9118 54.9038 59.9483 54.9177 59.9596C57.7246 62.7649 58.5205 66.7856 57.0123 70.454C55.4902 74.1224 52.0827 76.4016 48.1169 76.4016C48.0193 76.4016 47.9492 76.4758 47.9492 76.5663V83.3924C47.9492 83.4832 48.019 83.5571 48.1169 83.5571C52.083 83.5571 55.4902 85.836 57.0123 89.5047C58.5205 93.1734 57.7246 97.1952 54.9177 99.9991C54.9038 100.012 54.8759 100.047 54.8759 100.115C54.8759 100.183 54.9038 100.22 54.9177 100.231L59.7495 105.058C59.8192 105.123 59.9171 105.123 59.9869 105.058C61.8441 103.193 64.2461 102.214 66.7319 102.214C67.9887 102.214 69.2456 102.463 70.4745 102.971C74.1473 104.49 76.4236 107.899 76.4236 111.869C76.4236 111.96 76.4933 112.034 76.5912 112.034H83.42C83.5037 112.034 83.5737 111.96 83.5737 111.869C83.5737 107.903 85.8639 104.496 89.5228 102.976C93.1953 101.457 97.2172 102.254 100.024 105.058C100.08 105.123 100.192 105.123 100.262 105.058L105.08 100.231C105.094 100.22 105.135 100.183 105.135 100.115C105.135 100.047 105.094 100.012 105.08 99.9991C102.273 97.1949 101.477 93.1731 102.999 89.5047C104.521 85.8363 107.928 83.5571 111.894 83.5571C111.978 83.5568 112.062 83.4829 112.062 83.3921ZM111.894 72.2468C109.199 72.2468 107.523 70.4985 106.839 68.8633C106.154 67.2296 106.113 64.8026 108.026 62.8976C108.836 62.0821 109.283 60.9983 109.283 59.8435C109.283 58.69 108.836 57.605 108.026 56.7895L103.194 51.9633C101.504 50.2792 98.7672 50.2777 97.0917 51.9633C95.1784 53.8668 92.7487 53.8205 91.1147 53.1433C89.4809 52.4661 87.7353 50.7834 87.7353 48.0896C87.7353 45.7086 85.7941 43.7704 83.4203 43.7704H76.5915C74.2037 43.7704 72.2765 45.7086 72.2765 48.0896C72.2765 50.7834 70.5309 52.4661 68.8832 53.1433C67.2495 53.822 64.8195 53.8668 62.9205 51.9633C61.2446 50.2777 58.4935 50.2792 56.8179 51.9633L51.9862 56.7895C51.1763 57.605 50.7154 58.69 50.7154 59.8435C50.7154 60.9983 51.1763 62.0821 51.9862 62.8976C53.8852 64.8023 53.8434 67.2293 53.1733 68.8633C52.4889 70.4985 50.8134 72.2468 48.1181 72.2468C45.7303 72.2468 43.7891 74.1838 43.7891 76.566V83.3921C43.7891 85.7746 45.7303 87.7113 48.1181 87.7113C50.8134 87.7113 52.4892 89.4584 53.1733 91.0936C53.8437 92.7303 53.8855 95.1558 51.9862 97.0608C51.1763 97.8763 50.7154 98.9613 50.7154 100.115C50.7154 101.268 51.1763 102.353 51.9862 103.169L56.8179 107.997C58.4938 109.681 61.2449 109.679 62.9205 107.997C64.8337 106.089 67.2634 106.132 68.8832 106.809C70.5312 107.487 72.2765 109.171 72.2765 111.869C72.2765 114.251 74.2037 116.188 76.5915 116.188H83.4203C85.7941 116.188 87.7353 114.251 87.7353 111.869C87.7353 109.176 89.4809 107.492 91.1147 106.815C92.7484 106.138 95.1784 106.092 97.0917 107.996C98.7675 109.68 101.505 109.679 103.194 107.996L108.026 103.169C108.836 102.353 109.283 101.268 109.283 100.115C109.283 98.961 108.836 97.876 108.026 97.0605C106.113 95.1558 106.155 92.73 106.839 91.0933C107.523 89.4581 109.199 87.711 111.894 87.711C114.268 87.711 116.209 85.7743 116.209 83.3918V76.5657C116.209 74.1838 114.268 72.2468 111.894 72.2468ZM125.44 115.245V44.7141C125.44 39.103 120.873 34.5381 115.274 34.5381H44.7378C39.1241 34.5381 34.5577 39.103 34.5577 44.7141V115.245C34.5577 120.857 39.1241 125.42 44.7378 125.42H115.273C120.873 125.42 125.44 120.856 125.44 115.245ZM149.152 131.411C149.152 133.048 147.811 134.378 146.177 134.378C144.543 134.378 143.217 133.048 143.217 131.411C143.217 129.774 144.543 128.442 146.177 128.442C147.811 128.442 149.152 129.774 149.152 131.411ZM131.431 143.192C133.078 143.192 134.405 144.524 134.405 146.159C134.405 147.796 133.078 149.128 131.431 149.128C129.797 149.128 128.47 147.796 128.47 146.159C128.47 144.524 129.797 143.192 131.431 143.192ZM82.9733 146.159C82.9733 147.796 81.6328 149.128 79.9988 149.128C78.3651 149.128 77.0382 147.796 77.0382 146.159C77.0382 144.522 78.3648 143.192 79.9988 143.192C81.6325 143.192 82.9733 144.522 82.9733 146.159ZM28.5671 149.128C26.9333 149.128 25.6065 147.796 25.6065 146.159C25.6065 144.522 26.933 143.192 28.5671 143.192C30.2011 143.192 31.5416 144.522 31.5416 146.159C31.5413 147.796 30.2008 149.128 28.5671 149.128ZM16.7947 131.411C16.7947 133.048 15.4542 134.378 13.8202 134.378C12.1864 134.378 10.8596 133.048 10.8596 131.411C10.8596 129.774 12.1861 128.442 13.8202 128.442C15.4542 128.442 16.7947 129.774 16.7947 131.411ZM13.8202 82.9466C12.1864 82.9466 10.8596 81.6159 10.8596 79.9792C10.8596 78.344 12.1861 77.0118 13.8202 77.0118C15.4542 77.0118 16.7947 78.344 16.7947 79.9792C16.7947 81.6156 15.4542 82.9466 13.8202 82.9466ZM10.8599 28.5472C10.8599 26.912 12.1864 25.5797 13.8205 25.5797C15.4545 25.5797 16.795 26.912 16.795 28.5472C16.795 30.1839 15.4545 31.5161 13.8205 31.5161C12.1864 31.5161 10.8599 30.1839 10.8599 28.5472ZM28.5671 16.7668C26.9333 16.7668 25.6065 15.4361 25.6065 13.7994C25.6065 12.1627 26.933 10.832 28.5671 10.832C30.2011 10.832 31.5416 12.1627 31.5416 13.7994C31.5413 15.4358 30.2008 16.7668 28.5671 16.7668ZM77.0382 14.9289C77.0382 13.2922 78.3648 11.9615 79.9988 11.9615C81.6325 11.9615 82.9733 13.2922 82.9733 14.9289C82.9733 16.5656 81.6328 17.8963 79.9988 17.8963C78.3648 17.8963 77.0382 16.5656 77.0382 14.9289ZM131.431 10.8317C133.078 10.8317 134.405 12.1624 134.405 13.7991C134.405 15.4358 133.078 16.7665 131.431 16.7665C129.797 16.7665 128.47 15.4358 128.47 13.7991C128.47 12.1624 129.797 10.8317 131.431 10.8317ZM143.217 28.5472C143.217 26.912 144.543 25.5797 146.177 25.5797C147.811 25.5797 149.152 26.912 149.152 28.5472C149.152 30.1839 147.811 31.5161 146.177 31.5161C144.543 31.5161 143.217 30.1839 143.217 28.5472ZM146.177 77.0115C147.811 77.0115 149.152 78.3437 149.152 79.9789C149.152 81.6156 147.811 82.9463 146.177 82.9463C144.543 82.9463 143.217 81.6156 143.217 79.9789C143.217 78.3437 144.543 77.0115 146.177 77.0115Z" fill="#083863"/>
</svg>
