<svg width="160" height="160" viewBox="0 0 160 160" fill="none" xmlns="http://www.w3.org/2000/svg">
<path d="M101.288 122.766H80.623V50.6254C80.623 46.0722 84.3145 42.382 88.8665 42.382H93.045C97.5982 42.382 101.288 46.0722 101.288 50.6254V122.766Z" fill="#66B7E0"/>
<path d="M71.6458 122.766H50.9805V68.836C50.9805 64.8662 54.1983 61.6472 58.168 61.6472H64.4571C68.4268 61.6472 71.6458 64.8662 71.6458 68.836V122.766Z" fill="#66B7E0"/>
<path d="M130.933 111.243H110.268V28.0019C110.268 23.4779 113.935 19.8109 118.459 19.8109H122.741C127.265 19.8109 130.933 23.4779 130.933 28.0019V111.243Z" fill="#66B7E0"/>
<path d="M41.8682 96.4873L83.4198 74.4315C88.6066 71.6776 94.6613 76.2016 93.4882 81.956C92.6301 86.1625 90.6782 90.601 86.5973 93.9055L82.3383 97.3564C80.2228 99.0691 81.4338 102.491 84.1559 102.491L101.232 102.498C106.801 102.501 112.236 100.782 116.79 97.5786L135.875 84.1581C139.474 81.6276 144.377 82.0793 147.452 85.2263C151.128 88.9873 150.794 95.0896 146.731 98.4282L121.733 118.969C118.604 121.54 114.937 123.375 111.003 124.338L56.2115 137.753L41.8682 96.4873Z" fill="#FFE2D9"/>
<path d="M41.8673 96.4872L57.3935 137.924C59.9667 144.792 55.8908 152.35 48.7399 153.975L33.8912 157.348C27.5142 158.796 21.1409 154.918 19.4954 148.589L11.4985 117.821C9.79562 111.27 13.6311 104.556 20.1399 102.697L41.8673 96.4872Z" fill="#F9F6F9"/>
<path d="M43.879 140.246C43.879 144.052 40.7942 147.137 36.9893 147.137C33.1843 147.137 30.0996 144.052 30.0996 140.246C30.0996 136.441 33.1843 133.356 36.9893 133.356C40.7942 133.356 43.879 136.441 43.879 140.246Z" fill="#DFA8FF"/>
<path d="M95.9379 2.34375H77.1964C74.5096 2.34375 72.3307 4.52271 72.3307 7.20949C72.3307 9.89749 74.5096 12.0752 77.1964 12.0752H83.8664L64.3204 30.8912L55.0528 26.0975C53.1656 25.1209 50.8609 25.4835 49.363 26.9923L11.565 65.0808C9.67172 66.9888 9.68271 70.0698 11.5907 71.9632C12.5404 72.9043 13.7794 73.3743 15.0184 73.3743C16.2709 73.3743 17.5221 72.8946 18.473 71.9363L53.7552 36.3832L62.9471 41.1378C64.7989 42.0949 67.0548 41.7665 68.5575 40.3212L91.0722 18.6487V26.1158C91.0722 28.8038 93.2499 30.9828 95.9379 30.9828C98.6247 30.9828 100.804 28.8038 100.804 26.1158V7.20949C100.804 7.20461 100.802 7.19973 100.802 7.19484C100.802 3.29712 97.9228 2.34375 95.9379 2.34375Z" fill="#DFA8FF"/>
<path d="M149.128 83.588C141.776 76.2687 133.277 83.1193 133.277 83.1193V44.5876C133.277 43.2937 132.228 42.2439 130.934 42.2439C129.638 42.2439 128.59 43.2937 128.59 44.5876V86.4164C128.59 86.4164 117.414 95.2262 112.611 97.3796V28.0019C112.611 24.7768 115.234 22.1535 118.459 22.1535H122.741C125.967 22.1535 128.59 24.7768 128.59 28.0019V34.9929C128.59 36.288 129.638 37.3366 130.934 37.3366C132.228 37.3366 133.277 36.288 133.277 34.9929V28.0019C133.277 22.1925 128.551 17.4672 122.741 17.4672H118.459C112.65 17.4672 107.923 22.1925 107.923 28.0019V99.2375C106.527 99.6293 105.091 99.8955 103.634 100.036V50.6252C103.634 44.7866 98.8839 40.0368 93.0465 40.0368H88.868C83.0306 40.0368 78.2808 44.7866 78.2808 50.6252V74.5047L73.9913 76.7826V68.8358C73.9913 63.5794 69.7151 59.3033 64.4588 59.3033H58.1697C52.9133 59.3033 48.6384 63.5794 48.6384 68.8358V90.2397L40.9858 94.3009L19.4964 100.442C15.7574 101.51 12.6348 103.959 10.7061 107.336C8.77739 110.713 8.25248 114.646 9.23149 118.41L11.6351 127.658C11.961 128.91 13.2391 129.661 14.4927 129.336C15.7452 129.011 16.4971 127.731 16.1712 126.479L13.7676 117.231C12.3736 111.867 15.4559 106.473 20.7855 104.949L40.4328 99.3339L55.1997 138.746C56.1885 141.385 56.0322 148.915 48.2221 151.689L33.3734 155.062C28.1989 156.237 23.1 153.134 21.7645 147.999L18.7506 136.399C18.4246 135.147 17.1453 134.395 15.8917 134.721C14.6392 135.046 13.8873 136.326 14.2132 137.579L17.2283 149.178C18.9215 155.695 24.7113 159.999 31.1542 159.999C35.8893 159.999 49.2597 156.26 49.2597 156.26C53.3283 155.336 56.7964 152.7 58.7764 149.028C60.4097 145.999 60.8943 142.512 60.1936 139.19L111.561 126.614C115.809 125.573 119.842 123.555 123.221 120.778L148.219 100.238C155.841 93.4794 151.37 85.8183 149.128 83.588ZM88.868 44.7243H93.0465C96.2997 44.7243 98.9462 47.3721 98.9462 50.6252V100.153L84.1573 100.147C82.7987 100.135 83.7398 99.2375 83.8131 99.1765L88.0721 95.7267C92.0468 92.5077 94.6408 88.0326 95.7846 82.4235C96.5109 78.8651 95.1547 75.3031 92.2445 73.1278C89.5272 71.0965 86.0336 70.7059 82.9684 72.0487V50.6252C82.9684 47.3721 85.6149 44.7243 88.868 44.7243ZM53.3259 68.8358C53.3259 66.1649 55.4988 63.9908 58.1697 63.9908H64.4588C67.1309 63.9908 69.3037 66.1649 69.3037 68.8358V79.2704L53.3259 87.7519V68.8358ZM145.244 96.6179L120.246 117.157C117.406 119.491 114.017 121.187 110.446 122.061L58.7007 134.731L44.7846 97.5932L84.5187 76.5018C86.1337 75.6437 87.9733 75.7865 89.4381 76.8815C90.9017 77.9764 91.5573 79.6976 91.1923 81.4872C90.2719 86.0026 88.2284 89.5683 85.1217 92.0841L80.8626 95.5351C79.117 96.9487 78.4737 99.2302 79.2232 101.348C79.9727 103.465 81.9088 104.834 84.1549 104.834L101.233 104.842H101.244C107.324 104.842 113.166 102.992 118.139 99.4951L137.223 86.0746C139.896 84.1947 143.492 84.528 145.776 86.8632C147.09 88.2072 149.663 92.1977 145.244 96.6179Z" fill="#0D365B"/>
<path d="M46.2218 140.247C46.2218 135.156 42.0799 131.013 36.9883 131.013C31.8967 131.013 27.7549 135.156 27.7549 140.247C27.7549 145.338 31.8967 149.481 36.9883 149.481C42.0799 149.48 46.2218 145.338 46.2218 140.247ZM32.4424 140.247C32.4424 137.74 34.481 135.7 36.9883 135.7C39.4957 135.7 41.5342 137.74 41.5342 140.247C41.5342 142.753 39.4957 144.793 36.9883 144.793C34.481 144.793 32.4424 142.753 32.4424 140.247Z" fill="#0D365B"/>
<path d="M20.1371 73.5879L54.2071 39.2555L61.8695 43.2192C64.6148 44.6388 67.9559 44.153 70.1825 42.0094L88.7275 24.1578C88.7275 24.1578 88.2172 33.3265 95.9382 33.3265C99.9128 33.3265 103.148 30.0917 103.148 26.1158V7.2095C103.148 7.18753 103.148 7.16433 103.146 7.14114C103.121 2.20826 99.5137 0 95.9382 0H77.1967C73.2208 0 69.9872 3.23488 69.9872 7.2095C69.9872 15.1343 78.0524 14.419 78.0524 14.419L63.9044 28.0372L56.1297 24.0162C53.3184 22.5611 49.9309 23.0946 47.6995 25.3407L9.90149 63.4304C7.10118 66.2527 7.11828 70.8267 9.94055 73.627C11.3004 74.9759 15.944 77.7798 20.1371 73.5879ZM13.2279 66.7324L51.0271 28.6427C51.5142 28.152 52.2979 27.2926 53.9764 28.18L63.2428 32.9725C64.1351 33.434 65.2215 33.2765 65.9454 32.5795L85.4914 13.7647C86.1799 13.1019 86.3971 12.0862 86.0395 11.2C85.6818 10.3125 84.8224 9.7327 83.8666 9.7327H77.1967C75.8063 9.7327 74.6747 8.60111 74.6747 7.2095C74.6747 5.81911 75.8063 4.68752 77.1967 4.68752H95.9382C96.6279 4.68752 98.459 4.68752 98.459 7.19485C98.459 7.2156 98.4602 7.23636 98.4602 7.25833V26.1158C98.4602 27.5074 97.3286 28.639 95.9382 28.639C94.5466 28.639 93.4162 27.5074 93.4162 26.1158V18.6488C93.4162 17.7088 92.8547 16.8592 91.9892 16.4918C91.125 16.1231 90.124 16.3087 89.4465 16.9605L66.9317 38.633C66.1529 39.3825 64.9847 39.5534 64.024 39.0565L54.8321 34.3019C53.9227 33.8319 52.813 34.0065 52.0916 34.7328L16.8095 70.2859C15.2714 71.824 13.7174 70.7718 13.2426 70.2993C12.255 69.3191 12.2489 67.7188 13.2279 66.7324Z" fill="#0D365B"/>
</svg>
