<svg width="160" height="160" viewBox="0 0 160 160" fill="none" xmlns="http://www.w3.org/2000/svg">
<g clip-path="url(#clip0_110_7734)">
<path fill-rule="evenodd" clip-rule="evenodd" d="M157.655 97.5782V62.422C157.655 59.8442 155.546 57.7345 152.968 57.7345H7.03027C4.45215 57.7345 2.34277 59.8439 2.34277 62.422V97.5782C2.34277 100.156 4.45246 102.266 7.03027 102.266H152.968C155.546 102.266 157.655 100.156 157.655 97.5782Z" fill="#DFA8FF"/>
<path fill-rule="evenodd" clip-rule="evenodd" d="M131.665 102.266H28.3301C36.9566 122.256 56.8416 136.25 79.9976 136.25C103.154 136.25 123.039 122.256 131.665 102.266ZM131.665 57.7345H28.3301C36.9566 37.7439 56.8416 23.7501 79.9976 23.7501C103.154 23.7501 123.039 37.7439 131.665 57.7345Z" fill="white"/>
<path fill-rule="evenodd" clip-rule="evenodd" d="M79.9982 136.25C56.8423 136.25 36.9573 122.256 28.3307 102.266H13.8142L13.3545 118.477L31.6426 128.355L41.5211 146.643L62.2986 146.054L79.9982 156.953L97.6976 146.054L118.475 146.644L128.354 128.355L146.642 118.477L146.182 102.266H131.665C123.04 122.256 103.154 136.25 79.9982 136.25ZM79.9982 23.7501C56.8423 23.7501 36.957 37.7439 28.3307 57.7345H13.8145L13.3548 41.5236L31.6429 31.6451L41.5214 13.357L62.2989 13.9461L79.9982 3.047L97.6976 13.9457L118.475 13.3567L128.354 31.6448L146.642 41.5232L146.182 57.7342H131.665C123.04 37.7439 103.154 23.7501 79.9982 23.7501Z" fill="#66B7E0"/>
<path d="M77.6572 99.922H82.3447V104.609H77.6572V99.922Z" fill="#083863"/>
<path d="M152.969 55.3907H148.595L149.027 40.1472L130.085 29.9154L119.853 10.9732L98.3328 11.5829L80 0.294434L61.6675 11.5826L40.1469 10.9729L29.9153 29.9154L10.9728 40.1472L11.405 55.3907H7.03125C3.15406 55.3907 0 58.5447 0 62.4216V97.5782C0 101.455 3.15406 104.609 7.03125 104.609H11.405L10.9728 119.853L29.9153 130.084L40.1472 149.027L61.6678 148.417L80 159.706L98.3322 148.417L119.853 149.027L130.084 130.085L149.027 119.853L148.595 104.61H152.969C156.846 104.61 160 101.455 160 97.5785V62.4216C160 58.5447 156.846 55.3907 152.969 55.3907ZM15.7403 42.8997L33.3744 33.3741L42.8994 15.7404L62.9338 16.3079L80 5.79943L97.0662 16.3082L117.1 15.7407L126.625 33.3744L144.259 42.9001L143.906 55.391H133.184C123.602 34.6948 102.897 21.4063 80 21.4063C69.3637 21.4063 58.4296 24.18 45.7816 32.4338L48.5225 36.2369C58.4296 29.9154 70.2141 26.0938 80 26.0938C100.329 26.0938 118.781 37.4804 127.97 55.3907H32.03C35.92 47.8216 41.5684 41.2488 48.5225 36.2369L45.7816 32.4338C37.5778 38.3466 31.0503 46.2619 26.8197 55.3907H16.0944L15.7403 42.8997ZM144.26 117.1L126.626 126.626L117.1 144.26L97.0666 143.692L80 154.201L62.9338 143.692L42.8994 144.259L33.3744 126.625L15.7403 117.1L16.0944 104.609H26.8159C36.3984 125.305 57.1038 138.594 80 138.594C102.896 138.594 123.602 125.305 133.184 104.609H143.906L144.26 117.1ZM155.312 97.5782C155.312 98.8707 154.261 99.9219 152.969 99.9219H87.0312V104.609H127.97C118.781 122.52 100.329 133.906 80 133.906C59.6709 133.906 41.2191 122.52 32.0303 104.609H87.0312V99.9219H7.03125C5.73906 99.9219 4.6875 98.8707 4.6875 97.5782V62.4216C4.6875 61.1294 5.73906 60.0782 7.03125 60.0782H152.969C154.261 60.0782 155.312 61.1294 155.312 62.4216V97.5782Z" fill="#083863"/>
<path d="M94.0625 35.4686H98.75V40.1561H94.0625V35.4686Z" fill="#083863"/>
<path d="M103.438 40.1564H108.125V44.8439H103.438V40.1564Z" fill="#083863"/>
<path d="M75.7397 68.1856L67.2041 90.5972L71.5847 92.2656L73.6191 86.9243H81.8354L83.8494 92.2612L88.235 90.6062L79.7719 68.1809L75.7397 68.1856ZM75.4041 82.2368L77.7457 76.0884L80.066 82.2368H75.4041Z" fill="#083863"/>
<path d="M110.907 82.37L101.993 68.1831H97.5215V91.8162H102.209V77.3371L111.123 91.5237H115.595V68.1475H110.907V82.37Z" fill="#083863"/>
<path d="M132.281 68.1472H124.721V91.2541H132.454L132.474 91.2538C138.03 91.1566 142.063 86.2982 142.063 79.7007C142.063 72.7903 138.132 68.1472 132.281 68.1472ZM132.411 86.5669H129.408V72.835H132.281C134.744 72.835 137.376 74.6388 137.376 79.7013C137.376 84.3469 134.805 86.5144 132.411 86.5669Z" fill="#083863"/>
<path d="M31.414 78.5628C32.1037 77.5075 32.505 76.2475 32.505 74.8953C32.505 71.1947 29.4943 68.1841 25.7934 68.1841H17.9365V91.8522H26.7568C30.8662 91.8522 34.2096 88.4991 34.2096 84.3769C34.2096 82.0282 33.1175 79.9297 31.414 78.5628ZM22.624 72.8716H25.7937C26.9096 72.8716 27.8178 73.7794 27.8178 74.8953C27.8178 76.0141 26.91 76.9244 25.794 76.9244H23.4503H22.624V72.8716ZM26.7568 87.165H22.624V81.6119H26.7568C28.2815 81.6119 29.5221 82.8525 29.5221 84.3772C29.5221 85.9144 28.2815 87.165 26.7568 87.165Z" fill="#083863"/>
<path d="M58.285 75.461C58.285 71.4485 54.8956 68.1844 50.7293 68.1844H43.339L43.335 91.8523L48.0225 91.8529L48.024 83.9916L55.0893 92.3438L58.6681 89.3163L52.8537 82.4429C55.9884 81.5566 58.285 78.7632 58.285 75.461ZM48.0256 72.8716H50.729C52.2837 72.8716 53.5971 74.0573 53.5971 75.4607C53.5971 76.8641 52.2837 78.0498 50.7162 78.0498L48.0243 78.0644L48.0256 72.8716Z" fill="#083863"/>
</g>
<defs>
<clipPath id="clip0_110_7734">
<rect width="160" height="160" fill="white"/>
</clipPath>
</defs>
</svg>
