<svg width="39" height="39" viewBox="0 0 39 39" fill="none" xmlns="http://www.w3.org/2000/svg">
<path d="M34.125 13C33.694 13 33.2807 13.1712 32.976 13.476C32.6712 13.7807 32.5 14.194 32.5 14.625V27.625C32.5 28.056 32.3288 28.4693 32.024 28.774C31.7193 29.0788 31.306 29.25 30.875 29.25H8.125C7.69402 29.25 7.2807 29.0788 6.97595 28.774C6.67121 28.4693 6.5 28.056 6.5 27.625V12.0412L16.055 21.5962C16.9691 22.5092 18.2081 23.022 19.5 23.022C20.7919 23.022 22.0309 22.5092 22.945 21.5962L28.7787 15.7788C29.0847 15.4728 29.2566 15.0577 29.2566 14.625C29.2566 14.1923 29.0847 13.7772 28.7787 13.4713C28.4728 13.1653 28.0577 12.9934 27.625 12.9934C27.1923 12.9934 26.7772 13.1653 26.4713 13.4713L20.6537 19.305C20.5027 19.4573 20.323 19.5782 20.1249 19.6607C19.9269 19.7432 19.7145 19.7857 19.5 19.7857C19.2855 19.7857 19.0731 19.7432 18.8751 19.6607C18.677 19.5782 18.4973 19.4573 18.3462 19.305L8.79125 9.75H21.125C21.556 9.75 21.9693 9.57879 22.274 9.27405C22.5788 8.9693 22.75 8.55598 22.75 8.125C22.75 7.69402 22.5788 7.2807 22.274 6.97595C21.9693 6.67121 21.556 6.5 21.125 6.5H8.125C6.83207 6.5 5.59209 7.01361 4.67785 7.92785C3.76361 8.84209 3.25 10.0821 3.25 11.375V27.625C3.25 28.9179 3.76361 30.1579 4.67785 31.0721C5.59209 31.9864 6.83207 32.5 8.125 32.5H30.875C32.1679 32.5 33.4079 31.9864 34.3221 31.0721C35.2364 30.1579 35.75 28.9179 35.75 27.625V14.625C35.75 14.194 35.5788 13.7807 35.274 13.476C34.9693 13.1712 34.556 13 34.125 13ZM27.625 9.75H34.125C34.556 9.75 34.9693 9.57879 35.274 9.27405C35.5788 8.9693 35.75 8.55598 35.75 8.125C35.75 7.69402 35.5788 7.2807 35.274 6.97595C34.9693 6.67121 34.556 6.5 34.125 6.5H27.625C27.194 6.5 26.7807 6.67121 26.476 6.97595C26.1712 7.2807 26 7.69402 26 8.125C26 8.55598 26.1712 8.9693 26.476 9.27405C26.7807 9.57879 27.194 9.75 27.625 9.75Z" fill="black"/>
</svg>
