<svg width="39" height="39" viewBox="0 0 39 39" fill="none" xmlns="http://www.w3.org/2000/svg">
<path d="M31.5902 21.125C31.2327 21.125 30.859 21.0112 30.5015 20.93C29.7775 20.7704 29.0661 20.5586 28.3727 20.2962C27.6189 20.022 26.7902 20.0362 26.0462 20.3362C25.3022 20.6362 24.6955 21.2008 24.3427 21.9212L23.9852 22.6525C22.4025 21.772 20.9481 20.6785 19.6627 19.4025C18.3867 18.1171 17.2932 16.6627 16.4127 15.08L17.0952 14.625C17.8157 14.2722 18.3802 13.6655 18.6802 12.9215C18.9802 12.1775 18.9945 11.3488 18.7202 10.595C18.4622 9.90015 18.2505 9.18902 18.0865 8.46622C18.0052 8.10872 17.9402 7.73497 17.8915 7.36122C17.6941 6.2166 17.0946 5.18005 16.2009 4.43823C15.3071 3.69642 14.1779 3.29808 13.0165 3.31497H8.14148C7.44115 3.30839 6.74763 3.45279 6.10813 3.73833C5.46863 4.02387 4.89815 4.44385 4.43555 4.96968C3.97294 5.4955 3.62907 6.11483 3.42733 6.7855C3.22559 7.45617 3.17073 8.16244 3.26647 8.85622C4.13217 15.664 7.24127 21.9893 12.1027 26.833C16.964 31.6767 23.3006 34.7628 30.1115 35.6037H30.729C31.9273 35.6055 33.0842 35.1658 33.979 34.3687C34.4931 33.9089 34.9037 33.3453 35.1839 32.715C35.464 32.0847 35.6072 31.4022 35.604 30.7125V25.8375C35.5841 24.7087 35.173 23.6219 34.441 22.7624C33.709 21.903 32.7014 21.3242 31.5902 21.125ZM32.4027 30.875C32.4024 31.1057 32.353 31.3337 32.2577 31.5439C32.1625 31.754 32.0236 31.9414 31.8502 32.0937C31.6692 32.2514 31.4569 32.369 31.2273 32.439C30.9977 32.509 30.7559 32.5298 30.5177 32.5C24.4319 31.7197 18.7791 28.9355 14.4509 24.5867C10.1227 20.2379 7.36539 14.5719 6.61398 8.48247C6.58811 8.24444 6.61078 8.00363 6.6806 7.7746C6.75043 7.54558 6.86596 7.33309 7.02023 7.14997C7.1725 6.97663 7.35995 6.83771 7.57009 6.74245C7.78023 6.64718 8.00825 6.59776 8.23898 6.59747H13.114C13.4919 6.58906 13.8609 6.71265 14.1575 6.94696C14.4541 7.18127 14.6597 7.51164 14.739 7.88122C14.804 8.32539 14.8852 8.76414 14.9827 9.19747C15.1704 10.0541 15.4203 10.8959 15.7302 11.7162L13.4552 12.7725C13.2607 12.8617 13.0857 12.9885 12.9404 13.1456C12.795 13.3026 12.6821 13.4868 12.6081 13.6877C12.5341 13.8885 12.5005 14.1019 12.5092 14.3158C12.518 14.5296 12.5689 14.7396 12.659 14.9337C14.9977 19.9432 19.0245 23.97 24.034 26.3087C24.4296 26.4712 24.8734 26.4712 25.269 26.3087C25.4716 26.2362 25.6579 26.1242 25.8169 25.9791C25.9759 25.8341 26.1045 25.6589 26.1952 25.4637L27.2027 23.1887C28.0428 23.4891 28.9002 23.7388 29.7702 23.9362C30.2036 24.0337 30.6423 24.115 31.0865 24.18C31.456 24.2593 31.7864 24.4649 32.0207 24.7615C32.255 25.0581 32.3786 25.4271 32.3702 25.805L32.4027 30.875Z" fill="black"/>
</svg>
