<svg width="120" height="120" viewBox="0 0 120 120" fill="none" xmlns="http://www.w3.org/2000/svg">
<path fill-rule="evenodd" clip-rule="evenodd" d="M33.5485 24.3608H86.4468C91.5084 24.3608 95.6368 28.4892 95.6368 33.5509V86.4492C95.6368 91.5109 91.5084 95.6392 86.4468 95.6392H33.5485C28.4868 95.6392 24.3584 91.5109 24.3584 86.4492V33.5509C24.3584 28.4892 28.4868 24.3608 33.5485 24.3608Z" fill="white"/>
<path fill-rule="evenodd" clip-rule="evenodd" d="M10.3639 56.2161C12.4537 56.2161 14.1478 57.9102 14.1478 60C14.1478 62.0898 12.4537 63.7838 10.3639 63.7838C8.27413 63.7838 6.58008 62.0898 6.58008 60C6.58008 57.9102 8.27413 56.2161 10.3639 56.2161ZM6.58008 21.4264C6.58008 19.3366 8.27413 17.6426 10.3639 17.6426C12.4537 17.6426 14.1478 19.3366 14.1478 21.4264C14.1478 23.5162 12.4537 25.2102 10.3639 25.2102C8.27413 25.2102 6.58008 23.5162 6.58008 21.4264ZM17.6416 10.3649C17.6416 8.2751 19.3356 6.58105 21.4254 6.58105C23.5152 6.58105 25.2093 8.2751 25.2093 10.3649C25.2093 12.4547 23.5152 14.1487 21.4254 14.1487C19.3356 14.1487 17.6416 12.4547 17.6416 10.3649ZM59.999 7.42841C62.0888 7.42841 63.7828 9.12246 63.7828 11.2123C63.7828 13.302 62.0888 14.9961 59.999 14.9961C57.9092 14.9961 56.2152 13.302 56.2152 11.2123C56.2152 9.12246 57.9092 7.42841 59.999 7.42841ZM98.5723 6.58105C100.662 6.58105 102.356 8.2751 102.356 10.3649C102.356 12.4547 100.662 14.1487 98.5723 14.1487C96.4826 14.1487 94.7885 12.4547 94.7885 10.3649C94.7885 8.2751 96.4828 6.58105 98.5723 6.58105ZM109.634 17.6426C111.724 17.6426 113.418 19.3366 113.418 21.4264C113.418 23.5162 111.724 25.2102 109.634 25.2102C107.544 25.2102 105.85 23.5162 105.85 21.4264C105.85 19.3366 107.544 17.6426 109.634 17.6426ZM109.634 56.2161C111.724 56.2161 113.418 57.9102 113.418 60C113.418 62.0898 111.724 63.7838 109.634 63.7838C107.544 63.7838 105.85 62.0898 105.85 60C105.85 57.9102 107.544 56.2161 109.634 56.2161ZM113.418 98.5733C113.418 100.663 111.724 102.357 109.634 102.357C107.544 102.357 105.85 100.663 105.85 98.5733C105.85 96.4835 107.544 94.7895 109.634 94.7895C111.724 94.7895 113.418 96.4837 113.418 98.5733ZM102.356 109.635C102.356 111.725 100.662 113.419 98.5723 113.419C96.4826 113.419 94.7885 111.725 94.7885 109.635C94.7885 107.545 96.4826 105.851 98.5723 105.851C100.662 105.851 102.356 107.545 102.356 109.635ZM59.999 105.851C62.0888 105.851 63.7828 107.545 63.7828 109.635C63.7828 111.725 62.0888 113.419 59.999 113.419C57.9092 113.419 56.2152 111.725 56.2152 109.635C56.2152 107.545 57.9092 105.851 59.999 105.851ZM21.4254 113.419C19.3356 113.419 17.6416 111.725 17.6416 109.635C17.6416 107.545 19.3356 105.851 21.4254 105.851C23.5152 105.851 25.2093 107.545 25.2093 109.635C25.2093 111.725 23.5152 113.419 21.4254 113.419ZM10.3639 102.357C8.27413 102.357 6.58008 100.663 6.58008 98.5733C6.58008 96.4835 8.27413 94.7895 10.3639 94.7895C12.4537 94.7895 14.1478 96.4835 14.1478 98.5733C14.1478 100.663 12.4537 102.357 10.3639 102.357Z" fill="#66B7E0"/>
<path fill-rule="evenodd" clip-rule="evenodd" d="M83.9164 64.2412C78.8755 64.2412 76.3461 70.3483 79.9105 73.9127C80.5671 74.5693 80.5671 75.6341 79.9105 76.2907L76.2902 79.9109C75.6336 80.5676 74.5688 80.5676 73.9122 79.9109C70.3478 76.3466 64.2407 78.876 64.2407 83.9169C64.2407 84.846 63.4877 85.5983 62.5591 85.5983H57.4398C56.5112 85.5983 55.7582 84.8457 55.7582 83.9169C55.7582 78.8695 49.6555 76.3419 46.0867 79.9109C45.4301 80.5676 44.3651 80.5676 43.7087 79.9109L40.0884 76.2907C39.4318 75.6341 39.4318 74.569 40.0884 73.9127C43.6528 70.3483 41.1234 64.2412 36.0825 64.2412C35.1534 64.2412 34.4009 63.4882 34.4009 62.5598V57.4403C34.4009 56.5119 35.1534 55.7587 36.0825 55.7587C41.1234 55.7587 43.6528 49.6516 40.0884 46.0872C39.4318 45.4306 39.4318 44.3656 40.0884 43.7092L43.7087 40.0889C44.3653 39.4323 45.4303 39.4323 46.0867 40.0889C49.6511 43.6533 55.7582 41.1239 55.7582 36.083C55.7582 35.1539 56.5112 34.4014 57.4398 34.4014H62.5591C63.4875 34.4014 64.2407 35.1539 64.2407 36.083C64.2407 41.1241 70.3478 43.6533 73.9122 40.0889C74.5688 39.4323 75.6338 39.4323 76.2902 40.0889L79.9105 43.7092C80.5671 44.3658 80.5671 45.4308 79.9105 46.0872C76.3461 49.6516 78.8755 55.7587 83.9164 55.7587C84.8455 55.7587 85.598 56.5117 85.598 57.4403V62.5596C85.598 63.4882 84.8455 64.2412 83.9164 64.2412ZM59.9994 47.4903C53.0906 47.4903 47.4898 53.0911 47.4898 59.9999C47.4898 66.9088 53.0906 72.5095 59.9994 72.5095C66.9083 72.5095 72.509 66.9088 72.509 59.9999C72.509 53.0911 66.9083 47.4903 59.9994 47.4903Z" fill="#A9DBC6"/>
<path fill-rule="evenodd" clip-rule="evenodd" d="M59.9993 70.9363C53.9666 70.9363 49.0545 66.0231 49.0545 59.9841C49.0545 53.9451 53.9666 49.033 59.9993 49.033C66.0426 49.033 70.9547 53.9451 70.9547 59.9841C70.9547 66.0231 66.0426 70.9363 59.9993 70.9363ZM99.1436 5.03809H98.0042C95.8563 5.26734 94.0786 6.7791 93.4621 8.79077H83.7322C82.8735 8.79077 82.1717 9.48944 82.1717 10.3493V22.7865H61.5598V16.3066C63.7489 15.6373 65.3408 13.6002 65.3408 11.1966C65.3408 8.25146 62.9423 5.85517 59.9993 5.85517C57.0564 5.85517 54.6579 8.25146 54.6579 11.1966C54.6579 13.6002 56.2602 15.6373 58.4493 16.3066V22.7865H37.8269V10.3493C37.8269 9.48944 37.1356 8.79077 36.2769 8.79077H26.5366C25.9201 6.7791 24.1512 5.26734 21.9967 5.03809H20.8566C18.1797 5.32321 16.0839 7.59641 16.0839 10.3493C16.0839 13.2944 18.4824 15.6907 21.4253 15.6907C23.8343 15.6907 25.866 14.0955 26.5364 11.9078H34.7162V22.7865H33.5536C27.6257 22.7865 22.8077 27.6085 22.8077 33.5355V34.6981H11.9259V26.5203C14.1149 25.8521 15.7068 23.8139 15.7068 21.4103C15.7068 18.4652 13.3083 16.0689 10.3654 16.0689C7.42244 16.0689 5.02393 18.4652 5.02393 21.4103C5.02393 23.8139 6.62649 25.8521 8.80487 26.5203V36.2565C8.80487 37.1175 9.50666 37.815 10.3654 37.815H22.808V58.4267H15.4764C14.806 56.2388 12.7743 54.6427 10.3654 54.6427C7.42244 54.6427 5.02393 57.039 5.02393 59.9841C5.02393 62.9304 7.42244 65.3256 10.3654 65.3256C12.7743 65.3256 14.806 63.7303 15.4764 61.5426H22.808V82.1543H10.3654C9.50666 82.1543 8.80487 82.8519 8.80487 83.7117V93.448C6.62649 94.1172 5.02393 96.1543 5.02393 98.5579C5.02393 101.503 7.42244 103.899 10.3654 103.899C13.3083 103.899 15.7068 101.503 15.7068 98.5579C15.7068 96.1543 14.1149 94.1172 11.9259 93.448V85.2702H22.8077V86.4338C22.8077 92.3598 27.6255 97.1817 33.5536 97.1817H34.7162V108.062H26.5364C25.8662 105.874 23.8343 104.278 21.4253 104.278C18.4824 104.278 16.0839 106.674 16.0839 109.619C16.0839 112.565 18.4824 114.962 21.4253 114.962C23.8343 114.962 25.866 113.365 26.5364 111.177H36.2767C37.1354 111.177 37.8372 110.48 37.8372 109.619V97.1817H58.4491V104.51C56.26 105.178 54.6577 107.216 54.6577 109.619C54.6577 112.565 57.0562 114.962 59.9991 114.962C62.942 114.962 65.3406 112.565 65.3406 109.619C65.3406 107.216 63.7487 105.179 61.5596 104.51V97.1817H82.1715V109.619C82.1715 110.48 82.8733 111.177 83.732 111.177H93.4618C94.1322 113.365 96.1744 114.962 98.5729 114.962C101.527 114.962 103.914 112.565 103.914 109.619C103.914 106.674 101.526 104.278 98.5729 104.278C96.1744 104.278 94.1322 105.874 93.4618 108.062H85.2821V97.1817H86.455C92.383 97.1817 97.2009 92.3598 97.2009 86.4338V85.2702H108.083V93.448C105.894 94.1172 104.291 96.1543 104.291 98.5579C104.291 101.503 106.69 103.899 109.633 103.899C112.586 103.899 114.974 101.503 114.974 98.5579C114.974 96.1543 113.382 94.1172 111.193 93.448V83.7117C111.193 82.8519 110.502 82.1543 109.633 82.1543H97.2012V61.5426H104.522C105.192 63.7306 107.235 65.3256 109.633 65.3256C112.587 65.3256 114.975 62.9302 114.975 59.9841C114.975 57.039 112.587 54.6427 109.633 54.6427C107.235 54.6427 105.193 56.2388 104.522 58.4267H97.2012V37.815H109.633C110.502 37.815 111.194 37.1175 111.194 36.2565V26.5203C113.383 25.8521 114.975 23.8139 114.975 21.4103C114.975 18.4652 112.587 16.0689 109.633 16.0689C106.69 16.0689 104.292 18.4652 104.292 21.4103C104.292 23.8139 105.894 25.8521 108.083 26.5203V34.6981H97.2014V33.5355C97.2014 27.6087 92.3837 22.7865 86.4555 22.7865H85.2825V11.9078H93.4623C94.1327 14.0957 96.1748 15.6907 98.5733 15.6907C101.527 15.6907 103.915 13.2944 103.915 10.3493C103.915 7.59641 101.828 5.32321 99.1436 5.03809ZM59.9993 45.9162C52.2489 45.9162 45.9335 52.2275 45.9335 59.9843C45.9335 67.741 52.2489 74.0522 59.9993 74.0522C67.7602 74.0522 74.0652 67.741 74.0652 59.9843C74.0652 52.2275 67.7602 45.9162 59.9993 45.9162ZM84.0465 62.544V57.4245C84.0465 57.3564 83.9838 57.3009 83.9208 57.3009C80.9462 57.3009 78.3908 55.5917 77.2492 52.8402C76.1076 50.0889 76.7045 47.0734 78.8097 44.9705C78.8201 44.9612 78.8515 44.9338 78.8515 44.8826C78.8515 44.8312 78.8201 44.804 78.8097 44.7956L75.1964 41.1749C75.1859 41.1664 75.1545 41.1393 75.102 41.1393C75.0497 41.1393 75.0287 41.1664 75.0183 41.1749C72.9131 43.278 69.8967 43.8759 67.1421 42.7376C64.3982 41.5971 62.6803 39.0415 62.6803 36.0669C62.6803 35.9988 62.628 35.9443 62.565 35.9443H57.4435C57.3702 35.9443 57.3177 35.9988 57.3177 36.0669C57.3177 39.0415 55.6105 41.5969 52.8559 42.7376C50.1012 43.8761 47.0851 43.278 44.9904 41.1749C44.9799 41.1664 44.9486 41.1393 44.896 41.1393C44.8437 41.1393 44.8228 41.1664 44.8123 41.1749L41.1885 44.7956C41.1781 44.804 41.1571 44.8312 41.1571 44.8826C41.1571 44.9338 41.1781 44.9612 41.1885 44.9696C43.2937 47.0737 43.8906 50.0892 42.7595 52.8405C41.6179 55.5917 39.0622 57.3012 36.0879 57.3012C36.0147 57.3012 35.9622 57.3568 35.9622 57.4247V62.5442C35.9622 62.6123 36.0145 62.6678 36.0879 62.6678C39.0625 62.6678 41.6179 64.3769 42.7595 67.1285C43.8906 69.88 43.2937 72.8964 41.1885 74.9993C41.1781 75.0086 41.1571 75.0349 41.1571 75.0863C41.1571 75.1375 41.1781 75.1649 41.1885 75.1731L44.8123 78.7938C44.8646 78.8419 44.9381 78.8419 44.9904 78.7938C46.3833 77.3945 48.1848 76.6604 50.0492 76.6604C50.9918 76.6604 51.9344 76.8469 52.8561 77.2282C55.6107 78.3676 57.3179 80.9243 57.3179 83.9018C57.3179 83.9699 57.3702 84.0253 57.4437 84.0253H62.5652C62.628 84.0253 62.6805 83.9699 62.6805 83.9018C62.6805 80.9272 64.3982 78.3718 67.1423 77.2322C69.8967 76.0926 72.9131 76.6907 75.0185 78.7938C75.0603 78.8419 75.1443 78.8419 75.1966 78.7938L78.8099 75.1731C78.8204 75.1649 78.8518 75.1375 78.8518 75.0863C78.8518 75.0349 78.8204 75.0089 78.8099 74.9993C76.7048 72.8961 76.1078 69.8798 77.2494 67.1285C78.391 64.3772 80.9464 62.6678 83.921 62.6678C83.9835 62.6675 84.0465 62.6121 84.0465 62.544ZM83.9208 54.1851C81.8993 54.1851 80.6426 52.8738 80.1294 51.6474C79.6161 50.4221 79.5847 48.6019 81.0197 47.1731C81.6271 46.5615 81.9623 45.7486 81.9623 44.8826C81.9623 44.0174 81.6271 43.2037 81.0197 42.592L77.3959 38.9725C76.1285 37.7093 74.0757 37.7082 72.819 38.9725C71.384 40.4001 69.5618 40.3654 68.3362 39.8574C67.1109 39.3495 65.8017 38.0875 65.8017 36.0671C65.8017 34.2814 64.3458 32.8277 62.5654 32.8277H57.4439C55.653 32.8277 54.2076 34.2814 54.2076 36.0671C54.2076 38.0875 52.8984 39.3495 51.6626 39.8574C50.4373 40.3665 48.6149 40.4001 47.1906 38.9725C45.9337 37.7082 43.8704 37.7093 42.6137 38.9725L38.9899 42.592C38.3825 43.2037 38.0368 44.0174 38.0368 44.8826C38.0368 45.7486 38.3825 46.5615 38.9899 47.1731C40.4142 48.6017 40.3828 50.4219 39.8802 51.6474C39.3669 52.8738 38.1103 54.1851 36.0888 54.1851C34.2979 54.1851 32.842 55.6378 32.842 57.4245V62.544C32.842 64.3309 34.2979 65.7834 36.0888 65.7834C38.1103 65.7834 39.3672 67.0937 39.8802 68.3201C40.383 69.5477 40.4144 71.3668 38.9899 72.7955C38.3825 73.4072 38.0368 74.2209 38.0368 75.0861C38.0368 75.9513 38.3825 76.765 38.9899 77.3767L42.6137 80.9973C43.8706 82.2605 45.9339 82.2594 47.1906 80.9973C48.6256 79.5666 50.4478 79.5991 51.6626 80.107C52.8986 80.615 54.2076 81.8781 54.2076 83.9016C54.2076 85.6884 55.653 87.141 57.4439 87.141H62.5654C64.3458 87.141 65.8017 85.6884 65.8017 83.9016C65.8017 81.8823 67.1109 80.6192 68.3362 80.111C69.5615 79.6031 71.384 79.5686 72.819 80.9971C74.0759 82.2603 76.1287 82.2591 77.3959 80.9971L81.0197 77.3764C81.6271 76.7648 81.9623 75.951 81.9623 75.0859C81.9623 74.2207 81.6271 73.407 81.0197 72.7953C79.5847 71.3668 79.6163 69.5474 80.1294 68.3199C80.6426 67.0935 81.8993 65.7832 83.9208 65.7832C85.7012 65.7832 87.1571 64.3306 87.1571 62.5438V57.4242C87.1571 55.6378 85.7012 54.1851 83.9208 54.1851ZM94.0802 86.4341V33.5355C94.0802 29.3272 90.6553 25.9035 86.4555 25.9035H33.5536C29.3433 25.9035 25.9185 29.3272 25.9185 33.5355V86.4341C25.9185 90.6423 29.3433 94.0652 33.5536 94.0652H86.4553C90.6551 94.0649 94.0802 90.6421 94.0802 86.4341ZM111.864 98.5581C111.864 99.7857 110.859 100.784 109.633 100.784C108.408 100.784 107.413 99.7857 107.413 98.5581C107.413 97.3306 108.408 96.3315 109.633 96.3315C110.859 96.3315 111.864 97.3306 111.864 98.5581ZM98.5731 107.394C99.8091 107.394 100.804 108.393 100.804 109.619C100.804 110.847 99.8091 111.846 98.5731 111.846C97.3478 111.846 96.3527 110.847 96.3527 109.619C96.3527 108.393 97.3478 107.394 98.5731 107.394ZM62.2302 109.619C62.2302 110.847 61.2248 111.846 59.9993 111.846C58.774 111.846 57.7789 110.847 57.7789 109.619C57.7789 108.392 58.7738 107.394 59.9993 107.394C61.2246 107.394 62.2302 108.392 62.2302 109.619ZM21.4255 111.846C20.2002 111.846 19.2051 110.847 19.2051 109.619C19.2051 108.392 20.2 107.394 21.4255 107.394C22.6511 107.394 23.6564 108.392 23.6564 109.619C23.6562 110.847 22.6508 111.846 21.4255 111.846ZM12.5963 98.5581C12.5963 99.7857 11.5909 100.784 10.3654 100.784C9.14008 100.784 8.14493 99.7857 8.14493 98.5581C8.14493 97.3306 9.13985 96.3315 10.3654 96.3315C11.5909 96.3315 12.5963 97.3306 12.5963 98.5581ZM10.3654 62.2099C9.14008 62.2099 8.14493 61.2119 8.14493 59.9843C8.14493 58.7579 9.13985 57.7588 10.3654 57.7588C11.5909 57.7588 12.5963 58.7579 12.5963 59.9843C12.5963 61.2116 11.5909 62.2099 10.3654 62.2099ZM8.14515 21.4103C8.14515 20.1839 9.14008 19.1848 10.3656 19.1848C11.5911 19.1848 12.5965 20.1839 12.5965 21.4103C12.5965 22.6378 11.5911 23.637 10.3656 23.637C9.14008 23.637 8.14515 22.6378 8.14515 21.4103ZM21.4255 12.575C20.2002 12.575 19.2051 11.577 19.2051 10.3495C19.2051 9.12196 20.2 8.12392 21.4255 8.12392C22.6511 8.12392 23.6564 9.12196 23.6564 10.3495C23.6562 11.5768 22.6508 12.575 21.4255 12.575ZM57.7789 11.1966C57.7789 9.9691 58.7738 8.97105 59.9993 8.97105C61.2246 8.97105 62.2302 9.9691 62.2302 11.1966C62.2302 12.4241 61.2248 13.4222 59.9993 13.4222C58.7738 13.4222 57.7789 12.4241 57.7789 11.1966ZM98.5731 8.1237C99.8091 8.1237 100.804 9.12174 100.804 10.3493C100.804 11.5768 99.8091 12.5748 98.5731 12.5748C97.3478 12.5748 96.3527 11.5768 96.3527 10.3493C96.3527 9.12174 97.3478 8.1237 98.5731 8.1237ZM107.413 21.4103C107.413 20.1839 108.408 19.1848 109.633 19.1848C110.859 19.1848 111.864 20.1839 111.864 21.4103C111.864 22.6378 110.859 23.637 109.633 23.637C108.408 23.637 107.413 22.6378 107.413 21.4103ZM109.633 57.7586C110.859 57.7586 111.864 58.7577 111.864 59.9841C111.864 61.2116 110.859 62.2097 109.633 62.2097C108.408 62.2097 107.413 61.2116 107.413 59.9841C107.413 58.7577 108.408 57.7586 109.633 57.7586Z" fill="#083863"/>
</svg>
