<svg width="120" height="120" viewBox="0 0 120 120" fill="none" xmlns="http://www.w3.org/2000/svg">
<path d="M82.5664 54.5467C96.7706 56.5402 107.699 68.7283 107.699 83.4827C107.699 99.6117 94.617 112.694 78.488 112.694C67.4002 112.694 57.7314 106.508 52.806 97.3892C50.561 93.2429 49.2778 88.5004 49.2778 83.4601C49.2778 67.3311 62.3599 54.249 78.488 54.249C79.8634 54.2717 81.2153 54.3639 82.5664 54.5467Z" fill="#A9DBC6"/>
<path d="M82.5668 54.5471C81.2383 54.3643 79.8638 54.2721 78.4884 54.2721C62.3603 54.2721 49.2782 67.3542 49.2782 83.4831C49.2782 88.5234 50.5613 93.266 52.8064 97.4123L52.7603 97.4357H22.2904C16.7226 97.4357 12.209 92.9221 12.209 87.3552V17.4326C12.209 11.8657 16.7226 7.35205 22.2904 7.35205H59.2674V24.0311C59.2674 28.3376 62.7495 31.8205 67.0568 31.8205H82.5668V54.5471Z" fill="#F9F6F9"/>
<path d="M59.2666 7.35205L82.566 31.8205H67.056C62.7487 31.8205 59.2666 28.3376 59.2666 24.0311V7.35205Z" fill="#66B7E0"/>
<path d="M84.9269 52.6231V31.8204C84.9269 31.2241 84.6519 30.6748 84.2627 30.2395L60.9399 5.74842C60.5046 5.29052 59.8857 5.03809 59.2676 5.03809H22.2906C15.4632 5.03809 10.0103 10.6051 10.0103 17.4325V87.355C10.0103 94.1825 15.4632 99.6581 22.2906 99.6581H51.4782C57.1592 109.28 67.3773 114.962 78.4895 114.962C95.8554 114.962 109.991 100.849 109.991 83.4603C109.991 75.8085 107.264 68.4535 102.224 62.7037C97.6652 57.5259 91.5707 53.9977 84.9269 52.6231ZM61.5588 13.0799L77.2063 29.5519H67.057C64.0328 29.5519 61.5579 27.0552 61.5579 24.031V13.0799H61.5588ZM14.5926 87.355V17.4325C14.5926 13.1252 18.006 9.62048 22.2906 9.62048H56.9764V24.031C56.9764 29.598 61.49 34.1342 67.057 34.1342H80.3454V52.0269C79.6577 52.0042 79.1076 51.9128 78.5121 51.9128C70.5164 51.9128 63.1623 54.9823 57.618 59.7936H28.5218C27.2621 59.7936 26.2306 60.8243 26.2306 62.0848C26.2306 63.3453 27.2613 64.376 28.5218 64.376H53.3568C51.7298 66.6672 50.3779 68.9584 49.3245 71.4785H28.5218C27.2621 71.4785 26.2306 72.5092 26.2306 73.7689C26.2306 75.0294 27.2613 76.0601 28.5218 76.0601H47.8351C47.2623 78.3513 46.9646 80.8941 46.9646 83.4377C46.9646 87.4464 47.7202 91.4099 49.187 95.0757H22.2906C18.006 95.0757 14.5926 91.6389 14.5926 87.355ZM78.4895 110.403C68.6152 110.403 59.5192 104.996 54.8001 96.3127C52.6691 92.3953 51.547 87.9731 51.547 83.483C51.547 68.6372 63.6202 56.5631 78.466 56.5631C79.7265 56.5631 80.9861 56.6554 82.2231 56.8156C88.5927 57.7087 94.4574 60.8704 98.7186 65.7279C103.026 70.6307 105.386 76.9306 105.386 83.483C105.408 98.3288 93.3353 110.403 78.4895 110.403Z" fill="#083863"/>
<path d="M28.5217 52.9213H51.7297C52.9901 52.9213 54.0208 51.8897 54.0208 50.6301C54.0208 49.3696 52.9901 48.3389 51.7297 48.3389H28.5217C27.262 48.3389 26.2305 49.3696 26.2305 50.6301C26.2305 51.8897 27.262 52.9213 28.5217 52.9213Z" fill="#083863"/>
<path d="M76.7845 100.529C77.2198 100.987 77.8152 101.262 78.4568 101.262C79.0984 101.262 79.6938 100.987 80.1291 100.529L93.5542 86.1187C94.4256 85.202 94.3568 83.7361 93.4402 82.8882C93.0049 82.4756 92.4321 82.2693 91.8819 82.2693C91.2639 82.2693 90.6223 82.5217 90.1635 83.0031L80.6792 93.1525V68.1338C80.6792 66.8742 79.6477 65.8426 78.388 65.8426C77.1276 65.8426 76.0969 66.8742 76.0969 68.1338V93.1516L66.6805 83.0023C65.81 82.0865 64.3893 82.0177 63.45 82.8882C62.5342 83.7587 62.4881 85.202 63.3359 86.1187L76.7845 100.529Z" fill="#083863"/>
</svg>
