<svg width="120" height="120" viewBox="0 0 120 120" fill="none" xmlns="http://www.w3.org/2000/svg">
<path d="M75.9658 92.0743H60.4668V37.9692C60.4668 34.5543 63.2354 31.7866 66.6494 31.7866H69.7832C73.1982 31.7866 75.9658 34.5543 75.9658 37.9692V92.0743Z" fill="#66B7E0"/>
<path d="M53.7344 92.0742H38.2354V51.6269C38.2354 48.6496 40.6487 46.2354 43.626 46.2354H48.3428C51.3201 46.2354 53.7344 48.6496 53.7344 51.6269V92.0742Z" fill="#66B7E0"/>
<path d="M98.1997 83.4321H82.7007V21.0011C82.7007 17.6082 85.4509 14.8579 88.8439 14.8579H92.0556C95.4485 14.8579 98.1997 17.6082 98.1997 21.0011V83.4321Z" fill="#66B7E0"/>
<path d="M31.4009 72.3657L62.5646 55.8238C66.4547 53.7584 70.9958 57.1514 70.1159 61.4672C69.4723 64.6221 68.0084 67.951 64.9478 70.4293L61.7535 73.0175C60.1669 74.302 61.0751 76.8682 63.1167 76.8682L75.9241 76.8737C80.1007 76.8756 84.1767 75.5865 87.5925 73.1841L101.906 63.1188C104.605 61.2209 108.283 61.5596 110.589 63.9199C113.345 66.7406 113.096 71.3174 110.048 73.8214L91.2995 89.227C88.953 91.1551 86.2027 92.5311 83.252 93.2535L42.1584 103.315L31.4009 72.3657Z" fill="#FFE2D9"/>
<path d="M31.4007 72.3652L43.0453 103.443C44.9753 108.594 41.9183 114.263 36.5551 115.481L25.4186 118.011C20.6359 119.097 15.8559 116.188 14.6218 111.442L8.62412 88.366C7.34696 83.4523 10.2236 78.4169 15.1052 77.0225L31.4007 72.3652Z" fill="#F9F6F9"/>
<path d="M32.9092 105.184C32.9092 108.039 30.5957 110.353 27.742 110.353C24.8883 110.353 22.5747 108.039 22.5747 105.184C22.5747 102.331 24.8883 100.017 27.742 100.017C30.5957 100.017 32.9092 102.331 32.9092 105.184Z" fill="#A9DBC6"/>
<path d="M71.9539 1.75781H57.8978C55.8827 1.75781 54.2485 3.39204 54.2485 5.40712C54.2485 7.42312 55.8827 9.05643 57.8978 9.05643H62.9003L48.2408 23.1684L41.2901 19.5731C39.8746 18.8407 38.1461 19.1126 37.0228 20.2442L8.67427 48.8106C7.25428 50.2416 7.26252 52.5524 8.6935 53.9724C9.40578 54.6782 10.335 55.0307 11.2643 55.0307C12.2036 55.0307 13.1421 54.6709 13.8553 53.9522L40.3168 27.2874L47.2108 30.8534C48.5997 31.5712 50.2916 31.3249 51.4186 30.2409L68.3046 13.9866V19.5869C68.3046 21.6029 69.9379 23.2371 71.9539 23.2371C73.969 23.2371 75.6032 21.6029 75.6032 19.5869V5.40712C75.6032 5.40346 75.6023 5.39979 75.6023 5.39613C75.6023 2.47284 73.4426 1.75781 71.9539 1.75781Z" fill="#A9DBC6"/>
<path d="M111.846 62.6912C106.332 57.2017 99.958 62.3397 99.958 62.3397V33.4409C99.958 32.4705 99.1707 31.6831 98.2002 31.6831C97.2288 31.6831 96.4424 32.4705 96.4424 33.4409V64.8125C96.4424 64.8125 88.0607 71.4199 84.4581 73.0349V21.0016C84.4581 18.5828 86.4256 16.6153 88.8444 16.6153H92.0561C94.4749 16.6153 96.4424 18.5828 96.4424 21.0016V26.2449C96.4424 27.2162 97.2288 28.0027 98.2002 28.0027C99.1707 28.0027 99.958 27.2162 99.958 26.2449V21.0016C99.958 16.6446 96.4131 13.1006 92.0561 13.1006H88.8444C84.4874 13.1006 80.9425 16.6446 80.9425 21.0016V74.4283C79.8951 74.7222 78.8184 74.9218 77.7253 75.0271V37.9692C77.7253 33.5902 74.163 30.0278 69.7849 30.0278H66.651C62.273 30.0278 58.7106 33.5902 58.7106 37.9692V55.8788L55.4935 57.5872V51.627C55.4935 47.6848 52.2863 44.4777 48.3441 44.4777H43.6273C39.685 44.4777 36.4788 47.6848 36.4788 51.627V67.68L30.7393 70.7259L14.6223 75.332C11.818 76.1331 9.47612 77.9696 8.02958 80.502C6.58304 83.0352 6.18936 85.9851 6.92362 88.8077L8.7263 95.7437C8.97075 96.6831 9.92931 97.2461 10.8696 97.0026C11.8089 96.7581 12.3729 95.7987 12.1284 94.8593L10.3257 87.9233C9.28019 83.9004 11.5919 79.8547 15.5891 78.7121L30.3246 74.5007L41.3998 104.06C42.1413 106.039 42.0242 111.687 36.1666 113.767L25.0301 116.296C21.1491 117.178 17.325 114.851 16.3234 110.999L14.0629 102.3C13.8185 101.361 12.859 100.797 11.9188 101.041C10.9794 101.285 10.4155 102.245 10.6599 103.184L12.9213 111.884C14.1911 116.772 18.5335 120 23.3656 120C26.917 120 36.9448 117.196 36.9448 117.196C39.9963 116.502 42.5973 114.525 44.0823 111.771C45.3073 109.5 45.6707 106.884 45.1452 104.393L83.6707 94.961C86.8568 94.18 89.8817 92.6666 92.4159 90.5838L111.164 75.1791C116.881 70.1098 113.527 64.3639 111.846 62.6912ZM66.651 33.5435H69.7849C72.2248 33.5435 74.2096 35.5293 74.2096 37.9692V75.115L63.118 75.1104C62.099 75.1013 62.8049 74.4283 62.8598 74.3826L66.0541 71.7953C69.0351 69.381 70.9806 66.0247 71.8384 61.8178C72.3832 59.149 71.366 56.4775 69.1834 54.8461C67.1454 53.3226 64.5252 53.0296 62.2263 54.0367V37.9692C62.2263 35.5293 64.2111 33.5435 66.651 33.5435ZM39.9944 51.627C39.9944 49.6239 41.6241 47.9933 43.6273 47.9933H48.3441C50.3482 47.9933 51.9778 49.6239 51.9778 51.627V59.453L39.9944 65.8141V51.627ZM108.933 72.4636L90.1848 87.8683C88.0543 89.6188 85.5128 90.8905 82.8349 91.546L44.0255 101.048L33.5885 73.1951L63.389 57.3766C64.6002 56.733 65.9799 56.8401 67.0786 57.6613C68.1763 58.4825 68.6679 59.7734 68.3942 61.1156C67.7039 64.5022 66.1713 67.1764 63.8413 69.0633L60.647 71.6515C59.3378 72.7117 58.8553 74.4228 59.4174 76.0113C59.9795 77.5988 61.4316 78.6261 63.1162 78.6261L75.9244 78.6315H75.9327C80.4929 78.6315 84.8747 77.2445 88.6045 74.6215L102.917 64.5562C104.922 63.1463 107.619 63.3962 109.332 65.1476C110.317 66.1556 112.247 69.1485 108.933 72.4636Z" fill="#0D365B"/>
<path d="M34.6666 105.185C34.6666 101.367 31.5602 98.2593 27.7415 98.2593C23.9228 98.2593 20.8164 101.367 20.8164 105.185C20.8164 109.003 23.9228 112.11 27.7415 112.11C31.5602 112.109 34.6666 109.003 34.6666 105.185ZM24.332 105.185C24.332 103.305 25.861 101.775 27.7415 101.775C29.622 101.775 31.1509 103.305 31.1509 105.185C31.1509 107.065 29.622 108.595 27.7415 108.595C25.861 108.595 24.332 107.065 24.332 105.185Z" fill="#0D365B"/>
<path d="M15.1028 55.191L40.6553 29.4416L46.4021 32.4144C48.4611 33.4791 50.9669 33.1148 52.6369 31.5071L66.5456 18.1184C66.5456 18.1184 66.1629 24.9949 71.9537 24.9949C74.9346 24.9949 77.3608 22.5688 77.3608 19.5869V5.40713C77.3608 5.39065 77.3608 5.37325 77.3599 5.35586C77.3406 1.6562 74.6352 0 71.9537 0H57.8975C54.9156 0 52.4904 2.42616 52.4904 5.40713C52.4904 11.3508 58.5393 10.8143 58.5393 10.8143L47.9283 21.0279L42.0973 18.0122C39.9888 16.9208 37.4482 17.3209 35.7746 19.0055L7.42612 47.5728C5.32589 49.6895 5.33871 53.12 7.45541 55.2203C8.47532 56.2319 11.958 58.3349 15.1028 55.191ZM9.92094 50.0493L38.2704 21.482C38.6357 21.114 39.2234 20.4694 40.4823 21.135L47.4321 24.7294C48.1013 25.0755 48.9161 24.9574 49.4591 24.4346L64.1185 10.3235C64.6349 9.82639 64.7979 9.06467 64.5296 8.4C64.2614 7.73441 63.6168 7.29953 62.9 7.29953H57.8975C56.8547 7.29953 56.006 6.45083 56.006 5.40713C56.006 4.36434 56.8547 3.51564 57.8975 3.51564H71.9537C72.4709 3.51564 73.8442 3.51564 73.8442 5.39614C73.8442 5.4117 73.8451 5.42727 73.8451 5.44375V19.5869C73.8451 20.6306 72.9964 21.4793 71.9537 21.4793C70.91 21.4793 70.0622 20.6306 70.0622 19.5869V13.9866C70.0622 13.2816 69.641 12.6444 68.9919 12.3688C68.3437 12.0923 67.593 12.2315 67.0849 12.7204L50.1988 28.9747C49.6147 29.5369 48.7385 29.665 48.018 29.2924L41.1241 25.7264C40.442 25.3739 39.6098 25.5049 39.0687 26.0496L12.6071 52.7144C11.4535 53.868 10.2881 53.0788 9.93192 52.7245C9.19126 51.9893 9.18668 50.7891 9.92094 50.0493Z" fill="#0D365B"/>
</svg>
