<svg width="120" height="120" viewBox="0 0 120 120" fill="none" xmlns="http://www.w3.org/2000/svg">
<path d="M105.801 76.4885C103.237 76.4885 100.964 75.169 99.6638 73.1545C98.9133 71.9996 98.4731 70.6256 98.4731 69.1603C98.4731 65.1115 101.753 61.832 105.801 61.832C109.85 61.832 113.13 65.1115 113.13 69.1603C113.13 73.2091 109.85 76.4885 105.801 76.4885Z" fill="white"/>
<path d="M105.765 42.6133C102.284 45.4535 97.832 47.1755 92.9772 47.1755C90.5592 47.1755 88.2503 46.7542 86.1249 45.9849V45.9661C83.9448 45.1968 81.9482 44.0428 80.1895 42.6133C80.6475 36.9713 85.3922 32.519 91.1451 32.519H94.8093C100.562 32.519 105.307 36.9713 105.765 42.6133Z" fill="#64AC7D"/>
<path d="M100.305 25.191C100.305 29.238 97.0242 32.5193 92.9772 32.5193C88.9302 32.5193 85.6489 29.238 85.6489 25.191C85.6489 21.144 88.9302 17.8628 92.9772 17.8628C97.0242 17.8628 100.305 21.144 100.305 25.191Z" fill="#64AC7D"/>
<path d="M92.9769 6.87012C104.116 6.87012 113.13 15.8837 113.13 27.0228C113.13 33.3071 110.271 38.9133 105.765 42.6132C105.307 36.9712 100.562 32.519 94.809 32.519H92.9769C97.0257 32.519 100.305 29.2395 100.305 25.1907C100.305 21.1419 97.0257 17.8625 92.9769 17.8625C88.9281 17.8625 85.6486 21.1419 85.6486 25.1907C85.6486 29.2395 88.9281 32.519 92.9769 32.519H91.1448C85.3919 32.519 80.6472 36.9712 80.1891 42.6132C77.6978 40.562 75.7002 37.9239 74.4183 34.9003C73.3923 32.4823 72.8242 29.8255 72.8242 27.0228C72.8242 24.5681 73.2643 22.2226 74.0703 20.0613C76.8918 12.3484 84.2925 6.87012 92.9769 6.87012Z" fill="white"/>
<path d="M69.1604 113.13C64.2868 113.13 59.8167 111.408 56.3359 108.532C56.8118 102.907 61.5575 98.4731 67.2916 98.4731H70.9557C76.7087 98.4731 81.4534 102.925 81.9114 108.567L81.9302 108.586C78.4486 111.425 74.0151 113.13 69.1604 113.13Z" fill="#C6FFF5"/>
<path d="M67.2913 98.4736C61.5571 98.4736 56.8115 102.907 56.3356 108.532C53.0015 105.784 50.5826 101.991 49.5566 97.6488C49.1907 96.1468 49.0073 94.5894 49.0073 92.9774C49.0073 87.0599 51.5541 81.7471 55.6029 78.0642C59.1749 74.8035 63.9384 72.8247 69.16 72.8247C71.578 72.8247 73.8869 73.246 76.0123 74.0154V74.0342C80.1703 75.5182 83.6886 78.3576 86.052 82.0029C88.122 85.1544 89.3127 88.9286 89.3127 92.9774C89.3127 99.2617 86.4367 104.886 81.9299 108.587L81.9111 108.568C81.4531 102.926 76.7083 98.4736 70.9554 98.4736H69.1233C73.1721 98.4736 76.4516 95.1941 76.4516 91.1453C76.4516 87.0965 73.1721 83.8171 69.1233 83.8171C65.0745 83.8171 61.7951 87.0965 61.7951 91.1453C61.7951 95.1941 65.0745 98.4736 69.1233 98.4736H67.2913Z" fill="white"/>
<path d="M76.4519 91.1451C76.4519 95.1921 73.1706 98.4734 69.1237 98.4734C65.0767 98.4734 61.7954 95.1921 61.7954 91.1451C61.7954 87.0981 65.0767 83.8169 69.1237 83.8169C73.1706 83.8169 76.4519 87.0981 76.4519 91.1451Z" fill="#C6FFF5"/>
<path d="M58.1681 6.87012C62.2169 6.87012 65.4963 10.1496 65.4963 14.1984C65.4963 15.0965 65.3317 15.9392 65.0383 16.7264C64.0123 19.5299 61.3196 21.5266 58.1681 21.5266C54.1193 21.5266 50.8398 18.2471 50.8398 14.1984C50.8398 10.1496 54.1193 6.87012 58.1681 6.87012Z" fill="white"/>
<path d="M32.5188 72.8245C28.9647 72.8245 25.6306 71.9084 22.7358 70.2964C21.6543 69.7096 20.647 69.0136 19.6943 68.2264C20.1702 62.6014 24.9159 58.168 30.65 58.168H34.3141C40.0671 58.168 44.8118 62.6202 45.2698 68.2622L45.2886 68.281C41.807 71.1203 37.3735 72.8245 32.5188 72.8245Z" fill="#66B7E0"/>
<path d="M39.8103 50.84C39.8103 54.887 36.529 58.1682 32.4821 58.1682C28.4351 58.1682 25.1538 54.887 25.1538 50.84C25.1538 46.793 28.4351 43.5117 32.4821 43.5117C36.529 43.5117 39.8103 46.793 39.8103 50.84Z" fill="#66B7E0"/>
<path d="M30.6871 109.466C26.6383 109.466 23.3589 106.186 23.3589 102.137C23.3589 98.0885 26.6383 94.8091 30.6871 94.8091C34.15 94.8091 37.0448 97.2092 37.8141 100.433C37.942 100.983 38.0154 101.551 38.0154 102.137C38.0154 106.186 34.7359 109.466 30.6871 109.466Z" fill="white"/>
<path d="M30.6501 58.1679C24.916 58.1679 20.1704 62.6013 19.6945 68.2263C15.2243 64.5255 12.3662 58.9372 12.3662 52.6717C12.3662 44.6287 17.0564 37.7039 23.8533 34.4611C26.4734 33.215 29.4228 32.519 32.5189 32.519C40.8544 32.519 48.0002 37.5751 51.0774 44.7942C52.1035 47.2122 52.6716 49.8691 52.6716 52.6717C52.6716 58.5892 50.1247 63.902 46.076 67.5849C45.8192 67.8229 45.5634 68.043 45.2887 68.2809L45.27 68.2621C44.8119 62.6201 40.0672 58.1679 34.3143 58.1679H32.4822C36.531 58.1679 39.8104 54.8884 39.8104 50.8397C39.8104 46.7909 36.531 43.5114 32.4822 43.5114C28.4334 43.5114 25.154 46.7909 25.154 50.8397C25.154 54.8884 28.4334 58.1679 32.4822 58.1679H30.6501Z" fill="white"/>
<path d="M14.1984 78.3203C15.4812 78.3203 16.7085 78.6504 17.7525 79.2542C20.0059 80.5004 21.5266 82.9005 21.5266 85.6486C21.5266 89.6973 18.2471 92.9768 14.1984 92.9768C10.1496 92.9768 6.87012 89.6973 6.87012 85.6486C6.87012 81.5998 10.1496 78.3203 14.1984 78.3203Z" fill="white"/>
<path d="M14.1984 6.87012C18.2471 6.87012 21.5266 10.1496 21.5266 14.1984C21.5266 17.1111 19.8225 19.64 17.3499 20.794C16.3972 21.2699 15.3157 21.5266 14.1984 21.5266C10.1496 21.5266 6.87012 18.2471 6.87012 14.1984C6.87012 10.1496 10.1496 6.87012 14.1984 6.87012Z" fill="white"/>
<path d="M92.977 49.0076C105.1 49.0076 114.962 39.1459 114.962 27.0228C114.962 14.8997 105.1 5.03809 92.977 5.03809C84.1736 5.03809 76.5833 10.2507 73.0757 17.7417L67.1886 15.5689C67.2584 15.118 67.3282 14.6671 67.3282 14.1984C67.3282 9.1477 63.2186 5.03809 58.1679 5.03809C53.1172 5.03809 49.0076 9.1477 49.0076 14.1984C49.0076 19.2491 53.1172 23.3587 58.1679 23.3587C61.4491 23.3587 64.3108 21.6089 65.9282 19.0093L71.8054 21.1787C71.2893 23.0438 70.9923 24.9966 70.9923 27.0228C70.9923 29.4229 71.3913 31.7273 72.106 33.8913L51.9569 42.4307C48.2678 35.4558 40.9449 30.6869 32.519 30.6869C29.7888 30.6869 27.1838 31.2112 24.7694 32.1236L19.7017 21.4739C21.9095 19.7992 23.3587 17.1755 23.3587 14.1984C23.3587 9.1477 19.2491 5.03809 14.1984 5.03809C9.1477 5.03809 5.03809 9.1477 5.03809 14.1984C5.03809 19.2491 9.1477 23.3587 14.1984 23.3587C14.9606 23.3587 15.6914 23.2379 16.4008 23.0599L21.4622 33.6989C14.9382 37.5169 10.5343 44.5813 10.5343 52.6717C10.5343 60.271 14.4113 66.9784 20.2886 70.9279L16.9375 76.9519C16.0653 76.6772 15.1583 76.4885 14.1984 76.4885C9.1477 76.4885 5.03809 80.5981 5.03809 85.6488C5.03809 90.6995 9.1477 94.8091 14.1984 94.8091C19.2491 94.8091 23.3587 90.6995 23.3587 85.6488C23.3587 82.8747 22.0929 80.4147 20.1401 78.7347L23.4982 72.6982C26.2535 73.9452 29.3022 74.6564 32.519 74.6564C37.5464 74.6564 42.1704 72.9415 45.8784 70.0906L53.0894 78.0235C49.4325 81.9516 47.1755 87.1991 47.1755 92.977C47.1755 94.0979 47.2873 95.1902 47.4483 96.2654L38.9643 98.2791C37.5044 95.1571 34.3546 92.977 30.6869 92.977C25.6362 92.977 21.5266 97.0866 21.5266 102.137C21.5266 107.188 25.6362 111.298 30.6869 111.298C35.7376 111.298 39.8472 107.188 39.8472 102.137C39.8472 102.036 39.8195 101.941 39.8177 101.84L48.2856 99.8329C51.1733 108.606 59.4319 114.962 69.1602 114.962C81.2833 114.962 91.145 105.1 91.145 92.977C91.145 89.2181 90.194 85.6783 88.523 82.5822L99.2846 75.585C100.948 77.2703 103.253 78.3205 105.801 78.3205C110.852 78.3205 114.962 74.2109 114.962 69.1602C114.962 64.1095 110.852 59.9999 105.801 59.9999C100.751 59.9999 96.6411 64.1095 96.6411 69.1602C96.6411 70.3437 96.8845 71.4682 97.2951 72.5077L86.5085 79.5201C84.3499 76.7452 81.5472 74.5043 78.3205 73.0167L87.2626 48.2275C89.0875 48.7195 90.9983 49.0076 92.977 49.0076ZM58.1679 19.6946C55.138 19.6946 52.6717 17.2283 52.6717 14.1984C52.6717 11.1685 55.138 8.70221 58.1679 8.70221C61.1977 8.70221 63.664 11.1685 63.664 14.1984C63.664 17.2283 61.1977 19.6946 58.1679 19.6946ZM8.70221 14.1984C8.70221 11.1685 11.1685 8.70221 14.1984 8.70221C17.2283 8.70221 19.6946 11.1685 19.6946 14.1984C19.6946 17.2283 17.2283 19.6946 14.1984 19.6946C11.1685 19.6946 8.70221 17.2283 8.70221 14.1984ZM14.1984 91.145C11.1685 91.145 8.70221 88.6787 8.70221 85.6488C8.70221 82.6189 11.1685 80.1526 14.1984 80.1526C17.2283 80.1526 19.6946 82.6189 19.6946 85.6488C19.6946 88.6787 17.2283 91.145 14.1984 91.145ZM30.6869 107.634C27.6571 107.634 25.1908 105.167 25.1908 102.137C25.1908 99.1075 27.6571 96.6411 30.6869 96.6411C33.7168 96.6411 36.1831 99.1075 36.1831 102.137C36.1831 105.167 33.7168 107.634 30.6869 107.634ZM105.801 63.664C108.831 63.664 111.298 66.1303 111.298 69.1602C111.298 72.1901 108.831 74.6564 105.801 74.6564C102.772 74.6564 100.305 72.1901 100.305 69.1602C100.305 66.1303 102.772 63.664 105.801 63.664ZM82.1877 41.7965C83.0053 37.559 86.741 34.3511 91.145 34.3511H94.8091C99.213 34.3511 102.949 37.559 103.766 41.7965C100.736 44.015 97.0133 45.3434 92.977 45.3434C88.9408 45.3434 85.2185 44.015 82.1877 41.7965ZM92.977 30.6869C89.9471 30.6869 87.4808 28.2206 87.4808 25.1908C87.4808 22.1609 89.9471 19.6946 92.977 19.6946C96.0069 19.6946 98.4732 22.1609 98.4732 25.1908C98.4732 28.2206 96.0069 30.6869 92.977 30.6869ZM92.977 8.70221C103.079 8.70221 111.298 16.9205 111.298 27.0228C111.298 31.603 109.595 35.7877 106.805 39.0028C105.521 35.6222 102.845 32.9242 99.51 31.5922C101.132 29.9391 102.137 27.6821 102.137 25.1908C102.137 20.1401 98.0277 16.0305 92.977 16.0305C87.9263 16.0305 83.8167 20.1401 83.8167 25.1908C83.8167 27.6821 84.8222 29.9391 86.444 31.5922C83.1091 32.9242 80.4326 35.6222 79.1489 39.0028C76.3588 35.7877 74.6564 31.603 74.6564 27.0228C74.6564 16.9205 82.8747 8.70221 92.977 8.70221ZM14.1984 52.6717C14.1984 42.5694 22.4167 34.3511 32.519 34.3511C42.6213 34.3511 50.8396 42.5694 50.8396 52.6717C50.8396 57.2661 49.1265 61.4616 46.3221 64.6812C45.0429 61.2881 42.361 58.5767 39.0171 57.2411C40.6371 55.5879 41.6426 53.331 41.6426 50.8396C41.6426 45.7889 37.533 41.6793 32.4823 41.6793C27.4316 41.6793 23.322 45.7889 23.322 50.8396C23.322 53.331 24.3275 55.5879 25.9493 57.2411C22.6243 58.5668 19.9513 61.255 18.6631 64.6221C15.8891 61.4106 14.1984 57.2393 14.1984 52.6717ZM26.9861 50.8396C26.9861 47.8097 29.4524 45.3434 32.4823 45.3434C35.5122 45.3434 37.9785 47.8097 37.9785 50.8396C37.9785 53.8695 35.5122 56.3358 32.4823 56.3358C29.4524 56.3358 26.9861 53.8695 26.9861 50.8396ZM21.6993 67.4212C22.525 63.1953 26.2553 59.9999 30.6503 59.9999H34.3144C38.7264 59.9999 42.4692 63.2186 43.2752 67.4695C40.2507 69.6746 36.5401 70.9923 32.519 70.9923C28.4684 70.9923 24.7345 69.6549 21.6993 67.4212ZM58.3405 107.727C59.1662 103.501 62.8965 100.305 67.2915 100.305H70.9556C75.3676 100.305 79.1104 103.524 79.9164 107.775C76.8919 109.98 73.1813 111.298 69.1602 111.298C65.1097 111.298 61.3758 109.96 58.3405 107.727ZM69.1236 96.6411C66.0937 96.6411 63.6274 94.1748 63.6274 91.145C63.6274 88.1151 66.0937 85.6488 69.1236 85.6488C72.1534 85.6488 74.6197 88.1151 74.6197 91.145C74.6197 94.1748 72.1534 96.6411 69.1236 96.6411ZM87.4808 92.977C87.4808 97.5715 85.7678 101.767 82.9633 104.987C81.6841 101.593 79.0022 98.882 75.6583 97.5464C77.2784 95.8933 78.2839 93.6363 78.2839 91.145C78.2839 86.0943 74.1742 81.9847 69.1236 81.9847C64.0729 81.9847 59.9632 86.0943 59.9632 91.145C59.9632 93.6363 60.9687 95.8933 62.5906 97.5464C59.2655 98.8722 56.5925 101.56 55.3044 104.927C52.5303 101.716 50.8396 97.5447 50.8396 92.977C50.8396 82.8747 59.0579 74.6564 69.1602 74.6564C79.2625 74.6564 87.4808 82.8747 87.4808 92.977ZM74.8747 71.7723C73.0498 71.2803 71.139 70.9923 69.1602 70.9923C64.1328 70.9923 59.5088 72.7072 55.8008 75.5581L48.5898 67.6252C52.2468 63.6971 54.5037 58.4496 54.5037 52.6717C54.5037 50.2716 54.1048 47.9672 53.39 45.8032L73.5391 37.2638C75.7961 41.5308 79.4182 44.9552 83.8185 46.9832L74.8747 71.7723Z" fill="#0D365B"/>
</svg>
