<svg width="39" height="39" viewBox="0 0 39 39" fill="none" xmlns="http://www.w3.org/2000/svg">
<path d="M19.5 17.55C20.1428 17.55 20.7711 17.3594 21.3056 17.0023C21.8401 16.6452 22.2566 16.1376 22.5026 15.5437C22.7486 14.9499 22.813 14.2964 22.6876 13.666C22.5622 13.0355 22.2526 12.4564 21.7981 12.0019C21.3436 11.5474 20.7645 11.2379 20.134 11.1125C19.5036 10.9871 18.8501 11.0514 18.2563 11.2974C17.6624 11.5434 17.1548 11.96 16.7977 12.4944C16.4406 13.0289 16.25 13.6572 16.25 14.3C16.25 15.162 16.5924 15.9886 17.2019 16.5981C17.8114 17.2076 18.638 17.55 19.5 17.55ZM18.3462 28.7788C18.4973 28.9311 18.677 29.052 18.8751 29.1345C19.0731 29.217 19.2855 29.2594 19.5 29.2594C19.7145 29.2594 19.9269 29.217 20.1249 29.1345C20.323 29.052 20.5027 28.9311 20.6538 28.7788L27.3 22.1163C28.8437 20.5734 29.8951 18.6074 30.3213 16.4669C30.7475 14.3264 30.5294 12.1076 29.6944 10.0911C28.8595 8.0746 27.4452 6.35102 25.6306 5.13837C23.816 3.92571 21.6825 3.27844 19.5 3.27844C17.3175 3.27844 15.184 3.92571 13.3694 5.13837C11.5548 6.35102 10.1405 8.0746 9.30559 10.0911C8.47064 12.1076 8.25248 14.3264 8.67868 16.4669C9.10489 18.6074 10.1563 20.5734 11.7 22.1163L18.3462 28.7788ZM11.7488 13.5525C11.8598 12.3939 12.2282 11.2747 12.827 10.2767C13.4258 9.27867 14.24 8.42696 15.21 7.78377C16.4843 6.94705 17.9755 6.50125 19.5 6.50125C21.0245 6.50125 22.5157 6.94705 23.79 7.78377C24.7536 8.42475 25.5631 9.2713 26.1604 10.2625C26.7578 11.2537 27.128 12.365 27.2445 13.5164C27.3611 14.6678 27.221 15.8308 26.8344 16.9216C26.4478 18.0124 25.8243 19.004 25.0088 19.825L19.5 25.3338L13.9912 19.825C13.1747 19.0119 12.5498 18.027 12.1618 16.9419C11.7739 15.8569 11.6328 14.699 11.7488 13.5525ZM30.875 32.5H8.125C7.69402 32.5 7.2807 32.6712 6.97595 32.976C6.67121 33.2807 6.5 33.694 6.5 34.125C6.5 34.556 6.67121 34.9693 6.97595 35.2741C7.2807 35.5788 7.69402 35.75 8.125 35.75H30.875C31.306 35.75 31.7193 35.5788 32.024 35.2741C32.3288 34.9693 32.5 34.556 32.5 34.125C32.5 33.694 32.3288 33.2807 32.024 32.976C31.7193 32.6712 31.306 32.5 30.875 32.5Z" fill="black"/>
</svg>
