<svg width="152" height="93" viewBox="0 0 152 93" fill="none" xmlns="http://www.w3.org/2000/svg">
<path d="M76.956 28.6896C72.822 34.1952 68.688 39.7009 63.4087 46.5785C73.9673 60.2312 79.6086 68.148 90.1673 81.8007C93.6045 86.2451 90.8935 90.134 86.8085 90.134L71.8057 90.134C66.5436 90.134 64.2485 89.5785 61.8412 86.2451L26.3348 38.5395L43.4498 32.271L59.714 10.0229C65.3292 2.47846 66.2782 2.13403 75.9483 2.13403L85.5769 2.13403C90.5032 2.13403 93.6381 5.41204 90.5032 10.8007L76.956 28.6896Z" fill="url(#paint0_linear_46_3480)"/>
<g filter="url(#filter0_f_46_3480)">
<path d="M75.4316 29.4826C75.4315 29.4828 75.4314 29.483 75.4312 29.4832C71.7595 34.7617 68.0878 40.0401 63.478 46.616C72.6979 59.6702 77.872 67.1828 87.0919 80.237C90.0933 84.4867 87.7261 88.2051 84.159 88.2051L71.0584 88.2051C66.4634 88.2051 64.4593 88.1375 62.3573 84.9503L49.2762 69.1584C49.2762 69.1584 36.8951 53.2462 37.2593 53.1256C37.6234 53.005 43.5712 32.2708 43.5712 32.2708L46.363 28.4132L58.9868 11.2954C64.5346 4.4242 66.2317 4.06261 74.6757 4.06261L83.0836 4.06261C89.5754 4.06261 91.8424 5.99133 87.3852 12.3494L75.4316 29.4826Z" fill="url(#paint1_radial_46_3480)"/>
</g>
<path d="M30.5209 6.02292C28.1137 2.68959 25.8186 2.13403 20.5564 2.13403H5.55366C1.46864 2.13403 -1.24231 6.02292 2.19489 10.4674C12.7535 24.1201 18.3949 32.0368 28.9535 45.6896L48.9124 59.997L66.0274 53.7285L30.5209 6.02292Z" fill="url(#paint2_linear_46_3480)"/>
<g filter="url(#filter1_f_46_3480)">
<path d="M27.1846 5.99145C25.3638 3.45995 22.9362 4.06271 19.4161 4.06271H8.32434C4.75725 4.06271 2.39002 7.78113 5.39142 12.0307C14.6113 25.085 21.3634 33.2002 30.5833 46.2545L46.8487 61.6846L67.6052 56.0189L27.1846 5.99145Z" fill="url(#paint3_radial_46_3480)"/>
</g>
<path d="M15.4057 63.5783C19.5396 58.0727 23.6736 52.567 28.9529 45.6895L48.9118 59.9969L32.6476 82.245C27.0324 89.7895 26.0834 90.1339 16.4133 90.1339H6.78464C1.85839 90.1339 -1.27653 86.8559 1.85839 81.4672L15.4057 63.5783Z" fill="url(#paint4_linear_46_3480)"/>
<g filter="url(#filter2_f_46_3480)">
<path d="M5.09769 79.9183C9.70765 73.3422 14.0167 67.702 18.3258 62.0617L31.554 44.2051L48.9117 59.9969L45.3916 64.0955L31.554 80.8517C25.4848 87.6023 26.2513 88.2051 17.8072 88.2051H9.39935C5.09769 88.2051 2.36024 85.0708 5.09769 79.9183Z" fill="url(#paint5_radial_46_3480)"/>
</g>
<path d="M103.215 47.4583H95.949L95.9099 43.6692H102.14C103.208 43.6692 104.1 43.5194 104.816 43.22C105.532 42.9205 106.073 42.4843 106.437 41.9114C106.815 41.3385 107.004 40.6418 107.004 39.8215C107.004 38.9101 106.828 38.1679 106.476 37.595C106.138 37.0221 105.604 36.6054 104.875 36.345C104.146 36.0715 103.221 35.9348 102.101 35.9348H97.6873V60.134H92.3162V31.6965H102.101C103.716 31.6965 105.155 31.8528 106.418 32.1653C107.694 32.4648 108.774 32.9335 109.66 33.5715C110.545 34.2096 111.216 35.0103 111.672 35.9739C112.14 36.9374 112.375 38.0833 112.375 39.4114C112.375 40.5833 112.101 41.664 111.554 42.6536C111.021 43.6301 110.194 44.4244 109.074 45.0364C107.967 45.6484 106.561 45.9999 104.855 46.0911L103.215 47.4583ZM102.98 60.134H94.3669L96.613 55.9153H102.98C104.048 55.9153 104.927 55.7395 105.617 55.3879C106.32 55.0364 106.841 54.5546 107.179 53.9426C107.531 53.3176 107.707 52.6015 107.707 51.7942C107.707 50.9088 107.551 50.1405 107.238 49.4895C106.939 48.8385 106.457 48.3372 105.793 47.9856C105.142 47.634 104.282 47.4583 103.215 47.4583H97.6287L97.6677 43.6692H104.777L106.008 45.134C107.648 45.1471 108.983 45.4726 110.011 46.1106C111.053 46.7486 111.821 47.5689 112.316 48.5715C112.811 49.5741 113.058 50.6549 113.058 51.8137C113.058 53.6366 112.661 55.1666 111.867 56.4036C111.086 57.6405 109.94 58.5715 108.429 59.1965C106.932 59.8215 105.116 60.134 102.98 60.134ZM123.429 31.6965V60.134H118.058V31.6965H123.429ZM149.465 55.9153V60.134H129.504V55.9153H149.465ZM149.094 34.8411L131.711 60.134H128.019V56.9114L145.48 31.6965H149.094V34.8411ZM147.179 31.6965V35.9348H128.078V31.6965H147.179Z" fill="url(#paint6_linear_46_3480)"/>
<defs>
<filter id="filter0_f_46_3480" x="33.2515" y="0.0625" width="60.4502" height="92.1426" filterUnits="userSpaceOnUse" color-interpolation-filters="sRGB">
<feFlood flood-opacity="0" result="BackgroundImageFix"/>
<feBlend mode="normal" in="SourceGraphic" in2="BackgroundImageFix" result="shape"/>
<feGaussianBlur stdDeviation="2" result="effect1_foregroundBlur_46_3480"/>
</filter>
<filter id="filter1_f_46_3480" x="0.0227051" y="0" width="71.5825" height="65.6846" filterUnits="userSpaceOnUse" color-interpolation-filters="sRGB">
<feFlood flood-opacity="0" result="BackgroundImageFix"/>
<feBlend mode="normal" in="SourceGraphic" in2="BackgroundImageFix" result="shape"/>
<feGaussianBlur stdDeviation="2" result="effect1_foregroundBlur_46_3480"/>
</filter>
<filter id="filter2_f_46_3480" x="0" y="40.2051" width="52.9119" height="52" filterUnits="userSpaceOnUse" color-interpolation-filters="sRGB">
<feFlood flood-opacity="0" result="BackgroundImageFix"/>
<feBlend mode="normal" in="SourceGraphic" in2="BackgroundImageFix" result="shape"/>
<feGaussianBlur stdDeviation="2" result="effect1_foregroundBlur_46_3480"/>
</filter>
<linearGradient id="paint0_linear_46_3480" x1="-10.0802" y1="26.7258" x2="91.7106" y2="46.2721" gradientUnits="userSpaceOnUse">
<stop offset="0.266971" stop-color="#0B1A8F"/>
<stop offset="0.653846" stop-color="#88D1FF"/>
<stop offset="0.81833" stop-color="#CB5BFF"/>
</linearGradient>
<radialGradient id="paint1_radial_46_3480" cx="0" cy="0" r="1" gradientTransform="matrix(34.7156 -41.2274 41.513 34.4767 47.6982 47.701)" gradientUnits="userSpaceOnUse">
<stop stop-color="#0C157D"/>
<stop offset="0.227655" stop-color="#0B1E97"/>
<stop offset="0.337477" stop-color="#0B1E97"/>
<stop offset="0.647798" stop-color="#3221CC"/>
<stop offset="1" stop-color="#4B28FF"/>
</radialGradient>
<linearGradient id="paint2_linear_46_3480" x1="94.7952" y1="57.2244" x2="0.61966" y2="46.1041" gradientUnits="userSpaceOnUse">
<stop offset="0.266971" stop-color="#0B1A8F"/>
<stop offset="0.440178" stop-color="#2A42FF"/>
<stop offset="0.711315" stop-color="#02D3EE"/>
<stop offset="1" stop-color="#00F3FF"/>
</linearGradient>
<radialGradient id="paint3_radial_46_3480" cx="0" cy="0" r="1" gradientTransform="matrix(-38.7212 -48.2192 34.3628 -27.2158 56.0738 57.8271)" gradientUnits="userSpaceOnUse">
<stop stop-color="#0B1F97"/>
<stop offset="0.474898" stop-color="#0B1F97"/>
<stop offset="0.629828" stop-color="#0937AB"/>
<stop offset="0.985449" stop-color="#065DCB"/>
</radialGradient>
<linearGradient id="paint4_linear_46_3480" x1="94.7946" y1="57.2243" x2="0.619082" y2="46.104" gradientUnits="userSpaceOnUse">
<stop offset="0.266971" stop-color="#0B1A8F"/>
<stop offset="0.518269" stop-color="#0A309A"/>
<stop offset="0.711315" stop-color="#02D3EE"/>
<stop offset="1" stop-color="#00F3FF"/>
</linearGradient>
<radialGradient id="paint5_radial_46_3480" cx="0" cy="0" r="1" gradientTransform="matrix(-36.2936 41.9507 -29.8957 -25.5095 40.2936 52.764)" gradientUnits="userSpaceOnUse">
<stop stop-color="#0B1F97"/>
<stop offset="0.252934" stop-color="#0B1F97"/>
<stop offset="1" stop-color="#0286ED"/>
</radialGradient>
<linearGradient id="paint6_linear_46_3480" x1="89.6013" y1="46.634" x2="151.601" y2="46.634" gradientUnits="userSpaceOnUse">
<stop stop-color="#02ABFF"/>
<stop offset="1" stop-color="#BB45FF"/>
</linearGradient>
</defs>
</svg>
