<svg width="165" height="93" viewBox="0 0 165 93" fill="none" xmlns="http://www.w3.org/2000/svg">
<path d="M76.956 28.6896C72.822 34.1952 68.688 39.7009 63.4087 46.5785C73.9673 60.2312 79.6086 68.148 90.1673 81.8007C93.6045 86.2451 90.8935 90.134 86.8085 90.134L71.8057 90.134C66.5436 90.134 64.2485 89.5785 61.8412 86.2451L26.3348 38.5395L43.4498 32.271L59.714 10.0229C65.3292 2.47846 66.2782 2.13403 75.9483 2.13403L85.5769 2.13403C90.5032 2.13403 93.6381 5.41204 90.5032 10.8007L76.956 28.6896Z" fill="url(#paint0_linear_46_3463)"/>
<g filter="url(#filter0_f_46_3463)">
<path d="M75.4316 29.4826C75.4315 29.4828 75.4314 29.483 75.4312 29.4832C71.7595 34.7617 68.0878 40.0401 63.478 46.616C72.6979 59.6702 77.872 67.1828 87.0919 80.237C90.0933 84.4867 87.7261 88.2051 84.159 88.2051L71.0584 88.2051C66.4634 88.2051 64.4593 88.1375 62.3573 84.9503L49.2762 69.1584C49.2762 69.1584 36.8951 53.2462 37.2593 53.1256C37.6234 53.005 43.5712 32.2708 43.5712 32.2708L46.363 28.4132L58.9868 11.2954C64.5346 4.4242 66.2317 4.06261 74.6757 4.06261L83.0836 4.06261C89.5754 4.06261 91.8424 5.99133 87.3852 12.3494L75.4316 29.4826Z" fill="url(#paint1_radial_46_3463)"/>
</g>
<path d="M30.5209 6.02292C28.1137 2.68959 25.8186 2.13403 20.5564 2.13403H5.55366C1.46864 2.13403 -1.24231 6.02292 2.19489 10.4674C12.7535 24.1201 18.3949 32.0368 28.9535 45.6896L48.9124 59.997L66.0274 53.7285L30.5209 6.02292Z" fill="url(#paint2_linear_46_3463)"/>
<g filter="url(#filter1_f_46_3463)">
<path d="M27.1846 5.99145C25.3638 3.45995 22.9362 4.06271 19.4161 4.06271H8.32434C4.75725 4.06271 2.39002 7.78113 5.39142 12.0307C14.6113 25.085 21.3634 33.2002 30.5833 46.2545L46.8487 61.6846L67.6052 56.0189L27.1846 5.99145Z" fill="url(#paint3_radial_46_3463)"/>
</g>
<path d="M15.4057 63.5783C19.5396 58.0727 23.6736 52.567 28.9529 45.6895L48.9118 59.9969L32.6476 82.245C27.0324 89.7895 26.0834 90.1339 16.4133 90.1339H6.78464C1.85839 90.1339 -1.27653 86.8559 1.85839 81.4672L15.4057 63.5783Z" fill="url(#paint4_linear_46_3463)"/>
<g filter="url(#filter2_f_46_3463)">
<path d="M5.09769 79.9183C9.70765 73.3422 14.0167 67.702 18.3258 62.0617L31.554 44.2051L48.9117 59.9969L45.3916 64.0955L31.554 80.8517C25.4848 87.6023 26.2513 88.2051 17.8072 88.2051H9.39935C5.09769 88.2051 2.36024 85.0708 5.09769 79.9183Z" fill="url(#paint5_radial_46_3463)"/>
</g>
<path d="M115.344 45.1926V46.6575C115.344 48.8059 115.057 50.7395 114.484 52.4583C113.911 54.164 113.097 55.6158 112.043 56.8137C110.988 58.0116 109.732 58.9296 108.273 59.5676C106.815 60.2056 105.194 60.5247 103.41 60.5247C101.652 60.5247 100.038 60.2056 98.5662 59.5676C97.1078 58.9296 95.8448 58.0116 94.7771 56.8137C93.7094 55.6158 92.8826 54.164 92.2966 52.4583C91.7107 50.7395 91.4177 48.8059 91.4177 46.6575V45.1926C91.4177 43.0312 91.7107 41.0976 92.2966 39.3918C92.8826 37.6861 93.7029 36.2343 94.7576 35.0364C95.8123 33.8254 97.0688 32.901 98.5271 32.2629C99.9985 31.6249 101.613 31.3059 103.371 31.3059C105.155 31.3059 106.776 31.6249 108.234 32.2629C109.692 32.901 110.949 33.8254 112.004 35.0364C113.071 36.2343 113.892 37.6861 114.465 39.3918C115.051 41.0976 115.344 43.0312 115.344 45.1926ZM109.914 46.6575V45.1536C109.914 43.6041 109.771 42.2434 109.484 41.0715C109.198 39.8866 108.774 38.8905 108.215 38.0833C107.655 37.276 106.965 36.6705 106.144 36.2668C105.324 35.8502 104.399 35.6418 103.371 35.6418C102.329 35.6418 101.405 35.8502 100.597 36.2668C99.8031 36.6705 99.1261 37.276 98.5662 38.0833C98.0063 38.8905 97.5766 39.8866 97.2771 41.0715C96.9906 42.2434 96.8474 43.6041 96.8474 45.1536V46.6575C96.8474 48.1939 96.9906 49.5546 97.2771 50.7395C97.5766 51.9244 98.0063 52.927 98.5662 53.7473C99.1391 54.5546 99.8292 55.1666 100.636 55.5833C101.444 55.9999 102.368 56.2083 103.41 56.2083C104.452 56.2083 105.376 55.9999 106.183 55.5833C106.991 55.1666 107.668 54.5546 108.215 53.7473C108.774 52.927 109.198 51.9244 109.484 50.7395C109.771 49.5546 109.914 48.1939 109.914 46.6575ZM122.238 31.6965H126.886L134.66 53.1028L142.414 31.6965H147.082L136.515 60.134H132.785L122.238 31.6965ZM119.894 31.6965H124.445L125.265 51.3645V60.134H119.894V31.6965ZM144.855 31.6965H149.426V60.134H144.054V51.3645L144.855 31.6965ZM160.617 31.6965V60.134H155.246V31.6965H160.617Z" fill="url(#paint6_linear_46_3463)"/>
<defs>
<filter id="filter0_f_46_3463" x="33.2515" y="0.0625" width="60.4502" height="92.1426" filterUnits="userSpaceOnUse" color-interpolation-filters="sRGB">
<feFlood flood-opacity="0" result="BackgroundImageFix"/>
<feBlend mode="normal" in="SourceGraphic" in2="BackgroundImageFix" result="shape"/>
<feGaussianBlur stdDeviation="2" result="effect1_foregroundBlur_46_3463"/>
</filter>
<filter id="filter1_f_46_3463" x="0.0227051" y="0" width="71.5825" height="65.6846" filterUnits="userSpaceOnUse" color-interpolation-filters="sRGB">
<feFlood flood-opacity="0" result="BackgroundImageFix"/>
<feBlend mode="normal" in="SourceGraphic" in2="BackgroundImageFix" result="shape"/>
<feGaussianBlur stdDeviation="2" result="effect1_foregroundBlur_46_3463"/>
</filter>
<filter id="filter2_f_46_3463" x="0" y="40.2051" width="52.9119" height="52" filterUnits="userSpaceOnUse" color-interpolation-filters="sRGB">
<feFlood flood-opacity="0" result="BackgroundImageFix"/>
<feBlend mode="normal" in="SourceGraphic" in2="BackgroundImageFix" result="shape"/>
<feGaussianBlur stdDeviation="2" result="effect1_foregroundBlur_46_3463"/>
</filter>
<linearGradient id="paint0_linear_46_3463" x1="-10.0802" y1="26.7258" x2="91.7106" y2="46.2721" gradientUnits="userSpaceOnUse">
<stop offset="0.266971" stop-color="#0B1A8F"/>
<stop offset="0.653846" stop-color="#88D1FF"/>
<stop offset="0.81833" stop-color="#CB5BFF"/>
</linearGradient>
<radialGradient id="paint1_radial_46_3463" cx="0" cy="0" r="1" gradientTransform="matrix(34.7156 -41.2274 41.513 34.4767 47.6982 47.701)" gradientUnits="userSpaceOnUse">
<stop stop-color="#0C157D"/>
<stop offset="0.227655" stop-color="#0B1E97"/>
<stop offset="0.337477" stop-color="#0B1E97"/>
<stop offset="0.647798" stop-color="#3221CC"/>
<stop offset="1" stop-color="#4B28FF"/>
</radialGradient>
<linearGradient id="paint2_linear_46_3463" x1="94.7952" y1="57.2244" x2="0.61966" y2="46.1041" gradientUnits="userSpaceOnUse">
<stop offset="0.266971" stop-color="#0B1A8F"/>
<stop offset="0.440178" stop-color="#2A42FF"/>
<stop offset="0.711315" stop-color="#02D3EE"/>
<stop offset="1" stop-color="#00F3FF"/>
</linearGradient>
<radialGradient id="paint3_radial_46_3463" cx="0" cy="0" r="1" gradientTransform="matrix(-38.7212 -48.2192 34.3628 -27.2158 56.0738 57.8271)" gradientUnits="userSpaceOnUse">
<stop stop-color="#0B1F97"/>
<stop offset="0.474898" stop-color="#0B1F97"/>
<stop offset="0.629828" stop-color="#0937AB"/>
<stop offset="0.985449" stop-color="#065DCB"/>
</radialGradient>
<linearGradient id="paint4_linear_46_3463" x1="94.7946" y1="57.2243" x2="0.619082" y2="46.104" gradientUnits="userSpaceOnUse">
<stop offset="0.266971" stop-color="#0B1A8F"/>
<stop offset="0.518269" stop-color="#0A309A"/>
<stop offset="0.711315" stop-color="#02D3EE"/>
<stop offset="1" stop-color="#00F3FF"/>
</linearGradient>
<radialGradient id="paint5_radial_46_3463" cx="0" cy="0" r="1" gradientTransform="matrix(-36.2936 41.9507 -29.8957 -25.5095 40.2936 52.764)" gradientUnits="userSpaceOnUse">
<stop stop-color="#0B1F97"/>
<stop offset="0.252934" stop-color="#0B1F97"/>
<stop offset="1" stop-color="#0286ED"/>
</radialGradient>
<linearGradient id="paint6_linear_46_3463" x1="89.6013" y1="46.634" x2="164.601" y2="46.634" gradientUnits="userSpaceOnUse">
<stop stop-color="#02ABFF"/>
<stop offset="1" stop-color="#BB45FF"/>
</linearGradient>
</defs>
</svg>
