<svg width="232" height="93" viewBox="0 0 232 93" fill="none" xmlns="http://www.w3.org/2000/svg">
<path d="M76.956 28.6896C72.822 34.1952 68.688 39.7009 63.4087 46.5785C73.9673 60.2312 79.6086 68.148 90.1673 81.8007C93.6045 86.2451 90.8935 90.134 86.8085 90.134L71.8057 90.134C66.5436 90.134 64.2485 89.5785 61.8412 86.2451L26.3348 38.5395L43.4498 32.271L59.714 10.0229C65.3292 2.47846 66.2782 2.13403 75.9483 2.13403L85.5769 2.13403C90.5032 2.13403 93.6381 5.41204 90.5032 10.8007L76.956 28.6896Z" fill="url(#paint0_linear_46_3446)"/>
<g filter="url(#filter0_f_46_3446)">
<path d="M75.4316 29.4826C75.4315 29.4828 75.4314 29.483 75.4312 29.4832C71.7595 34.7617 68.0878 40.0401 63.478 46.616C72.6979 59.6702 77.872 67.1828 87.0919 80.237C90.0933 84.4867 87.7261 88.2051 84.159 88.2051L71.0584 88.2051C66.4634 88.2051 64.4593 88.1375 62.3573 84.9503L49.2762 69.1584C49.2762 69.1584 36.8951 53.2462 37.2593 53.1256C37.6234 53.005 43.5712 32.2708 43.5712 32.2708L46.363 28.4132L58.9868 11.2954C64.5346 4.4242 66.2317 4.06261 74.6757 4.06261L83.0836 4.06261C89.5754 4.06261 91.8424 5.99133 87.3852 12.3494L75.4316 29.4826Z" fill="url(#paint1_radial_46_3446)"/>
</g>
<path d="M30.5209 6.02292C28.1137 2.68959 25.8186 2.13403 20.5564 2.13403H5.55366C1.46864 2.13403 -1.24231 6.02292 2.19489 10.4674C12.7535 24.1201 18.3949 32.0368 28.9535 45.6896L48.9124 59.997L66.0274 53.7285L30.5209 6.02292Z" fill="url(#paint2_linear_46_3446)"/>
<g filter="url(#filter1_f_46_3446)">
<path d="M27.1846 5.99145C25.3638 3.45995 22.9362 4.06271 19.4161 4.06271H8.32434C4.75725 4.06271 2.39002 7.78113 5.39142 12.0307C14.6113 25.085 21.3634 33.2002 30.5833 46.2545L46.8487 61.6846L67.6052 56.0189L27.1846 5.99145Z" fill="url(#paint3_radial_46_3446)"/>
</g>
<path d="M15.4057 63.5783C19.5396 58.0727 23.6736 52.567 28.9529 45.6895L48.9118 59.9969L32.6476 82.245C27.0324 89.7895 26.0834 90.1339 16.4133 90.1339H6.78464C1.85839 90.1339 -1.27653 86.8559 1.85839 81.4672L15.4057 63.5783Z" fill="url(#paint4_linear_46_3446)"/>
<g filter="url(#filter2_f_46_3446)">
<path d="M5.09769 79.9183C9.70765 73.3422 14.0167 67.702 18.3258 62.0617L31.554 44.2051L48.9117 59.9969L45.3916 64.0955L31.554 80.8517C25.4848 87.6023 26.2513 88.2051 17.8072 88.2051H9.39935C5.09769 88.2051 2.36024 85.0708 5.09769 79.9183Z" fill="url(#paint5_radial_46_3446)"/>
</g>
<path d="M103.254 49.7629H95.9294V45.5442H103.254C104.452 45.5442 105.422 45.3489 106.164 44.9583C106.919 44.5546 107.472 44.0077 107.824 43.3176C108.176 42.6145 108.351 41.8137 108.351 40.9153C108.351 40.0429 108.176 39.2291 107.824 38.4739C107.472 37.7187 106.919 37.1067 106.164 36.6379C105.422 36.1692 104.452 35.9348 103.254 35.9348H97.6873V60.134H92.3162V31.6965H103.254C105.467 31.6965 107.355 32.0937 108.918 32.8879C110.493 33.6692 111.691 34.7564 112.511 36.1497C113.345 37.5299 113.761 39.1054 113.761 40.8762C113.761 42.7122 113.345 44.2942 112.511 45.6223C111.691 46.9504 110.493 47.9726 108.918 48.6887C107.355 49.4049 105.467 49.7629 103.254 49.7629ZM117.98 31.6965H128.312C130.474 31.6965 132.329 32.0221 133.879 32.6731C135.428 33.3241 136.62 34.2877 137.453 35.5637C138.286 36.8398 138.703 38.4088 138.703 40.2708C138.703 41.7421 138.442 43.0181 137.922 44.0989C137.401 45.1796 136.665 46.0846 135.715 46.8137C134.777 47.5429 133.67 48.1158 132.394 48.5325L130.715 49.3918H121.594L121.554 45.1536H128.371C129.478 45.1536 130.396 44.9583 131.125 44.5676C131.854 44.177 132.401 43.6366 132.765 42.9465C133.143 42.2564 133.332 41.4687 133.332 40.5833C133.332 39.6327 133.149 38.8124 132.785 38.1223C132.42 37.4192 131.867 36.8788 131.125 36.5012C130.383 36.1236 129.445 35.9348 128.312 35.9348H123.351V60.134H117.98V31.6965ZM134.035 60.134L127.453 47.3997L133.136 47.3801L139.797 59.8606V60.134H134.035ZM166.437 45.1926V46.6575C166.437 48.8059 166.151 50.7395 165.578 52.4583C165.005 54.164 164.191 55.6158 163.136 56.8137C162.082 58.0116 160.825 58.9296 159.367 59.5676C157.909 60.2056 156.288 60.5247 154.504 60.5247C152.746 60.5247 151.131 60.2056 149.66 59.5676C148.202 58.9296 146.939 58.0116 145.871 56.8137C144.803 55.6158 143.976 54.164 143.39 52.4583C142.804 50.7395 142.511 48.8059 142.511 46.6575V45.1926C142.511 43.0312 142.804 41.0976 143.39 39.3918C143.976 37.6861 144.797 36.2343 145.851 35.0364C146.906 33.8254 148.163 32.901 149.621 32.2629C151.092 31.6249 152.707 31.3059 154.465 31.3059C156.248 31.3059 157.87 31.6249 159.328 32.2629C160.786 32.901 162.043 33.8254 163.097 35.0364C164.165 36.2343 164.985 37.6861 165.558 39.3918C166.144 41.0976 166.437 43.0312 166.437 45.1926ZM161.008 46.6575V45.1536C161.008 43.6041 160.864 42.2434 160.578 41.0715C160.291 39.8866 159.868 38.8905 159.308 38.0833C158.748 37.276 158.058 36.6705 157.238 36.2668C156.418 35.8502 155.493 35.6418 154.465 35.6418C153.423 35.6418 152.498 35.8502 151.691 36.2668C150.897 36.6705 150.22 37.276 149.66 38.0833C149.1 38.8905 148.67 39.8866 148.371 41.0715C148.084 42.2434 147.941 43.6041 147.941 45.1536V46.6575C147.941 48.1939 148.084 49.5546 148.371 50.7395C148.67 51.9244 149.1 52.927 149.66 53.7473C150.233 54.5546 150.923 55.1666 151.73 55.5833C152.538 55.9999 153.462 56.2083 154.504 56.2083C155.545 56.2083 156.47 55.9999 157.277 55.5833C158.084 55.1666 158.761 54.5546 159.308 53.7473C159.868 52.927 160.291 51.9244 160.578 50.7395C160.864 49.5546 161.008 48.1939 161.008 46.6575ZM173.332 31.6965H177.98L185.754 53.1028L193.508 31.6965H198.176L187.609 60.134H183.879L173.332 31.6965ZM170.988 31.6965H175.539L176.359 51.3645V60.134H170.988V31.6965ZM195.949 31.6965H200.519V60.134H195.148V51.3645L195.949 31.6965ZM229.015 45.1926V46.6575C229.015 48.8059 228.729 50.7395 228.156 52.4583C227.583 54.164 226.769 55.6158 225.715 56.8137C224.66 58.0116 223.403 58.9296 221.945 59.5676C220.487 60.2056 218.866 60.5247 217.082 60.5247C215.324 60.5247 213.709 60.2056 212.238 59.5676C210.78 58.9296 209.517 58.0116 208.449 56.8137C207.381 55.6158 206.554 54.164 205.969 52.4583C205.383 50.7395 205.09 48.8059 205.09 46.6575V45.1926C205.09 43.0312 205.383 41.0976 205.969 39.3918C206.554 37.6861 207.375 36.2343 208.429 35.0364C209.484 33.8254 210.741 32.901 212.199 32.2629C213.67 31.6249 215.285 31.3059 217.043 31.3059C218.827 31.3059 220.448 31.6249 221.906 32.2629C223.364 32.901 224.621 33.8254 225.676 35.0364C226.743 36.2343 227.564 37.6861 228.136 39.3918C228.722 41.0976 229.015 43.0312 229.015 45.1926ZM223.586 46.6575V45.1536C223.586 43.6041 223.442 42.2434 223.156 41.0715C222.87 39.8866 222.446 38.8905 221.886 38.0833C221.327 37.276 220.636 36.6705 219.816 36.2668C218.996 35.8502 218.071 35.6418 217.043 35.6418C216.001 35.6418 215.077 35.8502 214.269 36.2668C213.475 36.6705 212.798 37.276 212.238 38.0833C211.678 38.8905 211.248 39.8866 210.949 41.0715C210.663 42.2434 210.519 43.6041 210.519 45.1536V46.6575C210.519 48.1939 210.663 49.5546 210.949 50.7395C211.248 51.9244 211.678 52.927 212.238 53.7473C212.811 54.5546 213.501 55.1666 214.308 55.5833C215.116 55.9999 216.04 56.2083 217.082 56.2083C218.123 56.2083 219.048 55.9999 219.855 55.5833C220.663 55.1666 221.34 54.5546 221.886 53.7473C222.446 52.927 222.87 51.9244 223.156 50.7395C223.442 49.5546 223.586 48.1939 223.586 46.6575Z" fill="url(#paint6_linear_46_3446)"/>
<defs>
<filter id="filter0_f_46_3446" x="33.2515" y="0.0625" width="60.4502" height="92.1426" filterUnits="userSpaceOnUse" color-interpolation-filters="sRGB">
<feFlood flood-opacity="0" result="BackgroundImageFix"/>
<feBlend mode="normal" in="SourceGraphic" in2="BackgroundImageFix" result="shape"/>
<feGaussianBlur stdDeviation="2" result="effect1_foregroundBlur_46_3446"/>
</filter>
<filter id="filter1_f_46_3446" x="0.0227051" y="0" width="71.5825" height="65.6846" filterUnits="userSpaceOnUse" color-interpolation-filters="sRGB">
<feFlood flood-opacity="0" result="BackgroundImageFix"/>
<feBlend mode="normal" in="SourceGraphic" in2="BackgroundImageFix" result="shape"/>
<feGaussianBlur stdDeviation="2" result="effect1_foregroundBlur_46_3446"/>
</filter>
<filter id="filter2_f_46_3446" x="0" y="40.2051" width="52.9119" height="52" filterUnits="userSpaceOnUse" color-interpolation-filters="sRGB">
<feFlood flood-opacity="0" result="BackgroundImageFix"/>
<feBlend mode="normal" in="SourceGraphic" in2="BackgroundImageFix" result="shape"/>
<feGaussianBlur stdDeviation="2" result="effect1_foregroundBlur_46_3446"/>
</filter>
<linearGradient id="paint0_linear_46_3446" x1="-10.0802" y1="26.7258" x2="91.7106" y2="46.2721" gradientUnits="userSpaceOnUse">
<stop offset="0.266971" stop-color="#0B1A8F"/>
<stop offset="0.653846" stop-color="#88D1FF"/>
<stop offset="0.81833" stop-color="#CB5BFF"/>
</linearGradient>
<radialGradient id="paint1_radial_46_3446" cx="0" cy="0" r="1" gradientTransform="matrix(34.7156 -41.2274 41.513 34.4767 47.6982 47.701)" gradientUnits="userSpaceOnUse">
<stop stop-color="#0C157D"/>
<stop offset="0.227655" stop-color="#0B1E97"/>
<stop offset="0.337477" stop-color="#0B1E97"/>
<stop offset="0.647798" stop-color="#3221CC"/>
<stop offset="1" stop-color="#4B28FF"/>
</radialGradient>
<linearGradient id="paint2_linear_46_3446" x1="94.7952" y1="57.2244" x2="0.61966" y2="46.1041" gradientUnits="userSpaceOnUse">
<stop offset="0.266971" stop-color="#0B1A8F"/>
<stop offset="0.440178" stop-color="#2A42FF"/>
<stop offset="0.711315" stop-color="#02D3EE"/>
<stop offset="1" stop-color="#00F3FF"/>
</linearGradient>
<radialGradient id="paint3_radial_46_3446" cx="0" cy="0" r="1" gradientTransform="matrix(-38.7212 -48.2192 34.3628 -27.2158 56.0738 57.8271)" gradientUnits="userSpaceOnUse">
<stop stop-color="#0B1F97"/>
<stop offset="0.474898" stop-color="#0B1F97"/>
<stop offset="0.629828" stop-color="#0937AB"/>
<stop offset="0.985449" stop-color="#065DCB"/>
</radialGradient>
<linearGradient id="paint4_linear_46_3446" x1="94.7946" y1="57.2243" x2="0.619082" y2="46.104" gradientUnits="userSpaceOnUse">
<stop offset="0.266971" stop-color="#0B1A8F"/>
<stop offset="0.518269" stop-color="#0A309A"/>
<stop offset="0.711315" stop-color="#02D3EE"/>
<stop offset="1" stop-color="#00F3FF"/>
</linearGradient>
<radialGradient id="paint5_radial_46_3446" cx="0" cy="0" r="1" gradientTransform="matrix(-36.2936 41.9507 -29.8957 -25.5095 40.2936 52.764)" gradientUnits="userSpaceOnUse">
<stop stop-color="#0B1F97"/>
<stop offset="0.252934" stop-color="#0B1F97"/>
<stop offset="1" stop-color="#0286ED"/>
</radialGradient>
<linearGradient id="paint6_linear_46_3446" x1="89.6013" y1="46.634" x2="231.601" y2="46.634" gradientUnits="userSpaceOnUse">
<stop stop-color="#02ABFF"/>
<stop offset="1" stop-color="#BB45FF"/>
</linearGradient>
</defs>
</svg>
