<svg width="192" height="93" viewBox="0 0 192 93" fill="none" xmlns="http://www.w3.org/2000/svg">
<path d="M76.956 28.6896C72.822 34.1952 68.688 39.7009 63.4087 46.5785C73.9673 60.2312 79.6086 68.148 90.1673 81.8007C93.6045 86.2451 90.8935 90.134 86.8085 90.134L71.8057 90.134C66.5436 90.134 64.2485 89.5785 61.8412 86.2451L26.3348 38.5395L43.4498 32.271L59.714 10.0229C65.3292 2.47846 66.2782 2.13403 75.9483 2.13403L85.5769 2.13403C90.5032 2.13403 93.6381 5.41204 90.5032 10.8007L76.956 28.6896Z" fill="url(#paint0_linear_46_3497)"/>
<g filter="url(#filter0_f_46_3497)">
<path d="M75.4316 29.4826C75.4315 29.4828 75.4314 29.483 75.4312 29.4832C71.7595 34.7617 68.0878 40.0401 63.478 46.616C72.6979 59.6702 77.872 67.1828 87.0919 80.237C90.0933 84.4867 87.7261 88.2051 84.159 88.2051L71.0584 88.2051C66.4634 88.2051 64.4593 88.1375 62.3573 84.9503L49.2762 69.1584C49.2762 69.1584 36.8951 53.2462 37.2593 53.1256C37.6234 53.005 43.5712 32.2708 43.5712 32.2708L46.363 28.4132L58.9868 11.2954C64.5346 4.4242 66.2317 4.06261 74.6757 4.06261L83.0836 4.06261C89.5754 4.06261 91.8424 5.99133 87.3852 12.3494L75.4316 29.4826Z" fill="url(#paint1_radial_46_3497)"/>
</g>
<path d="M30.5209 6.02292C28.1137 2.68959 25.8186 2.13403 20.5564 2.13403H5.55366C1.46864 2.13403 -1.24231 6.02292 2.19489 10.4674C12.7535 24.1201 18.3949 32.0368 28.9535 45.6896L48.9124 59.997L66.0274 53.7285L30.5209 6.02292Z" fill="url(#paint2_linear_46_3497)"/>
<g filter="url(#filter1_f_46_3497)">
<path d="M27.1846 5.99145C25.3638 3.45995 22.9362 4.06271 19.4161 4.06271H8.32434C4.75725 4.06271 2.39002 7.78113 5.39142 12.0307C14.6113 25.085 21.3634 33.2002 30.5833 46.2545L46.8487 61.6846L67.6052 56.0189L27.1846 5.99145Z" fill="url(#paint3_radial_46_3497)"/>
</g>
<path d="M15.4057 63.5783C19.5396 58.0727 23.6736 52.567 28.9529 45.6895L48.9118 59.9969L32.6476 82.245C27.0324 89.7895 26.0834 90.1339 16.4133 90.1339H6.78464C1.85839 90.1339 -1.27653 86.8559 1.85839 81.4672L15.4057 63.5783Z" fill="url(#paint4_linear_46_3497)"/>
<g filter="url(#filter2_f_46_3497)">
<path d="M5.09769 79.9183C9.70765 73.3422 14.0167 67.702 18.3258 62.0617L31.554 44.2051L48.9117 59.9969L45.3916 64.0955L31.554 80.8517C25.4848 87.6023 26.2513 88.2051 17.8072 88.2051H9.39935C5.09769 88.2051 2.36024 85.0708 5.09769 79.9183Z" fill="url(#paint5_radial_46_3497)"/>
</g>
<path d="M104.523 31.6965V60.134H99.1716V31.6965H104.523ZM113.351 31.6965V35.9348H90.4412V31.6965H113.351ZM135.773 55.9153V60.134H120.656V55.9153H135.773ZM122.297 31.6965V60.134H116.926V31.6965H122.297ZM133.801 43.4348V47.5559H120.656V43.4348H133.801ZM135.715 31.6965V35.9348H120.656V31.6965H135.715ZM156.144 50.7786H161.515C161.372 52.6796 160.845 54.3658 159.933 55.8372C159.022 57.2955 157.752 58.4413 156.125 59.2747C154.497 60.108 152.524 60.5247 150.207 60.5247C148.423 60.5247 146.815 60.2122 145.383 59.5872C143.963 58.9491 142.746 58.0442 141.73 56.8723C140.728 55.6874 139.959 54.2681 139.426 52.6145C138.892 50.9478 138.625 49.0793 138.625 47.009V44.8411C138.625 42.7708 138.898 40.9023 139.445 39.2356C139.992 37.5689 140.773 36.1497 141.789 34.9778C142.817 33.7929 144.048 32.8814 145.48 32.2434C146.926 31.6054 148.54 31.2864 150.324 31.2864C152.642 31.2864 154.601 31.7161 156.203 32.5754C157.804 33.4218 159.048 34.5872 159.933 36.0715C160.819 37.5559 161.353 39.2616 161.535 41.1887H156.164C156.06 39.9908 155.799 38.9752 155.383 38.1418C154.979 37.3085 154.367 36.677 153.547 36.2473C152.739 35.8046 151.665 35.5833 150.324 35.5833C149.282 35.5833 148.364 35.7786 147.57 36.1692C146.789 36.5598 146.138 37.1458 145.617 37.927C145.096 38.6952 144.705 39.6588 144.445 40.8176C144.185 41.9635 144.054 43.2916 144.054 44.802V47.009C144.054 48.4543 144.172 49.7499 144.406 50.8958C144.64 52.0416 145.005 53.0116 145.5 53.8059C145.995 54.6002 146.633 55.2056 147.414 55.6223C148.195 56.039 149.126 56.2473 150.207 56.2473C151.522 56.2473 152.59 56.039 153.41 55.6223C154.243 55.2056 154.875 54.5937 155.304 53.7864C155.747 52.9791 156.027 51.9765 156.144 50.7786ZM184.543 43.4348V47.6536H169.582V43.4348H184.543ZM171.047 31.6965V60.134H165.676V31.6965H171.047ZM188.527 31.6965V60.134H183.156V31.6965H188.527Z" fill="url(#paint6_linear_46_3497)"/>
<defs>
<filter id="filter0_f_46_3497" x="33.2515" y="0.0625" width="60.4502" height="92.1426" filterUnits="userSpaceOnUse" color-interpolation-filters="sRGB">
<feFlood flood-opacity="0" result="BackgroundImageFix"/>
<feBlend mode="normal" in="SourceGraphic" in2="BackgroundImageFix" result="shape"/>
<feGaussianBlur stdDeviation="2" result="effect1_foregroundBlur_46_3497"/>
</filter>
<filter id="filter1_f_46_3497" x="0.0227051" y="0" width="71.5825" height="65.6846" filterUnits="userSpaceOnUse" color-interpolation-filters="sRGB">
<feFlood flood-opacity="0" result="BackgroundImageFix"/>
<feBlend mode="normal" in="SourceGraphic" in2="BackgroundImageFix" result="shape"/>
<feGaussianBlur stdDeviation="2" result="effect1_foregroundBlur_46_3497"/>
</filter>
<filter id="filter2_f_46_3497" x="0" y="40.2051" width="52.9119" height="52" filterUnits="userSpaceOnUse" color-interpolation-filters="sRGB">
<feFlood flood-opacity="0" result="BackgroundImageFix"/>
<feBlend mode="normal" in="SourceGraphic" in2="BackgroundImageFix" result="shape"/>
<feGaussianBlur stdDeviation="2" result="effect1_foregroundBlur_46_3497"/>
</filter>
<linearGradient id="paint0_linear_46_3497" x1="-10.0802" y1="26.7258" x2="91.7106" y2="46.2721" gradientUnits="userSpaceOnUse">
<stop offset="0.266971" stop-color="#0B1A8F"/>
<stop offset="0.653846" stop-color="#88D1FF"/>
<stop offset="0.81833" stop-color="#CB5BFF"/>
</linearGradient>
<radialGradient id="paint1_radial_46_3497" cx="0" cy="0" r="1" gradientTransform="matrix(34.7156 -41.2274 41.513 34.4767 47.6982 47.701)" gradientUnits="userSpaceOnUse">
<stop stop-color="#0C157D"/>
<stop offset="0.227655" stop-color="#0B1E97"/>
<stop offset="0.337477" stop-color="#0B1E97"/>
<stop offset="0.647798" stop-color="#3221CC"/>
<stop offset="1" stop-color="#4B28FF"/>
</radialGradient>
<linearGradient id="paint2_linear_46_3497" x1="94.7952" y1="57.2244" x2="0.61966" y2="46.1041" gradientUnits="userSpaceOnUse">
<stop offset="0.266971" stop-color="#0B1A8F"/>
<stop offset="0.440178" stop-color="#2A42FF"/>
<stop offset="0.711315" stop-color="#02D3EE"/>
<stop offset="1" stop-color="#00F3FF"/>
</linearGradient>
<radialGradient id="paint3_radial_46_3497" cx="0" cy="0" r="1" gradientTransform="matrix(-38.7212 -48.2192 34.3628 -27.2158 56.0738 57.8271)" gradientUnits="userSpaceOnUse">
<stop stop-color="#0B1F97"/>
<stop offset="0.474898" stop-color="#0B1F97"/>
<stop offset="0.629828" stop-color="#0937AB"/>
<stop offset="0.985449" stop-color="#065DCB"/>
</radialGradient>
<linearGradient id="paint4_linear_46_3497" x1="94.7946" y1="57.2243" x2="0.619082" y2="46.104" gradientUnits="userSpaceOnUse">
<stop offset="0.266971" stop-color="#0B1A8F"/>
<stop offset="0.518269" stop-color="#0A309A"/>
<stop offset="0.711315" stop-color="#02D3EE"/>
<stop offset="1" stop-color="#00F3FF"/>
</linearGradient>
<radialGradient id="paint5_radial_46_3497" cx="0" cy="0" r="1" gradientTransform="matrix(-36.2936 41.9507 -29.8957 -25.5095 40.2936 52.764)" gradientUnits="userSpaceOnUse">
<stop stop-color="#0B1F97"/>
<stop offset="0.252934" stop-color="#0B1F97"/>
<stop offset="1" stop-color="#0286ED"/>
</radialGradient>
<linearGradient id="paint6_linear_46_3497" x1="89.6013" y1="46.634" x2="191.601" y2="46.634" gradientUnits="userSpaceOnUse">
<stop stop-color="#02ABFF"/>
<stop offset="1" stop-color="#BB45FF"/>
</linearGradient>
</defs>
</svg>
