<svg width="120" height="120" viewBox="0 0 120 120" fill="none" xmlns="http://www.w3.org/2000/svg">
<path d="M103.592 114.206H72.5547V63.9425L76.3808 62.5513H112.585V103.137H101.862L103.592 114.206Z" fill="white"/>
<path d="M10.3124 61.8594H45.4792L47.67 65.549V102.907H37.4082V114.898H7.19922V111.093V64.7419L10.3124 61.8594Z" fill="white"/>
<path d="M17.749 4.95801H102.15V22.2532H17.749V4.95801Z" fill="#BB45FF"/>
<path d="M37.6377 104.232V113.745L46.2168 104.232H37.6377Z" fill="#BB45FF"/>
<path d="M103.475 104.232V113.745L112.054 104.232H103.475Z" fill="#BB45FF"/>
<path d="M59.9506 49.8681C64.1297 49.8681 67.5175 46.4803 67.5175 42.3012C67.5175 38.1222 64.1297 34.7344 59.9506 34.7344C55.7716 34.7344 52.3838 38.1222 52.3838 42.3012C52.3838 46.4803 55.7716 49.8681 59.9506 49.8681Z" fill="#66B7E0"/>
<path d="M69.7823 11.5991H31.2645C30.1351 11.5991 29.2197 12.5146 29.2197 13.6439C29.2197 14.7732 30.1351 15.6887 31.2645 15.6887H69.7823C70.9118 15.6887 71.8271 14.7732 71.8271 13.6439C71.8271 12.5146 70.9118 11.5991 69.7823 11.5991Z" fill="#083863"/>
<path d="M81.5757 12.8619C81.5241 12.7393 81.4613 12.6193 81.3878 12.5075C81.3113 12.3957 81.2267 12.2921 81.1314 12.1967C80.6598 11.7223 79.9535 11.5069 79.2884 11.6378C79.1574 11.6651 79.0266 11.7032 78.9039 11.7551C78.7812 11.8069 78.6614 11.8696 78.5522 11.9432C78.4404 12.0168 78.3341 12.104 78.2415 12.1967C78.1459 12.2921 78.0615 12.3957 77.9878 12.5075C77.9143 12.6193 77.8488 12.7393 77.7998 12.8619C77.7479 12.9846 77.7071 13.1128 77.6823 13.2437C77.6552 13.3772 77.6416 13.5109 77.6416 13.6444C77.6416 13.778 77.6552 13.9116 77.6823 14.0424C77.7071 14.1733 77.7478 14.3015 77.7998 14.4241C77.8488 14.5496 77.9142 14.6668 77.9878 14.7786C78.0615 14.8905 78.1459 14.994 78.2415 15.0895C78.3341 15.1848 78.4404 15.2693 78.5522 15.3429C78.6614 15.4165 78.7812 15.4792 78.9039 15.531C79.0266 15.5828 79.1574 15.621 79.2884 15.6483C79.4191 15.6756 79.5528 15.6892 79.6864 15.6892C79.8201 15.6892 79.9535 15.6756 80.0871 15.6483C80.2181 15.621 80.3462 15.5828 80.4689 15.531C80.5917 15.4792 80.7115 15.4165 80.8206 15.3429C80.9351 15.2693 81.0387 15.1848 81.1313 15.0895C81.2267 14.994 81.3113 14.8904 81.3877 14.7786C81.4612 14.6668 81.5241 14.5497 81.5757 14.4241C81.625 14.3015 81.6657 14.1733 81.6902 14.0424C81.7176 13.9116 81.7312 13.7781 81.7312 13.6444C81.7312 13.5109 81.7176 13.3772 81.6902 13.2437C81.6657 13.1128 81.625 12.9846 81.5757 12.8619Z" fill="#083863"/>
<path d="M90.2801 12.862C90.2284 12.7394 90.1656 12.6195 90.0921 12.5076C90.0183 12.3958 89.9339 12.2923 89.8383 12.1968C89.743 12.1042 89.6394 12.0169 89.5276 11.9433C89.4158 11.8697 89.2987 11.807 89.1733 11.7552C89.0505 11.7033 88.9225 11.6652 88.7915 11.638C88.5271 11.5862 88.2571 11.5862 87.9927 11.638C87.8617 11.6652 87.7336 11.7033 87.6109 11.7552C87.4855 11.807 87.3684 11.8697 87.2565 11.9433C87.1447 12.0169 87.0411 12.1041 86.9458 12.1968C86.5667 12.5785 86.3486 13.1047 86.3486 13.6446C86.3486 14.1817 86.5667 14.7078 86.9458 15.0896C87.0411 15.1849 87.1447 15.2695 87.2565 15.3431C87.3683 15.4167 87.4855 15.4822 87.6109 15.5312C87.7336 15.583 87.8617 15.6212 87.9927 15.6485C88.1234 15.6758 88.2598 15.6894 88.3908 15.6894C88.5244 15.6894 88.6607 15.6758 88.7915 15.6485C88.9225 15.6212 89.0505 15.583 89.1733 15.5312C89.2987 15.4822 89.4158 15.4167 89.5276 15.3431C89.6395 15.2695 89.743 15.1849 89.8383 15.0896C90.2175 14.7106 90.4355 14.1817 90.4355 13.6446C90.4355 13.511 90.422 13.3774 90.3975 13.2439C90.37 13.113 90.332 12.9848 90.2801 12.862Z" fill="#083863"/>
<path d="M44.2723 59.853H10.2527C6.92457 59.853 4.2168 62.5607 4.2168 65.8888V111.109C4.2168 114.437 6.92455 117.145 10.2527 117.145H37.2643C37.3327 117.145 37.4009 117.141 37.4683 117.134C37.5187 117.129 37.5678 117.121 37.617 117.112C37.6335 117.109 37.6503 117.108 37.6667 117.105C37.7252 117.093 37.7825 117.078 37.8391 117.061C37.846 117.059 37.8532 117.058 37.8601 117.056C37.9181 117.038 37.9748 117.017 38.0306 116.995C38.0363 116.993 38.0422 116.991 38.0479 116.988C38.101 116.966 38.1527 116.941 38.2034 116.915C38.2118 116.911 38.2206 116.907 38.229 116.903C38.2761 116.877 38.3214 116.849 38.3662 116.821C38.3777 116.813 38.3897 116.807 38.401 116.8C38.4429 116.771 38.4827 116.741 38.5224 116.71C38.5354 116.699 38.5493 116.69 38.562 116.68C38.6092 116.641 38.6542 116.6 38.6977 116.557C38.7017 116.553 38.7062 116.55 38.7102 116.546L49.7093 105.547C50.0927 105.164 50.3081 104.643 50.3081 104.101V65.8888C50.3081 62.5606 47.6004 59.853 44.2723 59.853ZM39.3091 110.163V105.571H43.9016L39.3091 110.163ZM46.2185 101.481H37.2643C36.1348 101.481 35.2195 102.397 35.2195 103.526V113.055H10.2527C9.17944 113.055 8.30639 112.182 8.30639 111.109V65.8888C8.30639 64.8156 9.17941 63.9426 10.2527 63.9426H44.2722C45.3455 63.9426 46.2185 64.8156 46.2185 65.8888V101.481Z" fill="#083863"/>
<path d="M18.3211 73.7127C18.2721 73.59 18.2066 73.47 18.1358 73.361C18.0594 73.2464 17.9747 73.1428 17.8794 73.0502C17.7867 72.9547 17.6805 72.8702 17.5687 72.7939C17.4595 72.7203 17.3397 72.6576 17.217 72.6058C17.0916 72.5567 16.9632 72.5158 16.8325 72.4912C16.1701 72.3549 15.4637 72.5731 14.9895 73.0502C14.8939 73.1428 14.8095 73.2464 14.7331 73.361C14.6596 73.4701 14.5968 73.59 14.5451 73.7127C14.4959 73.8353 14.4551 73.9662 14.4304 74.0944C14.4032 74.2279 14.3896 74.3616 14.3896 74.4951C14.3896 74.6287 14.4032 74.7623 14.4304 74.8931C14.4551 75.024 14.4959 75.1522 14.5451 75.2776C14.5968 75.4004 14.6596 75.5203 14.7331 75.6293C14.8095 75.7412 14.8939 75.8474 14.9895 75.9402C15.0822 76.0355 15.1857 76.12 15.3002 76.1964C15.4094 76.27 15.5292 76.3327 15.6519 76.3817C15.7747 76.4336 15.9027 76.4745 16.0337 76.499C16.1671 76.5263 16.3008 76.5399 16.4344 76.5399C16.5681 76.5399 16.7015 76.5263 16.8325 76.499C16.9632 76.4745 17.0915 76.4337 17.217 76.3817C17.3397 76.3327 17.4595 76.27 17.5687 76.1964C17.6805 76.12 17.7867 76.0355 17.8794 75.9402C17.9747 75.8474 18.0594 75.7411 18.1357 75.6293C18.2066 75.5203 18.2721 75.4004 18.3211 75.2776C18.373 75.1522 18.4111 75.024 18.4382 74.8931C18.4656 74.7623 18.4792 74.6288 18.4792 74.4951C18.4792 74.3616 18.4656 74.2279 18.4382 74.0944C18.4111 73.9662 18.373 73.8353 18.3211 73.7127Z" fill="#083863"/>
<path d="M37.264 72.4502H25.163C24.0335 72.4502 23.1182 73.3657 23.1182 74.495C23.1182 75.6243 24.0335 76.5398 25.163 76.5398H37.264C38.3935 76.5398 39.3088 75.6243 39.3088 74.495C39.3088 73.3657 38.3934 72.4502 37.264 72.4502Z" fill="#083863"/>
<path d="M18.3211 83.7106C18.2721 83.5878 18.2066 83.4679 18.1357 83.3589C18.0593 83.247 17.9747 83.1407 17.8794 83.048C17.7867 82.9526 17.6805 82.868 17.5687 82.7944C17.4595 82.7208 17.3397 82.6554 17.217 82.6063C17.0915 82.5546 16.9632 82.5137 16.8325 82.4892C16.5707 82.4346 16.2981 82.4346 16.0337 82.4892C15.9027 82.5137 15.7747 82.5545 15.6519 82.6063C15.5292 82.6555 15.4094 82.7208 15.3002 82.7944C15.1857 82.868 15.0822 82.9526 14.9895 83.048C14.8939 83.1407 14.8095 83.2471 14.7331 83.3589C14.6596 83.4679 14.5968 83.5878 14.5451 83.7106C14.4959 83.836 14.4551 83.964 14.4304 84.0949C14.4032 84.2258 14.3896 84.3594 14.3896 84.493C14.3896 84.6266 14.4032 84.7602 14.4304 84.8938C14.4551 85.022 14.4959 85.1529 14.5451 85.2755C14.5968 85.3982 14.6596 85.5182 14.7331 85.6272C14.8095 85.739 14.8939 85.8454 14.9895 85.938C15.0822 86.0335 15.1857 86.118 15.3002 86.1943C15.4094 86.2679 15.5292 86.3306 15.6519 86.3824C15.7747 86.4315 15.9027 86.4724 16.0337 86.4968C16.1671 86.5241 16.3008 86.5377 16.4344 86.5377C16.5681 86.5377 16.7015 86.5241 16.8325 86.4968C16.9632 86.4724 17.0915 86.4315 17.217 86.3824C17.3397 86.3306 17.4595 86.2679 17.5687 86.1943C17.6805 86.118 17.7867 86.0335 17.8794 85.938C17.9747 85.8454 18.0594 85.739 18.1357 85.6272C18.2066 85.5182 18.2721 85.3982 18.3211 85.2755C18.373 85.1529 18.4111 85.022 18.4382 84.8938C18.4656 84.7602 18.4792 84.6266 18.4792 84.493C18.4792 84.3595 18.4656 84.2258 18.4382 84.0949C18.411 83.964 18.373 83.836 18.3211 83.7106Z" fill="#083863"/>
<path d="M37.264 82.4482H25.163C24.0335 82.4482 23.1182 83.3637 23.1182 84.493C23.1182 85.6223 24.0335 86.5378 25.163 86.5378H37.264C38.3935 86.5378 39.3088 85.6223 39.3088 84.493C39.3088 83.3637 38.3934 82.4482 37.264 82.4482Z" fill="#083863"/>
<path d="M18.3211 93.7084C18.2721 93.5857 18.2066 93.4685 18.1358 93.3567C18.0594 93.2449 17.9747 93.1413 17.8794 93.0459C17.7867 92.9532 17.6805 92.866 17.5687 92.7924C17.4595 92.7188 17.3397 92.6561 17.217 92.6042C17.0916 92.5524 16.9632 92.5143 16.8325 92.487C16.1701 92.3534 15.4637 92.5715 14.9895 93.0459C14.8939 93.1413 14.8095 93.2449 14.7331 93.3567C14.6596 93.4685 14.5968 93.5857 14.5451 93.7084C14.4959 93.8338 14.4551 93.9619 14.4304 94.0929C14.4032 94.2237 14.3896 94.3573 14.3896 94.4909C14.3896 94.6244 14.4032 94.7608 14.4304 94.8916C14.4551 95.0225 14.4959 95.1507 14.5451 95.2733C14.5968 95.3987 14.6596 95.516 14.7331 95.6278C14.8095 95.7395 14.8939 95.8432 14.9895 95.9385C15.0822 96.0313 15.1857 96.1185 15.3002 96.1921C15.4094 96.2657 15.5292 96.3284 15.6519 96.3802C15.7747 96.432 15.9027 96.4702 16.0337 96.4975C16.1671 96.5248 16.3008 96.5357 16.4344 96.5357C16.5681 96.5357 16.7015 96.5248 16.8325 96.4975C16.9632 96.4702 17.0915 96.432 17.217 96.3802C17.3397 96.3284 17.4595 96.2657 17.5687 96.1921C17.6805 96.1185 17.7867 96.0313 17.8794 95.9385C17.9747 95.8432 18.0594 95.7395 18.1357 95.6278C18.2066 95.516 18.2721 95.3987 18.3211 95.2733C18.373 95.1507 18.4111 95.0225 18.4382 94.8916C18.4656 94.7608 18.4792 94.6244 18.4792 94.4909C18.4792 94.3573 18.4656 94.2237 18.4382 94.0929C18.4111 93.9619 18.373 93.8338 18.3211 93.7084Z" fill="#083863"/>
<path d="M37.264 92.4473H25.163C24.0335 92.4473 23.1182 93.3628 23.1182 94.4921C23.1182 95.6214 24.0335 96.5369 25.163 96.5369H37.264C38.3935 96.5369 39.3088 95.6214 39.3088 94.4921C39.3088 93.3628 38.3934 92.4473 37.264 92.4473Z" fill="#083863"/>
<path d="M109.404 59.853H75.3845C72.0564 59.853 69.3486 62.5607 69.3486 65.8888V111.109C69.3486 114.437 72.0564 117.145 75.3845 117.145H102.396C102.465 117.145 102.533 117.141 102.6 117.134C102.65 117.129 102.7 117.121 102.749 117.112C102.765 117.109 102.782 117.108 102.799 117.105C102.857 117.093 102.914 117.078 102.971 117.061C102.978 117.059 102.985 117.058 102.992 117.056C103.05 117.038 103.107 117.017 103.162 116.995C103.168 116.993 103.174 116.991 103.18 116.988C103.233 116.966 103.285 116.941 103.335 116.915C103.344 116.911 103.352 116.907 103.361 116.903C103.408 116.877 103.453 116.849 103.498 116.821C103.51 116.813 103.521 116.807 103.533 116.8C103.575 116.771 103.615 116.741 103.654 116.71C103.667 116.699 103.681 116.69 103.694 116.68C103.741 116.641 103.786 116.6 103.83 116.557C103.834 116.553 103.838 116.55 103.842 116.546L114.841 105.547C115.225 105.164 115.44 104.643 115.44 104.101V65.8888C115.44 62.5606 112.732 59.853 109.404 59.853ZM104.441 110.163V105.571H109.033L104.441 110.163ZM111.35 101.481H102.396C101.267 101.481 100.351 102.397 100.351 103.526V113.055H75.3845C74.3113 113.055 73.4382 112.182 73.4382 111.109V65.8888C73.4382 64.8156 74.3113 63.9426 75.3845 63.9426H109.404C110.477 63.9426 111.35 64.8156 111.35 65.8888L111.35 101.481Z" fill="#083863"/>
<path d="M83.4558 73.7128C83.4039 73.59 83.3411 73.4701 83.2676 73.3582C83.1912 73.2464 83.1068 73.1429 83.0112 73.0474C82.537 72.5731 81.8309 72.3549 81.1682 72.4912C81.0375 72.5158 80.9065 72.5567 80.7837 72.6058C80.6613 72.6576 80.5412 72.7203 80.432 72.7939C80.3205 72.8702 80.214 72.9547 80.1213 73.0474C80.026 73.1429 79.9413 73.2464 79.865 73.3582C79.7915 73.4701 79.7286 73.59 79.677 73.7128C79.628 73.8354 79.587 73.9636 79.5625 74.0944C79.5351 74.2279 79.5215 74.3616 79.5215 74.4951C79.5215 74.6288 79.5351 74.7623 79.5625 74.8932C79.587 75.024 79.628 75.1522 79.677 75.2777C79.7286 75.4004 79.7915 75.5203 79.865 75.6294C79.9414 75.7412 80.026 75.8474 80.1213 75.9402C80.214 76.0355 80.3205 76.1201 80.432 76.1937C80.5412 76.2673 80.6613 76.3328 80.7837 76.3818C80.9065 76.4337 81.0375 76.4745 81.1682 76.499C81.2992 76.5263 81.4326 76.5399 81.5663 76.5399C82.1036 76.5399 82.6324 76.3219 83.0112 75.9402C83.1068 75.8474 83.1912 75.7412 83.2676 75.6294C83.3411 75.5203 83.4039 75.4004 83.4558 75.2777C83.5048 75.1522 83.5456 75.024 83.5703 74.8932C83.5975 74.7623 83.611 74.6288 83.611 74.4951C83.611 74.3616 83.5975 74.2279 83.5703 74.0944C83.5456 73.9636 83.5048 73.8354 83.4558 73.7128Z" fill="#083863"/>
<path d="M102.396 72.4502H90.2948C89.1654 72.4502 88.25 73.3657 88.25 74.495C88.25 75.6243 89.1654 76.5398 90.2948 76.5398H102.396C103.525 76.5398 104.441 75.6243 104.441 74.495C104.441 73.3657 103.525 72.4502 102.396 72.4502Z" fill="#083863"/>
<path d="M83.4558 83.7108C83.4039 83.5881 83.3411 83.4682 83.2676 83.3591C83.1912 83.2473 83.1068 83.1409 83.0112 83.0483C82.537 82.574 81.8309 82.3558 81.1682 82.4894C81.0375 82.5139 80.9065 82.5548 80.7837 82.6066C80.6613 82.6557 80.5412 82.7211 80.432 82.7947C80.3205 82.8683 80.214 82.9528 80.1213 83.0483C80.026 83.1409 79.9413 83.2473 79.865 83.3591C79.7915 83.4682 79.7286 83.5881 79.677 83.7108C79.628 83.8363 79.587 83.9643 79.5625 84.0952C79.5351 84.226 79.5215 84.3597 79.5215 84.4932C79.5215 84.6269 79.5351 84.7604 79.5625 84.8941C79.587 85.0223 79.628 85.1531 79.677 85.2757C79.7286 85.3985 79.7915 85.5184 79.865 85.6274C79.9414 85.7419 80.026 85.8456 80.1213 85.9383C80.214 86.0337 80.3205 86.1183 80.432 86.1945C80.5412 86.2681 80.6613 86.3309 80.7837 86.3826C80.9065 86.4318 81.0375 86.4726 81.1682 86.4971C81.2992 86.5244 81.4326 86.538 81.5663 86.538C82.1062 86.538 82.6324 86.3199 83.0112 85.9382C83.1068 85.8456 83.1912 85.7419 83.2676 85.6274C83.3411 85.5184 83.4039 85.3985 83.4558 85.2757C83.5048 85.1531 83.5456 85.0222 83.5703 84.894C83.5975 84.7604 83.611 84.6269 83.611 84.4932C83.611 84.3597 83.5975 84.226 83.5703 84.0952C83.5456 83.9643 83.5048 83.8363 83.4558 83.7108Z" fill="#083863"/>
<path d="M102.396 82.4482H90.2948C89.1654 82.4482 88.25 83.3637 88.25 84.493C88.25 85.6223 89.1654 86.5378 90.2948 86.5378H102.396C103.525 86.5378 104.441 85.6223 104.441 84.493C104.441 83.3637 103.525 82.4482 102.396 82.4482Z" fill="#083863"/>
<path d="M83.4558 93.7111C83.4039 93.5857 83.3411 93.4685 83.2676 93.3567C83.1912 93.2449 83.1068 93.1413 83.0112 93.0459C82.537 92.5715 81.8309 92.3534 81.1682 92.487C81.0375 92.5143 80.9065 92.5524 80.7837 92.6042C80.6613 92.6561 80.5412 92.7188 80.432 92.7924C80.3205 92.866 80.214 92.9532 80.1213 93.0459C80.026 93.1413 79.9413 93.2449 79.865 93.3567C79.7915 93.4685 79.7286 93.5857 79.677 93.7111C79.628 93.8338 79.587 93.9619 79.5625 94.0929C79.5351 94.2237 79.5215 94.3601 79.5215 94.4909C79.5215 94.6244 79.5351 94.7608 79.5625 94.8916C79.587 95.0225 79.628 95.1507 79.677 95.2733C79.7286 95.3987 79.7915 95.516 79.865 95.6278C79.9414 95.7395 80.026 95.8432 80.1213 95.9385C80.214 96.0313 80.3205 96.1185 80.432 96.1921C80.5412 96.2657 80.6613 96.3284 80.7837 96.3802C80.9065 96.432 81.0375 96.4702 81.1682 96.4975C81.2992 96.522 81.4326 96.5357 81.5663 96.5357C82.1036 96.5357 82.6324 96.3175 83.0112 95.9385C83.1068 95.8432 83.1912 95.7395 83.2676 95.6278C83.3411 95.516 83.4039 95.3987 83.4558 95.2733C83.5048 95.1507 83.5456 95.0225 83.5703 94.8916C83.5975 94.7608 83.611 94.6244 83.611 94.4909C83.611 94.3601 83.5975 94.2237 83.5703 94.0929C83.5456 93.9619 83.5048 93.8338 83.4558 93.7111Z" fill="#083863"/>
<path d="M102.396 92.4473H90.2948C89.1654 92.4473 88.25 93.3628 88.25 94.4921C88.25 95.6214 89.1654 96.5369 90.2948 96.5369H102.396C103.525 96.5369 104.441 95.6214 104.441 94.4921C104.441 93.3628 103.525 92.4473 102.396 92.4473Z" fill="#083863"/>
<path d="M90.3493 44.3461V51.0204C90.3493 52.1497 91.2647 53.0652 92.3941 53.0652C93.5236 53.0652 94.4389 52.1497 94.4389 51.0204V42.3013C94.4389 41.172 93.5236 40.2565 92.3941 40.2565H69.9956C69.1761 36.1755 65.9542 32.9535 61.8731 32.134V25.2751C61.8731 25.2305 61.8692 25.1869 61.8665 25.1429H99.5571C102.548 25.1429 104.981 22.7099 104.981 19.7193V7.56805C104.981 4.57752 102.548 2.14453 99.5571 2.14453H20.0996C17.1088 2.14453 14.6758 4.57752 14.6758 7.56805V19.7193C14.6758 22.7099 17.1088 25.1429 20.0996 25.1429H57.7902C57.7874 25.1869 57.7835 25.2305 57.7835 25.2751V32.134C53.7024 32.9535 50.4806 36.1755 49.661 40.2565H27.2625C26.1331 40.2565 25.2177 41.172 25.2177 42.3013V51.0204C25.2177 52.1497 26.1331 53.0652 27.2625 53.0652C28.3919 53.0652 29.3073 52.1497 29.3073 51.0204V44.3461H49.661C50.6133 49.0884 54.8096 52.6718 59.8283 52.6718C64.847 52.6718 69.0433 49.0884 69.9956 44.3461H90.3493ZM20.0996 21.0533C19.3639 21.0533 18.7654 20.4549 18.7654 19.7193V7.56805C18.7654 6.83252 19.3639 6.23413 20.0996 6.23413H99.557C100.293 6.23413 100.891 6.83252 100.891 7.56805V19.7193C100.891 20.4549 100.293 21.0533 99.557 21.0533H20.0996ZM59.8283 48.5822C56.3649 48.5822 53.5472 45.7646 53.5472 42.3013C53.5472 38.8379 56.3649 36.0202 59.8283 36.0202C63.2917 36.0202 66.1094 38.8379 66.1094 42.3013C66.1094 45.7646 63.2917 48.5822 59.8283 48.5822Z" fill="#083863"/>
</svg>
