<svg width="120" height="120" viewBox="0 0 120 120" fill="none" xmlns="http://www.w3.org/2000/svg">
<path fill-rule="evenodd" clip-rule="evenodd" d="M69.1308 111.528H50.8716V102.366C44.8261 101.161 39.2046 98.7823 34.2528 95.478L27.7714 101.959L14.8604 89.0482L21.3418 82.5668C18.0371 77.6156 15.6596 71.9932 14.4539 65.9482H5.29199V47.689H14.4537C15.6589 41.6435 18.0373 36.0218 21.3415 31.0699L14.8604 24.5888L27.7718 11.6777L34.2525 18.1584C39.2039 14.8535 44.8264 12.476 50.8716 11.2704V2.10938H69.1308V11.2704C75.1765 12.4755 80.7982 14.854 85.7501 18.1582L92.2311 11.6773L105.142 24.5888L98.6616 31.0695C101.967 36.0209 104.344 41.6435 105.55 47.689H114.711V65.9482H105.55C104.344 71.9937 101.966 77.6154 98.6616 82.5673L105.143 89.0484L92.2313 101.96L85.7501 95.4785C80.7987 98.7832 75.1763 101.161 69.1311 102.366V111.528H69.1308Z" fill="#8D9CA8"/>
<path d="M60.0017 92.0269C79.447 92.0269 95.2105 76.2634 95.2105 56.8181C95.2105 37.3729 79.447 21.6094 60.0017 21.6094C40.5565 21.6094 24.793 37.3729 24.793 56.8181C24.793 76.2634 40.5565 92.0269 60.0017 92.0269Z" fill="#EFF4F7"/>
<path fill-rule="evenodd" clip-rule="evenodd" d="M72.4852 56.2177C72.4852 49.3521 66.8679 43.7349 60.0023 43.7349C53.1368 43.7349 47.5195 49.3521 47.5195 56.2177H72.4852Z" fill="#BB45FF"/>
<path d="M64.7624 41.761C67.3967 39.1267 67.3967 34.8557 64.7624 32.2214C62.1281 29.5872 57.8572 29.5872 55.2229 32.2214C52.5886 34.8557 52.5886 39.1267 55.2229 41.761C57.8572 44.3952 62.1281 44.3952 64.7624 41.761Z" fill="#FFD6BD"/>
<path fill-rule="evenodd" clip-rule="evenodd" d="M55.2889 63.4525C55.2889 56.587 49.6716 50.9697 42.8061 50.9697C35.9405 50.9697 30.3232 56.587 30.3232 63.4525H55.2889Z" fill="#64B5F6"/>
<path d="M43.8723 50.8861C47.5499 50.2899 50.0478 46.8254 49.4517 43.1479C48.8555 39.4703 45.391 36.9724 41.7135 37.5685C38.0359 38.1647 35.538 41.6292 36.1341 45.3067C36.7303 48.9843 40.1948 51.4822 43.8723 50.8861Z" fill="#FFD6BD"/>
<path fill-rule="evenodd" clip-rule="evenodd" d="M89.6785 63.4525C89.6785 56.587 84.0612 50.9697 77.1957 50.9697C70.3302 50.9697 64.7129 56.587 64.7129 63.4525H89.6785Z" fill="#64B5F6"/>
<path d="M83.4596 46.8115C84.8867 43.3687 83.2526 39.4209 79.8098 37.9938C76.367 36.5668 72.4192 38.2009 70.9921 41.6437C69.5651 45.0865 71.1991 49.0343 74.642 50.4613C78.0848 51.8884 82.0326 50.2543 83.4596 46.8115Z" fill="#FFD6BD"/>
<path fill-rule="evenodd" clip-rule="evenodd" d="M58.2475 59.5869C78.6259 84.8943 88.8149 97.5479 88.8149 97.5479C90.8884 99.6214 90.8882 103.014 88.8147 105.087C86.7409 107.161 83.3493 107.161 81.2756 105.087C83.3488 107.161 83.3488 110.553 81.2756 112.626C79.2023 114.699 75.8097 114.7 73.7366 112.626L69.6243 108.514C71.6978 110.587 71.6973 113.979 69.6243 116.053C67.551 118.127 64.1584 118.127 62.0852 116.053L54.8284 108.796C56.9017 110.87 56.9017 114.262 54.8282 116.335C52.7549 118.408 49.3623 118.408 47.2893 116.335L17.5527 86.5993C17.5527 86.5993 19.5627 77.5951 23.5827 59.5869H58.2475Z" fill="#F9F6F9"/>
<path fill-rule="evenodd" clip-rule="evenodd" d="M104.126 84.4591C103.869 84.5571 93.9384 59.4694 93.6846 59.5643C84.146 63.1287 76.833 64.4283 67.005 56.3201C63.8957 53.7548 59.7039 53.4701 56.6102 56.0533L44.0997 66.4987C42.6047 67.747 41.785 69.4826 42.2004 71.3855L45.9954 88.7756C55.6439 86.3979 55.5986 79.5321 56.2786 72.3131C56.6057 69.5482 61.0734 70.3052 66.6813 75.4144L89.7579 98.827L104.126 84.4591Z" fill="#F9F6F9"/>
<path fill-rule="evenodd" clip-rule="evenodd" d="M91.871 56.6878L101.201 54.8292C102.203 54.6296 103.185 55.286 103.385 56.2875L110.636 92.6822C110.835 93.6837 110.179 94.6664 109.177 94.8661L99.8471 96.7249C98.8453 96.9246 97.8626 96.2684 97.6631 95.2667L90.4128 58.8717C90.2131 57.8703 90.8691 56.8875 91.871 56.6878Z" fill="#BB45FF"/>
<path fill-rule="evenodd" clip-rule="evenodd" d="M28.1352 56.6878L18.8052 54.8292C17.8035 54.6296 16.8208 55.286 16.6213 56.2875L9.37069 92.6822C9.17124 93.6837 9.82725 94.6664 10.8292 94.8661L20.1592 96.7249C21.1612 96.9246 22.1437 96.2684 22.3433 95.2667L29.5937 58.8717C29.7932 57.8703 29.1369 56.8875 28.1352 56.6878Z" fill="#66B7E0"/>
<path fill-rule="evenodd" clip-rule="evenodd" d="M112.827 64.0707H106.836L105.211 55.9192C104.813 53.901 102.845 52.5861 100.822 52.9893L96.9531 53.7606C96.2235 44.8705 92.3657 36.6158 85.9433 30.3207C78.9681 23.4932 69.7489 19.7336 59.9992 19.7336C50.2384 19.7336 41.0193 23.4932 34.044 30.3205C27.6217 36.6156 23.7636 44.8705 23.0343 53.7604L19.1652 52.989C17.1423 52.5857 15.1747 53.9007 14.7768 55.9189L13.1518 64.0705H7.16051V49.5622H14.4451C15.3404 49.5622 16.1143 48.9296 16.2911 48.0531C17.4296 42.3364 19.6515 36.9716 22.8904 32.1083C23.3877 31.3656 23.2883 30.3742 22.6583 29.7414L17.507 24.5875L27.7654 14.3265L32.9167 19.483C33.5579 20.1135 34.5416 20.2119 35.2822 19.7171C40.146 16.4713 45.5073 14.2471 51.2333 13.108C52.1066 12.9322 52.7368 12.1632 52.7368 11.2682V3.98098H67.251V11.2682C67.251 12.1632 67.881 12.9322 68.7543 13.108C74.4693 14.2471 79.8416 16.4713 84.7053 19.715C85.446 20.2121 86.4409 20.1135 87.0709 19.483L92.2222 14.3265L102.48 24.5875L97.329 29.7416C96.699 30.3746 96.5994 31.3635 97.097 32.1086C100.336 36.9697 102.569 42.3346 103.707 48.0533C103.884 48.9299 104.647 49.5625 105.542 49.5625H112.827V64.0707ZM99.4846 94.8814L108.781 93.0278L101.541 56.6692L92.244 58.5231L99.4846 94.8814ZM89.7568 96.1635L94.8969 91.0239L89.3479 63.1825C83.2129 65.0854 75.265 65.5729 65.8025 57.7635C63.2933 55.6991 60.0765 55.5864 57.7993 57.4918L45.2971 67.9353C44.5454 68.559 43.7162 69.5947 44.0258 70.9848L47.3863 86.3929C53.3336 84.1986 53.7425 79.6403 54.2729 73.5346C54.3172 73.0707 54.3613 72.6046 54.4056 72.1356C54.4056 72.1213 54.4056 72.1049 54.4056 72.0911C54.5715 70.6778 55.4005 69.5947 56.6718 69.1189C59.3246 68.1301 63.4257 69.9207 67.9358 74.0268C67.9578 74.0507 67.9801 74.0739 68.0132 74.0973L89.7568 96.1635ZM87.4796 103.76C88.4856 102.759 88.7619 101.212 88.1982 99.9205L65.3715 76.7643C61.5247 73.2718 58.8939 72.5148 58.12 72.6018C58.0869 73.0236 58.0536 73.4455 58.0096 73.8653C57.4236 80.5145 56.7604 88.0494 46.4359 90.595C45.9496 90.714 45.4189 90.6322 44.9989 90.3653C44.5677 90.0981 44.2583 89.6666 44.1587 89.1744L40.356 71.784C39.8143 69.3041 40.7429 66.8528 42.8875 65.0572L47.1986 61.4593H30.9821L25.0129 91.4148L48.6025 115.007C49.9511 116.355 52.1509 116.355 53.4885 115.007C54.1407 114.358 54.4944 113.491 54.4944 112.565C54.4944 111.637 54.1407 110.77 53.4885 110.121L47.1875 103.818C46.4579 103.085 46.4579 101.899 47.1875 101.165C47.9172 100.434 49.1111 100.434 49.8407 101.165L63.4042 114.726C64.7528 116.074 66.9414 116.074 68.2902 114.726C69.6388 113.379 69.6388 111.185 68.2902 109.837L55.6332 97.1783C54.8926 96.4452 54.8926 95.259 55.6332 94.5252C56.3629 93.7942 57.5455 93.7942 58.2861 94.5252L75.0552 111.299C75.7075 111.946 76.5697 112.305 77.4983 112.305C78.4269 112.305 79.2892 111.946 79.9412 111.299C80.5935 110.65 80.9471 109.783 80.9471 108.855C80.9471 107.929 80.5935 107.064 79.9412 106.417C79.9412 106.415 79.9412 106.413 79.9412 106.41L64.0675 90.5382C63.3378 89.8047 63.3378 88.6189 64.0675 87.8851C64.7971 87.1541 65.991 87.1541 66.7203 87.8851L82.5941 103.759V103.761V103.764C83.9425 105.107 86.1311 105.105 87.4796 103.76ZM77.1885 52.8437C74.3476 52.8437 71.6392 54.0067 69.6496 56.0127C76.5585 61.1242 82.3175 61.1921 87.1815 59.9031C85.7003 55.7314 81.7318 52.8435 77.1997 52.8435C77.1885 52.8437 77.1885 52.8437 77.1885 52.8437ZM77.1885 49.0939C79.8746 49.0914 82.0632 46.9072 82.0632 44.2211C82.0632 41.5354 79.8744 39.3486 77.1885 39.3486C74.5023 39.3486 72.3135 41.5354 72.3135 44.2211C72.3135 46.9072 74.5021 49.0914 77.1885 49.0939ZM55.1244 36.9864C55.1244 39.6721 57.302 41.8567 59.9882 41.8588H59.9992C62.6854 41.8567 64.8629 39.6721 64.8629 36.9864C64.8629 34.3 62.6854 32.1161 59.9992 32.1161C57.313 32.1158 55.1244 34.3 55.1244 36.9864ZM55.4007 54.6111C58.6286 51.9158 62.9396 51.6463 66.6095 53.7721C67.4495 52.8533 68.4003 52.0518 69.4283 51.3861C67.6264 47.8799 64.0119 45.6111 59.9992 45.609C59.9882 45.609 59.9882 45.609 59.9882 45.609C55.9757 45.6111 52.3499 47.8825 50.559 51.3934C52.1286 52.4082 53.4995 53.7252 54.5938 55.2861L55.4007 54.6111ZM42.7989 52.8437C39.129 52.8437 35.8126 54.7239 33.8893 57.7098H51.6864L51.6974 57.7004C49.7521 54.7117 46.4026 52.8437 42.7989 52.8437ZM37.9241 44.2211C37.9241 46.9072 40.1129 49.0914 42.7989 49.0939C45.485 49.0914 47.6736 46.9072 47.6736 44.2211C47.6736 41.5354 45.4848 39.3486 42.7989 39.3486C40.1127 39.3486 37.9241 41.5354 37.9241 44.2211ZM91.4924 54.8476L93.25 54.4989C92.045 37.2578 77.4536 23.4838 59.9992 23.4838C42.5448 23.4838 27.9423 37.258 26.7484 54.4989L28.495 54.8476C29.2909 55.0049 29.9872 55.4125 30.5289 56.008C32.0211 53.5356 34.221 51.5924 36.7965 50.4041C35.1826 48.8361 34.1767 46.6447 34.1767 44.2211C34.1767 39.4656 38.0457 35.5984 42.7989 35.5984C47.5522 35.5984 51.4211 39.4656 51.4211 44.2211C51.4211 44.3898 51.41 44.5567 51.41 44.7229C52.206 44.1184 53.0793 43.5981 53.9966 43.1736C52.3827 41.6057 51.3768 39.4121 51.3768 36.9864C51.3768 32.233 55.2456 28.3658 59.9989 28.3658C64.7521 28.3658 68.6211 32.233 68.6211 36.9864C68.6211 39.4121 67.6042 41.6057 65.9903 43.1736C66.9079 43.5981 67.7811 44.1184 68.5878 44.7229C68.5768 44.5567 68.5658 44.39 68.5658 44.2211C68.5658 39.4656 72.4349 35.5984 77.188 35.5984C81.9411 35.5984 85.8102 39.4656 85.8102 44.2211C85.8102 46.6468 84.8043 48.8385 83.1904 50.4067C85.7769 51.602 87.9768 53.552 89.458 56.0059C90.0001 55.4125 90.6964 55.0049 91.4924 54.8476ZM20.5028 94.8814L27.7431 58.5205L18.4466 56.6689L11.2061 93.0275L20.5028 94.8814ZM114.706 45.8127H107.057C105.863 40.6729 103.851 35.8096 101.054 31.3236L106.46 25.9119C107.189 25.1809 107.189 23.9947 106.46 23.2611L93.5486 10.3494C93.1949 9.99785 92.7196 9.80098 92.222 9.80098C91.7244 9.80098 91.2491 9.99785 90.8954 10.3494L85.49 15.7611C81.002 12.965 76.1382 10.9494 70.9979 9.75644V2.10621C70.9979 1.07262 70.1579 0.231445 69.1187 0.231445H50.8684C49.8294 0.231445 48.9892 1.07262 48.9892 2.10621V9.75644C43.8491 10.9515 38.9851 12.965 34.4973 15.7611L29.0919 10.3494C28.3623 9.6184 27.1684 9.6184 26.439 10.3494L13.5278 23.2611C12.7982 23.9926 12.7982 25.1809 13.5278 25.9119L18.9442 31.3236C16.1474 35.8145 14.1245 40.6752 12.9308 45.8127H5.28129C4.25332 45.8127 3.41309 46.6515 3.41309 47.6875V65.9453C3.41309 66.9812 4.25309 67.8203 5.28129 67.8203H12.4L7.5252 92.3125C7.32621 93.29 7.5252 94.2836 8.07785 95.1135C8.64152 95.9429 9.48176 96.5078 10.4544 96.7025L19.7842 98.5609C20.0272 98.6101 20.2705 98.6333 20.5138 98.6333C21.2434 98.6333 21.962 98.4179 22.581 98.0029C23.3546 97.4872 23.8965 96.7187 24.1286 95.8302L45.9493 117.66C47.3643 119.064 49.1994 119.767 51.0454 119.767C52.8913 119.767 54.7375 119.064 56.1414 117.66C57.0146 116.793 57.6336 115.741 57.9653 114.59L60.7508 117.377C62.1104 118.734 63.9123 119.481 65.8468 119.481C67.7704 119.481 69.583 118.734 70.9428 117.377C71.8271 116.486 72.4351 115.419 72.7668 114.29C74.0711 115.431 75.7403 116.055 77.4978 116.055C79.4214 116.055 81.234 115.307 82.5936 113.95C83.9532 112.593 84.6939 110.784 84.6939 108.855C84.6939 108.74 84.6939 108.625 84.6939 108.51C86.6504 108.604 88.6403 107.903 90.1325 106.41C92.0007 104.544 92.664 101.769 91.9454 99.2828L95.7812 95.4458L95.8143 95.6312C96.1679 97.4033 97.7265 98.6336 99.4731 98.6336C99.7164 98.6336 99.9594 98.6101 100.203 98.5611L109.532 96.7028C110.505 96.508 111.356 95.9432 111.909 95.1137C112.462 94.2838 112.661 93.2903 112.462 92.3127L107.587 67.8205H114.706C115.734 67.8205 116.585 66.9817 116.585 65.9455V47.6877C116.585 46.6518 115.734 45.8127 114.706 45.8127Z" fill="#083863"/>
</svg>
