<svg width="120" height="120" viewBox="0 0 120 120" fill="none" xmlns="http://www.w3.org/2000/svg">
<g clip-path="url(#clip0_110_19431)">
<path fill-rule="evenodd" clip-rule="evenodd" d="M15.7722 78.7139C19.5393 78.7139 22.593 81.7676 22.593 85.5347C22.593 89.3018 19.5393 92.3555 15.7722 92.3555C12.0051 92.3555 8.95117 89.3016 8.95117 85.5347C8.95141 81.7678 12.0051 78.7139 15.7722 78.7139ZM15.7722 27.6443C19.5393 27.6443 22.593 30.6982 22.593 34.4651C22.593 38.232 19.5393 41.2859 15.7722 41.2859C12.0051 41.2859 8.95117 38.2322 8.95117 34.4651C8.95117 30.698 12.0051 27.6443 15.7722 27.6443ZM59.9999 2.10938C63.767 2.10938 66.8207 5.16328 66.8207 8.93016C66.8207 12.6973 63.7668 15.7509 59.9999 15.7509C56.2331 15.7509 53.1791 12.6973 53.1791 8.93016C53.1791 5.16328 56.2328 2.10938 59.9999 2.10938ZM104.227 27.6443C107.995 27.6443 111.048 30.6982 111.048 34.4651C111.048 38.232 107.994 41.2859 104.227 41.2859C100.461 41.2859 97.4066 38.2322 97.4066 34.4651C97.4066 30.698 100.461 27.6443 104.227 27.6443ZM104.227 78.7139C107.995 78.7139 111.048 81.7676 111.048 85.5347C111.048 89.3018 107.994 92.3555 104.227 92.3555C100.461 92.3555 97.4066 89.3016 97.4066 85.5347C97.4066 81.7678 100.461 78.7139 104.227 78.7139ZM59.9999 104.249C63.767 104.249 66.8207 107.302 66.8207 111.07C66.8207 114.837 63.7668 117.89 59.9999 117.89C56.2331 117.89 53.1791 114.837 53.1791 111.07C53.1791 107.303 56.2328 104.249 59.9999 104.249Z" fill="#66B7E0"/>
<path fill-rule="evenodd" clip-rule="evenodd" d="M104.226 90.4797C101.498 90.4797 99.2763 88.26 99.2763 85.5319C99.2763 82.8061 101.498 80.5884 104.226 80.5884C106.957 80.5884 109.176 82.8058 109.176 85.5319C109.176 88.26 106.957 90.4797 104.226 90.4797ZM66.4113 105.201L95.9369 88.1597C95.6739 87.3295 95.5312 86.4462 95.5312 85.5321C95.5312 81.3813 98.4562 77.9048 102.354 77.0447V42.9525C98.4562 42.0926 95.5312 38.6126 95.5312 34.4618C95.5312 33.5477 95.6737 32.6655 95.9369 31.8387L66.4145 14.7954C64.8238 16.5342 62.5368 17.6264 59.9999 17.6264C57.463 17.6264 55.177 16.5342 53.5853 14.7954L24.0641 31.8387C24.3273 32.6655 24.4698 33.5477 24.4698 34.4618C24.4698 38.6126 21.5439 42.0926 17.6472 42.9525V77.0444C21.5437 77.9046 24.4698 81.3811 24.4698 85.5319C24.4698 86.4459 24.3271 87.3293 24.063 88.1594L53.5886 105.2C55.1805 103.464 57.4652 102.372 59.9999 102.372C62.5347 102.372 64.8205 103.464 66.4113 105.201ZM59.9999 116.019C57.2706 116.019 55.0509 113.797 55.0509 111.069C55.0509 108.341 57.2706 106.119 59.9999 106.119C62.7292 106.119 64.9499 108.341 64.9499 111.069C64.9499 113.797 62.7292 116.019 59.9999 116.019ZM15.7736 90.4797C13.0443 90.4797 10.8236 88.26 10.8236 85.5319C10.8236 82.8061 13.0443 80.5884 15.7736 80.5884C18.5029 80.5884 20.7224 82.8058 20.7224 85.5319C20.7224 88.26 18.5027 90.4797 15.7736 90.4797ZM10.8234 34.4618C10.8234 31.7358 13.0441 29.5183 15.7734 29.5183C18.5027 29.5183 20.7222 31.7358 20.7222 34.4618C20.7222 37.1899 18.5027 39.4085 15.7734 39.4085C13.0443 39.4085 10.8234 37.1901 10.8234 34.4618ZM59.9999 3.97896C62.7292 3.97896 64.9499 6.20084 64.9499 8.92896C64.9499 11.6594 62.7292 13.879 59.9999 13.879C57.2706 13.879 55.0509 11.6592 55.0509 8.92896C55.0509 6.20084 57.2706 3.97896 59.9999 3.97896ZM104.226 29.5183C106.957 29.5183 109.176 31.7358 109.176 34.4618C109.176 37.1899 106.956 39.4085 104.226 39.4085C101.498 39.4085 99.2763 37.1899 99.2763 34.4618C99.2763 31.736 101.498 29.5183 104.226 29.5183ZM106.101 77.0447V42.9525C109.999 42.0926 112.924 38.6126 112.924 34.4618C112.924 29.6686 109.022 25.7709 104.226 25.7709C101.691 25.7709 99.4056 26.8608 97.8138 28.5975L68.2928 11.5512C68.5548 10.7243 68.6973 9.84209 68.6973 8.92896C68.6973 4.13365 64.7952 0.233887 59.9999 0.233887C55.2046 0.233887 51.3037 4.13389 51.3037 8.92896C51.3037 9.84209 51.4462 10.7243 51.7082 11.5512L22.1849 28.5977C20.5942 26.861 18.3084 25.7712 15.7736 25.7712C10.9771 25.7712 7.07617 29.6688 7.07617 34.462C7.07617 38.6128 10.0021 42.0928 13.8998 42.9527V77.0447C10.0021 77.9048 7.07617 81.3813 7.07617 85.5321C7.07617 90.3274 10.9771 94.2274 15.7736 94.2274C18.3084 94.2274 20.593 93.1376 22.1838 91.4008L51.7105 108.442C51.4464 109.272 51.3037 110.153 51.3037 111.07C51.3037 115.865 55.2046 119.767 59.9999 119.767C64.7952 119.767 68.6973 115.865 68.6973 111.07C68.6973 110.153 68.5525 109.272 68.2893 108.442L97.8161 91.4008C99.408 93.1376 101.693 94.2274 104.226 94.2274C109.022 94.2274 112.924 90.3274 112.924 85.5321C112.924 81.3811 109.999 77.9046 106.101 77.0447Z" fill="#0D365B"/>
<path d="M42.2154 50.9269L58.6999 34.4384C59.4151 33.7232 60.5745 33.7232 61.2897 34.4384L77.7742 50.9269C78.2979 51.4509 78.4545 52.2387 78.1711 52.9232C77.8877 53.6077 77.22 54.0541 76.4793 54.0542L69.1528 54.0542L69.1528 79.7031C69.1528 80.7149 68.3328 81.5352 67.3212 81.5352L52.6684 81.5352C51.6568 81.5352 50.8368 80.7149 50.8368 79.7031L50.8368 54.0542L43.5103 54.0542C42.7696 54.0541 42.1019 53.6077 41.8185 52.9232C41.5351 52.2387 41.6917 51.4509 42.2154 50.9269Z" fill="#BB45FF"/>
<path d="M43.0521 56.1289L48.5469 56.1289L48.5469 79.9457C48.5469 81.9694 50.187 83.6099 52.2101 83.6099L66.863 83.6099C68.8861 83.6099 70.5262 81.9694 70.5262 79.9457L70.5262 56.1289L76.0211 56.1289C77.5024 56.1286 78.8378 55.2359 79.4047 53.8669C79.9715 52.4979 79.6583 50.9222 78.6109 49.8743L62.1265 33.3857C60.696 31.9553 58.3772 31.9553 56.9467 33.3857L40.4622 49.8743C39.4149 50.9222 39.1016 52.4979 39.6685 53.8669C40.2353 55.2359 41.5707 56.1286 43.0521 56.1289ZM43.0521 52.4648L59.5366 35.9763L76.0211 52.4648L68.6946 52.4648C67.683 52.4648 66.863 53.2851 66.863 54.2969L66.863 79.9457L52.2101 79.9457L52.2101 67.1213L52.2101 54.2969C52.2101 53.2851 51.3901 52.4648 50.3785 52.4648L43.0411 52.4776L43.0521 52.4648Z" fill="#0D365B"/>
</g>
<defs>
<clipPath id="clip0_110_19431">
<rect width="120" height="120" fill="white"/>
</clipPath>
</defs>
</svg>
