<svg width="120" height="120" viewBox="0 0 120 120" fill="none" xmlns="http://www.w3.org/2000/svg">
<g clip-path="url(#clip0_110_19293)">
<path fill-rule="evenodd" clip-rule="evenodd" d="M42.1504 82.0796H77.5075V102.219H42.1504V82.0796Z" fill="#66B7E0"/>
<path fill-rule="evenodd" clip-rule="evenodd" d="M21.6104 110.806H98.0468V104.913C98.0468 101.672 94.7281 99.02 90.6715 99.02H28.9859C24.9293 99.02 21.6106 101.672 21.6106 104.913L21.6104 110.806Z" fill="white"/>
<path fill-rule="evenodd" clip-rule="evenodd" d="M12.2275 8.48389H107.43C112.187 8.48389 116.079 12.3759 116.079 17.1326V76.6305C116.079 81.3872 112.187 85.2792 107.43 85.2792H12.2275C7.4709 85.2792 3.5791 81.3874 3.5791 76.6305V17.1326C3.57887 12.3759 7.47066 8.48389 12.2275 8.48389Z" fill="white"/>
<path fill-rule="evenodd" clip-rule="evenodd" d="M12.0101 15.7163H107.647C108.307 15.7163 108.846 16.2563 108.846 16.9158V70.5181H10.8105V16.9156C10.8105 16.2561 11.3503 15.7163 12.0101 15.7163Z" fill="#D8ECFE"/>
<path fill-rule="evenodd" clip-rule="evenodd" d="M33.8461 58.3184H39.9309C40.5232 58.3184 41.0064 58.8016 41.0064 59.3939V69.6356C41.0064 70.2279 40.5232 70.7112 39.9309 70.7112H33.8461C33.2538 70.7112 32.7705 70.2281 32.7705 69.6356V59.3939C32.7705 58.8014 33.2538 58.3184 33.8461 58.3184Z" fill="#FE646F"/>
<path fill-rule="evenodd" clip-rule="evenodd" d="M38.1953 58.3184H39.9316C40.5238 58.3184 41.0071 58.8016 41.0071 59.3939V69.6356C41.0071 70.2279 40.5238 70.7112 39.9316 70.7112H38.1953C38.7876 70.7112 39.2709 70.2281 39.2709 69.6356V59.3939C39.2706 58.8014 38.7876 58.3184 38.1953 58.3184Z" fill="#FD4755"/>
<path fill-rule="evenodd" clip-rule="evenodd" d="M49.139 44.4233H55.2239C55.8161 44.4233 56.2994 44.9064 56.2994 45.4989V69.6358C56.2994 70.228 55.8164 70.7113 55.2239 70.7113H49.139C48.5465 70.7113 48.0635 70.2283 48.0635 69.6358V45.4989C48.0632 44.9066 48.5465 44.4233 49.139 44.4233Z" fill="#BB45FF"/>
<path fill-rule="evenodd" clip-rule="evenodd" d="M53.4873 44.4233H55.2236C55.8158 44.4233 56.2991 44.9064 56.2991 45.4989V69.6358C56.2991 70.228 55.8161 70.7113 55.2236 70.7113H53.4873C54.0798 70.7113 54.5629 70.2283 54.5629 69.6358V45.4989C54.5629 44.9066 54.0798 44.4233 53.4873 44.4233Z" fill="#BB45FF"/>
<path fill-rule="evenodd" clip-rule="evenodd" d="M64.432 50.04H70.5171C71.1096 50.04 71.5926 50.5231 71.5926 51.1156V69.6357C71.5926 70.2282 71.1096 70.7112 70.5171 70.7112C68.4888 70.7112 66.4605 70.7112 64.432 70.7112C63.8395 70.7112 63.3564 70.2279 63.3564 69.6357C63.3564 61.2197 63.3564 59.5315 63.3564 51.1156C63.3567 50.5231 63.8397 50.04 64.432 50.04Z" fill="#FFE177"/>
<path fill-rule="evenodd" clip-rule="evenodd" d="M68.7812 50.04H70.5175C71.11 50.04 71.593 50.5231 71.593 51.1156V69.6357C71.593 70.2282 71.11 70.7112 70.5175 70.7112H68.7812C69.3738 70.7112 69.8568 70.2279 69.8568 69.6357C69.8568 61.2197 69.8568 59.5315 69.8568 51.1156C69.8568 50.5231 69.3738 50.04 68.7812 50.04Z" fill="#FFD064"/>
<path fill-rule="evenodd" clip-rule="evenodd" d="M79.725 33.6196H85.81C86.4023 33.6196 86.8856 34.1027 86.8856 34.6952V69.6356C86.8856 70.2281 86.4023 70.7111 85.81 70.7111H79.725C79.1327 70.7111 78.6494 70.2281 78.6494 69.6356V34.6952C78.6494 34.1027 79.1325 33.6196 79.725 33.6196Z" fill="#66B7E0"/>
<path fill-rule="evenodd" clip-rule="evenodd" d="M84.0732 33.6196H85.8095C86.4018 33.6196 86.885 34.1027 86.885 34.6952V69.6356C86.885 70.2281 86.4018 70.7111 85.8095 70.7111H84.0732C84.6655 70.7111 85.1488 70.2281 85.1488 69.6356V34.6952C85.1488 34.1027 84.6657 33.6196 84.0732 33.6196Z" fill="#60B7FF"/>
<path d="M36.8896 50.189C39.1549 50.189 40.9912 48.3526 40.9912 46.0874C40.9912 43.8222 39.1549 41.9858 36.8896 41.9858C34.6244 41.9858 32.7881 43.8222 32.7881 46.0874C32.7881 48.3526 34.6244 50.189 36.8896 50.189Z" fill="#FE646F"/>
<path fill-rule="evenodd" clip-rule="evenodd" d="M36.8894 41.9858C39.1546 41.9858 40.991 43.8222 40.991 46.0874C40.991 48.3526 39.1546 50.189 36.8894 50.189C36.7047 50.189 36.5229 50.1765 36.3447 50.1529C38.3526 49.8864 39.9016 48.1679 39.9016 46.0874C39.9016 44.0069 38.3524 42.2884 36.3447 42.0219C36.5229 41.9983 36.7047 41.9858 36.8894 41.9858Z" fill="#FD4755"/>
<path d="M52.1816 38.2808C54.4469 38.2808 56.2832 36.4444 56.2832 34.1792C56.2832 31.914 54.4469 30.0776 52.1816 30.0776C49.9164 30.0776 48.0801 31.914 48.0801 34.1792C48.0801 36.4444 49.9164 38.2808 52.1816 38.2808Z" fill="#BB45FF"/>
<path fill-rule="evenodd" clip-rule="evenodd" d="M52.1824 30.0776C54.4476 30.0776 56.2839 31.914 56.2839 34.1792C56.2839 36.4444 54.4476 38.2808 52.1824 38.2808C51.9977 38.2808 51.8158 38.2683 51.6377 38.2447C53.6454 37.9782 55.1946 36.2597 55.1946 34.1792C55.1946 32.0987 53.6454 30.3802 51.6377 30.1137C51.8161 30.0901 51.9977 30.0776 52.1824 30.0776Z" fill="#BB45FF"/>
<path d="M67.4746 41.4917C69.7398 41.4917 71.5762 39.6554 71.5762 37.3901C71.5762 35.1249 69.7398 33.2886 67.4746 33.2886C65.2094 33.2886 63.373 35.1249 63.373 37.3901C63.373 39.6554 65.2094 41.4917 67.4746 41.4917Z" fill="#FFE177"/>
<path fill-rule="evenodd" clip-rule="evenodd" d="M67.4754 33.2886C69.7406 33.2886 71.5769 35.1249 71.5769 37.3901C71.5769 39.6554 69.7406 41.4917 67.4754 41.4917C67.2907 41.4917 67.1088 41.4793 66.9307 41.4556C68.9386 41.1891 70.4875 39.4707 70.4875 37.3901C70.4875 35.3096 68.9383 33.5912 66.9307 33.3247C67.1088 33.301 67.2907 33.2886 67.4754 33.2886Z" fill="#FFD064"/>
<path d="M86.5861 25.2812C87.4537 23.1881 86.4603 20.788 84.3672 19.9204C82.2741 19.0528 79.874 20.0463 79.0064 22.1394C78.1389 24.2324 79.1323 26.6325 81.2254 27.5001C83.3185 28.3677 85.7186 27.3742 86.5861 25.2812Z" fill="#8AC9FE"/>
<path fill-rule="evenodd" clip-rule="evenodd" d="M82.7673 19.6113C85.0326 19.6113 86.8689 21.4477 86.8689 23.7129C86.8689 25.9781 85.0326 27.8145 82.7673 27.8145C82.5827 27.8145 82.4008 27.802 82.2227 27.7784C84.2305 27.5119 85.7795 25.7934 85.7795 23.7129C85.7795 21.6323 84.2303 19.9139 82.2227 19.6474C82.4008 19.6237 82.5827 19.6113 82.7673 19.6113Z" fill="#60B7FF"/>
<path fill-rule="evenodd" clip-rule="evenodd" d="M36.8928 44.4272C37.8061 44.4272 38.5498 45.173 38.5498 46.0863C38.5498 47.0009 37.8061 47.7434 36.8928 47.7434C35.9782 47.7434 35.2325 47.0009 35.2325 46.0863C35.2327 45.173 35.9785 44.4272 36.8928 44.4272ZM52.1853 32.5207C53.0998 32.5207 53.8423 33.2641 53.8423 34.1787C53.8423 35.092 53.0998 35.8357 52.1853 35.8357C51.2719 35.8357 50.5261 35.092 50.5261 34.1787C50.5259 33.2641 51.2717 32.5207 52.1853 32.5207ZM67.4785 35.7298C68.3918 35.7298 69.1355 36.4755 69.1355 37.3889C69.1355 38.3034 68.3921 39.0459 67.4785 39.0459C66.564 39.0459 65.8193 38.3034 65.8193 37.3889C65.8193 36.4755 66.564 35.7298 67.4785 35.7298ZM82.7696 22.0537C83.6829 22.0537 84.4287 22.7972 84.4287 23.7108C84.4287 24.6253 83.6829 25.3699 82.7696 25.3699C81.855 25.3699 81.1116 24.6253 81.1116 23.7108C81.1116 22.7972 81.855 22.0537 82.7696 22.0537ZM36.8928 51.4943C39.8736 51.4943 42.2996 49.0683 42.2996 46.0866C42.2996 45.5152 42.2103 44.9667 42.0469 44.4483L49.3355 38.7724C50.1628 39.2876 51.1404 39.5855 52.185 39.5855C54.109 39.5855 55.8012 38.5727 56.761 37.0538L62.1268 38.1811C62.5118 40.7902 64.7644 42.7957 67.4782 42.7957C70.459 42.7957 72.885 40.3699 72.885 37.3889C72.885 36.6884 72.7493 36.0199 72.5077 35.4066L80.24 28.4897C80.9946 28.8912 81.8571 29.1206 82.7696 29.1206C85.7525 29.1206 88.1785 26.6925 88.1785 23.7108C88.1785 20.73 85.7527 18.3042 82.7696 18.3042C79.7876 18.3042 77.3618 20.7302 77.3618 23.7108C77.3618 24.4113 77.4975 25.0798 77.7392 25.6943L70.0071 32.61C69.2525 32.2097 68.39 31.98 67.4787 31.98C65.5526 31.98 63.8602 32.9927 62.9016 34.5129L57.5346 33.3853C57.1496 30.7774 54.897 28.7707 52.1853 28.7707C49.2022 28.7707 46.7764 31.1967 46.7764 34.1784C46.7764 34.7477 46.8657 35.2983 47.029 35.8134L39.7404 41.4905C38.9131 40.9774 37.9355 40.6774 36.893 40.6774C33.9089 40.6774 31.4832 43.1032 31.4832 46.0863C31.4829 49.0683 33.9087 51.4943 36.8928 51.4943ZM114.211 76.6277V17.1326C114.211 13.3962 111.166 10.3591 107.427 10.3591H12.2293C8.49285 10.3591 5.45582 13.3962 5.45582 17.1326V76.6277C5.45582 80.3641 8.49285 83.4012 12.2293 83.4012H107.427C111.166 83.4014 114.211 80.3644 114.211 76.6277ZM75.6343 97.1426H44.0271V87.1512H75.6343V97.1426ZM96.173 104.91V108.93H23.4882V104.91C23.4882 102.733 26.0056 100.893 28.9864 100.893H90.6748C93.6556 100.893 96.173 102.733 96.173 104.91ZM107.427 6.60938H12.2293C6.4266 6.60938 1.70605 11.3287 1.70605 17.1326V76.6277C1.70605 82.4304 6.4266 87.1509 12.2293 87.1509H40.2764V97.1423H28.9866C23.8878 97.1423 19.7386 100.628 19.7386 104.91V110.804C19.7386 111.838 20.5782 112.68 21.6141 112.68H98.0475C99.0835 112.68 99.923 111.838 99.923 110.804V104.91C99.923 100.628 95.775 97.1423 90.675 97.1423H79.3852V87.1509H107.427C113.24 87.1509 117.951 82.4304 117.951 76.6277V17.1326C117.951 11.3287 113.24 6.60938 107.427 6.60938ZM106.974 68.835V17.5891H12.6893V68.835H30.8993V58.3162C30.8993 57.2803 31.7389 56.4408 32.7748 56.4408H41.011C42.0436 56.4408 42.8853 57.2803 42.8853 58.3162V68.835H46.1925V44.423C46.1925 43.387 47.0309 42.5475 48.0668 42.5475H56.303C57.3366 42.5475 58.1785 43.387 58.1785 44.423V68.835H61.4846V50.0379C61.4846 49.002 62.3241 48.1636 63.36 48.1636H71.5964C72.63 48.1636 73.4719 49.002 73.4719 50.0379V68.835H76.7759V33.6183C76.7759 32.5823 77.6175 31.7428 78.6502 31.7428H86.8866C87.9225 31.7428 88.7621 32.5823 88.7621 33.6183V68.835H106.974ZM85.0111 68.835H80.5257V35.4926H85.0111V68.835ZM69.7212 68.835H65.2357V51.9134H69.7212V68.835ZM54.4278 68.835H49.9423V46.2982H54.4278V68.835ZM39.1357 68.835H34.6503V60.1917H39.1357V68.835ZM107.647 13.8384H12.0108C10.3175 13.8384 8.9384 15.2196 8.9384 16.9141V70.7105C8.9384 71.7441 9.77793 72.5848 10.8139 72.5848H108.85C109.887 72.5848 110.725 71.7441 110.725 70.7105V16.9141C110.725 15.2196 109.346 13.8384 107.647 13.8384Z" fill="#083863"/>
</g>
<defs>
<clipPath id="clip0_110_19293">
<rect width="120" height="120" fill="white"/>
</clipPath>
</defs>
</svg>
