<svg width="503" height="438" viewBox="0 0 503 438" fill="none" xmlns="http://www.w3.org/2000/svg">
<path d="M339.068 153.246L339.046 160.367C339.046 163.764 336.809 167.161 332.346 169.75C323.367 174.971 308.778 174.971 299.744 169.75C295.194 167.117 292.925 163.677 292.936 160.225L292.957 153.104C292.957 156.544 295.216 159.996 299.766 162.628C308.8 167.849 323.399 167.849 332.368 162.628C336.831 160.029 339.057 156.642 339.068 153.246Z" fill="url(#paint0_linear_46_28941)"/>
<path d="M339.052 153.234C339.072 145.851 328.767 139.836 316.034 139.801C303.301 139.765 292.962 145.722 292.942 153.106C292.921 160.489 303.226 166.504 315.959 166.539C328.692 166.575 339.031 160.618 339.052 153.234Z" fill="url(#paint1_linear_46_28941)"/>
<path d="M339.068 141.099L339.046 148.221C339.046 151.618 336.809 155.015 332.346 157.603C323.367 162.825 308.778 162.825 299.744 157.603C295.194 154.971 292.925 151.53 292.936 148.079L292.957 140.957C292.957 144.398 295.216 147.849 299.766 150.482C308.8 155.703 323.399 155.703 332.368 150.482C336.831 147.882 339.057 144.496 339.068 141.099Z" fill="url(#paint2_linear_46_28941)"/>
<path d="M339.052 141.087C339.072 133.704 328.767 127.689 316.034 127.653C303.301 127.618 292.962 133.575 292.942 140.958C292.921 148.342 303.226 154.356 315.959 154.392C328.692 154.428 339.031 148.471 339.052 141.087Z" fill="url(#paint3_linear_46_28941)"/>
<path d="M339.068 128.954L339.046 136.075C339.046 139.472 336.809 142.869 332.346 145.458C323.367 150.679 308.778 150.679 299.744 145.458C295.194 142.825 292.925 139.385 292.936 135.933L292.957 128.812C292.957 132.252 295.216 135.704 299.766 138.336C308.8 143.557 323.399 143.557 332.368 138.336C336.831 135.737 339.057 132.35 339.068 128.954Z" fill="url(#paint4_linear_46_28941)"/>
<path d="M339.052 128.94C339.072 121.556 328.767 115.542 316.034 115.506C303.301 115.471 292.962 121.427 292.942 128.811C292.921 136.195 303.226 142.209 315.959 142.245C328.692 142.28 339.031 136.324 339.052 128.94Z" fill="url(#paint5_linear_46_28941)"/>
<path d="M389.019 166.375L388.997 173.496C388.997 176.893 386.76 180.29 382.298 182.879C373.318 188.1 358.73 188.1 349.695 182.879C345.145 180.246 342.876 176.806 342.887 173.354L342.909 166.233C342.909 169.673 345.167 173.125 349.717 175.757C358.751 180.978 373.35 180.978 382.319 175.757C386.782 173.158 389.008 169.772 389.019 166.375Z" fill="url(#paint6_linear_46_28941)"/>
<path d="M382.21 156.85C391.245 162.071 391.288 170.536 382.319 175.757C373.339 180.978 358.751 180.978 349.717 175.757C340.683 170.536 340.639 162.071 349.608 156.85C358.588 151.629 373.176 151.629 382.21 156.85Z" fill="url(#paint7_linear_46_28941)"/>
<path d="M389.019 154.217L388.997 161.339C388.997 164.736 386.76 168.133 382.298 170.722C373.318 175.943 358.73 175.943 349.695 170.722C345.145 168.089 342.876 164.649 342.887 161.197L342.909 154.075C342.909 157.516 345.167 160.968 349.717 163.6C358.751 168.821 373.35 168.821 382.319 163.6C386.782 161 389.008 157.614 389.019 154.217Z" fill="url(#paint8_linear_46_28941)"/>
<path d="M382.21 144.704C391.245 149.925 391.288 158.39 382.319 163.611C373.339 168.832 358.751 168.832 349.717 163.611C340.683 158.39 340.639 149.925 349.608 144.704C358.588 139.483 373.176 139.483 382.21 144.704Z" fill="url(#paint9_linear_46_28941)"/>
<path d="M388.528 142.071L388.506 149.193C388.506 152.59 386.269 155.987 381.806 158.576C372.826 163.797 358.238 163.797 349.204 158.576C344.654 155.943 342.385 152.503 342.396 149.051L342.417 141.929C342.417 145.37 344.676 148.822 349.226 151.454C358.26 156.675 372.859 156.675 381.828 151.454C386.291 148.854 388.517 145.468 388.528 142.071Z" fill="url(#paint10_linear_46_28941)"/>
<path d="M388.51 142.074C388.53 134.69 378.225 128.675 365.492 128.64C352.759 128.604 342.42 134.561 342.4 141.945C342.379 149.328 352.684 155.343 365.417 155.378C378.15 155.414 388.489 149.457 388.51 142.074Z" fill="url(#paint11_linear_46_28941)"/>
<path d="M121.702 305.18L218.974 365.943" stroke="#238892" stroke-width="1.87" stroke-linecap="round" stroke-linejoin="round"/>
<path d="M261.67 377.488L346.296 327.866" stroke="#238892" stroke-width="1.87" stroke-linecap="round" stroke-linejoin="round"/>
<path d="M133.77 271.2L296.857 168.963" stroke="#238892" stroke-width="1.87" stroke-linecap="round" stroke-linejoin="round"/>
<path d="M134.947 161.885L391.215 325.114" stroke="#238892" stroke-width="1.87" stroke-linecap="round" stroke-linejoin="round"/>
<path d="M413.055 373.224L501.187 322.289C503.681 320.852 503.365 318.334 500.484 316.663L440.481 281.993C437.6 280.331 433.253 280.148 430.759 281.585L342.638 332.521C340.144 333.958 340.459 336.475 343.34 338.146L403.343 372.816C406.214 374.478 410.561 374.661 413.055 373.224Z" fill="#E0E5EC"/>
<path d="M321.982 242.298L410.103 191.362C411.131 190.771 412.17 190.68 413.086 190.996L413.076 190.985L413.239 191.046C413.249 191.057 413.269 191.057 413.28 191.057L416.466 192.28L413.605 193.676C413.615 193.727 413.636 193.778 413.646 193.829L428 259.236C428.723 262.507 427.277 266.329 424.783 267.776L338.78 317.489L339.085 321.137L335.604 319.782C334.433 319.231 333.496 317.998 333.109 316.235L318.755 250.828C318.053 247.567 319.498 243.745 321.982 242.298Z" fill="#173D7A"/>
<path d="M321.982 242.298L410.103 191.362C411.131 190.771 412.17 190.68 413.086 190.996L413.076 190.985L413.239 191.046C413.249 191.057 413.269 191.057 413.279 191.057L416.466 192.28L413.605 193.676C413.615 193.727 413.636 193.778 413.646 193.829L423.104 236.937L379.99 270.568L319.193 245.804C319.783 244.295 320.761 243.011 321.982 242.298Z" fill="#396CAA"/>
<path d="M325.311 252.356L318.602 249.493C318.48 246.894 319.559 244.203 321.32 242.766L331.938 247.24L325.311 252.356Z" fill="#274F89"/>
<path d="M342.159 320.801L430.28 269.865C432.774 268.428 434.21 264.607 433.497 261.325L419.143 195.918C418.42 192.647 415.824 191.159 413.33 192.596L325.209 243.531C322.715 244.968 321.279 248.79 321.992 252.071L336.346 317.478C337.069 320.75 339.665 322.238 342.159 320.801Z" fill="#D4ECFF"/>
<path d="M324.365 243.225L412.486 192.29C413.697 191.597 414.919 191.597 415.957 192.137C415.132 191.953 414.226 192.086 413.331 192.595L325.21 243.531C322.715 244.968 321.28 248.79 321.993 252.071L336.347 317.478C336.713 319.17 337.589 320.362 338.688 320.943C337.202 320.617 335.96 319.272 335.502 317.162L321.148 251.755C320.435 248.484 321.87 244.662 324.365 243.225Z" fill="white"/>
<path d="M344.073 315.929L426.952 268.051C429.232 266.736 430.545 263.23 429.894 260.244L416.761 200.392C416.099 197.395 413.717 196.04 411.437 197.355L328.559 245.233C326.278 246.547 324.965 250.053 325.616 253.039L338.749 312.892C339.411 315.888 341.793 317.254 344.073 315.929Z" fill="white"/>
<path d="M344.073 315.929L426.952 268.051C429.232 266.736 430.545 263.23 429.894 260.244L416.761 200.392C416.099 197.395 413.717 196.04 411.437 197.355L328.559 245.233C326.278 246.547 324.965 250.053 325.616 253.039L338.749 312.892C339.411 315.888 341.793 317.254 344.073 315.929Z" fill="#173D7A"/>
<path d="M343.351 315.634L426.229 267.755C428.509 266.441 429.823 262.935 429.171 259.949L416.038 200.096C415.703 198.578 414.929 197.487 413.952 196.947C415.265 197.283 416.354 198.516 416.761 200.392L429.894 260.244C430.556 263.241 429.232 266.736 426.952 268.051L344.074 315.929C342.944 316.581 341.793 316.571 340.847 316.041C341.63 316.245 342.496 316.133 343.351 315.634Z" fill="#5793CE"/>
<path d="M340.948 323.012L352.991 321.422L430.749 276.479C433.243 275.042 437.6 275.215 440.471 276.886L495.577 308.724L502.866 307.756V311.893H502.856C502.907 312.851 502.357 313.768 501.186 314.451L413.065 365.387C410.571 366.824 406.214 366.65 403.343 364.979L343.34 330.309C341.722 329.371 340.917 328.169 340.958 327.037V323.012H340.948Z" fill="#173D7A"/>
<path d="M399.373 294.619L404.901 291.429H465.637L495.577 308.724L502.866 307.756V311.893H502.856C502.907 312.851 502.357 313.769 501.186 314.451L413.065 365.387C411.752 366.151 409.91 366.457 408.047 366.324L399.373 294.619Z" fill="#396CAA"/>
<path d="M499.629 308.184L502.866 307.756V311.893H502.856C502.907 312.851 502.357 313.769 501.186 314.451L499.629 315.348V308.184Z" fill="#5793CE"/>
<path d="M412.169 365.795C409.807 366.692 406.427 366.498 403.903 365.285V356.052H412.169V365.795Z" fill="#274F89"/>
<path d="M413.055 361.249L501.187 310.314C503.681 308.877 503.365 306.36 500.484 304.688L440.481 270.018C437.6 268.357 433.253 268.173 430.759 269.61L342.638 320.546C340.144 321.983 340.459 324.5 343.34 326.171L403.343 360.842C406.214 362.513 410.561 362.696 413.055 361.249Z" fill="#D4ECFF"/>
<path d="M343.33 324.663L403.333 359.333C406.214 360.995 410.561 361.178 413.056 359.741L501.187 308.805C502.001 308.337 502.51 307.746 502.734 307.104C503.121 308.286 502.622 309.478 501.187 310.314L413.066 361.249C410.572 362.686 406.214 362.513 403.344 360.842L343.341 326.171C341.406 325.05 340.633 323.552 341.091 322.248C341.366 323.114 342.109 323.97 343.33 324.663Z" fill="white"/>
<path d="M463.703 293.458L467.693 291.155C468.009 290.971 467.978 290.645 467.602 290.431L462.898 287.71C462.532 287.496 461.972 287.476 461.646 287.659L457.656 289.962C457.34 290.146 457.371 290.472 457.747 290.686L462.45 293.407C462.827 293.621 463.387 293.641 463.703 293.458Z" fill="#5793CE"/>
<path d="M457.543 297.014L461.534 294.711C461.85 294.527 461.819 294.201 461.443 293.987L456.739 291.266C456.373 291.052 455.813 291.032 455.487 291.215L451.496 293.519C451.181 293.702 451.222 294.028 451.588 294.242L456.291 296.963C456.668 297.177 457.228 297.198 457.543 297.014Z" fill="#5793CE"/>
<path d="M451.385 300.571L455.376 298.268C455.691 298.084 455.65 297.758 455.284 297.544L450.581 294.823C450.214 294.609 449.654 294.589 449.328 294.772L445.338 297.075C445.022 297.259 445.063 297.585 445.429 297.799L450.133 300.52C450.509 300.734 451.069 300.754 451.385 300.571Z" fill="#5793CE"/>
<path d="M442.874 297.636L446.864 295.333C447.18 295.149 447.149 294.823 446.773 294.609L442.823 292.326C442.456 292.112 441.896 292.092 441.57 292.275L437.58 294.579C437.264 294.762 437.295 295.088 437.671 295.302L441.621 297.585C441.988 297.799 442.548 297.819 442.874 297.636Z" fill="#5793CE"/>
<path d="M436.714 301.192L440.705 298.889C441.021 298.706 440.99 298.38 440.613 298.166L436.663 295.883C436.297 295.669 435.737 295.648 435.411 295.832L431.421 298.135C431.105 298.318 431.136 298.645 431.512 298.859L435.462 301.141C435.839 301.355 436.389 301.376 436.714 301.192Z" fill="#5793CE"/>
<path d="M430.557 304.749L434.547 302.446C434.863 302.263 434.822 301.936 434.456 301.722L430.506 299.44C430.139 299.226 429.579 299.205 429.254 299.389L425.263 301.692C424.947 301.875 424.978 302.201 425.355 302.415L429.305 304.698C429.681 304.912 430.241 304.933 430.557 304.749Z" fill="#5793CE"/>
<path d="M424.397 308.306L428.387 306.003C428.703 305.819 428.662 305.493 428.296 305.279L424.346 302.996C423.979 302.782 423.419 302.762 423.093 302.945L419.103 305.249C418.787 305.432 418.818 305.758 419.194 305.972L423.144 308.255C423.521 308.469 424.081 308.5 424.397 308.306Z" fill="#5793CE"/>
<path d="M418.237 311.873L422.228 309.57C422.544 309.386 422.503 309.06 422.136 308.846L418.186 306.563C417.82 306.349 417.26 306.329 416.934 306.512L412.944 308.816C412.628 308.999 412.659 309.325 413.035 309.539L416.985 311.822C417.362 312.036 417.922 312.056 418.237 311.873Z" fill="#5793CE"/>
<path d="M412.079 315.43L416.069 313.126C416.385 312.943 416.354 312.617 415.978 312.403L412.028 310.12C411.661 309.906 411.101 309.886 410.776 310.069L406.785 312.372C406.469 312.556 406.5 312.882 406.877 313.096L410.826 315.379C411.203 315.593 411.763 315.613 412.079 315.43Z" fill="#5793CE"/>
<path d="M405.929 318.987L409.919 316.683C410.235 316.5 410.194 316.174 409.828 315.96L405.878 313.677C405.511 313.463 404.951 313.443 404.626 313.626L400.635 315.929C400.319 316.113 400.35 316.439 400.727 316.653L404.677 318.936C405.043 319.15 405.603 319.17 405.929 318.987Z" fill="#5793CE"/>
<path d="M399.771 322.543L403.761 320.24C404.077 320.057 404.036 319.731 403.67 319.517L399.72 317.234C399.353 317.02 398.793 316.999 398.467 317.183L394.477 319.486C394.161 319.67 394.192 319.996 394.568 320.21L398.518 322.492C398.885 322.706 399.445 322.737 399.771 322.543Z" fill="#5793CE"/>
<path d="M393.612 326.11L397.603 323.807C397.918 323.624 397.888 323.298 397.511 323.084L393.561 320.801C393.194 320.587 392.635 320.566 392.309 320.75L388.318 323.053C388.002 323.236 388.033 323.563 388.41 323.777L392.36 326.059C392.736 326.263 393.286 326.294 393.612 326.11Z" fill="#5793CE"/>
<path d="M387.452 329.666L391.442 327.363C391.758 327.18 391.727 326.854 391.351 326.64L387.401 324.357C387.034 324.143 386.474 324.122 386.149 324.306L382.158 326.609C381.842 326.793 381.873 327.119 382.25 327.333L386.2 329.616C386.576 329.83 387.136 329.85 387.452 329.666Z" fill="#5793CE"/>
<path d="M433.804 295.955L437.795 293.651C438.111 293.468 438.08 293.142 437.703 292.928L433.753 290.645C433.387 290.431 432.827 290.411 432.501 290.594L428.51 292.897C428.195 293.081 428.236 293.407 428.602 293.621L432.552 295.904C432.919 296.107 433.478 296.138 433.804 295.955Z" fill="#5793CE"/>
<path d="M440.044 292.336L444.034 290.033C444.35 289.85 444.319 289.524 443.943 289.31L439.993 287.027C439.626 286.813 439.066 286.792 438.74 286.976L434.75 289.279C434.434 289.462 434.465 289.789 434.841 290.003L438.791 292.285C439.168 292.499 439.728 292.52 440.044 292.336Z" fill="#5793CE"/>
<path d="M446.306 288.719L454.898 283.756C455.214 283.572 455.173 283.246 454.806 283.032L450.856 280.749C450.49 280.535 449.93 280.515 449.604 280.698L441.012 285.662C440.696 285.845 440.737 286.171 441.104 286.385L445.054 288.668C445.43 288.882 445.99 288.902 446.306 288.719Z" fill="#5793CE"/>
<path d="M441.927 284.316L448.9 280.291C449.216 280.107 449.185 279.781 448.809 279.567L444.859 277.284C444.492 277.07 443.932 277.05 443.607 277.233L436.633 281.259C436.318 281.442 436.348 281.768 436.725 281.982L440.675 284.265C441.051 284.479 441.611 284.51 441.927 284.316Z" fill="#5793CE"/>
<path d="M427.644 299.511L431.635 297.208C431.95 297.024 431.92 296.698 431.543 296.484L427.593 294.201C427.227 293.987 426.667 293.967 426.341 294.15L422.35 296.454C422.035 296.637 422.065 296.963 422.442 297.177L426.392 299.46C426.758 299.674 427.318 299.694 427.644 299.511Z" fill="#5793CE"/>
<path d="M421.484 303.068L425.475 300.765C425.79 300.581 425.76 300.255 425.383 300.041L421.433 297.758C421.067 297.544 420.507 297.524 420.181 297.708L416.19 300.011C415.875 300.194 415.915 300.52 416.282 300.734L420.232 303.017C420.598 303.231 421.158 303.252 421.484 303.068Z" fill="#5793CE"/>
<path d="M415.327 306.625L419.317 304.321C419.633 304.138 419.602 303.812 419.226 303.598L415.276 301.315C414.909 301.101 414.349 301.08 414.024 301.264L410.033 303.567C409.717 303.751 409.758 304.077 410.125 304.291L414.075 306.574C414.451 306.788 415.011 306.808 415.327 306.625Z" fill="#5793CE"/>
<path d="M409.167 310.181L413.157 307.878C413.473 307.694 413.442 307.368 413.066 307.154L409.116 304.872C408.749 304.658 408.189 304.637 407.863 304.821L403.873 307.124C403.557 307.307 403.598 307.633 403.964 307.847L407.914 310.13C408.291 310.344 408.851 310.375 409.167 310.181Z" fill="#5793CE"/>
<path d="M403.008 313.748L406.999 311.445C407.315 311.262 407.284 310.935 406.907 310.721L402.957 308.439C402.591 308.225 402.031 308.204 401.705 308.388L397.715 310.691C397.399 310.874 397.43 311.2 397.806 311.414L401.756 313.697C402.133 313.901 402.693 313.932 403.008 313.748Z" fill="#5793CE"/>
<path d="M396.849 317.305L400.84 315.002C401.155 314.818 401.125 314.492 400.748 314.278L396.798 311.995C396.432 311.781 395.872 311.761 395.546 311.944L391.555 314.248C391.24 314.431 391.281 314.757 391.647 314.971L395.597 317.254C395.974 317.468 396.534 317.488 396.849 317.305Z" fill="#5793CE"/>
<path d="M390.7 320.862L394.69 318.559C395.006 318.375 394.975 318.049 394.599 317.835L390.649 315.552C390.282 315.338 389.722 315.318 389.397 315.501L385.406 317.805C385.09 317.988 385.131 318.314 385.498 318.528L389.448 320.811C389.814 321.025 390.374 321.045 390.7 320.862Z" fill="#5793CE"/>
<path d="M384.54 324.418L388.53 322.115C388.846 321.932 388.815 321.606 388.439 321.392L384.489 319.109C384.122 318.895 383.562 318.874 383.237 319.058L379.246 321.361C378.93 321.545 378.961 321.871 379.337 322.085L383.287 324.367C383.654 324.582 384.214 324.602 384.54 324.418Z" fill="#5793CE"/>
<path d="M378.382 327.975L382.373 325.672C382.689 325.489 382.658 325.163 382.281 324.949L378.331 322.666C377.965 322.452 377.405 322.431 377.079 322.615L373.089 324.918C372.773 325.101 372.804 325.428 373.18 325.642L377.13 327.924C377.497 328.138 378.057 328.169 378.382 327.975Z" fill="#5793CE"/>
<path d="M367.437 334.304L376.142 329.28C376.457 329.096 376.427 328.77 376.05 328.556L372.1 326.273C371.734 326.059 371.174 326.039 370.848 326.222L362.144 331.247C361.828 331.43 361.859 331.756 362.235 331.97L366.185 334.253C366.552 334.467 367.112 334.487 367.437 334.304Z" fill="#5793CE"/>
<path d="M355.445 327.374L362.785 323.135C363.101 322.951 363.07 322.625 362.694 322.411L358.744 320.128C358.377 319.914 357.817 319.894 357.491 320.077L350.151 324.317C349.836 324.5 349.877 324.826 350.243 325.04L354.193 327.323C354.57 327.537 355.13 327.568 355.445 327.374Z" fill="#5793CE"/>
<path d="M416.853 298.808L420.844 296.505C421.159 296.321 421.129 295.995 420.752 295.781L416.802 293.498C416.436 293.284 415.876 293.264 415.55 293.447L411.559 295.75C411.244 295.934 411.284 296.26 411.651 296.474L415.601 298.757C415.978 298.971 416.537 299.001 416.853 298.808Z" fill="#5793CE"/>
<path d="M423.165 295.169L427.155 292.866C427.471 292.683 427.44 292.357 427.064 292.143L423.114 289.86C422.747 289.646 422.187 289.625 421.862 289.809L417.871 292.112C417.555 292.295 417.586 292.622 417.962 292.836L421.912 295.118C422.289 295.322 422.849 295.353 423.165 295.169Z" fill="#5793CE"/>
<path d="M429.477 291.521L433.467 289.218C433.783 289.034 433.742 288.708 433.376 288.494L429.426 286.211C429.059 285.997 428.499 285.977 428.174 286.16L424.183 288.464C423.867 288.647 423.898 288.973 424.274 289.187L428.224 291.47C428.601 291.684 429.161 291.704 429.477 291.521Z" fill="#5793CE"/>
<path d="M435.788 287.873L439.779 285.57C440.094 285.386 440.054 285.06 439.687 284.846L435.737 282.563C435.371 282.349 434.811 282.329 434.485 282.512L430.494 284.815C430.179 284.999 430.209 285.325 430.586 285.539L434.536 287.822C434.913 288.036 435.473 288.056 435.788 287.873Z" fill="#5793CE"/>
<path d="M410.704 302.375L414.694 300.072C415.01 299.888 414.979 299.562 414.603 299.348L410.653 297.065C410.286 296.851 409.726 296.831 409.401 297.014L405.41 299.317C405.094 299.501 405.125 299.827 405.502 300.041L409.451 302.324C409.818 302.538 410.378 302.558 410.704 302.375Z" fill="#5793CE"/>
<path d="M404.545 305.932L408.536 303.628C408.852 303.445 408.821 303.119 408.445 302.905L404.495 300.622C404.128 300.408 403.568 300.388 403.242 300.571L399.252 302.874C398.936 303.058 398.967 303.384 399.343 303.598L403.293 305.881C403.66 306.095 404.22 306.115 404.545 305.932Z" fill="#5793CE"/>
<path d="M398.385 309.488L402.376 307.185C402.692 307.002 402.661 306.675 402.284 306.461L398.334 304.179C397.968 303.965 397.408 303.944 397.082 304.128L393.092 306.431C392.776 306.614 392.817 306.94 393.183 307.154L397.133 309.437C397.51 309.651 398.06 309.672 398.385 309.488Z" fill="#5793CE"/>
<path d="M392.227 313.045L396.218 310.742C396.533 310.558 396.503 310.232 396.126 310.018L392.176 307.736C391.81 307.522 391.25 307.501 390.924 307.685L386.933 309.988C386.618 310.171 386.648 310.497 387.025 310.711L390.975 312.994C391.352 313.208 391.912 313.229 392.227 313.045Z" fill="#5793CE"/>
<path d="M386.068 316.601L390.059 314.298C390.374 314.115 390.344 313.789 389.967 313.575L386.017 311.292C385.651 311.078 385.091 311.057 384.765 311.241L380.774 313.544C380.459 313.727 380.489 314.054 380.866 314.268L384.816 316.55C385.192 316.764 385.752 316.795 386.068 316.601Z" fill="#5793CE"/>
<path d="M379.909 320.169L383.899 317.865C384.215 317.682 384.184 317.356 383.808 317.142L379.858 314.859C379.491 314.645 378.931 314.625 378.606 314.808L374.615 317.111C374.299 317.295 374.34 317.621 374.707 317.835L378.667 320.118C379.033 320.332 379.593 320.352 379.909 320.169Z" fill="#5793CE"/>
<path d="M373.751 323.726L377.741 321.423C378.057 321.239 378.026 320.913 377.65 320.699L373.7 318.416C373.333 318.202 372.773 318.182 372.447 318.365L368.457 320.668C368.141 320.852 368.172 321.178 368.548 321.392L372.498 323.675C372.875 323.889 373.435 323.909 373.751 323.726Z" fill="#5793CE"/>
<path d="M367.6 327.282L371.591 324.979C371.906 324.796 371.876 324.469 371.499 324.255L367.549 321.973C367.183 321.759 366.623 321.738 366.297 321.922L362.306 324.225C361.991 324.408 362.021 324.734 362.398 324.948L366.348 327.231C366.714 327.445 367.274 327.466 367.6 327.282Z" fill="#5793CE"/>
<path d="M361.441 330.839L365.432 328.536C365.748 328.352 365.707 328.026 365.341 327.812L361.391 325.529C361.024 325.315 360.464 325.295 360.138 325.478L356.148 327.781C355.832 327.965 355.863 328.291 356.239 328.505L360.189 330.788C360.556 331.002 361.116 331.022 361.441 330.839Z" fill="#5793CE"/>
<path d="M420.101 290.013L424.092 287.71C424.407 287.526 424.377 287.2 424 286.986L420.05 284.703C419.684 284.489 419.124 284.469 418.798 284.652L414.807 286.956C414.492 287.139 414.522 287.465 414.899 287.679L418.849 289.962C419.226 290.176 419.775 290.196 420.101 290.013Z" fill="#5793CE"/>
<path d="M426.229 286.467L430.22 284.163C430.535 283.98 430.505 283.654 430.128 283.44L426.178 281.157C425.812 280.943 425.252 280.923 424.926 281.106L420.935 283.409C420.62 283.593 420.65 283.919 421.027 284.133L424.977 286.416C425.343 286.63 425.903 286.65 426.229 286.467Z" fill="#5793CE"/>
<path d="M432.358 282.93L436.349 280.627C436.664 280.443 436.634 280.117 436.257 279.903L432.307 277.62C431.941 277.406 431.381 277.386 431.055 277.569L427.064 279.873C426.749 280.056 426.779 280.382 427.156 280.596L431.106 282.879C431.472 283.093 432.032 283.113 432.358 282.93Z" fill="#5793CE"/>
<path d="M438.476 279.383L442.467 277.08C442.782 276.897 442.752 276.571 442.375 276.357L438.425 274.074C438.059 273.86 437.499 273.839 437.173 274.023L433.182 276.326C432.867 276.509 432.897 276.835 433.274 277.049L437.224 279.332C437.601 279.546 438.161 279.567 438.476 279.383Z" fill="#5793CE"/>
<path d="M432.185 275.745L436.176 273.442C436.491 273.259 436.461 272.932 436.084 272.718L434.781 271.964C434.415 271.75 433.855 271.73 433.529 271.913L429.538 274.217C429.223 274.4 429.263 274.726 429.63 274.94L430.933 275.694C431.299 275.908 431.859 275.929 432.185 275.745Z" fill="#5793CE"/>
<path d="M424.182 280.362L428.173 278.059C428.488 277.876 428.458 277.55 428.081 277.336L426.778 276.581C426.412 276.367 425.852 276.347 425.526 276.531L421.535 278.834C421.22 279.017 421.25 279.343 421.627 279.557L422.93 280.311C423.307 280.525 423.867 280.556 424.182 280.362Z" fill="#5793CE"/>
<path d="M418.084 283.888L422.074 281.585C422.39 281.401 422.359 281.075 421.983 280.861L420.68 280.107C420.313 279.893 419.753 279.873 419.427 280.056L415.437 282.359C415.121 282.543 415.152 282.869 415.528 283.083L416.831 283.837C417.198 284.051 417.758 284.082 418.084 283.888Z" fill="#5793CE"/>
<path d="M411.986 287.414L415.977 285.111C416.292 284.928 416.262 284.601 415.885 284.387L414.582 283.633C414.215 283.419 413.655 283.399 413.33 283.582L409.339 285.885C409.023 286.069 409.054 286.395 409.431 286.609L410.734 287.363C411.1 287.577 411.66 287.608 411.986 287.414Z" fill="#5793CE"/>
<path d="M405.878 290.94L409.869 288.637C410.185 288.454 410.154 288.128 409.778 287.914L408.474 287.159C408.108 286.945 407.548 286.925 407.222 287.108L403.232 289.412C402.916 289.595 402.957 289.921 403.323 290.135L404.626 290.889C405.003 291.103 405.563 291.134 405.878 290.94Z" fill="#5793CE"/>
<path d="M371.815 310.629L375.806 308.326C376.121 308.143 376.091 307.817 375.714 307.603L374.411 306.849C374.044 306.635 373.485 306.614 373.159 306.798L369.168 309.101C368.853 309.284 368.883 309.61 369.26 309.824L370.563 310.579C370.939 310.793 371.499 310.813 371.815 310.629Z" fill="#5793CE"/>
<path d="M365.718 314.155L369.709 311.852C370.024 311.669 369.983 311.343 369.617 311.129L368.314 310.374C367.947 310.16 367.387 310.14 367.062 310.323L363.071 312.627C362.755 312.81 362.786 313.136 363.163 313.35L364.466 314.104C364.832 314.318 365.392 314.339 365.718 314.155Z" fill="#5793CE"/>
<path d="M359.619 317.682L363.609 315.378C363.925 315.195 363.894 314.869 363.518 314.655L362.215 313.901C361.848 313.687 361.288 313.666 360.962 313.85L356.972 316.153C356.656 316.336 356.697 316.662 357.063 316.876L358.367 317.631C358.733 317.845 359.293 317.865 359.619 317.682Z" fill="#5793CE"/>
<path d="M353.512 321.208L357.502 318.905C357.818 318.722 357.777 318.396 357.411 318.182L356.108 317.427C355.741 317.213 355.181 317.193 354.856 317.376L350.865 319.68C350.549 319.863 350.59 320.189 350.957 320.403L352.26 321.157C352.636 321.371 353.196 321.402 353.512 321.208Z" fill="#5793CE"/>
<path d="M413.941 293.57L417.932 291.267C418.247 291.083 418.217 290.757 417.84 290.543L413.89 288.26C413.524 288.046 412.964 288.026 412.638 288.209L408.647 290.513C408.332 290.696 408.362 291.022 408.739 291.236L412.689 293.519C413.065 293.733 413.625 293.753 413.941 293.57Z" fill="#5793CE"/>
<path d="M407.783 297.126L411.773 294.823C412.089 294.64 412.059 294.313 411.682 294.099L407.732 291.817C407.365 291.603 406.805 291.582 406.48 291.766L402.489 294.069C402.173 294.252 402.204 294.578 402.581 294.792L406.531 297.075C406.907 297.289 407.467 297.31 407.783 297.126Z" fill="#5793CE"/>
<path d="M401.624 300.683L405.614 298.38C405.93 298.196 405.899 297.87 405.523 297.656L401.573 295.373C401.206 295.159 400.646 295.139 400.32 295.323L396.33 297.626C396.014 297.809 396.045 298.135 396.421 298.349L400.371 300.632C400.748 300.846 401.308 300.867 401.624 300.683Z" fill="#5793CE"/>
<path d="M395.473 304.25L399.464 301.947C399.779 301.763 399.749 301.437 399.372 301.223L395.422 298.94C395.056 298.726 394.496 298.706 394.17 298.889L390.179 301.193C389.864 301.376 389.894 301.702 390.271 301.916L394.221 304.199C394.587 304.403 395.147 304.433 395.473 304.25Z" fill="#5793CE"/>
<path d="M389.316 307.807L393.307 305.504C393.622 305.32 393.592 304.994 393.215 304.78L389.265 302.497C388.899 302.283 388.339 302.263 388.013 302.446L384.022 304.75C383.707 304.933 383.737 305.259 384.114 305.473L388.064 307.756C388.43 307.97 388.99 307.99 389.316 307.807Z" fill="#5793CE"/>
<path d="M383.156 311.363L387.146 309.06C387.462 308.877 387.432 308.551 387.055 308.337L383.105 306.054C382.738 305.84 382.178 305.819 381.853 306.003L377.862 308.306C377.546 308.49 377.577 308.816 377.954 309.03L381.904 311.313C382.27 311.527 382.83 311.547 383.156 311.363Z" fill="#5793CE"/>
<path d="M376.997 314.92L380.987 312.617C381.303 312.434 381.272 312.108 380.896 311.894L376.946 309.611C376.579 309.397 376.019 309.376 375.694 309.56L371.703 311.863C371.387 312.046 371.428 312.373 371.794 312.587L375.744 314.869C376.121 315.083 376.681 315.104 376.997 314.92Z" fill="#5793CE"/>
<path d="M370.838 318.477L374.829 316.174C375.145 315.99 375.114 315.664 374.737 315.45L370.788 313.167C370.421 312.953 369.861 312.933 369.535 313.116L365.545 315.419C365.229 315.603 365.26 315.929 365.636 316.143L369.586 318.426C369.963 318.64 370.523 318.67 370.838 318.477Z" fill="#5793CE"/>
<path d="M364.678 322.044L368.669 319.741C368.985 319.557 368.954 319.231 368.577 319.017L364.627 316.734C364.261 316.52 363.701 316.5 363.375 316.683L359.384 318.987C359.069 319.17 359.099 319.496 359.476 319.71L363.426 321.993C363.803 322.197 364.363 322.227 364.678 322.044Z" fill="#5793CE"/>
<path d="M449.145 294.008L460.883 287.221C461.198 287.037 461.168 286.711 460.791 286.497L456.841 284.215C456.475 284.001 455.915 283.98 455.589 284.164L443.851 290.951C443.536 291.134 443.566 291.46 443.943 291.675L447.893 293.957C448.269 294.171 448.829 294.192 449.145 294.008Z" fill="#5793CE"/>
<path d="M373.496 337.728L385.244 330.94C385.559 330.757 385.519 330.431 385.152 330.217L381.202 327.934C380.836 327.72 380.276 327.7 379.95 327.883L368.212 334.67C367.896 334.854 367.927 335.18 368.304 335.394L372.254 337.677C372.62 337.891 373.18 337.911 373.496 337.728Z" fill="#5793CE"/>
<path d="M398.12 331.359L402.11 329.055C402.426 328.872 402.395 328.546 402.019 328.332L397.315 325.611C396.949 325.397 396.389 325.376 396.063 325.56L392.073 327.863C391.757 328.046 391.788 328.373 392.164 328.587L396.867 331.308C397.244 331.522 397.804 331.542 398.12 331.359Z" fill="#5793CE"/>
<path d="M442.843 305.514L449.216 301.824C449.532 301.641 449.491 301.315 449.125 301.101L444.421 298.38C444.055 298.166 443.495 298.145 443.169 298.329L436.796 302.018C436.481 302.202 436.511 302.528 436.888 302.742L441.591 305.463C441.958 305.677 442.518 305.697 442.843 305.514Z" fill="#5793CE"/>
<path d="M404.057 327.924L410.43 324.235C410.745 324.052 410.715 323.726 410.338 323.512L405.635 320.79C405.268 320.576 404.708 320.556 404.383 320.74L398.01 324.429C397.694 324.612 397.735 324.938 398.101 325.152L402.805 327.873C403.181 328.087 403.741 328.118 404.057 327.924Z" fill="#5793CE"/>
<path d="M433.955 310.65L440.328 306.961C440.644 306.777 440.613 306.451 440.237 306.237L435.533 303.516C435.167 303.302 434.607 303.282 434.281 303.465L427.908 307.154C427.593 307.338 427.623 307.664 428 307.878L432.703 310.599C433.08 310.813 433.64 310.833 433.955 310.65Z" fill="#5793CE"/>
<path d="M434.242 303.496L406.521 319.516C406.175 319.72 406.175 320.036 406.521 320.24L411.316 323.012C411.662 323.216 412.222 323.216 412.558 323.012L440.279 306.991L434.242 303.496Z" fill="#5793CE"/>
<path d="M380.917 337.81L376.478 340.378C376.213 340.531 376.244 340.796 376.549 340.969L378.473 342.08C378.779 342.253 379.237 342.274 379.502 342.121L383.94 339.552C384.205 339.4 384.174 339.135 383.869 338.961L381.945 337.851C381.64 337.677 381.181 337.657 380.917 337.81Z" fill="#5793CE"/>
<path d="M387.128 334.222L382.689 336.791C382.424 336.943 382.455 337.208 382.76 337.382L384.684 338.492C384.99 338.666 385.448 338.686 385.713 338.533L390.151 335.965C390.416 335.812 390.385 335.547 390.08 335.374L388.156 334.263C387.84 334.09 387.382 334.07 387.128 334.222Z" fill="#5793CE"/>
<path d="M393.285 330.665L388.846 333.234C388.582 333.387 388.612 333.652 388.917 333.825L390.842 334.936C391.147 335.109 391.605 335.129 391.87 334.976L396.308 332.408C396.573 332.255 396.543 331.99 396.237 331.817L394.313 330.706C393.997 330.533 393.539 330.513 393.285 330.665Z" fill="#5793CE"/>
<path d="M383.726 332.255L379.288 334.824C379.023 334.976 379.053 335.241 379.359 335.415L381.283 336.525C381.588 336.699 382.047 336.719 382.311 336.566L386.75 333.998C387.015 333.845 386.984 333.58 386.679 333.407L384.754 332.296C384.439 332.123 383.981 332.102 383.726 332.255Z" fill="#5793CE"/>
<path d="M359.394 262.812L392.562 243.643L392.144 241.482L358.977 260.652L359.394 262.812Z" fill="white"/>
<path d="M371.274 266.461L394.435 253.07L394.007 250.92L370.847 264.301L371.274 266.461Z" fill="white"/>
<path d="M373.463 259.939L393.498 248.361L393.07 246.201L373.046 257.778L373.463 259.939Z" fill="#33BD72"/>
<path d="M360.33 267.531L370.348 261.743L369.92 259.582L359.903 265.371L360.33 267.531Z" fill="#D4ECFF"/>
<path d="M377.72 241.411C378.035 242.104 378.85 242.359 379.522 241.961C380.193 241.574 380.489 240.687 380.163 239.994C379.847 239.301 379.033 239.047 378.361 239.444C377.689 239.831 377.404 240.718 377.72 241.411Z" fill="#D4ECFF"/>
<path d="M373.403 243.908C373.719 244.601 374.533 244.856 375.205 244.458C375.877 244.071 376.172 243.184 375.847 242.491C375.531 241.798 374.717 241.544 374.045 241.941C373.373 242.328 373.088 243.215 373.403 243.908Z" fill="white"/>
<path d="M369.098 246.405C369.413 247.098 370.228 247.352 370.9 246.955C371.571 246.568 371.867 245.681 371.541 244.988C371.225 244.295 370.411 244.04 369.739 244.438C369.067 244.825 368.772 245.701 369.098 246.405Z" fill="#D4ECFF"/>
<path d="M364.78 248.892C365.096 249.585 365.91 249.839 366.582 249.442C367.254 249.055 367.549 248.168 367.223 247.475C366.908 246.782 366.093 246.527 365.422 246.925C364.75 247.312 364.465 248.199 364.78 248.892Z" fill="#33BD72"/>
<path d="M317.01 215.734L229.296 266.765C225.215 269.135 218.592 269.135 214.479 266.765L126.186 215.734C124.124 214.543 123.088 212.97 123.088 211.408L123.044 225.652C123.044 227.214 124.07 228.786 126.143 229.977L214.435 281.008C218.538 283.378 225.172 283.378 229.252 281.008L316.966 229.977C318.996 228.797 320.01 227.257 320.01 225.706L320.054 211.463C320.054 213.003 319.039 214.554 317.01 215.734Z" fill="url(#paint12_linear_46_28941)"/>
<path d="M316.956 207.149C321.058 209.519 321.08 213.364 316.999 215.734L229.285 266.765C225.204 269.135 218.581 269.135 214.468 266.765L126.176 215.734C122.073 213.364 122.051 209.519 126.132 207.149L213.846 156.118C217.927 153.748 224.55 153.748 228.663 156.118L316.956 207.149Z" fill="#D4ECFF"/>
<path d="M293.791 210.721L228.139 248.917C225.084 250.698 220.119 250.698 217.053 248.917L150.965 210.721C149.416 209.825 148.641 208.656 148.652 207.488L148.619 213.298C148.619 214.467 149.383 215.647 150.932 216.532L217.021 254.728C220.098 256.509 225.062 256.509 228.106 254.728L293.758 216.532C295.275 215.647 296.039 214.5 296.039 213.342L296.071 207.531C296.071 208.689 295.307 209.847 293.791 210.721Z" fill="#0A4479"/>
<path d="M293.758 204.287C296.835 206.067 296.846 208.94 293.791 210.721L228.139 248.917C225.084 250.698 220.12 250.698 217.054 248.917L150.965 210.721C147.888 208.94 147.877 206.067 150.933 204.287L216.584 166.09C219.64 164.31 224.604 164.31 227.67 166.09L293.758 204.287Z" fill="url(#paint13_linear_46_28941)"/>
<path d="M207.779 212.798L207.446 208.613C205.182 208.504 202.412 209.138 200.083 210.485C196.26 212.694 194.834 216.024 196.544 218.99C199.783 224.604 207.188 218.151 208.741 220.845C209.225 221.683 208.717 222.58 207.495 223.286C205.845 224.24 202.805 224.669 200.367 224.206L200.629 228.372C203.429 228.836 206.75 228.215 209.396 226.685C212.924 224.646 214.82 221.347 212.953 218.109C209.663 212.404 202.179 218.721 200.665 216.095C200.247 215.371 200.694 214.629 201.689 214.054C203.001 213.296 205.557 212.814 207.779 212.798Z" fill="white"/>
<path d="M216.172 206.046C214.159 207.209 212.67 208.704 211.243 210.675L213.918 212.751C214.864 211.359 216.003 210.249 217.021 209.66C218.559 208.772 219.742 208.993 220.408 210.148L220.486 210.284L217.297 212.127C214.293 213.924 213.412 216.214 214.757 218.545C216.05 220.787 218.524 221.47 221.148 219.953C222.799 218.999 223.729 217.737 223.933 216.261L224.73 217.642L228.687 215.354L224.091 207.385C222.45 204.591 219.542 204.098 216.172 206.046ZM220.812 216.495C219.771 217.096 218.847 216.906 218.364 216.068C217.868 215.208 218.198 214.474 219.329 213.82L221.726 212.435L222.34 213.499C222.627 214.571 222.01 215.802 220.812 216.495Z" fill="white"/>
<path d="M229.755 198.195C227.742 199.359 226.252 200.854 224.826 202.825L227.501 204.901C228.447 203.509 229.586 202.398 230.603 201.81C232.141 200.921 233.324 201.143 233.99 202.298L234.069 202.433L230.88 204.277C227.875 206.073 226.995 208.363 228.34 210.695C229.632 212.936 232.107 213.619 234.73 212.103C236.381 211.149 237.312 209.887 237.516 208.41L238.312 209.791L242.27 207.504L237.674 199.535C236.032 196.741 233.124 196.248 229.755 198.195ZM234.394 208.645C233.354 209.246 232.43 209.056 231.947 208.218C231.451 207.358 231.781 206.623 232.912 205.97L235.309 204.584L235.923 205.648C236.209 206.72 235.593 207.952 234.394 208.645Z" fill="white"/>
<path d="M249.565 188.647L249.232 184.463C246.968 184.353 244.198 184.988 241.868 186.334C238.046 188.543 236.62 191.873 238.33 194.839C241.568 200.453 248.973 194 250.527 196.694C251.01 197.532 250.503 198.429 249.281 199.135C247.63 200.089 244.591 200.518 242.153 200.055L242.414 204.221C245.215 204.685 248.536 204.064 251.182 202.534C254.71 200.495 256.606 197.196 254.739 193.958C251.449 188.253 243.965 194.57 242.45 191.944C242.033 191.22 242.48 190.478 243.475 189.903C244.786 189.145 247.343 188.664 249.565 188.647Z" fill="white"/>
<path d="M136.923 275.23L129.656 283.553L129.612 298.135L136.89 289.823L136.923 275.23Z" fill="url(#paint14_linear_46_28941)"/>
<path d="M86.7861 305.453C86.7861 305.388 86.797 305.322 86.808 305.257C86.808 305.18 86.8298 305.104 86.8407 305.027C86.8516 304.962 86.8625 304.896 86.8843 304.82C86.9062 304.743 86.9171 304.667 86.9389 304.601C86.9607 304.536 86.9825 304.47 86.9934 304.394C87.0153 304.317 87.0371 304.241 87.0698 304.175C87.0916 304.11 87.1135 304.044 87.1462 303.979C87.1789 303.902 87.2117 303.826 87.2444 303.749C87.2771 303.684 87.299 303.618 87.3317 303.553C87.3644 303.476 87.4081 303.4 87.4517 303.323C87.4844 303.258 87.5172 303.203 87.5499 303.138C87.6045 303.05 87.659 302.952 87.7136 302.865C87.7463 302.81 87.779 302.755 87.8227 302.701C87.8881 302.602 87.9645 302.504 88.0409 302.406C88.0736 302.362 88.1064 302.318 88.1391 302.275C88.2591 302.122 88.401 301.958 88.5428 301.805C88.5755 301.761 88.6192 301.729 88.6519 301.685C88.761 301.565 88.8811 301.456 89.0011 301.335C89.0556 301.281 89.1102 301.226 89.1647 301.182C89.2411 301.117 89.3066 301.051 89.383 300.986C89.4484 300.931 89.5248 300.866 89.6012 300.811C89.6776 300.746 89.7539 300.691 89.8412 300.625C89.9176 300.571 89.994 300.505 90.0704 300.451C90.1577 300.385 90.2449 300.33 90.3322 300.265C90.4086 300.21 90.4959 300.156 90.5832 300.101C90.6705 300.046 90.7687 299.981 90.8669 299.926C90.9869 299.85 91.096 299.784 91.2269 299.708C91.5543 299.511 91.9034 299.337 92.2635 299.162C92.3617 299.118 92.449 299.074 92.5472 299.031C92.8636 298.878 93.1909 298.747 93.5292 298.616C93.5728 298.594 93.6165 298.583 93.6601 298.561C94.0202 298.419 94.3911 298.299 94.7621 298.179C95.024 298.102 95.2858 298.026 95.5477 297.949C95.7441 297.895 95.9514 297.84 96.1478 297.785C96.4315 297.72 96.7152 297.665 96.9989 297.6C97.2062 297.556 97.4135 297.512 97.6208 297.469C97.7081 297.458 97.7954 297.447 97.8827 297.425C98.2318 297.37 98.5919 297.316 98.952 297.272C99.0502 297.261 99.1593 297.25 99.2575 297.239C99.6721 297.196 100.087 297.163 100.501 297.13C100.578 297.13 100.654 297.13 100.73 297.119C101.014 297.108 101.287 297.097 101.571 297.097C101.854 297.097 102.127 297.097 102.411 297.097C102.64 297.097 102.88 297.097 103.109 297.119C103.371 297.119 103.633 297.141 103.884 297.163C104.124 297.174 104.353 297.196 104.593 297.217C104.855 297.239 105.106 297.272 105.357 297.305C105.586 297.338 105.815 297.37 106.044 297.403C106.317 297.447 106.59 297.491 106.862 297.545C107.081 297.589 107.288 297.633 107.495 297.676C107.823 297.742 108.139 297.829 108.445 297.906C108.652 297.96 108.859 298.015 109.056 298.069C109.165 298.102 109.274 298.135 109.383 298.168C109.699 298.266 110.005 298.375 110.31 298.485C110.398 298.517 110.485 298.55 110.583 298.583C110.856 298.692 111.129 298.812 111.401 298.932C111.532 298.987 111.674 299.042 111.794 299.107C112.176 299.293 112.558 299.489 112.918 299.697C115.94 301.445 117.457 303.738 117.446 306.032L117.49 291.45C117.49 289.157 115.984 286.863 112.962 285.115C112.602 284.908 112.22 284.711 111.838 284.525C111.707 284.46 111.576 284.405 111.445 284.351C111.216 284.252 110.987 284.143 110.758 284.045C110.714 284.034 110.67 284.012 110.638 284.001C110.55 283.968 110.463 283.936 110.365 283.903C110.059 283.794 109.754 283.684 109.438 283.586C109.328 283.553 109.219 283.52 109.11 283.488C109.034 283.466 108.968 283.444 108.892 283.422C108.761 283.389 108.63 283.357 108.499 283.324C108.183 283.236 107.866 283.16 107.55 283.094C107.463 283.073 107.386 283.051 107.299 283.029C107.168 283.007 107.048 282.985 106.917 282.963C106.644 282.909 106.371 282.865 106.099 282.821C105.99 282.8 105.88 282.778 105.771 282.767C105.651 282.745 105.531 282.745 105.411 282.723C105.16 282.69 104.899 282.658 104.648 282.636C104.528 282.625 104.408 282.603 104.287 282.592C104.178 282.592 104.058 282.592 103.949 282.57C103.687 282.548 103.426 282.537 103.175 282.526C103.044 282.526 102.913 282.505 102.782 282.505C102.673 282.505 102.574 282.505 102.465 282.505C102.182 282.505 101.909 282.505 101.625 282.505C101.483 282.505 101.341 282.505 101.211 282.505C101.069 282.505 100.927 282.516 100.785 282.526C100.709 282.526 100.632 282.526 100.556 282.537C100.207 282.559 99.8576 282.581 99.5084 282.614C99.443 282.614 99.3775 282.636 99.312 282.636C99.2029 282.647 99.1047 282.658 99.0065 282.668C98.6465 282.712 98.2973 282.767 97.9481 282.821C97.8609 282.832 97.7736 282.843 97.6863 282.865C97.6426 282.865 97.599 282.876 97.5663 282.887C97.4026 282.92 97.2389 282.963 97.0753 282.996C96.7916 283.051 96.5079 283.105 96.2242 283.182C96.0169 283.236 95.8205 283.291 95.6241 283.346C95.3622 283.422 95.0894 283.488 94.8385 283.575C94.7839 283.597 94.7294 283.608 94.6639 283.619C94.3475 283.717 94.042 283.837 93.7365 283.946C93.6928 283.968 93.6492 283.979 93.6055 284.001C93.2673 284.132 92.94 284.274 92.6235 284.416C92.5254 284.46 92.4381 284.503 92.3399 284.547C91.9798 284.722 91.6416 284.897 91.3033 285.093C91.2378 285.126 91.1833 285.17 91.1178 285.203C91.0633 285.235 91.0087 285.279 90.9542 285.312C90.856 285.366 90.7687 285.432 90.6705 285.487C90.5832 285.541 90.5068 285.596 90.4195 285.65C90.3322 285.716 90.2449 285.771 90.1576 285.836C90.0813 285.891 90.0049 285.945 89.9285 286.011C89.8521 286.076 89.7648 286.131 89.6885 286.196C89.6121 286.251 89.5466 286.317 89.4812 286.371C89.4048 286.437 89.3284 286.502 89.2629 286.568C89.2302 286.59 89.1975 286.622 89.1757 286.644C89.1538 286.666 89.1211 286.699 89.0993 286.721C88.9793 286.83 88.8592 286.95 88.7501 287.07C88.7174 287.114 88.6737 287.147 88.641 287.19C88.4992 287.343 88.3682 287.496 88.2482 287.66C88.2482 287.66 88.2373 287.671 88.2264 287.682C88.1937 287.715 88.1718 287.758 88.15 287.791C88.0736 287.89 87.9973 287.988 87.9318 288.086C87.8991 288.141 87.8554 288.195 87.8227 288.25C87.7681 288.337 87.7027 288.436 87.659 288.523C87.6481 288.545 87.6263 288.578 87.6154 288.599C87.5936 288.632 87.5826 288.676 87.5608 288.709C87.5172 288.785 87.4844 288.862 87.4408 288.938C87.4081 289.004 87.3753 289.069 87.3535 289.135C87.3208 289.211 87.288 289.288 87.2553 289.364C87.2444 289.397 87.2226 289.43 87.2117 289.473C87.2008 289.506 87.1898 289.539 87.1789 289.572C87.1571 289.648 87.1244 289.725 87.1026 289.79C87.0807 289.856 87.0589 289.921 87.048 289.998C87.0262 290.074 87.0153 290.15 86.9934 290.227C86.9934 290.271 86.9716 290.303 86.9607 290.347C86.9607 290.369 86.9607 290.402 86.9498 290.434C86.9389 290.511 86.928 290.587 86.9171 290.664C86.9171 290.729 86.8952 290.795 86.8952 290.86C86.8952 290.937 86.8843 291.013 86.8734 291.09C86.8734 291.134 86.8734 291.177 86.8734 291.221C86.8734 291.265 86.8734 291.308 86.8734 291.352L86.8298 305.934C86.8298 305.846 86.8298 305.759 86.8407 305.661C86.8407 305.584 86.8407 305.508 86.8625 305.431L86.7861 305.453Z" fill="url(#paint15_linear_46_28941)"/>
<path d="M143.797 300.833L127.725 301.313C127.463 301.543 127.19 301.761 126.917 301.98C126.83 302.056 126.732 302.122 126.634 302.187C126.437 302.329 126.252 302.482 126.045 302.624C125.924 302.711 125.804 302.788 125.684 302.875C125.499 303.006 125.313 303.137 125.117 303.258C124.986 303.345 124.855 303.432 124.713 303.509C124.452 303.673 124.201 303.836 123.928 303.989C123.208 304.404 122.466 304.798 121.691 305.169C120.916 305.54 120.12 305.879 119.312 306.196L118.527 315.524L109.023 316.998L100.207 309.167C99.5197 309.145 98.8323 309.09 98.1449 309.047C97.9594 309.036 97.7631 309.014 97.5776 309.003C97.3266 308.981 97.0756 308.959 96.8247 308.926C96.5847 308.905 96.3446 308.872 96.1046 308.85C95.8536 308.817 95.6027 308.784 95.3517 308.752C95.1117 308.719 94.8825 308.686 94.6425 308.653C94.3697 308.61 94.1078 308.566 93.8351 308.522C93.6059 308.49 93.3768 308.446 93.1586 308.402C92.8967 308.358 92.6239 308.304 92.3621 308.249C92.1439 308.206 91.9256 308.162 91.7074 308.118C91.3692 308.042 91.0309 307.965 90.6818 307.889C90.5181 307.845 90.3435 307.812 90.1799 307.769C89.6998 307.648 89.2197 307.528 88.7505 307.386C88.7287 307.386 88.7069 307.375 88.6741 307.364L74.5989 311.537L74.6316 299.26C72.8313 297.152 71.7838 294.88 71.511 292.575L57.9704 287.496L57.9268 302.078L71.4674 307.157C71.5983 308.282 71.9256 309.396 72.4276 310.499L67.3648 307.572L67.3212 322.154L74.3043 326.195L88.6305 321.957C88.6523 321.957 88.6741 321.957 88.696 321.968C89.1651 322.099 89.6452 322.23 90.1253 322.35C90.289 322.394 90.4635 322.427 90.6272 322.471C90.9655 322.547 91.3037 322.623 91.6529 322.7C91.7183 322.711 91.7838 322.733 91.8493 322.744C92.002 322.776 92.1548 322.798 92.3075 322.831C92.5694 322.886 92.8422 322.94 93.104 322.984C93.3332 323.028 93.5514 323.06 93.7805 323.104C94.0424 323.148 94.3152 323.191 94.5879 323.235C94.6861 323.246 94.7734 323.268 94.8716 323.279C95.0135 323.301 95.1553 323.312 95.2971 323.333C95.5481 323.366 95.7991 323.399 96.05 323.432C96.2901 323.465 96.5301 323.486 96.7701 323.508C97.0211 323.53 97.272 323.563 97.523 323.585C97.6321 323.585 97.7303 323.607 97.8394 323.617C97.9267 323.617 98.014 323.617 98.0904 323.628C98.7778 323.683 99.4652 323.727 100.153 323.749L108.969 331.58L118.472 330.106L119.258 320.778C120.895 320.144 122.433 319.412 123.873 318.571C124.026 318.484 124.168 318.396 124.31 318.309C124.43 318.233 124.539 318.167 124.659 318.091C124.79 318.003 124.932 317.916 125.063 317.839C125.259 317.708 125.444 317.588 125.63 317.457C125.75 317.37 125.87 317.293 125.99 317.206C126.186 317.064 126.383 316.911 126.579 316.769C126.677 316.692 126.765 316.627 126.863 316.55C127.147 316.332 127.408 316.103 127.67 315.884L143.742 315.404L146.263 309.888L146.306 295.306L143.786 300.822L143.797 300.833Z" fill="url(#paint16_linear_46_28941)"/>
<path d="M123.94 304C122.499 304.841 120.95 305.573 119.324 306.207L118.539 315.535L109.035 317.009L100.219 309.178C96.2583 309.025 92.3303 308.435 88.6969 307.386L74.3707 311.624L67.3876 307.583L74.6544 299.26C72.854 297.152 71.8066 294.88 71.5338 292.575L57.9932 287.496L60.5136 281.98L76.5856 281.499C77.6767 280.549 78.9315 279.653 80.3718 278.812C81.812 277.971 83.3614 277.24 84.9871 276.606L85.7727 267.289L95.2763 265.814L104.092 273.646C108.053 273.799 111.981 274.4 115.625 275.437L129.941 271.199L136.924 275.241L129.657 283.564C131.457 285.672 132.505 287.944 132.778 290.238L146.318 295.317L143.798 300.833L127.726 301.313C126.635 302.263 125.38 303.159 123.94 304ZM91.3374 297.709C97.3494 301.182 107.071 301.182 113.05 297.709C119.03 294.235 118.997 288.599 112.985 285.115C106.973 281.641 97.2512 281.641 91.2719 285.115C85.2926 288.588 85.3254 294.224 91.3374 297.709Z" fill="#D4ECFF"/>
<path d="M169.917 321.215L165.891 325.813L165.869 333.885L169.895 329.286L169.917 321.215Z" fill="url(#paint17_linear_46_28941)"/>
<path d="M142.16 337.937C142.16 337.937 142.16 337.861 142.171 337.828C142.171 337.784 142.182 337.741 142.193 337.697C142.193 337.664 142.204 337.621 142.215 337.588C142.215 337.544 142.237 337.5 142.247 337.468C142.247 337.435 142.269 337.391 142.28 337.358C142.291 337.315 142.302 337.271 142.324 337.238C142.335 337.205 142.346 337.162 142.367 337.129C142.389 337.085 142.4 337.042 142.422 336.998C142.433 336.965 142.455 336.921 142.477 336.889C142.498 336.845 142.52 336.801 142.542 336.758C142.564 336.725 142.575 336.692 142.597 336.659C142.629 336.605 142.662 336.561 142.695 336.506C142.717 336.474 142.738 336.441 142.749 336.419C142.782 336.364 142.826 336.31 142.869 336.255C142.891 336.233 142.902 336.212 142.924 336.179C142.989 336.091 143.066 336.004 143.142 335.917C143.164 335.895 143.186 335.873 143.208 335.851C143.273 335.786 143.328 335.72 143.404 335.654C143.437 335.622 143.469 335.6 143.502 335.567C143.546 335.534 143.579 335.491 143.622 335.458C143.666 335.425 143.699 335.392 143.742 335.36C143.786 335.327 143.83 335.294 143.873 335.261C143.917 335.228 143.96 335.196 144.004 335.163C144.048 335.13 144.102 335.097 144.146 335.065C144.19 335.032 144.233 334.999 144.277 334.977C144.331 334.944 144.375 334.912 144.43 334.879C144.495 334.835 144.561 334.802 144.626 334.759C144.812 334.65 145.008 334.551 145.204 334.453C145.259 334.431 145.303 334.398 145.357 334.377C145.532 334.289 145.717 334.213 145.903 334.147C145.924 334.147 145.946 334.125 145.979 334.114C146.175 334.038 146.383 333.972 146.59 333.907C146.732 333.863 146.885 333.819 147.026 333.787C147.136 333.754 147.245 333.721 147.365 333.699C147.517 333.667 147.681 333.634 147.834 333.601C147.943 333.579 148.063 333.546 148.172 333.535C148.216 333.535 148.27 333.525 148.314 333.514C148.51 333.481 148.707 333.459 148.903 333.426C148.958 333.426 149.012 333.415 149.078 333.404C149.307 333.383 149.536 333.361 149.765 333.35C149.809 333.35 149.852 333.35 149.896 333.35C150.049 333.35 150.202 333.35 150.365 333.339C150.518 333.339 150.671 333.339 150.834 333.339C150.965 333.339 151.096 333.339 151.227 333.339C151.369 333.339 151.511 333.35 151.664 333.361C151.795 333.361 151.926 333.383 152.056 333.393C152.198 333.404 152.34 333.426 152.482 333.437C152.613 333.448 152.733 333.47 152.864 333.492C153.017 333.514 153.169 333.546 153.311 333.568C153.431 333.59 153.551 333.612 153.66 333.645C153.835 333.688 154.01 333.732 154.184 333.776C154.293 333.809 154.413 333.83 154.522 333.863C154.588 333.885 154.642 333.896 154.697 333.918C154.872 333.972 155.046 334.027 155.21 334.093C155.264 334.114 155.308 334.125 155.363 334.147C155.515 334.202 155.668 334.267 155.81 334.344C155.886 334.377 155.963 334.409 156.028 334.442C156.246 334.54 156.454 334.65 156.65 334.77C158.33 335.742 159.16 337.009 159.16 338.276L159.181 330.204C159.181 328.937 158.352 327.659 156.672 326.698C156.475 326.578 156.268 326.479 156.05 326.37C155.974 326.337 155.897 326.305 155.832 326.272C155.701 326.217 155.581 326.152 155.45 326.108C155.428 326.108 155.406 326.097 155.384 326.086C155.341 326.064 155.286 326.053 155.232 326.032C155.057 325.966 154.893 325.911 154.719 325.857C154.664 325.835 154.599 325.824 154.544 325.802C154.501 325.791 154.468 325.78 154.424 325.769C154.348 325.748 154.282 325.737 154.206 325.715C154.031 325.671 153.857 325.627 153.682 325.584C153.639 325.584 153.584 325.562 153.54 325.551C153.475 325.54 153.399 325.529 153.333 325.518C153.18 325.485 153.038 325.464 152.886 325.442C152.82 325.442 152.766 325.42 152.7 325.409C152.635 325.409 152.569 325.398 152.504 325.387C152.362 325.365 152.22 325.354 152.078 325.343C152.013 325.343 151.947 325.322 151.871 325.322C151.806 325.322 151.74 325.322 151.686 325.322C151.544 325.322 151.402 325.3 151.249 325.3C151.173 325.3 151.107 325.3 151.031 325.289C150.976 325.289 150.911 325.289 150.856 325.289C150.704 325.289 150.551 325.289 150.387 325.289C150.311 325.289 150.234 325.289 150.158 325.289C150.082 325.289 150.005 325.289 149.918 325.3C149.874 325.3 149.831 325.3 149.787 325.3C149.591 325.311 149.405 325.322 149.209 325.343C149.176 325.343 149.132 325.343 149.1 325.354C149.045 325.354 148.99 325.365 148.925 325.376C148.729 325.398 148.532 325.431 148.336 325.464C148.292 325.464 148.238 325.474 148.194 325.485C148.172 325.485 148.15 325.485 148.129 325.496C148.041 325.518 147.943 325.54 147.856 325.551C147.703 325.584 147.539 325.617 147.387 325.649C147.277 325.682 147.168 325.704 147.048 325.737C146.906 325.78 146.754 325.813 146.612 325.857C146.579 325.857 146.546 325.879 146.514 325.879C146.339 325.933 146.165 325.999 146.001 326.064C145.979 326.064 145.957 326.086 145.924 326.097C145.739 326.174 145.554 326.25 145.379 326.326C145.324 326.348 145.27 326.37 145.226 326.403C145.03 326.501 144.833 326.6 144.648 326.709C144.615 326.731 144.582 326.752 144.55 326.774C144.517 326.796 144.484 326.818 144.451 326.829C144.397 326.862 144.342 326.894 144.299 326.927C144.255 326.96 144.211 326.993 144.168 327.015C144.124 327.047 144.07 327.08 144.026 327.113C143.982 327.146 143.939 327.178 143.895 327.211C143.851 327.244 143.808 327.277 143.764 327.32C143.72 327.353 143.688 327.386 143.644 327.419C143.6 327.452 143.557 327.495 143.524 327.528C143.502 327.539 143.491 327.561 143.469 327.572C143.459 327.583 143.437 327.604 143.426 327.615C143.36 327.681 143.295 327.746 143.229 327.812C143.208 327.834 143.186 327.856 143.164 327.877C143.088 327.965 143.011 328.052 142.946 328.14C142.946 328.14 142.946 328.14 142.946 328.151C142.935 328.172 142.913 328.194 142.902 328.216C142.858 328.271 142.815 328.325 142.782 328.38C142.76 328.413 142.738 328.445 142.728 328.467C142.695 328.522 142.662 328.566 142.629 328.62C142.629 328.631 142.608 328.642 142.608 328.664C142.597 328.686 142.586 328.708 142.575 328.729C142.553 328.773 142.531 328.817 142.509 328.861C142.487 328.893 142.477 328.937 142.455 328.97C142.433 329.013 142.422 329.057 142.4 329.101C142.4 329.123 142.378 329.145 142.378 329.155C142.378 329.177 142.367 329.188 142.357 329.21C142.346 329.254 142.324 329.297 142.313 329.33C142.302 329.363 142.291 329.407 142.28 329.439C142.269 329.483 142.258 329.527 142.247 329.56C142.247 329.581 142.237 329.603 142.237 329.625C142.237 329.636 142.237 329.658 142.237 329.669C142.237 329.713 142.226 329.756 142.215 329.8C142.215 329.833 142.215 329.876 142.204 329.909C142.204 329.953 142.204 329.997 142.204 330.04C142.204 330.062 142.204 330.095 142.204 330.117C142.204 330.139 142.204 330.171 142.204 330.193L142.182 338.265C142.182 338.265 142.182 338.167 142.182 338.112C142.182 338.068 142.182 338.025 142.182 337.981L142.16 337.937Z" fill="url(#paint18_linear_46_28941)"/>
<path d="M173.715 335.381L164.822 335.644C164.68 335.764 164.528 335.895 164.375 336.015C164.32 336.059 164.277 336.091 164.222 336.135C164.113 336.212 164.004 336.299 163.895 336.375C163.829 336.419 163.764 336.463 163.698 336.517C163.589 336.594 163.491 336.659 163.382 336.736C163.306 336.78 163.229 336.834 163.164 336.878C163.022 336.965 162.88 337.053 162.727 337.14C162.324 337.369 161.92 337.588 161.483 337.795C161.058 338.003 160.621 338.189 160.163 338.363L159.727 343.53L154.468 344.349L149.59 340.013C149.209 340.002 148.827 339.969 148.445 339.947C148.336 339.947 148.237 339.936 148.128 339.925C147.986 339.914 147.845 339.903 147.714 339.882C147.583 339.871 147.441 339.849 147.31 339.838C147.168 339.827 147.037 339.805 146.895 339.783C146.764 339.761 146.634 339.751 146.503 339.729C146.35 339.707 146.208 339.685 146.055 339.663C145.924 339.641 145.804 339.619 145.684 339.598C145.532 339.576 145.39 339.543 145.248 339.51C145.128 339.488 145.008 339.467 144.888 339.434C144.702 339.39 144.506 339.346 144.32 339.303C144.233 339.281 144.135 339.259 144.048 339.237C143.786 339.172 143.513 339.106 143.262 339.03C143.251 339.03 143.24 339.03 143.218 339.03L135.428 341.334L135.45 334.54C134.446 333.372 133.878 332.116 133.726 330.838L126.23 328.02L126.208 336.091L133.704 338.909C133.78 339.532 133.955 340.155 134.239 340.755L131.434 339.139L131.413 347.211L135.275 349.45L143.207 347.101C143.218 347.101 143.229 347.101 143.24 347.101C143.502 347.178 143.764 347.243 144.026 347.309C144.113 347.331 144.211 347.353 144.299 347.375C144.484 347.418 144.67 347.462 144.866 347.506C144.899 347.506 144.942 347.527 144.975 347.527C145.062 347.549 145.15 347.56 145.226 347.571C145.368 347.604 145.521 347.626 145.662 347.659C145.782 347.68 145.913 347.702 146.033 347.724C146.186 347.746 146.328 347.768 146.481 347.79C146.535 347.79 146.59 347.811 146.634 347.811C146.71 347.822 146.786 347.833 146.874 347.844C147.015 347.866 147.146 347.877 147.288 347.899C147.419 347.91 147.55 347.932 147.692 347.943C147.834 347.953 147.976 347.975 148.107 347.986C148.161 347.986 148.227 347.997 148.281 348.008C148.325 348.008 148.379 348.008 148.423 348.008C148.805 348.041 149.187 348.063 149.569 348.074L154.446 352.41L159.705 351.591L160.141 346.424C161.047 346.075 161.898 345.671 162.695 345.201C162.782 345.157 162.858 345.103 162.935 345.059C163 345.015 163.066 344.982 163.12 344.939C163.197 344.895 163.273 344.84 163.338 344.797C163.447 344.731 163.546 344.655 163.655 344.589C163.72 344.546 163.786 344.502 163.851 344.447C163.96 344.371 164.069 344.283 164.179 344.207C164.233 344.163 164.288 344.13 164.331 344.087C164.484 343.967 164.637 343.847 164.779 343.715L173.671 343.453L175.068 340.395L175.09 332.323L173.693 335.381H173.715Z" fill="url(#paint19_linear_46_28941)"/>
<path d="M162.728 337.14C161.931 337.599 161.069 338.014 160.175 338.363L159.738 343.53L154.479 344.349L149.602 340.013C147.409 339.925 145.238 339.598 143.219 339.019L135.287 341.367L131.424 339.128L135.45 334.518C134.446 333.35 133.879 332.094 133.726 330.816L126.23 327.998L127.627 324.939L136.531 324.666C137.131 324.142 137.829 323.639 138.625 323.181C139.422 322.722 140.284 322.307 141.179 321.957L141.615 316.802L146.874 315.983L151.751 320.319C153.945 320.406 156.116 320.734 158.134 321.313L166.056 318.965L169.918 321.204L165.892 325.813C166.896 326.982 167.463 328.238 167.616 329.505L175.112 332.323L173.715 335.381L164.823 335.644C164.223 336.168 163.524 336.67 162.728 337.129V337.14ZM144.681 333.656C148.009 335.578 153.388 335.578 156.705 333.656C160.011 331.733 160 328.609 156.661 326.687C153.334 324.764 147.954 324.764 144.637 326.687C141.331 328.609 141.342 331.733 144.681 333.656Z" fill="#D4ECFF"/>
<path d="M77.5885 247.388C77.5885 249.409 76.1701 251.866 74.4134 252.882C72.6567 253.898 71.2383 253.09 71.2383 251.069C71.2383 249.048 72.6567 246.591 74.4134 245.575C76.1701 244.559 77.5885 245.367 77.5885 247.388Z" fill="white"/>
<path d="M300.447 383.878L260.611 407.056C257.84 408.673 253.344 408.673 250.551 407.056L172.024 361.585C170.617 360.777 169.918 359.706 169.918 358.647L169.896 364.479C169.896 365.539 170.595 366.609 172.002 367.418L250.529 412.889C253.322 414.505 257.818 414.494 260.589 412.889L300.426 389.722C301.8 388.924 302.488 387.876 302.499 386.827L302.52 380.995C302.52 382.043 301.833 383.092 300.447 383.889V383.878Z" fill="#396CAA"/>
<path d="M300.414 378.056C303.208 379.673 303.219 382.272 300.447 383.889L260.611 407.056C257.84 408.673 253.344 408.673 250.551 407.056L172.024 361.585C169.231 359.968 169.22 357.358 171.991 355.752L211.828 332.585C214.599 330.968 219.094 330.979 221.888 332.585L300.414 378.056Z" fill="#D4ECFF"/>
<path d="M295.035 377.685L221.374 335.316C218.898 333.885 214.904 333.885 212.438 335.316L207.157 338.385L207.79 339.084C208.521 339.892 208.314 341.159 207.386 341.694L193.115 349.941C192.711 350.17 192.22 350.236 191.773 350.094L188.641 349.144L177.075 355.872C174.61 357.303 174.631 359.63 177.108 361.06L250.769 403.43C253.246 404.86 257.239 404.86 259.705 403.43L295.079 382.851C297.545 381.42 297.523 379.105 295.046 377.674L295.035 377.685Z" fill="#173D7A"/>
<path d="M222.23 153.708L219.869 107.512" stroke="#238892" stroke-width="1.87" stroke-linecap="round" stroke-linejoin="round"/>
<path d="M256.596 62.9802C253.661 61.2763 249.602 61.5166 245.117 64.1053C244.364 64.5422 243.622 65.0337 242.902 65.5689L248.652 68.9112C249.373 68.376 250.115 67.8845 250.867 67.4476C255.352 64.8589 259.411 64.6186 262.346 66.3226L256.596 62.9802Z" fill="url(#paint20_linear_46_28941)"/>
<path d="M238.276 53.4448C235.34 51.7409 231.282 51.9812 226.797 54.5699C218.963 59.0919 212.449 69.2937 211.02 78.6544C210.158 79.0039 209.285 79.4408 208.39 79.9542C203.284 82.9033 198.657 87.9605 195.33 93.7605C193.911 93.8369 192.34 94.3394 190.681 95.2897C184.451 98.8941 179.41 107.621 179.421 114.798C179.421 117.495 180.152 119.582 181.385 120.958C180.032 123.569 179.203 126.397 179.214 128.986C179.214 131.826 180.229 133.836 181.844 134.775L187.594 138.118C185.979 137.178 184.975 135.179 184.964 132.329C184.964 129.74 185.782 126.911 187.135 124.3C185.902 122.935 185.182 120.838 185.171 118.14C185.15 110.964 190.191 102.236 196.432 98.632C198.09 97.6708 199.661 97.1793 201.08 97.1028C204.408 91.3138 209.034 86.2566 214.14 83.2965C215.035 82.7832 215.908 82.3463 216.77 81.9967C218.21 72.636 224.713 62.4451 232.547 57.9122C237.032 55.3235 241.091 55.0832 244.026 56.7872L238.276 53.4448Z" fill="#173D7A"/>
<path d="M232.559 57.9119C241.462 52.7673 248.707 56.8961 248.74 67.1416C248.74 67.7314 248.707 68.3103 248.663 68.9111C249.384 68.3759 250.126 67.8843 250.878 67.4474C259.782 62.3029 267.027 66.4316 267.06 76.6771C267.092 86.9226 259.891 99.3963 250.988 104.552L194.021 137.473C189.045 140.345 184.997 138.041 184.976 132.317C184.976 129.729 185.794 126.9 187.147 124.289C185.914 122.924 185.194 120.827 185.183 118.129C185.161 110.953 190.202 102.225 196.443 98.6208C198.102 97.6596 199.673 97.1681 201.091 97.0916C204.419 91.3026 209.045 86.2454 214.152 83.2853C215.046 82.772 215.919 82.3351 216.781 81.9855C218.222 72.6248 224.725 62.4339 232.559 57.901V57.9119Z" fill="#D4ECFF"/>
<path d="M271.533 68.3868C269.056 66.9451 265.63 67.1526 261.855 69.3371C261.222 69.6976 260.6 70.1236 259.989 70.5714L264.845 73.4004C265.456 72.9525 266.078 72.5375 266.71 72.1661C270.497 69.9816 273.923 69.774 276.389 71.2158L271.533 68.3868Z" fill="url(#paint21_linear_46_28941)"/>
<path d="M256.072 60.348C253.595 58.9062 250.169 59.1138 246.394 61.2983C239.782 65.1212 234.293 73.7174 233.082 81.6145C232.351 81.9094 231.62 82.2808 230.867 82.7068C226.557 85.1972 222.662 89.4679 219.847 94.3504C218.658 94.4159 217.316 94.831 215.919 95.6393C210.66 98.6758 206.405 106.049 206.427 112.1C206.427 114.372 207.048 116.141 208.085 117.299C206.939 119.505 206.252 121.886 206.252 124.071C206.252 126.474 207.103 128.156 208.467 128.953L213.322 131.782C211.958 130.985 211.107 129.303 211.107 126.9C211.107 124.715 211.795 122.323 212.94 120.128C211.904 118.97 211.293 117.212 211.282 114.929C211.26 108.878 215.515 101.505 220.775 98.4682C222.171 97.66 223.502 97.2449 224.703 97.1794C227.518 92.2969 231.413 88.0261 235.723 85.5358C236.476 85.0988 237.218 84.7384 237.938 84.4435C239.149 76.5464 244.637 67.9393 251.249 64.1273C255.024 61.9427 258.461 61.7352 260.927 63.177L256.072 60.348Z" fill="#173D7A"/>
<path d="M251.248 64.1165C258.755 59.7801 264.876 63.2645 264.898 71.9043C264.898 72.3959 264.876 72.8983 264.833 73.4007C265.444 72.9529 266.066 72.5379 266.698 72.1665C274.216 67.8192 280.326 71.3145 280.348 79.9544C280.37 88.6051 274.303 99.1237 266.786 103.471L218.723 131.247C214.522 133.672 211.107 131.728 211.096 126.9C211.096 124.716 211.783 122.323 212.929 120.128C211.892 118.97 211.281 117.212 211.27 114.929C211.248 108.878 215.504 101.505 220.763 98.4683C222.16 97.66 223.491 97.245 224.691 97.1794C227.506 92.297 231.401 88.0262 235.711 85.5359C236.464 85.0989 237.206 84.7385 237.926 84.4436C239.137 76.5465 244.625 67.9394 251.237 64.1274L251.248 64.1165Z" fill="#D4ECFF"/>
<path d="M237.49 347.877C242.095 350.542 246.699 355.228 250.201 361.29L244.702 364.425C242.706 360.973 240.087 358.308 237.468 356.79C234.85 355.272 232.22 354.9 230.212 356.047L224.757 346.588C228.27 344.578 232.886 345.223 237.501 347.888L237.49 347.877Z" fill="#D4ECFF"/>
<path d="M245.727 343.082C241.123 340.416 236.507 339.772 232.983 341.782L224.734 346.577C228.248 344.567 232.863 345.212 237.478 347.877C242.083 350.542 246.687 355.228 250.19 361.29L258.439 356.495C254.947 350.433 250.343 345.747 245.727 343.082Z" fill="url(#paint22_linear_46_28941)"/>
<path d="M237.544 326.752C246.862 332.137 256.158 341.596 263.229 353.851L257.73 356.986C252.165 347.341 244.844 339.892 237.511 335.654C230.179 331.416 222.836 330.389 217.239 333.579L211.783 324.12C218.897 320.068 228.226 321.367 237.533 326.752H237.544Z" fill="#D4ECFF"/>
<path d="M245.794 321.958C236.476 316.573 227.158 315.273 220.044 319.325L211.795 324.12C218.909 320.068 228.238 321.368 237.545 326.753C246.863 332.137 256.159 341.597 263.23 353.852L271.478 349.057C264.408 336.801 255.112 327.342 245.794 321.958Z" fill="url(#paint23_linear_46_28941)"/>
<path d="M237.6 305.628C251.621 313.732 265.62 327.976 276.258 346.413L270.759 349.548C261.626 333.71 249.602 321.487 237.567 314.53C225.532 307.572 213.487 305.89 204.289 311.133L198.833 301.674C209.537 295.568 223.568 297.523 237.589 305.628H237.6Z" fill="#D4ECFF"/>
<path d="M245.848 300.833C231.827 292.728 217.795 290.773 207.092 296.879L198.843 301.674C209.547 295.568 223.578 297.523 237.599 305.628C251.62 313.732 265.618 327.976 276.257 346.413L284.495 341.618C273.856 323.17 259.857 308.937 245.837 300.833H245.848Z" fill="url(#paint24_linear_46_28941)"/>
<path d="M235.068 362.786C236.236 362.109 237.851 362.207 239.629 363.234C243.175 365.277 246.034 370.246 246.023 374.321C246.023 376.341 245.303 377.772 244.157 378.439L240.316 380.678C241.473 380.011 242.182 378.58 242.182 376.56C242.193 372.486 239.334 367.527 235.788 365.473C234.01 364.447 232.395 364.348 231.228 365.025L235.068 362.786Z" fill="#163285"/>
<path d="M235.788 365.473C232.242 363.431 229.362 365.069 229.351 369.143C229.34 373.218 232.198 378.177 235.745 380.23C239.291 382.273 242.171 380.634 242.182 376.56C242.193 372.486 239.334 367.527 235.788 365.473Z" fill="url(#paint25_linear_46_28941)"/>
<path d="M83.9607 352.148L72.4277 336.626L91.2166 339.641L83.9607 352.148Z" fill="url(#paint26_linear_46_28941)"/>
<path d="M91.2165 339.641C90.2891 339.095 88.9907 339.171 87.5722 340.002C84.7354 341.64 82.4549 345.605 82.4659 348.86C82.4659 350.476 83.0441 351.612 83.9607 352.148L145.423 387.909C144.506 387.373 143.928 386.237 143.928 384.621C143.928 381.366 146.208 377.401 149.034 375.763C150.464 374.943 151.751 374.867 152.679 375.402L91.2165 339.641Z" fill="#97B8E8"/>
<path d="M149.034 375.752C151.86 374.113 154.162 375.424 154.173 378.69C154.173 381.945 151.893 385.91 149.067 387.548C146.23 389.186 143.939 387.865 143.928 384.61C143.928 381.355 146.208 377.39 149.034 375.752Z" fill="url(#paint27_linear_46_28941)"/>
<path d="M77.6103 337.457L72.4385 336.626L75.57 340.854C76.541 339.958 77.2612 338.789 77.6103 337.468V337.457Z" fill="#26928A"/>
<path opacity="0.52" d="M147.617 376.8L86.46 340.777C84.4633 342.438 82.9139 345.168 82.543 347.702L144.06 383.157C144.485 380.842 145.849 378.406 147.617 376.8Z" fill="#D4ECFF"/>
<path d="M138.811 398.449L81.2766 431.916C80.0328 432.648 77.9924 432.648 76.7376 431.916L0.960287 388.127C0.327445 387.767 0.0110243 387.286 0.0110243 386.805V391.983C0.000113252 392.463 0.305623 392.944 0.938465 393.304L76.7158 437.094C77.9706 437.825 80.0109 437.814 81.2548 437.094L138.789 403.626C139.411 403.266 139.716 402.796 139.716 402.316V397.138C139.727 397.608 139.422 398.089 138.8 398.449H138.811Z" fill="url(#paint28_linear_46_28941)"/>
<path d="M138.789 395.816C140.044 396.537 140.054 397.717 138.8 398.449L81.2656 431.916C80.0218 432.648 77.9814 432.648 76.7266 431.916L0.960224 388.127C-0.294548 387.406 -0.305459 386.226 0.949313 385.494L58.4833 352.027C59.7272 351.296 61.7676 351.296 63.0223 352.027L138.8 395.816H138.789Z" fill="#D4ECFF"/>
<path d="M72.9736 365.386L22.8809 394.331L19.8477 392.573L69.9403 363.627L72.9736 365.386Z" fill="#33BD72"/>
<path d="M81.0693 370.061L30.9766 399.006L27.9434 397.258L78.036 368.302L81.0693 370.061Z" fill="#33BD72"/>
<path d="M89.165 374.736L39.0723 403.692L36.0391 401.934L86.1318 372.978L89.165 374.736Z" fill="#33BD72"/>
<path d="M97.2619 379.41L47.1692 408.367L44.125 406.608L94.2177 377.663L97.2619 379.41Z" fill="#33BD72"/>
<path d="M105.347 384.096L55.254 413.042L52.2207 411.294L102.313 382.338L105.347 384.096Z" fill="#33BD72"/>
<path d="M113.442 388.771L63.3497 417.716L60.3164 415.969L110.409 387.013L113.442 388.771Z" fill="#33BD72"/>
<path d="M121.538 393.446L71.4454 422.402L68.4121 420.644L118.505 391.688L121.538 393.446Z" fill="#33BD72"/>
<path d="M147.754 152.783V40.9822L103.361 29.3493L95.179 24.6245C93.2981 23.5386 90.0208 23.6772 87.8513 24.9248L80.2235 29.3377L56.5439 29.3262L63.5601 137.257C63.5024 137.996 63.9178 138.701 64.8179 139.221L109.119 172.687C111 173.773 114.277 173.634 116.447 172.387L145.977 155.324C147.223 154.585 147.823 153.649 147.754 152.783Z" fill="#396CAA"/>
<path d="M91.7869 23.8965C90.4137 23.9311 88.9827 24.2777 87.8634 24.9246L80.2356 29.3375L56.5561 29.326V141.427C56.4984 142.166 56.9138 142.871 57.8139 143.391L109.131 172.687C110.031 173.207 111.254 173.449 112.524 173.415L113.055 60.6089L91.7869 23.8965Z" fill="#D4ECFF"/>
<path d="M109.593 172.906C111.208 173.599 113.551 173.565 115.443 172.837V59.2688H109.593V172.906Z" fill="#5793CE"/>
<path d="M109.12 60.6206L57.8025 31.3246C55.9215 30.2387 56.1638 28.3442 58.3333 27.0966L87.8635 10.0342C90.033 8.78657 93.3103 8.64795 95.1913 9.73384L146.509 39.0298C148.389 40.1157 148.147 42.0103 145.978 43.2579L116.447 60.3203C114.278 61.5679 111.001 61.695 109.12 60.6206Z" fill="#D4ECFF"/>
<path d="M145.977 41.1669L116.447 58.2292C114.278 59.4769 111 59.6155 109.119 58.5296L57.8022 29.2336C57.3867 28.991 57.0751 28.7138 56.8674 28.4019C56.2212 29.4415 56.5097 30.5621 57.8022 31.313L109.119 60.609C111 61.6949 114.278 61.5562 116.447 60.3086L145.977 43.2462C147.662 42.2759 148.17 40.9127 147.443 39.8499C147.143 40.3236 146.647 40.7741 145.977 41.1669Z" fill="#FAFDFF"/>
<path d="M110.574 48.7451L76.405 28.9217C75.528 28.4135 75.6318 27.5239 76.6473 26.9463L90.4604 18.9639C91.4759 18.3747 93.0107 18.317 93.8877 18.8253L128.057 38.6486C128.934 39.1569 128.83 40.0464 127.815 40.624L114.002 48.6064C112.986 49.184 111.451 49.2534 110.574 48.7451Z" fill="#173D7A"/>
<path d="M92.1337 29.8109L90.1488 28.6673C90.0219 28.598 90.045 28.4709 90.1834 28.39L92.099 27.281C92.2375 27.2002 92.4568 27.1886 92.5722 27.2579L94.557 28.4016C94.6839 28.4709 94.6609 28.5979 94.5224 28.6788L92.6068 29.7878C92.4683 29.8687 92.2491 29.8802 92.1337 29.8109Z" fill="#D4ECFF"/>
<path d="M98.746 33.6115L96.7611 32.4678C96.6342 32.3985 96.6573 32.2714 96.7957 32.1905L98.7113 31.0816C98.8498 31.0007 99.0691 30.9891 99.1845 31.0585L101.169 32.2021C101.296 32.2714 101.273 32.3985 101.135 32.4794L99.2191 33.5883C99.0806 33.6808 98.8614 33.6808 98.746 33.6115Z" fill="#D4ECFF"/>
<path d="M105.358 37.4237L103.373 36.2801C103.246 36.2107 103.27 36.0837 103.408 36.0028L105.324 34.8938C105.462 34.8129 105.681 34.8014 105.797 34.8707L107.782 36.0144C107.909 36.0837 107.885 36.2107 107.747 36.2916L105.831 37.4006C105.693 37.4815 105.485 37.493 105.358 37.4237Z" fill="#D4ECFF"/>
<path d="M111.971 41.2242L109.986 40.0806C109.859 40.0113 109.882 39.8842 110.02 39.8033L111.936 38.6944C112.074 38.6135 112.294 38.6019 112.409 38.6712L114.394 39.8149C114.521 39.8842 114.498 40.0113 114.359 40.0921L112.444 41.2011C112.305 41.2936 112.098 41.2936 111.971 41.2242Z" fill="#D4ECFF"/>
<path d="M76.4049 28.9218L76.4511 28.9449C76.5203 28.8987 76.578 28.8524 76.6588 28.8062L90.4719 20.8238C91.4874 20.2346 93.0222 20.1769 93.8992 20.6851L128.022 40.4854C128.83 39.9078 128.876 39.1107 128.068 38.6486L93.8992 18.8253C93.0222 18.317 91.4874 18.3863 90.4719 18.9639L76.6588 26.9464C75.6433 27.524 75.5279 28.4135 76.4049 28.9218Z" fill="#5793CE"/>
<path d="M122.206 82.7657L141.627 71.6295C142.723 70.9942 143.612 69.3076 143.612 67.8405V60.8861C143.612 59.4306 142.723 58.7606 141.627 59.3844L122.206 70.5206C121.109 71.1559 120.221 72.8425 120.221 74.3096V81.264C120.232 82.7311 121.121 83.4011 122.206 82.7657Z" fill="#173D7A"/>
<path d="M142.596 59.1877C142.896 59.4765 143.093 59.9733 143.093 60.6318V67.5861C143.093 69.0416 142.204 70.7398 141.108 71.3752L121.686 82.5113C121.34 82.7193 121.005 82.7655 120.729 82.7193C121.086 83.0658 121.617 83.112 122.206 82.7655L141.627 71.6293C142.723 70.9939 143.612 69.3073 143.612 67.8402V60.8859C143.612 59.904 143.208 59.2917 142.596 59.1877Z" fill="white"/>
<path d="M128.056 75.2105L129.833 74.1824C130.076 74.0437 130.26 73.6741 130.26 73.3622V71.4561C130.26 71.1326 130.064 70.994 129.833 71.1326L128.056 72.1608C127.814 72.2994 127.629 72.669 127.629 72.9809V74.887C127.618 75.1989 127.814 75.3491 128.056 75.2105Z" fill="#396CAA"/>
<path d="M134.011 71.7679L135.788 70.7397C136.03 70.6011 136.215 70.2315 136.215 69.9196V68.0135C136.215 67.69 136.019 67.5514 135.788 67.69L134.011 68.7181C133.769 68.8568 133.584 69.2264 133.584 69.5383V71.4444C133.584 71.7563 133.769 71.9065 134.011 71.7679Z" fill="white"/>
<path d="M122.206 133.017L141.627 121.881C142.723 121.246 143.612 119.559 143.612 118.092V111.138C143.612 109.682 142.723 109.012 141.627 109.636L122.206 120.772C121.109 121.407 120.221 123.094 120.221 124.561V131.515C120.232 132.983 121.121 133.653 122.206 133.017Z" fill="#173D7A"/>
<path d="M142.596 109.439C142.896 109.728 143.093 110.225 143.093 110.883V117.838C143.093 119.293 142.204 120.992 141.108 121.627L121.686 132.763C121.34 132.971 121.005 133.017 120.729 132.971C121.086 133.318 121.617 133.364 122.206 133.017L141.627 121.881C142.723 121.246 143.612 119.559 143.612 118.092V111.138C143.612 110.156 143.208 109.543 142.596 109.439Z" fill="white"/>
<path d="M128.056 125.462L129.833 124.434C130.076 124.295 130.26 123.925 130.26 123.613V121.707C130.26 121.384 130.064 121.245 129.833 121.384L128.056 122.412C127.814 122.551 127.629 122.92 127.629 123.232V125.138C127.618 125.45 127.814 125.6 128.056 125.462Z" fill="#396CAA"/>
<path d="M134.011 122.019L135.788 120.991C136.03 120.853 136.215 120.483 136.215 120.171V118.265C136.215 117.941 136.019 117.803 135.788 117.941L134.011 118.97C133.769 119.108 133.584 119.478 133.584 119.79V121.696C133.584 122.008 133.769 122.158 134.011 122.019Z" fill="white"/>
<path d="M122.206 158.143L141.627 147.007C142.723 146.372 143.612 144.685 143.612 143.218V136.264C143.612 134.808 142.723 134.138 141.627 134.762L122.206 145.898C121.109 146.533 120.221 148.22 120.221 149.687V156.641C120.232 158.109 121.121 158.779 122.206 158.143Z" fill="#173D7A"/>
<path d="M142.596 134.565C142.896 134.854 143.093 135.351 143.093 136.009V142.964C143.093 144.419 142.204 146.117 141.108 146.753L121.686 157.889C121.34 158.097 121.005 158.143 120.729 158.097C121.086 158.444 121.617 158.49 122.206 158.143L141.627 147.007C142.723 146.372 143.612 144.685 143.612 143.218V136.264C143.612 135.282 143.208 134.669 142.596 134.565Z" fill="white"/>
<path d="M128.056 150.588L129.833 149.56C130.076 149.421 130.26 149.051 130.26 148.739V146.833C130.26 146.51 130.064 146.371 129.833 146.51L128.056 147.538C127.814 147.677 127.629 148.046 127.629 148.358V150.264C127.618 150.588 127.814 150.726 128.056 150.588Z" fill="#396CAA"/>
<path d="M134.011 147.145L135.788 146.117C136.03 145.979 136.215 145.609 136.215 145.297V143.391C136.215 143.067 136.019 142.929 135.788 143.067L134.011 144.096C133.769 144.234 133.584 144.604 133.584 144.916V146.822C133.584 147.134 133.769 147.284 134.011 147.145Z" fill="white"/>
<path d="M132.695 159.98L134.472 158.952C134.714 158.813 134.899 158.443 134.899 158.131V156.225C134.899 155.902 134.703 155.763 134.472 155.902L132.695 156.93C132.453 157.069 132.268 157.438 132.268 157.75V159.656C132.257 159.968 132.453 160.118 132.695 159.98Z" fill="white"/>
<path d="M122.206 107.892L141.627 96.7555C142.723 96.1202 143.612 94.4336 143.612 92.9664V86.0121C143.612 84.5566 142.723 83.8865 141.627 84.5104L122.206 95.6465C121.109 96.2819 120.221 97.9685 120.221 99.4356V106.39C120.232 107.857 121.121 108.527 122.206 107.892Z" fill="#173D7A"/>
<path d="M142.596 84.314C142.896 84.6028 143.093 85.0995 143.093 85.758V92.7123C143.093 94.1679 142.204 95.866 141.108 96.5014L121.686 107.638C121.34 107.845 121.005 107.892 120.729 107.845C121.086 108.192 121.617 108.238 122.206 107.892L141.627 96.7555C142.723 96.1202 143.612 94.4336 143.612 92.9665V86.0121C143.612 85.0302 143.208 84.4179 142.596 84.314Z" fill="white"/>
<path d="M128.056 100.336L129.833 99.3083C130.076 99.1697 130.26 98.8 130.26 98.4881V96.5821C130.26 96.2586 130.064 96.12 129.833 96.2586L128.056 97.2867C127.814 97.4254 127.629 97.795 127.629 98.1069V100.013C127.618 100.325 127.814 100.475 128.056 100.336Z" fill="#396CAA"/>
<path d="M134.011 96.8938L135.788 95.8657C136.03 95.7271 136.215 95.3574 136.215 95.0455V93.1394C136.215 92.816 136.019 92.6774 135.788 92.816L134.011 93.8441C133.769 93.9827 133.584 94.3524 133.584 94.6643V96.5704C133.584 96.8823 133.769 97.0325 134.011 96.8938Z" fill="white"/>
<path d="M105.38 75.6499L60.5598 49.7502C59.5558 49.1726 58.748 47.6131 58.748 46.273V37.713C58.748 36.3729 59.5558 35.7607 60.5598 36.3383L105.38 62.2379C106.384 62.8155 107.192 64.3751 107.192 65.7151V74.2752C107.203 75.6152 106.384 76.2275 105.38 75.6499Z" fill="#5793CE"/>
<path opacity="0.4" d="M104.1 72.6466L61.8529 48.2255C61.3451 47.9367 60.9297 47.1396 60.9297 46.4581V40.0236C60.9297 39.342 61.3451 39.0301 61.8529 39.3304L104.1 63.7515C104.608 64.0403 105.023 64.8374 105.023 65.5189V71.9534C105.023 72.635 104.608 72.9469 104.1 72.6466Z" fill="#D4ECFF"/>
<path d="M70.6569 50.0737L64.3562 46.4348C63.8599 46.146 63.4561 45.3835 63.4561 44.7251C63.4561 44.0666 63.8599 43.7663 64.3562 44.0435L70.6569 47.6824C71.1531 47.9712 71.557 48.7336 71.557 49.3921C71.557 50.0506 71.1531 50.3509 70.6569 50.0737Z" fill="#D4ECFF"/>
<path d="M76.0342 51.9799C76.0342 52.6384 75.5726 52.904 74.9956 52.5806C74.4302 52.2456 73.957 51.4485 73.957 50.79C73.957 50.1316 74.4186 49.8659 74.9956 50.1893C75.561 50.5128 76.0342 51.3214 76.0342 51.9799Z" fill="#173D7A"/>
<path d="M79.6699 54.0824C79.6699 54.7409 79.2083 55.0066 78.6313 54.6831C78.0659 54.3481 77.5928 53.551 77.5928 52.8926C77.5928 52.2341 78.0544 51.9684 78.6313 52.2919C79.2083 52.6269 79.6699 53.424 79.6699 54.0824Z" fill="#173D7A"/>
<path d="M83.3164 56.1962C83.3164 56.8547 82.8548 57.1204 82.2778 56.7969C81.7124 56.4619 81.2393 55.6648 81.2393 55.0063C81.2393 54.3479 81.7008 54.0822 82.2778 54.4056C82.8548 54.7291 83.3164 55.5377 83.3164 56.1962Z" fill="#D4ECFF"/>
<path d="M86.9629 58.2987C86.9629 58.9572 86.5013 59.2229 85.9243 58.8994C85.3589 58.5644 84.8857 57.7673 84.8857 57.1089C84.8857 56.4504 85.3473 56.1847 85.9243 56.5082C86.5013 56.8432 86.9629 57.6403 86.9629 58.2987Z" fill="#173D7A"/>
<path d="M102.322 69.0655L100.199 67.841C99.8875 67.6562 99.6221 67.171 99.6221 66.7436V64.4909C99.6221 64.0635 99.8759 63.8786 100.199 64.0519L102.322 65.2764C102.634 65.4613 102.899 65.9465 102.899 66.3739V68.6265C102.899 69.054 102.634 69.2503 102.322 69.0655Z" fill="#173D7A"/>
<path d="M105.38 90.7368L60.5598 64.8371C59.5558 64.2595 58.748 62.7 58.748 61.3599V52.7999C58.748 51.4598 59.5558 50.8476 60.5598 51.4252L105.38 77.3249C106.384 77.9025 107.192 79.462 107.192 80.802V89.3621C107.203 90.7022 106.384 91.3144 105.38 90.7368Z" fill="#5793CE"/>
<path opacity="0.4" d="M104.1 87.7335L61.8529 63.3124C61.3451 63.0236 60.9297 62.2265 60.9297 61.545V55.1105C60.9297 54.4289 61.3451 54.117 61.8529 54.4174L104.1 78.8384C104.608 79.1272 105.023 79.9243 105.023 80.6058V87.0403C105.023 87.7104 104.608 88.0223 104.1 87.7335Z" fill="#D4ECFF"/>
<path d="M70.6569 65.1491L64.3562 61.5102C63.8599 61.2214 63.4561 60.459 63.4561 59.8005C63.4561 59.1421 63.8599 58.8417 64.3562 59.1189L70.6569 62.7578C71.1531 63.0466 71.557 63.8091 71.557 64.4675C71.557 65.1376 71.1531 65.4379 70.6569 65.1491Z" fill="#D4ECFF"/>
<path d="M76.0342 67.0668C76.0342 67.7253 75.5726 67.991 74.9956 67.6675C74.4302 67.3325 73.957 66.5354 73.957 65.8769C73.957 65.2185 74.4186 64.9528 74.9956 65.2762C75.561 65.5997 76.0342 66.4083 76.0342 67.0668Z" fill="white"/>
<path d="M79.6699 69.1693C79.6699 69.8278 79.2083 70.0935 78.6313 69.77C78.0659 69.435 77.5928 68.6379 77.5928 67.9795C77.5928 67.321 78.0544 67.0553 78.6313 67.3788C79.2083 67.7138 79.6699 68.5109 79.6699 69.1693Z" fill="#173D7A"/>
<path d="M83.3164 71.2831C83.3164 71.9416 82.8548 72.2073 82.2778 71.8838C81.7124 71.5488 81.2393 70.7517 81.2393 70.0932C81.2393 69.4348 81.7008 69.1691 82.2778 69.4925C82.8548 69.816 83.3164 70.6246 83.3164 71.2831Z" fill="#D4ECFF"/>
<path d="M86.9629 73.3856C86.9629 74.0441 86.5013 74.3098 85.9243 73.9864C85.3589 73.6514 84.8857 72.8543 84.8857 72.1958C84.8857 71.5373 85.3473 71.2716 85.9243 71.5951C86.5013 71.9185 86.9629 72.7272 86.9629 73.3856Z" fill="#173D7A"/>
<path d="M102.322 84.1524L100.199 82.9279C99.8875 82.7431 99.6221 82.2579 99.6221 81.8305V79.5778C99.6221 79.1504 99.8759 78.9656 100.199 79.1388L102.322 80.3634C102.634 80.5482 102.899 81.0334 102.899 81.4608V83.7135C102.899 84.1409 102.634 84.3373 102.322 84.1524Z" fill="#173D7A"/>
<path d="M105.38 105.824L60.5598 79.9243C59.5558 79.3467 58.748 77.7871 58.748 76.4471V67.887C58.748 66.547 59.5558 65.9347 60.5598 66.5123L105.38 92.412C106.384 92.9896 107.192 94.5492 107.192 95.8892V104.449C107.203 105.789 106.384 106.402 105.38 105.824Z" fill="#5793CE"/>
<path opacity="0.4" d="M104.1 102.821L61.8529 78.3996C61.3451 78.1108 60.9297 77.3137 60.9297 76.6321V70.1976C60.9297 69.5161 61.3451 69.2042 61.8529 69.5045L104.1 93.9255C104.608 94.2143 105.023 95.0114 105.023 95.693V102.128C105.023 102.798 104.608 103.109 104.1 102.821Z" fill="#D4ECFF"/>
<path d="M70.6569 80.2363L64.3562 76.5974C63.8599 76.3086 63.4561 75.5461 63.4561 74.8877C63.4561 74.2292 63.8599 73.9288 64.3562 74.2061L70.6569 77.845C71.1531 78.1338 71.557 78.8962 71.557 79.5547C71.557 80.2247 71.1531 80.5251 70.6569 80.2363Z" fill="#D4ECFF"/>
<path d="M76.0342 82.154C76.0342 82.8124 75.5726 83.0781 74.9956 82.7547C74.4302 82.4197 73.957 81.6226 73.957 80.9641C73.957 80.3056 74.4186 80.0399 74.9956 80.3634C75.561 80.6868 76.0342 81.4955 76.0342 82.154Z" fill="white"/>
<path d="M79.6699 84.2567C79.6699 84.9152 79.2083 85.1809 78.6313 84.8574C78.0659 84.5224 77.5928 83.7253 77.5928 83.0669C77.5928 82.4084 78.0544 82.1427 78.6313 82.4662C79.2083 82.8012 79.6699 83.5983 79.6699 84.2567Z" fill="#173D7A"/>
<path d="M83.3164 86.3703C83.3164 87.0287 82.8548 87.2944 82.2778 86.971C81.7124 86.636 81.2393 85.8389 81.2393 85.1804C81.2393 84.5219 81.7008 84.2562 82.2778 84.5797C82.8548 84.9032 83.3164 85.7003 83.3164 86.3703Z" fill="#D4ECFF"/>
<path d="M86.9629 88.4728C86.9629 89.1313 86.5013 89.397 85.9243 89.0735C85.3589 88.7385 84.8857 87.9414 84.8857 87.2829C84.8857 86.6245 85.3473 86.3588 85.9243 86.6822C86.5013 87.0057 86.9629 87.8143 86.9629 88.4728Z" fill="#173D7A"/>
<path d="M102.322 99.2396L100.199 98.0151C99.8875 97.8302 99.6221 97.3451 99.6221 96.9176V94.665C99.6221 94.2376 99.8759 94.0527 100.199 94.226L102.322 95.4505C102.634 95.6353 102.899 96.1205 102.899 96.548V98.8006C102.899 99.228 102.634 99.4244 102.322 99.2396Z" fill="#173D7A"/>
<path d="M105.38 120.911L60.5598 95.0112C59.5558 94.4336 58.748 92.874 58.748 91.534V82.9739C58.748 81.6339 59.5558 81.0216 60.5598 81.5993L105.38 107.499C106.384 108.077 107.192 109.636 107.192 110.976V119.536C107.203 120.865 106.384 121.488 105.38 120.911Z" fill="#5793CE"/>
<path opacity="0.4" d="M104.1 117.908L61.8529 93.4865C61.3451 93.1977 60.9297 92.4006 60.9297 91.719V85.2846C60.9297 84.603 61.3451 84.2911 61.8529 84.5914L104.1 109.012C104.608 109.301 105.023 110.098 105.023 110.78V117.214C105.023 117.884 104.608 118.196 104.1 117.908Z" fill="#D4ECFF"/>
<path d="M70.6569 95.3232L64.3562 91.6843C63.8599 91.3955 63.4561 90.633 63.4561 89.9746C63.4561 89.3161 63.8599 89.0158 64.3562 89.293L70.6569 92.9319C71.1531 93.2207 71.557 93.9831 71.557 94.6416C71.557 95.3116 71.1531 95.612 70.6569 95.3232Z" fill="#D4ECFF"/>
<path d="M76.0342 97.2409C76.0342 97.8993 75.5726 98.165 74.9956 97.8416C74.4302 97.5066 73.957 96.7095 73.957 96.051C73.957 95.3925 74.4186 95.1268 74.9956 95.4503C75.561 95.7738 76.0342 96.5824 76.0342 97.2409Z" fill="#173D7A"/>
<path d="M79.6699 99.3437C79.6699 100.002 79.2083 100.268 78.6313 99.9444C78.0659 99.6094 77.5928 98.8123 77.5928 98.1538C77.5928 97.4953 78.0544 97.2296 78.6313 97.5531C79.2083 97.8881 79.6699 98.6852 79.6699 99.3437Z" fill="#173D7A"/>
<path d="M83.3164 101.446C83.3164 102.104 82.8548 102.37 82.2778 102.046C81.7124 101.711 81.2393 100.914 81.2393 100.256C81.2393 99.5974 81.7008 99.3317 82.2778 99.6551C82.8548 99.9901 83.3164 100.787 83.3164 101.446Z" fill="#D4ECFF"/>
<path d="M86.9629 103.56C86.9629 104.218 86.5013 104.484 85.9243 104.161C85.3589 103.826 84.8857 103.029 84.8857 102.37C84.8857 101.712 85.3473 101.446 85.9243 101.769C86.5013 102.093 86.9629 102.901 86.9629 103.56Z" fill="#173D7A"/>
<path d="M102.322 114.327L100.199 113.102C99.8875 112.917 99.6221 112.432 99.6221 112.005V109.752C99.6221 109.324 99.8759 109.14 100.199 109.313L102.322 110.537C102.634 110.722 102.899 111.207 102.899 111.635V113.888C102.899 114.315 102.634 114.511 102.322 114.327Z" fill="#D4ECFF"/>
<path d="M105.38 135.986L60.5598 110.086C59.5558 109.509 58.748 107.949 58.748 106.609V98.0491C58.748 96.7091 59.5558 96.0968 60.5598 96.6744L105.38 122.574C106.384 123.152 107.192 124.711 107.192 126.051V134.611C107.203 135.951 106.384 136.575 105.38 135.986Z" fill="#5793CE"/>
<path opacity="0.4" d="M104.1 132.994L61.8529 108.573C61.3451 108.284 60.9297 107.487 60.9297 106.806V100.371C60.9297 99.6897 61.3451 99.3777 61.8529 99.6781L104.1 124.099C104.608 124.388 105.023 125.185 105.023 125.867V132.301C105.023 132.971 104.608 133.283 104.1 132.994Z" fill="#D4ECFF"/>
<path d="M70.6569 110.41L64.3562 106.771C63.8599 106.482 63.4561 105.72 63.4561 105.061C63.4561 104.403 63.8599 104.102 64.3562 104.38L70.6569 108.019C71.1531 108.307 71.557 109.07 71.557 109.728C71.557 110.398 71.1531 110.699 70.6569 110.41Z" fill="#D4ECFF"/>
<path d="M76.0342 112.328C76.0342 112.986 75.5726 113.252 74.9956 112.928C74.4302 112.593 73.957 111.796 73.957 111.138C73.957 110.479 74.4186 110.214 74.9956 110.537C75.561 110.86 76.0342 111.669 76.0342 112.328Z" fill="#173D7A"/>
<path d="M79.6699 114.43C79.6699 115.089 79.2083 115.354 78.6313 115.031C78.0659 114.696 77.5928 113.899 77.5928 113.24C77.5928 112.582 78.0544 112.316 78.6313 112.64C79.2083 112.963 79.6699 113.772 79.6699 114.43Z" fill="white"/>
<path d="M83.3164 116.532C83.3164 117.191 82.8548 117.457 82.2778 117.133C81.7124 116.798 81.2393 116.001 81.2393 115.343C81.2393 114.684 81.7008 114.418 82.2778 114.742C82.8548 115.077 83.3164 115.874 83.3164 116.532Z" fill="#D4ECFF"/>
<path d="M86.9629 118.646C86.9629 119.305 86.5013 119.571 85.9243 119.247C85.3589 118.912 84.8857 118.115 84.8857 117.457C84.8857 116.798 85.3473 116.532 85.9243 116.856C86.5013 117.179 86.9629 117.988 86.9629 118.646Z" fill="white"/>
<path d="M102.322 129.413L100.199 128.189C99.8875 128.004 99.6221 127.519 99.6221 127.091V124.839C99.6221 124.411 99.8759 124.226 100.199 124.4L102.322 125.624C102.634 125.809 102.899 126.294 102.899 126.722V128.974C102.899 129.402 102.634 129.598 102.322 129.413Z" fill="#D4ECFF"/>
<path d="M105.38 151.073L60.5598 125.173C59.5558 124.596 58.748 123.036 58.748 121.696V113.136C58.748 111.796 59.5558 111.184 60.5598 111.761L105.38 137.661C106.384 138.239 107.192 139.798 107.192 141.138V149.698C107.203 151.038 106.384 151.662 105.38 151.073Z" fill="#5793CE"/>
<path opacity="0.4" d="M104.1 148.081L61.8529 123.66C61.3451 123.371 60.9297 122.574 60.9297 121.893V115.458C60.9297 114.777 61.3451 114.465 61.8529 114.765L104.1 139.186C104.608 139.475 105.023 140.272 105.023 140.954V147.388C105.023 148.058 104.608 148.37 104.1 148.081Z" fill="#D4ECFF"/>
<path d="M70.6569 125.497L64.3562 121.858C63.8599 121.569 63.4561 120.807 63.4561 120.148C63.4561 119.49 63.8599 119.189 64.3562 119.467L70.6569 123.105C71.1531 123.394 71.557 124.157 71.557 124.815C71.557 125.485 71.1531 125.786 70.6569 125.497Z" fill="#D4ECFF"/>
<path d="M76.0342 127.414C76.0342 128.073 75.5726 128.339 74.9956 128.015C74.4302 127.68 73.957 126.883 73.957 126.225C73.957 125.566 74.4186 125.3 74.9956 125.624C75.561 125.947 76.0342 126.744 76.0342 127.414Z" fill="#173D7A"/>
<path d="M79.6699 129.517C79.6699 130.175 79.2083 130.441 78.6313 130.118C78.0659 129.783 77.5928 128.986 77.5928 128.327C77.5928 127.669 78.0544 127.403 78.6313 127.726C79.2083 128.05 79.6699 128.859 79.6699 129.517Z" fill="#173D7A"/>
<path d="M83.3164 131.619C83.3164 132.278 82.8548 132.543 82.2778 132.22C81.7124 131.885 81.2393 131.088 81.2393 130.429C81.2393 129.771 81.7008 129.505 82.2778 129.829C82.8548 130.164 83.3164 130.961 83.3164 131.619Z" fill="#D4ECFF"/>
<path d="M86.9629 133.733C86.9629 134.392 86.5013 134.657 85.9243 134.334C85.3589 133.999 84.8857 133.202 84.8857 132.543C84.8857 131.885 85.3473 131.619 85.9243 131.943C86.5013 132.266 86.9629 133.075 86.9629 133.733Z" fill="#173D7A"/>
<path d="M102.322 144.5L100.199 143.276C99.8875 143.091 99.6221 142.606 99.6221 142.178V139.925C99.6221 139.498 99.8759 139.313 100.199 139.487L102.322 140.711C102.634 140.896 102.899 141.381 102.899 141.808V144.061C102.899 144.489 102.634 144.685 102.322 144.5Z" fill="#173D7A"/>
<path d="M105.38 166.16L60.5598 140.26C59.5558 139.683 58.748 138.123 58.748 136.783V128.223C58.748 126.883 59.5558 126.271 60.5598 126.848L105.38 152.748C106.384 153.326 107.192 154.885 107.192 156.225V164.785C107.203 166.125 106.384 166.749 105.38 166.16Z" fill="#5793CE"/>
<path opacity="0.4" d="M104.1 163.168L61.8529 138.747C61.3451 138.458 60.9297 137.661 60.9297 136.98V130.545C60.9297 129.863 61.3451 129.552 61.8529 129.852L104.1 154.273C104.608 154.562 105.023 155.359 105.023 156.04V162.475C105.023 163.145 104.608 163.457 104.1 163.168Z" fill="#D4ECFF"/>
<path d="M70.6569 140.584L64.3562 136.945C63.8599 136.656 63.4561 135.894 63.4561 135.235C63.4561 134.577 63.8599 134.276 64.3562 134.554L70.6569 138.192C71.1531 138.481 71.557 139.244 71.557 139.902C71.557 140.572 71.1531 140.872 70.6569 140.584Z" fill="#D4ECFF"/>
<path d="M77.1778 143.31C77.1778 144.558 76.3008 145.066 75.2276 144.442C74.1544 143.818 73.2773 142.305 73.2773 141.057C73.2773 139.81 74.1544 139.302 75.2276 139.925C76.3123 140.549 77.1778 142.062 77.1778 143.31Z" fill="white"/>
<path d="M84.7354 147.734C84.7354 148.393 84.2738 148.658 83.6968 148.335C83.1313 148 82.6582 147.203 82.6582 146.544C82.6582 145.886 83.1198 145.62 83.6968 145.944C84.2738 146.279 84.7354 147.076 84.7354 147.734Z" fill="#173D7A"/>
<path d="M88.3818 149.837C88.3818 150.495 87.9202 150.761 87.3433 150.438C86.7778 150.103 86.3047 149.305 86.3047 148.647C86.3047 147.988 86.7663 147.723 87.3433 148.046C87.9202 148.381 88.3818 149.178 88.3818 149.837Z" fill="#D4ECFF"/>
<path d="M92.0176 151.951C92.0176 152.61 91.556 152.875 90.979 152.552C90.4136 152.217 89.9404 151.42 89.9404 150.761C89.9404 150.103 90.402 149.837 90.979 150.161C91.556 150.484 92.0176 151.293 92.0176 151.951Z" fill="#173D7A"/>
<path d="M102.322 159.587L100.199 158.362C99.8875 158.178 99.6221 157.692 99.6221 157.265V155.012C99.6221 154.585 99.8759 154.4 100.199 154.573L102.322 155.798C102.634 155.983 102.899 156.468 102.899 156.895V159.148C102.899 159.575 102.634 159.76 102.322 159.587Z" fill="#D4ECFF"/>
<defs>
<linearGradient id="paint0_linear_46_28941" x1="363.694" y1="78.7091" x2="299.666" y2="184.752" gradientUnits="userSpaceOnUse">
<stop stop-color="#FFE30B"/>
<stop offset="1" stop-color="#FF712F"/>
</linearGradient>
<linearGradient id="paint1_linear_46_28941" x1="282.531" y1="120.46" x2="352.991" y2="189.231" gradientUnits="userSpaceOnUse">
<stop stop-color="#FFE30B"/>
<stop offset="1" stop-color="#FF712F"/>
</linearGradient>
<linearGradient id="paint2_linear_46_28941" x1="363.683" y1="66.5519" x2="299.666" y2="172.606" gradientUnits="userSpaceOnUse">
<stop stop-color="#FFE30B"/>
<stop offset="1" stop-color="#FF712F"/>
</linearGradient>
<linearGradient id="paint3_linear_46_28941" x1="282.53" y1="108.302" x2="352.99" y2="177.084" gradientUnits="userSpaceOnUse">
<stop stop-color="#FFE30B"/>
<stop offset="1" stop-color="#FF712F"/>
</linearGradient>
<linearGradient id="paint4_linear_46_28941" x1="363.683" y1="54.4061" x2="299.666" y2="160.46" gradientUnits="userSpaceOnUse">
<stop stop-color="#FFE30B"/>
<stop offset="1" stop-color="#FF712F"/>
</linearGradient>
<linearGradient id="paint5_linear_46_28941" x1="292.501" y1="108.869" x2="374.287" y2="178.448" gradientUnits="userSpaceOnUse">
<stop stop-color="#FFE30B"/>
<stop offset="1" stop-color="#FF712F"/>
</linearGradient>
<linearGradient id="paint6_linear_46_28941" x1="413.634" y1="91.8273" x2="349.617" y2="197.881" gradientUnits="userSpaceOnUse">
<stop stop-color="#FFE30B"/>
<stop offset="1" stop-color="#FF712F"/>
</linearGradient>
<linearGradient id="paint7_linear_46_28941" x1="332.488" y1="133.574" x2="402.96" y2="202.345" gradientUnits="userSpaceOnUse">
<stop stop-color="#FFE30B"/>
<stop offset="1" stop-color="#FF712F"/>
</linearGradient>
<linearGradient id="paint8_linear_46_28941" x1="413.634" y1="79.681" x2="349.617" y2="185.724" gradientUnits="userSpaceOnUse">
<stop stop-color="#FFE30B"/>
<stop offset="1" stop-color="#FF712F"/>
</linearGradient>
<linearGradient id="paint9_linear_46_28941" x1="332.488" y1="121.428" x2="402.96" y2="190.198" gradientUnits="userSpaceOnUse">
<stop stop-color="#FFE30B"/>
<stop offset="1" stop-color="#FF712F"/>
</linearGradient>
<linearGradient id="paint10_linear_46_28941" x1="413.143" y1="67.5241" x2="349.126" y2="173.578" gradientUnits="userSpaceOnUse">
<stop stop-color="#FFE30B"/>
<stop offset="1" stop-color="#FF712F"/>
</linearGradient>
<linearGradient id="paint11_linear_46_28941" x1="328.139" y1="107.674" x2="418.855" y2="191.006" gradientUnits="userSpaceOnUse">
<stop stop-color="#FFE30B"/>
<stop offset="1" stop-color="#FF712F"/>
</linearGradient>
<linearGradient id="paint12_linear_46_28941" x1="208.423" y1="82.619" x2="226.508" y2="269.513" gradientUnits="userSpaceOnUse">
<stop stop-color="#0763BD"/>
<stop offset="1" stop-color="#172A7C"/>
</linearGradient>
<linearGradient id="paint13_linear_46_28941" x1="237.274" y1="184.99" x2="225.307" y2="248.265" gradientUnits="userSpaceOnUse">
<stop stop-color="#BB45FF"/>
<stop offset="1" stop-color="#1450BD"/>
</linearGradient>
<linearGradient id="paint14_linear_46_28941" x1="129.612" y1="286.688" x2="136.923" y2="286.688" gradientUnits="userSpaceOnUse">
<stop stop-color="#0763BD"/>
<stop offset="1" stop-color="#172A7C"/>
</linearGradient>
<linearGradient id="paint15_linear_46_28941" x1="86.7534" y1="294.279" x2="117.501" y2="294.279" gradientUnits="userSpaceOnUse">
<stop stop-color="#0763BD"/>
<stop offset="1" stop-color="#172A7C"/>
</linearGradient>
<linearGradient id="paint16_linear_46_28941" x1="96.2282" y1="207.953" x2="111.48" y2="322.432" gradientUnits="userSpaceOnUse">
<stop stop-color="#0763BD"/>
<stop offset="1" stop-color="#172A7C"/>
</linearGradient>
<linearGradient id="paint17_linear_46_28941" x1="165.869" y1="327.55" x2="169.917" y2="327.55" gradientUnits="userSpaceOnUse">
<stop stop-color="#0763BD"/>
<stop offset="1" stop-color="#172A7C"/>
</linearGradient>
<linearGradient id="paint18_linear_46_28941" x1="142.138" y1="331.755" x2="159.16" y2="331.755" gradientUnits="userSpaceOnUse">
<stop stop-color="#0763BD"/>
<stop offset="1" stop-color="#172A7C"/>
</linearGradient>
<linearGradient id="paint19_linear_46_28941" x1="147.392" y1="284.011" x2="155.833" y2="347.348" gradientUnits="userSpaceOnUse">
<stop stop-color="#0763BD"/>
<stop offset="1" stop-color="#172A7C"/>
</linearGradient>
<linearGradient id="paint20_linear_46_28941" x1="252.624" y1="-10.7917" x2="252.624" y2="162.115" gradientUnits="userSpaceOnUse">
<stop stop-color="#0763BD"/>
<stop offset="1" stop-color="#172A7C"/>
</linearGradient>
<linearGradient id="paint21_linear_46_28941" x1="268.183" y1="6.14937" x2="268.183" y2="152.033" gradientUnits="userSpaceOnUse">
<stop stop-color="#0763BD"/>
<stop offset="1" stop-color="#172A7C"/>
</linearGradient>
<linearGradient id="paint22_linear_46_28941" x1="224.745" y1="350.946" x2="258.439" y2="350.946" gradientUnits="userSpaceOnUse">
<stop stop-color="#0763BD"/>
<stop offset="1" stop-color="#172A7C"/>
</linearGradient>
<linearGradient id="paint23_linear_46_28941" x1="211.795" y1="335.403" x2="271.478" y2="335.403" gradientUnits="userSpaceOnUse">
<stop stop-color="#0763BD"/>
<stop offset="1" stop-color="#172A7C"/>
</linearGradient>
<linearGradient id="paint24_linear_46_28941" x1="198.843" y1="319.86" x2="284.506" y2="319.86" gradientUnits="userSpaceOnUse">
<stop stop-color="#0763BD"/>
<stop offset="1" stop-color="#172A7C"/>
</linearGradient>
<linearGradient id="paint25_linear_46_28941" x1="237.064" y1="368.503" x2="232.547" y2="379.266" gradientUnits="userSpaceOnUse">
<stop stop-color="#BB45FF"/>
<stop offset="1" stop-color="#1450BD"/>
</linearGradient>
<linearGradient id="paint26_linear_46_28941" x1="69.6018" y1="356.965" x2="112.173" y2="294.769" gradientUnits="userSpaceOnUse">
<stop stop-color="#0763BD"/>
<stop offset="1" stop-color="#172A7C"/>
</linearGradient>
<linearGradient id="paint27_linear_46_28941" x1="143.928" y1="381.65" x2="154.173" y2="381.65" gradientUnits="userSpaceOnUse">
<stop stop-color="#0763BD"/>
<stop offset="1" stop-color="#172A7C"/>
</linearGradient>
<linearGradient id="paint28_linear_46_28941" x1="60.5556" y1="295.085" x2="73.4895" y2="428.176" gradientUnits="userSpaceOnUse">
<stop stop-color="#0763BD"/>
<stop offset="1" stop-color="#172A7C"/>
</linearGradient>
</defs>
</svg>
