<svg width="425" height="490" viewBox="0 0 425 490" fill="none" xmlns="http://www.w3.org/2000/svg">
<path opacity="0.14" d="M12.5967 303.926L176.308 286.998L203.657 301.188L262.285 305.115L286.106 318.443C286.106 318.443 346.52 311.103 343.232 312.466C339.933 313.84 134.251 210.878 134.251 210.878L12.5967 303.926Z" fill="black"/>
<g opacity="0.5">
<path d="M34.7948 153.792L24.9854 158.711V215.515L34.7948 210.596V153.792Z" fill="url(#paint0_linear_46_30597)"/>
<path d="M48.5672 137.792L38.7578 142.7V208.611L48.5672 203.692V137.792Z" fill="url(#paint1_linear_46_30597)"/>
<path d="M62.3504 151.48L52.541 156.388V201.707L62.3504 196.788V151.48Z" fill="url(#paint2_linear_46_30597)"/>
<path d="M76.1239 120.711L66.3145 125.619V194.803L76.1239 189.883V120.711Z" fill="url(#paint3_linear_46_30597)"/>
<path d="M89.9061 126.187L80.0967 131.095V187.898L89.9061 182.99V126.187Z" fill="url(#paint4_linear_46_30597)"/>
<path d="M103.68 90.7605L93.8701 95.6796V180.994L103.68 176.086V90.7605Z" fill="url(#paint5_linear_46_30597)"/>
<path d="M112.911 176.206L19.9555 222.779V140.638C19.9555 140.246 19.6397 140.093 19.2587 140.289C18.8667 140.486 18.5619 140.955 18.5619 141.347V223.488L13.8804 225.833C13.4884 226.029 13.1836 226.498 13.1836 226.891C13.1836 227.284 13.4993 227.436 13.8804 227.24L18.5619 224.895V229.803C18.5619 230.196 18.8776 230.349 19.2587 230.152C19.6506 229.956 19.9555 229.487 19.9555 229.094V224.186L112.911 177.613C113.303 177.417 113.608 176.948 113.608 176.555C113.619 176.162 113.303 176.01 112.911 176.206Z" fill="url(#paint6_linear_46_30597)"/>
</g>
<path d="M12.1611 304.135L146.042 234.145C151.344 231.494 155.633 225.037 155.633 219.736L158.617 141.609C158.617 136.298 151.344 133.222 146.042 135.883L9.59168 204.248C4.28958 206.899 0 213.356 0 218.657V297.7C0.0108873 303.011 6.86986 306.785 12.1611 304.135Z" fill="url(#paint7_linear_46_30597)"/>
<path d="M12.5966 303.928L149.047 235.563C154.349 232.912 158.638 226.455 158.638 221.154V142.111C158.638 136.799 154.349 134.651 149.047 137.312L12.5966 205.666C7.29446 208.317 3.00488 214.774 3.00488 220.075V299.118C3.00488 304.44 7.29446 306.589 12.5966 303.928Z" fill="url(#paint8_linear_46_30597)"/>
<path d="M39.4007 248.269L20.5549 257.715C18.2359 258.871 16.3633 257.933 16.3633 255.609V243.383C16.3633 241.06 18.2468 238.235 20.5549 237.078L39.4007 227.633C41.7197 226.477 43.5923 227.415 43.5923 229.738V241.965C43.6032 244.288 41.7197 247.113 39.4007 248.269Z" fill="#FCAA37"/>
<mask id="mask0_46_30597" style="mask-type:luminance" maskUnits="userSpaceOnUse" x="16" y="227" width="28" height="32">
<path d="M39.4007 248.269L20.5549 257.715C18.2359 258.871 16.3633 257.933 16.3633 255.609V243.383C16.3633 241.06 18.2468 238.235 20.5549 237.078L39.4007 227.633C41.7197 226.477 43.5923 227.415 43.5923 229.738V241.965C43.6032 244.288 41.7197 247.113 39.4007 248.269Z" fill="white"/>
</mask>
<g mask="url(#mask0_46_30597)">
<path d="M22.6244 261.696L22.2324 261.892V233.152L22.6244 232.956V261.696Z" fill="#8C5E1F"/>
</g>
<mask id="mask1_46_30597" style="mask-type:luminance" maskUnits="userSpaceOnUse" x="16" y="227" width="28" height="32">
<path d="M39.4007 248.269L20.5549 257.715C18.2359 258.871 16.3633 257.933 16.3633 255.609V243.383C16.3633 241.06 18.2468 238.235 20.5549 237.078L39.4007 227.633C41.7197 226.477 43.5923 227.415 43.5923 229.738V241.965C43.6032 244.288 41.7197 247.113 39.4007 248.269Z" fill="white"/>
</mask>
<g mask="url(#mask1_46_30597)">
<path d="M22.4282 241.278L-6.25977 255.653V255.25L22.4282 240.885V241.278Z" fill="#8C5E1F"/>
</g>
<mask id="mask2_46_30597" style="mask-type:luminance" maskUnits="userSpaceOnUse" x="16" y="227" width="28" height="32">
<path d="M39.4007 248.269L20.5549 257.715C18.2359 258.871 16.3633 257.933 16.3633 255.609V243.383C16.3633 241.06 18.2468 238.235 20.5549 237.078L39.4007 227.633C41.7197 226.477 43.5923 227.415 43.5923 229.738V241.965C43.6032 244.288 41.7197 247.113 39.4007 248.269Z" fill="white"/>
</mask>
<g mask="url(#mask2_46_30597)">
<path d="M22.4282 250.691L-6.25977 265.066V264.673L22.4282 250.298V250.691Z" fill="#8C5E1F"/>
</g>
<mask id="mask3_46_30597" style="mask-type:luminance" maskUnits="userSpaceOnUse" x="16" y="227" width="28" height="32">
<path d="M39.4007 248.269L20.5549 257.715C18.2359 258.871 16.3633 257.933 16.3633 255.609V243.383C16.3633 241.06 18.2468 238.235 20.5549 237.078L39.4007 227.633C41.7197 226.477 43.5923 227.415 43.5923 229.738V241.965C43.6032 244.288 41.7197 247.113 39.4007 248.269Z" fill="white"/>
</mask>
<g mask="url(#mask3_46_30597)">
<path d="M66.892 218.994L38.2041 233.37V232.977L66.892 218.602V218.994Z" fill="#8C5E1F"/>
</g>
<mask id="mask4_46_30597" style="mask-type:luminance" maskUnits="userSpaceOnUse" x="16" y="227" width="28" height="32">
<path d="M39.4007 248.269L20.5549 257.715C18.2359 258.871 16.3633 257.933 16.3633 255.609V243.383C16.3633 241.06 18.2468 238.235 20.5549 237.078L39.4007 227.633C41.7197 226.477 43.5923 227.415 43.5923 229.738V241.965C43.6032 244.288 41.7197 247.113 39.4007 248.269Z" fill="white"/>
</mask>
<g mask="url(#mask4_46_30597)">
<path d="M34.5664 234.864L26.0635 239.129V238.725L34.5664 234.472V234.864Z" fill="#8C5E1F"/>
</g>
<mask id="mask5_46_30597" style="mask-type:luminance" maskUnits="userSpaceOnUse" x="16" y="227" width="28" height="32">
<path d="M39.4007 248.269L20.5549 257.715C18.2359 258.871 16.3633 257.933 16.3633 255.609V243.383C16.3633 241.06 18.2468 238.235 20.5549 237.078L39.4007 227.633C41.7197 226.477 43.5923 227.415 43.5923 229.738V241.965C43.6032 244.288 41.7197 247.113 39.4007 248.269Z" fill="white"/>
</mask>
<g mask="url(#mask5_46_30597)">
<path d="M34.5664 245.106L26.0635 249.36V248.967L34.5664 244.702V245.106Z" fill="#8C5E1F"/>
</g>
<mask id="mask6_46_30597" style="mask-type:luminance" maskUnits="userSpaceOnUse" x="16" y="227" width="28" height="32">
<path d="M39.4007 248.269L20.5549 257.715C18.2359 258.871 16.3633 257.933 16.3633 255.609V243.383C16.3633 241.06 18.2468 238.235 20.5549 237.078L39.4007 227.633C41.7197 226.477 43.5923 227.415 43.5923 229.738V241.965C43.6032 244.288 41.7197 247.113 39.4007 248.269Z" fill="white"/>
</mask>
<g mask="url(#mask6_46_30597)">
<path d="M66.892 228.418L38.2041 242.783V242.39L66.892 228.015V228.418Z" fill="#8C5E1F"/>
</g>
<mask id="mask7_46_30597" style="mask-type:luminance" maskUnits="userSpaceOnUse" x="16" y="227" width="28" height="32">
<path d="M39.4007 248.269L20.5549 257.715C18.2359 258.871 16.3633 257.933 16.3633 255.609V243.383C16.3633 241.06 18.2468 238.235 20.5549 237.078L39.4007 227.633C41.7197 226.477 43.5923 227.415 43.5923 229.738V241.965C43.6032 244.288 41.7197 247.113 39.4007 248.269Z" fill="white"/>
</mask>
<g mask="url(#mask7_46_30597)">
<path d="M38.3988 253.788L38.0068 253.995V225.244L38.3988 225.048V253.788Z" fill="#8C5E1F"/>
</g>
<path d="M81.1313 190.942C80.6305 191.443 79.6289 192.196 78.3333 192.839C75.3502 194.334 73.1074 193.57 73.1074 190.102C73.1074 186.786 75.3502 183.416 78.6273 181.769C79.9446 181.103 80.7721 180.973 81.1422 180.984L80.8156 182.26C80.293 182.271 79.5636 182.445 78.6817 182.892C76.1994 184.136 74.5554 186.546 74.5554 189.327C74.5554 191.923 76.047 192.839 78.6164 191.552C79.4438 191.138 80.293 190.538 80.8483 189.993L81.1313 190.942Z" fill="white"/>
<path d="M82.7548 185.248C82.7548 184.354 82.7439 183.59 82.6895 182.903L83.8979 182.303L83.9415 183.776L84.0068 183.743C84.3552 182.554 85.1826 181.485 86.1081 181.027C86.2605 180.951 86.3802 180.907 86.5 180.875V182.183C86.3585 182.227 86.2169 182.282 86.0318 182.369C85.0629 182.86 84.3661 183.939 84.181 185.074C84.1483 185.281 84.1157 185.51 84.1157 185.75V189.807L82.7548 190.494V185.248Z" fill="white"/>
<path d="M88.4922 184.049C88.5248 185.903 89.7115 186.077 91.0942 185.379C92.085 184.888 92.6838 184.409 93.1955 183.929L93.435 184.801C92.9451 185.27 92.1176 185.936 90.9091 186.535C88.5684 187.702 87.1748 186.863 87.1748 184.572C87.1748 182.282 88.5248 179.795 90.7349 178.682C93.2172 177.439 93.8705 179.293 93.8705 180.689C93.8705 180.973 93.8378 181.213 93.8269 181.355L88.4922 184.049ZM92.5422 181.027C92.5531 180.144 92.1829 178.955 90.6261 179.74C89.2325 180.438 88.6228 182.031 88.5031 183.045L92.5422 181.027Z" fill="white"/>
<path d="M102.145 169.608V178.802C102.145 179.479 102.155 180.242 102.21 180.733L100.969 181.355L100.903 180.067L100.871 180.089C100.446 181.147 99.5208 182.26 98.2796 182.882C96.4397 183.798 95.0352 182.958 95.0352 180.646C95.0243 178.126 96.5921 175.781 98.4429 174.854C99.6079 174.276 100.392 174.429 100.729 174.865L100.762 174.854V170.317L102.145 169.608ZM100.762 176.948C100.762 176.774 100.751 176.545 100.697 176.403C100.49 175.628 99.7385 175.279 98.7042 175.803C97.278 176.523 96.4288 178.202 96.4288 179.882C96.4288 181.42 97.18 182.314 98.6716 181.573C99.597 181.104 100.446 180.067 100.697 178.911C100.74 178.693 100.762 178.497 100.762 178.279V176.948Z" fill="white"/>
<path d="M105.977 169.095C105.988 169.564 105.65 170.109 105.095 170.382C104.605 170.622 104.268 170.426 104.268 169.946C104.268 169.455 104.627 168.899 105.128 168.648C105.65 168.397 105.977 168.615 105.977 169.095ZM104.442 179.609V172.007L105.824 171.32V178.922L104.442 179.609Z" fill="white"/>
<path d="M109.777 167.154V169.335L111.747 168.342V169.4L109.777 170.393V174.494C109.777 175.432 110.038 175.836 110.811 175.454C111.17 175.268 111.443 175.094 111.606 174.963L111.671 175.966C111.399 176.206 110.985 176.501 110.452 176.774C109.809 177.101 109.287 177.155 108.96 176.937C108.568 176.73 108.427 176.119 108.427 175.225V171.08L107.251 171.669V170.611L108.427 170.022V168.201L109.777 167.154Z" fill="white"/>
<path d="M124.073 169.433C123.572 169.935 122.57 170.687 121.275 171.331C118.292 172.825 116.049 172.062 116.049 168.593C116.049 165.278 118.292 161.907 121.569 160.26C122.886 159.595 123.713 159.464 124.084 159.475L123.757 160.751C123.234 160.762 122.505 160.937 121.623 161.384C119.141 162.627 117.497 165.038 117.497 167.819C117.497 170.415 118.988 171.331 121.558 170.044C122.385 169.629 123.234 169.03 123.79 168.484L124.073 169.433Z" fill="white"/>
<path d="M129.831 166.892L129.723 165.986L129.679 166.008C129.254 166.815 128.438 167.764 127.36 168.299C125.825 169.073 125.041 168.375 125.041 167.273C125.041 165.43 126.674 163.609 129.603 162.158V162.005C129.603 161.373 129.429 160.326 127.872 161.111C127.164 161.46 126.424 162.06 125.89 162.671L125.574 161.918C126.206 161.198 127.11 160.467 128.068 159.988C130.387 158.821 130.953 160.129 130.953 161.656V164.503C130.953 165.168 130.985 165.79 131.083 166.259L129.831 166.892ZM129.625 163.118C128.122 163.838 126.413 164.961 126.413 166.445C126.413 167.339 127.012 167.47 127.719 167.11C128.71 166.619 129.331 165.67 129.559 164.918C129.603 164.754 129.635 164.579 129.635 164.438V163.118H129.625Z" fill="white"/>
<path d="M133.195 159.977C133.195 159.082 133.184 158.319 133.13 157.632L134.338 157.021L134.382 158.493L134.447 158.461C134.796 157.261 135.623 156.203 136.548 155.745C136.701 155.668 136.821 155.625 136.94 155.592V156.901C136.799 156.945 136.657 156.999 136.472 157.086C135.503 157.577 134.807 158.657 134.621 159.791C134.589 159.998 134.556 160.228 134.556 160.467V164.525L133.195 165.212V159.977Z" fill="white"/>
<path d="M144.726 148.273V157.468C144.726 158.144 144.737 158.908 144.791 159.399L143.55 160.02L143.485 158.733L143.452 158.744C143.027 159.802 142.102 160.915 140.861 161.536C139.021 162.453 137.616 161.613 137.616 159.3C137.605 156.781 139.173 154.436 141.024 153.509C142.189 152.931 142.973 153.083 143.31 153.52L143.343 153.509V148.971L144.726 148.273ZM143.343 155.614C143.343 155.439 143.332 155.21 143.278 155.069C143.071 154.294 142.32 153.945 141.285 154.469C139.859 155.188 139.01 156.868 139.01 158.548C139.01 160.086 139.761 160.98 141.253 160.238C142.178 159.769 143.027 158.733 143.278 157.577C143.321 157.359 143.343 157.163 143.343 156.945V155.614Z" fill="white"/>
<path d="M19.9021 292.901C19.4666 293.337 18.6065 293.98 17.5069 294.526C14.9484 295.802 13.0322 295.147 13.0322 292.181C13.0322 289.345 14.9484 286.455 17.7573 285.048C18.8896 284.48 19.5972 284.371 19.913 284.371L19.6299 285.473C19.1835 285.484 18.5521 285.637 17.8008 286.007C15.6778 287.065 14.2625 289.138 14.2625 291.526C14.2625 293.751 15.5363 294.537 17.7464 293.435C18.465 293.075 19.1835 292.563 19.6517 292.104L19.9021 292.901Z" fill="white"/>
<path d="M24.8343 290.73L24.7363 289.956L24.6927 289.977C24.3335 290.676 23.6258 291.483 22.7004 291.941C21.383 292.606 20.708 292.006 20.708 291.068C20.708 289.498 22.1016 287.927 24.6165 286.684V286.553C24.6165 286.018 24.4641 285.113 23.1359 285.789C22.5262 286.095 21.8947 286.596 21.4483 287.12L21.1762 286.476C21.7096 285.855 22.4935 285.233 23.3101 284.829C25.3024 283.837 25.7815 284.949 25.7815 286.258V288.69C25.7815 289.258 25.8141 289.792 25.8903 290.196L24.8343 290.73ZM24.6601 287.491C23.3754 288.112 21.9056 289.072 21.9056 290.337C21.9056 291.101 22.4173 291.21 23.0161 290.905C23.8653 290.479 24.3988 289.672 24.5839 289.029C24.6274 288.887 24.6492 288.734 24.6492 288.614V287.491H24.6601Z" fill="white"/>
<path d="M27.7195 284.808C27.7195 284.044 27.7086 283.39 27.665 282.801L28.6993 282.277L28.7429 283.531L28.7973 283.51C29.0913 282.484 29.8098 281.579 30.5937 281.176C30.7244 281.11 30.8223 281.077 30.9312 281.045V282.157C30.8115 282.19 30.6917 282.244 30.5284 282.321C29.6901 282.735 29.1022 283.673 28.9389 284.633C28.9171 284.808 28.8844 285.015 28.8844 285.211V288.69L27.7195 289.279V284.808Z" fill="white"/>
<path d="M37.593 274.773V282.648C37.593 283.226 37.6039 283.881 37.6475 284.306L36.5805 284.84L36.5261 283.739L36.5043 283.75C36.145 284.655 35.3503 285.604 34.2833 286.138C32.7155 286.924 31.4962 286.193 31.4962 284.219C31.4853 282.059 32.8244 280.052 34.4139 279.256C35.4047 278.754 36.0797 278.896 36.3737 279.267L36.3954 279.256V275.362L37.593 274.773ZM36.4063 281.067C36.4063 280.925 36.3954 280.728 36.3519 280.598C36.1777 279.932 35.5353 279.638 34.6426 280.074C33.4232 280.685 32.6938 282.125 32.6938 283.564C32.6938 284.884 33.3361 285.647 34.6099 285.015C35.4047 284.611 36.1232 283.728 36.341 282.735C36.3845 282.55 36.3954 282.386 36.3954 282.201V281.067H36.4063Z" fill="white"/>
<path d="M43.6132 272.243V276.038L47.9899 273.846V270.05L49.1766 269.461V278.536L47.9899 279.125V274.871L43.6132 277.064V281.317L42.4482 281.906V272.832L43.6132 272.243Z" fill="white"/>
<path d="M57.0475 271.272C57.0475 273.682 55.3817 275.569 53.814 276.355C52.0502 277.238 50.7002 276.627 50.7002 274.566C50.7002 272.384 52.1264 270.388 53.9228 269.494C55.7845 268.556 57.0475 269.287 57.0475 271.272ZM51.8869 273.933C51.8869 275.362 52.7035 276.027 53.8575 275.449C54.9898 274.882 55.8281 273.399 55.8281 271.926C55.8281 270.825 55.2728 269.701 53.8793 270.399C52.4966 271.097 51.8869 272.69 51.8869 273.933Z" fill="white"/>
<path d="M58.541 264.28L59.7277 263.691V273.257L58.541 273.846V264.28Z" fill="white"/>
<path d="M67.3254 259.874V267.749C67.3254 268.327 67.3363 268.981 67.3799 269.407L66.3129 269.941L66.2585 268.84L66.2367 268.851C65.8774 269.756 65.0827 270.705 64.0157 271.239C62.448 272.024 61.2286 271.294 61.2286 269.32C61.2177 267.16 62.5568 265.153 64.1464 264.357C65.1371 263.855 65.8121 263.997 66.1061 264.368L66.1278 264.357V260.463L67.3254 259.874ZM66.1496 266.167C66.1496 266.026 66.1387 265.818 66.0952 265.698C65.921 265.033 65.2786 264.739 64.3859 265.175C63.1665 265.786 62.4371 267.225 62.4371 268.665C62.4371 269.985 63.0794 270.748 64.3532 270.116C65.148 269.723 65.8665 268.829 66.0843 267.836C66.1278 267.651 66.1387 267.487 66.1387 267.302V266.167H66.1496Z" fill="white"/>
<path d="M69.9497 265.088C69.9823 266.68 70.9948 266.822 72.1816 266.233C73.0308 265.807 73.5425 265.404 73.9779 264.989L74.1848 265.742C73.7711 266.135 73.0525 266.713 72.0182 267.225C70.015 268.229 68.8174 267.509 68.8174 265.546C68.8174 263.582 69.9714 261.456 71.8658 260.507C73.9888 259.438 74.555 261.03 74.555 262.23C74.555 262.47 74.5223 262.677 74.5114 262.808L69.9497 265.088ZM73.4227 262.503C73.4336 261.739 73.1179 260.736 71.7787 261.401C70.5811 262.001 70.0585 263.364 69.9605 264.237L73.4227 262.503Z" fill="white"/>
<path d="M76.0251 260.594C76.0251 259.83 76.0143 259.176 75.9707 258.587L77.005 258.064L77.0485 259.318L77.103 259.296C77.3969 258.271 78.1155 257.365 78.8994 256.962C79.03 256.896 79.128 256.864 79.2369 256.831V257.944C79.1171 257.976 78.9974 258.02 78.8341 258.107C77.9957 258.522 77.4078 259.46 77.2445 260.419C77.2118 260.594 77.1901 260.801 77.1901 260.998V264.466L76.0251 265.055V260.594Z" fill="white"/>
<path d="M21.0233 264.466L21.0015 264.477L19.5644 265.95L19.3467 265.23L21.154 263.386L22.1012 262.906V270.956L21.0233 271.501V264.466Z" fill="#333333"/>
<path d="M25.1055 269.44V268.774L25.9873 267.509C28.0995 264.499 29.0467 262.983 29.0684 261.761C29.0684 260.943 28.6656 260.398 27.4245 261.009C26.6732 261.39 26.0527 262.067 25.6716 262.568L25.3123 261.979C25.8894 261.227 26.695 260.474 27.6531 259.994C29.4277 259.1 30.1789 259.918 30.1789 261.063C30.1789 262.547 29.0684 264.303 27.3265 266.811L26.6623 267.738V267.76L30.3749 265.895V266.8L25.1055 269.44Z" fill="#333333"/>
<path d="M31.889 264.793C32.2047 264.837 32.945 264.772 33.718 264.379C35.1552 263.659 35.6015 262.547 35.5906 261.881C35.5798 260.758 34.5346 260.801 33.4567 261.347L32.8362 261.663V260.845L33.4567 260.529C34.2733 260.125 35.2967 259.198 35.2967 258.238C35.2967 257.595 34.8721 257.235 33.8487 257.747C33.1846 258.075 32.5531 258.685 32.1938 259.111L31.8999 258.467C32.3353 257.944 33.1737 257.213 34.0555 256.766C35.6777 255.948 36.4181 256.526 36.4181 257.497C36.4181 258.326 35.9064 259.285 34.8939 260.158V260.18C35.9064 259.874 36.7338 260.202 36.7338 261.325C36.7338 262.612 35.6995 264.259 33.718 265.251C32.7926 265.72 31.9761 265.84 31.5732 265.786L31.889 264.793Z" fill="#333333"/>
<path d="M41.5991 261.183V258.991L37.7559 260.91V260.19L41.4358 253.21L42.6442 252.61V257.606L43.7983 257.027V257.878L42.6442 258.456V260.649L41.5991 261.183ZM41.5991 258.129V255.446C41.5991 255.021 41.61 254.595 41.6317 254.159L41.5991 254.181C41.3487 254.781 41.1418 255.228 40.9132 255.719L38.8881 259.471V259.492L41.5991 258.129Z" fill="#333333"/>
<path d="M57.6695 246L54.5231 247.582L54.2074 249.807C54.4033 249.687 54.5775 249.578 54.8824 249.425C55.5138 249.109 56.1562 248.923 56.657 248.967C57.2994 249 57.8437 249.425 57.8437 250.44C57.8437 252.01 56.559 253.832 54.7735 254.726C53.8699 255.184 53.1078 255.315 52.7158 255.26L52.9989 254.29C53.3473 254.312 54.0114 254.224 54.7626 253.853C55.8187 253.33 56.7223 252.207 56.7223 251.127C56.7114 250.091 55.9929 249.709 54.3489 250.538C53.8808 250.778 53.5106 251.007 53.2057 251.203L53.7392 247.069L57.6913 245.084V246H57.6695Z" fill="#333333"/>
<path d="M63.9729 242.696C63.7443 242.794 63.4503 242.957 63.1346 243.165C61.3817 244.332 60.4563 246.044 60.2603 247.462L60.293 247.44C60.685 246.731 61.3709 245.968 62.2854 245.51C63.7443 244.779 64.7786 245.292 64.7786 246.862C64.7786 248.335 63.7443 250.211 62.035 251.072C60.2712 251.956 59.1172 251.203 59.1172 249.109C59.1172 247.527 59.7051 245.979 60.5108 244.779C61.1967 243.775 62.1112 242.914 63.1564 242.27C63.483 242.052 63.7661 241.899 63.9729 241.801V242.696ZM63.6572 247.495C63.6572 246.339 62.9822 245.99 61.9588 246.502C61.2838 246.84 60.6632 247.56 60.3583 248.291C60.2821 248.455 60.2277 248.64 60.2277 248.836C60.2495 250.145 60.87 250.81 62.0459 250.232C63.0039 249.752 63.6572 248.64 63.6572 247.495Z" fill="#333333"/>
<path d="M71.1367 238.333V239.053L67.5439 248.182L66.3899 248.76L69.9718 239.849V239.827L65.9326 241.856V240.951L71.1367 238.333Z" fill="#333333"/>
<path d="M72.1934 243.808C72.1934 242.794 72.8139 241.769 73.8373 240.831L73.8264 240.798C72.9119 240.842 72.52 240.34 72.52 239.642C72.52 238.366 73.6305 236.948 75.0785 236.228C76.6789 235.421 77.4846 235.999 77.4846 237.002C77.4846 237.679 77.1362 238.584 76.1237 239.565V239.598C77.158 239.478 77.7894 239.871 77.7894 240.842C77.7894 242.238 76.5592 243.797 74.9805 244.583C73.2385 245.466 72.1934 244.986 72.1934 243.808ZM76.6463 241.529C76.6463 240.547 75.9495 240.427 74.8281 240.678C73.8591 241.431 73.3365 242.314 73.3365 243.078C73.3039 243.917 73.9353 244.31 74.9914 243.786C75.993 243.296 76.6463 242.358 76.6463 241.529ZM73.5652 239.053C73.5652 239.86 74.1857 239.98 75.1438 239.751C75.8515 239.162 76.3958 238.388 76.3958 237.657C76.3958 237.013 76.0039 236.544 75.0023 237.046C74.0769 237.504 73.5652 238.355 73.5652 239.053Z" fill="#333333"/>
<path d="M87.5444 237.395C87.784 237.297 88.067 237.133 88.4481 236.904C89.0904 236.49 89.7001 235.922 90.1792 235.257C90.7235 234.504 91.1155 233.599 91.2679 232.574L91.2352 232.596C90.778 233.37 90.1138 234.025 89.2864 234.439C87.7949 235.181 86.8477 234.57 86.8477 233.196C86.8477 231.669 87.9799 229.771 89.6675 228.92C91.355 228.069 92.4002 228.887 92.4002 230.938C92.4002 232.705 91.7905 234.254 90.9739 235.432C90.3425 236.359 89.4606 237.166 88.5678 237.711C88.165 237.973 87.8057 238.169 87.5336 238.289V237.395H87.5444ZM87.9473 232.563C87.9473 233.566 88.5678 233.959 89.5368 233.479C90.288 233.108 90.8759 232.454 91.159 231.821C91.2243 231.69 91.257 231.549 91.257 231.374C91.257 230 90.7344 229.215 89.5695 229.793C88.6223 230.273 87.9473 231.429 87.9473 232.563Z" fill="#333333"/>
<path d="M98.8989 228.364C98.8989 231.102 97.8537 233.13 96.0247 234.046C94.4134 234.854 93.3138 233.927 93.292 231.276C93.292 228.582 94.4896 226.499 96.1662 225.659C97.9082 224.786 98.8989 225.801 98.8989 228.364ZM94.4134 230.731C94.4134 232.825 95.0775 233.676 96.09 233.174C97.2332 232.596 97.7775 231.025 97.7775 228.975C97.7775 226.99 97.2549 225.953 96.1009 226.532C95.1319 227.022 94.4134 228.538 94.4134 230.731Z" fill="#333333"/>
<path d="M105.421 225.092C105.421 227.829 104.376 229.858 102.547 230.774C100.936 231.581 99.8362 230.654 99.8145 228.015C99.8145 225.321 101.012 223.237 102.689 222.398C104.431 221.525 105.421 222.539 105.421 225.092ZM100.936 227.469C100.936 229.564 101.6 230.414 102.612 229.913C103.756 229.335 104.3 227.764 104.3 225.713C104.3 223.728 103.777 222.692 102.623 223.27C101.644 223.761 100.936 225.277 100.936 227.469Z" fill="#333333"/>
<path d="M111.943 221.83C111.943 224.568 110.898 226.597 109.069 227.513C107.457 228.32 106.358 227.393 106.336 224.743C106.336 222.049 107.534 219.965 109.21 219.126C110.952 218.253 111.943 219.267 111.943 221.83ZM107.457 224.197C107.457 226.291 108.121 227.142 109.134 226.64C110.277 226.062 110.821 224.492 110.821 222.441C110.821 220.456 110.299 219.42 109.145 219.998C108.165 220.489 107.457 222.016 107.457 224.197Z" fill="#333333"/>
<path d="M126.531 214.523C126.531 217.261 125.486 219.289 123.657 220.205C122.045 221.013 120.946 220.085 120.924 217.446C120.924 214.752 122.121 212.669 123.798 211.829C125.54 210.945 126.531 211.96 126.531 214.523ZM122.045 216.89C122.045 218.984 122.709 219.835 123.722 219.333C124.865 218.755 125.409 217.184 125.409 215.134C125.409 213.149 124.887 212.112 123.733 212.691C122.764 213.181 122.045 214.697 122.045 216.89Z" fill="#333333"/>
<path d="M133.052 211.251C133.052 213.988 132.007 216.017 130.178 216.933C128.567 217.74 127.467 216.813 127.445 214.174C127.445 211.48 128.643 209.396 130.32 208.557C132.062 207.673 133.052 208.688 133.052 211.251ZM128.567 213.618C128.567 215.712 129.231 216.562 130.243 216.061C131.387 215.483 131.931 213.912 131.931 211.861C131.931 209.876 131.408 208.84 130.254 209.418C129.274 209.909 128.567 211.436 128.567 213.618Z" fill="#333333"/>
<path d="M139.574 207.99C139.574 210.727 138.529 212.756 136.699 213.672C135.088 214.479 133.989 213.552 133.967 210.902C133.967 208.208 135.164 206.125 136.841 205.285C138.583 204.412 139.574 205.427 139.574 207.99ZM135.088 210.356C135.088 212.451 135.752 213.301 136.765 212.8C137.908 212.222 138.452 210.651 138.452 208.6C138.452 206.615 137.93 205.579 136.776 206.157C135.796 206.648 135.088 208.164 135.088 210.356Z" fill="#333333"/>
<path d="M146.095 204.717C146.095 207.455 145.05 209.484 143.221 210.4C141.61 211.207 140.51 210.28 140.488 207.63C140.488 204.936 141.686 202.852 143.363 202.013C145.104 201.14 146.095 202.154 146.095 204.717ZM141.61 207.095C141.61 209.189 142.274 210.04 143.286 209.538C144.429 208.96 144.974 207.39 144.974 205.339C144.974 203.365 144.451 202.318 143.297 202.896C142.317 203.376 141.61 204.903 141.61 207.095Z" fill="#333333"/>
<path d="M21.2948 264.466L21.273 264.477L19.8359 265.95L19.6182 265.23L21.4254 263.386L22.3726 262.906V270.956L21.2948 271.501V264.466Z" fill="white"/>
<path d="M25.3887 269.44V268.774L26.2705 267.509C28.3827 264.499 29.3299 262.983 29.3516 261.761C29.3516 260.943 28.9488 260.398 27.7077 261.009C26.9564 261.39 26.3359 262.067 25.9548 262.568L25.5955 261.979C26.1726 261.227 26.9782 260.474 27.9363 259.994C29.7109 259.1 30.4621 259.918 30.4621 261.063C30.4621 262.547 29.3516 264.303 27.6097 266.811L26.9456 267.738V267.76L30.6581 265.895V266.8L25.3887 269.44Z" fill="white"/>
<path d="M32.1722 264.793C32.4879 264.837 33.2282 264.772 34.0012 264.379C35.4384 263.659 35.8847 262.547 35.8738 261.881C35.863 260.758 34.8178 260.801 33.7399 261.347L33.1194 261.663V260.845L33.7399 260.529C34.5565 260.125 35.5799 259.198 35.5799 258.238C35.5799 257.595 35.1553 257.235 34.1319 257.747C33.4678 258.075 32.8363 258.685 32.477 259.111L32.1831 258.467C32.6186 257.944 33.4569 257.213 34.3387 256.766C35.9609 255.948 36.7013 256.526 36.7013 257.497C36.7013 258.326 36.1896 259.285 35.1771 260.158V260.18C36.1896 259.874 37.017 260.202 37.017 261.325C37.017 262.612 35.9827 264.259 34.0012 265.251C33.0758 265.72 32.2593 265.84 31.8564 265.786L32.1722 264.793Z" fill="white"/>
<path d="M41.8823 261.183V258.991L38.0391 260.91V260.19L41.719 253.21L42.9274 252.61V257.606L44.0815 257.027V257.878L42.9274 258.456V260.649L41.8823 261.183ZM41.8823 258.129V255.446C41.8823 255.021 41.8932 254.595 41.9149 254.159L41.8823 254.181C41.6319 254.781 41.425 255.228 41.1964 255.719L39.1713 259.471V259.492L41.8823 258.129Z" fill="white"/>
<path d="M57.9527 246.001L54.8063 247.582L54.4906 249.807C54.6865 249.687 54.8607 249.578 55.1656 249.425C55.797 249.109 56.4394 248.924 56.9402 248.967C57.5826 249 58.1269 249.425 58.1269 250.44C58.1269 252.01 56.8422 253.832 55.0567 254.726C54.1531 255.184 53.391 255.315 52.999 255.261L53.2821 254.29C53.6305 254.312 54.2946 254.225 55.0458 253.854C56.1019 253.33 57.0055 252.207 57.0055 251.127C56.9946 250.091 56.2761 249.709 54.6321 250.538C54.164 250.778 53.7938 251.007 53.489 251.203L54.0224 247.07L57.9745 245.084V246.001H57.9527Z" fill="white"/>
<path d="M64.2571 242.696C64.0284 242.794 63.7345 242.957 63.4188 243.165C61.6659 244.332 60.7405 246.044 60.5445 247.462L60.5772 247.44C60.9691 246.731 61.655 245.968 62.5696 245.51C64.0285 244.779 65.0627 245.292 65.0627 246.862C65.0627 248.335 64.0285 250.211 62.3192 251.072C60.5554 251.956 59.4014 251.203 59.4014 249.109C59.4014 247.527 59.9893 245.979 60.7949 244.779C61.4808 243.775 62.3954 242.914 63.4405 242.27C63.7672 242.052 64.0502 241.899 64.2571 241.801V242.696ZM63.9414 247.495C63.9414 246.339 63.2663 245.99 62.2429 246.502C61.5679 246.84 60.9474 247.56 60.6425 248.291C60.5663 248.455 60.5119 248.64 60.5119 248.836C60.5336 250.145 61.1542 250.81 62.33 250.232C63.2881 249.752 63.9414 248.64 63.9414 247.495Z" fill="white"/>
<path d="M71.4199 238.333V239.053L67.8271 248.182L66.6731 248.76L70.255 239.849V239.827L66.2158 241.856V240.951L71.4199 238.333Z" fill="white"/>
<path d="M72.4766 243.808C72.4766 242.794 73.0971 241.769 74.1205 240.831L74.1097 240.798C73.1951 240.842 72.8032 240.34 72.8032 239.642C72.8032 238.366 73.9137 236.948 75.3617 236.228C76.9621 235.421 77.7678 235.999 77.7678 237.002C77.7678 237.679 77.4194 238.584 76.4069 239.565V239.598C77.4412 239.478 78.0726 239.871 78.0726 240.842C78.0726 242.238 76.8424 243.797 75.2637 244.583C73.5217 245.466 72.4766 244.986 72.4766 243.808ZM76.9186 241.529C76.9186 240.547 76.2218 240.427 75.1004 240.678C74.1314 241.431 73.6088 242.314 73.6088 243.078C73.5762 243.917 74.2076 244.31 75.2637 243.786C76.2762 243.296 76.9186 242.358 76.9186 241.529ZM73.8484 239.053C73.8484 239.86 74.4689 239.98 75.427 239.751C76.1347 239.162 76.679 238.388 76.679 237.657C76.679 237.013 76.2871 236.544 75.2855 237.046C74.3601 237.504 73.8484 238.355 73.8484 239.053Z" fill="white"/>
<path d="M87.8161 237.395C88.0556 237.297 88.3387 237.133 88.7197 236.904C89.3621 236.49 89.9717 235.922 90.4508 235.257C90.9951 234.504 91.3871 233.599 91.5395 232.574L91.496 232.596C91.0387 233.37 90.3746 234.025 89.5471 234.439C88.0556 235.181 87.1084 234.57 87.1084 233.196C87.1084 231.669 88.2407 229.771 89.9282 228.92C91.6157 228.069 92.6609 228.887 92.6609 230.938C92.6609 232.705 92.0512 234.254 91.2347 235.432C90.6032 236.359 89.7213 237.166 88.8286 237.711C88.4258 237.973 88.0665 238.169 87.7943 238.289V237.395H87.8161ZM88.2298 232.563C88.2298 233.566 88.8504 233.959 89.8193 233.479C90.5705 233.108 91.1585 232.454 91.4415 231.821C91.5068 231.69 91.5395 231.549 91.5395 231.374C91.5395 230 91.0169 229.215 89.852 229.793C88.9048 230.273 88.2298 231.429 88.2298 232.563Z" fill="white"/>
<path d="M99.1821 228.364C99.1821 231.102 98.137 233.13 96.3079 234.046C94.6966 234.854 93.597 233.927 93.5752 231.276C93.5752 228.582 94.7728 226.499 96.4494 225.659C98.1914 224.786 99.1821 225.801 99.1821 228.364ZM94.6966 230.731C94.6966 232.825 95.3607 233.676 96.3732 233.174C97.5164 232.596 98.0607 231.025 98.0607 228.975C98.0607 226.99 97.5382 225.953 96.3841 226.532C95.4043 227.022 94.6966 228.538 94.6966 230.731Z" fill="white"/>
<path d="M105.704 225.092C105.704 227.829 104.658 229.858 102.829 230.774C101.218 231.581 100.118 230.654 100.097 228.015C100.097 225.321 101.294 223.237 102.971 222.398C104.713 221.525 105.704 222.539 105.704 225.092ZM101.218 227.469C101.218 229.564 101.882 230.414 102.895 229.913C104.038 229.335 104.582 227.764 104.582 225.713C104.582 223.728 104.06 222.692 102.906 223.27C101.926 223.761 101.218 225.277 101.218 227.469Z" fill="white"/>
<path d="M112.214 221.83C112.214 224.568 111.169 226.597 109.34 227.513C107.729 228.32 106.629 227.393 106.607 224.743C106.607 222.049 107.805 219.965 109.482 219.126C111.224 218.253 112.214 219.267 112.214 221.83ZM107.729 224.197C107.729 226.291 108.393 227.142 109.405 226.64C110.549 226.062 111.093 224.492 111.093 222.441C111.093 220.456 110.57 219.42 109.416 219.998C108.447 220.489 107.729 222.016 107.729 224.197Z" fill="white"/>
<path d="M126.814 214.523C126.814 217.261 125.769 219.289 123.94 220.205C122.328 221.013 121.229 220.085 121.207 217.446C121.207 214.752 122.405 212.669 124.081 211.829C125.823 210.945 126.814 211.96 126.814 214.523ZM122.328 216.89C122.328 218.984 122.993 219.835 124.005 219.333C125.148 218.755 125.693 217.184 125.693 215.134C125.693 213.149 125.17 212.112 124.016 212.691C123.036 213.181 122.328 214.697 122.328 216.89Z" fill="white"/>
<path d="M133.335 211.251C133.335 213.988 132.29 216.017 130.461 216.933C128.85 217.74 127.75 216.813 127.729 214.174C127.729 211.48 128.926 209.396 130.603 208.557C132.345 207.673 133.335 208.688 133.335 211.251ZM128.85 213.618C128.85 215.712 129.514 216.562 130.527 216.061C131.67 215.483 132.214 213.912 132.214 211.861C132.214 209.876 131.691 208.84 130.537 209.418C129.558 209.909 128.85 211.436 128.85 213.618Z" fill="white"/>
<path d="M139.847 207.99C139.847 210.727 138.802 212.756 136.973 213.672C135.362 214.479 134.262 213.552 134.24 210.902C134.24 208.208 135.438 206.125 137.114 205.285C138.856 204.412 139.847 205.427 139.847 207.99ZM135.362 210.356C135.362 212.451 136.026 213.301 137.038 212.8C138.181 212.222 138.726 210.651 138.726 208.6C138.726 206.615 138.203 205.579 137.049 206.157C136.08 206.648 135.362 208.164 135.362 210.356Z" fill="white"/>
<path d="M146.368 204.717C146.368 207.455 145.323 209.484 143.493 210.4C141.882 211.207 140.783 210.28 140.761 207.63C140.761 204.936 141.958 202.852 143.635 202.013C145.377 201.14 146.368 202.154 146.368 204.717ZM141.882 207.095C141.882 209.189 142.546 210.04 143.559 209.538C144.702 208.96 145.246 207.39 145.246 205.339C145.246 203.365 144.724 202.318 143.57 202.896C142.59 203.376 141.882 204.903 141.882 207.095Z" fill="white"/>
<path d="M13.751 214.599C14.3498 214.174 15.2861 213.606 16.2442 213.126C17.6051 212.439 18.4869 212.243 19.1511 212.439C19.6954 212.57 20.0329 213.039 20.0329 213.868C20.0329 214.893 19.3579 216.126 18.2474 217.086V217.118C19.249 216.868 20.4249 217.108 20.4249 218.678C20.4249 219.594 20.0656 220.467 19.5321 221.252C18.7918 222.299 17.6051 223.205 15.874 224.077C14.9377 224.546 14.2082 224.852 13.751 225.015V214.599ZM15.1119 218.253L16.353 217.631C17.801 216.911 18.6394 215.733 18.6394 214.708C18.6394 213.465 17.7031 213.454 16.3204 214.141C15.6889 214.457 15.3296 214.686 15.1119 214.839V218.253ZM15.1119 223.335C15.3841 223.248 15.7651 223.074 16.255 222.823C17.6704 222.114 18.966 220.947 18.966 219.409C18.966 217.958 17.7248 217.991 16.2333 218.733L15.101 219.3V223.335H15.1119Z" fill="white"/>
<path d="M26.4125 218.711L26.3036 217.806L26.26 217.827C25.8354 218.635 25.0189 219.583 23.9411 220.118C22.406 220.892 21.6221 220.194 21.6221 219.093C21.6221 217.249 23.2552 215.428 26.1838 213.977V213.825C26.1838 213.192 26.0096 212.156 24.4528 212.93C23.7451 213.279 23.0048 213.879 22.4713 214.49L22.1555 213.737C22.787 213.017 23.6906 212.287 24.6487 211.818C26.9677 210.651 27.5339 211.959 27.5339 213.486V216.333C27.5339 216.999 27.5665 217.62 27.6645 218.089L26.4125 218.711ZM26.2056 214.926C24.7032 215.646 22.9939 216.769 22.9939 218.253C22.9939 219.147 23.5927 219.278 24.3003 218.918C25.2911 218.427 25.9117 217.478 26.1403 216.726C26.1838 216.562 26.2165 216.388 26.2165 216.246V214.926H26.2056Z" fill="white"/>
<path d="M29.7655 211.48C29.7655 210.694 29.7546 210.062 29.7002 209.451L30.9196 208.84L30.9958 210.062L31.0284 210.051C31.4095 209.135 32.2805 207.99 33.5434 207.368C34.5995 206.844 36.2217 206.648 36.2217 209.266V213.781L34.839 214.468V210.084C34.839 208.862 34.3817 208.066 33.0861 208.72C32.1716 209.178 31.4748 210.171 31.2353 211.065C31.17 211.273 31.1373 211.523 31.1373 211.752V216.322L29.7546 217.021V211.48H29.7655Z" fill="white"/>
<path d="M39.8463 207.859L39.8789 207.848C40.064 207.488 40.3362 207.019 40.5539 206.648L42.7858 202.907L44.4516 202.078L41.512 206.681L44.8544 209.484L43.1778 210.324L40.5539 207.989L39.8463 209.124V211.981L38.4854 212.669V201.511L39.8463 200.823V207.859Z" fill="white"/>
<path d="M52.4006 236.261C52.1719 236.37 51.9433 236.402 51.7691 236.315C51.4207 236.141 51.4207 235.574 51.7691 235.05C52.8361 233.436 53.3695 232.061 53.3478 230.938C53.3042 229.117 51.8235 228.495 51.8127 228.484C51.4534 228.331 51.4207 227.786 51.7473 227.251C52.0739 226.717 52.6401 226.412 52.9994 226.553C53.0865 226.586 55.0571 227.393 55.1333 229.978C55.1768 231.603 54.4691 233.523 53.0429 235.683C52.8578 235.944 52.6292 236.141 52.4006 236.261Z" fill="#FAFAFA"/>
<path d="M55.3733 237.057C55.1446 237.166 54.916 237.199 54.7418 237.111C54.3934 236.937 54.3934 236.37 54.7418 235.846C56.5491 233.13 57.431 230.785 57.3874 228.866C57.3112 225.768 54.8071 224.721 54.7745 224.71C54.4043 224.568 54.3825 224.012 54.7091 223.478C55.0358 222.943 55.6019 222.627 55.9721 222.78C56.1027 222.834 59.064 224.045 59.1729 227.906C59.2382 230.327 58.1713 233.218 56.0047 236.479C55.8305 236.741 55.6019 236.937 55.3733 237.057Z" fill="#FAFAFA"/>
<path d="M58.6828 237.351C58.4542 237.46 58.2256 237.493 58.0514 237.406C57.703 237.231 57.703 236.664 58.0514 236.141C60.4792 232.487 61.6768 229.313 61.6115 226.706C61.5026 222.507 58.1167 221.1 58.084 221.089C57.7139 220.947 57.6921 220.391 58.0187 219.856C58.3453 219.322 58.9115 219.017 59.2816 219.158C59.4449 219.224 63.2555 220.784 63.397 225.746C63.4841 228.855 62.1123 232.563 59.3143 236.773C59.1401 237.035 58.9115 237.242 58.6828 237.351Z" fill="#FAFAFA"/>
<path opacity="0.51" d="M128.171 240.36C132.12 235.294 132.819 229.231 129.734 226.817C126.649 224.404 120.947 226.554 116.999 231.621C113.05 236.687 112.351 242.75 115.436 245.163C118.521 247.576 124.223 245.426 128.171 240.36Z" fill="white"/>
<path opacity="0.51" d="M137.241 235.816C141.189 230.75 141.889 224.687 138.803 222.274C135.718 219.86 130.016 222.011 126.068 227.077C122.12 232.143 121.42 238.206 124.505 240.619C127.591 243.033 133.293 240.882 137.241 235.816Z" fill="white"/>
<path opacity="0.51" d="M147.369 229.771C143.951 235.159 138.213 238.235 134.544 236.653C130.875 235.072 130.679 229.422 134.087 224.034C137.506 218.646 143.243 215.57 146.912 217.151C150.581 218.733 150.788 224.383 147.369 229.771Z" fill="white"/>
<path d="M290.373 58.9882L174.532 0.908328C172.268 -0.226002 170.232 -0.258723 168.816 0.592024V0.581117L159.66 5.14025L164.407 7.27803V244.757C164.407 249.021 167.858 254.213 172.115 256.34L286.954 313.918L286.105 318.455L295.533 313.754H295.522C297.09 313.122 298.081 311.584 298.081 309.304V70.5824C298.081 66.3068 294.63 61.126 290.373 58.9882Z" fill="url(#paint9_linear_46_30597)"/>
<path d="M280.574 318.03L164.734 259.95C160.477 257.812 157.025 252.631 157.025 248.367V9.64493C157.025 5.38029 160.477 3.64607 164.734 5.78385L280.574 63.8637C284.831 66.0015 288.282 71.1823 288.282 75.447V314.169C288.293 318.434 284.842 320.168 280.574 318.03Z" fill="url(#paint10_linear_46_30597)"/>
<path d="M272.245 299.902L173.062 250.167C168.805 248.029 165.354 242.848 165.354 238.583V27.7724C165.354 23.5077 168.805 21.7735 173.062 23.9113L272.245 73.6473C276.502 75.7851 279.953 80.9659 279.953 85.2306V296.041C279.964 300.306 276.502 302.04 272.245 299.902Z" fill="url(#paint11_linear_46_30597)"/>
<path d="M247.608 56.4032L203.362 34.2401C202.044 33.5857 200.978 31.9824 200.978 30.6626C200.978 29.3429 202.044 28.8084 203.362 29.4738L247.608 51.6368C248.925 52.2912 249.992 53.8946 249.992 55.2143C249.992 56.5341 248.925 57.0685 247.608 56.4032Z" fill="url(#paint12_linear_46_30597)"/>
<path d="M266.225 195.566L179.095 151.905V122.26L266.225 165.921V195.566Z" fill="#47AE9D"/>
<path d="M186.148 147.531V133.712L262.283 171.876V185.695L186.148 147.531Z" fill="#258E8D"/>
<path d="M188.653 141.631C188.653 141.631 132.268 155.384 133.161 263.407L203.667 301.189L205.354 299.662C206.726 192.992 260.847 177.493 260.847 177.493L260.901 175.519L188.653 141.631Z" fill="#A4B0DE"/>
<path d="M189.001 139.057C189.001 139.057 131.527 155.733 131.527 263.767L203.655 301.2C203.655 193.166 260.89 175.541 260.89 175.541L189.001 139.057Z" fill="#FCFCFC"/>
<path opacity="0.3" d="M186.148 140.147L258.157 176.631V178.54L262.283 180.089V171.876L186.148 133.712V140.147Z" fill="#258E8D"/>
<path d="M228.371 190.134L173.107 162.441C172.073 163.434 171.017 164.503 169.961 165.67L225.236 193.363C226.292 192.196 227.337 191.116 228.371 190.134Z" fill="#258E8D"/>
<path d="M164.43 172.585L219.704 200.278C220.575 199.045 221.446 197.878 222.317 196.776L167.054 169.083C166.172 170.185 165.301 171.352 164.43 172.585Z" fill="#258E8D"/>
<path d="M159.834 179.969L215.087 207.651C215.805 206.364 216.524 205.12 217.264 203.942L162.001 176.26C161.282 177.438 160.553 178.671 159.834 179.969Z" fill="#258E8D"/>
<path d="M156.035 187.746L211.266 215.417C211.854 214.064 212.453 212.766 213.074 211.523L157.832 183.841C157.222 185.095 156.623 186.393 156.035 187.746Z" fill="#258E8D"/>
<path d="M152.921 195.871L208.119 223.531C208.598 222.135 209.088 220.783 209.6 219.474L154.38 191.814C153.879 193.123 153.4 194.475 152.921 195.871Z" fill="#258E8D"/>
<path d="M193.367 288.755L139.246 261.63V256.209L193.367 283.324V288.755Z" fill="#258E8D"/>
<path d="M293.367 134.912L293.813 135.305C292.42 136.003 290.83 135.032 290.83 133.636V111.931C290.83 110.535 291.973 108.822 293.356 108.124C294.749 107.426 296.579 108.124 296.579 109.521L295.882 131.106C295.904 132.513 294.76 134.225 293.367 134.912Z" fill="#3D6EC4"/>
<path d="M294.249 135.359C292.856 136.057 291.724 135.49 291.724 134.094V112.389C291.724 110.993 292.867 109.281 294.249 108.583C295.643 107.885 296.775 108.452 296.775 109.848V131.553C296.786 132.949 295.643 134.661 294.249 135.359Z" fill="url(#paint13_linear_46_30597)"/>
<path d="M293.367 169.149L293.813 169.542C292.42 170.24 290.83 169.269 290.83 167.873V146.168C290.83 144.772 291.973 143.06 293.356 142.361C294.749 141.663 296.579 142.361 296.579 143.758L295.882 165.343C295.904 166.739 294.76 168.451 293.367 169.149Z" fill="#3D6EC4"/>
<path d="M294.249 169.585C292.856 170.284 291.724 169.716 291.724 168.32V146.615C291.724 145.219 292.867 143.507 294.249 142.809C295.643 142.111 296.775 142.678 296.775 144.074V165.79C296.786 167.175 295.643 168.887 294.249 169.585Z" fill="url(#paint14_linear_46_30597)"/>
<path d="M261.5 61.1478C261.5 62.6747 260.27 63.2855 258.746 62.522C257.221 61.7585 255.991 59.9044 255.991 58.3883C255.991 56.8613 257.221 56.2505 258.746 57.014C260.27 57.7775 261.5 59.6317 261.5 61.1478Z" fill="url(#paint15_linear_46_30597)"/>
<path opacity="0.9" d="M198.912 117.416C198.912 120.209 196.658 121.332 193.871 119.936C191.084 118.54 188.83 115.148 188.83 112.356C188.83 109.563 191.084 108.44 193.871 109.836C196.658 111.232 198.912 114.624 198.912 117.416Z" fill="#90ECCC"/>
<path opacity="0.7" d="M213.304 124.626C213.304 127.418 211.051 128.541 208.263 127.145C205.476 125.749 203.223 122.357 203.223 119.565C203.223 116.773 205.476 115.649 208.263 117.045C211.051 118.452 213.304 121.845 213.304 124.626Z" fill="#90ECCC"/>
<path opacity="0.5" d="M227.709 131.846C227.709 134.639 225.455 135.762 222.668 134.366C219.881 132.97 217.627 129.578 217.627 126.785C217.627 123.993 219.881 122.87 222.668 124.266C225.455 125.662 227.709 129.054 227.709 131.846Z" fill="#90ECCC"/>
<path opacity="0.3" d="M242.101 139.056C242.101 141.848 239.847 142.972 237.06 141.576C234.273 140.179 232.02 136.787 232.02 133.995C232.02 131.203 234.273 130.08 237.06 131.476C239.837 132.872 242.101 136.264 242.101 139.056Z" fill="#90ECCC"/>
<path opacity="0.25" d="M256.494 146.266C256.494 149.058 254.24 150.181 251.453 148.785C248.666 147.389 246.412 143.997 246.412 141.205C246.412 138.412 248.666 137.289 251.453 138.685C254.229 140.081 256.494 143.473 256.494 146.266Z" fill="#90ECCC"/>
<path opacity="0.13" d="M166.293 428.969C167.119 419.856 152.89 411.118 134.512 409.451C116.134 407.785 100.566 413.821 99.74 422.933C98.9138 432.046 113.143 440.784 131.521 442.451C149.899 444.117 165.467 438.081 166.293 428.969Z" fill="black"/>
<path d="M157.548 416.041C156.078 414.22 153.868 412.518 150.918 411.035C139.149 405.145 120.074 405.145 108.305 411.035C105.355 412.507 103.145 414.22 101.675 416.041H99.4756V421.713C99.4756 425.574 102.415 429.435 108.305 432.391C120.074 438.28 139.149 438.28 150.918 432.391C156.797 429.446 159.747 425.585 159.747 421.713V416.041H157.548Z" fill="#F2A233"/>
<mask id="mask8_46_30597" style="mask-type:luminance" maskUnits="userSpaceOnUse" x="99" y="406" width="61" height="31">
<path d="M157.548 416.041C156.078 414.22 153.868 412.518 150.918 411.035C139.149 405.145 120.074 405.145 108.305 411.035C105.355 412.507 103.145 414.22 101.675 416.041H99.4756V421.713C99.4756 425.574 102.415 429.435 108.305 432.391C120.074 438.28 139.149 438.28 150.918 432.391C156.797 429.446 159.747 425.585 159.747 421.713V416.041H157.548Z" fill="white"/>
</mask>
<g mask="url(#mask8_46_30597)">
<path d="M103.265 389.417H102.154V438.771H103.265V389.417Z" fill="#E68F17"/>
<path d="M106.998 392.384H105.888V441.738H106.998V392.384Z" fill="#E68F17"/>
<path d="M110.724 395.35H109.624V444.705H110.724V395.35Z" fill="#E68F17"/>
<path d="M114.478 398.317H113.367V447.671H114.478V398.317Z" fill="#E68F17"/>
<path d="M118.778 396.648H117.679V446.003H118.778V396.648Z" fill="#E68F17"/>
<path d="M123.101 394.99H121.99V444.345H123.101V394.99Z" fill="#E68F17"/>
<path d="M127.4 393.333H126.301V442.687H127.4V393.333Z" fill="#E68F17"/>
<path d="M131.735 391.675H130.625V441.029H131.735V391.675Z" fill="#E68F17"/>
<path d="M135.731 393.333H134.62V442.687H135.731V393.333Z" fill="#E68F17"/>
<path d="M139.726 394.99H138.626V444.345H139.726V394.99Z" fill="#E68F17"/>
<path d="M143.732 396.648H142.633V446.003H143.732V396.648Z" fill="#E68F17"/>
<path d="M147.737 398.317H146.627V447.671H147.737V398.317Z" fill="#E68F17"/>
<path d="M151.746 399.975H150.636V449.329H151.746V399.975Z" fill="#E68F17"/>
<path d="M155.741 401.633H154.631V450.987H155.741V401.633Z" fill="#E68F17"/>
</g>
<path d="M129.612 431.136C146.255 431.136 159.747 424.378 159.747 416.041C159.747 407.704 146.255 400.946 129.612 400.946C112.968 400.946 99.4756 407.704 99.4756 416.041C99.4756 424.378 112.968 431.136 129.612 431.136Z" fill="#FCC881"/>
<path d="M110.571 408.537C121.088 403.269 138.126 403.269 148.643 408.537C153.379 410.915 155.971 413.958 156.428 417.056C156.994 413.271 154.414 409.399 148.643 406.508C138.126 401.24 121.088 401.24 110.571 406.508C104.8 409.399 102.22 413.282 102.786 417.056C103.244 413.958 105.835 410.915 110.571 408.537Z" fill="#E68F17"/>
<path d="M110.57 425.585C121.087 430.853 138.125 430.853 148.642 425.585C153.378 423.207 155.969 420.164 156.427 417.066C155.959 413.958 153.378 410.915 148.642 408.548C138.125 403.28 121.087 403.28 110.57 408.548C105.834 410.926 103.242 413.969 102.785 417.066C103.242 420.164 105.834 423.207 110.57 425.585Z" fill="#F2A233"/>
<path d="M157.548 408.766C156.078 406.945 153.868 405.243 150.918 403.76C139.149 397.87 120.074 397.87 108.305 403.76C105.355 405.232 103.145 406.945 101.675 408.766H99.4756V414.438C99.4756 418.299 102.415 422.16 108.305 425.116C120.074 431.006 139.149 431.006 150.918 425.116C156.797 422.171 159.747 418.31 159.747 414.438V408.766H157.548Z" fill="#F2A233"/>
<mask id="mask9_46_30597" style="mask-type:luminance" maskUnits="userSpaceOnUse" x="99" y="399" width="61" height="31">
<path d="M157.548 408.766C156.078 406.945 153.868 405.243 150.918 403.76C139.149 397.87 120.074 397.87 108.305 403.76C105.355 405.232 103.145 406.945 101.675 408.766H99.4756V414.438C99.4756 418.299 102.415 422.16 108.305 425.116C120.074 431.006 139.149 431.006 150.918 425.116C156.797 422.171 159.747 418.31 159.747 414.438V408.766H157.548Z" fill="white"/>
</mask>
<g mask="url(#mask9_46_30597)">
<path d="M103.265 382.131H102.154V431.486H103.265V382.131Z" fill="#E68F17"/>
<path d="M106.998 385.098H105.888V434.452H106.998V385.098Z" fill="#E68F17"/>
<path d="M110.724 388.065H109.624V437.419H110.724V388.065Z" fill="#E68F17"/>
<path d="M114.478 391.031H113.367V440.386H114.478V391.031Z" fill="#E68F17"/>
<path d="M118.778 389.374H117.679V438.728H118.778V389.374Z" fill="#E68F17"/>
<path d="M123.101 387.716H121.99V437.07H123.101V387.716Z" fill="#E68F17"/>
<path d="M127.4 386.058H126.301V435.412H127.4V386.058Z" fill="#E68F17"/>
<path d="M131.735 384.389H130.625V433.743H131.735V384.389Z" fill="#E68F17"/>
<path d="M135.731 386.058H134.62V435.412H135.731V386.058Z" fill="#E68F17"/>
<path d="M139.726 387.716H138.626V437.07H139.726V387.716Z" fill="#E68F17"/>
<path d="M143.732 389.374H142.633V438.728H143.732V389.374Z" fill="#E68F17"/>
<path d="M147.737 391.031H146.627V440.386H147.737V391.031Z" fill="#E68F17"/>
<path d="M151.746 392.7H150.636V442.054H151.746V392.7Z" fill="#E68F17"/>
<path d="M155.741 394.358H154.631V443.712H155.741V394.358Z" fill="#E68F17"/>
</g>
<path d="M129.612 423.862C146.255 423.862 159.747 417.103 159.747 408.766C159.747 400.429 146.255 393.671 129.612 393.671C112.968 393.671 99.4756 400.429 99.4756 408.766C99.4756 417.103 112.968 423.862 129.612 423.862Z" fill="#FCC881"/>
<path d="M110.571 401.262C121.088 395.994 138.126 395.994 148.643 401.262C153.379 403.64 155.971 406.683 156.428 409.781C156.994 405.996 154.414 402.124 148.643 399.234C138.126 393.965 121.088 393.965 110.571 399.234C104.8 402.124 102.22 406.007 102.786 409.781C103.244 406.672 105.835 403.64 110.571 401.262Z" fill="#E68F17"/>
<path d="M110.57 418.299C121.087 423.567 138.125 423.567 148.642 418.299C153.378 415.921 155.969 412.878 156.427 409.781C155.959 406.672 153.378 403.629 148.642 401.262C138.125 395.994 121.087 395.994 110.57 401.262C105.834 403.64 103.242 406.683 102.785 409.781C103.242 412.889 105.834 415.932 110.57 418.299Z" fill="#F2A233"/>
<path d="M116.786 409.301C117.494 410.402 118.985 411.897 121.293 413.053C123.776 414.296 126.116 414.438 127.684 413.653C129.176 412.911 128.893 411.908 127.042 409.955C124.451 407.272 124.059 404.873 127.543 403.127C131.625 401.088 138.158 401.23 143.797 404.054C146.497 405.407 147.913 406.683 148.697 407.719L143.122 409.301C142.622 408.592 141.598 407.403 139.257 406.225C136.917 405.047 134.717 405.014 133.476 405.636C131.952 406.399 132.627 407.414 134.543 409.552C137.211 412.453 136.993 414.547 133.618 416.238C129.611 418.244 123.112 418.408 116.547 415.114C113.814 413.74 111.821 412.038 111.223 410.991L116.786 409.301Z" fill="#DB8816"/>
<path d="M117.44 418.124L113.814 416.314L143.863 401.262L147.489 403.073L117.44 418.124Z" fill="#DB8816"/>
<path d="M147.488 402.015V403.073L145.626 404.011L144.374 403.574L147.488 402.015Z" fill="#F09518"/>
<path d="M111.212 410.991V409.922L113.487 410.457L112.344 411.602L111.212 410.991Z" fill="#DB8816"/>
<path d="M113.814 416.314V415.245L117.44 417.067V418.125L113.814 416.314Z" fill="#EB9217"/>
<path d="M148.695 407.719V406.65L143.121 408.243V409.301L148.695 407.719Z" fill="#EB9217"/>
<path d="M116.786 408.243C117.494 409.344 118.985 410.839 121.293 411.995C123.776 413.238 126.116 413.38 127.684 412.595C129.176 411.853 128.893 410.849 127.042 408.897C124.451 406.214 124.059 403.814 127.543 402.069C131.625 400.03 138.158 400.171 143.797 402.996C146.497 404.349 147.913 405.625 148.697 406.661L143.122 408.243C142.622 407.534 141.598 406.345 139.257 405.167C136.917 403.989 134.717 403.956 133.476 404.578C131.952 405.341 132.627 406.356 134.543 408.493C137.211 411.395 136.993 413.489 133.618 415.179C129.611 417.186 123.112 417.35 116.547 414.056C113.814 412.682 111.821 410.98 111.223 409.933L116.786 408.243Z" fill="#FCC881"/>
<path d="M117.44 417.067L113.814 415.245L143.863 400.193L147.489 402.015L117.44 417.067Z" fill="#FCC881"/>
<path opacity="0.13" d="M313.362 392.844C314.187 383.731 299.957 374.991 281.579 373.322C263.201 371.652 247.635 377.686 246.81 386.799C245.985 395.911 260.215 404.652 278.592 406.321C296.97 407.991 312.537 401.957 313.362 392.844Z" fill="black"/>
<path d="M304.603 379.917C303.133 378.095 300.923 376.394 297.973 374.91C286.203 369.02 267.129 369.02 255.36 374.91C252.409 376.383 250.199 378.095 248.73 379.917H246.53V385.588C246.53 389.449 249.47 393.31 255.36 396.266C267.129 402.156 286.203 402.156 297.973 396.266C303.852 393.321 306.802 389.46 306.802 385.588V379.917H304.603Z" fill="#F2A233"/>
<mask id="mask10_46_30597" style="mask-type:luminance" maskUnits="userSpaceOnUse" x="246" y="370" width="61" height="31">
<path d="M304.603 379.917C303.133 378.095 300.923 376.394 297.973 374.91C286.203 369.02 267.129 369.02 255.36 374.91C252.409 376.383 250.199 378.095 248.73 379.917H246.53V385.588C246.53 389.449 249.47 393.31 255.36 396.266C267.129 402.156 286.203 402.156 297.973 396.266C303.852 393.321 306.802 389.46 306.802 385.588V379.917H304.603Z" fill="white"/>
</mask>
<g mask="url(#mask10_46_30597)">
<path d="M250.309 353.282H249.209V402.636H250.309V353.282Z" fill="#E68F17"/>
<path d="M254.065 356.249H252.954V405.603H254.065V356.249Z" fill="#E68F17"/>
<path d="M257.799 359.215H256.688V408.569H257.799V359.215Z" fill="#E68F17"/>
<path d="M261.522 362.182H260.423V411.536H261.522V362.182Z" fill="#E68F17"/>
<path d="M265.844 360.524H264.733V409.878H265.844V360.524Z" fill="#E68F17"/>
<path d="M270.155 358.866H269.056V408.22H270.155V358.866Z" fill="#E68F17"/>
<path d="M274.478 357.197H273.367V406.552H274.478V357.197Z" fill="#E68F17"/>
<path d="M278.779 355.54H277.68V404.894H278.779V355.54Z" fill="#E68F17"/>
<path d="M282.785 357.197H281.686V406.552H282.785V357.197Z" fill="#E68F17"/>
<path d="M286.78 358.866H285.681V408.22H286.78V358.866Z" fill="#E68F17"/>
<path d="M290.798 360.524H289.688V409.878H290.798V360.524Z" fill="#E68F17"/>
<path d="M294.804 362.182H293.693V411.536H294.804V362.182Z" fill="#E68F17"/>
<path d="M298.789 363.84H297.689V413.194H298.789V363.84Z" fill="#E68F17"/>
<path d="M302.796 365.509H301.696V414.863H302.796V365.509Z" fill="#E68F17"/>
</g>
<path d="M276.666 395.012C293.31 395.012 306.802 388.254 306.802 379.917C306.802 371.58 293.31 364.821 276.666 364.821C260.023 364.821 246.53 371.58 246.53 379.917C246.53 388.254 260.023 395.012 276.666 395.012Z" fill="#FCC881"/>
<path d="M257.635 372.413C268.152 367.145 285.191 367.145 295.708 372.413C300.444 374.79 303.035 377.833 303.492 380.931C304.058 377.146 301.478 373.274 295.708 370.384C285.191 365.116 268.152 365.116 257.635 370.384C251.865 373.274 249.285 377.157 249.851 380.931C250.308 377.823 252.888 374.779 257.635 372.413Z" fill="#E68F17"/>
<path d="M257.635 389.449C268.152 394.718 285.191 394.718 295.708 389.449C300.444 387.072 303.035 384.029 303.492 380.931C303.024 377.823 300.444 374.78 295.708 372.413C285.191 367.145 268.152 367.145 257.635 372.413C252.899 374.79 250.308 377.834 249.851 380.931C250.308 384.04 252.888 387.072 257.635 389.449Z" fill="#F2A233"/>
<path d="M304.603 372.641C303.133 370.82 300.923 369.118 297.973 367.635C286.203 361.745 267.129 361.745 255.36 367.635C252.409 369.108 250.199 370.82 248.73 372.641H246.53V378.313C246.53 382.174 249.47 386.035 255.36 388.991C267.129 394.881 286.203 394.881 297.973 388.991C303.852 386.046 306.802 382.185 306.802 378.313V372.641H304.603Z" fill="#F2A233"/>
<mask id="mask11_46_30597" style="mask-type:luminance" maskUnits="userSpaceOnUse" x="246" y="363" width="61" height="31">
<path d="M304.603 372.641C303.133 370.82 300.923 369.118 297.973 367.635C286.203 361.745 267.129 361.745 255.36 367.635C252.409 369.108 250.199 370.82 248.73 372.641H246.53V378.313C246.53 382.174 249.47 386.035 255.36 388.991C267.129 394.881 286.203 394.881 297.973 388.991C303.852 386.046 306.802 382.185 306.802 378.313V372.641H304.603Z" fill="white"/>
</mask>
<g mask="url(#mask11_46_30597)">
<path d="M250.309 346.007H249.209V395.361H250.309V346.007Z" fill="#E68F17"/>
<path d="M254.065 348.973H252.954V398.328H254.065V348.973Z" fill="#E68F17"/>
<path d="M257.799 351.94H256.688V401.294H257.799V351.94Z" fill="#E68F17"/>
<path d="M261.522 354.907H260.423V404.261H261.522V354.907Z" fill="#E68F17"/>
<path d="M265.844 353.249H264.733V402.603H265.844V353.249Z" fill="#E68F17"/>
<path d="M270.155 351.58H269.056V400.934H270.155V351.58Z" fill="#E68F17"/>
<path d="M274.478 349.922H273.367V399.276H274.478V349.922Z" fill="#E68F17"/>
<path d="M278.779 348.264H277.68V397.618H278.779V348.264Z" fill="#E68F17"/>
<path d="M282.785 349.922H281.686V399.276H282.785V349.922Z" fill="#E68F17"/>
<path d="M286.78 351.58H285.681V400.934H286.78V351.58Z" fill="#E68F17"/>
<path d="M290.798 353.249H289.688V402.603H290.798V353.249Z" fill="#E68F17"/>
<path d="M294.804 354.907H293.693V404.261H294.804V354.907Z" fill="#E68F17"/>
<path d="M298.789 356.564H297.689V405.919H298.789V356.564Z" fill="#E68F17"/>
<path d="M302.796 358.222H301.696V407.577H302.796V358.222Z" fill="#E68F17"/>
</g>
<path d="M276.666 387.737C293.31 387.737 306.802 380.978 306.802 372.641C306.802 364.305 293.31 357.546 276.666 357.546C260.023 357.546 246.53 364.305 246.53 372.641C246.53 380.978 260.023 387.737 276.666 387.737Z" fill="#FCC881"/>
<path d="M257.635 365.127C268.152 359.858 285.191 359.858 295.708 365.127C300.444 367.504 303.035 370.547 303.492 373.645C304.058 369.86 301.478 365.988 295.708 363.098C285.191 357.83 268.152 357.83 257.635 363.098C251.865 365.988 249.285 369.871 249.851 373.645C250.308 370.547 252.888 367.504 257.635 365.127Z" fill="#E68F17"/>
<path d="M257.635 382.174C268.152 387.442 285.191 387.442 295.708 382.174C300.444 379.796 303.035 376.753 303.492 373.656C303.024 370.547 300.444 367.504 295.708 365.137C285.191 359.869 268.152 359.869 257.635 365.137C252.899 367.515 250.308 370.558 249.851 373.656C250.308 376.753 252.888 379.796 257.635 382.174Z" fill="#F2A233"/>
<path d="M304.603 365.356C303.133 363.534 300.923 361.833 297.973 360.349C286.203 354.459 267.129 354.459 255.36 360.349C252.409 361.822 250.199 363.534 248.73 365.356H246.53V371.027C246.53 374.888 249.47 378.749 255.36 381.705C267.129 387.595 286.203 387.595 297.973 381.705C303.852 378.76 306.802 374.899 306.802 371.027V365.356H304.603Z" fill="#F2A233"/>
<mask id="mask12_46_30597" style="mask-type:luminance" maskUnits="userSpaceOnUse" x="246" y="355" width="61" height="32">
<path d="M304.603 365.356C303.133 363.534 300.923 361.833 297.973 360.349C286.203 354.459 267.129 354.459 255.36 360.349C252.409 361.822 250.199 363.534 248.73 365.356H246.53V371.027C246.53 374.888 249.47 378.749 255.36 381.705C267.129 387.595 286.203 387.595 297.973 381.705C303.852 378.76 306.802 374.899 306.802 371.027V365.356H304.603Z" fill="white"/>
</mask>
<g mask="url(#mask12_46_30597)">
<path d="M250.309 338.731H249.209V388.086H250.309V338.731Z" fill="#E68F17"/>
<path d="M254.065 341.698H252.954V391.052H254.065V341.698Z" fill="#E68F17"/>
<path d="M257.799 344.665H256.688V394.019H257.799V344.665Z" fill="#E68F17"/>
<path d="M261.522 347.632H260.423V396.986H261.522V347.632Z" fill="#E68F17"/>
<path d="M265.844 345.963H264.733V395.317H265.844V345.963Z" fill="#E68F17"/>
<path d="M270.155 344.305H269.056V393.659H270.155V344.305Z" fill="#E68F17"/>
<path d="M274.478 342.647H273.367V392.001H274.478V342.647Z" fill="#E68F17"/>
<path d="M278.779 340.978H277.68V390.333H278.779V340.978Z" fill="#E68F17"/>
<path d="M282.785 342.647H281.686V392.001H282.785V342.647Z" fill="#E68F17"/>
<path d="M286.78 344.305H285.681V393.659H286.78V344.305Z" fill="#E68F17"/>
<path d="M290.798 345.963H289.688V395.317H290.798V345.963Z" fill="#E68F17"/>
<path d="M294.804 347.632H293.693V396.986H294.804V347.632Z" fill="#E68F17"/>
<path d="M298.789 349.289H297.689V398.644H298.789V349.289Z" fill="#E68F17"/>
<path d="M302.796 350.947H301.696V400.302H302.796V350.947Z" fill="#E68F17"/>
</g>
<path d="M276.666 380.451C293.31 380.451 306.802 373.692 306.802 365.356C306.802 357.019 293.31 350.26 276.666 350.26C260.023 350.26 246.53 357.019 246.53 365.356C246.53 373.692 260.023 380.451 276.666 380.451Z" fill="#FCC881"/>
<path d="M257.635 357.852C268.152 352.583 285.191 352.583 295.708 357.852C300.444 360.229 303.035 363.272 303.492 366.37C304.058 362.585 301.478 358.713 295.708 355.823C285.191 350.555 268.152 350.555 257.635 355.823C251.865 358.713 249.285 362.596 249.851 366.37C250.308 363.272 252.888 360.229 257.635 357.852Z" fill="#E68F17"/>
<path d="M257.635 374.899C268.152 380.167 285.191 380.167 295.708 374.899C300.444 372.521 303.035 369.478 303.492 366.381C303.024 363.272 300.444 360.229 295.708 357.862C285.191 352.594 268.152 352.594 257.635 357.862C252.899 360.24 250.308 363.283 249.851 366.381C250.308 369.478 252.888 372.521 257.635 374.899Z" fill="#F2AC4B"/>
<path d="M263.842 365.781C264.549 366.882 266.041 368.377 268.349 369.533C270.831 370.776 273.172 370.918 274.74 370.133C276.231 369.391 275.948 368.388 274.098 366.435C271.506 363.752 271.114 361.352 274.598 359.607C278.681 357.568 285.213 357.71 290.853 360.534C293.553 361.887 294.968 363.163 295.752 364.199L290.178 365.781C289.677 365.072 288.654 363.883 286.313 362.705C283.972 361.527 281.773 361.494 280.532 362.116C279.008 362.879 279.683 363.894 281.599 366.032C284.266 368.933 284.048 371.027 280.673 372.718C276.667 374.724 270.167 374.888 263.602 371.594C260.869 370.22 258.877 368.518 258.278 367.471L263.842 365.781Z" fill="#DB8816"/>
<path d="M264.505 374.605L260.88 372.783L290.929 357.731L294.554 359.553L264.505 374.605Z" fill="#DB8816"/>
<path d="M294.554 358.484V359.553L292.682 360.491L291.44 360.044L294.554 358.484Z" fill="#F09518"/>
<path d="M258.268 367.471V366.403L260.554 366.937L259.411 368.082L258.268 367.471Z" fill="#DB8816"/>
<path d="M260.881 372.783V371.725L264.506 373.536V374.605L260.881 372.783Z" fill="#EB9217"/>
<path d="M295.763 364.199V363.13L290.188 364.712V365.781L295.763 364.199Z" fill="#EB9217"/>
<path d="M263.842 364.712C264.549 365.814 266.041 367.308 268.349 368.464C270.831 369.708 273.172 369.849 274.74 369.064C276.231 368.322 275.948 367.319 274.098 365.367C271.506 362.683 271.114 360.284 274.598 358.539C278.681 356.499 285.213 356.641 290.853 359.466C293.553 360.818 294.968 362.094 295.752 363.131L290.178 364.712C289.677 364.003 288.654 362.814 286.313 361.636C283.972 360.458 281.773 360.426 280.532 361.047C279.008 361.811 279.683 362.825 281.599 364.963C284.266 367.864 284.048 369.958 280.673 371.649C276.667 373.656 270.167 373.819 263.602 370.526C260.869 369.151 258.877 367.45 258.278 366.403L263.842 364.712Z" fill="#FCC881"/>
<path d="M264.505 373.536L260.88 371.725L290.929 356.674L294.554 358.484L264.505 373.536Z" fill="#FCC881"/>
<path opacity="0.13" d="M204.409 362.305C205.234 353.192 191.004 344.452 172.626 342.783C154.249 341.114 138.682 347.148 137.857 356.26C137.032 365.373 151.261 374.113 169.639 375.782C188.017 377.452 203.584 371.417 204.409 362.305Z" fill="black"/>
<path d="M195.652 349.376C194.182 347.554 191.972 345.853 189.021 344.369C177.252 338.479 158.178 338.479 146.409 344.369C143.458 345.842 141.248 347.554 139.778 349.376H137.579V355.047C137.579 358.908 140.519 362.769 146.409 365.725C158.178 371.615 177.252 371.615 189.021 365.725C194.901 362.78 197.851 358.919 197.851 355.047V349.376H195.652Z" fill="#F2A233"/>
<mask id="mask13_46_30597" style="mask-type:luminance" maskUnits="userSpaceOnUse" x="137" y="339" width="61" height="32">
<path d="M195.652 349.376C194.182 347.554 191.972 345.853 189.021 344.369C177.252 338.479 158.178 338.479 146.409 344.369C143.458 345.842 141.248 347.554 139.778 349.376H137.579V355.047C137.579 358.908 140.519 362.769 146.409 365.725C158.178 371.615 177.252 371.615 189.021 365.725C194.901 362.78 197.851 358.919 197.851 355.047V349.376H195.652Z" fill="white"/>
</mask>
<g mask="url(#mask13_46_30597)">
<path d="M141.355 322.741H140.256V372.095H141.355V322.741Z" fill="#E68F17"/>
<path d="M145.102 325.708H143.991V375.062H145.102V325.708Z" fill="#E68F17"/>
<path d="M148.825 328.674H147.726V378.028H148.825V328.674Z" fill="#E68F17"/>
<path d="M152.569 331.641H151.47V380.995H152.569V331.641Z" fill="#E68F17"/>
<path d="M156.893 329.983H155.782V379.337H156.893V329.983Z" fill="#E68F17"/>
<path d="M161.203 328.314H160.093V377.668H161.203V328.314Z" fill="#E68F17"/>
<path d="M165.504 326.656H164.404V376.011H165.504V326.656Z" fill="#E68F17"/>
<path d="M169.838 324.999H168.728V374.353H169.838V324.999Z" fill="#E68F17"/>
<path d="M173.822 326.656H172.723V376.011H173.822V326.656Z" fill="#E68F17"/>
<path d="M177.828 328.314H176.729V377.668H177.828V328.314Z" fill="#E68F17"/>
<path d="M181.834 329.983H180.734V379.337H181.834V329.983Z" fill="#E68F17"/>
<path d="M185.841 331.641H184.73V380.995H185.841V331.641Z" fill="#E68F17"/>
<path d="M189.849 333.299H188.738V382.653H189.849V333.299Z" fill="#E68F17"/>
<path d="M193.833 334.957H192.733V384.311H193.833V334.957Z" fill="#E68F17"/>
</g>
<path d="M167.715 364.471C184.359 364.471 197.851 357.712 197.851 349.376C197.851 341.039 184.359 334.28 167.715 334.28C151.071 334.28 137.579 341.039 137.579 349.376C137.579 357.712 151.071 364.471 167.715 364.471Z" fill="#FCC881"/>
<path d="M148.671 341.861C159.188 336.593 176.227 336.593 186.744 341.861C191.48 344.238 194.071 347.281 194.528 350.379C195.095 346.594 192.514 342.722 186.744 339.832C176.227 334.564 159.188 334.564 148.671 339.832C142.901 342.722 140.321 346.605 140.887 350.379C141.344 347.281 143.935 344.238 148.671 341.861Z" fill="#E68F17"/>
<path d="M148.672 358.908C159.189 364.176 176.228 364.176 186.745 358.908C191.481 356.531 194.072 353.487 194.529 350.39C194.061 347.281 191.481 344.238 186.745 341.871C176.228 336.603 159.189 336.603 148.672 341.871C143.936 344.249 141.345 347.292 140.888 350.39C141.345 353.487 143.936 356.531 148.672 358.908Z" fill="#F2A233"/>
<path d="M195.652 342.09C194.182 340.268 191.972 338.567 189.021 337.083C177.252 331.194 158.178 331.194 146.409 337.083C143.458 338.556 141.248 340.268 139.778 342.09H137.579V347.761C137.579 351.622 140.519 355.483 146.409 358.439C158.178 364.329 177.252 364.329 189.021 358.439C194.901 355.494 197.851 351.633 197.851 347.761V342.09H195.652Z" fill="#F2A233"/>
<mask id="mask14_46_30597" style="mask-type:luminance" maskUnits="userSpaceOnUse" x="137" y="332" width="61" height="31">
<path d="M195.652 342.09C194.182 340.268 191.972 338.567 189.021 337.083C177.252 331.194 158.178 331.194 146.409 337.083C143.458 338.556 141.248 340.268 139.778 342.09H137.579V347.761C137.579 351.622 140.519 355.483 146.409 358.439C158.178 364.329 177.252 364.329 189.021 358.439C194.901 355.494 197.851 351.633 197.851 347.761V342.09H195.652Z" fill="white"/>
</mask>
<g mask="url(#mask14_46_30597)">
<path d="M141.355 315.466H140.256V364.82H141.355V315.466Z" fill="#E68F17"/>
<path d="M145.102 318.432H143.991V367.786H145.102V318.432Z" fill="#E68F17"/>
<path d="M148.825 321.399H147.726V370.753H148.825V321.399Z" fill="#E68F17"/>
<path d="M152.569 324.366H151.47V373.72H152.569V324.366Z" fill="#E68F17"/>
<path d="M156.893 322.697H155.782V372.051H156.893V322.697Z" fill="#E68F17"/>
<path d="M161.203 321.039H160.093V370.393H161.203V321.039Z" fill="#E68F17"/>
<path d="M165.504 319.381H164.404V368.735H165.504V319.381Z" fill="#E68F17"/>
<path d="M169.838 317.723H168.728V367.078H169.838V317.723Z" fill="#E68F17"/>
<path d="M173.822 319.381H172.723V368.735H173.822V319.381Z" fill="#E68F17"/>
<path d="M177.828 321.039H176.729V370.393H177.828V321.039Z" fill="#E68F17"/>
<path d="M181.834 322.697H180.734V372.051H181.834V322.697Z" fill="#E68F17"/>
<path d="M185.841 324.366H184.73V373.72H185.841V324.366Z" fill="#E68F17"/>
<path d="M189.849 326.023H188.738V375.378H189.849V326.023Z" fill="#E68F17"/>
<path d="M193.833 327.681H192.733V377.036H193.833V327.681Z" fill="#E68F17"/>
</g>
<path d="M167.715 357.185C184.359 357.185 197.851 350.427 197.851 342.09C197.851 333.753 184.359 326.994 167.715 326.994C151.071 326.994 137.579 333.753 137.579 342.09C137.579 350.427 151.071 357.185 167.715 357.185Z" fill="#FCC881"/>
<path d="M148.671 334.586C159.188 329.318 176.227 329.318 186.744 334.586C191.48 336.963 194.071 340.006 194.528 343.104C195.095 339.319 192.514 335.447 186.744 332.557C176.227 327.289 159.188 327.289 148.671 332.557C142.901 335.447 140.321 339.33 140.887 343.104C141.344 340.006 143.935 336.963 148.671 334.586Z" fill="#E68F17"/>
<path d="M148.672 351.633C159.189 356.901 176.228 356.901 186.745 351.633C191.481 349.256 194.072 346.213 194.529 343.115C194.061 340.006 191.481 336.963 186.745 334.597C176.228 329.328 159.189 329.328 148.672 334.597C143.936 336.974 141.345 340.017 140.888 343.115C141.345 346.213 143.936 349.256 148.672 351.633Z" fill="#F2A233"/>
<path d="M195.652 334.815C194.182 332.993 191.972 331.292 189.021 329.808C177.252 323.919 158.178 323.919 146.409 329.808C143.458 331.281 141.248 332.993 139.778 334.815H137.579V340.486C137.579 344.348 140.519 348.209 146.409 351.164C158.178 357.054 177.252 357.054 189.021 351.164C194.901 348.22 197.851 344.358 197.851 340.486V334.815H195.652Z" fill="#F2A233"/>
<mask id="mask15_46_30597" style="mask-type:luminance" maskUnits="userSpaceOnUse" x="137" y="325" width="61" height="31">
<path d="M195.652 334.815C194.182 332.993 191.972 331.292 189.021 329.808C177.252 323.919 158.178 323.919 146.409 329.808C143.458 331.281 141.248 332.993 139.778 334.815H137.579V340.486C137.579 344.348 140.519 348.209 146.409 351.164C158.178 357.054 177.252 357.054 189.021 351.164C194.901 348.22 197.851 344.358 197.851 340.486V334.815H195.652Z" fill="white"/>
</mask>
<g mask="url(#mask15_46_30597)">
<path d="M141.355 308.18H140.256V357.534H141.355V308.18Z" fill="#E68F17"/>
<path d="M145.102 311.146H143.991V360.501H145.102V311.146Z" fill="#E68F17"/>
<path d="M148.825 314.113H147.726V363.467H148.825V314.113Z" fill="#E68F17"/>
<path d="M152.569 317.08H151.47V366.434H152.569V317.08Z" fill="#E68F17"/>
<path d="M156.893 315.422H155.782V364.776H156.893V315.422Z" fill="#E68F17"/>
<path d="M161.203 313.764H160.093V363.118H161.203V313.764Z" fill="#E68F17"/>
<path d="M165.504 312.106H164.404V361.46H165.504V312.106Z" fill="#E68F17"/>
<path d="M169.838 310.438H168.728V359.792H169.838V310.438Z" fill="#E68F17"/>
<path d="M173.822 312.106H172.723V361.46H173.822V312.106Z" fill="#E68F17"/>
<path d="M177.828 313.764H176.729V363.118H177.828V313.764Z" fill="#E68F17"/>
<path d="M181.834 315.422H180.734V364.776H181.834V315.422Z" fill="#E68F17"/>
<path d="M185.841 317.08H184.73V366.434H185.841V317.08Z" fill="#E68F17"/>
<path d="M189.849 318.749H188.738V368.103H189.849V318.749Z" fill="#E68F17"/>
<path d="M193.833 320.406H192.733V369.761H193.833V320.406Z" fill="#E68F17"/>
</g>
<path d="M167.715 349.91C184.359 349.91 197.851 343.152 197.851 334.815C197.851 326.478 184.359 319.719 167.715 319.719C151.071 319.719 137.579 326.478 137.579 334.815C137.579 343.152 151.071 349.91 167.715 349.91Z" fill="#FCC881"/>
<path d="M148.671 327.311C159.188 322.043 176.227 322.043 186.744 327.311C191.48 329.689 194.071 332.732 194.528 335.829C195.095 332.044 192.514 328.172 186.744 325.282C176.227 320.014 159.188 320.014 148.671 325.282C142.901 328.172 140.321 332.055 140.887 335.829C141.344 332.721 143.935 329.689 148.671 327.311Z" fill="#E68F17"/>
<path d="M148.672 344.348C159.189 349.616 176.228 349.616 186.745 344.348C191.481 341.97 194.072 338.927 194.529 335.829C194.061 332.721 191.481 329.678 186.745 327.311C176.228 322.043 159.189 322.043 148.672 327.311C143.936 329.689 141.345 332.732 140.888 335.829C141.345 338.938 143.936 341.981 148.672 344.348Z" fill="#F2AC4B"/>
<path d="M195.652 327.42C194.182 325.598 191.972 323.897 189.021 322.413C177.252 316.524 158.178 316.524 146.409 322.413C143.458 323.886 141.248 325.598 139.778 327.42H137.579V333.091C137.579 336.953 140.519 340.814 146.409 343.769C158.178 349.659 177.252 349.659 189.021 343.769C194.901 340.825 197.851 336.963 197.851 333.091V327.42H195.652Z" fill="#F2A233"/>
<mask id="mask16_46_30597" style="mask-type:luminance" maskUnits="userSpaceOnUse" x="137" y="317" width="61" height="32">
<path d="M195.652 327.42C194.182 325.598 191.972 323.897 189.021 322.413C177.252 316.524 158.178 316.524 146.409 322.413C143.458 323.886 141.248 325.598 139.778 327.42H137.579V333.091C137.579 336.953 140.519 340.814 146.409 343.769C158.178 349.659 177.252 349.659 189.021 343.769C194.901 340.825 197.851 336.963 197.851 333.091V327.42H195.652Z" fill="white"/>
</mask>
<g mask="url(#mask16_46_30597)">
<path d="M141.355 300.785H140.256V350.139H141.355V300.785Z" fill="#E68F17"/>
<path d="M145.102 303.752H143.991V353.106H145.102V303.752Z" fill="#E68F17"/>
<path d="M148.825 306.718H147.726V356.073H148.825V306.718Z" fill="#E68F17"/>
<path d="M152.569 309.685H151.47V359.039H152.569V309.685Z" fill="#E68F17"/>
<path d="M156.893 308.027H155.782V357.382H156.893V308.027Z" fill="#E68F17"/>
<path d="M161.203 306.358H160.093V355.713H161.203V306.358Z" fill="#E68F17"/>
<path d="M165.504 304.7H164.404V354.055H165.504V304.7Z" fill="#E68F17"/>
<path d="M169.838 303.043H168.728V352.397H169.838V303.043Z" fill="#E68F17"/>
<path d="M173.822 304.7H172.723V354.055H173.822V304.7Z" fill="#E68F17"/>
<path d="M177.828 306.358H176.729V355.713H177.828V306.358Z" fill="#E68F17"/>
<path d="M181.834 308.027H180.734V357.382H181.834V308.027Z" fill="#E68F17"/>
<path d="M185.841 309.685H184.73V359.039H185.841V309.685Z" fill="#E68F17"/>
<path d="M189.849 311.343H188.738V360.697H189.849V311.343Z" fill="#E68F17"/>
<path d="M193.833 313.001H192.733V362.355H193.833V313.001Z" fill="#E68F17"/>
</g>
<path d="M167.715 342.515C184.359 342.515 197.851 335.757 197.851 327.42C197.851 319.083 184.359 312.324 167.715 312.324C151.071 312.324 137.579 319.083 137.579 327.42C137.579 335.757 151.071 342.515 167.715 342.515Z" fill="#FCC881"/>
<path d="M148.671 319.905C159.188 314.637 176.227 314.637 186.744 319.905C191.48 322.283 194.071 325.326 194.528 328.423C195.095 324.638 192.514 320.766 186.744 317.876C176.227 312.608 159.188 312.608 148.671 317.876C142.901 320.766 140.321 324.649 140.887 328.423C141.344 325.326 143.935 322.283 148.671 319.905Z" fill="#E68F17"/>
<path d="M148.672 336.952C159.189 342.221 176.228 342.221 186.745 336.952C191.481 334.575 194.072 331.532 194.529 328.434C194.061 325.326 191.481 322.282 186.745 319.916C176.228 314.648 159.189 314.648 148.672 319.916C143.936 322.293 141.345 325.336 140.888 328.434C141.345 331.532 143.936 334.575 148.672 336.952Z" fill="#F2A233"/>
<path d="M195.652 320.134C194.182 318.312 191.972 316.611 189.021 315.128C177.252 309.238 158.178 309.238 146.409 315.128C143.458 316.6 141.248 318.312 139.778 320.134H137.579V325.806C137.579 329.667 140.519 333.528 146.409 336.484C158.178 342.373 177.252 342.373 189.021 336.484C194.901 333.539 197.851 329.678 197.851 325.806V320.134H195.652Z" fill="#F2A233"/>
<mask id="mask17_46_30597" style="mask-type:luminance" maskUnits="userSpaceOnUse" x="137" y="310" width="61" height="31">
<path d="M195.652 320.134C194.182 318.312 191.972 316.611 189.021 315.128C177.252 309.238 158.178 309.238 146.409 315.128C143.458 316.6 141.248 318.312 139.778 320.134H137.579V325.806C137.579 329.667 140.519 333.528 146.409 336.484C158.178 342.373 177.252 342.373 189.021 336.484C194.901 333.539 197.851 329.678 197.851 325.806V320.134H195.652Z" fill="white"/>
</mask>
<g mask="url(#mask17_46_30597)">
<path d="M141.355 293.51H140.256V342.864H141.355V293.51Z" fill="#E68F17"/>
<path d="M145.102 296.477H143.991V345.842H145.102V296.477Z" fill="#E68F17"/>
<path d="M148.825 299.443H147.726V348.798H148.825V299.443Z" fill="#E68F17"/>
<path d="M152.569 302.41H151.47V351.764H152.569V302.41Z" fill="#E68F17"/>
<path d="M156.893 300.741H155.782V350.095H156.893V300.741Z" fill="#E68F17"/>
<path d="M161.203 299.083H160.093V348.438H161.203V299.083Z" fill="#E68F17"/>
<path d="M165.504 297.425H164.404V346.78H165.504V297.425Z" fill="#E68F17"/>
<path d="M169.838 295.768H168.728V345.122H169.838V295.768Z" fill="#E68F17"/>
<path d="M173.822 297.425H172.723V346.78H173.822V297.425Z" fill="#E68F17"/>
<path d="M177.828 299.083H176.729V348.438H177.828V299.083Z" fill="#E68F17"/>
<path d="M181.834 300.741H180.734V350.095H181.834V300.741Z" fill="#E68F17"/>
<path d="M185.841 302.41H184.73V351.764H185.841V302.41Z" fill="#E68F17"/>
<path d="M189.849 304.068H188.738V353.422H189.849V304.068Z" fill="#E68F17"/>
<path d="M193.833 305.726H192.733V355.08H193.833V305.726Z" fill="#E68F17"/>
</g>
<path d="M167.715 335.229C184.359 335.229 197.851 328.471 197.851 320.134C197.851 311.797 184.359 305.039 167.715 305.039C151.071 305.039 137.579 311.797 137.579 320.134C137.579 328.471 151.071 335.229 167.715 335.229Z" fill="#FCC881"/>
<path d="M148.671 312.63C159.188 307.362 176.227 307.362 186.744 312.63C191.48 315.008 194.071 318.051 194.528 321.148C195.095 317.364 192.514 313.492 186.744 310.601C176.227 305.333 159.188 305.333 148.671 310.601C142.901 313.492 140.321 317.374 140.887 321.148C141.344 318.051 143.935 315.008 148.671 312.63Z" fill="#E68F17"/>
<path d="M148.672 329.678C159.189 334.946 176.228 334.946 186.745 329.678C191.481 327.3 194.072 324.257 194.529 321.159C194.061 318.051 191.481 315.008 186.745 312.641C176.228 307.373 159.189 307.373 148.672 312.641C143.936 315.018 141.345 318.062 140.888 321.159C141.345 324.257 143.936 327.3 148.672 329.678Z" fill="#F2A233"/>
<path d="M195.652 312.859C194.182 311.038 191.972 309.336 189.021 307.853C177.252 301.963 158.178 301.963 146.409 307.853C143.458 309.325 141.248 311.038 139.778 312.859H137.579V318.531C137.579 322.392 140.519 326.253 146.409 329.209C158.178 335.098 177.252 335.098 189.021 329.209C194.901 326.264 197.851 322.403 197.851 318.531V312.859H195.652Z" fill="#F2A233"/>
<mask id="mask18_46_30597" style="mask-type:luminance" maskUnits="userSpaceOnUse" x="137" y="303" width="61" height="31">
<path d="M195.652 312.859C194.182 311.038 191.972 309.336 189.021 307.853C177.252 301.963 158.178 301.963 146.409 307.853C143.458 309.325 141.248 311.038 139.778 312.859H137.579V318.531C137.579 322.392 140.519 326.253 146.409 329.209C158.178 335.098 177.252 335.098 189.021 329.209C194.901 326.264 197.851 322.403 197.851 318.531V312.859H195.652Z" fill="white"/>
</mask>
<g mask="url(#mask18_46_30597)">
<path d="M141.355 286.224H140.256V335.578H141.355V286.224Z" fill="#E68F17"/>
<path d="M145.102 289.191H143.991V338.556H145.102V289.191Z" fill="#E68F17"/>
<path d="M148.825 292.157H147.726V341.512H148.825V292.157Z" fill="#E68F17"/>
<path d="M152.569 295.124H151.47V344.479H152.569V295.124Z" fill="#E68F17"/>
<path d="M156.893 293.466H155.782V342.821H156.893V293.466Z" fill="#E68F17"/>
<path d="M161.203 291.809H160.093V341.163H161.203V291.809Z" fill="#E68F17"/>
<path d="M165.504 290.151H164.404V339.505H165.504V290.151Z" fill="#E68F17"/>
<path d="M169.838 288.482H168.728V337.836H169.838V288.482Z" fill="#E68F17"/>
<path d="M173.822 290.151H172.723V339.505H173.822V290.151Z" fill="#E68F17"/>
<path d="M177.828 291.809H176.729V341.163H177.828V291.809Z" fill="#E68F17"/>
<path d="M181.834 293.466H180.734V342.821H181.834V293.466Z" fill="#E68F17"/>
<path d="M185.841 295.124H184.73V344.479H185.841V295.124Z" fill="#E68F17"/>
<path d="M189.849 296.793H188.738V346.147H189.849V296.793Z" fill="#E68F17"/>
<path d="M193.833 298.451H192.733V347.805H193.833V298.451Z" fill="#E68F17"/>
</g>
<path d="M167.715 327.954C184.359 327.954 197.851 321.196 197.851 312.859C197.851 304.522 184.359 297.764 167.715 297.764C151.071 297.764 137.579 304.522 137.579 312.859C137.579 321.196 151.071 327.954 167.715 327.954Z" fill="#FCC881"/>
<path d="M148.671 305.355C159.188 300.087 176.227 300.087 186.744 305.355C191.48 307.733 194.071 310.776 194.528 313.873C195.095 310.089 192.514 306.217 186.744 303.326C176.227 298.058 159.188 298.058 148.671 303.326C142.901 306.217 140.321 310.1 140.887 313.873C141.344 310.765 143.935 307.733 148.671 305.355Z" fill="#E68F17"/>
<path d="M148.672 322.392C159.189 327.66 176.228 327.66 186.745 322.392C191.481 320.014 194.072 316.971 194.529 313.873C194.061 310.765 191.481 307.722 186.745 305.355C176.228 300.087 159.189 300.087 148.672 305.355C143.936 307.733 141.345 310.776 140.888 313.873C141.345 316.982 143.936 320.025 148.672 322.392Z" fill="#F2AC4B"/>
<path d="M154.888 313.001C155.595 314.102 157.087 315.597 159.395 316.753C161.877 317.996 164.218 318.138 165.786 317.353C167.277 316.611 166.994 315.607 165.143 313.655C162.552 310.972 162.16 308.572 165.644 306.827C169.727 304.788 176.259 304.93 181.899 307.754C184.599 309.107 186.014 310.383 186.798 311.419L181.224 313.001C180.723 312.292 179.7 311.103 177.359 309.925C175.018 308.747 172.819 308.714 171.578 309.336C170.054 310.099 170.729 311.114 172.645 313.252C175.312 316.153 175.094 318.247 171.719 319.938C167.713 321.944 161.213 322.108 154.648 318.814C151.915 317.44 149.923 315.738 149.324 314.691L154.888 313.001Z" fill="#DB8816"/>
<path d="M155.541 321.824L151.915 320.014L181.964 304.962L185.589 306.773L155.541 321.824Z" fill="#DB8816"/>
<path d="M185.59 305.715V306.773L183.729 307.711L182.477 307.275L185.59 305.715Z" fill="#F09518"/>
<path d="M149.313 314.691V313.622L151.589 314.157L150.446 315.302L149.313 314.691Z" fill="#DB8816"/>
<path d="M151.915 320.014V318.945L155.541 320.766V321.824L151.915 320.014Z" fill="#EB9217"/>
<path d="M186.798 311.419V310.35L181.224 311.943V313.001L186.798 311.419Z" fill="#EB9217"/>
<path d="M154.888 311.943C155.595 313.044 157.087 314.538 159.395 315.695C161.877 316.938 164.218 317.08 165.786 316.295C167.277 315.553 166.994 314.549 165.143 312.597C162.552 309.914 162.16 307.514 165.644 305.769C169.727 303.73 176.259 303.871 181.899 306.696C184.599 308.049 186.014 309.325 186.798 310.361L181.224 311.943C180.723 311.234 179.7 310.045 177.359 308.867C175.018 307.689 172.819 307.656 171.578 308.278C170.054 309.041 170.729 310.056 172.645 312.193C175.312 315.095 175.094 317.189 171.719 318.879C167.713 320.886 161.213 321.05 154.648 317.756C151.915 316.382 149.923 314.68 149.324 313.633L154.888 311.943Z" fill="#FCC881"/>
<path d="M155.541 320.766L151.915 318.945L181.964 303.893L185.589 305.715L155.541 320.766Z" fill="#FCC881"/>
<path d="M269.873 230.476C269.423 230.356 264.443 224.827 264.443 224.827L258.383 214.009L256.943 204.543L254.513 199.254L251.333 195.588C249.594 193.154 251.213 191.681 252.773 192.913L256.733 196.249L259.613 199.675L257.393 193.695L251.873 187.054C250.584 185.25 251.693 182.907 253.643 184.619L261.713 192.222L261.263 189.698L255.743 182.275C254.453 180.593 255.683 177.948 257.963 180.292L265.133 188.015L262.493 181.404C261.653 178.549 263.573 177.497 265.253 180.292L268.193 185.401C269.333 187.384 270.143 189.518 270.623 191.741L272.003 198.353L272.963 202.409C273.833 206.136 273.713 210.012 272.573 213.648L271.553 216.924L278.633 224.767L269.873 230.476Z" fill="#FFB294"/>
<path d="M343.703 210.433L335.963 204.543V192.583L333.203 182.336L324.083 166.078C322.943 163.885 320.843 165.597 321.713 167.761L322.463 169.865L318.953 166.168C317.693 164.606 315.743 166.409 316.403 167.611L318.203 170.796L317.933 170.526C317.603 170.195 317.123 170.105 316.673 170.255C316.223 170.406 315.923 170.766 315.833 171.247C315.683 172.179 315.773 173.17 316.193 173.921L321.473 183.327L319.043 180.472C317.573 179 315.593 180.923 316.403 182.696L321.593 193.875C321.473 199.104 322.973 201.838 324.983 203.852C326.393 204.783 327.893 207.247 329.063 209.171L337.523 219.508L343.703 210.433Z" fill="#FFB294"/>
<path d="M387.563 227.832L373.583 223.745L335.963 204.543C329.964 207.157 330.084 210.433 330.354 216.954C342.263 230.056 360.833 242.496 374.123 244.179C375.323 244.48 376.493 244.78 377.663 245.051L387.563 227.832Z" fill="url(#paint16_linear_46_30597)"/>
<path d="M374.302 231.588L378.052 201.267L398.181 193.965L401.031 219.177L374.302 231.588Z" fill="#FFB294"/>
<path d="M401.181 430.522C401.181 430.522 394.131 433.558 392.931 436.292C391.731 438.997 393.951 443.805 393.951 443.805C393.951 443.805 396.771 449.605 398.961 451.618C401.151 453.631 405.741 455.164 405.741 455.164C405.741 455.164 408.921 463.758 413.241 464.9C417.591 466.042 421.731 464.449 423.861 460.483C425.991 456.516 420.921 445.428 420.921 445.428L401.181 430.522Z" fill="#162E66"/>
<path d="M315.741 460.933V476.5C315.741 476.5 317.601 484.613 314.511 487.829C311.421 491.044 307.731 490.112 303.472 488.7C299.212 487.288 290.332 476.86 290.332 476.86C290.332 476.86 283.762 474.216 281.062 470.88C278.362 467.515 276.412 462.586 276.652 459.16C276.892 455.735 278.602 453.03 280.852 451.407C285.592 447.982 289.042 449.965 300.082 456.937L306.051 452.069L315.741 460.933Z" fill="#162E66"/>
<path d="M420.922 445.428C418.162 451.438 410.482 453.151 404.722 449.935C402.203 448.523 400.043 446.149 398.813 442.783C395.963 426.165 385.703 400.472 376.913 372.165C372.593 361.797 372.713 358.732 369.833 350.107C363.173 354.916 355.343 356.929 347.393 360.926L328.073 386.138C333.953 405.941 329.513 438.696 321.203 475.117C310.374 478.573 301.224 478.062 298.014 464.059C300.024 452.429 300.744 441.251 301.044 430.583C301.614 410.479 300.594 392.298 303.324 376.822C307.224 352.812 314.183 330.935 327.083 313.145C328.733 310.831 330.533 308.608 332.393 306.444L344.423 288.744H388.613L398.483 309.99C402.173 319.967 404.543 332.137 400.883 341.182L398.573 360.475C411.892 380.338 417.892 410.539 420.922 445.428Z" fill="url(#paint17_linear_46_30597)"/>
<path d="M399.41 291.93C397.521 298.721 401.12 318.374 401.12 318.374C385.641 331.206 356.631 338.328 339.441 328.802C333.681 325.586 329.241 320.538 327.111 313.145C328.521 293.402 333.351 272.517 340.101 257.221C343.521 249.438 347.451 243.128 351.651 239.101L381.981 222.213C388.251 218.727 394.971 216.112 401.93 214.429L412.34 211.935C426.47 211.935 428.24 234.353 420.29 253.255C420.35 253.285 401.3 285.168 399.41 291.93Z" fill="url(#paint18_linear_46_30597)"/>
<path d="M379.04 214.43L374.15 211.815C370.73 209.982 368.3 206.737 367.52 202.95C366.11 196.129 364.85 185.07 369.08 177.468C375.59 165.748 383.33 163.644 394.94 168.933C406.55 174.252 410.3 183.658 405.56 196.61C400.82 209.562 397.61 207.458 397.61 207.458L379.04 214.43Z" fill="#FFB294"/>
<path d="M367.493 181.344L372.892 190.329L374.302 197.511L376.072 200.606L376.642 204.964C377.092 208.419 379.942 211.034 383.422 211.214C387.652 211.424 393.562 210.733 399.652 207.037C399.652 207.037 404.692 204.303 407.572 192.372C410.452 180.412 404.122 172.9 401.032 170.826C397.942 168.753 381.412 159.016 371.572 166.229C360.683 174.162 367.493 181.344 367.493 181.344Z" fill="#173D7A"/>
<path d="M376.252 192.613C376.882 192.703 377.422 193.124 377.782 193.665C378.142 194.205 378.292 194.837 378.442 195.468C378.922 197.872 378.832 200.426 378.112 202.77C377.932 203.371 377.692 204.002 377.302 204.483C376.882 204.964 376.282 205.324 375.622 205.264C374.992 205.204 374.482 204.783 374.152 204.242C373.822 203.701 373.672 203.1 373.552 202.499C373.132 200.456 371.812 192.012 376.252 192.613Z" fill="#FFB294"/>
<path opacity="0.5" d="M339.473 328.802C322.913 339.079 313.013 358.972 308.093 386.108C308.093 386.108 306.503 420.937 301.104 430.523C301.674 410.449 300.654 392.298 303.353 376.822C307.253 352.812 314.213 330.935 327.113 313.146C329.273 320.538 333.713 325.616 339.473 328.802Z" fill="#154C8C"/>
<path opacity="0.5" d="M359.512 260.377C346.552 274.591 339.622 297.068 339.472 328.832C333.713 325.616 329.273 320.568 327.143 313.175C328.553 293.432 333.383 272.547 340.132 257.251L359.512 260.377Z" fill="#227FBC"/>
<path d="M365.032 238.23L308.663 239.792L271.523 216.984C265.613 219.027 264.203 224.376 264.443 230.927C276.203 245.171 293.093 258.604 306.203 261.549C324.262 268.04 340.462 268.851 362.992 269.242C378.292 270.774 381.172 240.754 365.032 238.23Z" fill="url(#paint19_linear_46_30597)"/>
<path opacity="0.5" d="M404.75 449.935C402.23 448.523 400.07 446.149 398.84 442.783C395.99 426.165 385.73 400.472 376.94 372.165C372.62 361.797 372.74 358.732 369.86 350.107L381.65 345.179C380.15 355.877 380.9 362.849 384.02 372.405C394.7 397.948 401.39 423.791 404.75 449.935Z" fill="#154C8C"/>
<defs>
<linearGradient id="paint0_linear_46_30597" x1="30.8823" y1="168.4" x2="12.2496" y2="177.481" gradientUnits="userSpaceOnUse">
<stop stop-color="#BB45FF"/>
<stop offset="1" stop-color="#1450BD"/>
</linearGradient>
<linearGradient id="paint1_linear_46_30597" x1="44.6547" y1="154.553" x2="25.1208" y2="162.849" gradientUnits="userSpaceOnUse">
<stop stop-color="#BB45FF"/>
<stop offset="1" stop-color="#1450BD"/>
</linearGradient>
<linearGradient id="paint2_linear_46_30597" x1="58.4379" y1="163.367" x2="41.4669" y2="173.531" gradientUnits="userSpaceOnUse">
<stop stop-color="#BB45FF"/>
<stop offset="1" stop-color="#1450BD"/>
</linearGradient>
<linearGradient id="paint3_linear_46_30597" x1="72.2114" y1="138.247" x2="52.4162" y2="146.283" gradientUnits="userSpaceOnUse">
<stop stop-color="#BB45FF"/>
<stop offset="1" stop-color="#1450BD"/>
</linearGradient>
<linearGradient id="paint4_linear_46_30597" x1="85.9936" y1="140.792" x2="67.3622" y2="149.874" gradientUnits="userSpaceOnUse">
<stop stop-color="#BB45FF"/>
<stop offset="1" stop-color="#1450BD"/>
</linearGradient>
<linearGradient id="paint5_linear_46_30597" x1="99.767" y1="112.116" x2="79.0152" y2="119.034" gradientUnits="userSpaceOnUse">
<stop stop-color="#BB45FF"/>
<stop offset="1" stop-color="#1450BD"/>
</linearGradient>
<linearGradient id="paint6_linear_46_30597" x1="73.5535" y1="161.512" x2="54.9644" y2="225.093" gradientUnits="userSpaceOnUse">
<stop stop-color="#BB45FF"/>
<stop offset="1" stop-color="#1450BD"/>
</linearGradient>
<linearGradient id="paint7_linear_46_30597" x1="0.00642349" y1="219.961" x2="158.62" y2="219.961" gradientUnits="userSpaceOnUse">
<stop stop-color="#17237D"/>
<stop offset="0.22" stop-color="#1A3C7F"/>
<stop offset="0.6839" stop-color="#237B85"/>
<stop offset="1" stop-color="#29A989"/>
</linearGradient>
<linearGradient id="paint8_linear_46_30597" x1="72.9466" y1="310.76" x2="88.7475" y2="130.483" gradientUnits="userSpaceOnUse">
<stop stop-color="#2538C9"/>
<stop offset="0.1619" stop-color="#2851C9"/>
<stop offset="0.506" stop-color="#2F90C8"/>
<stop offset="1" stop-color="#3BF5C6"/>
</linearGradient>
<linearGradient id="paint9_linear_46_30597" x1="242.871" y1="75.3699" x2="125.686" y2="231.563" gradientUnits="userSpaceOnUse">
<stop stop-color="#BB45FF"/>
<stop offset="1" stop-color="#1450BD"/>
</linearGradient>
<linearGradient id="paint10_linear_46_30597" x1="157.029" y1="161.906" x2="288.29" y2="161.906" gradientUnits="userSpaceOnUse">
<stop stop-color="#FFF5F5"/>
<stop offset="1" stop-color="#FEF7FF"/>
</linearGradient>
<linearGradient id="paint11_linear_46_30597" x1="234.245" y1="88.7488" x2="130.635" y2="219.802" gradientUnits="userSpaceOnUse">
<stop stop-color="#BB45FF"/>
<stop offset="1" stop-color="#1450BD"/>
</linearGradient>
<linearGradient id="paint12_linear_46_30597" x1="230.442" y1="35.6965" x2="226.71" y2="56.0952" gradientUnits="userSpaceOnUse">
<stop stop-color="#BB45FF"/>
<stop offset="1" stop-color="#1450BD"/>
</linearGradient>
<linearGradient id="paint13_linear_46_30597" x1="294.76" y1="114.763" x2="285.766" y2="119.852" gradientUnits="userSpaceOnUse">
<stop stop-color="#4FDAA8"/>
<stop offset="1" stop-color="#5286E3"/>
</linearGradient>
<linearGradient id="paint14_linear_46_30597" x1="294.76" y1="148.989" x2="285.766" y2="154.079" gradientUnits="userSpaceOnUse">
<stop stop-color="#4FDAA8"/>
<stop offset="1" stop-color="#5286E3"/>
</linearGradient>
<linearGradient id="paint15_linear_46_30597" x1="259.303" y1="58.1445" x2="257.781" y2="62.3151" gradientUnits="userSpaceOnUse">
<stop stop-color="#BB45FF"/>
<stop offset="1" stop-color="#1450BD"/>
</linearGradient>
<linearGradient id="paint16_linear_46_30597" x1="364.706" y1="214.13" x2="357.909" y2="243.615" gradientUnits="userSpaceOnUse">
<stop stop-color="#BB45FF"/>
<stop offset="1" stop-color="#1450BD"/>
</linearGradient>
<linearGradient id="paint17_linear_46_30597" x1="371.9" y1="333.277" x2="314.258" y2="448.735" gradientUnits="userSpaceOnUse">
<stop stop-color="#BB45FF"/>
<stop offset="1" stop-color="#1450BD"/>
</linearGradient>
<linearGradient id="paint18_linear_46_30597" x1="385.957" y1="240.633" x2="353.677" y2="320.542" gradientUnits="userSpaceOnUse">
<stop stop-color="#BB45FF"/>
<stop offset="1" stop-color="#1450BD"/>
</linearGradient>
<linearGradient id="paint19_linear_46_30597" x1="331.419" y1="229.365" x2="325.422" y2="268.549" gradientUnits="userSpaceOnUse">
<stop stop-color="#BB45FF"/>
<stop offset="1" stop-color="#1450BD"/>
</linearGradient>
</defs>
</svg>
